<?xml version="1.0" encoding="UTF-8" standalone="no"?>
<!-- Created with Inkscape (http://www.inkscape.org/) -->

<svg
   width="80"
   height="50.355717"
   viewBox="0 0 80 50.355717"
   version="1.1"
   id="svg1"
   xmlns="http://www.w3.org/2000/svg"
   xmlns:svg="http://www.w3.org/2000/svg">
  <defs
     id="defs1" />
  <g
     id="layer1"
     style="display:inline"
     transform="translate(-7.4314623,-25.712187)">
    <g
       id="g1"
       transform="matrix(0.75667961,0,0,0.75667961,1.8306289,6.2647911)">
      <g
         transform="matrix(0.13333333,0,0,-0.13333333,106.33433,25.747086)"
         id="g1590"
         style="display:inline">
        <path
           id="path1592"
           style="fill:#4d4d4d;fill-opacity:1;fill-rule:nonzero;stroke:none"
           d="m 0,0 h -689.224 c -28.594,0 -51.857,-23.263 -51.857,-51.857 v -395.398 c 0,-28.595 23.263,-51.858 51.857,-51.858 H 0 c 28.594,0 51.857,23.264 51.857,51.858 V -51.857 C 51.857,-23.263 28.594,0 0,0 m 0,0 v -6 c 25.286,0 45.857,-20.571 45.857,-45.857 v -395.398 c 0,-25.286 -20.571,-45.858 -45.857,-45.858 h -689.224 c -25.285,0 -45.857,20.572 -45.857,45.858 v 395.398 c 0,25.285 20.571,45.857 45.857,45.857 L 0,-6 v 6" />
      </g>
      <g
         transform="matrix(0.13333333,0,0,-0.13333333,43.544029,81.198445)"
         id="g1594"
         style="display:inline">
        <path
           id="path1596"
           style="fill:#1a1a1a;fill-opacity:1;fill-rule:nonzero;stroke:none"
           d="m 0,0 c 0,6.498 4.204,11.848 11.084,11.848 6.497,0 11.083,-4.969 11.083,-11.848 0,-6.497 -4.586,-11.848 -11.083,-11.848 C 4.204,-11.466 0,-6.497 0,0 M 29.811,0 V 18.345 H 21.785 V 13.759 C 19.11,17.199 15.288,19.11 10.319,19.11 0,19.11 -8.026,11.083 -8.026,0 c 0,-11.083 8.026,-19.109 18.345,-19.109 5.351,0 9.173,1.91 11.466,5.35 v -4.586 h 8.026 z M 298.11,0 c 0,6.498 4.204,11.848 11.084,11.848 6.497,0 11.084,-4.969 11.084,-11.848 0,-6.497 -4.587,-11.848 -11.084,-11.848 -6.88,0.382 -11.084,5.351 -11.084,11.848 m 29.43,0 v 32.869 h -8.027 v -19.11 c -2.675,3.44 -6.497,5.351 -11.466,5.351 -10.318,0 -18.345,-8.027 -18.345,-19.11 0,-11.083 8.027,-19.109 18.345,-19.109 5.351,0 9.173,1.91 11.466,5.35 v -4.586 h 8.027 z M 128.417,12.23 c 4.968,0 8.408,-3.057 9.172,-8.79 H 118.48 c 0.764,4.968 4.204,8.79 9.937,8.79 m 0,6.88 c -10.702,0 -18.345,-7.644 -18.345,-19.11 0,-11.466 7.643,-19.109 18.727,-19.109 5.351,0 10.701,1.528 14.906,4.968 l -3.822,5.733 c -3.058,-2.293 -6.88,-3.822 -10.702,-3.822 -4.968,0 -9.937,2.293 -11.083,8.791 h 27.135 v 3.057 c 0.383,11.848 -6.497,19.492 -16.816,19.492 M 224.347,0 c 0,6.498 4.204,11.848 11.084,11.848 6.497,0 11.084,-4.969 11.084,-11.848 0,-6.497 -4.587,-11.848 -11.084,-11.848 -6.88,0.382 -11.084,5.351 -11.084,11.848 m 29.429,0 v 18.345 h -8.026 v -4.586 c -2.675,3.44 -6.497,5.351 -11.466,5.351 -10.319,0 -18.345,-8.027 -18.345,-19.11 0,-11.083 8.026,-19.109 18.345,-19.109 5.351,0 9.173,1.91 11.466,5.35 v -4.586 h 8.026 z m -74.145,0 c 0,-11.083 7.643,-19.109 19.492,-19.109 5.35,0 9.172,1.146 12.994,4.204 l -3.822,6.497 c -3.057,-2.293 -6.115,-3.44 -9.555,-3.44 -6.497,0 -11.083,4.586 -11.083,11.848 0,6.879 4.586,11.466 11.083,11.848 3.44,0 6.498,-1.146 9.555,-3.44 l 3.822,6.498 c -3.822,3.057 -7.644,4.204 -12.994,4.204 -11.849,0 -19.492,-8.027 -19.492,-19.11 m 102.428,19.11 c -4.587,0 -7.644,-2.294 -9.556,-5.351 v 4.586 h -8.025 v -36.69 h 8.025 V 2.293 c 0,6.115 2.676,9.555 7.644,9.555 1.529,0 3.44,-0.382 4.969,-0.765 l 2.293,7.645 c -1.529,0.382 -3.822,0.382 -5.35,0.382 M 68.795,15.288 c -3.822,2.675 -9.173,3.822 -14.906,3.822 -9.172,0 -15.287,-4.587 -15.287,-11.848 0,-6.116 4.586,-9.555 12.612,-10.701 l 3.822,-0.383 c 4.204,-0.764 6.497,-1.911 6.497,-3.822 0,-2.675 -3.057,-4.586 -8.408,-4.586 -5.351,0 -9.555,1.911 -12.23,3.822 l -3.822,-6.115 c 4.204,-3.058 9.937,-4.586 15.67,-4.586 10.701,0 16.816,4.968 16.816,11.847 0,6.498 -4.968,9.937 -12.612,11.084 l -3.822,0.382 c -3.44,0.382 -6.115,1.147 -6.115,3.44 0,2.675 2.675,4.204 6.879,4.204 4.587,0 9.173,-1.911 11.466,-3.057 z m 102.809,3.822 c -4.585,0 -7.643,-2.294 -9.554,-5.351 v 4.586 h -8.026 v -36.69 h 8.026 V 2.293 c 0,6.115 2.675,9.555 7.644,9.555 1.529,0 3.439,-0.382 4.968,-0.765 l 2.294,7.645 c -1.529,0.382 -3.823,0.382 -5.352,0.382 m -68.03,-0.765 H 90.58 V 29.429 H 82.554 V 18.345 h -7.262 v -7.262 h 7.262 V -5.733 c 0,-8.408 3.44,-13.376 12.612,-13.376 3.44,0 7.262,1.146 9.937,2.675 l -2.293,6.879 c -2.293,-1.528 -4.969,-1.911 -6.879,-1.911 -3.823,0 -5.351,2.294 -5.351,6.115 v 16.434 h 12.994 z M -15.288,-18.345 V 4.586 c 0,8.791 -5.35,14.524 -14.523,14.524 -4.586,0 -9.555,-1.529 -12.995,-6.498 -2.675,4.204 -6.497,6.498 -12.23,6.498 -3.821,0 -7.643,-1.147 -10.701,-5.351 v 4.586 h -8.026 v -36.69 h 8.026 V 1.911 c 0,6.497 3.44,9.555 8.79,9.555 5.351,0 8.027,-3.44 8.027,-9.555 v -20.256 h 8.025 V 1.911 c 0,6.497 3.822,9.555 8.791,9.555 5.351,0 8.026,-3.44 8.026,-9.555 v -20.256 z" />
      </g>
      <path
         id="path1598"
         style="display:inline;fill:#ff5f00;fill-opacity:1;fill-rule:nonzero;stroke:none;stroke-width:0.133333"
         d="M 52.359922,41.603273 H 68.412055 V 70.446072 H 52.359922 Z" />
      <g
         transform="matrix(0.13333333,0,0,-0.13333333,53.379122,56.024685)"
         id="g1600"
         style="display:inline">
        <path
           id="path1602"
           style="fill:#eb001b;fill-opacity:1;fill-rule:nonzero;stroke:none"
           d="m 0,0 c 0,43.952 20.639,82.936 52.36,108.161 -23.313,18.345 -52.742,29.428 -84.846,29.428 -76.056,0 -137.59,-61.532 -137.59,-137.589 0,-76.056 61.534,-137.589 137.59,-137.589 32.104,0 61.533,11.083 84.846,29.428 C 20.639,-83.318 0,-43.952 0,0" />
      </g>
      <g
         transform="matrix(0.13333333,0,0,-0.13333333,90.069615,56.024685)"
         id="g1604"
         style="display:inline">
        <path
           id="path1606"
           style="fill:#f79e1b;fill-opacity:1;fill-rule:nonzero;stroke:none"
           d="m 0,0 c 0,-76.056 -61.533,-137.589 -137.589,-137.589 -32.104,0 -61.533,11.083 -84.847,29.428 32.104,25.225 52.36,64.209 52.36,108.161 0,43.952 -20.638,82.936 -52.36,108.161 23.314,18.345 52.743,29.428 84.847,29.428 C -61.533,137.589 0,75.674 0,0" />
      </g>
    </g>
  </g>
  <g
     id="layer2"
     transform="translate(-7.4314623,-25.712187)">
    <g
       id="g2"
       transform="matrix(0.75667961,0,0,0.75667961,1.8082264,6.2562992)">
      <g
         transform="matrix(0.13333333,0,0,-0.13333333,14.345713,91.860491)"
         id="g1724"
         style="display:inline">
        <path
           id="path1726"
           style="fill:#ffffff;fill-opacity:1;fill-rule:nonzero;stroke:none"
           d="m 0,0 c -26.94,0 -48.857,21.917 -48.857,48.857 v 395.398 c 0,26.94 21.917,48.857 48.857,48.857 h 689.224 c 26.94,0 48.857,-21.917 48.857,-48.857 V 48.858 C 738.081,21.917 716.164,0 689.224,0 Z" />
      </g>
      <g
         transform="matrix(0.13333333,0,0,-0.13333333,106.24226,25.712186)"
         id="g1728">
        <path
           id="path1730"
           style="fill:#4d4d4d;fill-opacity:1;fill-rule:nonzero;stroke:none"
           d="m 0,0 h -689.224 c -28.594,0 -51.857,-23.263 -51.857,-51.857 v -395.398 c 0,-28.594 23.263,-51.857 51.857,-51.857 H 0 c 28.594,0 51.857,23.263 51.857,51.857 V -51.857 C 51.857,-23.263 28.594,0 0,0 m 0,0 v -6 c 25.286,0 45.857,-20.571 45.857,-45.857 v -395.398 c 0,-25.286 -20.571,-45.857 -45.857,-45.857 h -689.224 c -25.286,0 -45.857,20.571 -45.857,45.857 v 395.398 c 0,25.286 20.571,45.857 45.857,45.857 L 0,-6 v 6" />
      </g>
      <g
         transform="matrix(0.13333333,0,0,-0.13333333,70.824352,54.504892)"
         id="g1732">
        <path
           id="path1734"
           style="fill:#2478bc;fill-opacity:1;fill-rule:nonzero;stroke:none"
           d="M 0,0 V -21.234 H 62.887 V -44.9 H 0 V -68.082 H 70.537 L 103.313,-33.938 71.928,0.02 H 0 Z m -290.47,4.403 -19.68,-46.453 h 39.338 z m 262.004,19.68 H 86.808 l 35.257,-38.084 36.394,38.084 h 35.257 l -53.57,-58.461 53.57,-57.787 H 156.86 l -35.257,38.526 -36.58,-38.526 H -28.466 Z m -282.798,0 h 42.745 l 48.586,-109.92 v 109.92 h 46.825 l 37.528,-78.812 34.586,78.812 h 46.591 V -92.234 h -28.35 l -0.231,91.146 -41.331,-91.146 h -25.36 l -41.562,91.146 v -91.146 h -58.322 l -11.056,26.077 h -59.735 l -11.034,-26.054 h -31.247 z m -16.967,23.019 -73.25,-162.1 h 87.69 l 10.872,25.846 h 24.848 l 10.871,-25.846 h 96.523 v 19.726 l 8.6,-19.726 h 49.93 l 8.6,20.143 v -20.143 H 97.194 l 24.409,25.174 22.855,-25.174 103.105,-0.209 -73.481,80.806 73.481,81.503 H 146.058 L 122.297,22.393 100.161,47.102 h -218.38 l -18.752,-41.84 -19.192,41.84 H -243.67 V 28.047 l -9.735,19.055 z" />
      </g>
    </g>
  </g>
</svg>
