<svg xmlns="http://www.w3.org/2000/svg" xmlns:xlink="http://www.w3.org/1999/xlink" viewBox="0,0,256,256" width="48px" height="48px"><g fill="none" fill-rule="nonzero" stroke="none" stroke-width="1" stroke-linecap="butt" stroke-linejoin="miter" stroke-miterlimit="10" stroke-dasharray="" stroke-dashoffset="0" font-family="none" font-weight="none" font-size="none" text-anchor="none" style="mix-blend-mode: normal"><g transform="scale(5.33333,5.33333)"><path d="M18,32c-1.1,0 -2,-0.9 -2,-2v-10h-4v10c0,3.3 2.7,6 6,6h19v-4z" fill="#035472"></path><path d="M12.8,10l-0.4,-1.3c-0.6,-1.6 -2.1,-2.7 -3.8,-2.7h-3.6v4h3.6l5.5,16.6c0.3,0.8 1,1.4 1.9,1.4h19c0.8,0 1.5,-0.5 1.8,-1.2l7.6,-16.8z" fill="#035472"></path><path d="M5,6c-1.10457,0 -2,0.89543 -2,2c0,1.10457 0.89543,2 2,2c1.10457,0 2,-0.89543 2,-2c0,-1.10457 -0.89543,-2 -2,-2z" fill="#4cb548"></path><path d="M34,36c-1.65685,0 -3,1.34315 -3,3c0,1.65685 1.34315,3 3,3c1.65685,0 3,-1.34315 3,-3c0,-1.65685 -1.34315,-3 -3,-3zM19,36c-1.65685,0 -3,1.34315 -3,3c0,1.65685 1.34315,3 3,3c1.65685,0 3,-1.34315 3,-3c0,-1.65685 -1.34315,-3 -3,-3z" fill="#137ca4"></path><g fill="#76e972"><path d="M34,38c-0.55228,0 -1,0.44772 -1,1c0,0.55228 0.44772,1 1,1c0.55228,0 1,-0.44772 1,-1c0,-0.55228 -0.44772,-1 -1,-1zM19,38c-0.55228,0 -1,0.44772 -1,1c0,0.55228 0.44772,1 1,1c0.55228,0 1,-0.44772 1,-1c0,-0.55228 -0.44772,-1 -1,-1z"></path></g></g></g><g fill="#ffffff" fill-rule="nonzero" stroke="none" stroke-width="1" stroke-linecap="butt" stroke-linejoin="miter" stroke-miterlimit="10" stroke-dasharray="" stroke-dashoffset="0" font-family="none" font-weight="none" font-size="none" text-anchor="none" style="mix-blend-mode: normal"><g><path d="M156.14,118.60667v4.72h-29.81v-4.16l15.75,-17.5c2.33333,-2.64 3.94333,-4.79 4.83,-6.45c0.88667,-1.65333 1.33,-3.36667 1.33,-5.14v0c0,-2.37333 -0.72,-4.32 -2.16,-5.84c-1.43333,-1.52 -3.35,-2.28 -5.75,-2.28v0c-2.87333,0 -5.10667,0.81667 -6.7,2.45c-1.59333,1.63333 -2.39,3.91 -2.39,6.83v0h-5.78c0,-4.18667 1.34667,-7.57333 4.04,-10.16c2.7,-2.58 6.31,-3.87 10.83,-3.87v0c4.23333,0 7.57667,1.10667 10.03,3.32c2.46,2.22 3.69,5.17333 3.69,8.86v0c0,4.48 -2.85333,9.81333 -8.56,16v0l-12.19,13.22z"></path></g></g></svg>