<svg xmlns="http://www.w3.org/2000/svg" xmlns:xlink="http://www.w3.org/1999/xlink" viewBox="0,0,256,256" width="48px" height="48px"><g fill="none" fill-rule="nonzero" stroke="none" stroke-width="1" stroke-linecap="butt" stroke-linejoin="miter" stroke-miterlimit="10" stroke-dasharray="" stroke-dashoffset="0" font-family="none" font-weight="none" font-size="none" text-anchor="none" style="mix-blend-mode: normal"><g transform="scale(5.33333,5.33333)"><path d="M18,32c-1.1,0 -2,-0.9 -2,-2v-10h-4v10c0,3.3 2.7,6 6,6h19v-4z" fill="#035472"></path><path d="M12.8,10l-0.4,-1.3c-0.6,-1.6 -2.1,-2.7 -3.8,-2.7h-3.6v4h3.6l5.5,16.6c0.3,0.8 1,1.4 1.9,1.4h19c0.8,0 1.5,-0.5 1.8,-1.2l7.6,-16.8z" fill="#035472"></path><path d="M5,6c-1.10457,0 -2,0.89543 -2,2c0,1.10457 0.89543,2 2,2c1.10457,0 2,-0.89543 2,-2c0,-1.10457 -0.89543,-2 -2,-2z" fill="#4cb548"></path><path d="M34,36c-1.65685,0 -3,1.34315 -3,3c0,1.65685 1.34315,3 3,3c1.65685,0 3,-1.34315 3,-3c0,-1.65685 -1.34315,-3 -3,-3zM19,36c-1.65685,0 -3,1.34315 -3,3c0,1.65685 1.34315,3 3,3c1.65685,0 3,-1.34315 3,-3c0,-1.65685 -1.34315,-3 -3,-3z" fill="#137ca4"></path><g fill="#76e972"><path d="M34,38c-0.55228,0 -1,0.44772 -1,1c0,0.55228 0.44772,1 1,1c0.55228,0 1,-0.44772 1,-1c0,-0.55228 -0.44772,-1 -1,-1zM19,38c-0.55228,0 -1,0.44772 -1,1c0,0.55228 0.44772,1 1,1c0.55228,0 1,-0.44772 1,-1c0,-0.55228 -0.44772,-1 -1,-1z"></path></g></g></g><g fill="#ffffff" fill-rule="nonzero" stroke="none" stroke-width="1" stroke-linecap="butt" stroke-linejoin="miter" stroke-miterlimit="10" stroke-dasharray="" stroke-dashoffset="0" font-family="none" font-weight="none" font-size="none" text-anchor="none" style="mix-blend-mode: normal"><g><path d="M116.74,102.17167v-4.72h4.34c2.73333,-0.04 4.88,-0.76 6.44,-2.16c1.56,-1.39333 2.34,-3.27667 2.34,-5.65v0c0,-5.33333 -2.65667,-8 -7.97,-8v0c-2.5,0 -4.49333,0.71333 -5.98,2.14c-1.48667,1.42667 -2.23,3.31667 -2.23,5.67v0h-5.79c0,-3.60667 1.32,-6.60333 3.96,-8.99c2.63333,-2.38 5.98,-3.57 10.04,-3.57v0c4.29333,0 7.66,1.13333 10.1,3.4c2.43333,2.27333 3.65,5.43 3.65,9.47v0c0,1.98 -0.64,3.89667 -1.92,5.75c-1.28,1.85333 -3.02333,3.24 -5.23,4.16v0c2.5,0.78667 4.43,2.09667 5.79,3.93c1.36667,1.83333 2.05,4.07333 2.05,6.72v0c0,4.08667 -1.33333,7.32667 -4,9.72c-2.66667,2.4 -6.13333,3.6 -10.4,3.6c-4.27333,0 -7.75,-1.15667 -10.43,-3.47c-2.67333,-2.31333 -4.01,-5.36667 -4.01,-9.16v0h5.81c0,2.39333 0.78,4.31 2.34,5.75c1.56667,1.44 3.66333,2.16 6.29,2.16v0c2.78667,0 4.92,-0.73 6.4,-2.19c1.48,-1.46 2.22,-3.55333 2.22,-6.28v0c0,-2.64667 -0.81333,-4.68 -2.44,-6.1c-1.62,-1.41333 -3.96333,-2.14 -7.03,-2.18v0zM161.43,85.32167v13.28h12.68v5.47h-12.68v14.38h-5.82v-14.38h-12.68v-5.47h12.68v-13.28z"></path></g></g></svg>