<?xml version="1.0" encoding="UTF-8" standalone="no"?>
<!-- Created with Inkscape (http://www.inkscape.org/) -->

<svg
   width="48"
   height="48"
   viewBox="0 0 48 48"
   version="1.1"
   id="svg1"
   xml:space="preserve"
   inkscape:export-filename="favicon"
   inkscape:export-xdpi="300"
   inkscape:export-ydpi="300"
   xmlns:inkscape="http://www.inkscape.org/namespaces/inkscape"
   xmlns:sodipodi="http://sodipodi.sourceforge.net/DTD/sodipodi-0.dtd"
   xmlns="http://www.w3.org/2000/svg"
   xmlns:svg="http://www.w3.org/2000/svg"><sodipodi:namedview
     id="namedview1"
     pagecolor="#ffffff"
     bordercolor="#000000"
     borderopacity="0.25"
     inkscape:showpageshadow="2"
     inkscape:pageopacity="0.0"
     inkscape:pagecheckerboard="0"
     inkscape:deskcolor="#d1d1d1"
     inkscape:document-units="px"
     inkscape:export-bgcolor="#ffffffff"
     inkscape:zoom="11.873501"
     inkscape:cx="24.08725"
     inkscape:cy="23.960919"
     inkscape:window-width="1920"
     inkscape:window-height="1009"
     inkscape:window-x="-8"
     inkscape:window-y="-8"
     inkscape:window-maximized="1"
     inkscape:current-layer="layer1" /><defs
     id="defs1"><style
       id="style1">.cls-1{fill:#1a4581;}.cls-2{fill:#0798d5;}</style></defs><g
     inkscape:label="Layer 1"
     inkscape:groupmode="layer"
     id="layer1"><g
       id="Layer_1-2"
       transform="matrix(0.1873613,0,0,0.19999853,4.0002358,4.000294)"
       style="stroke-width:5.16591"><path
         class="cls-1"
         d="M 62.77,54.12 194.91,14.38 c 1.42,-0.42 2.48,0.15 2.99,0.53 0.51,0.38 1.37,1.24 1.37,2.72 V 156.3 c 0,1.87 -1.52,3.39 -3.38,3.39 h -5.25 c 3.03,4.5 5.94,9.12 8.73,13.87 8.05,-1.62 14.12,-8.74 14.12,-17.25 V 17.62 c 0,-5.63 -2.58,-10.77 -7.1,-14.13 -4.51,-3.36 -10.18,-4.35 -15.57,-2.73 L 42.22,45.45 c -0.09,0.03 -0.17,0.07 -0.26,0.1 6.82,2.52 13.78,5.38 20.81,8.57 z"
         id="path1"
         style="stroke-width:5.16591" /><path
         class="cls-1"
         d="M 43.91,156.29 V 76.25 C 39.3,73.76 34.54,71.46 29.69,69.26 v 87.03 c 0,9.71 7.89,17.6 17.6,17.6 h 0.81 l 8.34,-14.22 h -9.15 c -1.87,0 -3.38,-1.52 -3.38,-3.39 z"
         id="path2"
         style="stroke-width:5.16591" /><path
         class="cls-1"
         d="m 128.52,159.67 h -10.64 l -8.51,14.22 h 26.38 c -2.25,-4.87 -4.67,-9.6 -7.23,-14.22 z"
         id="path3"
         style="stroke-width:5.16591" /><path
         class="cls-2"
         d="m 143.68,106.4 14.39,-24.49 18.3,-31.23 h -0.28 c 0,0 -41.65,0 -41.65,0 -4.82,0 -9.67,2.96 -12.21,7.46 l -13.02,21.75 c 11.79,7.85 23.37,16.68 34.46,26.51 z"
         id="path4"
         style="stroke-width:5.16591" /><path
         class="cls-2"
         d="M 91,110.5 63.64,157.01 38.44,200 h 0.23 c 0,0 41.66,0 41.66,0 4.82,0 9.68,-2.96 12.21,-7.46 l 27.83,-46.5 C 111.86,133.05 102.04,121.17 91,110.5 Z"
         id="path5"
         style="stroke-width:5.16591" /><path
         class="cls-2"
         d="M 186.51,166.95 C 124.08,72 41.18,50.34 29.25,45.71 26.21,44.53 22.87,44.54 19.75,45.48 L 0.52,51.26 c -0.7,0.21 -0.69,1.16 0,1.37 15.59,4.84 99.82,29.27 141.24,121.75 0,0 5.84,13.83 6.52,15.44 0.68,1.61 2.73,10.18 12.04,10.18 h 45.66 c 0,0 -19.47,-33.05 -19.47,-33.05 z"
         id="path6"
         style="stroke-width:5.16591" /></g></g></svg>
