<?xml version="1.0" encoding="UTF-8" standalone="no"?>
<!-- Created with Inkscape (http://www.inkscape.org/) -->

<svg
   version="1.1"
   id="svg1"
   width="248.44574"
   height="93.122192"
   viewBox="0 0 248.44574 93.122192"
   xmlns="http://www.w3.org/2000/svg"
   xmlns:svg="http://www.w3.org/2000/svg">
  <defs
     id="defs1">
    <filter
       style="color-interpolation-filters:sRGB"
       id="filter8"
       x="0"
       y="0"
       width="1"
       height="1">
      <feComponentTransfer
         in="blur"
         result="component"
         id="feComponentTransfer8">
        <feFuncR
           type="gamma"
           amplitude="1"
           exponent="1"
           offset="0"
           id="feFuncR8" />
        <feFuncG
           type="gamma"
           amplitude="1"
           exponent="1"
           offset="0"
           id="feFuncG8" />
        <feFuncB
           type="gamma"
           amplitude="1"
           exponent="1"
           offset="0"
           id="feFuncB8" />
      </feComponentTransfer>
    </filter>
    <filter
       style="color-interpolation-filters:sRGB"
       id="filter9"
       x="0"
       y="0"
       width="1"
       height="1">
      <feComponentTransfer
         in="blur"
         result="component"
         id="feComponentTransfer9">
        <feFuncR
           type="gamma"
           amplitude="1"
           exponent="1"
           offset="0"
           id="feFuncR9" />
        <feFuncG
           type="gamma"
           amplitude="1"
           exponent="1"
           offset="0"
           id="feFuncG9" />
        <feFuncB
           type="gamma"
           amplitude="1"
           exponent="1"
           offset="0"
           id="feFuncB9" />
      </feComponentTransfer>
    </filter>
    <filter
       style="color-interpolation-filters:sRGB"
       id="filter10"
       x="0"
       y="0"
       width="1"
       height="1">
      <feConvolveMatrix
         order="3 3"
         kernelMatrix="0 -0.15 0 -0.15 1.6 -0.15 0 -0.15 0"
         divisor="1"
         in="SourceGraphic"
         targetX="1"
         targetY="1"
         id="feConvolveMatrix9"
         result="fbSourceGraphic" />
      <feColorMatrix
         result="fbSourceGraphicAlpha"
         in="fbSourceGraphic"
         values="0 0 0 -1 0 0 0 0 -1 0 0 0 0 -1 0 0 0 0 1 0"
         id="feColorMatrix10" />
      <feConvolveMatrix
         id="feConvolveMatrix10"
         order="3 3"
         kernelMatrix="0 -0.15 0 -0.15 1.6 -0.15 0 -0.15 0"
         divisor="1"
         in="fbSourceGraphic"
         targetX="1"
         targetY="1" />
    </filter>
  </defs>
  <g
     id="layer1"
     transform="translate(-336.1488,-42.377811)">
    <g
       id="g2"
       transform="translate(290.3871,2.7806423)"
       style="filter:url(#filter10)">
      <path
         style="fill:#a7cde6"
         d="m 219.05036,132.38886 c -2.16869,-0.51532 -4.97079,-3.24902 -4.98177,-4.86016 -0.004,-0.54727 -0.17896,-1.26682 -0.38941,-1.59899 -2.82636,-4.46115 8.46668,-11.63641 12.06188,-7.66376 0.83503,0.9227 0.98614,2.73266 0.22815,2.73266 -0.27758,0 -0.75391,0.34082 -1.05851,0.75738 -0.4698,0.6425 -0.73225,0.67608 -1.73016,0.22141 -1.73049,-0.78847 -2.72535,-0.66103 -3.9901,0.5111 -1.30598,1.21034 -1.59856,3.99195 -0.46562,4.4267 0.36531,0.14018 0.66421,0.56002 0.66421,0.93298 0,0.91014 2.92329,0.9177 3.83108,0.01 0.72894,-0.72893 3.08987,0.22683 3.57325,1.44653 0.42196,1.06473 -1.09796,2.64603 -2.84041,2.95512 -0.92713,0.16446 -1.98459,0.36175 -2.3499,0.43844 -0.36532,0.0767 -1.51403,-0.0625 -2.55269,-0.30931 z m 11.64081,-0.59417 c -0.64763,-0.64763 -0.65069,-0.78993 -0.0316,-1.47398 0.37686,-0.41643 0.68521,-1.02461 0.68521,-1.3515 0,-0.32689 0.5703,-1.80566 1.26734,-3.28616 0.69704,-1.4805 1.74317,-3.84142 2.32473,-5.24648 1.68424,-4.06917 4.35055,-4.17046 6.05658,-0.23008 0.55768,1.28806 1.29282,2.93972 1.63364,3.67035 0.34082,0.73062 1.03728,2.32472 1.54769,3.54243 0.51041,1.21771 1.14395,2.59792 1.40787,3.06712 1.31031,2.32949 -3.1064,2.79085 -4.60279,0.4808 -1.23093,-1.90025 -4.89385,-2.35397 -5.42759,-0.67231 -0.6817,2.14785 -3.38038,2.98048 -4.86105,1.49981 z m 7.73845,-6.61557 c 0,-0.37969 -0.20252,-0.56518 -0.45003,-0.41221 -0.24752,0.15297 -0.33539,0.46363 -0.19527,0.69034 0.37959,0.61419 0.6453,0.49966 0.6453,-0.27813 z m 12.04428,6.80104 c -0.88814,-0.88814 -0.73372,-13.90878 0.16905,-14.25521 5.12552,-1.96685 14.42858,2.75774 10.36969,5.26628 -0.66151,0.40883 -0.53429,1.80825 0.2214,2.43542 1.08411,0.89973 0.8782,4.4908 -0.31613,5.51343 -1.69573,1.45192 -9.27716,2.20693 -10.44401,1.04008 z m 6.6818,-4.33949 c -0.16404,-0.6273 -0.60399,-0.8856 -1.50836,-0.8856 -0.98156,0 -1.27677,0.20476 -1.27677,0.8856 0,0.71229 0.29521,0.88561 1.50837,0.88561 1.29035,0 1.47488,-0.128 1.27676,-0.88561 z m -0.5711,-5.56585 c 0,-0.46155 -0.32301,-0.64747 -0.96163,-0.5535 -1.41764,0.20859 -1.56947,1.24851 -0.18228,1.24851 0.74413,0 1.14391,-0.2429 1.14391,-0.69501 z m 10.37997,9.86461 c -0.12074,-0.31466 -0.1643,-3.6523 -0.0968,-7.41698 l 0.12273,-6.84488 1.50338,-0.14354 c 2.06844,-0.19751 2.24586,0.27394 2.25368,5.98861 l 0.007,4.95945 2.50029,0.1328 c 2.93628,0.15595 3.74499,0.92175 2.9096,2.75523 -0.60295,1.32334 -8.71761,1.8255 -9.19966,0.56931 z m 14.16974,0 c -0.12074,-0.31466 -0.1643,-3.6523 -0.0968,-7.41698 l 0.12273,-6.84488 h 5.09225 5.09225 l 0.14355,1.50339 c 0.17854,1.86977 -0.37189,2.24493 -3.3065,2.25367 -2.99725,0.009 -3.86403,1.30975 -0.91909,1.37933 5.26176,0.12433 6.39018,3.94111 1.16518,3.94111 -1.69104,0 -2.2444,0.18717 -2.61819,0.8856 -0.45078,0.84229 -0.33675,0.88561 2.33128,0.88561 2.97473,0 3.86798,0.46017 3.86798,1.99262 0,1.71378 -0.8199,1.99262 -5.85892,1.99262 -3.51159,0 -4.85498,-0.15323 -5.01572,-0.57209 z M 64.702686,113.61853 c -0.536989,-0.53698 -0.306738,-2.7097 0.445903,-4.20765 0.407608,-0.81125 1.005394,-2.0039 1.328413,-2.65033 1.153748,-2.30891 0.884026,-2.58851 -2.497056,-2.58851 -5.668633,0 -6.44506,-1.58014 -7.071314,-14.391144 -0.250012,-5.114391 -0.682544,-12.355462 -0.961182,-16.091268 -0.447377,-5.998149 -0.426138,-6.872851 0.181641,-7.48063 0.703628,-0.703628 -1.486121,-2.332161 -3.135859,-2.332161 -0.329829,0 -1.034929,-0.249078 -1.566889,-0.553506 -0.531959,-0.304428 -1.963509,-0.756018 -3.181221,-1.003534 -2.880813,-0.585561 -3.269452,-2.085565 -1.091872,-4.214217 2.186537,-2.137408 4.683503,-2.631548 6.427494,-1.271979 0.255626,0.19928 1.306168,0.49687 2.334537,0.661313 1.02837,0.164443 1.976738,0.472076 2.107485,0.683629 0.458895,0.742508 1.861753,0.374057 2.544776,-0.668367 0.411053,-0.627346 1.319062,-1.171029 2.246245,-1.344969 0.855958,-0.160579 2.112675,-0.582177 2.792704,-0.936885 0.680029,-0.354707 1.644903,-0.64615 2.144165,-0.64765 0.499262,-0.0015 1.097048,-0.190563 1.328413,-0.420138 0.231366,-0.229576 1.217712,-0.610518 2.191882,-0.846538 0.97417,-0.236021 2.468635,-0.674229 3.321033,-0.973797 0.852399,-0.299567 2.247233,-0.788855 3.099631,-1.087307 0.852399,-0.298452 2.645756,-0.861228 3.98524,-1.250614 1.339483,-0.389386 3.830258,-1.127414 5.535055,-1.640062 1.704797,-0.512648 4.195572,-1.235436 5.535055,-1.606195 1.339483,-0.370759 3.332103,-0.955369 4.428044,-1.299131 1.095941,-0.343763 2.500738,-0.624038 3.121771,-0.622834 0.62103,0.0012 1.34204,-0.210701 1.60224,-0.470901 0.2602,-0.2602 1.54544,-0.645172 2.85609,-0.855494 1.31065,-0.210322 3.22986,-0.595217 4.26492,-0.855323 19.94643,-5.012459 20.80882,-4.71403 21.46501,7.427968 1.17462,21.734912 1.16706,30.45177 -0.0267,30.767928 -0.4082,0.10811 -0.19305,0.218167 0.48211,0.24661 2.32153,0.0978 6.08696,2.859676 6.08696,4.464685 0,0.280387 0.19926,0.386644 0.4428,0.236127 0.24354,-0.150518 0.4428,-1.137269 0.4428,-2.19278 0,-2.239148 0.33416,-2.456667 3.77393,-2.456667 2.85152,0 2.953,-0.135384 3.21999,-4.29567 0.25711,-4.006236 0.52384,-4.200736 5.51953,-4.024752 l 3.64892,0.128541 -0.003,2.214022 c -0.002,1.217712 -0.13118,3.053419 -0.28774,4.079348 l -0.28465,1.865326 3.83018,0.127294 3.83018,0.127294 -0.0693,3.004421 c -0.0932,4.035929 -0.37866,4.301852 -4.61875,4.301852 -4.2514,0 -4.29199,0.05255 -5.13042,6.641816 -0.32539,2.557333 -0.70963,5.274829 -0.85384,6.038869 -0.50918,2.69753 0.82599,3.85878 4.05615,3.52784 3.05367,-0.31285 4.03818,0.24911 3.59948,2.05461 -1.39855,5.75586 -1.25499,5.6483 -7.53892,5.6483 h -4.85131 l -1.81682,-1.49035 c -1.28931,-1.05763 -1.99074,-2.08285 -2.41583,-3.53099 -0.62784,-2.13889 -0.60377,-2.58165 0.60543,-11.141018 1.1575,-8.193335 1.30515,-7.505371 -1.6439,-7.659786 -2.04632,-0.107148 -2.57491,-0.29541 -2.79736,-0.99631 -0.42759,-1.347216 -1.90342,-0.921724 -4.17459,1.203565 -1.46259,1.368645 -3.11161,1.800064 -3.74729,0.980372 -1.64192,-2.117208 -4.55161,-2.705207 -6.86659,-1.387619 -1.92033,1.092972 -1.22035,3.653136 0.99882,3.653136 10.02607,0 15.26445,9.6637 8.80013,16.23438 -0.79963,0.81279 -1.62517,1.4778 -1.83454,1.4778 -0.20937,0 -0.49537,0.29889 -0.63555,0.6642 -0.14018,0.36532 -0.53725,0.66421 -0.88237,0.66421 -0.34512,0 -1.19823,0.29767 -1.89581,0.66148 -0.913,0.47616 -2.75698,0.66619 -6.58198,0.67829 -3.96592,0.0125 -5.53167,0.1817 -6.1732,0.66693 -2.17857,1.6478 -14.860014,-0.1265 -14.860014,-2.07911 0,-0.27214 -0.380958,-1.31367 -0.846573,-2.31451 -0.465614,-1.00085 -1.231804,-2.65474 -1.702644,-3.67533 -0.712295,-1.54395 -0.96055,-1.76158 -1.478151,-1.2958 -0.453858,0.40843 -1.639886,0.48407 -4.385916,0.27972 -4.527975,-0.33696 -4.843848,-0.25224 -5.171697,1.387 -0.140989,0.70494 -0.424453,1.38561 -0.629921,1.5126 -0.205468,0.12699 -0.585935,1.01952 -0.845483,1.9834 -0.259547,0.96389 -0.663486,1.75253 -0.897642,1.75253 -0.234155,0 -0.425737,0.29484 -0.425737,0.6552 0,1.92937 -17.014471,3.88014 -18.745386,2.14922 z m 44.870844,-5.68265 c 0,-0.36532 -0.19301,-0.66421 -0.4289,-0.66421 -0.2359,0 -0.31422,0.29889 -0.17403,0.66421 0.14018,0.36531 0.33319,0.6642 0.42891,0.6642 0.0957,0 0.17402,-0.29889 0.17402,-0.6642 z m 14.94465,-2.86631 c 3.27373,-1.48599 1.6543,-4.88277 -2.32787,-4.88277 -4.96546,0 -9.95995,-4.063903 -9.95995,-8.104178 0,-4.889452 4.9432,-10.936413 8.94017,-10.936413 2.55431,0 5.97867,-1.698786 4.84131,-2.401715 -0.21355,-0.131977 -0.51657,-5.573626 -0.6734,-12.092553 -0.15682,-6.518927 -0.40443,-13.89503 -0.55024,-16.39134 l -0.2651,-4.538746 h -2.32846 c -1.28065,0 -3.0438,0.298893 -3.91812,0.664207 -0.87432,0.365313 -2.16952,0.664206 -2.87823,0.664206 -0.70871,0 -2.00391,0.298893 -2.87823,0.664207 -0.87432,0.365314 -2.20696,0.664207 -2.96142,0.664207 -0.75446,0 -1.73166,0.19262 -2.17155,0.428046 -0.4399,0.235425 -2.07071,0.714546 -3.62403,1.064713 -1.55332,0.350167 -3.920154,0.939882 -5.259638,1.310479 -1.339483,0.370596 -3.332103,0.901378 -4.428044,1.179514 -1.095941,0.278136 -2.356543,0.702562 -2.801337,0.943169 -0.444795,0.240606 -1.789813,0.553662 -2.98893,0.69568 -1.199117,0.142017 -2.180212,0.420691 -2.180212,0.619275 0,0.198583 -0.747233,0.483059 -1.660517,0.632168 -0.913284,0.149108 -2.357933,0.528405 -3.210332,0.84288 -3.269915,1.206371 -4.708581,1.675505 -6.403231,2.088031 -0.964581,0.234806 -1.960891,0.592739 -2.214022,0.795406 -0.25313,0.202667 -1.157654,0.514135 -2.010052,0.692152 -0.852399,0.178016 -1.749078,0.476909 -1.99262,0.664206 -0.243543,0.187298 -1.098149,0.480714 -1.899125,0.652037 l -1.456319,0.311496 1.660648,0.846647 c 0.913357,0.465656 1.903176,0.846647 2.199599,0.846647 0.296422,0 0.80226,0.249077 1.124084,0.553505 0.321824,0.304428 1.902077,1.212432 3.511673,2.017786 1.609597,0.805354 3.968317,2.150373 5.241602,2.98893 2.79336,1.839646 3.566177,1.920967 3.566177,0.375259 0,-0.632165 0.268713,-1.678291 0.597139,-2.324723 0.328427,-0.646433 1.084539,-2.170185 1.680248,-3.386115 1.581909,-3.228907 1.973322,-3.338776 11.443828,-3.212243 9.126391,0.121934 9.317161,0.199318 7.868221,3.191621 -1.72255,3.557359 -2.54885,5.469118 -2.54885,5.897157 0,0.258016 -0.27452,1.033239 -0.61006,1.722717 -0.33553,0.689478 -0.89952,1.951014 -1.25331,2.803412 -0.35379,0.852399 -0.96226,2.247233 -1.352156,3.099631 -0.389897,0.852399 -0.829801,1.979747 -0.977565,2.505219 -0.147764,0.525472 -0.561617,1.06782 -0.919672,1.205219 -0.476583,0.182882 -0.09531,0.757391 1.423019,2.144228 7.576474,6.920323 16.531074,17.011975 16.531074,18.630169 0,0.36715 0.6476,1.08085 1.43912,1.58602 0.79151,0.50516 2.13653,1.41003 2.98893,2.01083 1.88356,1.32759 3.17888,1.38948 5.64575,0.26972 z M 70.68822,96.20156 c 0.468869,-1.095941 1.022926,-2.391144 1.231238,-2.878229 0.208311,-0.487085 0.807586,-1.881919 1.33172,-3.099631 0.524135,-1.217712 1.205702,-2.811808 1.514594,-3.542435 1.033538,-2.444646 2.111785,-4.860117 2.702517,-6.054133 0.545397,-1.102383 0.489788,-1.269226 -0.813338,-2.440269 -3.541139,-3.182217 -9.667072,-7.66796 -10.471709,-7.66796 -0.24604,0 -0.447346,-0.199262 -0.447346,-0.442804 0,-0.243543 -0.272021,-0.442805 -0.604491,-0.442805 -0.332469,0 -1.079702,-0.368768 -1.660516,-0.819485 -1.697369,-1.317173 -2.023133,-0.827409 -1.654486,2.487407 0.182369,1.639839 0.341525,5.173407 0.35368,7.852374 0.02061,4.543303 0.566027,11.67106 1.287563,16.826568 l 0.309862,2.214022 2.269465,-0.138196 c 1.569799,-0.09559 2.453408,0.0616 2.866113,0.509879 0.410583,0.445974 0.649038,0.48907 0.764647,0.138197 0.0924,-0.280434 0.551619,-1.406559 1.020487,-2.5025 z m 19.910734,2.214022 c 0.4828,0 1.27429,0.212185 1.758866,0.471522 1.655482,0.885987 1.729053,0.189944 0.221827,-2.098663 -0.82865,-1.258241 -1.61242,-2.552626 -1.741712,-2.876411 -0.129291,-0.323784 -0.252034,0.0091 -0.272762,0.739714 -0.02073,0.730628 -0.335351,1.899161 -0.699165,2.596742 -0.363813,0.69758 -0.645747,1.494628 -0.62652,1.771217 0.0224,0.322215 0.1152,0.30403 0.258303,-0.05062 0.122839,-0.304428 0.618363,-0.553506 1.101163,-0.553506 z M 190.60674,111.92112 c -0.30318,-0.36532 -1.03125,-0.66421 -1.61793,-0.66421 -0.58668,0 -1.18139,-0.29889 -1.32157,-0.66421 -0.14019,-0.36531 -0.49699,-0.6642 -0.79291,-0.6642 -0.67295,0 -3.09784,-2.85907 -4.25323,-5.01479 -1.06824,-1.99312 -1.25691,-9.793533 -0.28404,-11.74346 1.91131,-3.830849 2.76774,-5.242471 4.00649,-6.603766 1.45403,-1.597867 4.88514,-4.091861 5.62938,-4.091861 0.2399,0 0.87751,-0.273482 1.41692,-0.607737 1.27806,-0.791985 7.40849,-1.789453 9.02295,-1.468103 4.0325,0.802648 5.23097,1.157418 5.37559,1.591276 0.0888,0.26651 0.38914,0.484564 0.66735,0.484564 0.61496,0 3.84694,3.569232 3.8478,4.249311 3.4e-4,0.267011 0.31794,1.121567 0.70578,1.899014 0.87992,1.763831 0.75009,9.844782 -0.17299,10.76771 -0.43222,0.432158 -3.26842,0.607708 -11.43252,0.707632 l -10.85769,0.1329 0.30344,1.41692 c 0.16689,0.7793 0.32998,1.42966 0.36241,1.44523 0.0324,0.0156 0.63382,0.4639 1.3364,0.99631 2.70937,2.05309 7.82731,1.31113 10.82063,-1.56868 1.37614,-1.32397 7.16394,1.62559 7.16394,3.65086 0,0.72841 -2.47394,3.24778 -3.72578,3.79419 -0.50802,0.22174 -1.22256,0.57873 -1.58787,0.7933 -3.30559,1.9416 -13.30553,2.73666 -14.61255,1.1618 z m 13.92023,-19.659321 c 1.1794,-1.908313 -2.22366,-4.916328 -5.562,-4.916328 -2.99592,0 -7.99111,3.761956 -6.7041,5.04896 0.42793,0.427937 11.99696,0.302842 12.2661,-0.132632 z m 14.41925,19.659321 c -0.30318,-0.36532 -0.90862,-0.66421 -1.34542,-0.66421 -1.36565,0 -4.41104,-4.58798 -4.41104,-6.64536 0,-3.5312 3.39039,-8.907153 6.03615,-9.571198 0.5768,-0.144767 1.04873,-0.424736 1.04873,-0.622153 0,-0.330738 1.27458,-0.707051 5.97785,-1.764923 0.97417,-0.219113 3.51476,-0.407065 5.64576,-0.417671 4.4279,-0.02204 5.09942,-0.867211 2.72382,-3.428205 -1.95838,-2.111212 -9.95631,-1.253017 -11.49288,1.233211 -0.72855,1.178807 -4.6239,-2.252468 -4.62504,-4.074032 -7.6e-4,-1.203636 2.64044,-3.491956 4.03045,-3.491956 0.3644,0 0.88098,-0.218435 1.14796,-0.485411 1.92526,-1.925267 14.36395,-1.940972 15.60491,-0.0197 0.13704,0.212163 0.6975,0.525666 1.24547,0.696674 0.54797,0.171008 0.99631,0.459184 0.99631,0.640392 0,0.181208 0.44834,0.81243 0.99631,1.402715 1.14508,1.233507 1.38077,12.785074 0.3429,16.805917 -0.28289,1.09594 -0.66673,3.62591 -0.85297,5.62216 -0.48251,5.17168 -5.45915,7.44086 -8.54226,3.89497 -0.53091,-0.6106 -1.07756,-0.94557 -1.21478,-0.74437 -1.39352,2.04317 -11.90201,3.33236 -13.31223,1.63315 z m 10.90533,-6.69154 c 2.2504,-0.9367 4.01658,-2.95847 4.23749,-4.8507 l 0.17751,-1.520493 h -1.91039 c -2.933,0 -7.29392,1.305253 -8.42839,2.522663 -2.78716,2.99095 1.419,5.72359 5.92378,3.84853 z m -70.22393,5.85115 c -0.27018,-0.71063 -0.19507,-1.8456 0.22711,-3.43174 0.34694,-1.30347 0.63316,-3.31077 0.63605,-4.46068 0.003,-1.1499 0.29507,-3.541044 0.64928,-5.313648 0.35422,-1.772605 0.8654,-5.016275 1.13596,-7.208157 1.27855,-10.357727 0.79451,-9.59835 6.0095,-9.427859 3.7084,0.121236 3.95332,0.188681 4.08634,1.125276 0.13741,0.967546 0.96551,1.442276 0.96551,0.553505 0,-0.243542 0.27449,-0.442804 0.60999,-0.442804 0.33549,0 0.84063,-0.277908 1.12252,-0.617573 0.2819,-0.339665 1.15316,-0.728733 1.93614,-0.864595 0.78298,-0.135863 2.07398,-0.379134 2.86889,-0.540603 0.85044,-0.17275 2.01145,-0.05907 2.82089,0.276215 l 1.37561,0.569794 -0.20724,3.229166 c -0.27768,4.326785 -0.55126,4.589662 -4.77667,4.589662 -6.30554,0 -8.72414,3.600102 -9.51298,14.160081 -0.13604,1.82126 -0.441,3.50502 -0.67768,3.7417 -0.23668,0.23668 -0.43032,1.2473 -0.43032,2.24582 0,3.07308 -7.75519,4.6668 -8.8389,1.81644 z m 84.12062,0.40357 c -0.41807,-0.50374 -0.43624,-1.30913 -0.0774,-3.43173 0.75851,-4.48692 1.44336,-9.581086 1.85656,-13.80975 0.21235,-2.173248 0.58264,-4.464761 0.82286,-5.092251 0.24022,-0.62749 0.50947,-2.499551 0.59832,-4.160135 0.19517,-3.647194 0.41332,-3.828461 4.61826,-3.837444 3.58819,-0.0077 4.57496,0.246297 4.57496,1.177445 0,0.686514 1.74689,0.405265 2.24178,-0.360926 0.31215,-0.483271 4.94319,-1.708908 6.45706,-1.708908 2.53246,0 5.83942,1.360249 7.33704,3.017936 l 1.48609,1.644926 0.87001,-0.919157 c 7.10749,-7.508978 21.0763,-2.196555 19.55942,7.438569 -0.12448,0.790709 -0.46318,3.330641 -0.75267,5.644294 -0.28948,2.313653 -0.80714,5.443161 -1.15035,6.954471 -0.34321,1.51131 -0.62402,3.62249 -0.62402,4.69152 0,3.30557 -8.127,5.51849 -9.09269,2.47586 -0.33608,-1.05889 0.14571,-5.70017 0.66153,-6.37277 0.18678,-0.24355 0.4661,-2.31146 0.62073,-4.59538 0.15462,-2.283908 0.50537,-4.901013 0.77945,-5.815785 0.73057,-2.43844 -0.52371,-5.190263 -2.53796,-5.568138 -5.28987,-0.992387 -7.79531,2.76709 -9.02609,13.543873 -1.11272,9.74312 -1.11184,9.7417 -6.0264,9.7417 -4.32241,0 -4.67836,-0.42975 -3.7985,-4.58605 0.26517,-1.25258 0.6124,-3.67225 0.77162,-5.37705 0.15923,-1.7048 0.56407,-4.295203 0.89963,-5.756458 1.33338,-5.806298 0.17849,-8.081982 -3.85886,-7.603818 -3.67033,0.434697 -5.79817,2.766961 -6.36442,6.975848 -0.17753,1.319553 -0.47251,2.59845 -0.65552,2.841992 -0.18301,0.243543 -0.45625,2.335796 -0.6072,4.649446 -0.27921,4.27947 -0.90529,7.30515 -1.71798,8.30258 -0.67962,0.83411 -7.15767,0.74787 -7.86525,-0.10471 z"
         id="path8" />
      <path
         style="fill:#a8b2c9"
         d="m 218.2176,131.38665 c -6.64882,-3.3994 -4.22089,-13.48767 3.24606,-13.48767 2.42708,0 4.56743,0.92432 4.56743,1.97247 0,0.87169 -2.1272,1.64759 -3.09582,1.12919 -3.69616,-1.97812 -7.40768,4.07919 -4.29261,7.00565 1.07745,1.01221 4.42421,1.37561 4.94269,0.53669 0.34381,-0.55629 2.44574,0.38285 2.44574,1.09276 0,1.95953 -5.14878,3.11331 -7.81349,1.75091 z m 13.68065,0.38881 c -0.80095,-0.32319 -0.72297,-0.69423 1.03888,-4.9436 3.89446,-9.39295 5.15357,-10.77865 6.88285,-7.57488 0.67086,1.24287 2.91597,6.41732 3.25498,7.50196 0.18964,0.60672 0.61685,1.49618 0.94936,1.97657 1.57755,2.27916 -0.47172,4.57586 -2.13533,2.39315 -0.44123,-0.57891 -1.00942,-1.30164 -1.26265,-1.60607 -1.13684,-1.36668 -5.23209,-0.67886 -5.93202,0.99631 -0.62301,1.49106 -1.37613,1.82952 -2.79607,1.25656 z m 6.90762,-5.8555 c 0.4983,-0.31578 0.48974,-0.58473 -0.0515,-1.61777 l -0.64918,-1.23902 -0.79907,1.21953 c -0.67697,1.03319 -0.70293,1.28038 -0.16987,1.61777 0.7769,0.49172 0.9218,0.49341 1.66965,0.0195 z m 12.78583,5.84134 c -0.71652,-0.18654 -0.77543,-0.80049 -0.66421,-6.92281 l 0.12205,-6.71811 h 3.09963 c 5.37286,0 7.23977,1.54785 6.0005,4.97499 -0.49323,1.36399 -0.45437,1.62179 0.37802,2.50782 3.40593,3.62544 -2.64555,7.79573 -8.93599,6.15811 z m 6.32131,-3.22919 c 1.24372,-0.79285 -0.0786,-1.98313 -2.37008,-2.13341 -2.0102,-0.13183 -2.95296,1.08499 -1.76276,2.27518 0.44286,0.44287 3.37343,0.34234 4.13284,-0.14177 z m -0.58976,-6.01802 c 0.44209,-1.15206 -0.88421,-2.09394 -2.46092,-1.74764 -1.07861,0.23691 -1.37736,0.53501 -1.37736,1.37435 0,1.31991 3.35001,1.64571 3.83828,0.37329 z m 10.0901,8.99811 c -0.12477,-0.32517 -0.17133,-3.47135 -0.10345,-6.99152 l 0.12341,-6.4003 1.21771,-0.14011 1.21771,-0.14012 0.007,5.01096 c 0.008,5.99106 0.0265,6.02787 3.10252,6.20203 2.36956,0.13417 2.42575,0.16812 2.42575,1.46576 v 1.32842 l -3.88178,0.12804 c -2.92145,0.0964 -3.9379,-0.0182 -4.10865,-0.46316 z m 14.16907,-0.002 c -0.12441,-0.3242 -0.17066,-3.46958 -0.10278,-6.98975 l 0.12341,-6.4003 4.76014,-0.12568 4.76015,-0.12568 v 1.34339 c 0,1.33508 -0.0153,1.34339 -2.46453,1.34339 -5.40396,0 -5.96395,2.48554 -0.68808,3.05405 4.06006,0.4375 3.73739,2.67432 -0.38982,2.70241 -4.58371,0.0312 -4.38889,2.3268 0.22547,2.65683 3.09511,0.22137 3.09556,0.22159 3.09556,1.54981 v 1.32842 l -4.54667,0.12628 c -3.46759,0.0963 -4.60034,-0.0136 -4.77285,-0.46317 z M 65.057932,112.56306 c -0.158084,-0.25578 0.04289,-1.20228 0.446618,-2.10332 1.227585,-2.73975 1.451216,-3.26595 3.142683,-7.39471 0.897969,-2.19188 2.023047,-4.88192 2.500175,-5.977861 0.477128,-1.095941 1.027378,-2.391144 1.222777,-2.878229 0.660317,-1.646015 3.692534,-8.841678 4.618242,-10.95941 1.180939,-2.701624 3.928448,-0.951012 9.096659,5.79606 4.460951,5.823748 4.340062,5.555026 3.352492,7.452189 -0.358909,0.689478 -0.971459,2.050644 -1.361223,3.024814 -0.389765,0.974167 -0.980697,2.369007 -1.313184,3.099627 -0.332487,0.73063 -1.025274,2.32473 -1.539527,3.54244 -2.211398,5.23642 -2.432253,5.58606 -3.93297,6.22637 -1.828794,0.78029 -15.765536,0.92799 -16.232742,0.17203 z m 42.965788,0.20705 c -0.48709,-0.0756 -2.24976,-0.26561 -3.91704,-0.4223 l -3.03144,-0.28488 -0.8922,-2.06353 C 99.230248,107.79575 95.83329,100.89754 94.541285,98.542676 88.783688,88.04864 77.337884,76.518261 65.071689,68.855325 62.524317,67.26393 59.405864,66.044508 58.97792,66.472452 c -0.311454,0.311454 -0.09962,0.544186 0.671484,0.73772 1.445417,0.362777 1.52697,0.784508 2.095508,10.836406 1.18835,21.010334 1.181728,20.980012 4.486426,20.541628 2.707817,-0.359204 3.084414,0.326973 1.722972,3.139334 l -0.969003,2.0017 h -2.881073 c -5.613382,0 -6.154696,-1.09324 -6.796909,-13.726942 -0.241412,-4.749077 -0.635458,-10.726937 -0.875658,-13.284133 -0.721131,-7.677227 -0.607386,-9.963661 0.533348,-10.72108 1.149402,-0.763174 -3.347864,-3.153362 -7.667591,-4.07514 -0.638946,-0.136343 -1.617455,-0.616928 -2.174463,-1.067966 l -1.012743,-0.82007 1.731658,-1.631788 c 1.388228,-1.308165 1.995116,-1.593851 3.060072,-1.440499 2.02673,0.291847 5.223411,1.162139 5.739025,1.56244 1.367236,1.061466 3.205083,0.879874 4.159455,-0.410983 0.600529,-0.812259 1.646095,-1.473034 2.832944,-1.790359 1.034617,-0.276624 2.080384,-0.659722 2.323926,-0.85133 0.243543,-0.191608 1.140222,-0.494028 1.99262,-0.672044 0.852399,-0.178016 1.749078,-0.476909 1.99262,-0.664207 0.243542,-0.187297 1.139423,-0.489779 1.990845,-0.672182 0.851423,-0.182403 2.146626,-0.584372 2.878229,-0.893265 0.731603,-0.308892 2.52576,-0.906528 3.987014,-1.32808 1.461255,-0.421551 3.354244,-1.012453 4.206642,-1.313115 0.852399,-0.300662 2.645756,-0.850616 3.98524,-1.222122 4.025496,-1.116469 7.181202,-2.009005 9.520295,-2.692646 1.217712,-0.355898 2.911439,-0.786134 3.763837,-0.95608 0.8524,-0.169947 2.44649,-0.565305 3.54244,-0.878574 1.82836,-0.522628 3.89713,-1.009119 11.29151,-2.655304 1.46125,-0.325314 4.17019,-0.934318 6.01986,-1.35334 8.54494,-1.935762 9.04883,-0.441574 9.96269,29.542793 l 0.31959,10.485834 -1.509,0.43364 c -1.46577,0.421214 -1.4733,0.434784 -0.26292,0.473576 5.51944,0.176892 8.06062,3.780421 4.75427,6.741797 -2.81331,2.51977 -3.39703,2.602181 -5.84923,0.825814 -2.83133,-2.051007 -7.0146,-1.242211 -7.0146,1.356207 0,1.577769 0.47145,1.890983 4.64945,3.08891 10.36272,2.971231 12.61677,9.317388 5.61149,15.798838 -3.29287,3.04665 -14.84677,5.01608 -16.9696,2.89258 -0.30433,-0.30443 -0.96182,-0.55981 -1.46108,-0.5675 -3.09447,-0.0477 -4.40798,-3.51961 -2.14233,-5.66263 2.86157,-2.70667 3.89793,-3.08177 5.3396,-1.93263 3.47108,2.76677 5.52751,3.14928 8.57195,1.59444 3.02032,-1.54252 0.59574,-5.4431 -3.42658,-5.51256 -12.30685,-0.212523 -11.0828,-18.534882 1.24192,-18.589858 1.85227,-0.0083 3.73502,-0.979733 3.4902,-1.800891 -0.2093,-0.702029 -0.68386,-10.564848 -1.17739,-24.46996 -0.39576,-11.150413 0.44708,-10.462268 -9.92689,-8.104879 -11.1332,2.529917 -12.58201,2.887169 -14.84875,3.661468 -0.982314,0.335548 -2.220941,0.610088 -2.752506,0.610088 -0.531566,0 -1.620845,0.275941 -2.420621,0.613201 -1.424473,0.600692 -3.443263,1.176036 -7.431996,2.118079 -1.095941,0.258835 -2.191882,0.623854 -2.435425,0.811153 -0.243542,0.187299 -1.140221,0.482063 -1.99262,0.65503 -0.852398,0.172968 -2.944649,0.809114 -4.649446,1.413657 -1.704797,0.604544 -3.697417,1.265584 -4.428044,1.468977 -1.730578,0.481762 -4.064149,1.297108 -5.882181,2.055227 -0.799776,0.333505 -2.144794,0.606374 -2.98893,0.606374 -2.434798,0 -1.867109,0.492298 3.829617,3.321033 7.439431,3.694083 7.204968,3.561434 12.049914,6.817337 2.393376,1.608398 4.684889,3.123622 5.092251,3.367165 0.407361,0.243542 0.846321,0.582984 0.975465,0.754315 0.129145,0.171331 1.062436,0.868748 2.07398,1.549816 8.409621,5.662155 26.117602,24.528728 24.158732,25.739378 -0.62086,0.38371 -3.42164,2.64457 -4.85455,3.91871 -1.3218,1.17533 -1.05314,1.85844 1.88742,4.799 l 1.98417,1.98417 -1.89357,-0.0603 c -1.04147,-0.0332 -2.2921,-0.12214 -2.77918,-0.19772 z M 63.521874,60.360534 c 0,-0.655332 -0.856768,-1.017559 -1.669312,-0.705757 -0.637991,0.244821 -0.650463,0.341903 -0.0895,0.696664 0.845318,0.534588 1.758808,0.539311 1.758808,0.0091 z m 82.140216,51.528436 c -3.61578,-1.88053 -4.60902,-4.66825 -3.83303,-10.75816 0.26787,-2.102233 0.5875,-4.619287 0.71029,-5.593457 0.12278,-0.974169 0.4254,-2.739801 0.67248,-3.923625 0.56854,-2.724019 0.41471,-2.938367 -2.11462,-2.946624 -3.08269,-0.01006 -3.32441,-0.296967 -3.1084,-3.689368 0.22712,-3.566858 0.14201,-3.481848 3.80034,-3.796218 l 2.98733,-0.256711 0.31772,-3.505909 c 0.39717,-4.382665 0.48719,-4.46457 4.90647,-4.46457 h 3.6319 l -0.005,2.656826 c -0.003,1.461255 -0.16783,3.304428 -0.36728,4.095941 l -0.36264,1.439114 h 3.77289 c 4.23433,0 4.50704,0.178802 4.31565,2.829542 -0.29552,4.092964 -0.94823,4.682226 -5.19643,4.691353 -3.78125,0.0081 -3.99086,0.199973 -4.36642,3.996404 -0.15636,1.580615 -0.58771,4.49802 -0.95857,6.483123 -0.95535,5.113829 -0.42985,5.911019 3.89648,5.911019 3.50656,0 3.90049,0.38273 3.11032,3.02185 -0.26802,0.89518 -0.60538,2.06973 -0.74968,2.61012 -0.49446,1.85168 -8.1994,2.6872 -11.06015,1.19935 z m 46.71587,0.39987 c -0.60886,-0.12715 -1.30628,-0.38387 -1.54982,-0.5705 -0.24354,-0.18662 -0.9519,-0.46046 -1.57412,-0.60853 -8.92111,-2.12289 -9.70828,-18.828858 -1.21364,-25.756958 8.34074,-6.802587 22.50682,-5.561871 24.12022,2.112535 0.14187,0.67481 0.43147,1.334171 0.64355,1.465247 0.21209,0.131077 0.38561,2.287929 0.38561,4.793005 0,6.400571 0.74554,6.018776 -11.76918,6.027137 -11.37738,0.0076 -11.61516,0.05775 -10.68636,2.253654 1.63803,3.87266 8.30069,4.88155 11.70478,1.7724 2.40749,-2.1989 3.48417,-1.94991 7.34023,1.69752 3.02729,2.86349 -10.65783,8.2227 -17.40127,6.81449 z m 12.36641,-19.812427 c 0.68795,-0.828926 -0.35876,-3.405781 -1.79086,-4.408864 -3.45699,-2.421369 -13.12453,1.541955 -11.23172,4.60458 0.45006,0.728219 12.40489,0.548551 13.02258,-0.195716 z m 15.97307,19.722367 c -10.54182,-3.17411 -8.82936,-15.23489 2.63754,-18.576059 1.10655,-0.32242 4.30342,-0.720944 7.10416,-0.885609 l 5.09225,-0.29939 0.1344,-1.609733 c 0.30643,-3.670028 -6.23862,-4.951557 -10.98769,-2.151404 -2.537,1.49587 -3.05562,1.401665 -4.96379,-0.901656 -1.62955,-1.96701 -1.12799,-2.957351 2.40318,-4.745089 4.62349,-2.34075 15.98376,-3.030124 16.65688,-1.010786 0.0835,0.250563 0.4208,0.455569 0.74951,0.455569 0.32872,0 1.35531,0.924606 2.28132,2.05468 l 1.68365,2.054681 -0.0385,4.919489 c -0.0212,2.705719 -0.34965,6.613216 -0.72997,8.683327 -0.38031,2.07011 -0.82153,5.05904 -0.98048,6.64207 -0.47001,4.68089 -5.75383,7.35955 -7.86112,3.98524 -0.71727,-1.14854 -1.10324,-1.11906 -3.70583,0.28306 -2.28478,1.23091 -7.1627,1.79801 -9.47554,1.10161 z m 9.63794,-6.95096 c 4.93755,-2.46048 5.64019,-6.660312 1.09306,-6.533393 -7.0016,0.195428 -11.07223,3.728563 -7.52067,6.527623 1.8337,1.44517 3.53605,1.4467 6.42761,0.006 z m -70.29062,5.58781 c -0.31215,-0.58324 -0.32177,-1.48271 -0.0296,-2.76752 0.23806,-1.0469 0.63704,-3.49755 0.88661,-5.44589 2.23021,-17.410609 2.82159,-20.692391 3.79755,-21.073996 2.69204,-1.052597 7.73244,-0.167224 7.73244,1.358243 0,1.148548 0.19786,1.128465 1.93483,-0.196387 4.9349,-3.764032 9.8799,-2.415101 9.09155,2.48006 -0.58361,3.623897 -0.41775,3.483745 -4.12261,3.483745 -2.85171,0 -3.42999,0.147455 -4.95541,1.263587 -3.32158,2.430346 -4.1058,4.285176 -5.08231,12.020548 -1.35911,10.76606 -0.80286,9.74169 -5.28989,9.74169 -3.01846,0 -3.56443,-0.11903 -3.96316,-0.86408 z m 84.16239,0.24937 c -0.30881,-0.37209 -0.41194,-1.37706 -0.26129,-2.54613 0.42489,-3.29726 1.58891,-11.478755 2.24689,-15.792583 0.34559,-2.265714 0.75786,-5.513074 0.91617,-7.216354 0.41773,-4.49461 8.57007,-7.141258 8.57007,-2.782263 0,1.321896 -0.005,1.322401 2.53947,-0.240389 4.30661,-2.644729 10.4757,-2.237035 13.54607,0.895213 1.78403,1.819977 2.35063,1.804556 3.84066,-0.104531 1.07804,-1.381244 4.35111,-2.310082 8.22094,-2.332954 l 4.10618,-0.02427 2.13902,1.806738 c 3.55587,3.003485 4.07886,6.11499 2.63355,15.668104 -0.42373,2.800739 -0.96148,6.686349 -1.19499,8.634689 -0.52206,4.35581 -0.8476,4.64944 -5.15453,4.64944 -4.03576,0 -4.00967,0.0539 -3.0743,-6.35515 2.30386,-15.785904 2.15699,-16.670676 -2.76725,-16.670676 -4.53011,0 -6.67149,3.254987 -7.5624,11.495146 -1.20981,11.18978 -1.25239,11.27767 -5.54264,11.43985 -4.79858,0.18139 -4.91139,-0.37294 -2.61917,-12.870188 1.4731,-8.031449 0.68989,-10.369075 -3.41489,-10.192225 -5.08152,0.218933 -7.18968,3.584776 -8.12285,12.968743 -0.96358,9.68978 -1.219,10.1845 -5.25824,10.1845 -2.25484,0 -3.43536,-0.19165 -3.78647,-0.61471 z M 88.872426,103.87878 c -1.594721,-0.64349 0.131178,-5.020393 1.979637,-5.020393 1.098709,0 3.66612,1.277683 3.66612,1.824453 0,0.29768 0.323059,0.89821 0.71791,1.33452 1.565396,1.72974 -3.220588,3.12968 -6.363667,1.86142 z m 6.531366,-24.825563 c -0.365314,-0.138522 -1.112782,-0.69364 -1.66104,-1.233596 -0.548258,-0.539955 -1.843461,-1.556644 -2.878229,-2.259309 -1.034767,-0.702664 -2.116244,-1.476833 -2.40328,-1.720376 -0.287037,-0.243542 -1.632055,-1.224878 -2.98893,-2.180746 -2.938863,-2.070321 -2.941725,-2.105072 -0.567864,-6.896744 2.244028,-4.529604 1.710357,-4.325623 11.469519,-4.383906 8.941582,-0.0534 8.505292,-0.510197 5.667452,5.933721 -0.57809,1.312688 -1.86659,4.363752 -3.786761,8.96679 -0.93975,2.252767 -1.816193,4.08021 -1.947649,4.060982 -0.131457,-0.01923 -0.537905,-0.148294 -0.903218,-0.286816 z"
         id="path7" />
      <path
         style="fill:#59b2de"
         d="m 218.2176,131.38665 c -6.64882,-3.3994 -4.22089,-13.48767 3.24606,-13.48767 2.42708,0 4.56743,0.92432 4.56743,1.97247 0,0.87169 -2.1272,1.64759 -3.09582,1.12919 -3.69616,-1.97812 -7.40768,4.07919 -4.29261,7.00565 1.07745,1.01221 4.42421,1.37561 4.94269,0.53669 0.34381,-0.55629 2.44574,0.38285 2.44574,1.09276 0,1.95953 -5.14878,3.11331 -7.81349,1.75091 z m 13.68065,0.38881 c -0.80095,-0.32319 -0.72297,-0.69423 1.03888,-4.9436 3.89446,-9.39295 5.15357,-10.77865 6.88285,-7.57488 0.67086,1.24287 2.91597,6.41732 3.25498,7.50196 0.18964,0.60672 0.61685,1.49618 0.94936,1.97657 1.57755,2.27916 -0.47172,4.57586 -2.13533,2.39315 -0.44123,-0.57891 -1.00942,-1.30164 -1.26265,-1.60607 -1.13684,-1.36668 -5.23209,-0.67886 -5.93202,0.99631 -0.62301,1.49106 -1.37613,1.82952 -2.79607,1.25656 z m 6.90762,-5.8555 c 0.4983,-0.31578 0.48974,-0.58473 -0.0515,-1.61777 l -0.64918,-1.23902 -0.79907,1.21953 c -0.67697,1.03319 -0.70293,1.28038 -0.16987,1.61777 0.7769,0.49172 0.9218,0.49341 1.66965,0.0195 z m 12.78583,5.84134 c -0.71652,-0.18654 -0.77543,-0.80049 -0.66421,-6.92281 l 0.12205,-6.71811 h 3.09963 c 5.37286,0 7.23977,1.54785 6.0005,4.97499 -0.49323,1.36399 -0.45437,1.62179 0.37802,2.50782 3.40593,3.62544 -2.64555,7.79573 -8.93599,6.15811 z m 6.32131,-3.22919 c 1.24372,-0.79285 -0.0786,-1.98313 -2.37008,-2.13341 -2.0102,-0.13183 -2.95296,1.08499 -1.76276,2.27518 0.44286,0.44287 3.37343,0.34234 4.13284,-0.14177 z m -0.58976,-6.01802 c 0.44209,-1.15206 -0.88421,-2.09394 -2.46092,-1.74764 -1.07861,0.23691 -1.37736,0.53501 -1.37736,1.37435 0,1.31991 3.35001,1.64571 3.83828,0.37329 z m 10.0901,8.99811 c -0.12477,-0.32517 -0.17133,-3.47135 -0.10345,-6.99152 l 0.12341,-6.4003 1.21771,-0.14011 1.21771,-0.14012 0.007,5.01096 c 0.008,5.99106 0.0265,6.02787 3.10252,6.20203 2.36956,0.13417 2.42575,0.16812 2.42575,1.46576 v 1.32842 l -3.88178,0.12804 c -2.92145,0.0964 -3.9379,-0.0182 -4.10865,-0.46316 z m 14.16907,-0.002 c -0.12441,-0.3242 -0.17066,-3.46958 -0.10278,-6.98975 l 0.12341,-6.4003 4.76014,-0.12568 4.76015,-0.12568 v 1.34339 c 0,1.33508 -0.0153,1.34339 -2.46453,1.34339 -5.40396,0 -5.96395,2.48554 -0.68808,3.05405 4.06006,0.4375 3.73739,2.67432 -0.38982,2.70241 -4.58371,0.0312 -4.38889,2.3268 0.22547,2.65683 3.09511,0.22137 3.09556,0.22159 3.09556,1.54981 v 1.32842 l -4.54667,0.12628 c -3.46759,0.0963 -4.60034,-0.0136 -4.77285,-0.46317 z M 65.057932,112.56306 c -0.158084,-0.25578 0.04289,-1.20228 0.446618,-2.10332 1.227585,-2.73975 1.451216,-3.26595 3.142683,-7.39471 0.897969,-2.19188 2.023047,-4.88192 2.500175,-5.977861 0.477128,-1.095941 1.027378,-2.391144 1.222777,-2.878229 0.660317,-1.646015 3.692534,-8.841678 4.618242,-10.95941 1.180939,-2.701624 3.928448,-0.951012 9.096659,5.79606 4.460951,5.823748 4.340062,5.555026 3.352492,7.452189 -0.358909,0.689478 -0.971459,2.050644 -1.361223,3.024814 -0.389765,0.974167 -0.980697,2.369007 -1.313184,3.099627 -0.332487,0.73063 -1.025274,2.32473 -1.539527,3.54244 -2.211398,5.23642 -2.432253,5.58606 -3.93297,6.22637 -1.828794,0.78029 -15.765536,0.92799 -16.232742,0.17203 z m 42.965788,0.20705 c -0.48709,-0.0756 -2.24976,-0.26561 -3.91704,-0.4223 l -3.03144,-0.28488 -0.8922,-2.06353 C 99.230248,107.79575 95.83329,100.89754 94.541285,98.542676 88.783688,88.04864 77.337884,76.518261 65.071689,68.855325 c -1.701061,-1.062688 -5.483713,-2.764466 -6.144755,-2.764466 -0.366546,0 -0.782351,-0.187537 -0.924012,-0.41675 -0.435344,-0.704401 -6.330917,-3.245457 -8.705498,-3.752164 -0.638946,-0.136343 -1.617455,-0.616928 -2.174463,-1.067966 l -1.012743,-0.82007 1.731658,-1.631788 c 1.388228,-1.308165 1.995116,-1.593851 3.060072,-1.440499 2.02673,0.291847 5.223411,1.162139 5.739025,1.56244 0.25313,0.19652 1.146831,0.487796 1.986002,0.64728 1.22294,0.232419 9.138431,4.004356 17.211649,8.201799 0.653831,0.339941 3.147001,1.934037 5.540378,3.542435 2.393376,1.608398 4.684889,3.123622 5.092251,3.367165 0.407361,0.243542 0.846321,0.582984 0.975465,0.754315 0.129145,0.171331 1.062436,0.868748 2.07398,1.549816 8.409621,5.662155 26.117602,24.528728 24.158732,25.739378 -0.62086,0.38371 -3.42164,2.64457 -4.85455,3.91871 -1.3218,1.17533 -1.05314,1.85844 1.88742,4.799 l 1.98417,1.98417 -1.89357,-0.0603 c -1.04147,-0.0332 -2.2921,-0.12214 -2.77918,-0.19772 z m 6.42066,-1.45067 c -3.49075,-1.25522 -5.23481,-3.62025 -3.64714,-4.94567 4.46713,-3.72924 4.11161,-3.64977 6.87793,-1.53752 3.58542,2.73766 9.16773,1.66817 9.16773,-1.75641 0,-1.78741 -1.24599,-2.72458 -4.83047,-3.633215 -1.36169,-0.345177 -3.10131,-0.792035 -3.86582,-0.993016 -7.68881,-2.021308 -6.93324,-11.747662 1.24672,-16.048795 5.49077,-2.887123 18.28284,-0.08215 16.32331,3.579276 -1.58573,2.962952 -4.71376,4.091495 -6.84176,2.468392 -3.02919,-2.310475 -8.36144,-0.793517 -7.61832,2.167316 0.33863,1.349217 1.72065,2.077316 6.04657,3.185566 8.5565,2.192074 10.62031,8.767086 4.57118,14.563166 -3.64392,3.49148 -11.99482,4.90531 -17.42993,2.95091 z m 30.04567,-0.62999 c -2.7327,-2.0843 -3.37423,-10.899202 -1.23899,-17.02435 0.26055,-0.747409 0.41146,-2.226006 0.33537,-3.285771 l -0.13836,-1.926847 -2.21402,-0.129936 c -5.15701,-0.302654 -4.44348,-6.712781 0.74877,-6.726752 2.97046,-0.008 2.9211,0.04936 3.42726,-3.981724 0.5289,-4.212222 0.76877,-4.43834 4.70814,-4.43834 3.91967,0 3.85917,-0.08301 3.10146,4.255517 -0.73614,4.215072 -1.0241,3.887779 3.65812,4.157767 l 3.83964,0.221402 -0.14693,1.99262 c -0.2806,3.805337 -0.68745,4.17635 -4.85575,4.428044 -4.1728,0.251966 -4.49231,0.502017 -4.52639,3.542436 -0.0123,1.095941 -0.30723,3.287823 -0.65543,4.870848 -1.49568,6.799786 -0.63495,8.972076 3.48892,8.805236 3.54608,-0.14347 3.64751,0.0364 2.6875,4.76675 -0.5008,2.46759 -9.16457,2.80303 -12.21931,0.4731 z m 45.96812,0.48298 c -12.62786,-4.39911 -10.31698,-23.662786 3.4696,-28.922877 10.57052,-4.033045 18.81919,1.098605 18.81919,11.707768 0,5.741832 0.8545,5.34387 -11.47427,5.34387 -11.77074,0 -12.17038,0.09384 -11.12704,2.612689 1.78751,4.31542 8.64544,5.39185 12.55951,1.97137 1.91518,-1.67367 2.67099,-1.65434 4.7826,0.12233 2.42447,2.03989 1.70432,5.36328 -1.1836,5.46219 -0.25572,0.009 -0.70119,0.25217 -0.98994,0.54091 -2.06105,2.06105 -10.40216,2.71333 -14.85605,1.16175 z m 14.75634,-18.286153 c 0.75164,-0.905669 0.24482,-2.60135 -1.2914,-4.320682 -3.28935,-3.681419 -12.87357,-0.512508 -12.87357,4.256497 0,1.034487 13.30964,1.094797 14.16497,0.06419 z m 15.50293,18.969833 c -4.75124,-1.54864 -6.38159,-3.51198 -6.38159,-7.68498 0,-7.12195 4.95061,-10.241976 18.11591,-11.417189 l 3.54243,-0.316219 0.13166,-1.563643 c 0.3202,-3.803003 -6.56167,-5.289468 -11.55614,-2.496093 -2.31904,1.297026 -2.81325,1.21431 -4.66114,-0.78014 -2.9407,-3.173923 5.05554,-6.852117 13.71995,-6.311045 8.23437,0.514217 10.96899,5.007067 9.24304,15.185921 -0.28443,1.677429 -0.77548,5.254298 -1.09122,7.948598 -0.76646,6.54026 -0.94634,6.83559 -4.16335,6.83559 -2.69645,0 -3.59313,-0.48403 -3.65038,-1.97048 -0.0192,-0.49926 -0.13546,-0.65867 -0.2583,-0.35424 -0.12284,0.30443 -0.53976,0.5535 -0.92648,0.5535 -0.38673,0 -1.01773,0.26513 -1.40222,0.58917 -1.89939,1.60077 -8.05885,2.62979 -10.66217,1.78125 z m 10.16485,-6.34563 c 2.1906,-1.11756 3.55469,-3.03794 3.68274,-5.18461 l 0.10075,-1.688886 -2.82651,-0.133361 c -6.90925,-0.325995 -11.94356,3.638857 -8.58023,6.757507 1.55922,1.44579 5.05397,1.5601 7.62325,0.24935 z m -70.21502,5.11115 c -0.39947,-1.04099 0.68341,-10.37859 2.2885,-19.733723 0.35518,-2.070111 0.64446,-4.623801 0.64284,-5.674867 -0.005,-3.239104 0.43338,-3.625046 4.10858,-3.617246 3.51784,0.0075 4.47549,0.353687 4.04942,1.464004 -0.51905,1.352604 0.99047,1.271745 3.02456,-0.162014 2.54164,-1.791507 8.34959,-2.238408 8.66592,-0.666811 0.7859,3.90444 -1.10323,6.36477 -4.8871,6.36477 -6.74028,0 -8.54586,3.448479 -10.47404,20.004337 l -0.28364,2.43543 -3.43843,0.12945 c -2.75067,0.10355 -3.49008,-0.005 -3.69661,-0.54333 z m 83.69032,7.6e-4 c -0.14183,-0.36961 -0.0506,-2.22122 0.20271,-4.11469 0.25333,-1.89347 0.75156,-5.63455 1.10719,-8.31352 0.35563,-2.678967 0.75997,-5.169742 0.89853,-5.535055 0.13856,-0.365314 0.45778,-2.73721 0.70937,-5.27088 0.55494,-5.588652 8.05165,-9.846911 7.67603,-4.360117 -0.10895,1.591377 0.6321,1.564521 3.1177,-0.112985 4.0222,-2.714553 10.22117,-2.399357 13.43841,0.683296 l 2.03289,1.947857 1.59589,-1.225106 c 3.6996,-2.840054 3.98715,-2.939753 8.49931,-2.946875 l 4.24659,-0.0067 2.09566,1.716622 c 3.12373,2.558746 3.97807,8.040277 2.45851,15.774153 -0.26319,1.33948 -0.72348,4.48968 -1.02287,7.00045 -0.63731,5.34463 -0.672,5.38201 -5.00294,5.39129 -3.74432,0.008 -3.80991,-0.0794 -2.99186,-3.9855 0.33072,-1.57915 0.61256,-3.76787 0.62631,-4.86381 0.0137,-1.09594 0.31368,-3.188187 0.66651,-4.649442 1.49441,-6.189049 0.17429,-9.520295 -3.77273,-9.520295 -4.55621,0 -7.93658,4.203786 -7.986,9.931279 -0.009,0.991671 -0.30044,3.098238 -0.64865,4.681268 -0.3482,1.58302 -0.64009,3.89995 -0.64865,5.14873 -0.0205,2.99537 -0.50419,3.33552 -4.51334,3.17408 l -3.25129,-0.13093 0.14515,-3.76384 c 0.0798,-2.07011 0.40715,-4.95941 0.72736,-6.42066 2.19859,-10.03308 0.8117,-13.793637 -4.62434,-12.538851 -4.46941,1.031664 -6.17613,4.001237 -7.11506,12.379641 -0.25544,2.27945 -0.70853,5.53928 -1.00685,7.24408 l -0.54241,3.09963 -3.42963,0.12945 c -2.74118,0.10346 -3.48138,-0.005 -3.6875,-0.54257 z M 60.858139,102.90694 C 58.314109,101.5511 58.14646,100.46392 56.811293,76.663816 56.205871,65.87182 56.210531,65.84511 58.495568,67.010088 c 2.302177,1.173717 2.274334,1.074989 2.81104,9.967639 1.438185,23.829203 1.168114,22.568468 4.74452,22.148132 1.287877,-0.151365 2.341594,-0.209333 2.341594,-0.128819 0,3.9133 -3.814279,5.89264 -7.534583,3.9099 z m 27.903586,-0.50106 c 0,-3.675251 4.255722,-4.146056 5.84202,-0.64629 0.869133,1.91752 0.794602,1.96965 -2.816189,1.96965 H 88.761725 Z M 126.8905,79.081212 c -0.26972,-0.591967 -0.49073,-2.910102 -0.49114,-5.15141 -8.8e-4,-4.808389 -1.2483,-27.723731 -1.55535,-28.572112 -0.24841,-0.686346 -3.91876,-0.39838 -7.5214,0.590109 -1.21771,0.334115 -4.20664,1.034042 -6.64207,1.555393 -2.43542,0.521352 -4.9262,1.11842 -5.53505,1.326819 -0.60886,0.208399 -1.80443,0.510705 -2.65683,0.671791 -0.8524,0.161086 -2.546123,0.584073 -3.763835,0.939971 -1.217712,0.355898 -3.260148,0.933976 -4.538746,1.284618 -3.738663,1.025289 -7.269637,2.027268 -9.409593,2.670147 -3.661175,1.099879 -12.166206,3.846272 -13.06273,4.218137 -3.883724,1.610914 -6.995072,2.138693 -7.527675,1.276922 -0.150518,-0.243543 -0.973936,-0.442805 -1.829819,-0.442805 -2.048968,0 -1.893886,-1.245463 0.285229,-2.290681 2.338969,-1.121892 13.627215,-4.921712 21.470788,-7.227441 1.461255,-0.429556 3.143447,-0.967651 3.738206,-1.195767 0.594758,-0.228115 1.889961,-0.593037 2.878228,-0.810937 0.988268,-0.217899 3.291315,-0.816733 5.117883,-1.330741 4.197594,-1.18123 7.888964,-2.101784 11.337594,-2.827366 1.48659,-0.312776 2.89975,-0.690346 3.14035,-0.839043 0.2406,-0.148698 1.51506,-0.472764 2.83215,-0.720147 1.31709,-0.247383 3.88917,-0.755546 5.71574,-1.12925 1.82656,-0.373704 3.9283,-0.796314 4.67051,-0.939134 4.73029,-0.910219 6.02117,1.616022 6.47345,12.668441 0.19433,4.749078 0.53094,12.719557 0.74802,17.712177 0.21708,4.99262 0.31622,9.214392 0.22031,9.381717 -0.49013,0.855071 -3.61636,0.229395 -4.09422,-0.819408 z m -31.486708,-0.02799 c -0.365314,-0.138522 -1.112782,-0.69364 -1.66104,-1.233596 -0.548258,-0.539955 -1.843461,-1.556644 -2.878229,-2.259309 -1.034767,-0.702664 -2.116244,-1.476833 -2.40328,-1.720376 -0.287037,-0.243542 -1.632055,-1.224878 -2.98893,-2.180746 -2.938863,-2.070321 -2.941725,-2.105072 -0.567864,-6.896744 2.244028,-4.529604 1.710357,-4.325623 11.469519,-4.383906 8.941582,-0.0534 8.505292,-0.510197 5.667452,5.933721 -0.57809,1.312688 -1.86659,4.363752 -3.786761,8.96679 -0.93975,2.252767 -1.816193,4.08021 -1.947649,4.060982 -0.131457,-0.01923 -0.537905,-0.148294 -0.903218,-0.286816 z"
         id="path6" />
      <path
         style="fill:#8b97b7"
         d="m 219.49973,131.30924 c -0.79152,-0.10023 -1.43912,-0.35545 -1.43912,-0.56715 0,-0.2117 -0.39852,-0.5114 -0.88561,-0.66599 -0.48708,-0.1546 -0.8856,-0.54994 -0.8856,-0.87855 0,-0.32861 -0.22939,-0.67393 -0.50975,-0.76738 -2.09641,-0.69881 -0.20651,-8.19188 2.26392,-8.97597 0.49646,-0.15757 0.90265,-0.47232 0.90265,-0.69945 0,-0.71578 4.37998,-0.46488 5.57706,0.31948 1.54573,1.0128 0.63299,1.4644 -2.33966,1.1576 -3.39192,-0.35008 -4.9783,1.16938 -4.99632,4.78553 -0.0186,3.74116 2.07981,5.15558 6.46748,4.35929 0.87882,-0.15949 1.93351,0.0605 1.93351,0.40322 0,0.96995 -3.52135,1.85447 -6.08856,1.52937 z m 12.63074,-1.12244 c 0.14301,-0.54797 0.52288,-1.25962 0.84416,-1.58144 0.32127,-0.32183 0.59047,-0.91961 0.59822,-1.32842 0.008,-0.4088 0.30664,-1.13007 0.66421,-1.60282 0.35757,-0.47274 0.65012,-1.39792 0.65012,-2.05594 0,-0.65803 0.29889,-1.3111 0.66421,-1.45129 0.36531,-0.14018 0.6642,-0.7284 0.6642,-1.30716 0,-1.77177 1.55135,-2.85419 2.65683,-1.85374 0.48709,0.4408 0.88561,1.08854 0.88561,1.43942 0,0.35088 0.28174,1.16686 0.62609,1.81329 1.49036,2.79781 2.47354,5.00889 2.47354,5.56279 0,0.328 0.29889,0.84441 0.66421,1.1476 1.09468,0.9085 0.83357,2.21402 -0.44281,2.21402 -0.77081,0 -1.10701,-0.24207 -1.10701,-0.79705 0,-2.38953 -6.78427,-2.85995 -7.66322,-0.53136 -0.6334,1.67808 -2.60819,1.97914 -2.17836,0.3321 z m 7.43223,-4.08753 c 0.54118,-0.4129 0.69219,-0.78191 0.40772,-0.99631 -0.2485,-0.18728 -0.69257,-0.88848 -0.98682,-1.55823 -0.70889,-1.6135 -1.17032,-1.53654 -2.36361,0.39425 -1.43043,2.31448 0.69527,3.87499 2.94271,2.16029 z m 12.15105,-1.33682 v -6.42067 h 2.18789 c 1.20334,0 2.29708,0.17667 2.43053,0.39261 0.13346,0.21593 0.94226,0.52385 1.79735,0.68427 1.70366,0.31961 2.51914,3.79397 0.8905,3.79397 -1.03995,0 -0.76144,0.98746 0.67651,2.39852 2.91459,2.86012 0.64761,5.57196 -4.65791,5.57196 h -3.32487 z m 6.86347,2.87822 v -1.54981 h -2.87823 c -2.66814,0 -2.88879,0.0745 -3.02292,1.02068 -0.24904,1.75672 0.67809,2.3547 3.42583,2.20964 l 2.47532,-0.13069 z m -0.38022,-4.65286 c 0.7647,-1.99279 -2.46088,-3.63679 -4.74114,-2.41643 -0.8236,0.44078 -1.17306,2.17709 -0.5613,2.78885 0.62564,0.62564 5.03838,0.31571 5.30244,-0.37242 z m 9.45771,1.77464 c 0,-6.12547 0.0407,-6.42067 0.88561,-6.42067 0.83336,0 0.8856,0.2952 0.8856,5.00369 0,5.82717 0.13447,6.06642 3.4096,6.06642 2.05166,0 2.34686,0.1114 2.34686,0.88561 0,0.81615 -0.2952,0.88561 -3.76384,0.88561 h -3.76383 z m 14.16974,0 v -6.42067 h 4.42804 c 4.13284,0 4.42805,0.059 4.42805,0.88561 0,0.78585 -0.29521,0.88561 -2.62061,0.88561 -3.54152,0 -4.02146,0.24094 -4.02146,2.01886 v 1.48132 l 2.76753,0.13183 c 4.05186,0.19301 4.14822,1.78721 0.12841,2.12445 -2.36178,0.19813 -2.66849,0.33773 -2.91861,1.32841 -0.44784,1.77376 0.27187,2.21402 3.61932,2.21402 2.75021,0 3.04542,0.0858 3.04542,0.88561 0,0.82657 -0.29521,0.88561 -4.42805,0.88561 h -4.42804 z M 66.1787,111.19471 c 0,-0.52129 0.426866,-1.86631 0.948591,-2.98893 0.521725,-1.12262 1.249401,-2.73854 1.617058,-3.59094 0.367656,-0.85239 0.9371,-2.07871 1.265431,-2.72514 0.32833,-0.64644 0.596965,-1.56853 0.596965,-2.049106 0,-0.480573 0.298893,-1.121828 0.664206,-1.425012 0.365314,-0.303183 0.664207,-1.013239 0.664207,-1.577901 0,-0.564663 0.199371,-1.149878 0.443047,-1.300478 0.243676,-0.1506 0.665855,-1.158669 0.938176,-2.240155 0.272321,-1.081485 0.670736,-1.966337 0.885366,-1.966337 0.214631,0 0.390237,-0.252028 0.390237,-0.560063 0,-0.308034 0.398524,-1.303622 0.885609,-2.212417 0.487085,-0.908795 0.885609,-2.027202 0.885609,-2.485349 0,-0.458147 0.298893,-1.081054 0.664207,-1.384237 0.365313,-0.303184 0.664206,-1.024999 0.664206,-1.604035 0,-0.579035 0.160355,-1.052792 0.356345,-1.052792 0.433289,0 8.942548,8.64093 8.942548,9.080923 0,0.171561 0.621129,1.096169 1.380286,2.054683 1.283502,1.620554 1.330076,1.798235 0.664207,2.534013 -0.393844,0.435192 -0.71608,1.086192 -0.71608,1.446667 0,0.360474 -0.292556,1.042201 -0.650124,1.514948 -0.357568,0.472748 -0.656461,1.413768 -0.664207,2.091148 -0.0077,0.67739 -0.293389,1.33879 -0.634763,1.46979 -0.341374,0.131 -0.748928,0.92179 -0.905674,1.75732 -0.156746,0.83553 -0.459393,1.51914 -0.672549,1.51914 -0.213156,0 -0.514578,0.57833 -0.669826,1.28517 -0.43303,1.97157 -1.927863,4.65104 -2.784029,4.99034 -2.233838,0.88526 -15.159049,0.38967 -15.159049,-0.58125 z m 37.80743,0.62338 c -2.45424,-0.17392 -2.41156,-0.12722 -4.452542,-4.87206 -0.394377,-0.91684 -0.888399,-1.96587 -1.097827,-2.33119 -0.209429,-0.36531 -0.498258,-0.9631 -0.641844,-1.32841 -0.509494,-1.29627 -0.647395,-1.56784 -1.624062,-3.19829 -0.543106,-0.906659 -1.44536,-2.475407 -2.005009,-3.486106 -0.84692,-1.529495 -2.12966,-3.389878 -4.400253,-6.381772 -3.666425,-4.831141 -8.467066,-9.853413 -13.186952,-13.795754 -1.213882,-1.01391 -2.705214,-2.28093 -3.31407,-2.815599 -0.608856,-0.53467 -2.406728,-1.797358 -3.99527,-2.805974 -1.588543,-1.008616 -3.28227,-2.090159 -3.763838,-2.40343 -0.481568,-0.31327 -1.423548,-0.805295 -2.09329,-1.093389 -0.669742,-0.288094 -1.217712,-0.657782 -1.217712,-0.821529 0,-0.163746 -0.547971,-0.430645 -1.217712,-0.593107 -1.570197,-0.380889 -4.90319,-1.972422 -5.226631,-2.49576 -0.137494,-0.222471 -0.686569,-0.410829 -1.220166,-0.418575 -0.533598,-0.0077 -1.356971,-0.306638 -1.829718,-0.664206 -0.472747,-0.357569 -1.314795,-0.650124 -1.871216,-0.650124 -1.719861,0 -3.694745,-1.446599 -3.091723,-2.264681 1.301427,-1.765562 5.288864,-2.056268 7.688819,-0.560557 0.539402,0.336169 1.397198,0.611215 1.906213,0.611215 1.261147,0 8.617704,3.255392 9.092454,4.023553 0.137495,0.222471 0.650987,0.404492 1.141095,0.404492 0.490107,0 1.189997,0.298893 1.555311,0.664206 0.365314,0.365314 1.027179,0.664207 1.470811,0.664207 0.443633,0 0.921301,0.298893 1.061485,0.664207 0.140184,0.365313 0.759289,0.664206 1.375788,0.664206 0.6165,0 1.120909,0.204194 1.120909,0.453765 0,0.24957 0.470295,0.63257 1.0451,0.85111 0.886419,0.337016 2.613498,1.421409 7.972937,5.006027 0.454385,0.303912 1.282863,0.901275 1.841061,1.327475 0.558198,0.426199 1.232553,0.774907 1.498567,0.774907 0.266015,0 0.483663,0.172163 0.483663,0.382583 0,0.21042 0.846863,0.957653 1.881918,1.660517 1.035056,0.702863 1.94834,1.42738 2.029521,1.610037 0.08118,0.182657 0.347421,0.332103 0.591646,0.332103 0.840473,0 18.079937,16.745735 18.079937,17.562137 0,0.209271 0.54797,0.965368 1.21771,1.680217 2.84537,3.036999 2.86517,3.328889 0.35856,5.286429 -4.07597,3.18316 -4.4767,3.69319 -3.6336,4.6248 0.40091,0.443 0.72892,0.96617 0.72892,1.16261 0,0.19644 0.48915,0.81049 1.08699,1.36455 0.89477,0.82925 0.96667,1.05357 0.40659,1.26849 -0.67235,0.25801 -1.31849,0.25089 -5.75257,-0.0633 z m 10.45825,-0.49865 c -3.49075,-1.25522 -5.23481,-3.62025 -3.64714,-4.94567 4.46713,-3.72924 4.11161,-3.64977 6.87793,-1.53752 3.58542,2.73766 9.16773,1.66817 9.16773,-1.75641 0,-1.78741 -1.24599,-2.72458 -4.83047,-3.633215 -1.36169,-0.345177 -3.10131,-0.792035 -3.86582,-0.993016 -7.68881,-2.021308 -6.93324,-11.747662 1.24672,-16.048795 5.49077,-2.887123 18.28284,-0.08215 16.32331,3.579276 -1.58573,2.962952 -4.71376,4.091495 -6.84176,2.468392 -3.02919,-2.310475 -8.36144,-0.793517 -7.61832,2.167316 0.33863,1.349217 1.72065,2.077316 6.04657,3.185566 8.5565,2.192074 10.62031,8.767086 4.57118,14.563166 -3.64392,3.49148 -11.99482,4.90531 -17.42993,2.95091 z m 30.04567,-0.62999 c -2.7327,-2.0843 -3.37423,-10.899202 -1.23899,-17.02435 0.26055,-0.747409 0.41146,-2.226006 0.33537,-3.285771 l -0.13836,-1.926847 -2.21402,-0.129936 c -5.15701,-0.302654 -4.44348,-6.712781 0.74877,-6.726752 2.97046,-0.008 2.9211,0.04936 3.42726,-3.981724 0.5289,-4.212222 0.76877,-4.43834 4.70814,-4.43834 3.91967,0 3.85917,-0.08301 3.10146,4.255517 -0.73614,4.215072 -1.0241,3.887779 3.65812,4.157767 l 3.83964,0.221402 -0.14693,1.99262 c -0.2806,3.805337 -0.68745,4.17635 -4.85575,4.428044 -4.1728,0.251966 -4.49231,0.502017 -4.52639,3.542436 -0.0123,1.095941 -0.30723,3.287823 -0.65543,4.870848 -1.49568,6.799786 -0.63495,8.972076 3.48892,8.805236 3.54608,-0.14347 3.64751,0.0364 2.6875,4.76675 -0.5008,2.46759 -9.16457,2.80303 -12.21931,0.4731 z m 45.96812,0.48298 c -12.62786,-4.39911 -10.31698,-23.662786 3.4696,-28.922877 10.57052,-4.033045 18.81919,1.098605 18.81919,11.707768 0,5.741832 0.8545,5.34387 -11.47427,5.34387 -11.77074,0 -12.17038,0.09384 -11.12704,2.612689 1.78751,4.31542 8.64544,5.39185 12.55951,1.97137 1.91518,-1.67367 2.67099,-1.65434 4.7826,0.12233 2.42447,2.03989 1.70432,5.36328 -1.1836,5.46219 -0.25572,0.009 -0.70119,0.25217 -0.98994,0.54091 -2.06105,2.06105 -10.40216,2.71333 -14.85605,1.16175 z m 14.75634,-18.286153 c 0.75164,-0.905669 0.24482,-2.60135 -1.2914,-4.320682 -3.28935,-3.681419 -12.87357,-0.512508 -12.87357,4.256497 0,1.034487 13.30964,1.094797 14.16497,0.06419 z m 15.50293,18.969833 c -4.75124,-1.54864 -6.38159,-3.51198 -6.38159,-7.68498 0,-7.12195 4.95061,-10.241976 18.11591,-11.417189 l 3.54243,-0.316219 0.13166,-1.563643 c 0.3202,-3.803003 -6.56167,-5.289468 -11.55614,-2.496093 -2.31904,1.297026 -2.81325,1.21431 -4.66114,-0.78014 -2.9407,-3.173923 5.05554,-6.852117 13.71995,-6.311045 8.23437,0.514217 10.96899,5.007067 9.24304,15.185921 -0.28443,1.677429 -0.77548,5.254298 -1.09122,7.948598 -0.76646,6.54026 -0.94634,6.83559 -4.16335,6.83559 -2.69645,0 -3.59313,-0.48403 -3.65038,-1.97048 -0.0192,-0.49926 -0.13546,-0.65867 -0.2583,-0.35424 -0.12284,0.30443 -0.53976,0.5535 -0.92648,0.5535 -0.38673,0 -1.01773,0.26513 -1.40222,0.58917 -1.89939,1.60077 -8.05885,2.62979 -10.66217,1.78125 z m 10.16485,-6.34563 c 2.1906,-1.11756 3.55469,-3.03794 3.68274,-5.18461 l 0.10075,-1.688886 -2.82651,-0.133361 c -6.90925,-0.325995 -11.94356,3.638857 -8.58023,6.757507 1.55922,1.44579 5.05397,1.5601 7.62325,0.24935 z m -70.21502,5.11115 c -0.39947,-1.04099 0.68341,-10.37859 2.2885,-19.733723 0.35518,-2.070111 0.64446,-4.623801 0.64284,-5.674867 -0.005,-3.239104 0.43338,-3.625046 4.10858,-3.617246 3.51784,0.0075 4.47549,0.353687 4.04942,1.464004 -0.51905,1.352604 0.99047,1.271745 3.02456,-0.162014 2.54164,-1.791507 8.34959,-2.238408 8.66592,-0.666811 0.7859,3.90444 -1.10323,6.36477 -4.8871,6.36477 -6.74028,0 -8.54586,3.448479 -10.47404,20.004337 l -0.28364,2.43543 -3.43843,0.12945 c -2.75067,0.10355 -3.49008,-0.005 -3.69661,-0.54333 z m 83.69032,7.6e-4 c -0.14183,-0.36961 -0.0506,-2.22122 0.20271,-4.11469 0.25333,-1.89347 0.75156,-5.63455 1.10719,-8.31352 0.35563,-2.678967 0.75997,-5.169742 0.89853,-5.535055 0.13856,-0.365314 0.45778,-2.73721 0.70937,-5.27088 0.55494,-5.588652 8.05165,-9.846911 7.67603,-4.360117 -0.10895,1.591377 0.6321,1.564521 3.1177,-0.112985 4.0222,-2.714553 10.22117,-2.399357 13.43841,0.683296 l 2.03289,1.947857 1.59589,-1.225106 c 3.6996,-2.840054 3.98715,-2.939753 8.49931,-2.946875 l 4.24659,-0.0067 2.09566,1.716622 c 3.12373,2.558746 3.97807,8.040277 2.45851,15.774153 -0.26319,1.33948 -0.72348,4.48968 -1.02287,7.00045 -0.63731,5.34463 -0.672,5.38201 -5.00294,5.39129 -3.74432,0.008 -3.80991,-0.0794 -2.99186,-3.9855 0.33072,-1.57915 0.61256,-3.76787 0.62631,-4.86381 0.0137,-1.09594 0.31368,-3.188187 0.66651,-4.649442 1.49441,-6.189049 0.17429,-9.520295 -3.77273,-9.520295 -4.55621,0 -7.93658,4.203786 -7.986,9.931279 -0.009,0.991671 -0.30044,3.098238 -0.64865,4.681268 -0.3482,1.58302 -0.64009,3.89995 -0.64865,5.14873 -0.0205,2.99537 -0.50419,3.33552 -4.51334,3.17408 l -3.25129,-0.13093 0.14515,-3.76384 c 0.0798,-2.07011 0.40715,-4.95941 0.72736,-6.42066 2.19859,-10.03308 0.8117,-13.793637 -4.62434,-12.538851 -4.46941,1.031664 -6.17613,4.001237 -7.11506,12.379641 -0.25544,2.27945 -0.70853,5.53928 -1.00685,7.24408 l -0.54241,3.09963 -3.42963,0.12945 c -2.74118,0.10346 -3.48138,-0.005 -3.6875,-0.54257 z M 60.858139,102.90694 C 58.314109,101.5511 58.14646,100.46392 56.811293,76.663816 56.205871,65.87182 56.210531,65.84511 58.495568,67.010088 c 2.302177,1.173717 2.274334,1.074989 2.81104,9.967639 1.438185,23.829203 1.168114,22.568468 4.74452,22.148132 1.287877,-0.151365 2.341594,-0.209333 2.341594,-0.128819 0,3.9133 -3.814279,5.89264 -7.534583,3.9099 z m 27.903586,-0.50106 c 0,-3.675251 4.255722,-4.146056 5.84202,-0.64629 0.869133,1.91752 0.794602,1.96965 -2.816189,1.96965 H 88.761725 Z M 126.8905,79.081212 c -0.26972,-0.591967 -0.49073,-2.910102 -0.49114,-5.15141 -8.8e-4,-4.808389 -1.2483,-27.723731 -1.55535,-28.572112 -0.24841,-0.686346 -3.91876,-0.39838 -7.5214,0.590109 -1.21771,0.334115 -4.20664,1.034042 -6.64207,1.555393 -2.43542,0.521352 -4.9262,1.11842 -5.53505,1.326819 -0.60886,0.208399 -1.80443,0.510705 -2.65683,0.671791 -0.8524,0.161086 -2.546123,0.584073 -3.763835,0.939971 -1.217712,0.355898 -3.260148,0.933976 -4.538746,1.284618 -3.738663,1.025289 -7.269637,2.027268 -9.409593,2.670147 -3.661175,1.099879 -12.166206,3.846272 -13.06273,4.218137 -3.883724,1.610914 -6.995072,2.138693 -7.527675,1.276922 -0.150518,-0.243543 -0.973936,-0.442805 -1.829819,-0.442805 -2.048968,0 -1.893886,-1.245463 0.285229,-2.290681 2.338969,-1.121892 13.627215,-4.921712 21.470788,-7.227441 1.461255,-0.429556 3.143447,-0.967651 3.738206,-1.195767 0.594758,-0.228115 1.889961,-0.593037 2.878228,-0.810937 0.988268,-0.217899 3.291315,-0.816733 5.117883,-1.330741 4.197594,-1.18123 7.888964,-2.101784 11.337594,-2.827366 1.48659,-0.312776 2.89975,-0.690346 3.14035,-0.839043 0.2406,-0.148698 1.51506,-0.472764 2.83215,-0.720147 1.31709,-0.247383 3.88917,-0.755546 5.71574,-1.12925 1.82656,-0.373704 3.9283,-0.796314 4.67051,-0.939134 4.73029,-0.910219 6.02117,1.616022 6.47345,12.668441 0.19433,4.749078 0.53094,12.719557 0.74802,17.712177 0.21708,4.99262 0.31622,9.214392 0.22031,9.381717 -0.49013,0.855071 -3.61636,0.229395 -4.09422,-0.819408 z M 94.650887,77.935877 c -0.425359,-0.66488 -4.372392,-3.874538 -4.764661,-3.874538 -0.274707,0 -0.937645,-0.504638 -2.323137,-1.768405 -0.873533,-0.796786 -2.283934,-1.658201 -3.340109,-2.040001 -0.949829,-0.343357 -1.010072,-1.644445 -0.110701,-2.390856 0.365314,-0.303184 0.664207,-1.000601 0.664207,-1.549816 0,-0.549215 0.298893,-1.246632 0.664206,-1.549815 0.365314,-0.303184 0.664207,-0.881084 0.664207,-1.284224 0,-1.953212 1.32569,-2.258212 9.815388,-2.258212 7.755203,0 8.008613,0.0281 7.301213,0.809775 -0.40306,0.445376 -0.73284,1.218025 -0.73284,1.716998 0,0.498974 -0.29889,1.155284 -0.6642,1.458467 -0.36532,0.303183 -0.66421,0.887283 -0.66421,1.297999 0,0.410717 -0.29256,1.13355 -0.65013,1.606298 -0.35756,0.472747 -0.656456,1.161385 -0.664202,1.530305 -0.0077,0.36892 -0.412606,1.414323 -0.899691,2.323118 -0.487085,0.908795 -0.885609,1.966203 -0.885609,2.349795 0,0.383592 -0.298893,0.996333 -0.664207,1.361647 -0.365313,0.365314 -0.664206,1.148128 -0.664206,1.739589 0,1.179335 -1.431134,1.538182 -2.081318,0.521876 z"
         id="path5" />
      <path
         style="fill:#0a99d5"
         d="m 219.49973,131.30924 c -0.79152,-0.10023 -1.43912,-0.35545 -1.43912,-0.56715 0,-0.2117 -0.39852,-0.5114 -0.88561,-0.66599 -0.48708,-0.1546 -0.8856,-0.54994 -0.8856,-0.87855 0,-0.32861 -0.22939,-0.67393 -0.50975,-0.76738 -2.09641,-0.69881 -0.20651,-8.19188 2.26392,-8.97597 0.49646,-0.15757 0.90265,-0.47232 0.90265,-0.69945 0,-0.71578 4.37998,-0.46488 5.57706,0.31948 1.54573,1.0128 0.63299,1.4644 -2.33966,1.1576 -3.39192,-0.35008 -4.9783,1.16938 -4.99632,4.78553 -0.0186,3.74116 2.07981,5.15558 6.46748,4.35929 0.87882,-0.15949 1.93351,0.0605 1.93351,0.40322 0,0.96995 -3.52135,1.85447 -6.08856,1.52937 z m 12.63074,-1.12244 c 0.14301,-0.54797 0.52288,-1.25962 0.84416,-1.58144 0.32127,-0.32183 0.59047,-0.91961 0.59822,-1.32842 0.008,-0.4088 0.30664,-1.13007 0.66421,-1.60282 0.35757,-0.47274 0.65012,-1.39792 0.65012,-2.05594 0,-0.65803 0.29889,-1.3111 0.66421,-1.45129 0.36531,-0.14018 0.6642,-0.7284 0.6642,-1.30716 0,-1.77177 1.55135,-2.85419 2.65683,-1.85374 0.48709,0.4408 0.88561,1.08854 0.88561,1.43942 0,0.35088 0.28174,1.16686 0.62609,1.81329 1.49036,2.79781 2.47354,5.00889 2.47354,5.56279 0,0.328 0.29889,0.84441 0.66421,1.1476 1.09468,0.9085 0.83357,2.21402 -0.44281,2.21402 -0.77081,0 -1.10701,-0.24207 -1.10701,-0.79705 0,-2.38953 -6.78427,-2.85995 -7.66322,-0.53136 -0.6334,1.67808 -2.60819,1.97914 -2.17836,0.3321 z m 7.43223,-4.08753 c 0.54118,-0.4129 0.69219,-0.78191 0.40772,-0.99631 -0.2485,-0.18728 -0.69257,-0.88848 -0.98682,-1.55823 -0.70889,-1.6135 -1.17032,-1.53654 -2.36361,0.39425 -1.43043,2.31448 0.69527,3.87499 2.94271,2.16029 z m 12.15105,-1.33682 v -6.42067 h 2.18789 c 1.20334,0 2.29708,0.17667 2.43053,0.39261 0.13346,0.21593 0.94226,0.52385 1.79735,0.68427 1.70366,0.31961 2.51914,3.79397 0.8905,3.79397 -1.03995,0 -0.76144,0.98746 0.67651,2.39852 2.91459,2.86012 0.64761,5.57196 -4.65791,5.57196 h -3.32487 z m 6.86347,2.87822 v -1.54981 h -2.87823 c -2.66814,0 -2.88879,0.0745 -3.02292,1.02068 -0.24904,1.75672 0.67809,2.3547 3.42583,2.20964 l 2.47532,-0.13069 z m -0.38022,-4.65286 c 0.7647,-1.99279 -2.46088,-3.63679 -4.74114,-2.41643 -0.8236,0.44078 -1.17306,2.17709 -0.5613,2.78885 0.62564,0.62564 5.03838,0.31571 5.30244,-0.37242 z m 9.45771,1.77464 c 0,-6.12547 0.0407,-6.42067 0.88561,-6.42067 0.83336,0 0.8856,0.2952 0.8856,5.00369 0,5.82717 0.13447,6.06642 3.4096,6.06642 2.05166,0 2.34686,0.1114 2.34686,0.88561 0,0.81615 -0.2952,0.88561 -3.76384,0.88561 h -3.76383 z m 14.16974,0 v -6.42067 h 4.42804 c 4.13284,0 4.42805,0.059 4.42805,0.88561 0,0.78585 -0.29521,0.88561 -2.62061,0.88561 -3.54152,0 -4.02146,0.24094 -4.02146,2.01886 v 1.48132 l 2.76753,0.13183 c 4.05186,0.19301 4.14822,1.78721 0.12841,2.12445 -2.36178,0.19813 -2.66849,0.33773 -2.91861,1.32841 -0.44784,1.77376 0.27187,2.21402 3.61932,2.21402 2.75021,0 3.04542,0.0858 3.04542,0.88561 0,0.82657 -0.29521,0.88561 -4.42805,0.88561 h -4.42804 z M 66.1787,111.19471 c 0,-0.52129 0.426866,-1.86631 0.948591,-2.98893 0.521725,-1.12262 1.249401,-2.73854 1.617058,-3.59094 0.367656,-0.85239 0.9371,-2.07871 1.265431,-2.72514 0.32833,-0.64644 0.596965,-1.56853 0.596965,-2.049106 0,-0.480573 0.298893,-1.121828 0.664206,-1.425012 0.365314,-0.303183 0.664207,-1.013239 0.664207,-1.577901 0,-0.564663 0.199371,-1.149878 0.443047,-1.300478 0.243676,-0.1506 0.665855,-1.158669 0.938176,-2.240155 0.272321,-1.081485 0.670736,-1.966337 0.885366,-1.966337 0.214631,0 0.390237,-0.252028 0.390237,-0.560063 0,-0.308034 0.398524,-1.303622 0.885609,-2.212417 0.487085,-0.908795 0.885609,-2.027202 0.885609,-2.485349 0,-0.458147 0.298893,-1.081054 0.664207,-1.384237 0.365313,-0.303184 0.664206,-1.024999 0.664206,-1.604035 0,-0.579035 0.160355,-1.052792 0.356345,-1.052792 0.433289,0 8.942548,8.64093 8.942548,9.080923 0,0.171561 0.621129,1.096169 1.380286,2.054683 1.283502,1.620554 1.330076,1.798235 0.664207,2.534013 -0.393844,0.435192 -0.71608,1.086192 -0.71608,1.446667 0,0.360474 -0.292556,1.042201 -0.650124,1.514948 -0.357568,0.472748 -0.656461,1.413768 -0.664207,2.091148 -0.0077,0.67739 -0.293389,1.33879 -0.634763,1.46979 -0.341374,0.131 -0.748928,0.92179 -0.905674,1.75732 -0.156746,0.83553 -0.459393,1.51914 -0.672549,1.51914 -0.213156,0 -0.514578,0.57833 -0.669826,1.28517 -0.43303,1.97157 -1.927863,4.65104 -2.784029,4.99034 -2.233838,0.88526 -15.159049,0.38967 -15.159049,-0.58125 z m 37.80743,0.62338 c -2.45424,-0.17392 -2.41156,-0.12722 -4.452542,-4.87206 -0.394377,-0.91684 -0.888399,-1.96587 -1.097827,-2.33119 -0.209429,-0.36531 -0.498258,-0.9631 -0.641844,-1.32841 -0.509494,-1.29627 -0.647395,-1.56784 -1.624062,-3.19829 -0.543106,-0.906659 -1.44536,-2.475407 -2.005009,-3.486106 -0.84692,-1.529495 -2.12966,-3.389878 -4.400253,-6.381772 -3.666425,-4.831141 -8.467066,-9.853413 -13.186952,-13.795754 -1.213882,-1.01391 -2.705214,-2.28093 -3.31407,-2.815599 -0.608856,-0.53467 -2.406728,-1.797358 -3.99527,-2.805974 -1.588543,-1.008616 -3.28227,-2.090159 -3.763838,-2.40343 -0.481568,-0.31327 -1.423548,-0.805295 -2.09329,-1.093389 -0.669742,-0.288094 -1.217712,-0.657782 -1.217712,-0.821529 0,-0.163746 -0.547971,-0.430645 -1.217712,-0.593107 -1.570197,-0.380889 -4.90319,-1.972422 -5.226631,-2.49576 -0.137494,-0.222471 -0.686569,-0.410829 -1.220166,-0.418575 -0.533598,-0.0077 -1.356971,-0.306638 -1.829718,-0.664206 -0.472747,-0.357569 -1.314795,-0.650124 -1.871216,-0.650124 -1.719861,0 -3.694745,-1.446599 -3.091723,-2.264681 1.301427,-1.765562 5.288864,-2.056268 7.688819,-0.560557 0.539402,0.336169 1.397198,0.611215 1.906213,0.611215 1.261147,0 8.617704,3.255392 9.092454,4.023553 0.137495,0.222471 0.650987,0.404492 1.141095,0.404492 0.490107,0 1.189997,0.298893 1.555311,0.664206 0.365314,0.365314 1.027179,0.664207 1.470811,0.664207 0.443633,0 0.921301,0.298893 1.061485,0.664207 0.140184,0.365313 0.759289,0.664206 1.375788,0.664206 0.6165,0 1.120909,0.204194 1.120909,0.453765 0,0.24957 0.470295,0.63257 1.0451,0.85111 0.886419,0.337016 2.613498,1.421409 7.972937,5.006027 0.454385,0.303912 1.282863,0.901275 1.841061,1.327475 0.558198,0.426199 1.232553,0.774907 1.498567,0.774907 0.266015,0 0.483663,0.172163 0.483663,0.382583 0,0.21042 0.846863,0.957653 1.881918,1.660517 1.035056,0.702863 1.94834,1.42738 2.029521,1.610037 0.08118,0.182657 0.347421,0.332103 0.591646,0.332103 0.840473,0 18.079937,16.745735 18.079937,17.562137 0,0.209271 0.54797,0.965368 1.21771,1.680217 2.84537,3.036999 2.86517,3.328889 0.35856,5.286429 -4.07597,3.18316 -4.4767,3.69319 -3.6336,4.6248 0.40091,0.443 0.72892,0.96617 0.72892,1.16261 0,0.19644 0.48915,0.81049 1.08699,1.36455 0.89477,0.82925 0.96667,1.05357 0.40659,1.26849 -0.67235,0.25801 -1.31849,0.25089 -5.75257,-0.0633 z m 12.45087,-0.33568 c -0.97417,-0.36023 -2.08084,-0.65797 -2.45926,-0.66164 -0.37843,-0.004 -1.32492,-0.66375 -2.10332,-1.46686 -3.13716,-3.23673 2.28514,-7.00589 5.86208,-4.07486 4.06296,3.3293 11.1098,0.6777 9.22025,-3.46941 -0.59845,-1.31345 -6.78055,-3.836862 -9.39992,-3.836862 -6.11831,0 -4.9001,-12.888823 1.40421,-14.856743 0.56012,-0.174845 1.41144,-0.589952 1.89183,-0.92246 1.54568,-1.069864 9.23087,-0.812498 11.69799,0.391749 3.6274,1.770602 3.82702,2.480249 1.35827,4.82871 -1.61439,1.535729 -3.96659,2.339442 -3.96659,1.355323 0,-2.767313 -8.36131,-2.127114 -9.06947,0.694421 -0.50272,2.002967 4.0717,5.021315 7.53672,4.972979 0.74098,-0.01034 3.52803,1.521819 4.466,2.455131 3.67491,3.656702 2.59362,8.185902 -3.07636,12.885902 -2.09601,1.73744 -10.40665,2.79761 -13.36243,1.70462 z m 29.65458,-0.20989 c -4.19808,-1.97059 -4.62334,-5.16878 -2.39136,-17.984375 0.83201,-4.7772 0.50796,-5.499869 -2.46617,-5.499869 -5.18442,0 -3.95105,-5.754104 1.32841,-6.19752 l 2.65683,-0.223144 0.29682,-2.656827 c 0.54997,-4.92281 0.70352,-5.092251 4.61469,-5.092251 h 3.38361 l -0.28358,1.217712 c -0.15596,0.669742 -0.40508,2.454954 -0.55359,3.967138 l -0.27002,2.749425 3.93371,0.128803 3.93371,0.128804 -0.10094,1.690566 c -0.20939,3.506785 -0.80018,4.038591 -4.76284,4.287294 -4.07667,0.255858 -4.63834,0.801477 -4.64999,4.517141 -0.004,1.144944 -0.30542,3.229244 -0.67073,4.631778 -1.67182,6.418525 -0.35555,9.326615 4.01717,8.875305 2.82782,-0.29185 2.88773,-0.22933 2.48407,2.59262 -0.5063,3.53945 -5.91904,5.01761 -10.4998,2.8674 z m 45.66261,-0.0208 c -4.08106,-1.45033 -7.49582,-4.25448 -8.08204,-6.63685 -0.14982,-0.60885 -0.494,-1.38696 -0.76484,-1.72913 -0.67645,-0.85458 -0.61732,-7.400612 0.0731,-8.091009 0.29781,-0.297814 0.54148,-0.95163 0.54148,-1.452923 0,-2.618962 7.29427,-10.424351 9.74173,-10.424351 0.38965,0 0.95753,-0.249077 1.26196,-0.553505 0.99764,-0.997637 11.06491,-0.745645 12.68635,0.317549 3.82473,2.50792 4.76004,4.325941 4.99987,9.718583 0.30977,6.964988 1.19999,6.458333 -11.34756,6.458333 -12.60338,0 -13.4646,0.378723 -10.2089,4.489383 3.03036,3.82614 7.99704,4.11942 12.41366,0.73302 2.05655,-1.57683 2.28378,-1.55906 4.33526,0.33904 4.47538,4.14078 -7.95425,9.56679 -15.65005,6.83186 z m 13.81934,-17.795517 c 2.42691,-2.426907 -1.74769,-6.735837 -6.52584,-6.735837 -4.75868,0 -10.34035,4.777394 -8.14575,6.971999 0.55435,0.554346 14.09911,0.336321 14.67159,-0.236162 z m 14.92251,17.932837 c -12.02206,-3.59087 -6.30905,-16.027157 8.12078,-17.677604 7.43378,-0.850256 8.04158,-1.061079 8.04158,-2.789314 0,-4.108993 -7.19676,-5.76812 -12.26419,-2.827361 -2.0091,1.165931 -2.75436,1.038914 -4.23028,-0.720984 -1.28102,-1.527506 0.3144,-3.511016 3.43174,-4.266506 0.73063,-0.177068 1.72146,-0.591106 2.20185,-0.920085 1.52674,-1.045536 10.42249,-0.812429 12.6154,0.330579 4.06562,2.119121 6.02761,9.469088 3.9701,14.872711 -0.26105,0.685596 -0.648,3.376124 -0.8599,5.978954 -0.52928,6.50153 -5.44344,11.35078 -6.87124,6.7805 -0.11413,-0.36531 -0.30287,-0.96829 -0.41943,-1.33995 -0.17703,-0.56444 -0.49968,-0.4941 -1.95888,0.42706 -4.20273,2.65307 -7.86166,3.32163 -11.77753,2.152 z m 10.32332,-5.45452 c 3.21021,-1.67326 5.38842,-5.70628 3.99121,-7.389822 -0.7341,-0.884536 -7.0167,-0.533384 -9.00491,0.50331 -0.72841,0.379809 -1.52364,0.693151 -1.76719,0.696315 -0.89141,0.01158 -2.54606,3.041027 -2.2674,4.151307 0.67252,2.67955 5.6621,3.80387 9.04829,2.03889 z m -69.88052,1.95404 c 0,-1.60906 0.28766,-4.24928 0.63923,-5.86716 0.6495,-2.988876 1.21363,-6.859401 2.18522,-14.993001 0.6192,-5.183536 0.51711,-4.994486 2.86739,-5.309725 3.47454,-0.466034 4.78459,0.08232 4.57084,1.913257 -0.20981,1.797127 1.05194,1.851293 2.7066,0.116192 0.43569,-0.456866 1.05889,-0.830666 1.3849,-0.830666 0.326,0 0.8408,-0.298893 1.14398,-0.664206 0.58322,-0.702743 6.41521,-0.988901 6.76837,-0.332104 0.0982,0.182657 -0.13122,1.677122 -0.50984,3.321033 l -0.68841,2.98893 h -3.16143 c -5.49519,0 -9.49356,4.06132 -9.49356,9.643034 0,1.303999 -0.19506,2.735376 -0.43347,3.180846 -0.2384,0.44546 -0.54646,1.97664 -0.68458,3.40262 -0.13812,1.42598 -0.35379,3.43955 -0.47928,4.47461 l -0.22815,1.88192 h -3.2939 -3.29391 z m 83.69004,0.58318 c 0,-1.28831 0.29889,-3.48991 0.6642,-4.89245 0.36532,-1.40253 0.66421,-3.600113 0.66421,-4.883511 0,-1.283397 0.27815,-3.316111 0.61812,-4.51714 0.33996,-1.20103 0.7294,-3.790751 0.86543,-5.754935 0.40569,-5.85815 1.00891,-6.821099 4.27291,-6.821099 2.40628,0 3.28348,0.475595 2.93572,1.591673 -0.61892,1.98633 0.39634,2.047872 3.30843,0.200546 5.07681,-3.220547 11.78304,-2.42066 14.70723,1.754207 l 0.67643,0.965729 1.69532,-1.336956 c 3.3405,-2.634375 4.90468,-3.188799 8.99503,-3.188302 l 3.7704,4.59e-4 2.25819,2.166194 c 2.0207,1.938383 2.28761,2.416536 2.53796,4.546624 0.31703,2.697442 -0.34651,11.474299 -0.95677,12.655431 -0.22121,0.42814 -0.5061,2.52504 -0.6331,4.65977 -0.29814,5.0116 -0.52226,5.26616 -4.49315,5.10346 -2.8454,-0.11659 -3.1311,-0.2121 -3.03414,-1.01431 0.78266,-6.4754 1.11662,-8.79239 1.56372,-10.848713 1.75519,-8.072647 -0.39467,-11.948026 -6.04056,-10.88885 -3.15816,0.592475 -5.89201,4.620001 -6.29468,9.27339 -0.12958,1.497359 -0.44655,3.559883 -0.70438,4.583393 -0.25784,1.02351 -0.59499,3.41465 -0.74923,5.31366 l -0.28043,3.45272 h -3.32103 -3.32104 l 0.13734,-3.54243 c 0.0755,-1.94834 0.43563,-4.83764 0.80022,-6.42067 0.41485,-1.80129 0.61199,-4.446134 0.52687,-7.068639 l -0.13601,-4.190415 -1.5498,-1.042999 c -0.88954,-0.598647 -1.92711,-0.948822 -2.43543,-0.821944 -0.48709,0.121581 -1.64978,0.417016 -2.58376,0.656522 -1.77191,0.454385 -4.71918,3.259487 -4.72491,4.497 -0.002,0.365313 -0.26828,1.172398 -0.59243,1.793522 -0.32415,0.621123 -0.72,2.828953 -0.87968,4.906289 -0.15968,2.077334 -0.47672,4.358814 -0.70454,5.069944 -0.22782,0.71114 -0.54249,2.43873 -0.69927,3.8391 l -0.28505,2.54613 h -3.28917 -3.28917 z M 89.499733,103.43403 c -1.174607,-1.1746 0.631655,-3.87208 2.420593,-3.614916 1.313006,0.188746 3.311293,3.022186 2.496235,3.539496 -0.67982,0.43147 -4.502143,0.49011 -4.916828,0.0754 z m -27.527674,-0.42796 c -2.980417,-0.68017 -3.799664,-4.560652 -4.428086,-20.974252 -0.153853,-4.01845 -0.421681,-9.054181 -0.595174,-11.190513 -0.259895,-3.200257 -0.208524,-3.843211 0.291725,-3.651248 0.333942,0.128146 1.088544,0.35381 1.676895,0.501477 0.60673,0.152279 1.157617,0.678511 1.27279,1.215824 0.380325,1.774332 1.180226,12.439231 1.540593,20.540387 0.427982,9.621152 0.676738,10.29625 3.7939,10.29625 1.617387,0 1.982412,0.147486 1.982412,0.800975 0,1.94175 -2.649209,3.11969 -5.535055,2.4611 z M 128.5045,79.50074 c -1.55921,-0.236277 -1.55101,-0.186759 -1.87673,-11.332443 -0.1481,-5.067741 -0.45917,-9.713554 -0.69127,-10.324029 -0.23211,-0.610475 -0.42506,-3.637573 -0.42879,-6.726885 -0.009,-7.573029 -0.41508,-7.793824 -9.45366,-5.141943 -1.1848,0.347613 -2.65252,0.632024 -3.2616,0.632024 -0.60909,0 -2.03086,0.285157 -3.15949,0.633682 -2.75148,0.849671 -5.57849,1.550111 -8.2141,2.035183 -1.19725,0.220349 -2.38286,0.606675 -2.634689,0.858504 -0.251829,0.251829 -1.065619,0.459099 -1.808424,0.460599 -0.742804,0.0015 -1.882238,0.280127 -2.532074,0.61917 -0.649836,0.339044 -2.04467,0.75887 -3.099631,0.932947 -1.05496,0.174077 -2.117372,0.467254 -2.360914,0.651505 -0.243543,0.184251 -1.239853,0.478446 -2.214022,0.653766 -0.97417,0.175321 -1.97048,0.477187 -2.214023,0.670815 -0.243542,0.193628 -1.339483,0.555445 -2.435424,0.804039 -2.115223,0.479798 -4.170365,1.152727 -6.546388,2.143527 -0.799775,0.333505 -1.895716,0.612711 -2.435424,0.620456 -0.539708,0.0077 -1.36808,0.306639 -1.840828,0.664207 -0.472747,0.357568 -1.229875,0.650124 -1.682506,0.650124 -0.452631,0 -1.435732,0.316874 -2.18467,0.704165 -1.227181,0.6346 -1.498413,0.637388 -2.745538,0.02822 -0.761108,-0.371768 -1.759665,-0.792428 -2.219015,-0.934799 -1.269382,-0.393434 0.210103,-1.837321 2.280628,-2.225754 0.884927,-0.166013 2.012179,-0.584269 2.505006,-0.929458 0.492826,-0.345189 1.399681,-0.633954 2.015233,-0.641699 0.615552,-0.0077 1.505979,-0.306639 1.978726,-0.664207 0.472748,-0.357568 1.312851,-0.650124 1.866896,-0.650124 0.554045,0 1.661717,-0.272868 2.461492,-0.606374 2.369493,-0.988077 4.45166,-1.673487 6.137708,-2.020417 0.871166,-0.179256 1.833776,-0.480327 2.139132,-0.669048 0.505556,-0.31245 2.464785,-0.857946 7.347039,-2.04559 0.974169,-0.236974 2.169741,-0.614941 2.656826,-0.839927 0.487085,-0.224986 1.782288,-0.609451 2.878229,-0.854368 3.086546,-0.689769 5.790495,-1.396372 7.970475,-2.082863 1.09595,-0.34512 2.59041,-0.633566 3.32104,-0.640992 0.73062,-0.0074 1.82657,-0.298272 2.43542,-0.646325 0.60886,-0.348054 1.78692,-0.639886 2.61791,-0.648516 0.83099,-0.0086 2.52472,-0.298202 3.76384,-0.643493 10.4332,-2.907306 12.66591,-1.56004 12.66103,7.63995 -0.001,2.273656 0.19292,8.052254 0.43139,12.841329 0.23847,4.789075 0.52902,10.650213 0.64568,13.024752 0.15805,3.21712 0.0758,4.300436 -0.32288,4.250997 -0.29424,-0.03649 -1.08246,-0.14931 -1.75161,-0.25071 z M 94.650887,77.935877 c -0.425359,-0.66488 -4.372392,-3.874538 -4.764661,-3.874538 -0.274707,0 -0.937645,-0.504638 -2.323137,-1.768405 -0.873533,-0.796786 -2.283934,-1.658201 -3.340109,-2.040001 -0.949829,-0.343357 -1.010072,-1.644445 -0.110701,-2.390856 0.365314,-0.303184 0.664207,-1.000601 0.664207,-1.549816 0,-0.549215 0.298893,-1.246632 0.664206,-1.549815 0.365314,-0.303184 0.664207,-0.881084 0.664207,-1.284224 0,-1.953212 1.32569,-2.258212 9.815388,-2.258212 7.755203,0 8.008613,0.0281 7.301213,0.809775 -0.40306,0.445376 -0.73284,1.218025 -0.73284,1.716998 0,0.498974 -0.29889,1.155284 -0.6642,1.458467 -0.36532,0.303183 -0.66421,0.887283 -0.66421,1.297999 0,0.410717 -0.29256,1.13355 -0.65013,1.606298 -0.35756,0.472747 -0.656456,1.161385 -0.664202,1.530305 -0.0077,0.36892 -0.412606,1.414323 -0.899691,2.323118 -0.487085,0.908795 -0.885609,1.966203 -0.885609,2.349795 0,0.383592 -0.298893,0.996333 -0.664207,1.361647 -0.365313,0.365314 -0.664206,1.148128 -0.664206,1.739589 0,1.179335 -1.431134,1.538182 -2.081318,0.521876 z"
         id="path4" />
      <path
         style="fill:#566a9b;filter:url(#filter9)"
         d="m 116.437,111.48241 c -0.97417,-0.36023 -2.08084,-0.65797 -2.45926,-0.66164 -0.37843,-0.004 -1.32492,-0.66375 -2.10332,-1.46686 -3.13716,-3.23673 2.28514,-7.00589 5.86208,-4.07486 4.06296,3.3293 11.1098,0.6777 9.22025,-3.46941 -0.59845,-1.31345 -6.78055,-3.836862 -9.39992,-3.836862 -6.11831,0 -4.9001,-12.888823 1.40421,-14.856743 0.56012,-0.174845 1.41144,-0.589952 1.89183,-0.92246 1.54568,-1.069864 9.23087,-0.812498 11.69799,0.391749 3.6274,1.770602 3.82702,2.480249 1.35827,4.82871 -1.61439,1.535729 -3.96659,2.339442 -3.96659,1.355323 0,-2.767313 -8.36131,-2.127114 -9.06947,0.694421 -0.50272,2.002967 4.0717,5.021315 7.53672,4.972979 0.74098,-0.01034 3.52803,1.521819 4.466,2.455131 3.67491,3.656702 2.59362,8.185902 -3.07636,12.885902 -2.09601,1.73744 -10.40665,2.79761 -13.36243,1.70462 z m 29.65458,-0.20989 c -4.19808,-1.97059 -4.62334,-5.16878 -2.39136,-17.984375 0.83201,-4.7772 0.50796,-5.499869 -2.46617,-5.499869 -5.18442,0 -3.95105,-5.754104 1.32841,-6.19752 l 2.65683,-0.223144 0.29682,-2.656827 c 0.54997,-4.92281 0.70352,-5.092251 4.61469,-5.092251 h 3.38361 l -0.28358,1.217712 c -0.15596,0.669742 -0.40508,2.454954 -0.55359,3.967138 l -0.27002,2.749425 3.93371,0.128803 3.93371,0.128804 -0.10094,1.690566 c -0.20939,3.506785 -0.80018,4.038591 -4.76284,4.287294 -4.07667,0.255858 -4.63834,0.801477 -4.64999,4.517141 -0.004,1.144944 -0.30542,3.229244 -0.67073,4.631778 -1.67182,6.418525 -0.35555,9.326615 4.01717,8.875305 2.82782,-0.29185 2.88773,-0.22933 2.48407,2.59262 -0.5063,3.53945 -5.91904,5.01761 -10.4998,2.8674 z m 45.66261,-0.0208 c -4.08106,-1.45033 -7.49582,-4.25448 -8.08204,-6.63685 -0.14982,-0.60885 -0.494,-1.38696 -0.76484,-1.72913 -0.67645,-0.85458 -0.61732,-7.400612 0.0731,-8.091009 0.29781,-0.297814 0.54148,-0.95163 0.54148,-1.452923 0,-2.618962 7.29427,-10.424351 9.74173,-10.424351 0.38965,0 0.95753,-0.249077 1.26196,-0.553505 0.99764,-0.997637 11.06491,-0.745645 12.68635,0.317549 3.82473,2.50792 4.76004,4.325941 4.99987,9.718583 0.30977,6.964988 1.19999,6.458333 -11.34756,6.458333 -12.60338,0 -13.4646,0.378723 -10.2089,4.489383 3.03036,3.82614 7.99704,4.11942 12.41366,0.73302 2.05655,-1.57683 2.28378,-1.55906 4.33526,0.33904 4.47538,4.14078 -7.95425,9.56679 -15.65005,6.83186 z m 13.81934,-17.795517 c 2.42691,-2.426907 -1.74769,-6.735837 -6.52584,-6.735837 -4.75868,0 -10.34035,4.777394 -8.14575,6.971999 0.55435,0.554346 14.09911,0.336321 14.67159,-0.236162 z m 14.92251,17.932837 c -12.02206,-3.59087 -6.30905,-16.027157 8.12078,-17.677604 7.43378,-0.850256 8.04158,-1.061079 8.04158,-2.789314 0,-4.108993 -7.19676,-5.76812 -12.26419,-2.827361 -2.0091,1.165931 -2.75436,1.038914 -4.23028,-0.720984 -1.28102,-1.527506 0.3144,-3.511016 3.43174,-4.266506 0.73063,-0.177068 1.72146,-0.591106 2.20185,-0.920085 1.52674,-1.045536 10.42249,-0.812429 12.6154,0.330579 4.06562,2.119121 6.02761,9.469088 3.9701,14.872711 -0.26105,0.685596 -0.648,3.376124 -0.8599,5.978954 -0.52928,6.50153 -5.44344,11.35078 -6.87124,6.7805 -0.11413,-0.36531 -0.30287,-0.96829 -0.41943,-1.33995 -0.17703,-0.56444 -0.49968,-0.4941 -1.95888,0.42706 -4.20273,2.65307 -7.86166,3.32163 -11.77753,2.152 z m 10.32332,-5.45452 c 3.21021,-1.67326 5.38842,-5.70628 3.99121,-7.389822 -0.7341,-0.884536 -7.0167,-0.533384 -9.00491,0.50331 -0.72841,0.379809 -1.52364,0.693151 -1.76719,0.696315 -0.89141,0.01158 -2.54606,3.041027 -2.2674,4.151307 0.67252,2.67955 5.6621,3.80387 9.04829,2.03889 z m -69.88052,1.95404 c 0,-1.60906 0.28766,-4.24928 0.63923,-5.86716 0.6495,-2.988876 1.21363,-6.859401 2.18522,-14.993001 0.6192,-5.183536 0.51711,-4.994486 2.86739,-5.309725 3.47454,-0.466034 4.78459,0.08232 4.57084,1.913257 -0.20981,1.797127 1.05194,1.851293 2.7066,0.116192 0.43569,-0.456866 1.05889,-0.830666 1.3849,-0.830666 0.326,0 0.8408,-0.298893 1.14398,-0.664206 0.58322,-0.702743 6.41521,-0.988901 6.76837,-0.332104 0.0982,0.182657 -0.13122,1.677122 -0.50984,3.321033 l -0.68841,2.98893 h -3.16143 c -5.49519,0 -9.49356,4.06132 -9.49356,9.643034 0,1.303999 -0.19506,2.735376 -0.43347,3.180846 -0.2384,0.44546 -0.54646,1.97664 -0.68458,3.40262 -0.13812,1.42598 -0.35379,3.43955 -0.47928,4.47461 l -0.22815,1.88192 h -3.2939 -3.29391 z m 83.69004,0.58318 c 0,-1.28831 0.29889,-3.48991 0.6642,-4.89245 0.36532,-1.40253 0.66421,-3.600113 0.66421,-4.883511 0,-1.283397 0.27815,-3.316111 0.61812,-4.51714 0.33996,-1.20103 0.7294,-3.790751 0.86543,-5.754935 0.40569,-5.85815 1.00891,-6.821099 4.27291,-6.821099 2.40628,0 3.28348,0.475595 2.93572,1.591673 -0.61892,1.98633 0.39634,2.047872 3.30843,0.200546 5.07681,-3.220547 11.78304,-2.42066 14.70723,1.754207 l 0.67643,0.965729 1.69532,-1.336956 c 3.3405,-2.634375 4.90468,-3.188799 8.99503,-3.188302 l 3.7704,4.59e-4 2.25819,2.166194 c 2.0207,1.938383 2.28761,2.416536 2.53796,4.546624 0.31703,2.697442 -0.34651,11.474299 -0.95677,12.655431 -0.22121,0.42814 -0.5061,2.52504 -0.6331,4.65977 -0.29814,5.0116 -0.52226,5.26616 -4.49315,5.10346 -2.8454,-0.11659 -3.1311,-0.2121 -3.03414,-1.01431 0.78266,-6.4754 1.11662,-8.79239 1.56372,-10.848713 1.75519,-8.072647 -0.39467,-11.948026 -6.04056,-10.88885 -3.15816,0.592475 -5.89201,4.620001 -6.29468,9.27339 -0.12958,1.497359 -0.44655,3.559883 -0.70438,4.583393 -0.25784,1.02351 -0.59499,3.41465 -0.74923,5.31366 l -0.28043,3.45272 h -3.32103 -3.32104 l 0.13734,-3.54243 c 0.0755,-1.94834 0.43563,-4.83764 0.80022,-6.42067 0.41485,-1.80129 0.61199,-4.446134 0.52687,-7.068639 l -0.13601,-4.190415 -1.5498,-1.042999 c -0.88954,-0.598647 -1.92711,-0.948822 -2.43543,-0.821944 -0.48709,0.121581 -1.64978,0.417016 -2.58376,0.656522 -1.77191,0.454385 -4.71918,3.259487 -4.72491,4.497 -0.002,0.365313 -0.26828,1.172398 -0.59243,1.793522 -0.32415,0.621123 -0.72,2.828953 -0.87968,4.906289 -0.15968,2.077334 -0.47672,4.358814 -0.70454,5.069944 -0.22782,0.71114 -0.54249,2.43873 -0.69927,3.8391 l -0.28505,2.54613 h -3.28917 -3.28917 z M 89.499733,103.43403 c -1.174607,-1.1746 0.631655,-3.87208 2.420593,-3.614916 1.313006,0.188746 3.311293,3.022186 2.496235,3.539496 -0.67982,0.43147 -4.502143,0.49011 -4.916828,0.0754 z m -27.527674,-0.42796 c -2.980417,-0.68017 -3.799664,-4.560652 -4.428086,-20.974252 -0.153853,-4.01845 -0.421681,-9.054181 -0.595174,-11.190513 -0.259895,-3.200257 -0.208524,-3.843211 0.291725,-3.651248 0.333942,0.128146 1.088544,0.35381 1.676895,0.501477 0.60673,0.152279 1.157617,0.678511 1.27279,1.215824 0.380325,1.774332 1.180226,12.439231 1.540593,20.540387 0.427982,9.621152 0.676738,10.29625 3.7939,10.29625 1.617387,0 1.982412,0.147486 1.982412,0.800975 0,1.94175 -2.649209,3.11969 -5.535055,2.4611 z M 128.5045,79.50074 c -1.55921,-0.236277 -1.55101,-0.186759 -1.87673,-11.332443 -0.1481,-5.067741 -0.45917,-9.713554 -0.69127,-10.324029 -0.23211,-0.610475 -0.42506,-3.637573 -0.42879,-6.726885 -0.009,-7.573029 -0.41508,-7.793824 -9.45366,-5.141943 -1.1848,0.347613 -2.65252,0.632024 -3.2616,0.632024 -0.60909,0 -2.03086,0.285157 -3.15949,0.633682 -2.75148,0.849671 -5.57849,1.550111 -8.2141,2.035183 -1.19725,0.220349 -2.38286,0.606675 -2.634689,0.858504 -0.251829,0.251829 -1.065619,0.459099 -1.808424,0.460599 -0.742804,0.0015 -1.882238,0.280127 -2.532074,0.61917 -0.649836,0.339044 -2.04467,0.75887 -3.099631,0.932947 -1.05496,0.174077 -2.117372,0.467254 -2.360914,0.651505 -0.243543,0.184251 -1.239853,0.478446 -2.214022,0.653766 -0.97417,0.175321 -1.97048,0.477187 -2.214023,0.670815 -0.243542,0.193628 -1.339483,0.555445 -2.435424,0.804039 -2.115223,0.479798 -4.170365,1.152727 -6.546388,2.143527 -0.799775,0.333505 -1.895716,0.612711 -2.435424,0.620456 -0.539708,0.0077 -1.36808,0.306639 -1.840828,0.664207 -0.472747,0.357568 -1.229875,0.650124 -1.682506,0.650124 -0.452631,0 -1.435732,0.316874 -2.18467,0.704165 -1.227181,0.6346 -1.498413,0.637388 -2.745538,0.02822 -0.761108,-0.371768 -1.759665,-0.792428 -2.219015,-0.934799 -1.269382,-0.393434 0.210103,-1.837321 2.280628,-2.225754 0.884927,-0.166013 2.012179,-0.584269 2.505006,-0.929458 0.492826,-0.345189 1.399681,-0.633954 2.015233,-0.641699 0.615552,-0.0077 1.505979,-0.306639 1.978726,-0.664207 0.472748,-0.357568 1.312851,-0.650124 1.866896,-0.650124 0.554045,0 1.661717,-0.272868 2.461492,-0.606374 2.369493,-0.988077 4.45166,-1.673487 6.137708,-2.020417 0.871166,-0.179256 1.833776,-0.480327 2.139132,-0.669048 0.505556,-0.31245 2.464785,-0.857946 7.347039,-2.04559 0.974169,-0.236974 2.169741,-0.614941 2.656826,-0.839927 0.487085,-0.224986 1.782288,-0.609451 2.878229,-0.854368 3.086546,-0.689769 5.790495,-1.396372 7.970475,-2.082863 1.09595,-0.34512 2.59041,-0.633566 3.32104,-0.640992 0.73062,-0.0074 1.82657,-0.298272 2.43542,-0.646325 0.60886,-0.348054 1.78692,-0.639886 2.61791,-0.648516 0.83099,-0.0086 2.52472,-0.298202 3.76384,-0.643493 10.4332,-2.907306 12.66591,-1.56004 12.66103,7.63995 -0.001,2.273656 0.19292,8.052254 0.43139,12.841329 0.23847,4.789075 0.52902,10.650213 0.64568,13.024752 0.15805,3.21712 0.0758,4.300436 -0.32288,4.250997 -0.29424,-0.03649 -1.08246,-0.14931 -1.75161,-0.25071 z"
         id="path3" />
      <path
         style="fill:#264385;filter:url(#filter8)"
         d="m 116.90587,111.02143 c -0.47274,-0.35757 -1.43047,-0.65013 -2.12828,-0.65013 -0.85865,0 -1.68105,-0.45142 -2.54436,-1.39663 l -1.27562,-1.39662 2.13888,-1.70301 c 2.58193,-2.05576 2.52055,-2.05383 4.42621,-0.13913 3.6211,3.6383 11.9755,0.56709 10.06996,-3.70187 -0.71864,-1.60996 -2.07466,-2.697531 -3.40658,-2.7322 -0.60886,-0.01585 -1.49381,-0.32137 -1.96655,-0.678938 -0.47275,-0.357569 -1.64002,-0.650124 -2.59394,-0.650124 -3.45091,0 -7.53751,-5.113806 -5.8595,-7.332341 0.35757,-0.472748 0.65646,-1.275382 0.66421,-1.783633 0.0177,-1.162082 4.18648,-5.496572 5.28642,-5.496572 0.45017,0 1.06654,-0.298893 1.36973,-0.664207 1.82585,-2.200018 13.73656,0.07296 13.72145,2.618533 -0.0114,1.924429 -3.87929,3.545433 -5.32908,2.233389 -0.99947,-0.904503 -3.43694,-1.267727 -5.96412,-0.888753 -3.80575,0.570708 -4.69329,6.431483 -0.97524,6.439935 0.6842,0.0016 1.34489,0.298017 1.48649,0.667007 0.15855,0.413168 0.83345,0.664206 1.78569,0.664206 2.9185,0 7.33755,2.561612 7.82982,4.538746 0.16675,0.669741 0.49865,1.217712 0.73756,1.217712 0.59722,0 0.55085,1.65859 -0.052,1.85954 -0.2675,0.0892 -0.59231,1.10208 -0.7218,2.25092 -0.15315,1.35881 -0.44744,2.0888 -0.84205,2.0888 -0.33364,0 -0.60662,0.29889 -0.60662,0.66421 0,0.36531 -0.2989,0.66421 -0.66421,0.66421 -0.36531,0 -0.66421,0.27729 -0.66421,0.6162 0,0.33891 -0.49815,0.74123 -1.10701,0.89404 -0.60885,0.15282 -1.10701,0.47331 -1.10701,0.71221 0,0.23891 -0.87228,0.43437 -1.9384,0.43437 -1.18282,0 -2.15327,0.25891 -2.48964,0.66421 -0.74959,0.90319 -6.08109,0.89288 -7.28021,-0.0141 z m 30.30604,0.24392 c 0,-0.23891 -0.53664,-0.56906 -1.19254,-0.73368 -3.01917,-0.75776 -4.79591,-10.718638 -2.4221,-13.578906 2.53193,-3.050787 0.87523,-10.050097 -2.3788,-10.050097 h -2.41985 l 0.01,-1.439114 c 0.0166,-2.43121 1.1391,-3.373501 4.1968,-3.523127 l 2.65682,-0.13001 0.12862,-1.99262 c 0.0707,-1.095941 0.41944,-2.62052 0.7749,-3.387954 0.35547,-0.767433 0.6463,-1.713928 0.6463,-2.103321 0,-0.582813 0.56015,-0.707987 3.16826,-0.707987 3.0727,0 3.14554,0.02511 2.41495,0.832397 -0.59579,0.658339 -0.72588,1.514821 -0.62214,4.095941 l 0.13118,3.263544 4.1489,0.128019 c 3.88194,0.119781 4.10498,0.176764 3.46635,0.885608 -0.3754,0.416675 -0.74794,1.455008 -0.82787,2.307406 l -0.14532,1.549816 -3.63283,0.221402 c -4.42754,0.269835 -4.61684,0.444178 -4.89362,4.507039 -0.12147,1.783121 -0.43126,3.505679 -0.68843,3.827907 -0.53775,0.673804 -0.98652,7.495547 -0.59341,9.020327 0.50927,1.97539 5.02387,3.41439 6.3987,2.03956 0.41328,-0.41328 0.52883,-0.0443 0.51994,1.66052 -0.011,2.10309 -0.0796,2.22327 -1.69488,2.96679 -1.81732,0.83652 -7.14978,1.0905 -7.14978,0.34054 z m 46.1449,-0.24668 c -0.31503,-0.35718 -1.33586,-0.64737 -2.27735,-0.64737 -1.1083,0 -1.79572,-0.2328 -1.96126,-0.6642 -0.14019,-0.36532 -0.50367,-0.66421 -0.80775,-0.66421 -1.0366,0 -4.33145,-4.12974 -4.33883,-5.43825 -0.004,-0.68112 -0.30383,-1.34554 -0.67115,-1.48649 -0.49269,-0.18907 -0.66421,-0.97188 -0.66421,-3.031517 0,-1.92792 0.20302,-2.945129 0.66421,-3.327877 0.3755,-0.311642 0.6642,-1.276956 0.6642,-2.220867 0,-1.075626 0.23631,-1.760301 0.66421,-1.924503 0.36531,-0.140184 0.66421,-0.538025 0.66421,-0.88409 0,-0.346066 0.69279,-1.398445 1.53954,-2.338621 0.84675,-0.940176 1.54416,-1.858857 1.54981,-2.041514 0.006,-0.182656 0.30917,-0.332103 0.67448,-0.332103 0.36532,0 0.66421,-0.175087 0.66421,-0.389083 0,-0.213996 0.59779,-0.636694 1.32841,-0.93933 0.73063,-0.302636 1.32842,-0.725334 1.32842,-0.93933 0,-0.213996 0.60404,-0.389083 1.34231,-0.389083 0.78468,0 1.44819,-0.275928 1.59719,-0.664207 0.37535,-0.978149 10.12941,-0.978149 10.50476,0 0.14018,0.365314 0.59894,0.664207 1.01945,0.664207 0.91707,0 3.24846,2.135112 3.24846,2.97497 0,0.327393 0.2989,0.709956 0.66421,0.85014 0.53889,0.20679 0.66421,1.248505 0.66421,5.521158 v 5.266278 H 200.6584 c -7.7786,0 -10.90738,0.147237 -11.29151,0.531365 -0.71688,0.716876 -0.67664,3.765027 0.0555,4.206777 0.32279,0.19476 0.7118,0.69431 0.86446,1.11011 1.27763,3.47996 9.81699,4.31328 12.27558,1.19793 0.49805,-0.63109 3.09963,-1.72313 3.09963,-1.3011 0,0.2498 0.24908,0.45762 0.55351,0.46183 1.44328,0.02 2.65293,2.10491 1.71593,2.9576 -1.58564,1.44296 -2.22641,1.9056 -2.63934,1.9056 -0.224,0 -0.65533,0.29889 -0.95851,0.66421 -0.30757,0.37059 -1.27282,0.6642 -2.18361,0.6642 -0.8978,0 -2.01916,0.29256 -2.49191,0.65013 -1.15084,0.87045 -5.53288,0.86853 -6.30135,-0.003 z m 13.10463,-18.917567 c 0.10172,-1.586455 -0.0352,-2.173204 -0.5535,-2.372099 -0.37876,-0.145343 -0.68865,-0.485676 -0.68865,-0.756294 0,-0.811293 -2.27776,-2.512847 -3.36378,-2.512847 -0.5566,0 -1.13515,-0.199262 -1.28567,-0.442805 -0.33519,-0.542352 -2.87823,-0.593866 -2.87823,-0.0583 0,0.211476 -0.84686,0.495297 -1.88192,0.630715 -3.25259,0.42554 -7.07005,5.826169 -5.34067,7.555547 0.16779,0.167794 3.80432,0.25082 8.08118,0.184502 l 7.7761,-0.120578 z m 15.38908,18.920327 c -0.47275,-0.35757 -1.4126,-0.65013 -2.08856,-0.65013 -4.40058,0 -6.29022,-7.69211 -2.81291,-11.450409 2.72401,-2.944129 6.41683,-4.490549 10.72333,-4.490549 2.57602,0 3.7119,-0.178294 4.09774,-0.643206 0.322,-0.38799 1.52949,-0.695465 3.04315,-0.774908 4.10675,-0.21554 3.36121,-5.715049 -0.8664,-6.391071 -0.95488,-0.152692 -1.84312,-0.45071 -1.97386,-0.662262 -0.31575,-0.510884 -2.21692,-0.490576 -3.1804,0.03397 -0.42289,0.230237 -1.49611,0.534403 -2.38492,0.675924 -0.88881,0.141522 -1.8597,0.550932 -2.15754,0.909801 -0.8111,0.977313 -2.96627,0.825276 -3.54166,-0.249845 -0.56843,-1.062119 -0.18066,-2.640101 0.64878,-2.640101 0.31908,0 0.8282,-0.298893 1.13139,-0.664207 0.30318,-0.365313 1.10023,-0.664206 1.77122,-0.664206 0.67098,0 1.46803,-0.298893 1.77121,-0.664207 0.80182,-0.966134 10.7111,-0.966134 11.51292,0 0.30318,0.365314 0.82573,0.664207 1.16123,0.664207 0.6747,0 2.3812,1.547837 2.3812,2.159803 0,0.213722 0.2989,0.636644 0.66421,0.939828 0.81204,0.673937 0.96789,9.26089 0.18234,10.046445 -0.26503,0.265029 -0.59014,2.546579 -0.72247,5.070113 -0.13232,2.52353 -0.3958,4.7875 -0.58551,5.03104 -0.18971,0.24355 -0.48456,1.19004 -0.65523,2.10333 l -0.31031,1.66051 h -2.38614 c -2.25791,0 -2.38615,-0.0602 -2.38615,-1.12091 0,-1.39965 -1.10584,-1.8746 -2.15468,-0.92541 -0.4363,0.39485 -1.00227,0.71791 -1.2577,0.71791 -0.25543,0 -0.71248,0.29889 -1.01566,0.66421 -0.30319,0.36531 -1.08655,0.6642 -1.74081,0.6642 -0.65426,0 -1.57635,0.29256 -2.0491,0.65013 -1.10534,0.83603 -3.71337,0.83603 -4.81871,0 z m 9.44196,-4.72133 c 2.31613,-1.4046 3.5783,-2.67468 3.58705,-3.60955 0.004,-0.44951 0.33639,-1.3738 0.73817,-2.05397 2.40807,-4.076532 -9.58248,-3.893123 -13.38018,0.20467 -3.89213,4.19967 3.64184,8.74159 9.05496,5.45885 z m -69.89675,0.63947 c 0.009,-2.31323 0.22598,-3.71189 0.66421,-4.29128 0.44609,-0.58978 0.65098,-1.97946 0.65285,-4.428042 0.002,-2.103929 0.24454,-4.031855 0.59191,-4.69748 0.32405,-0.620937 0.71339,-3.167807 0.86521,-5.659711 0.33227,-5.454045 0.59694,-5.831239 4.09158,-5.831239 2.46708,0 2.50971,0.02129 2.23494,1.116097 -0.67371,2.68427 1.11136,3.578771 3.09924,1.55303 0.71033,-0.723862 1.64648,-1.321648 2.08032,-1.328413 0.43384,-0.0068 0.9035,-0.311193 1.04368,-0.676507 0.22902,-0.596812 6.35939,-1.072462 6.35939,-0.49342 0,0.09393 -0.29766,0.741534 -0.66147,1.439114 -0.36382,0.697581 -0.66271,1.923911 -0.66421,2.72518 -0.003,1.434232 -0.0319,1.455281 -1.88465,1.355692 -4.31865,-0.232144 -9.63099,2.43463 -9.63099,4.834719 0,0.334332 -0.2989,0.90677 -0.66421,1.272083 -0.46029,0.460287 -0.66421,1.589478 -0.66421,3.67799 0,2.138719 -0.19285,3.173837 -0.6642,3.565027 -0.50837,0.42191 -0.66421,1.57742 -0.66421,4.92507 v 4.37382 h -3.09963 -3.09963 z m 83.67595,1.08487 c 0,-1.29078 0.22636,-2.57323 0.50303,-2.84989 0.27666,-0.27666 0.60283,-2.45858 0.72482,-4.84871 0.13282,-2.60225 0.46395,-4.696093 0.82539,-5.219117 0.39739,-0.57505 0.6084,-2.23904 0.61767,-4.870848 0.01,-2.811151 0.20701,-4.25249 0.66421,-4.856955 0.35757,-0.472748 0.65012,-1.419242 0.65012,-2.103321 0,-1.21241 0.0614,-1.243781 2.43543,-1.243781 2.39565,0 2.43542,0.0211 2.43542,1.292198 0,2.405093 1.1531,3.590444 2.08132,2.139537 0.3927,-0.613836 1.62453,-1.444918 3.07862,-2.077065 0.52431,-0.227939 1.08404,-0.625987 1.24384,-0.884552 0.47826,-0.773828 7.98809,-0.605353 8.65157,0.194089 0.30318,0.365314 0.79109,0.664207 1.08424,0.664207 0.29315,0 1.1145,0.697417 1.82522,1.549815 1.3604,1.631591 2.12769,1.913232 2.71429,0.99631 0.49087,-0.76728 2.82539,-2.357284 4.01581,-2.735111 0.54326,-0.172424 0.98775,-0.499332 0.98775,-0.726463 0,-0.227131 1.78007,-0.412965 3.95572,-0.412965 h 3.95573 l 2.24353,2.185274 2.24354,2.185273 v 5.696646 c 0,3.617428 -0.18118,5.877828 -0.4964,6.19305 -0.27303,0.273022 -0.59194,2.355309 -0.7087,4.627309 -0.32113,6.24895 -0.98019,7.45184 -4.08307,7.45227 l -2.46091,3.5e-4 0.15058,-4.31769 c 0.0828,-2.37473 0.41731,-4.91547 0.74331,-5.6461 3.18549,-7.13929 -2.61228,-17.97367 -6.87175,-12.841326 -0.30318,0.365313 -0.86465,0.664206 -1.2477,0.664206 -0.94396,0 -3.18034,2.199757 -3.18034,3.128257 0,0.4117 -0.2703,0.972874 -0.60067,1.247053 -0.36118,0.299754 -0.72128,1.94477 -0.90318,4.125966 -0.16639,1.995102 -0.51228,3.880204 -0.76866,4.189124 -0.25637,0.30891 -0.57633,2.5615 -0.71102,5.00574 l -0.24488,4.44408 h -3.02138 -3.02138 l 0.26808,-3.65313 c 0.14744,-2.00923 0.48328,-3.92486 0.74632,-4.25696 1.18105,-1.49118 0.88373,-14.23013 -0.33213,-14.23013 -0.33086,0 -0.84961,-0.298893 -1.1528,-0.664206 -0.59262,-0.714071 -3.77096,-0.926348 -4.17129,-0.278596 -0.13108,0.212086 -0.79252,0.496449 -1.46986,0.631919 -1.76567,0.353134 -4.54335,3.266539 -4.54335,4.765353 0,0.664617 -0.29854,1.321799 -0.66421,1.462118 -0.51454,0.197449 -0.66774,1.081148 -0.67989,3.921913 -0.01,2.340759 -0.24457,4.067409 -0.64852,4.774049 -0.3832,0.67033 -0.63901,2.37337 -0.64851,4.31734 l -0.0157,3.21033 h -3.09963 -3.09963 z M 89.842641,102.8014 c -0.488261,-0.79002 0.75157,-2.6146 1.776666,-2.6146 0.801832,0 2.456071,1.91003 2.456071,2.83585 0,0.47916 -3.92671,0.27392 -4.232737,-0.22125 z m -28.313387,-0.721 c -1.670675,-0.41065 -1.908849,-1.02905 -2.229266,-5.788124 -0.17553,-2.60709 -0.473671,-4.839794 -0.662537,-4.961565 -0.561051,-0.361738 -1.069788,-22.851345 -0.524543,-23.188325 1.252694,-0.774208 1.866531,1.077516 1.866531,5.630653 0,3.220413 0.183579,4.781387 0.638743,5.431225 0.496178,0.708392 0.669136,3.011676 0.774908,10.319459 0.154537,10.676877 0.149665,10.663077 3.763232,10.663077 1.573399,0 1.907987,0.14625 1.907987,0.83396 0,1.20552 -2.777989,1.73734 -5.535055,1.05964 z M 129.72113,78.932187 c -0.15051,-0.243542 -0.76006,-0.442804 -1.35454,-0.442804 h -1.08088 V 68.290984 c 0,-8.656761 -0.10041,-10.236928 -0.66421,-10.453279 -0.5487,-0.210558 -0.6642,-1.386267 -0.6642,-6.761011 0,-4.469918 -0.1663,-6.672431 -0.53137,-7.037496 -0.72935,-0.729349 -2.66203,-0.667339 -3.70134,0.118759 -0.48478,0.36667 -1.83622,0.656264 -3.09963,0.664207 -1.26342,0.0079 -2.61486,0.297537 -3.09964,0.664206 -0.48478,0.36667 -1.83622,0.656264 -3.09963,0.664207 -1.26341,0.0079 -2.61485,0.297537 -3.09963,0.664207 -0.47274,0.357568 -1.65659,0.657688 -2.63076,0.666934 -0.97417,0.0092 -2.34196,0.314476 -3.03954,0.67829 -0.69758,0.363813 -1.79352,0.662706 -2.43543,0.664206 -0.6419,0.0015 -1.727891,0.295232 -2.413312,0.652737 -0.685421,0.357505 -2.226225,0.780011 -3.424009,0.938903 -1.197784,0.158892 -2.404926,0.562577 -2.682538,0.897079 -0.283289,0.341341 -1.331439,0.608184 -2.38893,0.608184 -1.134629,0 -2.103474,0.264231 -2.435424,0.664207 -0.310908,0.37462 -1.276196,0.664206 -2.214022,0.664206 -0.937827,0 -1.903115,0.289587 -2.214023,0.664207 -0.310907,0.37462 -1.276195,0.664207 -2.214022,0.664207 -0.937826,0 -1.903115,0.289586 -2.214022,0.664206 -0.303183,0.365314 -1.210028,0.664207 -2.01521,0.664207 -0.805182,0 -1.76286,0.298893 -2.128174,0.664207 -0.365313,0.365313 -1.195665,0.664206 -1.845226,0.664206 -0.649561,0 -1.70992,0.27924 -2.356352,0.620533 -2.296849,1.212652 -4.70872,1.627756 -6.278391,1.080565 l -1.465136,-0.510749 1.00843,-0.816576 c 0.554636,-0.449118 1.460111,-0.816577 2.012166,-0.816577 0.552055,0 1.251795,-0.298893 1.554979,-0.664207 0.317954,-0.383112 1.283764,-0.664206 2.282138,-0.664206 1.130091,0 1.819366,-0.230551 1.985776,-0.664207 0.164202,-0.427904 0.848877,-0.664207 1.924503,-0.664207 0.943911,0 1.909225,-0.288702 2.220866,-0.664206 0.303184,-0.365314 1.210028,-0.664207 2.015211,-0.664207 0.805182,0 1.76286,-0.298893 2.128174,-0.664207 0.365313,-0.365313 1.22641,-0.665434 1.913547,-0.666934 0.687138,-0.0015 1.838253,-0.309817 2.558033,-0.685148 0.719781,-0.375331 2.162263,-0.799415 3.205517,-0.942409 1.043253,-0.142993 2.122652,-0.532094 2.398663,-0.864667 0.276012,-0.332574 1.324304,-0.611016 2.329539,-0.618762 1.005235,-0.0077 2.214493,-0.306638 2.68724,-0.664207 0.472748,-0.357568 1.604271,-0.650124 2.514497,-0.650124 0.910225,0 1.953848,-0.298893 2.319162,-0.664206 0.3936,-0.393604 1.47601,-0.664207 2.65683,-0.664207 1.18081,0 2.26322,-0.270603 2.65682,-0.664206 0.41329,-0.413285 1.50062,-0.664207 2.87823,-0.664207 1.37762,0 2.46495,-0.250923 2.87823,-0.664207 0.37731,-0.37731 1.49074,-0.672601 2.57775,-0.683642 1.05246,-0.01069 2.7106,-0.304784 3.68477,-0.653543 2.07381,-0.742437 9.08741,-1.31079 9.76443,-0.791269 1.61808,1.241656 1.94285,4.121249 2.25063,19.955795 0.23756,12.221987 0.43239,15.720306 0.89697,16.105879 0.67986,0.564233 0.79843,1.712537 0.17683,1.712537 -0.22917,0 -0.53982,-0.199262 -0.69034,-0.442805 z"
         id="path2" />
    </g>
  </g>
</svg>
