<svg xmlns="http://www.w3.org/2000/svg" xmlns:xlink="http://www.w3.org/1999/xlink" viewBox="0,0,256,256" width="50px" height="50px"><g fill="#f5a622" fill-rule="nonzero" stroke="none" stroke-width="1" stroke-linecap="butt" stroke-linejoin="miter" stroke-miterlimit="10" stroke-dasharray="" stroke-dashoffset="0" font-family="none" font-weight="none" font-size="none" text-anchor="none" style="mix-blend-mode: normal"><g transform="scale(5.12,5.12)"><path d="M39,4h-28c-3.89844,0 -7,3.10156 -7,7v28c0,3.89844 3.10156,7 7,7h28c3.89844,0 7,-3.10156 7,-7v-28c0,-3.89844 -3.10156,-7 -7,-7zM42,39c0,1.69922 -1.30078,3 -3,3h-28c-1.69922,0 -3,-1.30078 -3,-3v-28c0,-1.69922 1.30078,-3 3,-3h28c1.69922,0 3,1.30078 3,3z"></path></g></g></svg>