<svg xmlns="http://www.w3.org/2000/svg" xmlns:xlink="http://www.w3.org/1999/xlink" viewBox="0,0,256,256" width="50px" height="50px"><g fill="#1e38c4" fill-rule="nonzero" stroke="none" stroke-width="1" stroke-linecap="butt" stroke-linejoin="miter" stroke-miterlimit="10" stroke-dasharray="" stroke-dashoffset="0" font-family="none" font-weight="none" font-size="none" text-anchor="none" style="mix-blend-mode: normal"><g transform="scale(5.12,5.12)"><path d="M40,9h-30c-3.86719,0 -7,3.13281 -7,7v18c0,3.86719 3.13281,7 7,7h30c3.86719,0 7,-3.13281 7,-7v-18c0,-3.86719 -3.13281,-7 -7,-7zM24.16406,31.01953v2.23047h-10.76953v-0.25c0,-3.78516 2.58984,-5.48047 4.875,-6.97656c1.92969,-1.26172 3.59766,-2.35156 3.59766,-4.4375c0,-0.02734 -0.07812,-2.60547 -2.83203,-2.60547c-2.79687,0 -2.82812,3.57422 -2.82812,3.73047v0.25h-2.37109l-0.01172,-0.23828c-0.05078,-1.10156 0.0625,-3.15625 1.40234,-4.5625c0.89453,-0.93359 2.17578,-1.41016 3.80859,-1.41016c5.06641,0 5.21484,4.33984 5.21484,4.83594c0,3.20703 -2.5625,4.82422 -4.82031,6.25c-1.54687,0.97656 -3.01562,1.90234 -3.34375,3.18359zM31.07422,33.25c-4.21094,0 -5.32422,-3.14453 -5.32422,-4.80859v-0.25h2.30859v0.25c0,1.78516 1.8125,2.58984 3.10156,2.58984c2.88281,0 3.10547,-2.70703 3.10547,-3.53516c0,-3.26953 -3.01953,-3.36328 -3.36328,-3.36328c-1.35156,0 -2.23047,0.74219 -2.72656,1.36719l-0.08203,0.10156l-2.04297,-0.10937l1.54688,-8.74219h8.28516v2.22266h-6.39062l-0.73047,3.86719c0.64063,-0.5 1.53125,-0.75391 2.65625,-0.75391c4.27344,0 5.41016,3.5625 5.41016,5.66797c0.00391,4.33984 -3.61328,5.49609 -5.75391,5.49609z"></path></g></g></svg>