<svg xmlns="http://www.w3.org/2000/svg" xmlns:xlink="http://www.w3.org/1999/xlink" viewBox="0,0,256,256" width="50px" height="50px"><g fill="#1e38c4" fill-rule="nonzero" stroke="none" stroke-width="1" stroke-linecap="butt" stroke-linejoin="miter" stroke-miterlimit="10" stroke-dasharray="" stroke-dashoffset="0" font-family="none" font-weight="none" font-size="none" text-anchor="none" style="mix-blend-mode: normal"><g transform="scale(5.12,5.12)"><path d="M10,9c-3.86719,0 -7,3.13281 -7,7v18c0,3.86719 3.13281,7 7,7h30c3.86719,0 7,-3.13281 7,-7v-18c0,-3.86719 -3.13281,-7 -7,-7zM14.59375,16.75h8.28125v2.21875h-6.375l-0.75,3.875c0.64453,-0.5 1.53125,-0.75 2.65625,-0.75c4.27344,0 5.4375,3.55078 5.4375,5.65625c0,4.33984 -3.64453,5.5 -5.78125,5.5c-4.21094,0 -5.3125,-3.14844 -5.3125,-4.8125v-0.25h2.3125v0.25c0,1.78516 1.80469,2.59375 3.09375,2.59375c2.88281,0 3.125,-2.70312 3.125,-3.53125c0,-3.26953 -3.03125,-3.375 -3.375,-3.375c-1.35156,0 -2.21875,0.75 -2.71875,1.375l-0.09375,0.09375l-2.03125,-0.09375zM31.5,16.75c5.46875,0 5.46875,5.80078 5.46875,8.28125c0,2.45703 0,8.21875 -5.46875,8.21875c-1.56641,0 -2.82422,-0.44531 -3.71875,-1.34375c-1.76953,-1.77344 -1.75391,-4.83984 -1.75,-6.65625v-0.21875c0,-2.69141 0,-8.28125 5.46875,-8.28125zM31.5,18.96875c-0.75781,0 -1.37109,0.25 -1.84375,0.75c-0.62109,0.65625 -1.32812,2.09766 -1.15625,5.1875c0.00391,0.07422 0,0.10156 0,0.125v0.1875c-0.07422,2.51563 0.32813,4.26953 1.21875,5.1875c0.46875,0.48047 1.05469,0.71875 1.78125,0.71875c2.07422,0 3,-1.88672 3,-6.09375c0,-0.03125 -0.00391,-0.07031 0,-0.15625c0.16016,-3.08594 -0.51562,-4.51172 -1.125,-5.15625c-0.47656,-0.5 -1.11328,-0.75 -1.875,-0.75z"></path></g></g></svg>