<svg xmlns="http://www.w3.org/2000/svg" xmlns:xlink="http://www.w3.org/1999/xlink" viewBox="0,0,256,256" width="50px" height="50px"><g fill="#1e38c4" fill-rule="nonzero" stroke="none" stroke-width="1" stroke-linecap="butt" stroke-linejoin="miter" stroke-miterlimit="10" stroke-dasharray="" stroke-dashoffset="0" font-family="none" font-weight="none" font-size="none" text-anchor="none" style="mix-blend-mode: normal"><g transform="scale(5.12,5.12)"><path d="M25,7c-9.059,0 -17.65975,3.47144 -24.21875,9.77344l-0.7207,0.69141l5.53516,5.76563l0.72266,-0.69141c5.061,-4.861 11.69564,-7.53906 18.68164,-7.53906c6.986,0 13.62064,2.67806 18.68164,7.53906l0.72266,0.69141l5.53711,-5.76562l-0.7207,-0.69336c-6.56,-6.301 -15.1617,-9.77148 -24.2207,-9.77148zM25,19c-5.952,0 -11.60402,2.28088 -15.91602,6.42188l-0.7207,0.69141l5.55859,5.79102l0.72266,-0.69336c2.822,-2.716 6.50047,-4.21094 10.35547,-4.21094c3.83762,0 7.49945,1.48298 10.31641,4.17578c-1.19491,0.63889 -2.24578,1.5135 -3.0918,2.56055c-2.01047,-1.76126 -4.55212,-2.73633 -7.22461,-2.73633c-2.843,0 -5.54537,1.09127 -7.60937,3.07227l-0.7207,0.69336l8.33008,8.67773l5.19727,-5.41406c-0.12893,0.63804 -0.19727,1.29612 -0.19727,1.9707c0,5.5 4.5,10 10,10c5.5,0 10,-4.5 10,-10c0,-5.5 -4.5,-10 -10,-10c-0.82223,0 -1.61697,0.11133 -2.38281,0.30078l4.01953,-4.1875l-0.7207,-0.69141c-4.312,-4.141 -9.96402,-6.42187 -15.91602,-6.42187zM40,32c4.4,0 8,3.6 8,8c0,4.4 -3.6,8 -8,8c-4.4,0 -8,-3.6 -8,-8c0,-4.4 3.6,-8 8,-8zM44.30078,35.40039l-5.40039,6.29883l-3.30078,-2.5l-1.19922,1.60156l4.69922,3.59961l6.70117,-7.70117z"></path></g></g></svg>