<svg xmlns="http://www.w3.org/2000/svg" xmlns:xlink="http://www.w3.org/1999/xlink" viewBox="0,0,256,256" width="50px" height="50px"><g fill="#00aa3f" fill-rule="nonzero" stroke="none" stroke-width="1" stroke-linecap="butt" stroke-linejoin="miter" stroke-miterlimit="10" stroke-dasharray="" stroke-dashoffset="0" font-family="none" font-weight="none" font-size="none" text-anchor="none" style="mix-blend-mode: normal"><g transform="scale(5.12,5.12)"><path d="M2,7c-1.1,0 -2,0.9 -2,2v29c0,1.1 0.9,2 2,2h3v2.10742c0,0.493 0.39958,0.89258 0.89258,0.89258h1.21484c0.493,0 0.89258,-0.39958 0.89258,-0.89258v-2.10742h6.78906c1.04,-0.48 1.97125,-0.98094 2.28125,-1.46094c0.02,-0.19 0.0293,-0.35906 0.0293,-0.53906h-15.09961v-29h46v29h-15.16016c0,0.2 0.00953,0.38961 0.01953,0.59961c0.38,0.47 1.29102,0.95039 2.29102,1.40039h6.84961v2.16211c0,0.463 0.37489,0.83789 0.83789,0.83789h1.32422c0.463,0 0.83789,-0.37489 0.83789,-0.83789v-2.16211h3c1.1,0 2,-0.9 2,-2v-29c0,-1.1 -0.9,-2 -2,-2zM27,11c-4.7,0 -8.40922,1.71961 -10.44922,4.84961c-1.72,2.65 -2.01031,6.06047 -0.82031,9.23047c-0.38,0.54 -0.71109,1.35898 -0.62109,2.45898c0.29,2.16 1.12102,3.05016 1.79102,3.41016c0.34,1.81 1.31922,3.71133 2.19922,4.61133c0.01,0.23 0.00977,0.44016 0.00977,0.66016c0.02,0.95 0.04016,1.78961 -0.08984,2.84961c-0.56,1.53 -2.46945,2.36031 -4.68945,3.32031c-2.53,1.1 -5.40992,2.34859 -7.16992,5.05859c-0.2,0.31 -0.21102,0.70148 -0.04102,1.02148c0.18,0.33 0.51086,0.5293 0.88086,0.5293h34c0.37,0 0.70086,-0.19953 0.88086,-0.51953c0.17,-0.32 0.15899,-0.71953 -0.04102,-1.01953c-1.78,-2.75 -4.69,-3.9918 -7.25,-5.0918c-2.18,-0.93 -4.06922,-1.72945 -4.69922,-3.18945c-0.08,-1.32 -0.08984,-2.3793 -0.08984,-3.5293c0.89,-0.94 1.79016,-2.93078 2.16016,-4.55078c0.72,-0.34 1.62984,-1.21953 1.83984,-3.51953c0.08,-0.99 -0.11172,-1.83992 -0.51172,-2.41992c0.9,-2.04 0.97086,-5.63086 -0.36914,-8.38086c-1.09,-2.24 -2.94906,-3.55 -5.28906,-3.75l-0.73047,-1.47852c-0.17,-0.34 -0.52039,-0.55078 -0.90039,-0.55078z"></path></g></g></svg>