<svg xmlns="http://www.w3.org/2000/svg" xmlns:xlink="http://www.w3.org/1999/xlink" viewBox="0,0,256,256" width="64px" height="64px"><g fill="none" fill-rule="nonzero" stroke="none" stroke-width="1" stroke-linecap="butt" stroke-linejoin="miter" stroke-miterlimit="10" stroke-dasharray="" stroke-dashoffset="0" font-family="none" font-weight="none" font-size="none" text-anchor="none" style="mix-blend-mode: normal"><g><path d="M208.962,187.837l-20.471,-20.471l-15.332,-15.332c-3.112,-3.112 -8.157,-3.112 -11.268,0l-24.415,24.415c-3.112,3.112 -8.157,3.112 -11.268,0l-55.04,-55.04c-3.112,-3.112 -3.112,-8.157 0,-11.268l24.415,-24.415c3.112,-3.112 3.112,-8.157 0,-11.268l-15.332,-15.332l-20.471,-20.471c-3.112,-3.112 -8.157,-3.112 -11.268,0l-10.208,10.207l-3.691,3.691c-25.516,25.516 -23.201,64.57 2.315,90.086l68.049,68.049c25.516,25.516 64.57,27.831 90.086,2.315l3.691,-3.691l10.207,-10.207c3.113,-3.112 3.113,-8.157 0.001,-11.268z" fill="#ffbd4e"></path><path d="M109.22,208.439c-0.53,0 -1.04,-0.199 -1.41,-0.58c-0.38,-0.38 -0.59,-0.88 -0.59,-1.42c0,-0.529 0.21,-1.029 0.59,-1.409c0.75,-0.761 2.07,-0.761 2.83,0c0.37,0.38 0.58,0.88 0.58,1.409c0,0.54 -0.21,1.04 -0.58,1.42c-0.38,0.381 -0.89,0.58 -1.42,0.58zM103.56,202.79c-0.53,0 -1.03,-0.21 -1.41,-0.59l-62.39,-62.39c-11.78,-11.78 -18.57,-26.82 -19.13,-42.36c-0.02,-0.67 -0.04,-1.36 -0.04,-2.03c0,-11.771 3.67,-23.08 10.61,-32.71c1.59,-2.21 3.37,-4.351 5.29,-6.36c0.74,-0.77 2.06,-0.8 2.83,-0.06c0.39,0.37 0.6,0.87 0.62,1.399c0.01,0.54 -0.19,1.04 -0.56,1.431c-1.78,1.859 -3.44,3.859 -4.93,5.93c-6.45,8.95 -9.85,19.45 -9.86,30.37c0,0.6 0.01,1.22 0.04,1.89c0.52,14.521 6.9,28.61 17.96,39.67l62.39,62.391c0.78,0.779 0.78,2.05 0,2.83c-0.38,0.379 -0.88,0.589 -1.42,0.589z" fill="#fcc419"></path><path d="M208.962,187.837l-10,-10c3.112,3.112 3.112,8.157 0,11.268l-13.898,13.898c-25.516,25.516 -64.57,23.201 -90.086,-2.315l10,10c25.516,25.516 64.57,27.831 90.086,2.315l13.898,-13.898c3.112,-3.112 3.112,-8.157 0,-11.268z" fill="#eb7a00"></path><path d="M208.962,187.837l-5,-5c3.112,3.112 3.112,8.157 0,11.268l-13.898,13.898c-25.516,25.516 -64.57,23.201 -90.086,-2.315l5,5c25.516,25.516 64.57,27.831 90.086,2.315l13.898,-13.898c3.112,-3.112 3.112,-8.157 0,-11.268z" fill="#b66f00"></path><g><path d="M224.876,24.978h-92.83c-8.024,0 -14.529,6.505 -14.529,14.529v101.591c0,1.717 2.021,2.636 3.314,1.507l18.979,-16.549c0.364,-0.318 0.831,-0.493 1.314,-0.493h83.751c8.024,0 14.529,-6.505 14.529,-14.529v-71.527c0.001,-8.024 -6.504,-14.529 -14.528,-14.529z" fill="#2877d7"></path><path d="M228.854,25.53c0.359,1.264 0.551,2.598 0.551,3.978v71.528c0,8.024 -6.505,14.529 -14.529,14.529h-83.751c-0.483,0 -0.95,0.175 -1.314,0.493l-12.293,10.72v14.322c0,1.717 2.021,2.635 3.314,1.507l18.979,-16.549c0.364,-0.318 0.831,-0.493 1.314,-0.493h83.751c8.024,0 14.529,-6.505 14.529,-14.529v-71.529c0,-6.645 -4.461,-12.248 -10.551,-13.977z" fill="#094bcc"></path></g><g fill="#ffffff"><path d="M178.461,35.536c-20.743,0 -37.619,16.876 -37.619,37.619c0,20.743 16.876,37.619 37.619,37.619c20.743,0 37.619,-16.876 37.619,-37.619c0,-20.743 -16.876,-37.619 -37.619,-37.619zM146.415,73.155c0,-2.955 0.411,-5.815 1.163,-8.534h10.282c-0.344,2.735 -0.531,5.588 -0.531,8.534c0,2.696 0.154,5.316 0.443,7.837h-10.384c-0.633,-2.509 -0.973,-5.134 -0.973,-7.837zM162.903,73.155c0,-2.943 0.209,-5.805 0.589,-8.534h12.182v16.371h-12.279c-0.32,-2.518 -0.492,-5.145 -0.492,-7.837zM181.248,41.659c4.825,1.884 8.946,8.531 11.121,17.389h-11.121zM175.674,41.659v17.389h-11.12c2.175,-8.858 6.296,-15.505 11.12,-17.389zM175.674,86.566v18.086c-4.95,-1.933 -9.16,-8.881 -11.286,-18.086zM181.248,104.652v-18.086h11.287c-2.127,9.205 -6.337,16.152 -11.287,18.086zM181.248,80.992v-16.371h12.183c0.381,2.729 0.589,5.591 0.589,8.534c0,2.692 -0.172,5.319 -0.492,7.837zM199.062,64.621h10.282c0.752,2.719 1.163,5.579 1.163,8.534c0,2.703 -0.34,5.328 -0.973,7.837h-10.384c0.289,-2.522 0.443,-5.141 0.443,-7.837c0,-2.946 -0.187,-5.799 -0.531,-8.534zM207.226,59.048h-9.123c-1.297,-5.866 -3.385,-10.967 -6.048,-14.903c6.59,3.1 11.958,8.378 15.171,14.903zM164.866,44.145c-2.663,3.936 -4.75,9.038 -6.047,14.903h-9.123c3.214,-6.525 8.581,-11.803 15.17,-14.903zM149.367,86.566h9.3c1.283,6.159 3.431,11.508 6.199,15.6c-6.821,-3.21 -12.331,-8.755 -15.499,-15.6zM192.056,102.166c2.768,-4.092 4.916,-9.441 6.199,-15.6h9.3c-3.168,6.845 -8.677,12.39 -15.499,15.6z"></path></g></g></g></svg>