<?xml version="1.0" encoding="UTF-8"?><svg id="Layer_2" xmlns="http://www.w3.org/2000/svg" width="213.48" height="200" viewBox="0 0 213.48 200"><defs><style>.cls-1{fill:#1a4581;}.cls-2{fill:#0798d5;}</style></defs><g id="Layer_1-2"><path class="cls-1" d="m62.77,54.12L194.91,14.38c1.42-.42,2.48.15,2.99.53.51.38,1.37,1.24,1.37,2.72v138.67c0,1.87-1.52,3.39-3.38,3.39h-5.25c3.03,4.5,5.94,9.12,8.73,13.87,8.05-1.62,14.12-8.74,14.12-17.25V17.62c0-5.63-2.58-10.77-7.1-14.13-4.51-3.36-10.18-4.35-15.57-2.73L42.22,45.45c-.09.03-.17.07-.26.1,6.82,2.52,13.78,5.38,20.81,8.57Z"/><path class="cls-1" d="m43.91,156.29v-80.04c-4.61-2.49-9.37-4.79-14.22-6.99v87.03c0,9.71,7.89,17.6,17.6,17.6h.81l8.34-14.22h-9.15c-1.87,0-3.38-1.52-3.38-3.39Z"/><path class="cls-1" d="m128.52,159.67h-10.64l-8.51,14.22h26.38c-2.25-4.87-4.67-9.6-7.23-14.22Z"/><path class="cls-2" d="m143.68,106.4l14.39-24.49,18.3-31.23h-.28s-41.65,0-41.65,0c-4.82,0-9.67,2.96-12.21,7.46l-13.02,21.75c11.79,7.85,23.37,16.68,34.46,26.51Z"/><path class="cls-2" d="m91,110.5l-27.36,46.51-25.2,42.99h.23s41.66,0,41.66,0c4.82,0,9.68-2.96,12.21-7.46l27.83-46.5c-8.51-12.99-18.33-24.87-29.37-35.54Z"/><path class="cls-2" d="m186.51,166.95C124.08,72,41.18,50.34,29.25,45.71c-3.04-1.18-6.38-1.17-9.5-.23L.52,51.26c-.7.21-.69,1.16,0,1.37,15.59,4.84,99.82,29.27,141.24,121.75,0,0,5.84,13.83,6.52,15.44.68,1.61,2.73,10.18,12.04,10.18h45.66s-19.47-33.05-19.47-33.05Z"/></g></svg>