<svg width="201" height="91" viewBox="0 0 201 91" fill="none" xmlns="http://www.w3.org/2000/svg">
<path fill-rule="evenodd" clip-rule="evenodd" d="M101.345 37.0708C102.263 35.6845 102.275 35.4966 102.195 35.336C102.114 35.1758 101.913 35.0957 101.592 35.0957H91.1367C91.0315 35.0957 90.9305 35.1034 90.8339 35.1187C90.3888 35.1892 90.0338 35.422 89.7696 35.8173L64.0928 73.889L75.6957 73.8819C76.1782 73.8819 76.2734 73.9622 76.6411 73.5222L101.345 37.0708Z" fill="#F4B01A"/>
<path fill-rule="evenodd" clip-rule="evenodd" d="M89.7695 35.8172C90.0338 35.422 90.3887 35.1892 90.8337 35.1187C90.9305 35.1033 91.0314 35.0957 91.1367 35.0957H101.592C101.913 35.0957 102.114 35.1757 102.195 35.3361C102.275 35.4965 102.262 35.6844 102.154 35.8975L95.9828 44.988L89.7695 35.8172Z" fill="#F16F24"/>
<path fill-rule="evenodd" clip-rule="evenodd" d="M71.3283 63.1551C66.7957 63.144 56.2877 63.1172 56.2851 63.1069C55.7647 63.0935 55.9102 62.4169 55.891 61.8161V31.2281C55.891 30.5306 55.8669 29.8651 55.8187 29.2317C55.5694 25.9203 54.6687 23.4428 53.1165 21.8072C51.4518 20.0512 48.7736 19.0891 45.0904 18.9128C44.9134 18.9047 44.7365 18.8967 44.5596 18.8887V61.5355C44.5596 62.233 44.5837 62.8985 44.632 63.5319C44.8813 66.8433 45.782 69.3208 47.3341 70.9565C48.9988 72.7124 51.677 73.6744 55.3602 73.8509C55.7704 73.875 56.1886 73.883 56.6229 73.883L64.0905 73.8868L71.3283 63.1551Z" fill="black"/>
<path fill-rule="evenodd" clip-rule="evenodd" d="M103.181 73.0863L78.0092 35.8036C77.6876 35.3224 77.2316 35.082 76.6422 35.082H66.1872C65.8656 35.082 65.6646 35.1621 65.584 35.3224C65.5038 35.483 65.5164 35.6709 65.6243 35.8838L90.8769 73.1669C91.1986 73.6477 91.6008 73.888 92.0832 73.888H102.538C102.913 73.888 103.141 73.8082 103.222 73.6477C103.302 73.4872 103.288 73.3008 103.181 73.0863Z" fill="black"/>
<path fill-rule="evenodd" clip-rule="evenodd" d="M184.684 73.131C183.203 72.681 181.912 72.0204 180.812 71.148C180.587 70.9241 180.543 70.6846 180.686 70.4308L182.673 66.9724C182.759 66.8028 182.871 66.7186 183.013 66.7186C183.125 66.7186 183.252 66.7619 183.393 66.846C184.916 68.1684 186.905 68.8568 189.359 68.9122C190.487 68.9122 191.361 68.7648 191.982 68.4699C192.602 68.1751 192.913 67.7461 192.913 67.1831C192.913 66.5645 192.589 66.1145 191.941 65.8329C191.291 65.5525 190.275 65.2709 188.893 64.9893C187.455 64.709 186.22 64.3852 185.191 64.0195C184.161 63.6537 183.238 63.0352 182.42 62.1628C181.601 61.2915 181.193 60.0822 181.193 58.5348C181.193 57.0738 181.601 55.8291 182.42 54.8027C183.238 53.7762 184.323 53.0025 185.678 52.4815C187.032 51.9616 188.498 51.7012 190.078 51.7012C193.011 51.7012 195.663 52.588 198.033 54.3593C198.287 54.5565 198.329 54.796 198.16 55.0765L196.256 58.1978C196.171 58.3663 196.044 58.4506 195.875 58.4506C195.734 58.4506 195.621 58.4085 195.536 58.3242C194.69 57.7345 193.808 57.2845 192.892 56.9752C191.975 56.666 191.093 56.5108 190.247 56.5108C189.344 56.5108 188.612 56.666 188.047 56.9752C187.482 57.2845 187.201 57.7201 187.201 58.2832C187.201 58.7886 187.482 59.1622 188.047 59.4005C188.612 59.64 189.57 59.885 190.924 60.1387C193.011 60.5323 194.859 61.1996 196.467 62.1418C198.075 63.085 198.88 64.6524 198.88 66.846C198.88 69.124 198.012 70.8532 196.277 72.0337C194.542 73.2153 192.293 73.8061 189.529 73.8061C187.779 73.8061 186.165 73.581 184.684 73.131Z" fill="black"/>
<path fill-rule="evenodd" clip-rule="evenodd" d="M119.318 51.1992C117.125 51.1992 115.406 51.8876 114.195 53.2465V52.3786C114.195 52.1514 114.111 51.9452 113.949 51.7823C113.786 51.6215 113.579 51.5374 113.351 51.5374H108.4C108.172 51.5374 107.966 51.6215 107.805 51.7834C107.642 51.9441 107.557 52.1503 107.557 52.3786V73.048C107.557 73.2775 107.642 73.4838 107.803 73.6434C107.964 73.8041 108.17 73.8894 108.4 73.8894H113.351C113.582 73.8894 113.788 73.8052 113.949 73.6445C114.111 73.4826 114.195 73.2775 114.195 73.048V60.4349C114.195 59.3896 114.491 58.5672 115.098 57.9231C115.701 57.2847 116.472 56.9743 117.455 56.9743C118.41 56.9743 119.168 57.2847 119.77 57.9231C120.378 58.5683 120.674 59.3907 120.674 60.4349V73.048C120.674 73.2786 120.76 73.4849 120.92 73.6434C121.08 73.8041 121.287 73.8894 121.518 73.8894H126.468C126.698 73.8894 126.905 73.8052 127.066 73.6445C127.226 73.4838 127.312 73.2775 127.312 73.048V59.2123C127.312 56.7681 126.566 54.7995 125.096 53.3618C123.625 51.9264 121.681 51.1992 119.318 51.1992Z" fill="black"/>
<path fill-rule="evenodd" clip-rule="evenodd" d="M135.489 60.6045C135.605 60.0237 135.811 59.4351 136.107 58.8443C136.7 57.5585 137.747 56.9322 139.308 56.9311C140.929 56.9844 142.021 57.6927 142.641 59.0849C142.857 59.6136 143.023 60.1235 143.132 60.6056L135.489 60.6045ZM148.918 59.0428C148.297 56.6806 147.162 54.845 145.512 53.5381C143.862 52.2301 141.795 51.5762 139.314 51.5762C137.395 51.5762 135.667 52.034 134.13 52.9462C132.593 53.8606 131.401 55.1055 130.555 56.6806C129.624 58.5361 129.158 60.5757 129.158 62.797C129.158 64.288 129.377 65.6724 129.814 66.9516C130.251 68.2319 130.878 69.3348 131.698 70.2636C132.656 71.3599 133.848 72.2179 135.273 72.8364C136.697 73.4549 138.255 73.7642 139.947 73.7642C141.725 73.7642 143.369 73.4682 144.877 72.8785C146.386 72.2877 147.591 71.4586 148.495 70.39C148.607 70.2204 148.664 70.1084 148.664 70.052C148.664 69.94 148.593 69.8136 148.453 69.6717L145.66 66.9727C145.547 66.8607 145.434 66.8042 145.322 66.8042C145.208 66.8042 145.082 66.8751 144.942 67.0147C143.898 68.1687 142.331 68.7728 140.244 68.8294C138.353 68.8294 136.987 68.2108 136.139 66.9727C135.66 66.3542 135.336 65.637 135.167 64.8211C135.139 64.7657 135.152 64.7159 135.209 64.6737C135.264 64.6316 135.321 64.6106 135.378 64.6106H149.13C149.468 64.6106 149.637 64.4421 149.637 64.1039C149.58 62.1641 149.341 60.4771 148.918 59.0428Z" fill="black"/>
<path fill-rule="evenodd" clip-rule="evenodd" d="M180.879 51.8655C180.784 51.7347 180.598 51.5784 180.251 51.5784L175.169 51.4941C174.707 51.4941 174.383 51.7292 174.25 52.1681L171.148 64.186L168.001 52.1548C167.873 51.7292 167.548 51.4941 167.087 51.4941H162.615C162.12 51.4941 161.813 51.7845 161.813 52.2513V52.2923L161.869 52.514L167.963 73.2277C168.086 73.6368 168.39 73.8696 168.822 73.8873L173.941 73.8884C174.371 73.8884 174.687 73.6479 174.814 73.2277L181 52.5173C181.044 52.2601 181.004 52.0417 180.879 51.8655Z" fill="black"/>
<path fill-rule="evenodd" clip-rule="evenodd" d="M160.72 56.2096L158.756 64.0952L155.9 52.1548C155.772 51.7292 155.448 51.4941 154.986 51.4941H149.866C149.372 51.4941 149.064 51.7847 149.064 52.2513V52.2923L149.121 52.514L155.215 73.2278C155.343 73.6545 155.668 73.8884 156.129 73.8884H161.249C161.711 73.8884 162.035 73.6545 162.166 73.2145L163.824 66.7012L160.72 56.2096Z" fill="black"/>
<path fill-rule="evenodd" clip-rule="evenodd" d="M50.2786 66.4185C49.5208 63.9379 47.2319 62.3421 44.7589 62.3458C44.9536 62.1679 45.1388 61.975 45.3119 61.7664C47.3411 59.3216 46.9983 55.6998 44.5461 53.6767C42.5364 52.0187 39.7341 51.9495 37.6709 53.3239C37.7102 53.1453 37.7418 52.9633 37.7643 52.7781C38.1476 49.6279 35.8968 46.7644 32.737 46.3822C30.0984 46.0631 27.6607 47.5754 26.705 49.9173C25.7494 47.5754 23.3117 46.0631 20.6731 46.3822C17.5132 46.7644 15.2625 49.6279 15.6458 52.7781C15.6684 52.9633 15.6999 53.1453 15.7392 53.3239C13.6761 51.9495 10.8736 52.0187 8.86398 53.6767C6.41182 55.6998 6.0689 59.3216 8.09815 61.7664C8.27138 61.975 8.4564 62.1679 8.65125 62.3458C6.17813 62.3421 3.88937 63.9379 3.13149 66.4185C2.20403 69.4541 3.9206 72.6645 6.96536 73.5891C7.60331 73.7828 8.24887 73.8604 8.87953 73.8347H44.5306C45.1613 73.8604 45.8068 73.7828 46.4448 73.5891C49.4895 72.6645 51.2061 69.4541 50.2786 66.4185Z" fill="white"/>
<path fill-rule="evenodd" clip-rule="evenodd" d="M29.3184 72.8149L42.1113 64.2052C42.4978 63.9449 42.9237 63.7333 43.3911 63.5901C45.8765 62.8287 48.5074 64.2304 49.2673 66.721C50.0272 69.2115 48.6283 71.8477 46.1428 72.6091C45.6497 72.7601 45.15 72.8143 44.6621 72.8149H29.3184Z" fill="#2FA841"/>
<path fill-rule="evenodd" clip-rule="evenodd" d="M43.8623 54.4869C41.8574 52.8378 38.891 53.1214 37.2369 55.1203C36.9259 55.4962 36.6209 56.0674 36.5081 56.3345L30.3057 70.8349L43.3929 62.0667C43.8009 61.7947 44.174 61.4834 44.4976 61.0922C46.1518 59.0933 45.8673 56.136 43.8623 54.4869Z" fill="#0076C6"/>
<path fill-rule="evenodd" clip-rule="evenodd" d="M32.6112 47.4288C30.0306 47.1184 27.6863 48.9523 27.3749 51.5249C27.3418 51.7979 27.3369 52.0659 27.3516 52.3308H28.8633C29.2315 52.3308 29.8864 52.3074 30.0724 52.7348C29.0773 53.3623 27.656 53.8987 27.8382 55.5461L29.9901 68.8965L36.3212 54.0542C36.509 53.6152 36.6593 53.1489 36.7198 52.6492C37.0313 50.0766 35.1918 47.7392 32.6112 47.4288Z" fill="#634EC6"/>
<path fill-rule="evenodd" clip-rule="evenodd" d="M25.9925 52.9393C26.0666 52.4771 26.0942 52.0087 26.0356 51.525C25.7243 48.9523 23.3798 47.1184 20.7993 47.4288C18.2187 47.7393 16.3792 50.0766 16.6906 52.6493C16.7511 53.1489 16.9016 53.6152 17.0892 54.0542L23.4204 68.8966L25.9925 52.9393Z" fill="#C92029"/>
<path fill-rule="evenodd" clip-rule="evenodd" d="M9.52737 54.4931C7.52791 56.1489 7.25351 59.1072 8.91436 61.1005C9.22671 61.4754 9.73259 61.8806 9.97477 62.0411L23.1055 70.8234L16.9088 56.3682C16.717 55.9178 16.4799 55.4942 16.1549 55.1042C14.494 53.1109 11.5268 52.8373 9.52737 54.4931Z" fill="#F26F21"/>
<path fill-rule="evenodd" clip-rule="evenodd" d="M24.105 72.8149L11.3121 64.2052C10.9256 63.9449 10.4997 63.7333 10.0323 63.5901C7.54685 62.8287 4.91595 64.2304 4.15608 66.721C3.39622 69.2115 4.79513 71.8477 7.28062 72.6091C7.7737 72.7601 8.2734 72.8143 8.76129 72.8149H24.105Z" fill="#F6B119"/>
</svg>
