<svg width="201" height="91" viewBox="0 0 201 91" fill="none" xmlns="http://www.w3.org/2000/svg">
<path d="M27.7824 20.2245C23.7305 20.1742 19.662 21.149 16.1163 23.1087C14.0602 24.7014 12.403 27.0191 12.1295 29.654C11.9861 30.8343 12.2532 32.0865 12.9967 33.0365C15.4498 30.1384 18.6804 27.8801 22.3006 26.6756C26.8958 25.1202 32.0516 25.2688 36.5409 27.1073C41.178 28.9764 45.0575 32.5864 47.2967 37.0311C49.5402 41.4123 50.155 46.5782 49.0586 51.3696C48.2908 54.7635 46.6668 57.9681 44.3615 60.5832C43.8563 61.079 44.0362 61.8606 43.8906 62.4903C48.4969 58.1464 51.3035 51.9876 51.5307 45.6758C51.7998 39.8774 49.9388 34.0075 46.3274 29.4421C42.7735 24.8854 37.5244 21.652 31.8085 20.6208C30.481 20.3751 29.1331 20.2413 27.7824 20.2245ZM14.4446 23.2382C13.5843 23.5321 12.8006 24.0085 12.0902 24.5723C9.72312 26.4635 7.90597 29.1657 7.45593 32.1889C6.93972 35.5345 7.97962 38.981 9.89668 41.7321C12.2572 45.1634 15.8444 47.5817 19.6675 49.1525C24.2341 51.0261 29.1929 51.7767 34.108 51.9346L27.2095 42.7602C24.2071 42.6747 21.2996 41.7438 18.5531 40.5942C15.8044 39.3766 13.0847 37.7916 11.2426 35.3674C10.0139 33.7636 9.43566 31.6245 9.96732 29.65C10.6247 27.0525 12.521 25.0108 14.4446 23.2382ZM103.442 24.6704L88.8051 63.899L97.4105 63.8755L100.424 55.168H114.876L117.808 63.899H126.656L112.188 24.6744C112.188 24.6744 106.358 24.6704 103.442 24.6704ZM130.004 24.6704V63.899C130.004 63.899 142.752 63.899 149.125 63.899C152.45 63.8244 155.896 63.0278 158.563 60.9678C160.658 59.3487 162.045 56.8698 162.33 54.2459C162.694 51.2534 162.161 48.0065 160.211 45.613C158.989 44.097 157.207 43.1387 155.361 42.5837C157.126 41.7105 158.766 40.4227 159.677 38.6479C160.683 36.6668 160.74 34.3494 160.427 32.1928C160.1 29.9309 158.833 27.7719 156.852 26.5697C154.423 25.0603 151.478 24.749 148.678 24.6744C142.453 24.6612 130.004 24.6704 130.004 24.6704ZM168.169 24.6704V63.899H176.154L176.17 37.553L192.345 63.899L200.879 63.8872L200.872 24.6744L192.89 24.6704L192.874 51.0596L176.641 24.6704C173.817 24.6704 170.992 24.6682 168.169 24.6704ZM73.4268 24.6822C72.9562 24.6978 72.4872 24.7325 72.022 24.7882C68.896 25.148 65.8732 26.6696 63.9032 29.1399C61.8868 31.6168 60.9964 34.8252 60.8817 37.969L68.2118 37.9729C68.203 36.31 68.5449 34.5877 69.542 33.2209C71.2054 30.8208 74.8844 30.5077 77.2449 32.028C79.9186 33.5593 80.2843 38.0317 77.6569 39.778C75.8347 41.046 73.4948 41.1221 71.3549 40.9905V46.492C73.2102 46.5425 75.132 46.4369 76.9035 47.0885C78.3838 47.5865 79.638 48.8358 79.9446 50.3846C80.3263 52.2692 80.1755 54.4104 78.9401 55.9725C76.6789 58.8223 71.8154 59.0357 69.338 56.357C67.9151 54.8213 67.4021 52.6891 67.2896 50.6554H59.9595C59.8823 54.0032 60.7485 57.4807 62.9457 60.0849C65.079 62.6846 68.3747 64.0963 71.6728 64.4758C75.5356 64.9453 79.648 64.283 82.9151 62.0979C85.7168 60.2506 87.6696 57.1637 88.0556 53.8378C88.3887 51.3368 88.0384 48.6289 86.5096 46.5469C85.3161 44.8116 83.3773 43.7198 81.3455 43.2547C82.6868 42.8203 83.9972 42.1386 84.8929 41.0219C86.5672 38.9684 87.0236 36.1539 86.6155 33.5937C86.225 31.1278 84.673 28.9698 82.7229 27.4604C80.0919 25.4544 76.7212 24.5731 73.4268 24.6822ZM138.527 31.3923C141.322 31.3945 144.117 31.3853 146.912 31.3962C148.441 31.4511 150.131 31.6965 151.256 32.8285C152.253 33.8245 152.442 35.324 152.296 36.6623C152.192 37.6824 151.79 38.7283 150.958 39.3777C149.897 40.2311 148.499 40.541 147.159 40.5432C144.283 40.5541 141.403 40.5449 138.527 40.5471V31.3923ZM107.735 34.2647C109.4 39.0781 111.01 43.9144 112.651 48.7365C109.316 48.7344 105.981 48.7365 102.645 48.7365C104.344 43.9122 106.007 39.0759 107.735 34.2647ZM138.53 46.4331C141.696 46.4397 144.864 46.4208 148.035 46.4449C149.687 46.4756 151.441 46.9096 152.645 48.1009C153.839 49.3843 154.008 51.2684 153.854 52.9313C153.733 54.3201 152.935 55.6596 151.684 56.3178C150.371 57.0461 148.829 57.1841 147.356 57.1928C144.413 57.195 141.469 57.195 138.527 57.1928L138.53 46.4331Z" fill="#008CC6"/>
<path d="M4.76312 32.2096C5.60584 30.268 6.90079 28.4932 8.62814 27.2383C7.07728 29.2676 6.04926 31.716 5.90145 34.2718C5.63672 38.1265 7.08831 41.9789 9.55468 44.9253C12.3123 48.249 16.0405 50.6535 19.9827 52.3647C24.8383 54.4291 30.1681 55.5787 35.4626 55.186L39.8483 60.9866L33.5765 65.5411C26.5766 64.6811 19.6231 62.3929 13.9492 58.1324C9.27672 54.6441 5.50436 49.7518 4.01968 44.074C2.98725 40.1799 3.13726 35.9238 4.76312 32.2096Z" fill="#0AB4EB"/>
<path d="M0.883415 43.255C0.965039 40.1638 1.61803 36.9805 3.31229 34.3457C2.25338 37.5597 1.95777 41.0348 2.69018 44.352C3.91895 50.1416 7.54792 55.1568 11.9203 59.0487C17.2413 63.7173 23.8198 67.0958 30.8593 68.2037L24.314 72.1198C18.0554 70.1848 12.2137 66.679 7.94501 61.6901C3.56157 56.6069 0.766493 50.0056 0.883415 43.255Z" fill="#85CEF2"/>
</svg>
