<svg width="201" height="91" viewBox="0 0 201 91" fill="none" xmlns="http://www.w3.org/2000/svg">
<path d="M51.4267 70.5633C51.4267 70.5633 28.7954 51.0345 59.3708 25.4007C73.1198 12.7527 104.784 1.99373 127.665 4.25812C145.893 7.74852 152.573 13.691 152.573 13.691C152.573 13.691 170.288 26.339 153.024 49.9211C151.297 55.2005 129.867 69.3873 129.867 69.3873L51.4267 70.5633Z" fill="url(#paint0_radial_2048_37876)"/>
<path d="M159.93 34.5457C159.93 34.5457 101.681 31.9561 41.8442 54.4623C40.4055 58.4656 49.9509 73.2904 55.2428 75.9551C69.93 75.6924 129.042 77.1061 138.587 66.9101C149.083 55.9135 161.206 45.2671 159.93 34.5457Z" fill="url(#paint1_radial_2048_37876)"/>
<path fill-rule="evenodd" clip-rule="evenodd" d="M164.395 24.2882C164.15 23.071 163.786 21.8809 163.307 20.7352C162.838 19.5878 162.265 18.4864 161.593 17.445C160.936 16.3742 160.177 15.3688 159.328 14.4425C158.466 13.4704 157.529 12.5669 156.526 11.7403C155.475 10.8813 154.372 10.0874 153.223 9.36329C152.006 8.60502 150.744 7.91991 149.445 7.31158C148.107 6.68606 146.705 6.11058 145.217 5.58515C143.728 5.05971 142.202 4.62184 140.588 4.23402C138.974 3.8462 137.323 3.4834 135.584 3.20817C133.845 2.93294 132.093 2.73277 130.242 2.57014C128.39 2.4075 126.539 2.34495 124.612 2.31993C122.685 2.29491 120.696 2.35746 118.695 2.47005C116.693 2.58265 114.616 2.75779 112.527 3.02051C110.438 3.28323 108.298 3.58348 106.147 3.98381C103.995 4.38415 101.818 4.84703 99.5912 5.37247L99.5287 5.39749C97.3519 5.93544 95.1876 6.52343 93.0608 7.16146C90.934 7.79949 88.8323 8.52509 86.7556 9.28823C84.6788 10.0514 82.6397 10.8645 80.663 11.7278C78.6864 12.591 76.7222 13.4917 74.8206 14.43C72.9191 15.3683 71.0675 16.3941 69.2785 17.4075C67.4895 18.4208 65.7381 19.5092 64.0617 20.6101C62.3853 21.7111 60.759 22.8495 59.2202 24.0255C57.6814 25.2015 56.1676 26.3649 54.7414 27.6035C53.3153 28.842 51.9641 30.0555 50.7131 31.3191C49.4621 32.5826 48.2235 33.8712 47.1226 35.1723C46.0191 36.4297 44.9834 37.7452 44.02 39.113C43.0896 40.4001 42.2293 41.7365 41.4429 43.1164C40.6749 44.4233 39.9897 45.7771 39.3912 47.1697C38.8178 48.4814 38.3371 49.8317 37.9525 51.2106C37.5641 52.5291 37.2796 53.876 37.1018 55.2389C36.9213 56.5694 36.8585 57.9133 36.9141 59.2548C36.9437 60.5456 37.0902 61.8311 37.352 63.0955C37.6201 64.3068 37.9841 65.4948 38.4404 66.6484C38.9112 67.7987 39.4849 68.904 40.1543 69.9512C40.8343 71.0023 41.5912 72.0017 42.4187 72.9412C43.2912 73.8959 44.2275 74.7904 45.221 75.6184C46.2724 76.4774 47.3754 77.2712 48.5238 77.9954C49.7499 78.7537 51.0199 79.4388 52.3269 80.0471C53.6614 80.6726 55.0625 81.2481 56.5304 81.7735C58.0067 82.2739 59.558 82.7368 61.1593 83.1372C62.7606 83.5375 64.4495 83.8753 66.1634 84.1505C67.8774 84.4257 69.6538 84.6259 71.5054 84.7885C73.3569 84.9512 75.2085 85.0137 77.1601 85.0387C79.1117 85.0638 81.0508 85.0012 83.0775 84.8886C85.1042 84.776 87.1559 84.6009 89.2326 84.3382C91.3094 84.0754 93.4486 83.7752 95.6004 83.3749C97.7522 82.9745 99.929 82.5116 102.131 81.9862C102.856 81.8111 103.582 81.6359 104.283 81.4357C105.759 81.0604 107.21 80.6476 108.661 80.2097C110.813 79.5467 112.915 78.8336 114.992 78.0704C117.068 77.3073 119.095 76.4941 121.109 75.6309C123.123 74.7677 125.05 73.8669 126.926 72.9287C128.803 71.9904 130.68 70.9895 132.469 69.9512C134.258 68.9128 136.009 67.8494 137.685 66.7735C139.362 65.6977 140.988 64.5342 142.552 63.3582C144.116 62.1822 145.605 61.0062 147.006 59.7802C148.407 58.5542 149.783 57.3157 151.047 56.0521C152.31 54.7886 153.524 53.5125 154.65 52.2114C155.775 50.9103 156.789 49.5968 157.74 48.2707C158.69 46.9445 159.554 45.6184 160.329 44.2798C161.072 42.9676 161.748 41.6189 162.356 40.239C162.93 38.912 163.419 37.5498 163.82 36.1606C164.201 34.8404 164.486 33.494 164.67 32.1322C164.832 30.8043 164.895 29.4662 164.858 28.1289C164.819 26.8374 164.664 25.552 164.395 24.2882ZM158.665 34.1464C158.496 35.3433 158.241 36.5265 157.902 37.6868C157.55 38.9036 157.116 40.0949 156.601 41.2523C156.069 42.46 155.463 43.634 154.787 44.7677C154.087 45.9632 153.323 47.12 152.498 48.2331C151.647 49.3841 150.721 50.51 149.733 51.636C148.745 52.7619 147.656 53.8503 146.543 54.9137C145.429 55.9771 144.191 57.0404 142.94 58.0913C141.689 59.1422 140.338 60.1305 138.961 61.1063C137.585 62.0821 136.134 63.0454 134.62 63.9587C133.107 64.872 131.58 65.7727 129.979 66.6359C128.378 67.4991 126.751 68.2748 125.05 69.0629C123.349 69.8511 121.635 70.5642 119.846 71.2648C118.057 71.9654 116.268 72.6034 114.416 73.2164C112.565 73.8294 110.688 74.3549 108.774 74.8678C107.198 75.2931 105.584 75.681 103.945 76.0187L102.957 76.2439C100.992 76.6317 99.0408 76.9695 97.1392 77.2448C95.2376 77.52 93.336 77.7327 91.472 77.8703C89.6079 78.0079 87.7689 78.108 85.9799 78.1455C84.1909 78.183 82.427 78.1455 80.7005 78.0579C78.9741 77.9704 77.3102 77.8327 75.6839 77.6326C74.0575 77.4324 72.4562 77.1822 70.9174 76.8945C69.3786 76.6067 67.9024 76.2314 66.4637 75.8186C65.025 75.4057 63.6614 74.9428 62.3603 74.4549C61.0592 73.967 59.7831 73.3665 58.5821 72.766C57.4192 72.1986 56.295 71.555 55.2168 70.8394C54.1892 70.1577 53.2071 69.4096 52.2769 68.6001C51.3789 67.8416 50.5423 67.0133 49.7748 66.123C49.0335 65.2558 48.3562 64.336 47.7481 63.3707C47.1687 62.4244 46.6666 61.4329 46.2469 60.4057C45.387 58.2933 44.9166 56.0427 44.8582 53.7627C44.8083 52.5835 44.8712 51.4021 45.0459 50.2348C45.2076 49.0263 45.4543 47.8307 45.784 46.6568C46.1456 45.4514 46.5801 44.2691 47.0851 43.1164C47.6225 41.9111 48.2281 40.7373 48.8991 39.6009C49.6079 38.4011 50.3804 37.2402 51.2135 36.123C52.0517 34.9971 52.965 33.8587 53.9783 32.7452C54.9917 31.6318 56.03 30.5184 57.1685 29.4425C58.3069 28.3666 59.4954 27.3157 60.7464 26.2899C61.9975 25.264 63.3486 24.2507 64.7373 23.2498C66.1259 22.249 67.5521 21.3232 69.0659 20.41C70.5796 19.4967 72.1059 18.6085 73.7072 17.7453C75.3086 16.882 76.9599 16.0689 78.6238 15.2932C80.2877 14.5176 82.0642 13.7795 83.8406 13.0914C85.6171 12.4033 87.4186 11.7403 89.2577 11.1398C91.0967 10.5393 92.9732 9.9763 94.8873 9.46337C96.4636 9.06304 98.0775 8.67522 99.7164 8.31241L100.705 8.11225C102.669 7.71191 104.62 7.38664 106.547 7.11142C108.474 6.83619 110.363 6.62351 112.214 6.46087C114.066 6.29824 115.905 6.23569 117.694 6.21067C119.483 6.18564 121.259 6.18565 122.986 6.29824C124.712 6.41083 126.376 6.49841 128.015 6.69857C129.654 6.89874 131.23 7.14895 132.769 7.46171C134.308 7.77447 135.784 8.12476 137.21 8.52509C138.636 8.92542 140.025 9.38831 141.351 9.90124C142.677 10.4142 143.903 10.9646 145.104 11.5651C146.26 12.1636 147.384 12.8235 148.469 13.5418C149.501 14.214 150.488 14.9537 151.422 15.7561C152.307 16.533 153.139 17.3689 153.911 18.2582C154.662 19.1133 155.34 20.0297 155.938 20.998C157.108 22.904 157.95 24.9932 158.428 27.1781C158.656 28.308 158.794 29.4542 158.841 30.606C158.875 31.7889 158.817 32.9727 158.665 34.1464Z" fill="url(#paint2_linear_2048_37876)"/>
<path d="M77.336 85.1009H77.1608C75.3468 85.0759 73.4953 85.0009 71.4936 84.8507C69.4919 84.7006 67.7905 84.4629 66.1517 84.2127C64.5128 83.9625 62.8114 83.5997 61.135 83.1994C59.4586 82.799 57.9573 82.3236 56.5061 81.8232C55.0549 81.3228 53.6287 80.7223 52.3026 80.0968C50.9933 79.493 49.7231 78.8077 48.4995 78.0451C47.3397 77.3273 46.2319 76.5289 45.1842 75.6556C44.1854 74.8291 43.2449 73.9345 42.3694 72.9784C41.5408 72.0397 40.7839 71.0403 40.105 69.9884C39.4326 68.9385 38.8589 67.8287 38.3911 66.6731C37.931 65.5154 37.5629 64.3232 37.2902 63.1076C37.0346 61.8381 36.8881 60.549 36.8523 59.2544C36.7919 57.9129 36.8547 56.5687 37.0399 55.2386C37.215 53.8711 37.4995 52.5198 37.8907 51.1977C38.2843 49.816 38.7691 48.4619 39.3419 47.1444C39.9353 45.7493 40.6207 44.3952 41.3936 43.091C42.1771 41.7054 43.0375 40.3647 43.9707 39.0751C44.909 37.749 45.9599 36.4229 47.0733 35.1219C48.1867 33.8208 49.2501 32.7074 50.6638 31.2812C52.0775 29.855 53.291 28.7541 54.7046 27.5531C56.1183 26.3521 57.6321 25.126 59.1834 23.9751C60.7347 22.8241 62.2609 21.7107 64.0249 20.5597C65.5637 19.5464 67.2776 18.508 69.2417 17.3571C71.2059 16.2061 72.9073 15.3304 74.7838 14.3796C76.6604 13.4288 78.7246 12.4905 80.6387 11.6648C82.753 10.7516 84.7421 9.95092 86.7313 9.22532C88.9581 8.41214 91.0223 7.72407 93.049 7.09855C95.3259 6.42299 97.4402 5.84751 99.5169 5.33458H99.567C101.794 4.79663 104.008 4.32124 106.135 3.93342C108.262 3.54559 110.288 3.23283 112.528 2.97011C114.529 2.71991 116.544 2.54476 118.695 2.41966C120.584 2.31957 122.574 2.26953 124.613 2.26953C126.439 2.29455 128.341 2.38212 130.255 2.51974C132.169 2.65735 133.958 2.90756 135.597 3.17028C137.236 3.433 138.95 3.77078 140.614 4.19613C142.277 4.62149 143.616 4.9968 145.242 5.54726C146.869 6.09772 148.107 6.63566 149.471 7.27369C150.772 7.87698 152.034 8.56226 153.249 9.3254C154.409 10.0431 155.517 10.8416 156.564 11.7149C157.574 12.5383 158.515 13.442 159.379 14.4171C160.228 15.3507 160.99 16.3599 161.656 17.4321C162.325 18.4734 162.894 19.575 163.358 20.7224C163.84 21.872 164.209 23.0662 164.458 24.2878C164.723 25.5566 164.878 26.8457 164.921 28.1411C164.958 29.4828 164.891 30.8254 164.721 32.1569C164.539 33.5221 164.258 34.8725 163.883 36.1978C163.479 37.5876 162.986 38.9499 162.407 40.2761C161.799 41.6561 161.123 43.0048 160.38 44.317C159.586 45.6947 158.721 47.0309 157.79 48.3203C156.877 49.5964 155.839 50.9225 154.7 52.2611C153.562 53.5997 152.336 54.8883 151.085 56.1143C149.834 57.3403 148.458 58.6414 147.044 59.8424C145.63 61.0434 144.192 62.2319 142.59 63.4204C140.989 64.6089 139.338 65.7849 137.724 66.8357C135.747 68.0993 134.083 69.1126 132.507 70.0134C130.931 70.9141 129.029 71.9525 126.965 73.0034C125.163 73.8916 123.199 74.8049 121.135 75.7056C119.071 76.6064 116.956 77.4321 115.017 78.1451C112.765 78.9583 110.689 79.6589 108.687 80.2719C107.011 80.7848 105.622 81.1727 104.308 81.5105C103.595 81.7106 102.857 81.8858 102.144 82.0609C99.9673 82.5864 97.7655 83.0492 95.6137 83.4496C93.4619 83.8499 91.4477 84.1501 89.2459 84.4129C87.2567 84.6631 85.1925 84.8507 83.0782 84.9633C81.2267 85.0509 79.3501 85.1009 77.336 85.1009ZM124.438 2.38212C122.461 2.38212 120.534 2.43217 118.695 2.53225C116.556 2.64484 114.542 2.8325 112.54 3.08271C110.301 3.34543 108.224 3.65819 106.16 4.0335C104.096 4.40881 101.819 4.90923 99.6045 5.43466L99.5544 5.45968C97.4777 5.9601 95.3635 6.53558 93.0741 7.21114C91.0599 7.83666 88.9957 8.53724 86.7688 9.35042C84.7922 10.076 82.7905 10.8642 80.6888 11.7774C78.587 12.6907 76.8606 13.4914 74.8464 14.4797C72.8322 15.468 71.1058 16.4438 69.3043 17.4697C67.5028 18.4955 65.6387 19.659 64.1 20.6598C62.336 21.8108 60.7096 22.9617 59.2584 24.0752C57.8072 25.1886 56.2059 26.4271 54.7922 27.6406C53.3785 28.8541 52.0149 30.0927 50.7514 31.3687C49.4878 32.6448 48.1617 34.046 47.1734 35.2094C46.1851 36.3729 45.0091 37.8241 44.0583 39.1377C43.1372 40.4303 42.2853 41.7707 41.5062 43.1535C40.7334 44.4535 40.048 45.8034 39.4545 47.1944C38.8817 48.5077 38.3969 49.8576 38.0032 51.2353C37.6206 52.5502 37.3404 53.8929 37.1651 55.2511C36.9821 56.5772 36.9151 57.9167 36.9649 59.2544C36.9985 60.5415 37.1493 61.8229 37.4153 63.0826C37.6838 64.2897 38.0478 65.4736 38.5037 66.6231C38.9697 67.7692 39.5392 68.8705 40.2051 69.9133C40.884 70.9652 41.6409 71.9647 42.4695 72.9033C43.3378 73.8582 44.2744 74.7488 45.2718 75.568C46.3111 76.437 47.4106 77.2313 48.562 77.945C49.7828 78.7051 51.0487 79.3902 52.3527 79.9967C53.6788 80.6097 55.0925 81.1852 56.5437 81.7106C57.9949 82.2361 59.5462 82.6614 61.1725 83.0868C62.7989 83.5121 64.5253 83.8249 66.1767 84.0876C67.8281 84.3503 69.5545 84.5505 71.5061 84.7256C73.4577 84.9008 75.3593 84.9508 77.1608 84.9758C79.225 84.9758 81.1641 84.9258 83.0657 84.8257C85.18 84.7131 87.2442 84.5255 89.2334 84.2752C91.4227 84.0125 93.562 83.6998 95.5886 83.3245C97.6153 82.9491 99.9423 82.4487 102.119 81.9233C102.832 81.7481 103.558 81.573 104.271 81.3728C105.584 81.0476 106.973 80.6472 108.65 80.1468C110.651 79.5338 112.728 78.8332 114.98 78.02C116.906 77.307 118.908 76.5063 121.085 75.5805C123.262 74.6547 125.113 73.7665 126.902 72.8783C128.979 71.8274 130.78 70.8516 132.444 69.8883C134.108 68.925 135.684 67.9867 137.649 66.7231C139.275 65.6723 140.864 64.5588 142.515 63.3078C144.167 62.0568 145.605 60.9183 146.956 59.7298C148.307 58.5413 149.734 57.2778 150.997 56.0142C152.261 54.7507 153.424 53.5247 154.6 52.1735C155.776 50.8224 156.777 49.5088 157.69 48.2328C158.741 46.7565 159.579 45.4555 160.267 44.2545C161.017 42.9462 161.694 41.5971 162.294 40.2136C162.872 38.8923 163.361 37.534 163.758 36.1477C164.138 34.8313 164.422 33.4892 164.609 32.1319C164.768 30.8038 164.831 29.4658 164.796 28.1285C164.764 26.8406 164.609 25.5587 164.333 24.3004C164.088 23.0873 163.723 21.9014 163.245 20.7599C162.784 19.6152 162.215 18.5176 161.544 17.4822C160.886 16.4114 160.128 15.4059 159.279 14.4797C158.419 13.5089 157.482 12.6094 156.477 11.79C155.438 10.921 154.338 10.1266 153.187 9.41297C151.972 8.65727 150.715 7.97223 149.421 7.36127C148.057 6.73575 146.644 6.16027 145.205 5.64734C143.766 5.13441 142.077 4.65902 140.576 4.29622C139.075 3.93342 137.286 3.54559 135.572 3.27036C133.858 2.99513 132.194 2.80748 130.242 2.63233C128.291 2.45719 126.439 2.40715 124.613 2.38212H124.438Z" fill="url(#paint3_linear_2048_37876)"/>
<path fill-rule="evenodd" clip-rule="evenodd" d="M120.366 5.95683C119.48 5.94582 118.586 5.9522 117.691 5.96459C115.898 5.98966 114.053 6.05239 112.193 6.21578C110.337 6.37877 108.444 6.59204 106.513 6.86794C104.582 7.14371 102.626 7.46972 100.656 7.87121L99.6656 8.07182H99.6634C98.0217 8.43524 96.4055 8.82353 94.8271 9.22439H94.8257H94.824C92.9053 9.73855 91.0247 10.303 89.1818 10.9047C87.3371 11.5071 85.5313 12.1716 83.7523 12.8607C81.972 13.5502 80.1908 14.2901 78.5204 15.0688C76.8533 15.846 75.1977 16.6613 73.591 17.5274C71.9851 18.3931 70.4554 19.2835 68.9394 20.1981C67.4212 21.114 65.9891 22.0434 64.594 23.0489C63.2028 24.0515 61.8479 25.0677 60.5911 26.0983C59.3355 27.1279 58.1427 28.1826 57.0003 29.2623C55.8545 30.3451 54.8119 31.4634 53.7972 32.5783C52.7772 33.699 51.8589 34.8438 51.017 35.9747C50.1788 37.0987 49.4014 38.2669 48.6882 39.4742C48.0125 40.6186 47.4024 41.8006 46.8612 43.0145L46.861 43.0157L46.8607 43.017C46.3518 44.1788 45.9138 45.3705 45.5493 46.5854L45.5486 46.5876L45.5481 46.5896C45.2156 47.7734 44.9668 48.9789 44.8036 50.1976C44.8035 50.1988 44.8034 50.1989 44.8033 50.1996C44.8032 50.2009 44.8032 50.2008 44.8031 50.2013C44.6265 51.3828 44.563 52.5782 44.6134 53.7717C44.673 56.0799 45.1494 58.3584 46.0199 60.497H46.0201C46.4449 61.5364 46.9529 62.5398 47.5392 63.4973L47.54 63.4986L47.541 63.4998C48.1554 64.4751 48.8396 65.4047 49.5886 66.2809H49.5891H49.5893C50.3644 67.1801 51.2093 68.0166 52.1161 68.7828C52.1162 68.7829 52.1162 68.7828 52.1163 68.7828C53.0546 69.5993 54.045 70.3537 55.0815 71.0412C56.1686 71.7628 57.3022 72.4119 58.4749 72.984C59.6789 73.586 60.9616 74.1897 62.2744 74.682C63.5805 75.1718 64.9504 75.6368 66.3963 76.0518C67.8399 76.466 69.3239 76.8434 70.8727 77.133C72.4164 77.4217 74.0227 77.6728 75.6542 77.8736C77.2872 78.0746 78.957 78.2126 80.6884 78.3005C82.4198 78.3883 84.1895 78.4259 85.9853 78.3882C87.7799 78.3505 89.623 78.2502 91.4902 78.1123C93.3605 77.9742 95.2678 77.7611 97.1746 77.4851C99.0808 77.2092 101.037 76.8706 103.004 76.4821L103.008 76.4808L103.995 76.256L104 76.2548C105.642 75.9162 107.259 75.5278 108.838 75.1017H108.838C110.754 74.5883 112.635 74.0619 114.493 73.4465C116.348 72.8324 118.142 72.1927 119.935 71.4903C121.727 70.7885 123.446 70.0735 125.153 69.2827C126.856 68.4938 128.487 67.716 130.096 66.849C131.702 65.9828 133.232 65.0799 134.747 64.1658C136.267 63.249 137.723 62.2824 139.104 61.3036C140.482 60.3264 141.838 59.3345 143.098 58.2764C144.35 57.2244 145.592 56.1579 146.712 55.0882C147.829 54.0222 148.922 52.9291 149.917 51.795C150.909 50.6653 151.839 49.5341 152.695 48.3763H152.695C153.525 47.2568 154.294 46.0932 154.998 44.8908L154.999 44.8895C155.679 43.7478 156.289 42.5657 156.826 41.3495L156.826 41.3482C157.345 40.181 157.783 38.9795 158.138 37.7525H158.138C158.48 36.581 158.738 35.3866 158.908 34.1782L158.909 34.1767L158.909 34.1752C159.062 32.9887 159.121 31.7918 159.086 30.596V30.5948L159.086 30.5933C159.039 29.4286 158.899 28.2694 158.668 27.1268L158.668 27.1248L158.667 27.123C158.184 24.9113 157.332 22.7963 156.147 20.8668H156.147C155.542 19.8873 154.856 18.9601 154.097 18.095L154.096 18.0938C153.317 17.1965 152.477 16.3531 151.584 15.5692L151.583 15.568L151.582 15.5667C150.64 14.7576 149.645 14.0118 148.605 13.3339C147.512 12.6108 146.381 11.9465 145.217 11.344L145.215 11.3427L145.214 11.3414C144.007 10.7379 142.773 10.184 141.44 9.66818C140.106 9.15238 138.71 8.68713 137.276 8.28471C135.844 7.88253 134.362 7.5307 132.818 7.21692C131.272 6.90273 129.689 6.65151 128.045 6.45066C126.395 6.24911 124.726 6.16166 123.002 6.0492C122.133 5.99255 121.253 5.96416 120.366 5.95317L120.366 5.95683ZM120.36 6.44724C121.241 6.45812 122.112 6.48635 122.97 6.54228C124.698 6.65501 126.358 6.74251 127.985 6.9413C129.619 7.14078 131.188 7.38987 132.72 7.70121C134.254 8.01294 135.724 8.36194 137.144 8.76044C138.563 9.15867 139.944 9.6192 141.263 10.1293C142.581 10.6392 143.8 11.1863 144.995 11.7837C146.142 12.3778 147.257 13.0327 148.334 13.7455H148.335H148.336C149.359 14.4119 150.336 15.1452 151.262 15.9405C152.139 16.7096 152.962 17.5369 153.727 18.4172L153.727 18.4184H153.728C154.469 19.2632 155.139 20.1684 155.73 21.125C156.885 23.0065 157.715 25.0685 158.188 27.225C158.413 28.3421 158.55 29.4752 158.596 30.6139C158.596 30.6139 158.596 30.6139 158.596 30.6139C158.63 31.782 158.572 32.9511 158.423 34.1102C158.255 35.2955 158.003 36.4672 157.667 37.6163C157.318 38.8223 156.887 40.003 156.377 41.1502H156.377C155.849 42.3488 155.248 43.5138 154.577 44.6389L154.576 44.6402L154.576 44.6414C153.88 45.8293 153.121 46.9788 152.301 48.0847H152.301C151.455 49.2288 150.534 50.3495 149.549 51.4716C148.568 52.5893 147.484 53.673 146.374 54.7338C145.267 55.7909 144.032 56.8513 142.782 57.901C141.54 58.9447 140.194 59.9293 138.82 60.9038C137.448 61.8766 136.002 62.8365 134.494 63.7462C132.982 64.6587 131.459 65.5571 129.863 66.4174C128.269 67.2768 126.647 68.0504 124.947 68.8378C123.252 69.6233 121.542 70.3344 119.756 71.0338C117.972 71.7325 116.187 72.3691 114.339 72.9809C112.495 73.5916 110.623 74.1158 108.711 74.6283H108.71C107.138 75.0525 105.529 75.439 103.896 75.7757H103.893L102.906 76.0008C100.947 76.3876 99.0001 76.7243 97.1042 76.9987C95.2079 77.2732 93.312 77.4853 91.4543 77.6225C89.5933 77.7599 87.7585 77.8597 85.9751 77.8971C84.1929 77.9345 82.4347 77.8971 80.7131 77.8097C78.9917 77.7223 77.3339 77.5853 75.7141 77.386C74.093 77.1864 72.4964 76.9368 70.9626 76.65C69.4338 76.3641 67.9655 75.991 66.5317 75.5795C65.1002 75.1688 63.7428 74.708 62.4467 74.222C61.1582 73.7388 59.8895 73.142 58.6921 72.5433H58.6909H58.6899C57.5366 71.9806 56.4218 71.3424 55.3526 70.6328C54.3339 69.9569 53.3603 69.2153 52.4381 68.4127L52.4366 68.4114L52.4354 68.4102C51.5476 67.6603 50.7202 66.8413 49.9614 65.9611L49.9607 65.9599C49.2275 65.1019 48.5574 64.192 47.9559 63.2371C47.3841 62.3029 46.8885 61.3242 46.4742 60.3103C45.6255 58.2254 45.1612 56.004 45.1037 53.7536L45.1034 53.7516V53.7496C45.0542 52.586 45.1162 51.4201 45.2886 50.2682L45.2889 50.2662L45.2891 50.2645C45.4493 49.068 45.6933 47.8842 46.0197 46.722C46.3782 45.5274 46.809 44.3556 47.3094 43.2132C47.843 42.0164 48.4442 40.8511 49.1104 39.7227C49.8147 38.5305 50.5824 37.3768 51.4102 36.2667H51.4104C52.245 35.1457 53.1531 34.0136 54.1598 32.9075C55.1718 31.7956 56.2058 30.6872 57.337 29.6181C58.4714 28.546 59.6558 27.4989 60.9022 26.4769C62.1475 25.4557 63.4947 24.445 64.8809 23.446C66.2631 22.4498 67.6835 21.5278 69.1928 20.6172C70.7043 19.7053 72.2271 18.8193 73.8238 17.9585C75.4198 17.0982 77.0669 16.2871 78.7276 15.5129C80.3849 14.7403 82.1567 14.0041 83.9294 13.3175C85.7033 12.6304 87.5007 11.9689 89.3341 11.3703C91.1693 10.771 93.0416 10.2092 94.951 9.69752C96.5243 9.29799 98.1346 8.91103 99.7695 8.5491L100.754 8.34996H100.754C102.712 7.95078 104.659 7.62625 106.582 7.35157C108.504 7.07701 110.388 6.86462 112.236 6.70234C114.079 6.54047 115.912 6.47809 117.698 6.45312C118.591 6.44061 119.48 6.43439 120.36 6.44536L120.36 6.44724Z" fill="url(#paint4_linear_2048_37876)"/>
<path d="M42.0312 66.4221C42.957 59.1285 46.7477 53.7865 52.6526 48.6323C65.1004 37.6857 82.3398 33.4196 84.1663 23.0109C84.8794 19.0076 81.4515 16.6932 77.7109 16.6932C70.58 16.6932 67.4774 22.6481 66.5016 28.7032H53.4532C56.9687 10.2879 64.7376 2.80664 81.0512 2.80664C94.062 2.80664 104.208 9.1244 101.631 23.7115C99.6917 34.7457 90.4215 39.287 81.3264 44.3537C76.2847 47.1936 71.0429 49.0701 67.3398 51.3845L97.5399 50.9467L94.8752 66.4221H42.0312Z" fill="#101B26"/>
<path d="M41.5938 65.7596C42.5195 58.4535 46.3102 53.5619 52.2151 48.4077C64.6629 37.461 81.9023 33.1825 83.7413 22.7738C84.4419 18.7705 81.014 16.4686 77.2734 16.4686C70.1425 16.4686 67.0399 22.4235 66.0641 28.4786H49.4002C52.9157 10.0507 64.3001 2.58203 80.6137 2.58203C92.2859 2.58203 104.108 6.89812 101.381 22.4235C99.4294 33.4577 91.0474 37.3735 81.9523 42.4527C76.9106 45.2926 71.6688 47.1691 67.9657 49.4835L97.0149 49.1333L94.175 65.7596H41.5938Z" fill="url(#paint5_linear_2048_37876)"/>
<path d="M79.4629 1.46094C71.2749 1.46094 64.2898 3.33871 58.9118 7.5495C53.5338 11.7603 49.7804 18.2948 48.0209 27.5444L47.9655 27.8354H65.1345L65.1678 27.6292C65.6512 24.6295 66.663 21.6652 68.4124 19.4674C70.1618 17.2695 72.6316 15.8254 76.1224 15.8254C77.9486 15.8254 79.6855 16.3922 80.8652 17.4225C82.0448 18.4528 82.686 19.9287 82.3488 21.8558C81.4509 26.9363 76.7606 30.5696 70.6775 34.2978C64.5942 38.0262 57.1565 41.8353 50.9022 47.3353C44.9863 52.5227 41.1465 57.9166 40.1995 65.2779L40.1641 65.5543H40.4429H93.5058L96.2556 49.585L67.7527 49.9275C71.3834 47.7766 76.2046 45.5101 80.9206 42.842L80.9221 42.8408C85.4654 40.3099 90.0702 37.9034 93.7961 34.7308C97.5223 31.5579 100.367 27.605 101.347 22.0281C102.647 14.6693 100.453 9.4809 96.2818 6.18338C92.1106 2.88582 86.004 1.46094 79.4629 1.46094ZM79.4629 1.95135C85.9325 1.95135 91.9357 3.37263 95.9776 6.56797C100.019 9.76332 102.141 14.7146 100.864 21.9428C99.9052 27.4 97.1456 31.2346 93.4782 34.3575C89.8108 37.4803 85.2334 39.8778 80.6821 42.4132H80.6814H80.6806C75.6508 45.2589 70.4238 47.6585 66.6856 49.9745L65.9362 50.4387L95.6721 50.0812L93.0926 65.0627H40.729C41.7184 57.9807 45.4332 52.7818 51.2258 47.7026H51.226C57.4196 42.2559 64.8257 38.4584 70.9338 34.7149C77.0419 30.9714 81.8905 27.2676 82.8319 21.9396C83.1952 19.8634 82.4791 18.1803 81.1879 17.0525C79.8967 15.9248 78.0494 15.3343 76.1224 15.3343C72.4949 15.3343 69.8542 16.8678 68.0288 19.1612C66.2447 21.4027 65.2315 24.3591 64.7265 27.3443H48.5683C50.335 18.3393 54.0006 12.0168 59.2141 7.93482C64.4856 3.80744 71.3498 1.95059 79.4629 1.95059V1.95135Z" fill="url(#paint6_linear_2048_37876)"/>
<path d="M52.5403 68.625H127.165C128.825 68.6232 130.473 68.9154 132.031 69.4882C133.486 70.0486 134.832 70.8571 136.01 71.8777C137.138 72.8527 138.053 74.0493 138.699 75.3931C139.352 76.7342 139.694 78.2052 139.7 79.6967C139.696 81.1884 139.354 82.6597 138.699 84.0003C138.05 85.3423 137.135 86.5383 136.01 87.5157C134.828 88.5309 133.483 89.3388 132.031 89.9052C130.472 90.474 128.825 90.762 127.165 90.7559H52.5403C50.8805 90.7631 49.2327 90.475 47.6738 89.9052C46.2209 89.3419 44.8753 88.5337 43.6955 87.5157C42.5773 86.5314 41.6634 85.337 41.0057 84.0003C40.3573 82.6577 40.0154 81.1877 40.0049 79.6967C40.0171 78.206 40.3588 76.7363 41.0057 75.3931C41.66 74.0544 42.5744 72.8593 43.6955 71.8777C44.8753 70.8598 46.2209 70.0516 47.6738 69.4882C49.232 68.9144 50.8798 68.6221 52.5403 68.625Z" fill="url(#paint7_linear_2048_37876)"/>
<path d="M64.5248 81.0729L68.6157 72.3281H74.1829L66.6641 86.615H60.9969L60.5465 78.3206H60.4965L56.6558 86.615H50.9886L49.6875 72.3281H55.2546V81.1605H55.3047L59.6458 72.3281H64.4122L64.5248 81.0729Z" fill="white"/>
<path d="M86.1557 77.783C86.3809 76.3068 85.4426 75.4435 83.5911 75.4435C81.5269 75.4435 79.9881 76.8572 79.25 79.6095C78.712 81.6237 78.7495 83.5002 81.7395 83.5002C83.6286 83.5002 84.8046 82.4494 85.4051 81.0857H91.0598C89.5335 84.7763 85.893 86.9906 81.1641 86.9906C75.2341 86.9906 72.1691 84.1007 73.4201 79.4594C74.6711 74.818 78.8371 71.9531 83.8413 71.9531C89.3208 71.9531 92.1607 74.1174 91.6478 77.783H86.1557Z" fill="white"/>
<path d="M97.9031 80.4099C97.5778 81.8986 97.0148 83.4999 98.9915 83.4999C99.7046 83.4999 100.405 82.9119 100.643 81.761L102.757 72.3281H108.499L106.61 81.0979C105.81 84.8761 103.533 87.0779 97.6654 87.0779C93.5369 87.0779 91.2851 84.6884 92.5861 80.4099H97.9031Z" fill="white"/>
<path d="M109.087 86.615L112.152 72.3281H121.535C124.75 72.3281 127.677 73.2664 127.064 76.1063C126.752 77.57 125.213 78.4582 124.174 79.0337C125.876 79.5842 126.626 80.9353 126.301 82.4866C125.613 85.6767 121.873 86.615 118.169 86.615H109.087ZM116.193 80.6475L115.63 83.2872H118.645C119.796 83.2872 120.722 83.0495 120.947 81.9737C121.172 80.8978 119.783 80.6475 118.307 80.6475H116.193ZM117.269 75.6684L116.756 78.0454H119.671C120.596 78.0454 121.36 77.6325 121.547 76.7943C121.785 75.6809 120.521 75.6684 119.533 75.6684H117.269Z" fill="white"/>
<path d="M131.694 2.7207C147.995 2.7207 156.978 13.4922 153.299 34.3095C150.147 52.1869 140.564 67.6747 120.247 67.6747C99.9301 67.6747 95.6641 52.362 98.8417 34.3971C102.983 11.3529 117.345 2.7207 131.694 2.7207ZM134.596 35.2853C135.76 28.7048 138.249 16.6073 129.067 16.6073C120.685 16.6073 118.233 29.5055 117.182 35.4604C115.255 46.407 115.643 53.7882 122.687 53.7882C129.28 53.7882 132.745 45.7815 134.596 35.2853Z" fill="#101B26"/>
<path d="M130.28 2.93164C145.693 2.93164 154.187 13.1151 150.709 32.8065C148.32 46.3803 138.299 64.3452 119.446 64.3452C100.23 64.3452 96.2139 49.8832 99.2039 32.8816C103.132 11.1009 116.706 2.93164 130.28 2.93164ZM132.769 33.7323C133.87 27.5021 136.222 16.0551 127.54 16.0551C119.621 16.0551 117.306 28.2527 116.306 33.8949C114.492 44.241 114.854 51.2218 121.51 51.2218C127.753 51.2218 131.018 43.653 132.769 33.7323Z" fill="url(#paint8_linear_2048_37876)"/>
<path d="M40.4434 65.2226C41.3816 57.929 45.1723 51.9741 51.0647 46.8198C63.5125 35.8732 80.7519 31.6071 82.5909 21.1984C83.2915 17.1951 79.8762 14.8807 76.123 14.8807C69.0046 14.8807 65.902 21.3611 64.9262 27.4161H48.2624C51.7653 9.0008 63.1623 0.994141 79.4633 0.994141C92.4741 0.994141 103.683 6.68638 101.106 21.286C99.1672 32.3202 89.897 36.849 80.8019 41.9282C75.7602 44.7681 70.5309 47.1701 66.8153 49.4845L95.9645 49.1342L93.2998 65.2226H40.4434Z" fill="url(#paint9_linear_2048_37876)"/>
<path d="M93.3989 65.3476H40.3047L40.3297 65.21C41.2054 58.2792 44.6958 52.2242 50.9886 46.7196C55.7801 42.5036 61.3972 39.2133 66.3514 36.3109C74.3955 31.5945 81.3513 27.5161 82.4648 21.1733C82.74 19.6471 82.4022 18.4335 81.4889 17.3576C80.3505 15.994 78.3363 15.4436 76.122 15.4436C67.9402 15.4436 65.6508 23.7004 65.0378 27.441V27.5411H48.1112L48.1362 27.391C49.8501 18.4335 54.0912 11.8531 58.9827 7.562C63.8743 3.27093 71.0803 1.23173 79.4623 1.23173C87.8442 1.23173 94.6749 3.62122 98.3405 7.98735C101.243 11.4527 102.219 15.6938 101.23 21.2984C99.3913 31.7696 91.1345 36.3359 82.4022 41.1775L80.8634 42.0282C78.6616 43.2667 76.4473 44.4177 74.2955 45.5311C71.7183 46.8572 69.2788 48.1333 67.2646 49.3593L96.1011 49.009L93.3989 65.3476ZM40.5924 65.1099H93.1862L95.8134 49.2592L66.3889 49.6095L66.7517 49.3843C68.8534 48.0707 71.4431 46.7321 74.1829 45.3059C76.3347 44.205 78.549 43.054 80.7508 41.8155L82.2896 40.9648C90.9593 36.1483 99.1662 31.6195 100.993 21.2609C101.968 15.7313 101.005 11.19 98.1528 7.78719C94.5373 3.48361 87.9068 1.11914 79.4623 1.11914C71.0177 1.11914 64.2871 3.2334 59.1454 7.39936C53.7284 11.7655 50.1128 18.4586 48.3989 27.2909H64.8126C65.4506 23.4377 67.8276 14.7555 76.122 14.7555C78.4114 14.7555 80.4881 15.6062 81.6766 17.0199C82.6399 18.1583 82.9902 19.6095 82.715 21.2109C81.5765 27.6787 74.5707 31.7821 66.4765 36.5236C61.5348 39.426 55.9302 42.7037 51.1512 46.9072C44.946 52.3367 41.4932 58.2917 40.5924 65.1099Z" fill="url(#paint10_linear_2048_37876)"/>
<path d="M131.168 0.994141C147.469 0.994141 156.451 11.7656 152.773 32.5829C149.62 50.4603 140.038 65.9482 119.721 65.9482C99.4037 65.9482 95.1377 50.6354 98.3153 32.6705C102.456 9.62632 116.818 0.994141 131.168 0.994141ZM134.07 33.5587C135.234 26.9783 137.723 14.8807 128.54 14.8807C120.159 14.8807 117.706 27.7789 116.656 33.7339C114.729 44.6805 115.117 52.0616 122.16 52.0616C128.753 52.0616 132.219 44.055 134.07 33.5587Z" fill="url(#paint11_linear_2048_37876)"/>
<path d="M119.721 66.1853C111.852 66.1853 105.935 63.8959 102.131 59.3671C97.39 53.7124 95.9888 44.4672 98.0656 32.6324C100.017 21.8109 104.283 13.529 110.751 7.99939C116.318 3.25794 123.374 0.755859 131.168 0.755859C138.962 0.755859 144.98 3.19539 148.858 7.79922C153.474 13.3038 154.913 21.8859 153.024 32.6199C150.809 45.1553 143.541 66.1853 119.721 66.1853ZM131.168 1.24377C123.487 1.24377 116.543 3.70832 111.076 8.3747C104.696 13.8292 100.48 22.011 98.5535 32.7074C96.4893 44.4047 97.8654 53.5122 102.507 59.0544C106.21 63.458 112.002 65.6974 119.721 65.6974C129.104 65.6974 136.773 62.3696 142.503 55.8017C147.432 50.1595 150.809 42.3279 152.536 32.5323C154.4 21.9485 152.999 13.504 148.483 8.12449C144.704 3.62074 138.724 1.24377 131.168 1.24377ZM122.161 52.3112C120.046 52.3112 118.42 51.6482 117.307 50.3221C115.13 47.7199 114.855 42.5907 116.418 33.6958C117.344 28.4789 119.784 14.6299 128.541 14.6299C130.755 14.6299 132.469 15.3305 133.633 16.7191C136.673 20.3472 135.322 27.8909 134.433 32.8826L134.308 33.5957C132.094 46.1937 128.116 52.3112 122.161 52.3112ZM128.541 15.1178C120.184 15.1178 117.807 28.6791 116.906 33.7833C115.355 42.5156 115.605 47.5323 117.682 50.0093C118.708 51.2228 120.171 51.8233 122.161 51.8233C125.151 51.8233 127.69 50.0719 129.679 46.6315C131.431 43.604 132.832 39.2003 133.833 33.5206L133.958 32.8075C134.834 27.9034 136.147 20.4848 133.257 17.0319C132.194 15.7683 130.605 15.1178 128.541 15.1178Z" fill="url(#paint12_linear_2048_37876)"/>
<path d="M144.087 43.9473C133.099 43.9473 124.192 52.8544 124.192 63.8418C124.192 74.829 133.099 83.7361 144.087 83.7361C155.074 83.7361 163.981 74.829 163.981 63.8418C163.981 52.8544 155.074 43.9473 144.087 43.9473Z" fill="#07111E"/>
<path fill-rule="evenodd" clip-rule="evenodd" d="M138.603 55.7031V63.8495C138.603 66.8646 141.047 69.309 144.062 69.309C147.077 69.309 149.521 66.8646 149.521 63.8495C149.521 60.8343 147.077 58.39 144.062 58.39C143.23 58.3913 142.368 58.6563 141.661 59.135V55.7031H138.603ZM144.062 61.4487C145.388 61.4487 146.463 62.5238 146.463 63.85C146.463 65.1762 145.388 66.2508 144.062 66.2508C142.736 66.2508 141.661 65.1756 141.661 63.85C141.661 62.5234 142.736 61.4487 144.062 61.4487Z" fill="#F0F0F0"/>
<path fill-rule="evenodd" clip-rule="evenodd" d="M132.38 58.3887C129.365 58.3887 126.921 60.833 126.921 63.8481C126.921 66.8633 129.365 69.3076 132.38 69.3076C133.27 69.3062 134.192 68.9284 134.842 68.2999V69.2153H137.84V63.8481C137.84 60.833 135.396 58.3887 132.38 58.3887ZM132.38 61.4469C133.706 61.4469 134.781 62.522 134.781 63.8477C134.781 65.1743 133.706 66.249 132.38 66.249C131.054 66.249 129.98 65.1738 129.98 63.8477C129.98 62.5215 131.055 61.4469 132.38 61.4469Z" fill="#F0F0F0"/>
<path fill-rule="evenodd" clip-rule="evenodd" d="M155.768 58.3887C152.753 58.3887 150.309 60.833 150.309 63.8481C150.309 66.8633 152.753 69.3076 155.768 69.3076C158.5 69.3044 160.809 67.2826 161.172 64.5758H158.056C157.748 65.5464 156.84 66.2494 155.768 66.2494C154.442 66.2494 153.367 65.1743 153.367 63.8486C153.367 62.5225 154.442 61.4478 155.768 61.4474C156.84 61.4474 157.748 62.1504 158.056 63.1209H161.173C160.809 60.4132 158.5 58.3919 155.768 58.3887Z" fill="#F0F0F0"/>
<defs>
<radialGradient id="paint0_radial_2048_37876" cx="0" cy="0" r="1" gradientUnits="userSpaceOnUse" gradientTransform="translate(103.166 49.3757) scale(67.0483 67.0483)">
<stop stop-color="#4094EF"/>
<stop offset="1" stop-color="#193252"/>
</radialGradient>
<radialGradient id="paint1_radial_2048_37876" cx="0" cy="0" r="1" gradientUnits="userSpaceOnUse" gradientTransform="translate(89.9529 44.1049) scale(65.1242 65.1242)">
<stop stop-color="#4094EF"/>
<stop offset="1" stop-color="#193252"/>
</radialGradient>
<linearGradient id="paint2_linear_2048_37876" x1="109.747" y1="83.4074" x2="91.7134" y2="2.67773" gradientUnits="userSpaceOnUse">
<stop stop-color="#5A5A5A"/>
<stop offset="0.62" stop-color="#E2E2E2"/>
<stop offset="0.9" stop-color="#666666"/>
<stop offset="1" stop-color="#5F5F5F"/>
</linearGradient>
<linearGradient id="paint3_linear_2048_37876" x1="36.8273" y1="43.679" x2="164.934" y2="43.679" gradientUnits="userSpaceOnUse">
<stop stop-color="#5A5A5A"/>
<stop offset="0.7" stop-color="#E2E2E2"/>
<stop offset="1" stop-color="#666666"/>
</linearGradient>
<linearGradient id="paint4_linear_2048_37876" x1="44.602" y1="42.1748" x2="159.095" y2="42.1748" gradientUnits="userSpaceOnUse">
<stop offset="0.1" stop-color="#E2E2E2"/>
<stop offset="0.35" stop-color="#5A5A5A"/>
<stop offset="0.74" stop-color="#E2E2E2"/>
<stop offset="1" stop-color="#666666"/>
</linearGradient>
<linearGradient id="paint5_linear_2048_37876" x1="53.6813" y1="51.7992" x2="104.345" y2="20.1416" gradientUnits="userSpaceOnUse">
<stop stop-color="#92938E"/>
<stop offset="0.39" stop-color="#C9C9C7"/>
<stop offset="0.4" stop-color="white"/>
<stop offset="0.54" stop-color="white"/>
<stop offset="0.61" stop-color="#2A2A2A"/>
<stop offset="0.65" stop-color="#C6C6C4"/>
<stop offset="0.73" stop-color="#979793"/>
</linearGradient>
<linearGradient id="paint6_linear_2048_37876" x1="47.2672" y1="26.2429" x2="100.461" y2="49.9263" gradientUnits="userSpaceOnUse">
<stop stop-color="#2F3432"/>
<stop offset="0.27" stop-color="#8A8A8A"/>
<stop offset="0.72" stop-color="#FBFBFB"/>
<stop offset="1" stop-color="#C4C4C1"/>
</linearGradient>
<linearGradient id="paint7_linear_2048_37876" x1="89.7838" y1="93.1942" x2="89.9302" y2="65.889" gradientUnits="userSpaceOnUse">
<stop stop-color="#D51E25"/>
<stop offset="1" stop-color="#660A12"/>
</linearGradient>
<linearGradient id="paint8_linear_2048_37876" x1="99.2539" y1="30.9575" x2="150.478" y2="36.3419" gradientUnits="userSpaceOnUse">
<stop stop-color="#92938E"/>
<stop offset="0.39" stop-color="#C9C9C7"/>
<stop offset="0.4" stop-color="white"/>
<stop offset="0.54" stop-color="white"/>
<stop offset="0.61" stop-color="#2A2A2A"/>
<stop offset="0.65" stop-color="#C6C6C4"/>
<stop offset="0.73" stop-color="#979793"/>
</linearGradient>
<linearGradient id="paint9_linear_2048_37876" x1="40.4484" y1="33.1121" x2="101.482" y2="33.1121" gradientUnits="userSpaceOnUse">
<stop stop-color="#92938E"/>
<stop offset="1" stop-color="#DEDFDE"/>
</linearGradient>
<linearGradient id="paint10_linear_2048_37876" x1="40.3084" y1="33.2346" x2="101.604" y2="33.2346" gradientUnits="userSpaceOnUse">
<stop stop-color="#92938E"/>
<stop offset="1" stop-color="#DEDFDE"/>
</linearGradient>
<linearGradient id="paint11_linear_2048_37876" x1="97.3683" y1="33.4712" x2="153.594" y2="33.4712" gradientUnits="userSpaceOnUse">
<stop stop-color="#92938E"/>
<stop offset="1" stop-color="#DEDFDE"/>
</linearGradient>
<linearGradient id="paint12_linear_2048_37876" x1="96.1465" y1="37.0773" x2="154.835" y2="29.8713" gradientUnits="userSpaceOnUse">
<stop stop-color="#C4C4C1"/>
<stop offset="0.6" stop-color="#8A8A8A"/>
<stop offset="0.88" stop-color="#FBFBFB"/>
</linearGradient>
</defs>
</svg>
