<svg width="201" height="91" viewBox="0 0 201 91" fill="none" xmlns="http://www.w3.org/2000/svg">
<path d="M0.879883 35.0698H7.43846L13.1969 53.9454L19.4397 34.9961H24.7034L30.9461 53.9454L36.7046 35.0698H43.1264L33.6201 63.1464H28.2827L21.9979 44.934L15.713 63.1464H10.3861L0.879883 35.0698Z" fill="#002B49"/>
<path d="M44.4951 35.0703H65.6868V40.6498H50.601V46.5768H63.8971V52.1563H50.601V62.9258H44.4951V35.0703Z" fill="#002B49"/>
<path d="M76.3296 40.7235H67.834V35.0703H90.9206V40.7235H82.425V62.9364H76.2875V40.7235H76.3296Z" fill="#002B49"/>
<path d="M92.4375 35.0703H99.2066L106.502 54.6829L113.798 35.0703H120.398L109.134 63.1469H103.733L92.4375 35.0703Z" fill="#002B49"/>
<path d="M166.855 25.0391H122.819V68.9383H166.855V25.0391Z" fill="#B12028"/>
<path d="M138.821 63.391C141.274 64.6227 148.475 64.7596 148.432 54.2006L148.506 48.6527C147.422 50.2318 137.631 54.8954 132.01 47.2525C127.304 40.8308 130.22 32.9668 136.252 30.0192C137.379 29.4612 149.233 23.8396 156.749 34.0196C162.192 41.3888 160.149 54.2638 154.254 59.8117C146.601 67.0019 136.958 66.1282 133.589 62.7278C132.778 61.9909 132.294 60.9697 132.294 59.8538C132.294 57.6115 134.22 55.8218 136.642 55.8218C139.031 55.8218 140.99 57.6431 140.99 59.8538C141.032 61.3908 140.158 62.6962 138.821 63.391ZM144.506 29.3244C142.327 29.3244 140.579 30.9772 140.579 32.9774V45.7787C140.579 47.7789 142.337 49.4317 144.506 49.4317C146.674 49.4317 148.432 47.7789 148.432 45.7787V32.9668C148.443 30.9666 146.685 29.3244 144.506 29.3244Z" fill="white"/>
<path d="M200.88 46.663C200.88 57.7624 191.954 66.7323 180.94 66.7323C169.927 66.7323 161 57.7409 161 46.663C161 35.5851 169.927 26.5938 180.94 26.5938C191.932 26.5937 200.88 35.5851 200.88 46.663Z" fill="#060807"/>
<path opacity="0.8" d="M176.444 37.7148V48.4271C176.444 51.8687 179.219 54.6651 182.661 54.6651C186.103 54.6651 188.877 51.8687 188.877 48.4271C188.877 44.9854 186.103 42.189 182.661 42.189C181.628 42.189 180.488 42.7268 179.714 43.4151V37.7148H176.444ZM182.661 45.4801C184.274 45.4801 185.608 46.7923 185.608 48.4271C185.608 50.0619 184.296 51.374 182.661 51.374C181.048 51.374 179.714 50.0619 179.714 48.4271C179.714 46.7923 181.026 45.4801 182.661 45.4801Z" fill="black"/>
<path d="M180.897 66.3642C191.719 66.3642 200.493 57.5426 200.493 46.6606C200.493 35.7786 191.719 26.957 180.897 26.957C170.074 26.957 161.301 35.7786 161.301 46.6606C161.301 57.5426 170.074 66.3642 180.897 66.3642Z" fill="url(#paint0_radial_2048_37867)"/>
<path fill-rule="evenodd" clip-rule="evenodd" d="M200.493 46.6606C200.493 57.5449 191.717 66.3642 180.897 66.3642C170.077 66.3642 161.301 57.5449 161.301 46.6606C161.301 35.7763 170.077 26.957 180.897 26.957C191.717 26.9785 200.493 35.7978 200.493 46.6606Z" fill="url(#paint1_radial_2048_37867)"/>
<path d="M180.661 26.9805C171.39 26.9805 163.302 33.6487 161.731 43.0703C164.141 45.6946 166.915 47.2433 171.153 47.2433C181.93 47.2433 189.458 41.3925 189.566 29.2606C186.813 27.7548 183.801 26.9805 180.661 26.9805Z" fill="url(#paint2_radial_2048_37867)"/>
<path d="M178.208 35.9922L182.855 42.768L177.068 42.897L178.208 35.9922Z" fill="url(#paint3_linear_2048_37867)"/>
<path d="M180.661 26.9805C171.39 26.9805 163.302 33.6487 161.731 43.0703C163.259 33.7993 171.82 26.9805 180.661 26.9805Z" fill="url(#paint4_radial_2048_37867)"/>
<path d="M175.104 36.2445V46.6314C175.104 49.9793 177.809 52.6976 181.14 52.6976C184.471 52.6976 187.175 49.9793 187.175 46.6314C187.175 43.2836 184.471 40.5652 181.14 40.5652C180.143 40.5652 179.033 41.0946 178.293 41.767V36.2302L178.208 35.9727L175.104 36.2445ZM181.14 43.77C182.72 43.77 183.987 45.0576 183.987 46.6314C183.987 48.2195 182.706 49.4928 181.14 49.4928C179.56 49.4928 178.293 48.2052 178.293 46.6314C178.293 45.0576 179.56 43.77 181.14 43.77Z" fill="#030504"/>
<path d="M193.836 40.5801C190.505 40.5801 187.801 43.2984 187.801 46.6463C187.801 49.9941 190.505 52.7125 193.836 52.7125C196.626 52.7125 199.06 50.781 199.7 48.0484H199.672H196.327C195.829 48.9497 194.875 49.522 193.836 49.522C192.256 49.522 190.989 48.2344 190.989 46.6606C190.989 45.0725 192.27 43.7992 193.836 43.7992C194.889 43.7992 195.857 44.3858 196.341 45.3157L196.811 45.3443L199.7 45.3157C199.074 42.5258 196.64 40.5801 193.836 40.5801Z" fill="#030504"/>
<path d="M174.364 52.5108V46.6306C174.364 43.2828 171.66 40.5645 168.329 40.5645C164.998 40.5645 162.294 43.2828 162.294 46.6306C162.294 49.9785 164.998 52.6968 168.329 52.6968C169.326 52.6968 170.422 52.1961 171.176 51.3949V52.5108L174.151 52.7541L174.364 52.5108ZM168.329 49.4921C166.749 49.4921 165.482 48.2044 165.482 46.6306C165.482 45.0426 166.763 43.7692 168.329 43.7692C169.895 43.7692 171.176 45.0569 171.176 46.6306C171.176 48.2044 169.909 49.4921 168.329 49.4921Z" fill="#030504"/>
<path d="M194.234 40.4492C190.792 40.4492 188.018 43.2456 188.018 46.6873C188.018 50.1289 190.792 52.9468 194.234 52.9253C197.117 52.9253 199.612 50.9248 200.279 48.1069H196.794C196.278 49.0319 195.288 49.6127 194.234 49.6127C192.621 49.6127 191.287 48.3005 191.287 46.6657C191.287 45.031 192.599 43.7188 194.234 43.7188C195.31 43.7188 196.321 44.3211 196.815 45.2676H200.279C199.633 42.4712 197.117 40.4492 194.234 40.4492Z" fill="white"/>
<path fill-rule="evenodd" clip-rule="evenodd" d="M187.849 46.6879C187.849 43.1538 190.698 40.2812 194.234 40.2812C197.195 40.2812 199.78 42.358 200.442 45.2303L200.49 45.4368H196.713L196.666 45.3463C196.201 44.4566 195.248 43.888 194.234 43.888C192.692 43.888 191.455 45.1247 191.455 46.6664C191.455 48.2073 192.713 49.4447 194.234 49.4447C195.227 49.4447 196.16 48.8971 196.646 48.0254L196.695 47.939H200.491L200.442 48.1464C199.758 51.0388 197.196 53.0942 194.234 53.0945C190.697 53.1163 187.849 50.2207 187.849 46.6879ZM194.234 40.6184C190.886 40.6184 188.186 43.3385 188.186 46.6879C188.186 50.0382 190.887 52.7782 194.233 52.7573L194.234 52.7573C196.966 52.7573 199.341 50.9094 200.061 48.2761H196.891C196.332 49.2039 195.316 49.7819 194.234 49.7819C192.528 49.7819 191.118 48.3951 191.118 46.6664C191.118 44.9385 192.506 43.5508 194.234 43.5508C195.336 43.5508 196.375 44.1487 196.915 45.0996H200.062C199.361 42.4866 196.966 40.6184 194.234 40.6184Z" fill="black"/>
<path d="M174.918 36.0156V46.7278C174.918 50.1695 177.693 52.9659 181.134 52.9659C184.576 52.9659 187.351 50.1695 187.351 46.7278C187.351 43.2862 184.576 40.4898 181.134 40.4898C180.102 40.4898 178.962 41.0276 178.188 41.7159V36.0156H174.918ZM181.134 43.7809C182.748 43.7809 184.081 45.093 184.081 46.7278C184.081 48.3626 182.769 49.6748 181.134 49.6748C179.521 49.6748 178.188 48.3626 178.188 46.7278C178.209 45.093 179.521 43.7809 181.134 43.7809Z" fill="white"/>
<path fill-rule="evenodd" clip-rule="evenodd" d="M174.749 35.8477H178.356V41.3593C179.134 40.764 180.171 40.3218 181.134 40.3218C184.67 40.3218 187.519 43.1944 187.519 46.7285C187.519 50.2625 184.67 53.1351 181.134 53.1351C177.599 53.1351 174.749 50.2625 174.749 46.7285V35.8477ZM175.086 36.1848V46.7285C175.086 50.0778 177.786 52.7979 181.134 52.7979C184.482 52.7979 187.182 50.0778 187.182 46.7285C187.182 43.3791 184.482 40.659 181.134 40.659C180.153 40.659 179.051 41.1742 178.299 41.8425L178.019 42.0919V36.1848H175.086ZM178.356 46.7296C178.356 48.2699 179.614 49.5068 181.134 49.5068C182.676 49.5068 183.912 48.2701 183.912 46.7285C183.912 45.1876 182.655 43.9501 181.134 43.9501C179.616 43.9501 178.377 45.1854 178.356 46.7296ZM178.019 46.7262C178.041 45.0013 179.427 43.6129 181.134 43.6129C182.84 43.6129 184.25 44.9998 184.25 46.7285C184.25 48.4564 182.862 49.844 181.134 49.844C179.429 49.844 178.019 48.4572 178.019 46.7285L178.019 46.7262Z" fill="black"/>
<path d="M174.164 52.7512V46.7068C174.164 43.2651 171.39 40.4688 167.948 40.4688C164.506 40.4688 161.731 43.2651 161.731 46.7068C161.731 50.1485 164.506 52.9448 167.948 52.9448C168.98 52.9448 170.099 52.4286 170.895 51.6112V52.7512H174.164ZM167.948 49.6537C166.335 49.6537 165.001 48.3201 165.001 46.7068C165.001 45.072 166.313 43.7599 167.948 43.7599C169.583 43.7599 170.895 45.072 170.895 46.7068C170.873 48.3416 169.561 49.6537 167.948 49.6537Z" fill="white"/>
<path fill-rule="evenodd" clip-rule="evenodd" d="M161.562 46.7074C161.562 43.1734 164.412 40.3008 167.948 40.3008C171.483 40.3008 174.333 43.1734 174.333 46.7074V52.9204H170.726V52.0022C169.933 52.6888 168.91 53.114 167.948 53.114C164.412 53.114 161.562 50.2414 161.562 46.7074ZM167.948 40.6379C164.6 40.6379 161.9 43.3581 161.9 46.7074C161.9 50.0567 164.6 52.7769 167.948 52.7769C168.928 52.7769 170.005 52.284 170.774 51.4942L171.063 51.197V52.5833H173.996V46.7074C173.996 43.3581 171.295 40.6379 167.948 40.6379ZM167.948 43.9291C166.406 43.9291 165.169 45.1657 165.169 46.7074C165.169 48.2276 166.427 49.4858 167.948 49.4858C169.466 49.4858 170.705 48.2504 170.726 46.7063C170.725 45.1651 169.489 43.9291 167.948 43.9291ZM164.832 46.7074C164.832 44.9795 166.22 43.5919 167.948 43.5919C169.676 43.5919 171.063 44.9795 171.063 46.7074V46.7096C171.04 48.4346 169.655 49.8229 167.948 49.8229C166.241 49.8229 164.832 48.4138 164.832 46.7074Z" fill="black"/>
<defs>
<radialGradient id="paint0_radial_2048_37867" cx="0" cy="0" r="1" gradientUnits="userSpaceOnUse" gradientTransform="translate(163.993 52.7499) rotate(43.8249) scale(67.0153 22.4034)">
<stop stop-color="#17181C"/>
<stop offset="1" stop-color="#010101"/>
</radialGradient>
<radialGradient id="paint1_radial_2048_37867" cx="0" cy="0" r="1" gradientUnits="userSpaceOnUse" gradientTransform="translate(186.194 64.5111) rotate(-32.7836) scale(58.6182 59.6141)">
<stop stop-color="#4D6488"/>
<stop offset="0.1224" stop-color="#425A74"/>
<stop offset="0.2696" stop-color="#2C3E4E"/>
<stop offset="0.6272" stop-color="#141D23"/>
<stop offset="1" stop-color="#010101" stop-opacity="0"/>
</radialGradient>
<radialGradient id="paint2_radial_2048_37867" cx="0" cy="0" r="1" gradientUnits="userSpaceOnUse" gradientTransform="translate(167.171 31.9623) rotate(-26.1402) scale(68.6247 34.8345)">
<stop stop-color="#B9B9B9"/>
<stop offset="0.1596" stop-color="#B9B9B9" stop-opacity="0.98"/>
<stop offset="1" stop-color="#B3B4B4" stop-opacity="0"/>
</radialGradient>
<linearGradient id="paint3_linear_2048_37867" x1="178.798" y1="39.8243" x2="181.337" y2="39.1687" gradientUnits="userSpaceOnUse">
<stop stop-opacity="0.4847"/>
<stop offset="1" stop-opacity="0.0510204"/>
</linearGradient>
<radialGradient id="paint4_radial_2048_37867" cx="0" cy="0" r="1" gradientUnits="userSpaceOnUse" gradientTransform="translate(167.172 31.9614) rotate(-21.6693) scale(57.6097 37.6147)">
<stop stop-color="white" stop-opacity="0.8827"/>
<stop offset="1" stop-color="white" stop-opacity="0"/>
</radialGradient>
</defs>
</svg>
