<svg width="201" height="91" viewBox="0 0 201 91" fill="none" xmlns="http://www.w3.org/2000/svg">
<path d="M154.191 59.8704C154.395 58.6449 153.782 57.5215 151.842 57.5215C151.842 57.5215 137.34 57.5215 136.523 57.5215C134.991 57.5215 133.867 58.3385 133.765 59.564C133.663 59.9725 133.663 60.3811 133.663 60.3811H154.089C154.089 60.3811 154.089 60.0747 154.191 59.8704Z" fill="#A9ABAC"/>
<path d="M144.284 61.5039L143.467 67.8358H146.939L147.45 63.8528H151.841C153.067 63.8528 153.782 63.2401 153.884 62.3209C153.986 61.9124 153.986 61.5039 153.986 61.5039H144.284Z" fill="#A9ABAC"/>
<path d="M133.356 57.418H124.063L123.654 60.3797H132.948L133.356 57.418Z" fill="#A9ABAC"/>
<path d="M132.54 63.955L132.846 61.5039H123.552L122.735 67.8358H132.029L132.335 65.0784H126.616L126.718 63.955H132.54Z" fill="#A9ABAC"/>
<path d="M162.667 57.418H155.11L154.701 60.3797H164.71C164.71 60.3797 164.71 60.2775 164.812 59.9712C165.118 58.0307 163.893 57.418 162.667 57.418Z" fill="#A9ABAC"/>
<path d="M153.884 67.8358H157.356L158.071 61.5039H154.599L153.884 67.8358Z" fill="#A9ABAC"/>
<path d="M160.42 67.8358H163.892L164.709 61.5039H161.237L160.42 67.8358Z" fill="#A9ABAC"/>
<path d="M141.118 61.5039C140.505 61.5039 134.684 61.5039 133.561 61.5039C133.356 63.1379 134.173 63.955 135.297 63.955C135.91 63.955 139.995 63.955 139.995 63.955L139.893 65.1805H133.152L132.846 67.9379C132.846 67.9379 140.199 67.9379 140.505 67.9379C140.71 67.9379 142.446 67.8358 143.058 66.5082C143.263 66.0997 143.365 64.4656 143.467 64.0571C143.569 62.0145 142.241 61.5039 141.118 61.5039Z" fill="#A9ABAC"/>
<path d="M40.216 53.4355L28.8799 62.2185L134.684 53.4355H40.216Z" fill="#A9ABAC"/>
<path d="M166.65 25.6562L161.237 41.7924L152.965 25.6562L144.795 31.069L138.667 49.6562H144.999L150.31 33.4179L158.582 49.6562H165.016L172.88 25.6562H166.65Z" fill="#013CA6"/>
<path d="M92.0963 41.0775L94.7516 33.1116C95.2623 31.9882 96.3857 31.2733 97.8155 31.2733H108.539L117.015 25.6562H98.4282C97.1006 25.6562 90.5644 25.8605 88.8282 30.8648L84.9474 42.5073C83.824 46.8988 86.7857 49.6562 90.7687 49.6562H107.824L109.662 44.0392H95.4665C93.2197 44.0392 91.5857 43.2222 92.0963 41.0775Z" fill="#013CA6"/>
<path d="M76.0624 25.6562L45.0156 49.6562H54.2071L59.3135 45.7754L74.6326 41.9967L72.3858 49.6562H79.4326L86.1731 25.6562H76.0624ZM74.939 40.669H65.9518L77.5943 31.6818L74.939 40.669Z" fill="#013CA6"/>
<path d="M119.671 41.0775L122.326 33.1116C122.837 31.9882 123.96 31.2733 125.39 31.2733H136.114L144.59 25.6562H126.003C124.675 25.6562 118.139 25.8605 116.505 30.8648L112.624 42.5073C111.501 46.8988 114.462 49.6562 118.445 49.6562H135.501L137.339 44.0392H122.939C120.692 44.0392 119.058 43.2222 119.671 41.0775Z" fill="#013CA6"/>
</svg>
