<svg width="201" height="91" viewBox="0 0 201 91" fill="none" xmlns="http://www.w3.org/2000/svg">
<path d="M95.8799 65.0641C95.8799 71.2761 101.527 76.8281 107.579 76.8281C111.813 76.8281 114.571 75.6944 117.88 72.6583L102.91 53.8281C98.5755 56.973 95.8799 59.7218 95.8799 65.0641Z" fill="black"/>
<path d="M108.654 33.8138C110.982 32.207 112.88 30.3158 112.88 27.8094C112.88 24.4959 110.631 21.8281 106.892 21.8281C102.953 21.8281 100.88 24.4728 100.88 27.7864C100.88 30.4003 103.096 32.9067 105.624 35.8281C106.629 35.2131 108.654 33.8138 108.654 33.8138Z" fill="black"/>
<path d="M176.318 85.5443V84.8782H176.757C177.12 84.8782 177.218 84.9993 177.218 85.1961C177.218 85.3929 177.097 85.5443 176.704 85.5443H176.318ZM177.551 85.2188C177.551 84.795 177.302 84.6133 176.795 84.6133H175.992V86.7327H176.31V85.8092H176.673L177.234 86.7327H177.589L176.991 85.8017C177.066 85.8018 177.141 85.7865 177.21 85.7569C177.279 85.7273 177.341 85.6838 177.393 85.6293C177.445 85.5747 177.485 85.5102 177.511 85.4396C177.537 85.369 177.548 85.2939 177.544 85.2188" fill="black"/>
<path d="M176.704 87.2102C176.405 87.2102 176.112 87.1214 175.863 86.9551C175.614 86.7887 175.42 86.5523 175.305 86.2756C175.191 85.999 175.161 85.6946 175.219 85.401C175.278 85.1073 175.422 84.8376 175.634 84.6259C175.845 84.4142 176.115 84.27 176.409 84.2116C176.702 84.1532 177.007 84.1831 177.283 84.2977C177.56 84.4123 177.796 84.6063 177.963 84.8553C178.129 85.1042 178.218 85.3969 178.218 85.6963C178.218 86.0978 178.058 86.4829 177.775 86.7668C177.491 87.0507 177.106 87.2102 176.704 87.2102ZM176.704 83.8419C176.342 83.8434 175.989 83.9521 175.688 84.1542C175.388 84.3564 175.155 84.643 175.017 84.9779C174.88 85.3127 174.844 85.6808 174.916 86.0356C174.988 86.3904 175.163 86.7161 175.419 86.9715C175.676 87.2269 176.002 87.4007 176.357 87.4707C176.712 87.5408 177.08 87.5041 177.414 87.3652C177.749 87.2263 178.034 86.9916 178.235 86.6905C178.436 86.3894 178.543 86.0356 178.543 85.6736C178.544 85.4322 178.497 85.1929 178.405 84.9697C178.313 84.7465 178.178 84.5438 178.006 84.3734C177.835 84.203 177.632 84.0683 177.409 83.9771C177.185 83.8858 176.946 83.8399 176.704 83.8419Z" fill="black"/>
<path d="M136.88 73.2328L148.299 87.8281H172.88V68.8281H140.674C138.134 71.8988 137.789 72.1356 136.88 73.2407" fill="black"/>
<path d="M133.951 41.225V28.9593H172.88V11.8281H117.687C123.466 14.8548 126.816 20.6888 126.816 27.8091C126.816 33.7869 123.818 37.8048 119.201 41.2855C119.201 41.2855 115.754 43.9944 113.88 45.3035L128.315 62.8281L134.011 56.699H170.534V41.225H133.951Z" fill="black"/>
<path d="M63.6852 56.0753L71.7306 31.7553L79.5491 56.0753H63.6852ZM96.8799 11.8281H58.8005L28.8799 87.8281H54.188L59.0727 73.7301H82.7551C81.8693 70.9035 81.4354 67.9535 81.4697 64.9901C81.4697 55.1101 88.4186 48.6349 94.9442 44.1585C91.9196 40.5637 87.4735 35.1069 87.4735 27.6893C87.4735 20.5757 90.8534 14.8453 96.8799 11.8509" fill="black"/>
</svg>
