<svg width="201" height="91" viewBox="0 0 201 91" fill="none" xmlns="http://www.w3.org/2000/svg">
<path d="M55.304 13.2112L36.1055 58.8342H52.2914L54.6093 52.8479H70.5804L72.9156 58.8342H78.2129V32.4069L70.1667 13.2112H55.304ZM62.5804 31.0043L66.7938 42.1135H58.4002L62.5804 31.0043Z" fill="#A62029"/>
<path d="M80.2832 47.8936V2.06445H95.4558V18.0645H109.392V2.06445H124.461V47.8936L109.392 42.1019V31.0691H95.4558V42.1135L80.2832 47.8936Z" fill="#A62029"/>
<path d="M80.2832 58.8347V49.8473L102.372 41.2852L124.461 49.8343V58.8333L102.421 50.3951L80.2832 58.8347Z" fill="#203165"/>
<path d="M126.526 50.5777V20.443C131.093 15.4685 137.06 12.5684 144.862 12.5684C154.375 12.5684 161.232 16.9013 165.311 24.2887L152.814 31.6314C150.397 27.7021 148.668 26.1842 144.598 26.1842C139.956 26.1842 136.093 29.8123 136.093 36.1057C136.093 42.6022 139.811 46.2448 144.652 46.2448C148.906 46.2448 151.139 43.7698 153.157 40.5799L165.728 47.6069C161.731 54.3024 154.917 59.8592 144.573 59.8592C135.241 59.8592 128.929 55.0058 126.529 50.5749L126.526 50.5777Z" fill="#A62029"/>
<path d="M172.88 66.2656H28.8799V68.3298H172.88V66.2656Z" fill="#203165"/>
<path d="M42.2447 74.0645L38.7607 82.2475H40.897L41.6076 80.5048H44.6505L45.3611 82.2475H47.5463L44.058 74.0645H42.2447ZM42.3643 78.6367L43.1283 76.7715L43.8923 78.6367H42.3643Z" fill="#203165"/>
<path d="M52.874 77.242L50.9323 74.1169H48.8105V82.2467H50.8459V77.6283L52.7327 80.4924H52.972L54.8805 77.5951V82.2467H56.9388V74.1169H54.817L52.874 77.242Z" fill="#203165"/>
<path d="M61.3523 79.0942H65.015V77.2132H61.3523V75.998H65.5138V74.1169H59.2939V82.2467H65.57V80.3656H61.3523V79.0942Z" fill="#203165"/>
<path d="M74.0352 78.5329C74.3819 78.0554 74.5576 77.475 74.5339 76.8854V76.8637C74.5339 76.0061 74.2456 75.3257 73.7008 74.8457C73.1559 74.3657 72.3891 74.125 71.4233 74.125H67.6914V82.2547H69.7613V79.761H70.828L72.4928 82.2475H74.9332L72.9685 79.3733C73.3873 79.1843 73.7534 78.8958 74.0352 78.5329ZM72.4496 76.9473V76.9704C72.4557 77.0949 72.4339 77.2192 72.3857 77.3342C72.3376 77.4491 72.2644 77.5519 72.1714 77.6349C71.9811 77.8036 71.6943 77.8886 71.3195 77.8886H69.7613V76.0147H71.2792C71.5897 75.9954 71.8979 76.0795 72.1556 76.254C72.2554 76.3381 72.3337 76.445 72.3836 76.5657C72.4335 76.6863 72.4537 76.8172 72.4424 76.9473H72.4496Z" fill="#203165"/>
<path d="M78.6495 74.1169H76.5811V82.2467H78.6495V74.1169Z" fill="#203165"/>
<path d="M86.5259 79.5824C86.2626 79.8328 85.9674 80.0475 85.6481 80.2209C85.3242 80.3794 84.9663 80.4561 84.6059 80.4443C84.3246 80.4479 84.0459 80.3907 83.7887 80.2768C83.5315 80.1629 83.3019 79.9948 83.1155 79.7842C82.9284 79.5724 82.7818 79.3281 82.683 79.0634C82.5783 78.7817 82.5255 78.4833 82.5274 78.1827V78.1611C82.5251 77.8624 82.5779 77.5658 82.683 77.2861C82.7813 77.0212 82.928 76.7768 83.1155 76.5654C83.3032 76.3582 83.5327 76.1932 83.7889 76.0811C84.045 75.9691 84.322 75.9126 84.6016 75.9153C84.9406 75.9098 85.2762 75.9834 85.5818 76.1301C85.904 76.2938 86.2023 76.5009 86.4683 76.7456L86.6052 76.8681L87.927 75.3618L87.8088 75.2436C87.6231 75.0584 87.4225 74.8887 87.2092 74.7362C86.9871 74.5784 86.7483 74.4454 86.4971 74.3398C86.2233 74.2254 85.9382 74.1399 85.6466 74.0847C85.3074 74.0204 84.9627 73.9895 84.6174 73.9925C84.0302 73.986 83.4478 74.0983 82.905 74.3225C82.4025 74.5277 81.9466 74.8322 81.5645 75.2177C81.1936 75.6027 80.9 76.0553 80.6996 76.551C80.4895 77.0677 80.3832 77.6206 80.3868 78.1784V78.2C80.383 78.761 80.4893 79.3174 80.6996 79.8375C80.8981 80.3333 81.1919 80.7853 81.5645 81.168C81.9438 81.547 82.3932 81.8485 82.8877 82.0559C83.4129 82.2741 83.9767 82.3844 84.5454 82.3802C84.9005 82.3832 85.2549 82.3504 85.6034 82.2822C86.1945 82.164 86.749 81.9065 87.2207 81.5312C87.449 81.349 87.6634 81.15 87.8621 80.9359L87.9803 80.809L86.6484 79.4642L86.5259 79.5824Z" fill="#203165"/>
<path d="M91.7004 80.5048H94.7432L95.4539 82.2475H97.6333L94.1508 74.0645H92.3375L88.8535 82.249H90.9897L91.7004 80.5048ZM92.4571 78.6309L93.2211 76.7657L93.985 78.6309H92.4571Z" fill="#203165"/>
<path d="M104.205 78.5465L100.835 74.1169H98.9883V82.2467H101.035V77.66L104.529 82.2467H106.252V74.1169H104.205V78.5465Z" fill="#203165"/>
<path d="M116.839 77.1915H114.047V74.1169H111.979V82.2467H114.047V79.1274H116.839V82.2467H118.909V74.1169H116.839V77.1915Z" fill="#203165"/>
<path d="M123.363 79.0942H127.026V77.2132H123.363V75.998H127.525V74.1169H121.305V82.2467H127.581V80.3656H123.363V79.0942Z" fill="#203165"/>
<path d="M135.907 78.5329C136.238 78.1005 136.406 77.5527 136.406 76.8854V76.8637C136.406 76.0061 136.126 75.3257 135.572 74.8457C135.019 74.3657 134.261 74.125 133.295 74.125H129.564V82.2547H131.633V79.761H132.7L134.364 82.2475H136.8L134.834 79.3733C135.255 79.1855 135.624 78.8969 135.907 78.5329ZM134.321 76.9473V76.9704C134.327 77.0949 134.305 77.2192 134.257 77.3342C134.209 77.4491 134.136 77.5519 134.043 77.6349C133.853 77.8036 133.566 77.8886 133.193 77.8886H131.634V76.0147H133.152C133.463 75.9952 133.772 76.0793 134.03 76.254C134.131 76.3378 134.209 76.4445 134.26 76.5652C134.311 76.6858 134.332 76.8169 134.321 76.9473Z" fill="#203165"/>
<path d="M145.247 75.2067C144.854 74.8256 144.392 74.5228 143.886 74.3145C142.778 73.8743 141.544 73.8743 140.436 74.3145C139.925 74.5228 139.46 74.8299 139.068 75.2182C138.686 75.6016 138.381 76.0541 138.168 76.5516C137.951 77.0675 137.841 77.6221 137.844 78.1818V78.2035C137.84 78.7622 137.948 79.3161 138.162 79.8323C138.369 80.3296 138.673 80.7802 139.058 81.157C139.45 81.538 139.912 81.8409 140.418 82.0492C141.526 82.4893 142.761 82.4893 143.869 82.0492C144.376 81.8442 144.838 81.541 145.228 81.1571C145.618 80.7732 145.928 80.3162 146.141 79.8121C146.359 79.2965 146.47 78.7418 146.467 78.1818V78.1602C146.468 77.6005 146.357 77.0461 146.141 76.5299C145.935 76.0334 145.631 75.5834 145.247 75.2067ZM144.314 78.1818V78.2035C144.315 78.4992 144.261 78.7924 144.154 79.0683C144.053 79.3338 143.903 79.5781 143.712 79.789C143.522 79.994 143.291 80.1566 143.034 80.2662C142.761 80.3831 142.467 80.4425 142.17 80.4406C141.869 80.4446 141.57 80.3836 141.295 80.2618C141.035 80.1458 140.801 79.9796 140.605 79.7728C140.41 79.566 140.257 79.3227 140.156 79.0568C140.048 78.7767 139.994 78.479 139.996 78.179V78.1573C139.994 77.8587 140.048 77.5623 140.156 77.2838C140.257 77.0181 140.407 76.7737 140.598 76.5631C140.787 76.359 141.016 76.1961 141.27 76.0845C141.547 75.9665 141.846 75.9076 142.147 75.9116C142.444 75.909 142.739 75.97 143.011 76.0903C143.272 76.2054 143.508 76.3712 143.704 76.5781C143.9 76.785 144.053 77.0288 144.154 77.2954C144.262 77.5784 144.317 77.879 144.314 78.1818Z" fill="#203165"/>
<path d="M150.226 79.0942H153.888V77.2132H150.226V75.998H154.388V74.1169H148.168V82.2467H154.444V80.3656H150.226V79.0942Z" fill="#203165"/>
<path d="M162.45 78.7964C162.331 78.5258 162.151 78.2858 161.926 78.0944C161.678 77.8875 161.4 77.7202 161.101 77.5986C160.753 77.4544 160.394 77.335 160.029 77.2411C159.702 77.1532 159.425 77.0753 159.209 77.0105C159.043 76.9632 158.883 76.8979 158.731 76.8159C158.652 76.7751 158.586 76.7138 158.538 76.6386C158.503 76.5619 158.485 76.478 158.488 76.3935V76.369C158.488 76.3018 158.504 76.2356 158.535 76.176C158.566 76.1165 158.611 76.0655 158.667 76.0274C158.858 75.9084 159.082 75.8538 159.307 75.8717C159.626 75.8744 159.942 75.9395 160.236 76.0634C160.584 76.2097 160.915 76.3919 161.225 76.6069L161.369 76.7063L162.455 75.1337L162.324 75.0299C161.913 74.702 161.451 74.4444 160.956 74.2674C160.431 74.0866 159.88 73.9969 159.325 74.0022C158.934 73.9987 158.545 74.058 158.172 74.178C157.835 74.2871 157.522 74.4609 157.251 74.6897C156.987 74.9156 156.776 75.1973 156.634 75.5147C156.492 75.8321 156.422 76.1771 156.429 76.5247V76.5463C156.419 76.9041 156.487 77.2598 156.628 77.5885C156.76 77.8712 156.958 78.1183 157.205 78.3092C157.466 78.507 157.755 78.6639 158.063 78.7748C158.417 78.9041 158.779 79.0134 159.147 79.102C159.409 79.1649 159.669 79.2409 159.924 79.3297C160.077 79.3818 160.225 79.4499 160.365 79.533C160.434 79.5731 160.492 79.6301 160.533 79.6987C160.564 79.7667 160.578 79.8406 160.576 79.915V79.938C160.579 80.0159 160.561 80.093 160.523 80.1613C160.486 80.2295 160.43 80.2864 160.363 80.3258C160.143 80.4469 159.893 80.5038 159.642 80.4901C159.245 80.4944 158.852 80.4128 158.489 80.2508C158.111 80.0755 157.756 79.8521 157.434 79.5863L157.29 79.4753L156.055 80.9542L156.183 81.0696C156.652 81.497 157.201 81.8281 157.797 82.044C158.376 82.2518 158.986 82.3586 159.601 82.3597C160.009 82.3637 160.416 82.3063 160.807 82.1896C161.156 82.0866 161.482 81.9178 161.767 81.6923C162.039 81.4713 162.257 81.1913 162.404 80.8735C162.56 80.5272 162.638 80.1507 162.632 79.7708V79.7478C162.638 79.4215 162.576 79.0976 162.45 78.7964Z" fill="#203165"/>
<path d="M86.2259 88.5571C86.0219 88.7584 85.7892 88.9284 85.5354 89.0616C85.2805 89.1832 85.0004 89.2425 84.7181 89.2345C84.475 89.2379 84.2341 89.1887 84.0118 89.0904C83.7979 88.9937 83.605 88.8561 83.4439 88.6853C83.2812 88.5076 83.1535 88.3007 83.0677 88.0756C82.9752 87.8331 82.9287 87.5755 82.9307 87.316C82.9286 87.0583 82.975 86.8026 83.0677 86.5621C83.1528 86.3375 83.2806 86.1314 83.4439 85.9553C83.7106 85.685 84.0548 85.5044 84.4287 85.4383C84.8026 85.3722 85.1878 85.4239 85.5311 85.5862C85.769 85.712 85.9887 85.8696 86.1841 86.0547L86.2792 86.1426L86.837 85.5444L86.7448 85.4551C86.6207 85.3359 86.4887 85.2251 86.3498 85.1235C86.2081 85.0197 86.0553 84.9317 85.8943 84.8612C85.7235 84.7866 85.5452 84.7306 85.3624 84.694C85.1526 84.6529 84.9391 84.6331 84.7253 84.6349C84.3622 84.6313 84.0024 84.7034 83.6687 84.8468C83.3554 84.9817 83.0722 85.1777 82.8356 85.4234C82.6008 85.672 82.4154 85.9631 82.2893 86.281C82.026 86.9553 82.026 87.704 82.2893 88.3783C82.4122 88.6945 82.5968 88.983 82.8324 89.227C83.068 89.471 83.3499 89.6657 83.6615 89.7996C83.9908 89.9404 84.3456 90.0116 84.7037 90.0086C84.9203 90.0105 85.1365 89.9877 85.348 89.9408C85.5347 89.8985 85.7163 89.8367 85.89 89.7563C86.0574 89.6772 86.2158 89.5806 86.3628 89.468C86.5099 89.3552 86.6482 89.2314 86.7765 89.0976L86.8659 89.0053L86.321 88.4691L86.2259 88.5571Z" fill="#203165"/>
<path d="M91.8054 86.915H89.2094V84.7168H88.3906V89.9247H89.2094V87.6977H91.8054V89.9247H92.6241V84.7168H91.8054V86.915Z" fill="#203165"/>
<path d="M96.5162 84.6815L94.1436 89.9197H95.0084L95.5951 88.6124H98.1205L98.6971 89.9197H99.5821L97.2095 84.6758L96.5162 84.6815ZM97.7789 87.8527H95.9237L96.8549 85.777L97.7789 87.8527Z" fill="#203165"/>
<path d="M104.531 88.4372L101.605 84.7168H100.889V89.9247H101.693V86.1107L104.697 89.9247H105.334V84.7168H104.531V88.4372Z" fill="#203165"/>
<path d="M111.002 88.4372L108.078 84.7168H107.361V89.9247H108.166V86.1107L111.168 89.9247H111.807V84.7168H111.002V88.4372Z" fill="#203165"/>
<path d="M114.378 87.6833H117.079V86.915H114.378V85.4851H117.398V84.7168H113.561V89.9247H117.432V89.1564H114.378V87.6833Z" fill="#203165"/>
<path d="M120.077 84.7168H119.26V89.9247H122.862V89.1492H120.077V84.7168Z" fill="#203165"/>
</svg>
