<svg width="201" height="91" viewBox="0 0 201 91" fill="none" xmlns="http://www.w3.org/2000/svg">
<path d="M78.7191 22.7669H88.0031V32.9931C95.4779 22.8674 105.44 20.4679 117.061 23.6463C123.342 25.3674 129.925 31.7494 131.043 36.6614C130.955 36.674 130.88 36.6991 130.805 36.6991C126.659 36.6991 122.513 36.6991 118.405 36.6991C113.192 32.0634 106.671 31.3097 101.408 34.7142C96.2317 38.0559 94.0583 45.0031 96.1186 51.6363C97.89 57.3273 103.041 60.9077 109.184 60.7192C114.975 60.5308 119.975 56.6866 121.307 51.3348H106.784V42.6162H132.664C134.222 52.2519 130.805 62.9931 120.29 68.3951C111.872 72.7167 96.3197 72.7921 88.0407 60.2795V70.2921H76.6463V49.9403L67.8649 70.3047H60.9679L52.199 50.0157V70.2418H36.0558L32.8146 61.7871H15.905L12.6889 70.179H0.879883L19.0457 22.6413H29.6739L40.8171 51.7871V22.7795H50.1638L64.4478 54.5132L78.7191 22.7669ZM29.4226 52.9303C27.7392 48.5207 26.0809 44.174 24.3598 39.6639C22.6261 44.1865 20.9553 48.5458 19.2844 52.9303H29.4226Z" fill="black"/>
<path d="M161.37 22.6309H163.832L181.131 67.0153C181.131 67.0153 192.677 37.4047 198.43 22.656H200.88L182.35 70.1937H179.913L161.37 22.6309Z" fill="black"/>
<path d="M160.428 22.6426V24.9416H145.214V70.1677H142.928V24.9667H127.727V22.6426H160.428Z" fill="black"/>
</svg>
