<svg width="201" height="91" viewBox="0 0 201 91" fill="none" xmlns="http://www.w3.org/2000/svg">
<path d="M139.876 2.67744L137.577 6.67481C149.703 9.0395 156.74 14.202 156.74 20.2421C156.74 24.2701 153.72 28.1371 148.542 28.1371C140.631 28.1371 134.814 15.7005 134.814 15.7005C133.158 15.6468 130.195 15.5778 130.195 15.5778C130.195 15.5778 121.718 4.68187 108.81 0.833984V18.5097C110.259 19.7202 111.592 21.0636 112.792 22.5224C106.966 19.0041 100.911 16.3903 90.2371 16.3903C78.6206 16.3903 64.421 21.0776 56.5298 33.9013L57.3614 35.4037C60.9602 31.3412 66.5174 28.8883 66.6975 28.8117C58.9481 35.5876 54.5062 46.8247 52.3216 54.1334L59.1014 60.9132C63.801 55.6231 69.5759 51.3973 76.0398 48.5183C82.5038 45.6392 89.5079 44.1733 96.5838 44.2186C109.473 44.2186 122.561 49.5841 131.64 58.9088L138.98 51.5847C135.094 45.0022 130.451 38.8964 125.148 33.3916C125.47 33.5372 132.07 37.3468 143.652 37.3468C154.406 37.3468 164.006 31.368 164.006 22.4381C164.006 11.7568 154.866 4.99614 139.876 2.67744ZM74.194 74.9174C71.2736 74.9174 70.0012 76.7608 70.0012 76.7608C70.0012 76.7608 69.342 74.9174 66.4063 74.9174C65.6777 74.9107 64.9575 75.0737 64.3029 75.3937C63.6483 75.7137 63.0773 76.1818 62.635 76.7608H62.5507V75.2968H58.8715V86.3576H62.5507V81.3752C62.5507 79.2865 63.2367 77.765 64.9461 77.765C66.9467 77.765 66.8853 79.8 66.8853 81.0763V86.3461H70.5569V81.3637C70.5569 79.7694 70.9402 77.7535 72.9791 77.7535C74.6156 77.7535 74.8954 79.1638 74.8954 80.8502V86.3346H78.567V79.2558C78.5516 76.5232 77.1949 74.9174 74.194 74.9174ZM32.1662 75.3006V76.7493C32.1662 76.7493 31.0739 74.9212 28.4218 74.9212C25.2714 74.9212 22.8799 77.4545 22.8799 80.8195C22.8799 84.1845 25.3366 86.7408 28.4678 86.7408C29.9203 86.7408 31.4648 86.0663 32.078 85.089H32.1662V86.3614H35.8416V75.2968L32.1662 75.3006ZM29.4834 83.6863C28.9176 83.6878 28.3641 83.5214 27.8929 83.2081C27.4217 82.8949 27.054 82.4489 26.8365 81.9266C26.6189 81.4043 26.5612 80.8292 26.6706 80.2741C26.7801 79.719 27.0518 79.2088 27.4513 78.8082C27.8509 78.4076 28.3603 78.1345 28.9151 78.0236C29.4699 77.9126 30.0452 77.9688 30.5681 78.185C31.0909 78.4012 31.5379 78.7676 31.8524 79.238C32.1669 79.7083 32.3348 80.2614 32.3348 80.8272C32.3328 81.5805 32.034 82.3027 31.5031 82.8372C30.9722 83.3717 30.252 83.6754 29.4987 83.6824L29.4834 83.6863ZM89.3096 75.3006V76.7493C89.3096 76.7493 88.2212 74.9212 85.5652 74.9212C82.4149 74.9212 80.0234 77.4545 80.0234 80.8195C80.0234 84.1845 82.48 86.7408 85.6151 86.7408C87.0638 86.7408 88.6083 86.0663 89.2215 85.089H89.3096V86.3614H93.0157V75.2968L89.3096 75.3006ZM86.6268 83.6863C86.0612 83.687 85.5081 83.52 85.0374 83.2063C84.5667 82.8926 84.1996 82.4463 83.9827 81.9239C83.7657 81.4016 83.7085 80.8266 83.8184 80.2717C83.9283 79.7169 84.2003 79.2071 84.6 78.8068C84.9997 78.4066 85.5091 78.1339 86.0638 78.0233C86.6185 77.9127 87.1936 77.9691 87.7163 78.1854C88.2389 78.4016 88.6857 78.7681 89 79.2383C89.3143 79.7086 89.4821 80.2615 89.4821 80.8272C89.4802 81.5785 89.1829 82.299 88.6545 82.8332C88.1261 83.3674 87.4088 83.6724 86.6575 83.6824L86.6268 83.6863ZM46.0017 74.9212C44.3652 74.9212 43.0353 75.4999 42.1692 76.7532H42.0848V75.3006H38.4094V86.3614H42.0848V81.3791C42.0848 79.022 42.9587 77.765 44.4879 77.765C46.017 77.765 46.4041 78.953 46.4041 80.7275V86.3614H50.0796V79.4628C50.16 76.4465 48.7727 74.9174 46.0477 74.9174L46.0017 74.9212ZM54.3605 69.1302C53.9479 69.1294 53.5442 69.2512 53.2008 69.48C52.8573 69.7088 52.5895 70.0343 52.4312 70.4155C52.2729 70.7966 52.2313 71.2161 52.3117 71.6209C52.392 72.0257 52.5906 72.3975 52.8824 72.6894C53.1743 72.9812 53.5461 73.1798 53.9509 73.2601C54.3557 73.3405 54.7752 73.2989 55.1563 73.1406C55.5375 72.9823 55.863 72.7145 56.0918 72.371C56.3206 72.0276 56.4424 71.624 56.4416 71.2113C56.4418 70.6668 56.229 70.144 55.8487 69.7544C55.4684 69.3648 54.9508 69.1394 54.4065 69.1264L54.3605 69.1302ZM52.5209 75.3006V86.3614H56.1963V75.2968L52.5209 75.3006ZM95.5874 70.9008V86.3614H99.2628V70.897L95.5874 70.9008ZM106.637 75.3006V90.8416H110.316V85.0928H110.4C111.013 86.0701 112.558 86.7446 114.01 86.7446C117.146 86.7446 119.598 84.1423 119.598 80.8233C119.598 77.5043 117.207 74.925 114.056 74.925C111.404 74.925 110.316 76.7532 110.316 76.7532V75.3045L106.637 75.3006ZM110.128 80.8272C110.128 80.2615 110.296 79.7086 110.61 79.2383C110.925 78.7681 111.371 78.4016 111.894 78.1854C112.417 77.9691 112.992 77.9127 113.546 78.0233C114.101 78.1339 114.611 78.4066 115.01 78.8068C115.41 79.2071 115.682 79.7169 115.792 80.2717C115.902 80.8266 115.845 81.4016 115.628 81.9239C115.411 82.4463 115.044 82.8926 114.573 83.2063C114.102 83.52 113.549 83.687 112.983 83.6863C112.234 83.6712 111.52 83.3631 110.995 82.8279C110.47 82.2927 110.175 81.5731 110.174 80.8233L110.128 80.8272ZM121.208 70.9008V86.3614H124.883V70.897L121.208 70.9008ZM135.772 75.3006V76.7493C135.772 76.7493 134.679 74.9212 132.027 74.9212C128.877 74.9212 126.485 77.4545 126.485 80.8195C126.485 84.1845 128.942 86.7408 132.073 86.7408C133.526 86.7408 135.07 86.0663 135.684 85.089H135.772V86.3614H139.447V75.2968L135.772 75.3006ZM133.089 83.6863C132.523 83.687 131.97 83.52 131.5 83.2063C131.029 82.8926 130.662 82.4463 130.445 81.9239C130.228 81.4016 130.171 80.8266 130.281 80.2717C130.39 79.7169 130.662 79.2071 131.062 78.8068C131.462 78.4066 131.971 78.1339 132.526 78.0233C133.081 77.9127 133.656 77.9691 134.178 78.1854C134.701 78.4016 135.148 78.7681 135.462 79.2383C135.776 79.7086 135.944 80.2615 135.944 80.8272C135.943 81.573 135.651 82.289 135.13 82.8224C134.609 83.3558 133.9 83.6644 133.154 83.6824L133.089 83.6863ZM149.638 74.9212C148.001 74.9212 146.672 75.4999 145.805 76.7532H145.721V75.3006H142.05V86.3614H145.721V81.3791C145.721 79.0259 146.599 77.7688 148.124 77.7688C149.649 77.7688 150.04 78.9569 150.04 80.7275V86.3652H153.712V79.4666C153.812 76.4466 152.42 74.9174 149.703 74.9174L149.638 74.9212ZM165.202 81.862H167.145C167.467 78.1712 165.696 74.9212 161.185 74.9212C157.265 74.9212 155.302 77.7765 155.302 80.8732C155.302 84.2841 157.771 86.7408 161.914 86.7408C163.286 86.7146 164.641 86.4244 165.903 85.8861L165.198 83.2877C164.24 83.5943 163.585 83.9622 162.059 83.9622C160.534 83.9622 159.445 83.1727 159.058 81.8658H165.19L165.202 81.862ZM161.461 77.5542C162.043 77.5557 162.606 77.7626 163.051 78.1384C163.495 78.5142 163.793 79.0347 163.891 79.6084H159.009C159.342 78.1674 160.369 77.5503 161.461 77.5503V77.5542ZM175.891 78.1635V75.3006H173.262V72.6945H169.586V75.3006H167.984V78.1635H169.586V82.3794C169.586 85.2806 170.863 86.737 173.802 86.737C174.604 86.7411 175.403 86.6484 176.182 86.461L175.918 83.7782C175.355 83.9296 174.767 83.9648 174.189 83.8817C173.542 83.7591 173.262 83.3337 173.262 82.3487V78.1329L175.891 78.1635Z" fill="black"/>
<path d="M176.527 72.8772H175.891V72.6895H177.393V72.8772H176.761V74.6517H176.527V72.8772ZM177.765 72.6895H177.972L178.665 73.6744L179.363 72.6895H179.566V74.6517H179.344V73.0689L178.742 73.9312H178.589L177.987 73.0689V74.6517H177.765V72.6895Z" fill="black"/>
</svg>
