<svg width="201" height="91" viewBox="0 0 201 91" fill="none" xmlns="http://www.w3.org/2000/svg">
<path d="M172.879 13.4012V78.1018C172.879 79.0023 172.156 79.7267 171.257 79.7267H133.932C133.287 79.7267 132.876 79.0219 133.189 78.4542L150.023 48.3063C150.708 47.0925 151.978 46.3486 153.347 46.3486H160.073C160.327 46.3486 160.562 46.2116 160.679 45.9767L166.76 33.6434C166.975 33.1932 166.662 32.6842 166.154 32.6842H138.018C137.666 32.6842 137.393 32.4101 137.393 32.0577V28.1816C137.393 26.6742 138.312 25.343 139.7 24.7752L171.276 12.305C172.058 12.0113 172.879 12.579 172.879 13.4012Z" fill="black"/>
<path d="M103.001 36.188C102.024 36.1292 101.046 36.1292 100.068 36.188C99.0713 36.188 97.8982 36.188 96.6078 36.3446C93.6945 36.6186 91.4265 40.0837 91.4265 40.0837L73.1455 72.1305C74.3186 66.2967 79.93 38.4588 80.2037 37.2451C80.2428 37.0885 80.2428 36.9123 80.2037 36.7361C80.1255 36.5012 79.9104 36.3446 79.6758 36.325C79.4803 36.3054 79.2652 36.3054 79.0697 36.325H77.095H74.3381C72.6176 36.325 70.6037 36.325 68.6485 36.4816C65.9112 36.462 63.2913 37.6366 61.473 39.6726L28.8799 79.7067H29.31H35.8599C36.251 79.7067 36.6616 79.6675 37.0526 79.6088C38.343 79.5305 39.5748 79.0215 40.5133 78.121C41.9406 76.8681 43.2897 75.5369 44.541 74.1078C44.932 73.6184 45.4013 73.2464 45.9487 72.9723C46.1833 72.9723 46.3593 72.9723 46.4571 72.9723H56.9369C57.152 72.9919 57.3866 72.9919 57.6017 72.9723H57.9145C59.1854 72.9723 59.244 72.2088 59.244 72.2088C59.244 72.2088 60.2412 67.0211 60.3781 66.2576C60.5149 65.4941 59.9284 65.4549 59.9284 65.4549H59.7719C59.6937 65.4353 59.6155 65.4353 59.5569 65.4549H52.3422C51.4428 65.4549 52.0685 64.6131 52.0685 64.6131L67.9447 45.1932C66.9866 49.7741 61.2383 77.7294 61.0428 78.7474C60.8473 79.7654 61.6489 79.6871 61.6489 79.6871H62.5288H75.0616C75.6481 79.6871 76.2151 79.6284 76.7821 79.4913C78.5418 79.1977 80.106 78.1601 81.1031 76.6723L93.4013 55.2751C93.4013 59.1121 93.4013 77.8273 93.4013 78.6495C93.4013 79.4717 93.9292 79.6088 93.9292 79.6088H98.387H100.46C103.92 79.5109 106.442 74.9496 106.442 74.9496L124.548 43.3334H133.17H134.421C135.321 43.3334 134.89 43.999 134.89 43.999C134.89 43.999 115.299 78.7866 115.026 79.276C114.752 79.7654 115.104 79.7262 115.104 79.7262H120.93C121.693 79.7458 122.475 79.6871 123.218 79.5305C124.88 78.9823 126.307 77.8665 127.246 76.3591C127.246 76.3591 145.722 44.2731 146.035 43.8424C146.25 43.5683 146.543 43.353 146.876 43.2551H156.417C156.867 43.2747 157.277 43.0006 157.473 42.5895C157.473 42.5895 159.78 37.8715 160.269 36.9319C160.758 35.9922 159.917 35.9922 159.917 35.9922H159.526L122.338 36.0705C119.405 36.2075 116.766 37.8911 115.436 40.5144L104.018 60.2671C104.018 56.5084 103.92 38.1848 103.92 37.2255C103.94 36.9123 103.822 36.6186 103.607 36.4229C103.412 36.325 103.197 36.2467 102.982 36.2075" fill="black"/>
</svg>
