<svg width="201" height="91" viewBox="0 0 201 91" fill="none" xmlns="http://www.w3.org/2000/svg">
<path d="M15.1564 45.8706C15.1564 45.3174 15.1564 44.879 15.1564 44.4094C17.1917 44.4094 19.1747 44.4094 21.1996 44.4094C21.1996 50.202 21.1996 55.953 21.1996 61.7457C19.2165 61.7457 17.2647 61.7457 15.2503 61.7457C15.2503 61.1612 15.2503 60.5976 15.2503 59.9192C14.8537 60.2532 14.5615 60.5141 14.2484 60.7541C9.91688 63.9897 3.63364 62.0379 1.57749 56.8297C0.0849594 53.0514 1.04519 48.5843 3.905 45.9854C6.84832 43.3239 11.5138 43.1151 14.6763 45.5157C14.8015 45.6096 14.9268 45.7036 15.1564 45.8706ZM15.2399 53.0932C15.2399 50.7761 13.6012 49.1061 11.3363 49.1061C9.0819 49.1061 7.34931 50.8492 7.34931 53.1141C7.35974 55.3894 9.02971 57.0593 11.3155 57.0593C13.6117 57.0593 15.2399 55.4103 15.2399 53.0932Z" fill="black"/>
<path d="M134.977 45.8495C134.977 45.3276 134.977 44.9101 134.977 44.4196C137.023 44.4196 139.006 44.4196 141.021 44.4196C141.021 50.2018 141.021 55.9528 141.021 61.7559C139.038 61.7559 137.096 61.7559 135.082 61.7559C135.082 61.1714 135.082 60.6182 135.082 59.9711C134.925 60.0859 134.842 60.1381 134.769 60.1903C130.844 63.6033 125.114 62.7996 122.265 58.4369C119.781 54.6481 120.407 49.0955 123.653 46.0791C126.711 43.2506 131.491 43.0732 134.737 45.6825C134.779 45.7242 134.821 45.7451 134.977 45.8495ZM127.233 53.093C127.233 55.4414 128.861 57.0696 131.189 57.0591C133.454 57.0487 135.071 55.41 135.071 53.1243C135.071 50.7968 133.454 49.1164 131.199 49.1059C128.913 49.1059 127.233 50.7863 127.233 53.093Z" fill="black"/>
<path d="M30.4999 45.9435C31.4705 45.3694 32.3368 44.7014 33.3075 44.2944C35.9585 43.1776 39.883 44.1796 41.7617 46.361C42.701 47.4464 43.1081 48.7511 43.129 50.1601C43.1603 53.8967 43.1394 57.6437 43.1394 61.3802C43.1394 61.4637 43.1185 61.5472 43.0976 61.6829C41.1041 61.6829 39.121 61.6829 37.0753 61.6829C37.0649 61.4741 37.044 61.2758 37.044 61.0775C37.044 58.0194 37.0545 54.9508 37.044 51.8927C37.0336 49.7635 35.2906 48.2605 33.3492 48.6885C31.7419 49.0433 30.5312 50.5359 30.5207 52.185C30.5103 55.1283 30.5207 58.0612 30.5207 61.0045C30.5207 61.2132 30.5207 61.422 30.5207 61.6829C28.4959 61.6829 26.5128 61.6829 24.4775 61.6829C24.4775 55.9111 24.4775 50.1706 24.4775 44.3779C26.4815 44.3779 28.4646 44.3779 30.4999 44.3779C30.4999 44.9415 30.4999 45.4529 30.4999 45.9435Z" fill="black"/>
<path d="M78.5117 61.6947C78.5117 55.902 78.5117 50.1615 78.5117 44.3793C80.5261 44.3793 82.5092 44.3793 84.5549 44.3793C84.5549 44.922 84.5549 45.4439 84.5549 46.0805C84.9202 45.7883 85.202 45.5691 85.4734 45.3395C88.8238 42.4901 94.272 44.1496 96.015 46.6337C96.6726 47.5731 97.1005 48.5959 97.111 49.7232C97.1423 53.5641 97.1214 57.4154 97.1214 61.2563C97.1214 61.392 97.1005 61.5277 97.0901 61.6947C95.0966 61.6947 93.1239 61.6947 91.0991 61.6947C91.0782 61.4442 91.0573 61.225 91.0573 61.0058C91.0573 57.979 91.0678 54.9522 91.0469 51.9254C91.0365 50.0363 89.8988 48.742 88.1975 48.6168C86.4127 48.4916 84.6071 50.1615 84.6071 51.9359C84.6071 54.9627 84.6071 57.9895 84.6071 61.0163C84.6071 61.225 84.6071 61.4338 84.6071 61.6843C82.5509 61.6947 80.5574 61.6947 78.5117 61.6947Z" fill="black"/>
<path d="M118.789 61.7036C116.774 61.7036 114.802 61.7036 112.777 61.7036C112.766 61.4426 112.745 61.2234 112.745 61.0043C112.745 58.0609 112.756 55.1281 112.735 52.1848C112.735 51.6838 112.683 51.1723 112.526 50.7027C112.025 49.1997 110.71 48.4273 109.197 48.6778C107.694 48.9283 106.306 50.4 106.295 51.8195C106.274 54.8776 106.285 57.9461 106.285 61.0043C106.285 61.2234 106.285 61.4426 106.285 61.714C104.229 61.714 102.235 61.714 100.221 61.714C100.221 55.9317 100.221 50.1808 100.221 44.3881C102.225 44.3881 104.197 44.3881 106.243 44.3881C106.243 44.9308 106.243 45.4527 106.243 46.0685C106.807 45.651 107.266 45.2962 107.736 44.9622C110.929 42.6242 116.837 44.2524 118.235 47.5715C118.517 48.2499 118.778 49.0014 118.789 49.7216C118.841 53.6042 118.82 57.4765 118.82 61.3591C118.82 61.4322 118.799 61.5366 118.789 61.7036Z" fill="black"/>
<path d="M71.7062 55.4726C73.157 56.1928 74.5869 56.913 76.236 57.7375C75.4219 58.6142 74.7748 59.4701 73.9711 60.1485C70.746 62.8935 63.3042 63.6555 59.4111 58.6142C55.2988 53.2912 58.1378 45.6198 64.7967 44.1273C67.0199 43.6263 69.2222 43.7933 71.3305 44.67C75.2758 46.3191 76.6431 50.2227 76.2882 53.9383C72.1655 53.9383 68.0219 53.9383 63.8991 53.9383C63.68 55.1386 64.5254 56.5268 65.7987 57.0069C67.6148 57.6958 69.3474 57.5392 70.8712 56.2241C71.1426 55.9841 71.4035 55.744 71.7062 55.4726ZM64.0557 50.4523C66.1536 50.4523 68.2306 50.4523 70.3076 50.4523C70.2137 48.9389 68.8255 47.8221 67.1556 47.8743C65.3812 47.9265 64.0348 49.0224 64.0557 50.4523Z" fill="black"/>
<path d="M53.0334 49.0746C53.0334 49.7531 53.0334 50.3375 53.0334 50.922C53.0334 52.258 53.0125 53.6044 53.0543 54.9404C53.1065 56.7356 53.9102 57.2053 55.5175 56.4329C55.5906 56.3912 55.6741 56.3703 55.8411 56.2972C56.3525 57.9359 56.843 59.5432 57.3649 61.2027C55.6845 62.069 53.9415 62.5074 52.1045 62.2882C49.0777 61.9334 47.2929 60.1695 47.0946 57.1218C46.9276 54.7212 47.0007 52.2997 46.9694 49.8783C46.9694 49.6591 46.9694 49.4295 46.9694 49.1164C46.1344 49.1164 45.3411 49.1164 44.5166 49.1164C44.5166 47.5195 44.5166 46.0165 44.5166 44.4405C45.3203 44.4405 46.1031 44.4405 46.9694 44.4405C46.9694 43.3132 46.9694 42.2591 46.9694 41.2049C46.9694 40.1508 46.9694 39.0861 46.9694 37.9902C48.9942 37.9902 50.9668 37.9902 53.0334 37.9902C53.0334 40.0881 53.0334 42.1756 53.0334 44.3465C54.2859 44.3465 55.434 44.3465 56.6447 44.3465C56.6447 45.9434 56.6447 47.4568 56.6447 49.0642C55.4444 49.0746 54.2755 49.0746 53.0334 49.0746Z" fill="black"/>
<path d="M200.022 39.9116C199.156 36.0289 197.674 32.3968 195.659 28.8898C189.157 27.4495 182.581 27.0946 175.933 27.6478V27.6374C175.609 26.8754 175.233 26.291 174.764 25.8943C180.41 19.8512 186.036 13.8288 191.63 7.83784C191.985 7.89003 192.278 7.95265 192.58 7.90047C193.415 7.75434 194.156 7.08636 194.073 5.84432C194.021 4.94671 193.332 4.20567 192.465 4.14304C191.505 4.08042 190.733 4.69622 190.566 5.62514C190.493 6.05307 190.587 6.44968 190.649 6.88805C184.742 12.9521 178.824 19.0162 172.916 25.0698C172.28 24.9028 171.393 24.7358 170.244 24.8297C169.514 24.8924 168.449 25.2681 167.646 25.6752C164.066 21.2184 160.506 16.7826 156.979 12.3989C157.407 10.8333 156.947 9.70612 155.831 9.48693C154.745 9.26775 153.785 9.96705 153.66 11.0525C153.513 12.3467 154.275 13.14 155.758 13.2235C156.53 13.9958 165.662 25.7795 166.153 26.6458C165.088 27.7104 164.473 28.9733 164.42 29.5474C158.596 31.52 152.856 33.6701 147.512 36.6552C147.47 36.7282 147.439 36.77 147.418 36.8222C146.239 39.9116 145.508 43.1054 145.32 46.4036C145.164 49.0338 145.289 51.6536 145.738 54.2524C146.291 57.4671 147.178 60.5774 148.316 63.6356C148.42 63.9069 148.556 64.1157 148.785 64.3035C149.537 64.9298 150.32 65.4934 151.155 66.0152C154.098 67.8418 157.292 69.0316 160.611 69.9397C166.351 71.5053 172.217 72.1419 178.156 72.1837C180.17 72.2046 182.185 72.1211 184.199 71.9436C186.892 71.714 189.553 71.3278 192.163 70.639C193.081 70.3989 194.01 70.138 194.866 69.7727C194.929 69.6579 194.991 69.5639 195.033 69.47C196.87 65.8691 198.383 62.143 199.438 58.229C200.199 55.4005 200.69 52.5303 200.836 49.6078C200.993 46.3305 200.732 43.1054 200.022 39.9116ZM190.702 49.1486C190.576 54.409 189.24 59.3876 187.268 64.2305C187.007 64.8776 186.725 65.5143 186.454 66.1509C186.37 66.3388 186.307 66.5476 186.099 66.7354C185.347 66.8085 184.533 66.9129 183.729 66.9755C182.571 67.0799 181.412 67.1738 180.254 67.2468C179.262 67.3095 178.281 67.3825 177.29 67.393C175.223 67.4138 173.146 67.4452 171.079 67.3721C167.646 67.2364 164.233 66.8398 160.893 65.9526C158.002 65.1803 155.257 64.0844 152.825 62.2996C152.261 61.8925 151.718 61.4646 151.217 60.974C151.04 60.7966 150.915 60.6087 150.842 60.3687C150.1 58.1247 149.537 55.8493 149.172 53.5114C148.827 51.2882 148.691 49.0547 148.785 46.8107C148.89 44.3057 149.266 41.8425 149.975 39.4106C150.591 38.9931 151.259 38.6696 151.917 38.3147C156.332 35.9559 160.914 34.0145 165.798 32.8456C167.98 32.3237 170.192 31.9793 172.436 31.8123C177.164 31.4679 181.799 32.0523 186.37 33.2318C186.454 33.2526 186.527 33.2944 186.652 33.3361C187.779 35.2044 188.656 37.1666 189.334 39.2228C189.867 40.8197 190.232 42.4687 190.461 44.1283C190.691 45.7774 190.743 47.4578 190.702 49.1486Z" fill="#ED492F"/>
<path d="M179.44 61.6929C178.063 61.6929 176.727 61.6929 175.339 61.6929C172.28 55.9837 169.212 50.2641 166.102 44.4609C168.523 44.4609 170.83 44.4609 173.199 44.4609C174.566 47.4982 175.944 50.5668 177.384 53.7606C178.814 50.5981 180.181 47.5399 181.57 44.4609C183.918 44.4609 186.235 44.4609 188.667 44.4609C185.578 50.2536 182.509 55.9628 179.44 61.6929Z" fill="black"/>
<path d="M156.164 49.0133C155.319 49.0133 154.546 49.0133 153.764 49.0133C153.764 47.4477 153.764 45.976 153.764 44.4418C154.557 44.4418 155.308 44.4418 156.133 44.4418C156.133 42.2708 156.133 40.1625 156.133 38.002C158.147 38.002 160.099 38.002 162.113 38.002C162.113 40.1207 162.113 42.2186 162.113 44.3896C163.345 44.3896 164.514 44.3896 165.735 44.3896C165.735 45.9343 165.735 47.3955 165.735 48.9611C164.556 48.9611 163.376 48.9611 162.134 48.9611C162.134 50.0466 162.124 51.0277 162.134 52.0192C162.145 53.1464 162.103 54.2841 162.239 55.4009C162.395 56.7786 163.199 57.1544 164.451 56.5803C164.608 56.5073 164.765 56.4446 164.994 56.3403C165.495 57.9476 165.975 59.5236 166.476 61.131C165.286 61.7781 164.076 62.1329 162.802 62.206C162.009 62.2478 161.195 62.2164 160.423 62.0599C158.179 61.6006 156.623 60.0037 156.404 57.5823C156.175 55.0252 156.248 52.4472 156.185 49.8796C156.154 49.6186 156.164 49.3682 156.164 49.0133Z" fill="black"/>
</svg>
