<svg width="201" height="91" viewBox="0 0 201 91" fill="none" xmlns="http://www.w3.org/2000/svg">
<path d="M173.351 65.2161H28.4082V66.441H173.351V65.2161Z" fill="black"/>
<path d="M173.351 73.5466H28.4082V74.7716H173.351V73.5466Z" fill="black"/>
<path d="M49.8008 56.2786L65.8155 56.2921L65.2767 63.709L80.049 63.7205L80.0202 37.9964L85.7489 63.782H99.365L107.216 35.4486L115.098 63.782H128.714L134.211 38.8066V63.782H172.097V53.5906H148.126V44.7183H169.735V35.5407H148.126V28.3887H171.422V18.7792H125.497L120.744 43.9388L113.777 18.7792H100.636L93.6862 43.9714L88.9372 18.7792H75.7486L64.6095 18.7715L30.3486 63.6821L44.7509 63.6936L49.7989 56.2786H49.8008ZM67.6963 30.422L66.5862 46.575L56.561 46.5673L67.6963 30.422Z" fill="black"/>
<path d="M33.2394 72.4885C33.1723 72.5019 32.9786 72.5096 32.6623 72.5154V72.7746L34.0274 72.7362C34.2018 72.7362 34.5105 72.7496 34.9534 72.7746V72.5154C34.7291 72.5134 34.5872 72.4981 34.522 72.4693C34.4587 72.4405 34.3993 72.3829 34.3456 72.2926C34.2498 72.1352 34.0542 71.7454 33.7609 71.1234L31.9491 67.293H31.6788C31.2991 68.1109 31.0518 68.637 30.9368 68.875L29.8766 71.0293C29.5602 71.6514 29.3762 72.0085 29.3244 72.1026C29.2362 72.2677 29.1691 72.3714 29.1231 72.4098C29.0771 72.4501 29.0253 72.477 28.9697 72.4904C28.9141 72.5038 28.7761 72.5134 28.5518 72.5154V72.7746C28.8777 72.7515 29.1768 72.74 29.4529 72.74C29.6906 72.74 30.0491 72.7515 30.5265 72.7746V72.5154C30.2638 72.5134 30.0798 72.5019 29.9763 72.4808C29.9111 72.4674 29.8631 72.4443 29.8325 72.4117C29.8095 72.3886 29.798 72.3598 29.798 72.3234C29.798 72.2427 29.8382 72.1141 29.9207 71.9374L30.3808 70.9563H32.8348L33.3544 72.1256C33.3947 72.2139 33.4139 72.2869 33.4139 72.3426C33.4139 72.379 33.4023 72.4078 33.3774 72.4328C33.3525 72.4578 33.3084 72.475 33.2394 72.4885ZM30.5265 70.6318L31.6078 68.3336L32.6623 70.6318H30.5265Z" fill="black"/>
<path d="M39.0093 67.6396C39.063 67.6147 39.2758 67.5955 39.6497 67.582V67.3535C39.132 67.3708 38.7658 67.3804 38.5472 67.3804C38.3038 67.3804 37.9452 67.3708 37.4717 67.3535V67.582C37.7689 67.6127 37.9433 67.6492 37.997 67.6914C38.0507 67.7337 38.1063 67.8643 38.1657 68.087L38.9844 71.2281L39.3697 72.8198H39.7973C39.9123 72.5145 39.9967 72.2937 40.0484 72.1612C40.1002 72.0268 40.1635 71.8751 40.2363 71.7042L40.7655 70.4543L41.6091 68.567L42.5753 70.9247C42.7479 71.3471 42.9914 71.9788 43.3039 72.8198H43.7353L44.2817 70.9766C44.4178 70.5273 44.506 70.2374 44.5482 70.1106L44.9853 68.8242C45.1809 68.2386 45.2997 67.9026 45.3419 67.8162C45.3841 67.7299 45.4378 67.6703 45.503 67.6377C45.5681 67.605 45.6985 67.5878 45.8922 67.5839V67.3554C45.4627 67.3727 45.1617 67.3823 44.9853 67.3823C44.8089 67.3823 44.5137 67.3727 44.0785 67.3554V67.5839C44.4792 67.5935 44.7054 67.6108 44.7533 67.6358C44.8032 67.6607 44.8281 67.6991 44.8281 67.7529C44.8281 67.7836 44.8032 67.8988 44.7514 68.1004C44.6421 68.5401 44.5232 68.9644 44.3967 69.3714L43.6758 71.6486L42.6789 69.1583C42.4718 68.6418 42.2398 68.0217 41.9791 67.2979H41.7088C41.4442 67.9833 41.1738 68.6342 40.8997 69.2486L39.8529 71.5967L39.1876 68.9529C39.1569 68.83 39.0937 68.542 39.0016 68.087C38.9671 67.9276 38.9499 67.8143 38.9499 67.7471C38.9499 67.6934 38.969 67.6588 39.0055 67.6396H39.0093Z" fill="black"/>
<path d="M48.2211 67.7174C48.3227 67.7097 48.4914 67.7001 48.7253 67.6905C48.9592 67.6809 49.1106 67.6752 49.1778 67.6752C49.4941 67.6752 49.8104 67.6925 50.1268 67.7289C50.3128 67.7501 50.4834 67.7885 50.6387 67.848C50.6789 68.0611 50.6962 68.2992 50.6943 68.5584H50.9608C51.0068 68.0515 51.0317 67.7865 51.0375 67.7635C51.0547 67.656 51.0854 67.5312 51.1314 67.3853C50.8822 67.3565 50.6195 67.343 50.3396 67.343C50.0597 67.343 49.6187 67.3469 49.0052 67.3545L47.7264 67.3737L46.5186 67.3507V67.5945C46.8541 67.6003 47.0592 67.6137 47.1302 67.6349C47.203 67.656 47.2548 67.6905 47.2874 67.7347C47.32 67.7789 47.341 67.9229 47.3487 68.1629C47.3564 68.4931 47.3621 68.831 47.3621 69.1766V71.1254C47.3621 71.3692 47.3545 71.6592 47.3372 71.9952C47.3257 72.2102 47.3065 72.3446 47.2778 72.3945C47.2605 72.4272 47.2318 72.4521 47.1934 72.4675C47.0995 72.5059 46.9058 72.5251 46.6087 72.5289V72.7728C47.3123 72.7555 47.6823 72.7459 47.7187 72.7459L50.2476 72.7728C50.5946 72.7728 50.8898 72.7555 51.1333 72.7228C51.1333 72.3849 51.1698 71.9587 51.2426 71.4441H50.9589C50.9397 71.5593 50.8975 71.7302 50.8362 71.9548C50.8016 72.0892 50.7691 72.1968 50.7345 72.2755C50.6042 72.3235 50.4642 72.358 50.3108 72.3792C50.1594 72.4003 49.9025 72.4099 49.5459 72.4099C49.0416 72.4099 48.5853 72.3964 48.1789 72.3676C48.1655 72.1238 48.1578 71.7648 48.1578 71.2944C48.1578 70.7933 48.1655 70.415 48.1789 70.1597C48.5259 70.1462 48.7943 70.1405 48.9841 70.1405C49.4481 70.1405 49.7587 70.1558 49.9197 70.1865C50.0098 70.2038 50.0712 70.2365 50.1038 70.2825C50.1364 70.3286 50.1555 70.4457 50.1613 70.6339L50.1747 70.8931H50.4719L50.4508 70.0022L50.4719 69.2073V69.1344H50.2169L50.192 69.4013C50.1728 69.5798 50.1498 69.6835 50.1249 69.7142C50.0999 69.7449 50.0424 69.7661 49.9504 69.7757C49.7127 69.8045 49.427 69.8179 49.0896 69.8179C48.8135 69.8179 48.5086 69.8083 48.1789 69.791L48.1961 68.5046C48.2019 68.2589 48.2096 67.9939 48.2211 67.7136V67.7174Z" fill="black"/>
<path d="M56.7033 72.4885C56.6361 72.5019 56.4425 72.5096 56.1262 72.5154V72.7746L57.4912 72.7362C57.6676 72.7362 57.9744 72.7496 58.4173 72.7746V72.5154C58.1929 72.5134 58.0511 72.4981 57.9859 72.4693C57.9226 72.4405 57.8632 72.3829 57.8095 72.2926C57.7136 72.1352 57.5181 71.7454 57.2247 71.1234L55.413 67.293H55.1426C54.763 68.1109 54.5157 68.637 54.4007 68.875L53.3404 71.0293C53.0241 71.6514 52.84 72.0085 52.7883 72.1026C52.7001 72.2677 52.633 72.3714 52.587 72.4098C52.5409 72.4501 52.4892 72.477 52.4336 72.4904C52.378 72.5038 52.2399 72.5134 52.0156 72.5154V72.7746C52.3416 72.7515 52.6406 72.74 52.9167 72.74C53.1545 72.74 53.513 72.7515 53.9904 72.7746V72.5154C53.7277 72.5134 53.5437 72.5019 53.4401 72.4808C53.3749 72.4674 53.327 72.4443 53.2963 72.4117C53.2733 72.3886 53.2618 72.3598 53.2618 72.3234C53.2618 72.2427 53.3021 72.1141 53.3845 71.9374L53.8447 70.9563H56.2987L56.8183 72.1256C56.8585 72.2139 56.8777 72.2869 56.8777 72.3426C56.8777 72.379 56.8662 72.4078 56.8413 72.4328C56.8164 72.4578 56.7723 72.475 56.7033 72.4885ZM53.9904 70.6318L55.0717 68.3336L56.1262 70.6318H53.9904Z" fill="black"/>
<path d="M60.706 68.0955C60.7137 67.8997 60.7348 67.7768 60.7693 67.725C60.7981 67.6866 60.8479 67.6578 60.9189 67.6347C60.9917 67.6136 61.1949 67.6002 61.5304 67.5944V67.3506C60.8997 67.3679 60.4951 67.3775 60.3149 67.3775C60.152 67.3775 59.7244 67.3679 59.0361 67.3506V67.5944C59.3716 67.6002 59.5768 67.6136 59.6477 67.6347C59.7206 67.6559 59.7723 67.6885 59.8049 67.7346C59.8375 67.7787 59.8586 67.9227 59.8663 68.1647C59.874 68.4949 59.8797 68.8347 59.8797 69.1803V71.2328C59.8797 71.2981 59.872 71.5055 59.8586 71.8549C59.851 72.0891 59.8337 72.2408 59.8088 72.3138C59.7973 72.3503 59.7781 72.3791 59.7493 72.4021C59.7014 72.4463 59.5921 72.5039 59.4177 72.5787V72.7765C59.6976 72.7592 59.9717 72.7496 60.244 72.7496L62.7517 72.7765C63.0566 72.7765 63.2828 72.7727 63.4304 72.765C63.4975 72.7592 63.5896 72.7477 63.7065 72.7266C63.7659 72.2139 63.8273 71.7685 63.8886 71.3903H63.6049L63.4362 72.0239C63.4074 72.1237 63.3748 72.2101 63.3384 72.2869C63.0201 72.3791 62.4622 72.4251 61.6647 72.4251C61.3483 72.4251 61.0301 72.4155 60.708 72.3983C60.6945 72.2293 60.6869 72.0123 60.6869 71.7455V69.1803C60.6984 68.5083 60.7041 68.1474 60.708 68.0955H60.706Z" fill="black"/>
<path d="M66.8966 67.725H67.4142C67.5561 67.725 67.7478 67.7308 67.9913 67.7442C68.2348 67.7577 68.3748 67.7673 68.415 67.7749C68.4457 67.7826 68.4687 67.7922 68.484 67.8057C68.4994 67.8191 68.5109 67.8402 68.5205 67.8709C68.5281 67.9017 68.5435 68.0284 68.5665 68.2492L68.601 68.6159H68.8713C68.8828 68.0591 68.9058 67.6367 68.9384 67.3525C68.7064 67.3621 68.3383 67.3737 67.8322 67.3833C67.1343 67.3986 66.6895 67.4063 66.4978 67.4063C66.3195 67.4063 65.9648 67.4005 65.4299 67.3909C64.7723 67.3756 64.2891 67.3621 63.9805 67.3525C64.0054 67.5868 64.0207 68.0073 64.0226 68.6159H64.2853L64.3313 68.23C64.3562 67.9957 64.385 67.8575 64.4157 67.8133C64.4349 67.7884 64.479 67.7711 64.5461 67.7634C64.7608 67.7385 65.0503 67.725 65.4146 67.725H66.0453L66.0703 68.3701C66.076 68.4969 66.0779 68.614 66.0779 68.7215V70.9468C66.0645 71.6169 66.0568 71.9778 66.0568 72.0316C66.0492 72.2274 66.0262 72.3503 65.9897 72.4021C65.9648 72.4405 65.915 72.4693 65.8421 72.4924C65.7692 72.5135 65.566 72.5269 65.2305 72.5327V72.7765C66.0012 72.7554 66.4422 72.7458 66.5515 72.7458C66.8065 72.7458 67.1861 72.7554 67.6903 72.7765V72.5327C67.3548 72.5269 67.1496 72.5135 67.0787 72.4924C67.0059 72.4712 66.9541 72.4367 66.9215 72.3906C66.8889 72.3445 66.8678 72.2005 66.8601 71.9586C66.8525 71.6303 66.8467 71.2924 66.8467 70.9468V68.7138C66.8467 68.2991 66.8601 67.9689 66.8889 67.725H66.8966Z" fill="black"/>
<path d="M70.4065 72.0315C70.3988 72.2273 70.3777 72.3502 70.3432 72.4021C70.3144 72.4405 70.2646 72.4693 70.1917 72.4923C70.1189 72.5134 69.9157 72.5269 69.584 72.5326V72.7765C70.0192 72.7592 70.4563 72.7496 70.8973 72.7496C71.3018 72.7496 71.6929 72.7592 72.0745 72.7765V72.5326C71.7389 72.5269 71.5338 72.5134 71.4629 72.4923C71.3919 72.4712 71.3382 72.4366 71.3057 72.3905C71.2731 72.3445 71.252 72.2005 71.2443 71.9605C71.2366 71.6321 71.2309 71.2961 71.2309 70.9505V70.0827C71.9192 70.0654 72.4886 70.0558 72.9334 70.0558C73.3437 70.0558 73.9438 70.0654 74.7337 70.0827V70.9505C74.7222 71.6187 74.7145 71.9797 74.7126 72.0315C74.7068 72.2273 74.6857 72.3502 74.6493 72.4001C74.6205 72.4385 74.5707 72.4673 74.4998 72.4904C74.4269 72.5115 74.2237 72.5249 73.8882 72.5307V72.7745C74.2831 72.7573 74.6666 72.7477 75.0366 72.7477C75.3836 72.7477 75.8303 72.7573 76.3748 72.7745V72.5307C76.0431 72.5249 75.8418 72.5115 75.767 72.4904C75.6942 72.4693 75.6405 72.4347 75.6098 72.3886C75.5772 72.3425 75.5581 72.1985 75.5523 71.9566C75.5389 71.6283 75.5312 71.2904 75.5312 70.9448V69.1765C75.5427 68.5045 75.5485 68.1435 75.5523 68.0936C75.56 67.8978 75.583 67.7749 75.6194 67.723C75.6443 67.6846 75.6942 67.6558 75.767 67.6328C75.8399 67.6117 76.0431 67.5982 76.3748 67.5925V67.3486C75.6348 67.3659 75.2226 67.3755 75.1382 67.3755C74.912 67.3755 74.4959 67.3659 73.8882 67.3486V67.5925C74.2218 67.5982 74.425 67.6117 74.4978 67.6328C74.5688 67.6539 74.6205 67.6885 74.6531 67.7326C74.6857 67.7768 74.7049 67.9208 74.7145 68.1627C74.7279 68.493 74.7356 68.8328 74.7356 69.1784V69.7102C74.3675 69.7275 73.8786 69.7371 73.2651 69.7371C72.4656 69.7371 71.7869 69.7275 71.2309 69.7102V69.1784C71.2424 68.5064 71.2481 68.1454 71.252 68.0936C71.2596 67.8978 71.2807 67.7749 71.3152 67.723C71.344 67.6846 71.3938 67.6558 71.4648 67.6328C71.5357 67.6117 71.7389 67.5982 72.0745 67.5925V67.3486L70.88 67.3755L69.584 67.3486V67.5925C69.9195 67.5982 70.1246 67.6117 70.1956 67.6328C70.2684 67.6539 70.3202 67.6866 70.3528 67.7326C70.3854 67.7768 70.4065 67.9208 70.4141 68.1627C70.4218 68.493 70.4276 68.8328 70.4276 69.1784V70.9467C70.4161 71.6168 70.4103 71.9777 70.4065 72.0296V72.0315Z" fill="black"/>
<path d="M81.2809 72.693C81.6644 72.8236 82.0785 72.8869 82.5214 72.8869C83.4953 72.8869 84.3025 72.6008 84.9428 72.0306C85.5832 71.4604 85.9034 70.7461 85.9034 69.8879C85.9034 69.621 85.8708 69.3695 85.8075 69.1352C85.7442 68.901 85.658 68.6975 85.5506 68.5247C85.4087 68.2924 85.217 68.0792 84.9716 67.8853C84.7281 67.6914 84.4137 67.534 84.0322 67.4149C83.6506 67.2959 83.2269 67.2383 82.761 67.2383C82.2549 67.2383 81.8062 67.3074 81.4132 67.4456C81.0202 67.5839 80.6693 67.7893 80.3587 68.062C80.0481 68.3346 79.8257 68.6418 79.6915 68.9816C79.5573 69.3234 79.4902 69.694 79.4902 70.0972C79.4902 70.4543 79.5593 70.8152 79.6973 71.18C79.8353 71.5448 80.0386 71.8559 80.3031 72.1112C80.5677 72.3666 80.8936 72.5605 81.2771 72.6892L81.2809 72.693ZM80.631 68.6188C80.8016 68.277 81.0566 68.014 81.396 67.8335C81.7353 67.653 82.1283 67.5628 82.5789 67.5628C82.8895 67.5628 83.179 67.6069 83.4474 67.6933C83.7158 67.7797 83.9344 67.8853 84.1012 68.012C84.2699 68.1388 84.4137 68.2866 84.5345 68.4556C84.6552 68.6245 84.753 68.8146 84.8259 69.022C84.9447 69.3637 85.0042 69.7362 85.0042 70.1413C85.0042 70.6156 84.9217 71.0341 84.7569 71.397C84.592 71.7599 84.3408 72.0421 84.0053 72.2418C83.6698 72.4415 83.2729 72.5413 82.8185 72.5413C82.4907 72.5413 82.1916 72.4933 81.9232 72.3935C81.6529 72.2956 81.4094 72.142 81.1908 71.9346C80.9723 71.7272 80.794 71.47 80.6597 71.1647C80.5773 70.9842 80.5102 70.7692 80.4565 70.5196C80.4028 70.27 80.376 70.0242 80.376 69.7823C80.376 69.3503 80.4623 68.9624 80.6329 68.6188H80.631Z" fill="black"/>
<path d="M87.3761 72.0317C87.3685 72.2275 87.3474 72.3504 87.3129 72.4022C87.2841 72.4406 87.2343 72.4694 87.1614 72.4925C87.0885 72.5136 86.8853 72.527 86.5536 72.5328V72.7766C87.1672 72.7594 87.633 72.7498 87.9513 72.7498C88.3079 72.7498 88.6645 72.7594 89.023 72.7766V72.5328C88.6894 72.527 88.4862 72.5136 88.4134 72.4925C88.3405 72.4714 88.2868 72.4368 88.2542 72.3907C88.2216 72.3446 88.2025 72.2006 88.1967 71.9587C88.1852 71.6304 88.1794 71.2925 88.1794 70.9469V70.175C88.3903 70.1654 88.5974 70.1597 88.7987 70.1597C89.3662 70.1597 89.7305 70.177 89.8915 70.2096C89.9759 70.2269 90.0296 70.2538 90.0526 70.2902C90.066 70.3114 90.089 70.4592 90.1197 70.7376L90.1484 70.9814H90.4149L90.3862 70.0464L90.4149 69.1747H90.1484L90.1139 69.4109C90.0852 69.5971 90.0603 69.7046 90.0353 69.7334C90.0123 69.7622 89.9586 69.7834 89.8762 69.7968C89.6615 69.8294 89.3739 69.8467 89.0154 69.8467C88.7719 69.8467 88.492 69.8429 88.1756 69.8352V68.9885C88.1871 68.4758 88.1948 68.184 88.1967 68.1149C88.2025 67.9958 88.214 67.8672 88.2312 67.7309C88.5361 67.7002 88.8313 67.6848 89.117 67.6848C89.4026 67.6848 89.6538 67.6963 89.8685 67.7174C90.0852 67.7386 90.2654 67.7731 90.413 67.8192C90.459 67.9843 90.4935 68.2224 90.5185 68.5296H90.785C90.8041 67.9747 90.8501 67.5888 90.9211 67.3719C90.783 67.3623 90.6278 67.3546 90.4571 67.3507C90.2865 67.3469 90.0986 67.345 89.8915 67.345C89.6998 67.345 89.3298 67.3507 88.7815 67.3622C88.2331 67.3738 87.8535 67.3795 87.6426 67.3795C87.3435 67.3795 86.9793 67.3699 86.5498 67.3526V67.5965C86.8853 67.6022 87.0905 67.6157 87.1614 67.6368C87.2343 67.6579 87.286 67.6906 87.3186 67.7366C87.3512 67.7808 87.3723 67.9248 87.38 68.1667C87.3876 68.497 87.3934 68.8368 87.3934 69.1824V70.9507C87.3819 71.6208 87.3761 71.9818 87.3723 72.0336L87.3761 72.0317Z" fill="black"/>
<path d="M95.7953 67.7174C95.8969 67.7097 96.0656 67.7001 96.2995 67.6905C96.5334 67.6809 96.6849 67.6752 96.752 67.6752C97.0683 67.6752 97.3847 67.6925 97.701 67.7289C97.887 67.7501 98.0576 67.7885 98.2129 67.848C98.2532 68.0611 98.2704 68.2992 98.2685 68.5584H98.535C98.581 68.0515 98.6059 67.7865 98.6117 67.7635C98.6289 67.656 98.6596 67.5312 98.7056 67.3853C98.4564 67.3565 98.1937 67.343 97.9138 67.343C97.6339 67.343 97.1929 67.3469 96.5794 67.3545L95.3006 67.3737L94.0928 67.3507V67.5945C94.4283 67.6003 94.6334 67.6137 94.7044 67.6349C94.7772 67.656 94.829 67.6905 94.8616 67.7347C94.8942 67.7789 94.9153 67.9229 94.9229 68.1629C94.9306 68.4931 94.9364 68.831 94.9364 69.1766V71.1254C94.9364 71.3692 94.9287 71.6592 94.9114 71.9952C94.8999 72.2102 94.8808 72.3446 94.852 72.3945C94.8347 72.4272 94.806 72.4521 94.7676 72.4675C94.6737 72.5059 94.4801 72.5251 94.1829 72.5289V72.7728C94.8865 72.7555 95.2565 72.7459 95.293 72.7459L97.8218 72.7728C98.1688 72.7728 98.4641 72.7555 98.7075 72.7228C98.7075 72.3849 98.744 71.9587 98.8168 71.4441H98.5331C98.5139 71.5593 98.4717 71.7302 98.4104 71.9548C98.3759 72.0892 98.3433 72.1968 98.3088 72.2755C98.1784 72.3235 98.0384 72.358 97.8851 72.3792C97.7336 72.4003 97.4767 72.4099 97.1201 72.4099C96.6158 72.4099 96.1595 72.3964 95.7531 72.3676C95.7397 72.1238 95.732 71.7648 95.732 71.2944C95.732 70.7933 95.7397 70.415 95.7531 70.1597C96.1001 70.1462 96.3685 70.1405 96.5583 70.1405C97.0223 70.1405 97.3329 70.1558 97.4939 70.1865C97.584 70.2038 97.6454 70.2365 97.678 70.2825C97.7106 70.3286 97.7298 70.4457 97.7355 70.6339L97.7489 70.8931H98.0461L98.025 70.0022L98.0461 69.2073V69.1344H97.7911L97.7662 69.4013C97.747 69.5798 97.724 69.6835 97.6991 69.7142C97.6742 69.7449 97.6166 69.7661 97.5246 69.7757C97.2869 69.8045 97.0012 69.8179 96.6638 69.8179C96.3877 69.8179 96.0829 69.8083 95.7531 69.791L95.7703 68.5046C95.7761 68.2589 95.7838 67.9939 95.7953 67.7136V67.7174Z" fill="black"/>
<path d="M104.835 71.3788C104.589 71.1253 104.265 70.7778 103.861 70.3343L102.597 68.9481L101.731 67.9765C101.619 67.8421 101.445 67.6329 101.207 67.3525C100.996 67.3621 100.785 67.3679 100.571 67.3679C100.444 67.3679 100.137 67.3621 99.6504 67.3525V67.5964C99.8785 67.5983 100.026 67.606 100.093 67.6175C100.16 67.629 100.218 67.6559 100.27 67.6962C100.348 67.7596 100.4 67.8153 100.423 67.8594C100.435 67.8844 100.44 67.9401 100.44 68.0226V71.1292C100.44 71.373 100.433 71.6629 100.419 71.9989C100.408 72.214 100.389 72.3484 100.36 72.3983C100.343 72.4309 100.314 72.4559 100.275 72.4712C100.181 72.5096 99.9859 72.5289 99.6868 72.5327V72.7765C100.07 72.7592 100.427 72.7497 100.755 72.7497C101.054 72.7497 101.328 72.7592 101.577 72.7765V72.5327C101.284 72.5308 101.09 72.5116 100.996 72.4751C100.956 72.4597 100.927 72.4348 100.908 72.3983C100.883 72.3503 100.864 72.2178 100.852 72.0047C100.833 71.6629 100.824 71.3653 100.824 71.1138V68.1532L103.828 71.4229L104.374 72.0527C104.486 72.1756 104.656 72.3599 104.892 72.6018C104.98 72.692 105.034 72.7439 105.053 72.7554C105.067 72.765 105.082 72.7727 105.099 72.7784L105.201 72.7977L105.638 72.9128C105.624 71.8991 105.617 71.206 105.617 70.8335V68.998C105.617 68.7561 105.624 68.4681 105.638 68.1321C105.649 67.9132 105.669 67.7807 105.697 67.7308C105.715 67.6943 105.743 67.6693 105.782 67.654C105.876 67.6175 106.069 67.5983 106.365 67.5964V67.3525C106.102 67.3621 105.81 67.3679 105.488 67.3679C105.147 67.3679 104.81 67.3621 104.476 67.3525V67.5964C104.769 67.5983 104.963 67.6175 105.057 67.654C105.097 67.6693 105.126 67.6924 105.145 67.7269C105.17 67.7769 105.189 67.9074 105.201 68.1186C105.22 68.4527 105.23 68.7445 105.23 68.9941V71.7762C105.124 71.6802 104.992 71.5477 104.836 71.3807L104.835 71.3788Z" fill="black"/>
<path d="M110.014 67.725H110.531C110.673 67.725 110.865 67.7308 111.109 67.7442C111.352 67.7577 111.492 67.7673 111.532 67.7749C111.563 67.7826 111.586 67.7922 111.603 67.8057C111.619 67.8191 111.63 67.8402 111.64 67.8709C111.647 67.9017 111.663 68.0284 111.686 68.2492L111.72 68.6159H111.99C112.002 68.0591 112.025 67.6367 112.058 67.3525C111.826 67.3621 111.457 67.3737 110.951 67.3833C110.253 67.3986 109.809 67.4063 109.617 67.4063C109.439 67.4063 109.084 67.4005 108.549 67.3909C107.891 67.3756 107.408 67.3621 107.1 67.3525C107.125 67.5868 107.14 68.0073 107.142 68.6159H107.404L107.45 68.23C107.475 67.9957 107.504 67.8575 107.535 67.8133C107.554 67.7884 107.598 67.7711 107.665 67.7634C107.88 67.7385 108.169 67.725 108.534 67.725H109.164L109.189 68.3701C109.195 68.4969 109.197 68.614 109.197 68.7215V70.9468C109.184 71.6169 109.176 71.9778 109.176 72.0316C109.168 72.2274 109.145 72.3503 109.109 72.4021C109.084 72.4405 109.034 72.4693 108.961 72.4924C108.888 72.5135 108.685 72.5269 108.35 72.5327V72.7765C109.12 72.7554 109.561 72.7458 109.671 72.7458C109.926 72.7458 110.305 72.7554 110.809 72.7765V72.5327C110.474 72.5269 110.269 72.5135 110.198 72.4924C110.125 72.4712 110.073 72.4367 110.041 72.3906C110.008 72.3445 109.987 72.2005 109.979 71.9586C109.972 71.6303 109.966 71.2924 109.966 70.9468V68.7138C109.966 68.2991 109.979 67.9689 110.008 67.725H110.014Z" fill="black"/>
<path d="M114.404 67.7174C114.505 67.7097 114.674 67.7001 114.908 67.6905C115.142 67.6809 115.293 67.6752 115.36 67.6752C115.677 67.6752 115.993 67.6925 116.309 67.7289C116.495 67.7501 116.666 67.7885 116.821 67.848C116.862 68.0611 116.879 68.2992 116.877 68.5584H117.143C117.189 68.0515 117.214 67.7865 117.22 67.7635C117.237 67.656 117.268 67.5312 117.314 67.3853C117.065 67.3565 116.802 67.343 116.522 67.343C116.242 67.343 115.801 67.3469 115.188 67.3545L113.909 67.3737L112.701 67.3507V67.5945C113.037 67.6003 113.242 67.6137 113.313 67.6349C113.386 67.656 113.437 67.6905 113.47 67.7347C113.503 67.7789 113.524 67.9229 113.531 68.1629C113.539 68.4931 113.545 68.831 113.545 69.1766V71.1254C113.545 71.3692 113.537 71.6592 113.52 71.9952C113.508 72.2102 113.489 72.3446 113.46 72.3945C113.443 72.4272 113.414 72.4521 113.376 72.4675C113.282 72.5059 113.088 72.5251 112.791 72.5289V72.7728C113.495 72.7555 113.865 72.7459 113.901 72.7459L116.43 72.7728C116.777 72.7728 117.072 72.7555 117.316 72.7228C117.316 72.3849 117.352 71.9587 117.425 71.4441H117.141C117.122 71.5593 117.08 71.7302 117.019 71.9548C116.984 72.0892 116.952 72.1968 116.917 72.2755C116.787 72.3235 116.647 72.358 116.493 72.3792C116.34 72.4003 116.085 72.4099 115.728 72.4099C115.224 72.4099 114.768 72.3964 114.361 72.3676C114.348 72.1238 114.34 71.7648 114.34 71.2944C114.34 70.7933 114.348 70.415 114.361 70.1597C114.709 70.1462 114.977 70.1405 115.167 70.1405C115.631 70.1405 115.941 70.1558 116.102 70.1865C116.192 70.2038 116.254 70.2365 116.286 70.2825C116.319 70.3286 116.338 70.4457 116.344 70.6339L116.357 70.8931H116.654L116.633 70.0022L116.654 69.2073V69.1344H116.4L116.375 69.4013C116.355 69.5798 116.332 69.6835 116.307 69.7142C116.283 69.7449 116.225 69.7661 116.133 69.7757C115.895 69.8045 115.61 69.8179 115.272 69.8179C114.994 69.8179 114.691 69.8083 114.361 69.791L114.379 68.5046C114.384 68.2589 114.392 67.9939 114.404 67.7136V67.7174Z" fill="black"/>
<path d="M119.067 72.0316C119.059 72.2275 119.038 72.3503 119.003 72.4022C118.974 72.4406 118.925 72.4694 118.852 72.4924C118.779 72.5135 118.576 72.527 118.244 72.5327V72.7766C118.884 72.7593 119.341 72.7497 119.613 72.7497C119.948 72.7497 120.317 72.7593 120.719 72.7766V72.5327C120.387 72.527 120.184 72.5135 120.111 72.4924C120.039 72.4713 119.985 72.4367 119.952 72.3907C119.92 72.3446 119.901 72.2006 119.895 71.9587C119.881 71.6303 119.874 71.2924 119.874 70.9468V69.2515C119.891 68.5468 119.901 68.1763 119.902 68.1398C119.908 68.0207 119.916 67.8921 119.927 67.7539C120.207 67.6751 120.493 67.6348 120.782 67.6348C121.246 67.6348 121.592 67.727 121.82 67.9113C122.048 68.0956 122.163 68.3452 122.163 68.6582C122.163 69.0172 122.031 69.3071 121.764 69.526C121.499 69.7449 121.108 69.8543 120.595 69.8543C120.518 69.8543 120.407 69.8505 120.259 69.8428L120.217 69.958C120.485 70.2345 120.769 70.5436 121.066 70.8854C121.25 71.0908 121.463 71.3481 121.703 71.6553C122.136 72.2102 122.445 72.5827 122.629 72.7727C122.87 72.7555 123.074 72.7459 123.24 72.7459C123.407 72.7459 123.587 72.7555 123.8 72.7727V72.5289C123.656 72.5289 123.562 72.5231 123.52 72.5097C123.495 72.502 123.468 72.4886 123.444 72.4713C123.394 72.431 123.215 72.2332 122.911 71.8799L121.843 70.6147C121.58 70.3075 121.413 70.1097 121.342 70.0195C121.73 69.9427 122.044 69.8351 122.286 69.695C122.527 69.5548 122.711 69.3801 122.838 69.167C122.964 68.9558 123.028 68.7427 123.028 68.5295C123.028 68.3011 122.96 68.0879 122.824 67.894C122.688 67.7001 122.498 67.558 122.251 67.4716C122.004 67.3852 121.611 67.3411 121.072 67.3411C121.001 67.3411 120.746 67.3487 120.305 67.3622C119.966 67.3718 119.716 67.3756 119.555 67.3756L118.743 67.3583C118.516 67.3545 118.348 67.3507 118.238 67.3487V67.5926C118.574 67.5983 118.779 67.6118 118.85 67.6329C118.923 67.654 118.974 67.6867 119.007 67.7327C119.04 67.7769 119.061 67.9209 119.068 68.1628C119.076 68.4931 119.082 68.8329 119.082 69.1785V70.9468C119.07 71.6169 119.065 71.9779 119.061 72.0297L119.067 72.0316Z" fill="black"/>
<path d="M126.49 67.4043C126.312 67.4043 125.957 67.3986 125.422 67.389C124.764 67.3736 124.281 67.3602 123.973 67.3506C123.998 67.5848 124.013 68.0053 124.015 68.6139H124.277L124.324 68.228C124.348 67.9938 124.377 67.8555 124.408 67.8114C124.427 67.7864 124.471 67.7691 124.538 67.7615C124.753 67.7365 125.042 67.7231 125.407 67.7231H126.038L126.062 68.3682C126.068 68.4949 126.07 68.612 126.07 68.7195V70.9448C126.057 71.6149 126.049 71.9759 126.049 72.0296C126.041 72.2255 126.018 72.3483 125.982 72.4002C125.957 72.4386 125.907 72.4674 125.834 72.4904C125.761 72.5115 125.558 72.525 125.223 72.5307V72.7746C125.993 72.7535 126.434 72.7439 126.544 72.7439C126.799 72.7439 127.178 72.7535 127.682 72.7746V72.5307C127.347 72.525 127.142 72.5115 127.071 72.4904C126.998 72.4693 126.946 72.4347 126.914 72.3887C126.881 72.3426 126.86 72.1986 126.852 71.9567C126.845 71.6283 126.839 71.2904 126.839 70.9448V68.7119C126.839 68.2971 126.852 67.9669 126.881 67.7231H127.399C127.541 67.7231 127.732 67.7288 127.976 67.7423C128.219 67.7557 128.359 67.7653 128.4 67.773C128.43 67.7807 128.453 67.7903 128.47 67.8037C128.486 67.8171 128.497 67.8383 128.507 67.869C128.515 67.8997 128.53 68.0264 128.553 68.2472L128.587 68.6139H128.858C128.869 68.0571 128.892 67.6347 128.925 67.3506C128.693 67.3602 128.325 67.3717 127.819 67.3813C127.121 67.3967 126.676 67.4043 126.484 67.4043H126.49Z" fill="black"/>
<path d="M133.561 72.4885C133.494 72.5019 133.3 72.5096 132.986 72.5154V72.7746L134.351 72.7362C134.527 72.7362 134.834 72.7496 135.277 72.7746V72.5154C135.052 72.5134 134.91 72.4981 134.845 72.4693C134.782 72.4405 134.723 72.3829 134.669 72.2926C134.573 72.1352 134.377 71.7454 134.084 71.1234L132.272 67.293H132.002C131.622 68.1109 131.375 68.637 131.26 68.875L130.2 71.0293C129.883 71.6514 129.699 72.0085 129.648 72.1026C129.559 72.2677 129.492 72.3714 129.446 72.4098C129.4 72.4501 129.349 72.477 129.293 72.4904C129.237 72.5038 129.099 72.5134 128.875 72.5154V72.7746C129.201 72.7515 129.5 72.74 129.776 72.74C130.014 72.74 130.372 72.7515 130.85 72.7746V72.5154C130.587 72.5134 130.403 72.5019 130.299 72.4808C130.234 72.4674 130.186 72.4443 130.156 72.4117C130.133 72.3886 130.121 72.3598 130.121 72.3234C130.121 72.2427 130.161 72.1141 130.244 71.9374L130.704 70.9563H133.158L133.678 72.1256C133.718 72.2139 133.737 72.2869 133.737 72.3426C133.737 72.379 133.726 72.4078 133.701 72.4328C133.676 72.4578 133.63 72.475 133.563 72.4885H133.561ZM130.848 70.6318L131.929 68.3336L132.984 70.6318H130.848Z" fill="black"/>
<path d="M136.76 72.0315C136.752 72.2274 136.731 72.3503 136.697 72.4021C136.668 72.4405 136.618 72.4693 136.545 72.4923C136.472 72.5135 136.269 72.5269 135.938 72.5327V72.7765L137.245 72.7496C137.435 72.7496 137.828 72.7592 138.43 72.7765V72.5327C138.094 72.5269 137.889 72.5135 137.818 72.4923C137.745 72.4712 137.694 72.4367 137.661 72.3906C137.628 72.3445 137.607 72.2005 137.6 71.9586C137.592 71.6303 137.586 71.2923 137.586 70.9467V69.1784C137.598 68.5064 137.604 68.1455 137.607 68.0955C137.615 67.8997 137.636 67.7768 137.671 67.725C137.699 67.6866 137.749 67.6578 137.82 67.6347C137.891 67.6136 138.094 67.6002 138.43 67.5944V67.3506C137.883 67.3679 137.469 67.3775 137.186 67.3775C136.902 67.3775 136.476 67.3679 135.938 67.3506V67.5944C136.273 67.6002 136.478 67.6136 136.549 67.6347C136.622 67.6559 136.674 67.6885 136.706 67.7346C136.739 67.7787 136.76 67.9227 136.768 68.1647C136.775 68.4949 136.781 68.8347 136.781 69.1803V70.9487C136.77 71.6187 136.764 71.9797 136.76 72.0315Z" fill="black"/>
<path d="M144.312 71.3788C144.067 71.1253 143.743 70.7778 143.338 70.3343L142.075 68.9481L141.208 67.9765C141.097 67.8421 140.922 67.6329 140.685 67.3525C140.474 67.3621 140.263 67.3679 140.048 67.3679C139.922 67.3679 139.615 67.3621 139.128 67.3525V67.5964C139.356 67.5983 139.504 67.606 139.571 67.6175C139.638 67.629 139.695 67.6559 139.747 67.6962C139.826 67.7596 139.878 67.8153 139.901 67.8594C139.912 67.8844 139.918 67.9401 139.918 68.0226V71.1292C139.918 71.373 139.91 71.6629 139.897 71.9989C139.885 72.214 139.866 72.3484 139.837 72.3983C139.82 72.4309 139.791 72.4559 139.753 72.4712C139.659 72.5096 139.463 72.5289 139.164 72.5327V72.7765C139.548 72.7592 139.904 72.7497 140.232 72.7497C140.531 72.7497 140.806 72.7592 141.055 72.7765V72.5327C140.761 72.5308 140.568 72.5116 140.474 72.4751C140.434 72.4597 140.405 72.4348 140.386 72.3983C140.361 72.3503 140.342 72.2178 140.33 72.0047C140.311 71.6629 140.299 71.3653 140.299 71.1138V68.1532L143.304 71.4229L143.85 72.0527C143.959 72.1756 144.132 72.3599 144.368 72.6018C144.456 72.692 144.51 72.7439 144.529 72.7554C144.542 72.765 144.558 72.7727 144.575 72.7784L144.676 72.7977L145.114 72.9128C145.1 71.8991 145.092 71.206 145.092 70.8335V68.998C145.092 68.7561 145.1 68.4681 145.114 68.1321C145.125 67.9132 145.144 67.7807 145.173 67.7308C145.19 67.6943 145.219 67.6693 145.257 67.654C145.351 67.6175 145.545 67.5983 145.84 67.5964V67.3525C145.577 67.3621 145.286 67.3679 144.964 67.3679C144.623 67.3679 144.285 67.3621 143.952 67.3525V67.5964C144.245 67.5983 144.439 67.6175 144.533 67.654C144.573 67.6693 144.602 67.6924 144.621 67.7269C144.646 67.7769 144.665 67.9074 144.676 68.1186C144.696 68.4527 144.705 68.7445 144.705 68.9941V71.7762C144.6 71.6802 144.467 71.5477 144.312 71.3807V71.3788Z" fill="black"/>
<path d="M147.376 72.0315C147.369 72.2273 147.347 72.3502 147.313 72.4021C147.284 72.4405 147.234 72.4693 147.161 72.4923C147.089 72.5134 146.885 72.5269 146.554 72.5326V72.7765L147.608 72.7496L148.63 72.7765V72.5326C148.295 72.5269 148.089 72.5134 148.018 72.4923C147.946 72.4712 147.894 72.4366 147.861 72.3905C147.829 72.3445 147.808 72.2005 147.8 71.9585C147.788 71.6302 147.783 71.2923 147.783 70.9467V68.2702L149.807 72.0603L150.095 72.6133C150.126 72.6709 150.16 72.7496 150.196 72.8456H150.361C150.551 72.4309 150.691 72.1275 150.785 71.9374C150.915 71.6744 151.094 71.3288 151.324 70.8987L152.785 68.1435V70.9448C152.773 71.6149 152.766 71.9758 152.764 72.0296C152.758 72.2254 152.737 72.3483 152.7 72.4001C152.675 72.4385 152.626 72.4673 152.553 72.4904C152.48 72.5115 152.275 72.5249 151.939 72.5307V72.7745C152.585 72.7515 153.003 72.74 153.193 72.74C153.427 72.74 153.83 72.7515 154.401 72.7745V72.5307C154.067 72.5249 153.864 72.5115 153.791 72.4904C153.72 72.4693 153.667 72.4347 153.636 72.3886C153.603 72.3425 153.582 72.1985 153.575 71.9566C153.561 71.6283 153.554 71.2904 153.554 70.9448V69.1765C153.565 68.5045 153.573 68.1435 153.575 68.0936C153.58 67.8978 153.601 67.7749 153.638 67.723C153.667 67.6846 153.716 67.6558 153.787 67.6328C153.86 67.6117 154.064 67.5982 154.399 67.5925V67.3486C153.975 67.3582 153.669 67.364 153.479 67.364C153.272 67.364 153.021 67.3582 152.721 67.3486C152.589 67.6635 152.325 68.1915 151.928 68.9345L150.482 71.6686L148.875 68.6888C148.668 68.3048 148.442 67.8574 148.193 67.3486C147.942 67.3582 147.679 67.364 147.405 67.364C147.131 67.364 146.849 67.3582 146.554 67.3486V67.5925C146.889 67.5982 147.094 67.6117 147.165 67.6328C147.238 67.6539 147.29 67.6866 147.323 67.7326C147.355 67.7768 147.376 67.9208 147.384 68.1627C147.392 68.493 147.397 68.8328 147.397 69.1784V70.9467C147.386 71.6168 147.38 71.9777 147.376 72.0296V72.0315Z" fill="black"/>
<path d="M156.77 67.7174C156.872 67.7097 157.04 67.7001 157.274 67.6905C157.508 67.6809 157.66 67.6752 157.729 67.6752C158.045 67.6752 158.361 67.6925 158.678 67.7289C158.864 67.7501 159.034 67.7885 159.189 67.848C159.23 68.0611 159.247 68.2992 159.245 68.5584H159.512C159.558 68.0515 159.582 67.7865 159.588 67.7635C159.605 67.656 159.636 67.5312 159.682 67.3853C159.433 67.3565 159.17 67.343 158.89 67.343C158.61 67.343 158.169 67.3469 157.556 67.3545L156.277 67.3737L155.069 67.3507V67.5945C155.405 67.6003 155.61 67.6137 155.681 67.6349C155.754 67.656 155.806 67.6905 155.838 67.7347C155.871 67.7789 155.892 67.9229 155.899 68.1629C155.907 68.4931 155.913 68.831 155.913 69.1766V71.1254C155.913 71.3692 155.905 71.6592 155.888 71.9952C155.876 72.2102 155.857 72.3446 155.829 72.3945C155.811 72.4272 155.783 72.4521 155.744 72.4675C155.65 72.5059 155.457 72.5251 155.159 72.5289V72.7728C155.863 72.7555 156.233 72.7459 156.27 72.7459L158.798 72.7728C159.145 72.7728 159.441 72.7555 159.684 72.7228C159.684 72.3849 159.721 71.9587 159.795 71.4441H159.512C159.492 71.5593 159.45 71.7302 159.389 71.9548C159.354 72.0892 159.322 72.1968 159.287 72.2755C159.157 72.3235 159.017 72.358 158.864 72.3792C158.712 72.4003 158.455 72.4099 158.099 72.4099C157.594 72.4099 157.138 72.3964 156.732 72.3676C156.718 72.1238 156.71 71.7648 156.71 71.2944C156.71 70.7933 156.718 70.415 156.732 70.1597C157.079 70.1462 157.347 70.1405 157.537 70.1405C158.001 70.1405 158.311 70.1558 158.472 70.1865C158.563 70.2038 158.624 70.2365 158.656 70.2825C158.689 70.3286 158.708 70.4457 158.714 70.6339L158.727 70.8931H159.025L159.003 70.0022L159.025 69.2073V69.1344H158.77L158.745 69.4013C158.725 69.5798 158.702 69.6835 158.678 69.7142C158.653 69.7449 158.595 69.7661 158.503 69.7757C158.265 69.8045 157.98 69.8179 157.642 69.8179C157.366 69.8179 157.061 69.8083 156.732 69.791L156.749 68.5046C156.755 68.2589 156.762 67.9939 156.774 67.7136L156.77 67.7174Z" fill="black"/>
<path d="M165.81 71.3788C165.565 71.1253 165.241 70.7778 164.836 70.3343L163.573 68.9481L162.706 67.9765C162.595 67.8421 162.421 67.6329 162.183 67.3525C161.972 67.3621 161.761 67.3679 161.546 67.3679C161.42 67.3679 161.113 67.3621 160.626 67.3525V67.5964C160.854 67.5983 161.002 67.606 161.069 67.6175C161.136 67.629 161.193 67.6559 161.245 67.6962C161.324 67.7596 161.376 67.8153 161.399 67.8594C161.41 67.8844 161.416 67.9401 161.416 68.0226V71.1292C161.416 71.373 161.408 71.6629 161.395 71.9989C161.383 72.214 161.364 72.3484 161.335 72.3983C161.318 72.4309 161.289 72.4559 161.251 72.4712C161.157 72.5096 160.961 72.5289 160.662 72.5327V72.7765C161.046 72.7592 161.402 72.7497 161.73 72.7497C162.029 72.7497 162.304 72.7592 162.553 72.7765V72.5327C162.259 72.5308 162.066 72.5116 161.972 72.4751C161.932 72.4597 161.903 72.4348 161.884 72.3983C161.859 72.3503 161.84 72.2178 161.828 72.0047C161.809 71.6629 161.797 71.3653 161.797 71.1138V68.1532L164.802 71.4229L165.348 72.0527C165.457 72.1756 165.63 72.3599 165.866 72.6018C165.954 72.692 166.008 72.7439 166.027 72.7554C166.04 72.765 166.056 72.7727 166.073 72.7784L166.174 72.7977L166.612 72.9128C166.598 71.8991 166.59 71.206 166.59 70.8335V68.998C166.59 68.7561 166.598 68.4681 166.612 68.1321C166.623 67.9132 166.642 67.7807 166.671 67.7308C166.688 67.6943 166.717 67.6693 166.755 67.654C166.849 67.6175 167.043 67.5983 167.338 67.5964V67.3525C167.076 67.3621 166.784 67.3679 166.462 67.3679C166.121 67.3679 165.783 67.3621 165.45 67.3525V67.5964C165.743 67.5983 165.937 67.6175 166.031 67.654C166.071 67.6693 166.1 67.6924 166.119 67.7269C166.144 67.7769 166.163 67.9074 166.174 68.1186C166.194 68.4527 166.203 68.7445 166.203 68.9941V71.7762C166.098 71.6802 165.965 71.5477 165.81 71.3807V71.3788Z" fill="black"/>
<path d="M170.989 67.725H171.507C171.649 67.725 171.841 67.7308 172.084 67.7442C172.328 67.7577 172.468 67.7673 172.508 67.7749C172.539 67.7826 172.562 67.7922 172.579 67.8057C172.594 67.8191 172.606 67.8402 172.615 67.8709C172.623 67.9017 172.638 68.0284 172.661 68.2492L172.696 68.6159H172.966C172.978 68.0591 173.001 67.6367 173.033 67.3525C172.801 67.3621 172.433 67.3737 171.927 67.3833C171.229 67.3986 170.784 67.4063 170.593 67.4063C170.414 67.4063 170.06 67.4005 169.525 67.3909C168.867 67.3756 168.384 67.3621 168.075 67.3525C168.1 67.5868 168.115 68.0073 168.117 68.6159H168.38L168.426 68.23C168.451 67.9957 168.48 67.8575 168.51 67.8133C168.53 67.7884 168.574 67.7711 168.641 67.7634C168.856 67.7385 169.145 67.725 169.509 67.725H170.14L170.165 68.3701C170.171 68.4969 170.173 68.614 170.173 68.7215V70.9468C170.159 71.6169 170.152 71.9778 170.152 72.0316C170.144 72.2274 170.121 72.3503 170.084 72.4021C170.06 72.4405 170.01 72.4693 169.937 72.4924C169.864 72.5135 169.661 72.5269 169.325 72.5327V72.7765C170.096 72.7554 170.537 72.7458 170.646 72.7458C170.901 72.7458 171.281 72.7554 171.785 72.7765V72.5327C171.45 72.5269 171.244 72.5135 171.173 72.4924C171.101 72.4712 171.049 72.4367 171.016 72.3906C170.984 72.3445 170.963 72.2005 170.955 71.9586C170.947 71.6303 170.941 71.2924 170.941 70.9468V68.7138C170.941 68.2991 170.955 67.9689 170.984 67.725H170.989Z" fill="black"/>
</svg>
