<svg width="201" height="91" viewBox="0 0 201 91" fill="none" xmlns="http://www.w3.org/2000/svg">
<path d="M74.0477 45.6474C79.1685 43.446 82.7483 38.4199 82.7483 32.5689C82.7483 24.6887 76.2579 18.3008 68.2496 18.3008C67.7106 18.3008 67.1789 18.332 66.655 18.3884H26.8799V32.4427H33.8516V60.2196H26.8799V74.2739H69.1783C69.4664 74.2902 69.7555 74.3008 70.0476 74.3008C78.2395 74.3008 84.8799 67.7648 84.8799 59.703C84.8799 53.01 80.2955 47.3688 74.0481 45.6501L74.0477 45.6474ZM52.3048 32.858C52.3048 32.6748 52.4559 32.526 52.6421 32.526H62.634C63.193 32.526 63.646 32.9719 63.646 33.522V39.7054C63.646 40.2555 63.193 40.7014 62.634 40.7014H52.6388C52.4526 40.7014 52.3014 40.5526 52.3014 40.3694V32.858H52.3048ZM64.1537 59.053C64.1537 59.6891 63.6804 60.2057 63.0965 60.2057H52.655C52.4603 60.2057 52.3028 60.0337 52.3028 59.8216V51.13C52.3028 50.9175 52.4607 50.7458 52.655 50.7458H63.0948C63.6784 50.7458 64.152 51.2624 64.152 51.8985V59.053H64.1537Z" fill="black"/>
<path d="M85.8799 18.3008V32.3599H92.4694V60.3307H85.8799V74.3008H117.159V60.3307H110.653V32.3599V28.044V18.3008L85.8799 18.3008ZM133.091 18.3008C125.35 18.3008 119.078 24.594 119.078 32.3566V60.2443C119.078 68.0063 125.35 74.3008 133.091 74.3008H160.867C168.607 74.3008 174.88 68.0063 174.88 60.2443V41.4066H156.696H151.942V51.3663H156.696V58.2624C156.696 59.3579 155.799 60.2477 154.694 60.2477H139.263C138.159 60.2477 137.261 59.3579 137.261 58.2624V34.5118C137.261 33.4153 138.159 32.5259 139.263 32.5259H154.694C155.799 32.5259 156.696 33.4153 156.696 34.5118V37.2567H174.88V32.3566C174.88 24.594 168.607 18.3008 160.867 18.3008H133.091Z" fill="#0088CE"/>
</svg>
