<svg width="201" height="91" viewBox="0 0 201 91" fill="none" xmlns="http://www.w3.org/2000/svg">
<path d="M55.8799 43.4531C55.8799 55.9039 55.8799 68.3558 55.8799 80.809C55.8799 86.194 59.7914 90.1127 65.1547 90.1145C89.057 90.1145 112.96 90.1145 136.863 90.1145C142.281 90.1145 146.183 86.2012 146.185 80.7638C146.185 68.3263 146.185 55.8894 146.185 43.4531H55.8799ZM143.007 47.1461C141.031 53.2667 139.048 59.3843 137.058 65.499C135.18 71.2777 133.299 77.0504 131.413 82.8171C130.821 84.6338 130.194 86.4414 129.656 88.2743C129.501 88.8053 129.246 88.9281 128.771 88.9281C122.451 88.9281 116.13 88.9323 109.81 88.9407C109.245 88.9407 109.046 88.6879 108.891 88.1859C107.661 84.1877 106.404 80.1986 105.151 76.2077C103.385 70.5866 101.618 64.965 99.8524 59.3428C98.8808 56.2295 97.94 53.1072 96.9847 49.9903C96.9671 49.9113 96.93 49.8379 96.8767 49.777C96.8233 49.7161 96.7555 49.6696 96.6795 49.6418V55.2128H83.7785V88.8522H70.6228V55.1876H58.3106V44.8942H107.507C108.855 44.8942 108.826 44.8942 109.214 46.1764C110.559 50.5826 111.923 54.9817 113.286 59.3843C114.335 62.7842 115.381 66.1864 116.426 69.591C117.333 72.5322 118.243 75.4715 119.157 78.409L119.406 78.4469C119.906 76.8903 120.414 75.3354 120.907 73.777C122.539 68.6195 124.168 63.4602 125.793 58.299C127.101 54.1365 128.41 49.9723 129.672 45.7953C129.889 45.073 130.151 44.8545 130.955 44.8635C134.927 44.9086 138.9 44.8454 142.873 44.8238C143.079 44.8238 143.285 44.8527 143.626 44.8779C143.406 45.6797 143.24 46.4238 143.007 47.1461Z" fill="#F39D2E"/>
<path d="M119.406 78.4513C119.906 76.8946 120.414 75.3398 120.907 73.7813C122.539 68.6238 124.168 63.4645 125.793 58.3034C127.101 54.1409 128.41 49.9766 129.672 45.7997C129.889 45.0773 130.149 44.8588 130.955 44.8678C134.927 44.913 138.9 44.8498 142.873 44.8281C143.079 44.8281 143.285 44.857 143.626 44.8823C143.413 45.6805 143.247 46.4245 143.014 47.1468C141.038 53.2675 139.056 59.3851 137.066 65.4997C135.187 71.2784 133.306 77.0511 131.42 82.8178C130.828 84.6345 130.201 86.4421 129.663 88.2751C129.508 88.806 129.253 88.9288 128.778 88.9288C122.458 88.9288 116.138 88.933 109.817 88.9414C109.252 88.9414 109.053 88.6886 108.898 88.1866C107.668 84.1884 106.411 80.1993 105.158 76.2084C103.392 70.5874 101.626 64.9658 99.8596 59.3436C98.888 56.2303 97.9472 53.1079 96.9919 49.991C96.9744 49.912 96.9372 49.8386 96.8839 49.7777C96.8305 49.7168 96.7627 49.6703 96.6867 49.6425V55.2136H83.7785V88.853H70.6228V55.1883H58.3105V44.8949H107.507C108.855 44.8949 108.826 44.8949 109.214 46.1771C110.559 50.5834 111.923 54.9824 113.286 59.3851C114.335 62.7849 115.381 66.1871 116.426 69.5918C117.333 72.5329 118.243 75.4722 119.157 78.4097L119.406 78.4513Z" fill="white"/>
<path fill-rule="evenodd" clip-rule="evenodd" d="M96.8997 13.1767C96.8997 13.3663 97.2609 13.7184 97.4613 13.7184C100.734 13.7528 104.006 13.7419 107.437 13.7419V5.62824H96.8744C96.8744 8.19435 96.8618 10.6864 96.8997 13.1767Z" fill="white"/>
<path fill-rule="evenodd" clip-rule="evenodd" d="M124.932 30.316C132.096 25.0791 139.086 19.9775 146.178 14.8002V9.17493C146.179 7.90676 145.913 6.65257 145.396 5.4946H110.158V9.33926C110.158 10.4842 110.211 11.6309 110.138 12.7704C110.086 13.5884 110.5 13.6209 111.117 13.6209C117.83 13.6065 124.543 13.6035 131.256 13.6119H132.285L132.325 13.825L107.31 31.6885V15.5351H98.1782C96.9737 15.5351 96.9737 15.5351 96.9719 16.7866V24.4199C95.3665 22.8813 93.5733 22.1464 91.4587 21.787C91.9769 21.5504 92.3489 21.3771 92.7228 21.2109C94.0464 20.6276 94.8898 19.5857 95.3069 18.2511C95.9787 16.1455 95.9245 13.9622 95.632 11.8187C95.1932 8.59525 93.0261 6.83274 90.0212 6.08512C88.5972 5.726 87.1358 5.53627 85.6673 5.51988C76.425 5.46932 67.1844 5.4946 57.9421 5.4946H56.678C56.1574 6.65482 55.8891 7.91231 55.8906 9.18395L55.9141 38.5706H57.1367C66.9509 38.5706 76.7626 38.5706 86.572 38.5706C90.4438 38.5706 93.6347 38.269 96.9719 35.5909C96.9719 36.4523 96.99 37.1746 96.9719 37.8952C96.9539 38.4062 97.1688 38.6175 97.6672 38.576C97.9362 38.5561 98.2089 38.576 98.4798 38.576H146.181V30.316H124.932ZM65.3388 13.6607C65.5447 13.6444 65.7199 13.6191 65.8968 13.6191C71.6106 13.6191 77.3243 13.6191 83.038 13.6191C84.3129 13.6191 85.0948 14.1212 85.4127 15.0223C85.7991 16.1184 85.5824 17.3374 84.7572 17.8791C84.2602 18.2086 83.6825 18.396 83.0867 18.4209C77.1942 18.4588 71.3 18.4444 65.3388 18.4444V13.6607ZM65.3118 25.5919C65.6368 25.5757 65.9528 25.5486 66.267 25.5486C71.8652 25.5486 77.4633 25.5486 83.0615 25.5486C83.6008 25.544 84.1389 25.6016 84.6651 25.7201C85.9562 26.0325 86.4998 26.8036 86.4709 28.1382C86.4474 29.3084 85.8389 29.9729 84.5314 30.2275C84.1501 30.3094 83.7619 30.3547 83.3721 30.363C77.5344 30.3726 71.6954 30.3726 65.8553 30.363C65.7054 30.363 65.5555 30.3449 65.3136 30.3305L65.3118 25.5919Z" fill="white"/>
<path d="M145.421 5.46827H110.185V9.31292C110.185 10.4578 110.237 11.6045 110.165 12.744C110.113 13.5621 110.526 13.5946 111.142 13.5946C117.856 13.5801 124.57 13.5801 131.283 13.5946H132.31L132.35 13.8077L107.337 31.6621V15.4998H98.205C97.0005 15.4998 96.9987 15.4998 96.9987 16.7512V24.3846C95.3933 22.846 93.6001 22.1128 91.4854 21.7516C92.0037 21.5151 92.3757 21.3417 92.7495 21.1756C94.0732 20.5923 94.9075 19.5503 95.3337 18.2158C96.0055 16.112 95.9928 13.9215 95.6587 11.7833C95.1621 8.61045 93.0005 6.84252 90.048 6.04975C88.6164 5.68468 87.1443 5.50265 85.667 5.50799C76.4246 5.45743 57.1345 5.48271 56.6722 5.48271C56.7813 5.22382 56.9136 4.9754 57.0677 4.74051C58.9079 1.67056 61.6293 0.126561 65.2067 0.126561C82.0047 0.126561 98.8027 0.126561 115.601 0.126561C122.795 0.126561 129.99 0.0994725 137.184 0.137395C140.503 0.155454 143.066 1.64889 144.874 4.4299C145 4.63419 145.116 4.84518 145.22 5.06195C145.26 5.1396 145.421 5.46827 145.421 5.46827ZM107.462 13.712V5.6037H96.9012C96.9012 8.16982 96.8885 10.6601 96.9265 13.1522C96.9265 13.3327 97.2876 13.6939 97.4881 13.6939C100.76 13.73 104.032 13.712 107.462 13.712ZM124.959 30.2897H146.177V14.8009L124.959 30.2897ZM65.8785 30.3439C71.7174 30.3439 77.5563 30.3439 83.3952 30.3439C83.7851 30.3356 84.1733 30.2903 84.5546 30.2084C85.862 29.9538 86.4706 29.2892 86.494 28.1191C86.5193 26.7773 85.974 26.0134 84.6882 25.701C84.162 25.5825 83.6239 25.5249 83.0846 25.5295C77.4865 25.5186 71.8883 25.5186 66.2902 25.5295C65.976 25.5295 65.6599 25.5584 65.3349 25.5728V30.3186C65.5787 30.3258 65.7286 30.3439 65.8785 30.3439ZM65.3566 18.4144C71.3159 18.4144 77.212 18.4289 83.1045 18.3909C83.7002 18.366 84.2779 18.1787 84.7749 17.8492C85.6001 17.3074 85.8168 16.0885 85.4304 14.9923C85.1126 14.0894 84.3306 13.5928 83.0557 13.5892C77.342 13.5759 71.6283 13.5759 65.9146 13.5892C65.734 13.5892 65.5534 13.6145 65.3566 13.6307V18.4144ZM146.19 43.3984C146.19 42.1072 146.179 40.8431 146.179 39.5501C146.179 39.2305 146.19 38.8819 146.19 38.5063C145.648 38.5063 145.255 38.5352 144.836 38.5352H98.503C98.2321 38.5352 97.9612 38.5171 97.6903 38.5352C97.1919 38.5713 96.977 38.3655 96.9951 37.8544C97.0186 37.1321 96.9951 36.4097 96.9951 35.5501C93.6579 38.2282 90.4669 38.5262 86.5952 38.5298C76.7798 38.5382 66.968 38.5382 57.1598 38.5298H55.9102V39.5013C55.9102 40.8076 55.9102 42.1144 55.9102 43.4218L146.19 43.3984Z" fill="black"/>
</svg>
