<svg width="201" height="91" viewBox="0 0 201 91" fill="none" xmlns="http://www.w3.org/2000/svg">
<path d="M0.879883 27.1094H15.5424C18.3353 27.1094 20.4299 27.8076 21.9815 28.9713C23.6883 30.3677 24.6192 32.3848 24.6192 34.8673C24.6192 37.7378 23.4555 39.5221 21.1281 40.6082V40.7634C24.2313 41.7719 26.0156 44.5648 26.0156 47.9007C26.0156 51.0814 24.7744 53.564 22.7573 55.1156C21.0506 56.3569 18.8783 56.8999 15.9303 56.8999H0.879883V27.1094ZM14.0684 38.7463C15.62 38.7463 16.7837 37.8929 16.7837 36.1086C16.7837 34.4018 15.62 33.5485 13.9908 33.5485H8.94815V38.6687H14.0684V38.7463ZM14.7666 50.3057C16.5509 50.3057 17.8698 49.2195 17.8698 47.28C17.8698 45.1854 16.4734 44.2544 14.7666 44.2544H9.02573V50.3832H14.7666V50.3057Z" fill="black"/>
<path d="M27.335 27.1094H35.0153V56.9775H27.335V27.1094Z" fill="black"/>
<path d="M36.5664 46.3496C36.5664 39.6002 40.9109 35.1006 47.6603 35.1006C54.4097 35.1006 58.6766 39.6778 58.6766 46.3496C58.6766 53.099 54.4097 57.5986 47.6603 57.5986C40.9109 57.5986 36.5664 53.099 36.5664 46.3496ZM50.9962 46.3496C50.9962 42.6258 49.8325 40.2984 47.5051 40.2984C45.1777 40.2984 44.0916 42.6258 44.0916 46.3496C44.0916 50.0734 45.1777 52.4784 47.5051 52.4784C49.8325 52.4008 50.9962 50.0734 50.9962 46.3496Z" fill="black"/>
<path d="M59.5303 46.3496C59.5303 39.6002 63.8747 35.1006 70.6241 35.1006C77.3736 35.1006 81.5629 39.6002 81.5629 46.3496C81.5629 53.099 77.296 57.5986 70.5466 57.5986C63.8747 57.5986 59.5303 53.099 59.5303 46.3496ZM73.9601 46.3496C73.9601 42.6258 72.7964 40.2984 70.469 40.2984C68.1416 40.2984 67.0555 42.6258 67.0555 46.3496C67.0555 50.0734 68.1416 52.4784 70.469 52.4784C72.7964 52.4008 73.9601 50.0734 73.9601 46.3496Z" fill="black"/>
<path d="M83.1143 35.6431H90.2516V38.8239H90.4067C91.8032 36.3413 93.7426 35.0225 96.8458 35.0225C99.5611 35.0225 101.578 36.3413 102.587 38.6687H102.742C104.449 35.8758 106.698 35.0225 109.336 35.0225C114.301 35.0225 116.396 38.6687 116.396 43.5562V56.8999H108.948V44.8751C108.948 42.7028 108.25 41.3064 106.388 41.3064C104.526 41.3064 103.595 43.0132 103.595 45.3405V56.8999H96.1476V44.8751C96.1476 42.7028 95.4494 41.3064 93.5875 41.3064C91.7256 41.3064 90.7946 43.0132 90.7946 45.3405V56.8999H83.1143V35.6431Z" fill="black"/>
<path d="M125.783 54.1071H125.706V56.8999H118.568V27.1094H126.016V37.8153H126.171C127.568 35.9534 129.507 34.9449 132.222 34.9449C137.575 34.9449 140.679 39.7548 140.679 46.1939C140.679 53.4088 137.343 57.5981 131.757 57.5981C129.429 57.5981 127.025 56.512 125.783 54.1071ZM132.998 46.1164C132.998 42.7029 131.757 40.4531 129.507 40.4531C127.18 40.4531 125.783 42.7029 125.783 46.1164C125.783 49.5299 127.257 51.7797 129.507 51.7797C131.757 51.7797 132.998 49.6074 132.998 46.1164Z" fill="black"/>
<path d="M141.531 46.2715C141.531 39.5997 145.953 35.0225 152.315 35.0225C155.496 35.0225 157.901 36.031 159.762 37.8153C162.245 40.2203 163.331 43.9441 163.254 48.2886H148.979C149.289 50.9263 150.53 52.3227 152.78 52.3227C154.099 52.3227 155.263 51.7021 155.728 50.3056H162.943C161.702 55.1931 157.901 57.5981 152.548 57.5981C145.953 57.5205 141.531 53.0209 141.531 46.2715ZM148.979 44.0217H155.806C155.651 41.4616 154.254 40.1427 152.47 40.1427C150.375 40.0651 149.212 41.5391 148.979 44.0217Z" fill="black"/>
<path d="M171.71 39.2894H171.865C173.416 36.3414 175.433 35.1777 177.994 35.1777C178.614 35.1777 179.002 35.2553 179.235 35.4105V41.9272H179.08C174.658 41.1514 172.097 43.246 172.097 48.0559V56.9776H164.572V35.6432H171.71V39.2894Z" fill="black"/>
<path d="M180.011 56.9779H187.226C187.536 57.9089 188.467 58.7622 190.251 58.7622C192.656 58.7622 193.51 57.2882 193.51 55.0384V53.4868H193.355C192.191 54.8832 190.562 55.8918 188.234 55.8918C183.657 55.8918 179.623 52.4783 179.623 45.8064C179.623 39.6777 182.881 34.9453 187.846 34.9453C190.717 34.9453 192.424 36.109 193.587 37.8933H193.743V35.5659H200.88V54.0299C200.88 57.4434 199.716 60.0811 197.932 61.6327C196.07 63.2618 193.432 63.9601 190.407 63.9601C184.666 64.0376 180.709 61.7102 180.011 56.9779ZM193.82 45.4961C193.82 42.8584 192.579 40.6862 190.407 40.6862C188.312 40.6862 186.993 42.5481 186.993 45.4961C186.993 48.3666 188.312 50.3836 190.407 50.3836C192.501 50.3836 193.82 48.289 193.82 45.4961Z" fill="black"/>
</svg>
