<svg width="201" height="91" viewBox="0 0 201 91" fill="none" xmlns="http://www.w3.org/2000/svg">
<path d="M22.1157 34.4473H0.879883V62.3775H22.1157C27.3115 62.3775 29.6191 60.3347 29.6191 55.7671V52.8484C29.6888 51.0886 28.8483 49.4225 27.4105 48.4707C28.8551 47.4543 29.6772 45.7321 29.5765 43.9323V41.5975C29.5767 36.8405 27.085 34.4473 22.1157 34.4473ZM7.68949 51.0976H20.6009C21.909 50.8544 23.1606 51.7505 23.3963 53.099C23.4154 53.209 23.4277 53.3205 23.4321 53.4327V54.7457C23.3862 56.1102 22.2788 57.1803 20.9547 57.1389H20.6716H7.68949V51.0829V51.0976ZM20.6009 45.8004H7.68949V39.7445H20.6009C21.9722 39.5906 23.206 40.6082 23.3614 42.0209V43.4803C23.3156 44.8449 22.2081 45.9144 20.884 45.8735L20.6009 45.8004Z" fill="#C8AB37"/>
<path d="M100.986 54.7158C100.986 55.8245 99.57 57.0796 97.7721 57.0796H89.0371C87.3947 57.0796 85.8235 55.9268 85.8235 54.7158V34.8262H79.127V54.7158C79.127 58.9477 83.6292 62.3768 89.1646 62.3768H97.843C103.378 62.3768 107.881 58.9477 107.881 54.7158V34.8262H100.986V54.7158H100.986Z" fill="#C8AB37"/>
<path d="M129.187 34.4473H120.508C114.973 34.4473 110.471 37.8766 110.471 42.1085V62.2752H117.351V42.1085C117.351 40.8681 118.909 39.7445 120.565 39.7445H129.244C131.084 39.7445 132.458 40.9848 132.458 42.1085V62.2752H139.281V42.1085C139.224 37.8913 134.723 34.4473 129.187 34.4473Z" fill="#C8AB37"/>
<path d="M161.112 34.4473H152.377C146.869 34.4473 142.467 37.8766 142.467 42.1085V54.7165C142.467 59.0213 146.855 62.3775 152.377 62.3775H161.112C166.775 62.3775 171.022 59.0066 171.022 54.7165V54.1912H164.255V54.7165C164.255 55.9566 162.754 57.0803 161.041 57.0803H152.306C150.593 57.0803 149.092 55.9716 149.092 54.7165V42.1085C149.092 40.8681 150.649 39.7445 152.306 39.7445H161.041C162.683 39.7445 164.255 40.8973 164.255 42.1085V42.6338H171.149V42.1085C171.149 37.8913 166.619 34.4473 161.112 34.4473Z" fill="#C8AB37"/>
<path d="M200.88 40.1241V34.8271H177.959C175.682 34.7778 173.789 36.6247 173.712 38.9713V57.8981C173.625 60.1608 175.333 62.0687 177.529 62.1588C177.531 62.1588 177.533 62.1588 177.535 62.1592H200.88V56.9204H180.494V51.0832H196.633V45.786H180.494V40.1241H200.88Z" fill="#C8AB37"/>
<path d="M67.5605 68.2872L35.8483 63.3255C32.4083 62.8004 31.9551 59.3564 31.9551 54.9786V41.4514C31.9551 37.234 32.4364 33.659 35.8483 32.8709L66.8952 25.7935C74.2994 24.0715 76.2957 29.1497 76.2957 35.833V57.4302C76.2957 64.2596 75.0641 69.469 67.5605 68.2872ZM67.8012 36.8983C67.8012 34.549 67.5888 32.3456 64.9696 32.798L37.2922 37.4675C35.8766 37.6864 35.7491 39.3207 35.7491 40.9843V55.2559C35.7491 57.0361 35.9192 58.5393 37.2922 58.6558L64.9696 61.2972C67.6314 61.5456 67.8719 59.4732 67.8719 56.9193L67.8012 36.8983Z" fill="#C8AB37"/>
</svg>
