<svg width="201" height="92" viewBox="0 0 201 92" fill="none" xmlns="http://www.w3.org/2000/svg">
<path d="M140.84 30.2988C137.411 30.2988 134.824 32.831 134.824 36.4676C134.824 40.1061 137.411 42.6382 140.84 42.6382C144.269 42.6382 146.876 40.1061 146.876 36.4676C146.876 32.831 144.269 30.2988 140.84 30.2988Z" fill="#2DC6B9"/>
<path d="M98.3373 30.2988C94.7288 30.2988 92.543 33.0918 92.543 36.4676C92.543 39.8443 94.7288 42.6382 98.3373 42.6382C101.787 42.6382 104.133 39.9844 104.133 36.4676C104.133 32.9507 101.787 30.2988 98.3373 30.2988Z" fill="#2DC6B9"/>
<path d="M62.2377 30.2988C58.7881 30.2988 56.4434 32.9508 56.4434 36.4676C56.4434 39.9843 58.7881 42.6382 62.2377 42.6382C65.8479 42.6382 68.0329 39.8444 68.0329 36.4676C68.0329 33.0918 65.848 30.2988 62.2377 30.2988Z" fill="#2DC6B9"/>
<path d="M41.8799 1.04297V91.043L66.4742 67.7324H159.822V1.04297H41.8799ZM62.7389 46.5962C59.9916 46.5962 58.0677 45.4898 56.7255 43.8032V46.0938H52.5327V21.1269L56.7255 17.1544V29.1323C58.0677 27.4449 59.9916 26.3385 62.7389 26.3385C68.1132 26.3385 72.3435 30.581 72.3435 36.4669C72.3435 42.3555 68.1132 46.5962 62.7389 46.5962ZM87.1698 31.0411C86.2877 30.5808 85.0049 30.3382 83.9814 30.3382C81.3162 30.3382 79.4115 32.2069 79.4115 35.5022V46.0937H75.2197V26.8416H79.3696V29.0113C80.6533 27.1637 82.5982 26.3383 84.9438 26.3383C86.2276 26.3383 87.2101 26.4984 88.1743 26.8827L87.1698 31.0411ZM108.062 46.0938H103.871V43.7822C102.527 45.4898 100.583 46.5962 97.8354 46.5962C92.4611 46.5962 88.2318 42.3556 88.2318 36.4668C88.2318 30.5809 92.4611 26.3384 97.8354 26.3384C100.583 26.3384 102.527 27.4631 103.871 29.1725V26.8417H108.062V46.0938ZM122.819 46.0938H117.846L110.127 26.8417H114.699L120.373 41.7323L126.048 26.8417H130.499L122.819 46.0938ZM140.839 46.5962C134.905 46.5962 130.513 42.2347 130.513 36.4668C130.513 30.6998 134.905 26.3384 140.839 26.3384C146.775 26.3384 151.187 30.6998 151.187 36.4668C151.187 42.2347 146.775 46.5962 140.839 46.5962Z" fill="#2DC6B9"/>
</svg>
