<svg width="201" height="91" viewBox="0 0 201 91" fill="none" xmlns="http://www.w3.org/2000/svg">
<path d="M101.88 90.2441C126.733 90.2441 146.88 70.097 146.88 45.2441C146.88 20.3913 126.733 0.244141 101.88 0.244141C77.0271 0.244141 56.8799 20.3913 56.8799 45.2441C56.8799 70.097 77.0271 90.2441 101.88 90.2441Z" fill="#FF4E02"/>
<path fill-rule="evenodd" clip-rule="evenodd" d="M64.1484 36.8008V52.9107H71.7067C75.3905 52.9107 77.8393 51.5665 77.8393 48.4505C77.8393 45.9398 76.5175 44.949 74.6144 44.5282C76.4274 44.0658 77.0955 42.6667 77.0955 41.1846C77.0955 37.9497 74.4066 36.8008 71.8552 36.8008H64.1484ZM69.5747 40.6376H70.2505C71.2863 40.6376 71.7781 41.0151 71.7781 41.8003C71.7781 42.5166 71.2309 42.8871 70.2539 42.8871H69.5747V40.6376ZM69.5747 46.3513H70.5767C71.641 46.3513 72.3389 46.7604 72.3389 47.6539C72.3389 48.5238 71.5615 48.9166 70.6242 48.9166H69.5747V46.3513Z" fill="#FFF2D9"/>
<path fill-rule="evenodd" clip-rule="evenodd" d="M78.2266 36.8008V46.082C78.2266 51.5099 81.8666 53.3385 85.4536 53.3385C88.9714 53.3385 93.0136 51.8096 93.0136 46.082V36.8008H87.2257V45.9642C87.2257 47.4182 86.7756 48.2631 85.6201 48.2631C84.4646 48.2631 84.0145 47.4733 84.0145 45.9642V36.8008H78.2266Z" fill="#FFF2D9"/>
<path fill-rule="evenodd" clip-rule="evenodd" d="M93.7049 36.8008V41.605H99.1347L92.3447 52.9107H108.191H108.266H124.042V48.0051H117.67L124.407 36.8008H108.567H108.554H93.7049ZM108.554 36.8228V41.605H114.981L108.266 52.7855V48.0051H101.83L108.554 36.8228Z" fill="#FFF2D9"/>
<path fill-rule="evenodd" clip-rule="evenodd" d="M124.752 36.8008V52.9106H130.429V47.6033L133.244 52.9106H139.729L135.431 46.3522C137.329 46.0899 138.522 44.53 138.522 42.1804C138.522 38.6463 136.116 36.8008 132.049 36.8008H124.752ZM130.429 40.9506H131.208C132.448 40.9506 133.028 41.4841 133.028 42.5521C133.028 43.5916 132.418 44.0977 131.232 44.0977H130.429V40.9506Z" fill="#FFF2D9"/>
<path fill-rule="evenodd" clip-rule="evenodd" d="M108.554 36.8223V41.6045H114.981L108.266 52.785V48.0046H101.83L108.554 36.8223Z" fill="#583293"/>
</svg>
