<svg width="201" height="91" viewBox="0 0 201 91" fill="none" xmlns="http://www.w3.org/2000/svg">
<path d="M161.332 37.0759L153.813 58.2939H153.762L146.231 37.0759H134.478V30.3145H130.034L130.053 53.1388C130.053 56.43 131.042 59.2333 132.966 61.1882C134.889 63.1582 137.65 64.2007 140.907 64.2432H143.768H144.353L142.807 60.0213H142.511C140.995 60.0213 140.935 60.0213 140.889 60.0154L140.871 60.0092C138.719 59.9639 137.041 59.197 135.927 57.8181C135.023 56.6817 134.491 55.2631 134.491 53.3538L134.478 41.3553H143.029L151.363 64.2613H156.194L166.093 37.0759H161.332Z" fill="#51C8E7"/>
<path d="M86.762 75.7266H79.5022L83.9068 64.0432L73.7037 37.0819L77.3624 37.085C79.4203 37.085 81.6208 38.7398 82.3119 40.7794L87.5596 55.4028L93.8696 37.0819H101.199L86.762 75.7266ZM61.7745 64.3281C53.7355 64.3281 48.0891 58.0243 48.0891 50.302V25.026H51.3247C53.279 25.0775 54.8557 26.6382 54.9257 28.5931V38.7125C56.9073 37.5729 59.2542 36.8942 61.8689 36.8942C64.9432 36.8942 67.6705 37.8367 69.8621 39.3974L69.9808 39.4793L70.5593 39.9278L71.2288 40.5097L71.3386 40.5975C73.8985 43.0527 75.4692 46.5772 75.4692 50.5292C75.4692 58.0243 69.8621 64.3281 61.7745 64.3281ZM122.041 61.9763V61.9824L121.871 62.0884L121.454 62.3733L121.198 62.543L121.137 62.5915V62.5855C119.302 63.6886 117.061 64.3281 114.511 64.3281C107.041 64.3281 102.636 59.4122 102.636 52.4356V37.0819L105.774 37.085C107.798 37.085 109.427 38.6945 109.464 40.6916V52.6417C109.464 54.154 110.008 57.7152 114.511 57.7152C117.515 57.7152 119.694 55.5937 119.694 52.6417V37.0819H121.137V37.076H125.541C121.719 16.0793 103.263 0.167969 81.0701 0.167969C56.122 0.167969 35.8799 20.3131 35.8799 45.1649C35.8799 70.0168 56.122 90.168 81.0701 90.168C100.59 90.168 117.226 77.8481 123.542 60.5881C123.097 61.0913 122.586 61.5671 122.041 61.9763Z" fill="#033151"/>
<path d="M66.4201 45.4807C66.1277 45.211 65.7989 44.9441 65.4641 44.738L65.4825 44.7138C64.4324 44.0078 63.2118 43.6016 61.8693 43.6016C58.0461 43.6016 54.9688 46.8323 54.9688 50.8661L54.9779 51.0936H54.9688C55.3249 54.809 58.2288 57.7157 61.7749 57.7157C65.5707 57.7157 68.6148 54.503 68.6148 50.5297C68.6148 49.3963 68.3498 48.3508 67.9053 47.4356C67.5004 46.687 67.0073 46.0322 66.4201 45.4807Z" fill="#033151"/>
</svg>
