<svg width="201" height="91" viewBox="0 0 201 91" fill="none" xmlns="http://www.w3.org/2000/svg">
<path d="M115.415 90.8543C115.415 90.8708 115.415 90.8873 115.415 90.9038C118.672 90.6443 121.93 90.3848 125.189 90.1253C125.347 90.1125 125.501 90.0703 125.659 90.0464C126.76 89.8867 127.862 89.7343 128.953 89.5672C129.617 89.4644 130.289 89.3836 130.939 89.2165C131.495 89.0625 132.041 88.8736 132.573 88.651C133.478 88.3021 134.382 87.9496 135.272 87.5695C136.104 87.2134 136.89 86.7415 137.744 86.4679C138.64 86.178 139.515 85.8252 140.362 85.4122C140.812 85.1919 141.331 85.0652 141.594 84.5676C142 83.7965 142.435 83.04 142.857 82.2762C143.25 81.573 143.648 80.8716 144.03 80.1629C144.379 79.5184 144.693 78.8556 145.049 78.2167C145.67 77.115 146.322 76.0134 146.939 74.9118C147.556 73.8101 148.176 72.635 148.797 71.4967C149.294 70.586 149.795 69.6759 150.3 68.7665C150.635 68.1606 150.976 67.5583 151.307 66.9506C152.061 65.5644 152.803 64.1726 153.567 62.7901C154.331 61.4075 155.098 60.0929 155.847 58.7361C156.571 57.4214 157.261 56.0903 157.984 54.7757C158.774 53.338 159.591 51.9151 160.388 50.4811C160.856 49.6402 161.306 48.7938 161.767 47.9474C162.4 46.7741 163.026 45.5991 163.66 44.4276C164.086 43.6381 164.524 42.856 164.945 42.0646C165.27 41.4551 165.564 40.829 165.9 40.2286C166.522 39.1086 167.185 38.0051 167.796 36.8851C168.176 36.2003 168.509 35.4934 168.883 34.8067C169.511 33.6463 170.168 32.4988 170.791 31.3384C171.061 30.8426 171.283 30.323 171.547 29.8236C172.17 28.6596 172.809 27.5047 173.431 26.3351C173.913 25.4305 174.387 24.5205 174.85 23.6049C174.928 23.4176 174.989 23.2241 175.034 23.0265C174.793 23.01 174.553 22.988 174.312 22.9751C174.26 22.9803 174.208 22.9946 174.16 23.0174C173.259 23.3442 172.361 23.6765 171.456 23.9923C171.088 24.1208 170.692 24.1924 170.326 24.3283C169.899 24.4899 169.495 24.7139 169.069 24.8791C168.406 25.1325 167.73 25.3565 167.06 25.5933C165.988 25.9716 164.932 26.4012 163.838 26.7115C162.712 27.0291 161.556 27.2421 160.404 27.4716C159.681 27.6167 158.935 27.7067 158.212 27.8205C157.053 28.0041 155.9 28.2703 154.733 28.3438C151.655 28.5384 148.575 28.5182 145.518 28.05C144.8 27.9394 144.09 27.7861 143.391 27.591C142.442 27.3284 141.511 27.0071 140.571 26.7225C139.857 26.5059 139.119 26.3553 138.425 26.0836C137.604 25.7733 136.813 25.3859 136.018 25.0131C135.34 24.6955 134.683 24.3393 134.007 24.0217C133.585 23.8215 133.126 23.6875 132.713 23.4709C131.51 22.8448 130.462 21.9726 129.175 21.464C128.563 21.2235 128.051 20.7535 127.486 20.4028C126.601 19.852 125.699 19.3305 124.82 18.7742C124.368 18.4896 123.951 18.15 123.507 17.8562C122.523 17.1952 121.528 16.5471 120.542 15.8861C119.849 15.4197 119.17 14.9369 118.48 14.4687C118.123 14.2281 117.745 14.0225 117.396 13.7728C116.675 13.255 116.023 12.6197 115.241 12.2176C114.365 11.766 113.618 11.1711 112.83 10.6184C112.338 10.2751 111.833 9.94827 111.321 9.63431C110.809 9.32034 110.274 9.05411 109.769 8.73831C109.105 8.32152 108.484 7.84782 107.801 7.45307C107.037 7.00507 106.237 6.61399 105.453 6.1972C104.669 5.78042 103.896 5.33609 103.095 4.94501C102.295 4.55393 101.476 4.21058 100.659 3.85622C99.902 3.49493 99.126 3.17499 98.3344 2.8978C97.3926 2.60954 96.4121 2.44063 95.4463 2.22397C94.8037 2.07892 94.1611 1.94489 93.5166 1.80167C92.8006 1.6401 92.09 1.43446 91.3648 1.32246C90.5459 1.19394 89.7123 1.12784 88.8842 1.07276C86.5451 0.920367 84.2023 0.81571 81.865 1.09112C80.554 1.24535 79.2449 1.42712 77.9395 1.62358C77.1445 1.74476 76.3495 1.88797 75.5673 2.07157C74.5409 2.3121 73.5164 2.57282 72.5103 2.87945C71.3444 3.23564 70.1987 3.65426 69.0419 4.04351C68.6086 4.18856 68.1735 4.3336 67.7365 4.4658C67.171 4.63472 66.5945 4.77426 66.0345 4.9597C65.1972 5.23327 64.371 5.53438 63.5411 5.82448C63.4815 5.85441 63.416 5.87103 63.3493 5.87319C63.2826 5.87535 63.2162 5.86299 63.1548 5.83698C63.0933 5.81096 63.0382 5.77191 62.9934 5.72251C62.9485 5.67312 62.9148 5.61457 62.8948 5.55091C62.7589 5.15065 62.4542 5.03314 62.0833 4.98724C61.0606 4.86422 60.0214 4.81465 59.0171 4.60534C58.2973 4.45662 57.954 4.76508 57.6382 5.26265C57.5904 5.33793 57.55 5.41871 57.506 5.49766C57.0598 6.30553 56.621 7.11707 56.1638 7.92126C55.5194 9.05962 54.8602 10.1888 54.2121 11.3272C53.8577 11.9514 53.5217 12.5885 53.1655 13.211C52.5229 14.3346 51.8601 15.4491 51.2248 16.5746C50.8576 17.2246 50.5455 17.9003 50.1764 18.5484C49.5448 19.65 48.8673 20.7259 48.2467 21.8313C47.4095 23.3203 46.6181 24.8314 45.7882 26.3223C45.0336 27.6791 44.2496 29.0194 43.4895 30.3726C43.1627 30.9546 42.8799 31.5587 42.5531 32.1407C41.9068 33.2919 41.233 34.4303 40.5904 35.5833C40.2231 36.2425 39.9073 36.9329 39.5328 37.5902C38.9379 38.6349 38.2898 39.6539 37.6967 40.7115C36.9348 42.0775 36.2279 43.4656 35.4677 44.8408C34.748 46.1407 33.9989 47.4241 33.2645 48.7185C32.7265 49.6678 32.2032 50.6244 31.6726 51.5754C31.142 52.5265 30.6316 53.4317 30.1175 54.3644C29.4804 55.5193 28.8561 56.6815 28.2171 57.8364C27.2 59.6725 26.1736 61.5085 25.1564 63.3574C24.9214 63.7834 24.7176 64.2277 24.4771 64.6537C23.8326 65.7902 23.1698 66.9175 22.5235 68.0522C22.0737 68.8436 21.633 69.6423 21.1942 70.4391C20.9904 70.8063 20.7921 71.1846 20.6067 71.5646C20.5859 71.6082 20.5752 71.6559 20.5752 71.7042C20.5752 71.7524 20.5859 71.8001 20.6067 71.8437C20.6489 71.8951 20.7903 71.8988 20.8876 71.8786C21.2364 71.8015 21.5798 71.7097 21.9231 71.6179C22.9036 71.3535 23.8859 71.0983 24.8608 70.8173C25.8358 70.5364 26.8952 70.4079 27.7985 69.7579C28.5219 69.2328 29.4289 68.9409 30.2607 68.559C31.0465 68.1918 31.8489 67.8723 32.6292 67.5033C33.4427 67.1022 34.3014 66.8001 35.1868 66.6036C35.9653 66.442 36.7126 66.128 37.4727 65.8692C37.9556 65.7094 38.4311 65.5295 38.9195 65.3844C39.4704 65.2229 40.0322 65.0778 40.594 64.9456C41.8132 64.6592 43.0268 64.3544 44.257 64.1194C45.204 63.9382 46.1602 63.8082 47.1212 63.7302C48.6617 63.6035 50.2076 63.4621 51.7499 63.4694C53.1986 63.4694 54.6472 63.6439 56.0904 63.7944C56.819 63.8957 57.5421 64.0336 58.2569 64.2075C58.7967 64.3214 59.331 64.4609 59.8672 64.5913C60.4804 64.7381 61.0973 64.8759 61.7032 65.0374C62.2517 65.164 62.7919 65.324 63.3208 65.5166C64.2223 65.8838 65.0926 66.308 65.9886 66.6825C66.6275 66.9506 67.3252 67.1067 67.9293 67.428C69.9967 68.5296 72.0402 69.6698 74.0856 70.81C75.0036 71.3186 75.907 71.8419 76.792 72.3963C77.4897 72.8333 78.1378 73.3419 78.8263 73.7936C79.4561 74.2067 80.1391 74.5464 80.745 74.987C81.8319 75.7747 82.9171 76.5587 84.0738 77.2546C85.0781 77.8586 85.9943 78.5967 86.9674 79.2504C88.2526 80.117 89.5636 80.9506 90.8525 81.8208C91.5869 82.3074 92.2681 82.8472 93.0044 83.3191C93.5827 83.6863 94.207 83.9966 94.811 84.3344C96.1202 85.0688 97.2659 86.075 98.7714 86.4716C98.8552 86.5079 98.9346 86.5535 99.0083 86.6075C100.317 87.2905 101.59 88.0524 103.048 88.4435C103.442 88.55 103.843 88.6381 104.228 88.7685C104.974 89.0219 105.697 89.3303 106.455 89.5562C107.41 89.8426 108.389 90.0574 109.349 90.3273C110.851 90.7478 112.413 90.6743 113.939 90.8781C114.428 90.9116 114.919 90.9146 115.408 90.8873" fill="white"/>
<path fill-rule="evenodd" clip-rule="evenodd" d="M115.415 90.8548C114.927 90.8548 114.009 90.9429 113.526 90.8805C111.998 90.6859 110.856 90.7226 109.354 90.3022C108.394 90.0323 107.415 89.8174 106.461 89.531C105.706 89.3052 103.448 88.5248 103.053 88.4184C101.601 88.0309 96.131 85.0437 94.8219 84.3129C94.2178 83.9751 93.5936 83.6703 93.0152 83.2976C92.2808 82.8257 91.5904 82.2859 90.8634 81.7994C89.5781 80.9364 88.2653 80.1028 86.9783 79.2289C86.0051 78.5752 85.089 77.8371 84.0846 77.2331C82.9279 76.5372 81.8428 75.7532 80.7559 74.9656C80.15 74.5249 79.4706 74.1852 78.8372 73.7721C78.1486 73.3204 77.5005 72.8118 76.8028 72.3749C75.9178 71.824 75.009 71.2971 74.0965 70.7885C72.0511 69.6483 70.0076 68.5044 67.9402 67.4065C67.3361 67.0852 66.6384 66.9291 65.9994 66.661C65.1034 66.2938 64.2331 65.855 63.3316 65.4951C62.8028 65.3025 62.2626 65.1425 61.7141 65.0159C61.1045 64.8544 60.4876 64.7167 59.878 64.5698C59.3419 64.4394 58.8076 64.2999 58.2678 64.186C57.553 64.0121 56.8299 63.8743 56.1012 63.7729C54.6581 63.6224 53.2094 63.4571 51.7608 63.4479C50.2185 63.4479 48.6725 63.582 47.1321 63.7087C46.171 63.7867 45.2149 63.9167 44.2678 64.0979C43.0377 64.3329 41.824 64.6377 40.6049 64.9241C40.0431 65.0563 39.4831 65.2014 38.9304 65.3629C38.442 65.508 37.9665 65.6879 37.4836 65.8477C36.7198 66.101 25.8723 70.5076 24.8735 70.7959C23.8747 71.0841 22.9163 71.332 21.9358 71.5964C21.5925 71.6882 21.2491 71.78 20.9003 71.8571C20.8103 71.8773 20.6616 71.8736 20.6194 71.8222C20.5986 71.7786 20.5879 71.7309 20.5879 71.6827C20.5879 71.6344 20.5986 71.5867 20.6194 71.5431C20.803 71.1631 21.0031 70.7885 21.2069 70.4176C21.6457 69.6189 22.0864 68.8203 22.5362 68.0307C23.1825 66.8961 23.8453 65.7687 24.4898 64.6322C24.7303 64.2062 24.9341 63.7619 25.1691 63.3359C26.1863 61.4999 27.2127 59.6638 28.2298 57.8149C28.8688 56.66 29.4931 55.4978 30.1302 54.3429C30.6443 53.4102 31.1675 52.4848 31.6853 51.5539C32.2031 50.6231 32.7392 49.6463 33.2772 48.697C34.0116 47.4026 34.7644 46.1266 35.4804 44.8193C36.2387 43.4496 36.9493 42.056 37.7094 40.69C38.2951 39.6398 38.9433 38.6207 39.5455 37.5687C39.9127 36.9114 40.234 36.221 40.6031 35.5619C41.2457 34.4088 41.9195 33.2705 42.5658 32.1193C42.8926 31.5372 43.1754 30.9332 43.5022 30.3511C44.2623 28.9979 45.0463 27.6576 45.8009 26.3008C46.6308 24.8099 47.4222 23.2988 48.2594 21.8098C48.88 20.7081 49.5575 19.6267 50.1891 18.5269C50.5563 17.8788 50.8703 17.2031 51.2375 16.5531C51.8728 15.4276 52.5356 14.3131 53.1782 13.1895C53.5344 12.567 53.8704 11.9299 54.2248 11.3057C54.8729 10.1673 55.5321 9.03814 56.1765 7.89978C56.6337 7.09559 57.0725 6.28405 57.5187 5.47618C57.5627 5.39723 57.6031 5.31644 57.6509 5.24116C57.9667 4.74359 58.31 4.43514 59.0298 4.58386C60.0341 4.79317 61.0733 4.84274 62.096 4.96575C62.4632 5.01166 62.7716 5.12917 62.9075 5.52943C62.9275 5.59309 62.9612 5.65164 63.006 5.70103C63.0509 5.75042 63.106 5.78948 63.1675 5.81549C63.2289 5.84151 63.2953 5.85386 63.362 5.85171C63.4287 5.84955 63.4942 5.83293 63.5538 5.803C64.3837 5.5129 65.2063 5.21179 66.0472 4.93821C66.6072 4.75461 67.1837 4.61323 67.7492 4.44431C68.1862 4.31212 68.6213 4.16707 69.0546 4.02202C70.2114 3.63278 71.3571 3.21415 72.523 2.85796C73.5291 2.55133 74.5536 2.29061 75.58 2.05009C76.3622 1.86648 77.1572 1.72327 77.9522 1.60209C79.2576 1.40563 80.5667 1.22386 81.8777 1.06963C84.215 0.794225 86.5578 0.898883 88.8969 1.05128C89.7268 1.10636 92.8133 1.61862 93.5293 1.7857C94.1719 1.92891 94.8146 2.06295 95.459 2.20799C96.4248 2.42465 99.9023 3.50792 100.672 3.84025C101.489 4.19461 102.311 4.53979 103.108 4.92903C103.905 5.31828 104.68 5.7626 105.466 6.18123C106.251 6.59985 107.05 6.98909 107.814 7.43709C108.49 7.83551 109.117 8.30922 109.782 8.72233C110.287 9.03813 110.825 9.3062 111.334 9.61833C111.842 9.93046 112.351 10.2591 112.843 10.6025C113.631 11.1533 114.378 11.75 115.254 12.2017C116.036 12.6038 116.688 13.239 117.409 13.7568C117.756 14.0065 118.144 14.2122 118.492 14.4527C119.183 14.9209 119.862 15.4038 120.554 15.8701C121.54 16.5311 122.535 17.1792 123.52 17.8402C123.964 18.1395 124.381 18.4792 124.832 18.7582C125.712 19.3091 126.613 19.8397 127.498 20.3868C128.064 20.7375 131.523 22.8288 132.726 23.4549C133.139 23.6697 135.353 24.6777 136.03 24.9953C136.825 25.3625 139.87 26.4881 140.584 26.7047C141.524 26.9893 142.455 27.3106 143.404 27.5732C144.103 27.7683 144.813 27.9216 145.53 28.0322C148.587 28.5004 151.668 28.5206 154.745 28.326C155.913 28.2525 157.066 27.9826 158.225 27.8027C158.959 27.6888 159.694 27.5989 160.417 27.4538C161.568 27.2243 162.725 27.0113 163.85 26.6937C164.952 26.3834 166 25.9593 167.073 25.5755C167.743 25.3387 168.419 25.1147 169.081 24.8613C169.507 24.6997 169.911 24.4757 170.339 24.3105C170.706 24.1746 171.097 24.103 171.468 23.9745C172.373 23.6587 173.271 23.3264 174.173 22.9995C174.221 22.9768 174.272 22.9625 174.325 22.9573C174.566 22.9702 174.806 22.9922 175.047 23.0087C175.002 23.2063 174.94 23.3998 174.863 23.5871C174.399 24.5014 173.926 25.4115 173.444 26.3173C172.821 27.4814 172.182 28.6362 171.56 29.8058C171.296 30.3052 171.073 30.8248 170.804 31.3206C170.176 32.481 169.518 33.6285 168.896 34.7889C168.529 35.4756 168.189 36.1824 167.809 36.8673C167.188 37.9873 166.535 39.0908 165.912 40.2108C165.576 40.8167 165.283 41.4428 164.958 42.0468C164.533 42.8382 164.095 43.6203 163.672 44.4098C163.039 45.5812 162.413 46.7563 161.779 47.9296C161.324 48.776 160.861 49.6224 160.4 50.4633C159.604 51.8973 158.787 53.3202 157.997 54.7579C157.274 56.0725 156.583 57.4036 155.86 58.7182C155.111 60.0751 154.329 61.4154 153.579 62.7723C152.83 64.1291 152.074 65.5466 151.319 66.9328C150.989 67.5405 150.647 68.1427 150.313 68.7486C149.81 69.6581 149.309 70.5682 148.809 71.4789C148.189 72.6172 147.583 73.7629 146.951 74.8939C146.32 76.025 145.683 77.0972 145.062 78.1988C144.706 78.8378 144.392 79.5006 144.043 80.1451C143.661 80.8538 143.263 81.5552 142.87 82.2584C142.447 83.0222 142.012 83.7786 141.607 84.5498C141.344 85.0473 140.824 85.174 140.375 85.3944C139.528 85.8074 138.653 86.1601 137.756 86.4501C136.903 86.7292 136.117 87.2011 135.285 87.5517C134.395 87.9318 133.491 88.2862 132.586 88.6332C132.054 88.8558 131.508 89.0446 130.952 89.1987C130.302 89.3603 129.63 89.4466 128.965 89.5494C127.864 89.7165 126.762 89.8688 125.671 90.0286C125.513 90.0525 125.359 90.0947 125.201 90.1075C121.944 90.3695 118.686 90.629 115.428 90.886C115.428 90.8695 115.428 90.853 115.428 90.8364M67.5693 38.5179H65.6983C65.5605 38.5134 65.4243 38.549 65.3064 38.6204C65.1884 38.6918 65.0937 38.7959 65.0337 38.92C64.3188 40.2224 63.5942 41.5199 62.8598 42.8125C62.5385 43.3816 62.1823 43.9306 61.872 44.5053C61.5433 45.1149 61.2495 45.741 60.9429 46.3616C60.4968 47.2686 60.0451 48.1756 59.6118 49.0881C59.5009 49.3335 59.4172 49.5902 59.3621 49.8538C59.2354 50.4046 59.6907 50.8966 60.3958 50.9352C61.3469 50.9866 62.2998 51.0123 63.2527 51.0582C63.4487 51.0739 63.6428 51.1071 63.8329 51.1574C64.4994 51.3134 65.1604 51.497 65.8305 51.6292C66.5007 51.7614 67.1965 51.7816 67.8502 51.9634C69.0124 52.2902 70.1471 52.7088 71.2983 53.065C72.2163 53.3551 73.0517 53.8986 74.0524 53.9463C74.1791 53.9774 74.3022 54.0217 74.4196 54.0785C74.9466 54.2364 75.4717 54.409 76.0078 54.5265C76.0919 54.5283 76.1752 54.5101 76.2508 54.4734C76.3265 54.4367 76.3923 54.3825 76.4429 54.3154C77.2049 53.0485 77.9595 51.7779 78.6829 50.4909C79.3164 49.3635 79.9076 48.2105 80.519 47.0703C80.9468 46.2679 81.3783 45.4674 81.8042 44.665C82.0888 44.1344 82.3697 43.6001 82.6488 43.0677C82.6739 43.0026 82.7129 42.9437 82.7632 42.8954C82.8135 42.8471 82.8738 42.8104 82.9398 42.7879C83.0059 42.7655 83.0761 42.7579 83.1454 42.7656C83.2147 42.7733 83.2815 42.7962 83.341 42.8327C83.8147 43.0567 84.2958 43.2752 84.7419 43.5432C85.458 43.9765 86.1025 44.5494 86.8626 44.8762C87.5805 45.1865 88.179 45.6235 88.8033 46.0458C89.4276 46.4681 90.0885 46.9509 90.7403 47.3806C91.304 47.7478 91.9026 48.0728 92.4662 48.4418C93.1107 48.8641 93.7221 49.3341 94.3702 49.7509C95.2883 50.3348 96.2265 50.8746 97.1372 51.4585C97.6403 51.7816 97.8422 51.7761 98.169 51.2859C98.6115 50.6231 99.0632 49.9639 99.4726 49.2791C100.084 48.2564 100.662 47.2135 101.254 46.1761C101.698 45.3958 102.162 44.6265 102.576 43.8296C103.11 42.7614 103.733 41.74 104.439 40.7763C104.663 40.4788 104.874 40.3815 105.205 40.5651C106.106 41.067 107 41.5799 107.889 42.1037C108.203 42.2873 108.477 42.5389 108.787 42.7317C109.373 43.0989 109.991 43.4147 110.561 43.8003C111.22 44.2464 111.824 44.7697 112.487 45.2122C113.104 45.6216 113.79 45.9338 114.403 46.3487C115.744 47.2521 117.036 48.2233 118.575 48.8145C118.782 48.8953 118.972 49.0477 119.185 49.0789C119.282 49.0965 119.383 49.094 119.48 49.0716C119.577 49.0492 119.668 49.0073 119.748 48.9486C120.012 48.6333 120.244 48.2925 120.44 47.9314C121.191 46.6168 121.924 45.293 122.669 43.9747C123.004 43.3835 123.362 42.8051 123.688 42.2102C124.239 41.1986 124.79 40.1796 125.341 39.1624C125.554 38.7676 125.765 38.371 125.96 37.9689C126.154 37.5668 126.531 37.4383 126.949 37.5228C127.387 37.6107 127.817 37.7335 128.235 37.89C129.279 38.2792 130.309 38.7034 131.356 39.0889C131.85 39.2685 132.353 39.4217 132.863 39.5479C133.451 39.6967 134.053 39.7885 134.641 39.9372C135.228 40.0859 135.847 40.3044 136.458 40.4586C137.07 40.6129 137.698 40.7634 138.322 40.8956C139.17 41.07 140.015 41.2794 140.874 41.3877C141.592 41.4776 142.326 41.4391 143.055 41.4648C143.595 41.485 143.768 41.6906 143.575 42.1735C143.316 42.8253 143.024 43.4679 142.703 44.094C142.135 45.1957 141.526 46.2845 140.955 47.3861C140.588 48.082 140.272 48.7925 139.932 49.4976C139.381 50.6598 138.83 51.8294 138.247 52.9861C137.991 53.491 138.36 53.8178 138.823 53.8545C138.983 53.8674 139.141 53.8655 139.3 53.8802C140.733 54.0069 142.119 53.6764 143.509 53.4469C144.564 53.2743 145.605 53.0173 146.643 52.7657C147.603 52.5344 148.551 52.2516 149.505 52.0074C150.102 51.8551 150.706 51.7302 151.308 51.5943C151.821 51.4787 152.349 51.4107 152.845 51.2437C153.666 50.9756 154.47 50.6616 155.272 50.3477C155.979 50.0686 156.682 49.7785 157.373 49.4663C157.924 49.2185 158.447 48.9155 158.994 48.6622C159.407 48.4688 159.756 48.161 160 47.7753C160.821 46.514 161.653 45.2599 162.475 44.0004C162.888 43.367 163.303 42.7335 163.685 42.0817C164.016 41.518 164.302 40.9287 164.603 40.3503C165.171 39.2597 165.743 38.1709 166.294 37.0729C166.428 36.8067 166.294 36.6617 165.986 36.6763C165.841 36.6878 165.698 36.7187 165.562 36.7682C164.644 37.0711 163.726 37.3906 162.789 37.6862C162.378 37.8147 161.934 37.8588 161.528 38.002C160.577 38.3343 159.651 38.7364 158.695 39.0485C157.738 39.3607 156.778 39.6196 155.814 39.8876C155.263 40.04 154.712 40.1649 154.162 40.3044C153.539 40.4641 152.922 40.6716 152.289 40.7726C151.299 40.9323 150.298 41.0388 149.298 41.1398C147.994 41.2628 146.689 41.3693 145.381 41.4464C144.877 41.4776 144.735 41.2738 144.937 40.8314C145.417 39.7726 145.917 38.7217 146.437 37.6788C146.814 36.9242 147.238 36.1916 147.634 35.448C147.98 34.8017 148.303 34.1444 148.663 33.5055C149.324 32.3341 150.01 31.1737 150.682 30.0041C150.866 29.681 150.778 29.4937 150.403 29.4166C150.108 29.3541 149.797 29.3578 149.498 29.3174C148.114 29.1246 146.733 28.897 145.345 28.7409C143.957 28.5848 142.55 28.5738 141.223 28.0689C140.745 27.8853 140.242 27.7678 139.765 27.5879C139.089 27.3363 135.01 25.8968 133.633 25.458C133.095 25.2854 133.047 25.3185 132.779 25.805C132.263 26.7488 131.745 27.6907 131.213 28.6252C130.469 29.9307 129.705 31.2233 128.965 32.5287C128.225 33.8341 127.485 35.1689 126.762 36.4927C126.591 36.803 126.395 36.9463 126.028 36.748C125.122 36.2485 124.213 35.7553 123.301 35.2681C122.816 35.011 122.302 34.8017 121.832 34.519C120.83 33.9112 119.84 33.2778 118.86 32.6352C118.27 32.2496 117.705 31.8273 117.13 31.4215C116.662 31.0892 116.212 30.7385 115.722 30.4264C115.355 30.1877 114.934 30.0206 114.567 29.7801C113.766 29.2587 112.993 28.7023 112.197 28.1772C111.789 27.9092 111.462 27.9679 111.249 28.3315C110.607 29.3854 109.964 30.4393 109.34 31.5023C108.789 32.4552 108.251 33.421 107.706 34.3794C107.184 35.2975 106.674 36.2155 106.13 37.117C105.772 37.7394 105.374 38.3379 104.939 38.909C104.571 39.368 104.527 39.3313 103.986 39.0247C103.896 38.9751 103.787 38.9531 103.692 38.9108C103.376 38.7929 103.069 38.6518 102.774 38.4885C102.342 38.2186 101.957 37.8808 101.531 37.6017C100.528 36.9426 99.5112 36.3165 98.505 35.6518C97.7945 35.1891 97.1115 34.6861 96.3936 34.2362C95.6757 33.7864 94.9541 33.3935 94.2325 32.9767C93.5991 32.6095 92.973 32.2331 92.3249 31.8897C91.9228 31.6768 91.4876 31.5225 91.0672 31.3389C90.7007 31.1646 90.3236 31.0138 89.938 30.8873C89.8459 30.8758 89.7523 30.8865 89.6652 30.9184C89.578 30.9503 89.4997 31.0026 89.4367 31.0709C89.1258 31.5258 88.8396 31.9971 88.5793 32.4828C88.2213 33.1364 87.9073 33.8121 87.5364 34.4584C86.9232 35.5251 86.2787 36.5754 85.6471 37.6348C84.8154 39.0357 83.9947 40.4421 83.1482 41.8375C82.759 42.482 82.6396 42.5022 81.9475 42.1882C81.8758 42.1552 81.7969 42.1386 81.7253 42.1092C81.0459 41.8283 80.3795 41.5217 79.6891 41.272C78.8794 40.9782 78.134 40.4898 77.2251 40.4807C77.1196 40.474 77.0156 40.4518 76.9167 40.4146C76.4081 40.2438 75.9068 40.0474 75.3927 39.8986C74.8786 39.7499 74.37 39.6416 73.8578 39.5204C73.3455 39.3992 72.8075 39.2689 72.2788 39.1532C71.3607 38.9696 70.4556 38.7621 69.5339 38.6354C68.8417 38.54 68.1348 38.5565 67.5564 38.5289M153.062 61.0207C152.807 61.0831 152.68 61.1033 152.559 61.1437C151.698 61.4319 150.842 61.7349 149.988 62.0121C149.621 62.1315 149.217 62.1811 148.844 62.3022C148.437 62.4381 148.049 62.6291 147.644 62.7778C146.855 63.0667 146.063 63.347 145.268 63.6187C144.511 63.8776 143.753 64.1328 142.989 64.3696C142.453 64.5367 141.908 64.6818 141.362 64.8213C140.639 65.0049 139.919 65.2418 139.181 65.3373C137.543 65.5484 135.896 65.7045 134.249 65.8458C133.341 65.9266 132.428 65.9542 131.516 65.9927C131.29 66.0019 130.99 65.9725 131.148 65.6402C131.495 64.8972 131.862 64.1628 132.25 63.4369C132.902 62.2306 133.583 61.05 134.238 59.8382C134.63 59.124 134.997 58.3896 135.384 57.6552C135.9 56.6821 136.414 55.7071 136.941 54.7395C137.22 54.2272 137.084 53.9463 136.489 53.8711C135.559 53.7535 134.624 53.6562 133.699 53.5038C132.722 53.3441 131.762 53.0669 130.781 52.9659C129.625 52.8689 128.484 52.6422 127.379 52.2902C126.883 52.1231 126.367 52.0093 125.873 51.8349C124.996 51.5246 124.133 51.1757 123.253 50.8654C122.871 50.7314 122.464 50.6616 122.073 50.5441C121.421 50.3477 120.787 50.1071 120.119 49.9529C119.996 49.9358 119.87 49.9462 119.751 49.9833C119.632 50.0204 119.522 50.0834 119.431 50.1677C119.08 50.5793 118.769 51.0225 118.5 51.4915C118.028 52.2829 117.582 53.0907 117.141 53.9004C116.393 55.2762 115.653 56.6557 114.921 58.0389C114.427 58.9569 113.928 59.8933 113.463 60.8352C113.03 61.7184 112.938 61.7533 112.064 61.2759C112.018 61.2502 111.967 61.2336 111.921 61.2079C110.735 60.5451 109.534 59.9062 108.367 59.2103C107.124 58.4759 106.066 57.4679 104.738 56.8234C104.188 56.5609 103.736 56.1202 103.226 55.7769C102.263 55.1306 101.285 54.5063 100.328 53.8545C99.7352 53.4488 99.1825 52.9897 98.5858 52.5913C98.1085 52.2737 97.8936 52.3618 97.6237 52.8631C97.2798 53.4922 96.9285 54.1189 96.5698 54.7432C95.9254 55.865 95.2626 56.9795 94.6273 58.1068C94.2252 58.8211 93.8818 59.5757 93.4706 60.2771C92.7894 61.4521 92.0715 62.607 91.3756 63.7656C91.1663 64.1181 91.0084 64.1512 90.6559 63.9088C90.3034 63.6664 89.9398 63.4296 89.5726 63.2056C89.2972 63.0367 88.9998 62.9008 88.7262 62.73C87.6943 62.0911 86.7855 61.2998 85.6783 60.7453C84.6813 60.2459 83.8423 59.46 82.9077 58.8358C82.4781 58.5493 81.9603 58.3878 81.5178 58.1142C80.0324 57.1962 78.6223 56.1533 76.8873 55.6741C76.7624 55.6392 76.6486 55.5639 76.5201 55.5217C76.3872 55.46 76.2368 55.4472 76.0954 55.4855C75.9541 55.5238 75.8307 55.6107 75.7471 55.731C75.6319 55.8705 75.5246 56.0164 75.4258 56.168C74.8529 57.1974 74.2844 58.2305 73.7201 59.2672C73.1693 60.2569 72.6331 61.2465 72.0988 62.2398C71.3332 63.6628 70.5822 65.093 69.8093 66.5123C69.644 66.8153 69.7193 66.9934 70.0094 67.1274C70.1746 67.2045 70.3601 67.2504 70.518 67.3385C71.8693 68.1024 73.0976 69.0571 74.5463 69.6703C74.9741 69.854 75.3413 70.1734 75.7379 70.4268C77.0323 71.2567 78.3323 72.0793 79.623 72.9183C80.2124 73.3021 80.7797 73.7207 81.3691 74.1063C81.6408 74.2899 81.9511 74.4037 82.2265 74.5745C82.8361 74.9545 83.4328 75.353 84.0424 75.733C84.0897 75.7704 84.1445 75.7971 84.2031 75.8114C84.2616 75.8257 84.3226 75.8272 84.3818 75.8159C84.441 75.8046 84.4971 75.7807 84.5462 75.7458C84.5954 75.7109 84.6364 75.6658 84.6667 75.6137C85.2175 74.7911 85.794 73.9814 86.2989 73.1332C87.0701 71.8296 87.7825 70.4929 88.5334 69.1801C89.3229 67.7994 90.1381 66.426 90.9203 65.049C91.0819 64.7662 91.2342 64.7056 91.5078 64.9003C91.8457 65.1445 92.189 65.3813 92.5434 65.6035C92.8977 65.8256 93.2374 65.9707 93.5569 66.1873C94.4253 66.7877 95.2717 67.4212 96.142 68.0234C96.7406 68.4383 97.3593 68.8221 97.9781 69.2168C99.2633 70.0431 100.563 70.8418 101.825 71.6974C102.62 72.2335 103.426 72.72 104.368 72.9826C104.755 73.0928 105.102 73.3333 105.495 73.4306C105.61 73.4547 105.73 73.4536 105.845 73.4273C105.96 73.401 106.068 73.3501 106.161 73.2782C106.552 72.8486 106.903 72.3853 107.212 71.8938C107.579 71.2953 107.889 70.6545 108.247 70.0449C108.877 68.9745 109.532 67.9132 110.164 66.8446C111.038 65.3758 111.906 63.907 112.768 62.4381C112.973 62.0837 113.252 62.036 113.601 62.1627C113.873 62.26 114.134 62.3849 114.402 62.4895C115.06 62.7478 115.721 63.0036 116.383 63.257C117.211 63.5728 117.976 64.0685 118.917 64.0722C119.06 64.087 119.2 64.1242 119.331 64.1824C119.866 64.366 120.389 64.579 120.934 64.7222C121.901 64.9755 122.876 65.2038 123.859 65.407C124.836 65.6108 125.82 65.7926 126.81 65.9358C127.799 66.079 128.829 66.1561 129.836 66.303C130.267 66.3636 130.324 66.4976 130.128 66.8869C129.779 67.5717 129.393 68.2382 129.037 68.9176C128.042 70.7995 127.054 72.6833 126.057 74.5653C125.451 75.7073 124.836 76.8457 124.221 77.9859C124.065 78.2741 124.158 78.4834 124.5 78.4724C125.677 78.4357 126.856 78.4118 128.025 78.2888C129.103 78.1823 130.172 77.9859 131.236 77.7821C132.349 77.5709 133.464 77.3451 134.554 77.0476C136.295 76.5813 138.017 76.058 139.745 75.5512C140.007 75.4741 140.252 75.3419 140.507 75.2465C141.241 74.9711 141.99 74.7158 142.723 74.4276C143.685 74.0512 144.634 73.6436 145.596 73.2654C146.255 73.0083 146.861 72.7439 147.135 72.0132C147.382 71.4089 147.676 70.8245 148.013 70.2652C148.628 69.1636 149.283 68.095 149.893 66.997C150.557 65.7981 151.178 64.5771 151.839 63.3708C152.155 62.787 152.504 62.2178 152.825 61.6339C152.918 61.4291 152.998 61.2181 153.062 61.0023M80.642 13.8633L79.9517 13.9C79.6484 13.8993 79.3503 13.9779 79.0869 14.128C78.8234 14.2781 78.6038 14.4944 78.4498 14.7556C77.7006 16.0127 76.9583 17.2741 76.2226 18.5397C75.7893 19.2742 75.3615 20.027 74.9521 20.7797C74.695 21.2534 74.4747 21.7437 74.2452 22.2302C73.7623 23.2456 73.2702 24.2591 72.8112 25.2836C72.6478 25.6508 72.7929 25.8748 73.1931 25.9611C73.5603 26.0382 73.9275 26.086 74.2948 26.1447C75.3395 26.2971 76.3897 26.4201 77.4289 26.6056C78.5048 26.7892 79.5606 27.1362 80.642 27.2482C82.21 27.4098 83.6219 27.9826 85.0486 28.5334C85.6838 28.7776 86.3044 29.0622 86.9489 29.2862C87.5933 29.5102 88.258 29.6718 88.908 29.8774C89.5579 30.0831 89.815 30.0335 90.1712 29.4827C90.6155 28.7923 91.0011 28.0671 91.4123 27.3565C92.1358 26.1025 92.8812 24.8558 93.5789 23.5889C94.4822 21.964 95.3489 20.3171 96.2614 18.6958C96.3307 18.6015 96.4192 18.5229 96.5212 18.4653C96.6231 18.4077 96.736 18.3724 96.8526 18.3616C97.1306 18.3585 97.4043 18.4295 97.6458 18.5673C99.0228 19.3384 100.4 20.1133 101.748 20.9285C102.497 21.382 103.183 21.9309 103.914 22.412C104.491 22.7902 105.102 23.1189 105.684 23.4898C106.868 24.2481 107.911 25.1991 109.209 25.8124C109.856 26.1172 110.423 26.5799 111.032 26.9618C111.354 27.1637 111.609 27.1105 111.78 26.8406C112.147 26.253 112.544 25.6783 112.891 25.0798C113.289 24.3913 113.642 23.6789 114.025 22.983C114.76 21.6482 115.523 20.3244 116.247 18.9804C116.609 18.3173 116.93 17.6323 117.207 16.9295C117.395 16.4752 117.493 15.9889 117.495 15.4974C117.495 15.2202 117.214 14.8952 116.972 14.6877C116.574 14.3462 116.091 14.0928 115.663 13.7697C114.969 13.2611 114.308 12.7084 113.599 12.22C112.925 11.7555 112.204 11.3571 111.51 10.9201C110.849 10.5015 110.203 10.0608 109.536 9.64771C109.016 9.3264 108.447 9.07302 107.955 8.71682C106.69 7.79879 105.232 7.21125 103.877 6.44929C103.781 6.38703 103.665 6.36504 103.553 6.38806C103.441 6.41108 103.342 6.47727 103.279 6.57231C102.912 7.0405 102.511 7.49034 102.199 7.98424C101.476 9.13728 100.782 10.3087 100.104 11.4874C99.122 13.2005 98.1635 14.9282 97.1996 16.6504C97.0362 16.9424 96.3642 17.9008 96.0741 17.7778C95.5233 17.5428 94.9725 17.2729 94.4216 17.0544C93.5201 16.7018 92.6627 16.23 91.6676 16.1217C91.4713 16.0935 91.2778 16.0487 91.0892 15.9876C90.1565 15.7159 89.2293 15.4368 88.2947 15.1651C87.5603 14.9576 81.4168 13.9019 80.6438 13.8541M114.684 90.337C115.16 90.3058 115.634 90.2526 116.109 90.2471C116.32 90.2503 116.528 90.2057 116.719 90.1167C116.91 90.0276 117.078 89.8964 117.211 89.733C117.892 88.914 118.524 88.0557 119.104 87.1625C119.8 86.026 120.389 84.8233 121.004 83.6446C121.206 83.259 121.371 82.8533 121.555 82.4622C122.117 81.3293 122.695 80.202 123.251 79.0655C123.435 78.6983 123.283 78.4706 122.86 78.4302C122.322 78.3806 121.777 78.3824 121.241 78.3182C120.35 78.2117 119.46 78.0868 118.575 77.9381C117.743 77.7986 116.923 77.5709 116.089 77.4681C114.605 77.2973 113.217 76.8365 111.846 76.304C110.952 75.957 110.081 75.5274 109.158 75.2942C108.255 75.0644 107.377 74.7439 106.538 74.3376C106.233 74.1907 105.978 74.2238 105.825 74.5653C105.735 74.7636 105.631 74.9564 105.522 75.1455C104.871 76.2783 104.206 77.4057 103.565 78.544C102.924 79.6824 102.302 80.8336 101.667 81.9756C101.318 82.6017 100.945 83.215 100.602 83.8447C100.258 84.4745 99.9647 85.0749 99.6397 85.6808C99.469 86.0058 99.5314 86.1839 99.8894 86.2904C100.141 86.3656 100.411 86.395 100.653 86.4923C101.821 86.955 102.98 87.4416 104.142 87.9061C104.521 88.0505 104.907 88.1731 105.3 88.2733C105.739 88.389 106.193 88.4569 106.63 88.5781C108.12 88.9985 109.593 89.4961 111.1 89.8487C112.284 90.084 113.481 90.2471 114.684 90.337ZM71.3167 26.5982C71.3552 26.2494 71.179 26.1282 70.9495 26.1117C70.334 26.0409 69.714 26.0175 69.095 26.0419C68.177 26.1172 67.259 26.2659 66.352 26.4311C65.0796 26.6606 63.8072 26.8975 62.5531 27.1986C61.1431 27.5364 59.7532 27.9514 58.3541 28.3296C57.8033 28.4765 57.2635 28.6252 56.7163 28.7629C56.2445 28.8823 55.7542 28.9465 55.2989 29.1099C54.6085 29.3541 53.9402 29.6608 53.2664 29.938C52.0876 30.4429 50.896 30.9276 49.743 31.484C49.4216 31.64 49.1646 31.9926 48.9737 32.3065C48.6266 32.8775 48.3641 33.4945 48.0428 34.0802C47.1908 35.6316 46.3242 37.1739 45.4723 38.7217C45.2887 39.0577 45.1051 39.3992 44.9215 39.7389C44.3504 40.813 43.7758 41.8853 43.2121 42.963C43.0836 43.2127 43.2121 43.3302 43.4802 43.3119C43.5969 43.2941 43.7106 43.2601 43.818 43.2109C44.2359 43.0254 44.6652 42.8665 45.1032 42.7353C46.2196 42.4746 47.2753 42.0542 48.342 41.6631C49.4088 41.272 50.4939 40.8938 51.5735 40.5192C51.9407 40.3907 52.3208 40.2787 52.699 40.174C53.3802 39.9904 54.0595 39.7866 54.7481 39.6232C55.4366 39.4598 56.1857 39.2946 56.9128 39.1991C58.0915 39.0449 59.2831 38.9696 60.4619 38.819C61.8518 38.6354 63.2325 38.4059 64.6206 38.2223C64.7956 38.2101 64.9646 38.153 65.1113 38.0565C65.2579 37.96 65.3772 37.8274 65.4578 37.6715C65.8103 37.0325 66.1794 36.4009 66.5374 35.7638C67.0644 34.8238 67.6023 33.8892 68.1072 32.94C69.0106 31.2422 69.9017 29.5384 70.7805 27.8284C70.9972 27.4079 71.1477 26.9581 71.3093 26.5964M84.8025 1.93075C84.7897 1.4295 80.3703 1.91239 78.5599 2.29796C76.5862 2.71658 74.6418 3.26189 72.6845 3.75763C72.2384 3.86963 71.7977 4.00183 71.3534 4.12484C70.4556 4.36537 66.2969 5.79382 65.1824 6.38503C64.279 6.86608 63.3463 7.37466 62.7 8.18988C62.2365 8.79059 61.8074 9.41708 61.4148 10.0663C60.6804 11.2524 59.9594 12.4483 59.2519 13.654C59.0187 14.0506 58.8535 14.4857 58.6387 14.8952C58.0566 16.0078 57.4599 17.1131 56.8834 18.2295C56.8465 18.3676 56.8359 18.5115 56.8522 18.6536C57.0121 18.6709 57.1734 18.6709 57.3332 18.6536C57.5486 18.5952 57.7602 18.5235 57.9667 18.4388C58.5946 18.2148 59.2262 18.0018 59.8486 17.7649C60.853 17.3812 61.8408 16.9552 62.8579 16.6009C63.6952 16.3089 64.5618 16.0923 65.4174 15.8499C66.4052 15.5708 67.3802 15.2403 68.3845 15.0402C69.7927 14.7593 71.2157 14.5371 72.6423 14.3627C74.0689 14.1883 75.4625 14.1093 76.8652 13.9955C77.2747 13.9624 77.686 13.9588 78.0954 13.9496C78.2459 13.9532 78.3943 13.9148 78.5241 13.8385C78.6539 13.7623 78.7598 13.6513 78.8298 13.5181C79.2558 12.7433 79.6836 11.9685 80.0985 11.1882C80.4529 10.5198 80.7816 9.83866 81.1359 9.1685C81.7657 7.98057 82.412 6.80181 83.0399 5.61205C83.4383 4.85375 83.8276 4.08812 84.1966 3.31514C84.4335 2.8194 84.6263 2.3053 84.786 1.92524M57.0358 50.8617V50.8985C56.1361 50.9315 55.2365 50.9627 54.3386 50.9976C54.0605 50.9953 53.7826 51.0125 53.5069 51.049C51.7149 51.3703 49.9211 51.6935 48.1346 52.0442C47.5158 52.1654 46.9154 52.3728 46.2985 52.5326C45.7477 52.6776 45.1822 52.8171 44.6204 52.9457C44.0585 53.0742 43.4471 53.1513 42.8871 53.3294C42.1655 53.5589 41.4825 53.8968 40.7646 54.1354C39.417 54.5689 38.1191 55.1438 36.8924 55.8503C36.4829 56.0908 36.0129 56.335 35.7595 56.6986C35.06 57.7011 34.4578 58.766 33.8262 59.8199C33.3635 60.5874 32.8824 61.3475 32.4656 62.1388C31.6339 63.7142 30.8407 65.306 30.0365 66.8942C29.9964 67.0091 29.9723 67.129 29.9649 67.2504C30.0831 67.2899 30.2077 67.3067 30.3321 67.3C30.6828 67.2045 31.0188 67.0595 31.3695 66.9603C31.8763 66.8189 32.405 66.7382 32.8971 66.5637C33.8996 66.2094 34.8819 65.8054 35.8752 65.4272C36.2167 65.2969 36.56 65.1665 36.9107 65.06C37.4524 64.9003 37.9977 64.7589 38.543 64.6157C39.5492 64.3513 40.5443 64.0263 41.567 63.8445C42.7457 63.6352 51.7681 62.6603 51.8489 62.5152C52.352 61.6523 52.8239 60.771 53.2939 59.8897C53.6611 59.2103 53.9861 58.5163 54.3607 57.8425C54.9739 56.7408 55.6165 55.663 56.2353 54.5688C56.753 53.6507 57.2451 52.7327 57.7684 51.8147C58.1044 51.229 57.9942 50.9829 57.3057 50.8966C57.2139 50.8856 57.1221 50.8856 57.0284 50.8783" fill="black"/>
<path fill-rule="evenodd" clip-rule="evenodd" d="M67.5698 38.5175C68.1481 38.545 68.855 38.5285 69.5472 38.624C70.4652 38.7507 71.3833 38.9563 72.2921 39.1418C72.8209 39.2501 73.346 39.3768 73.8711 39.509C74.3962 39.6412 74.9011 39.7385 75.4061 39.8872C75.911 40.0359 76.4214 40.2324 76.93 40.4031C77.029 40.4403 77.1329 40.4626 77.2385 40.4692C78.1473 40.4784 78.8909 40.9668 79.7025 41.2606C80.3928 41.5103 81.0593 41.8114 81.7386 42.0978C81.8102 42.1272 81.8892 42.1437 81.9608 42.1768C82.653 42.4907 82.7723 42.4705 83.1616 41.8261C84.0062 40.4307 84.8287 39.0243 85.6605 37.6233C86.2921 36.5639 86.9365 35.5137 87.5498 34.447C87.917 33.8007 88.2346 33.125 88.5927 32.4714C88.853 31.9857 89.1392 31.5144 89.4501 31.0594C89.513 30.9912 89.5913 30.9389 89.6785 30.907C89.7657 30.8751 89.8592 30.8644 89.9513 30.8758C90.3369 31.0023 90.7141 31.1532 91.0805 31.3275C91.501 31.5111 91.9361 31.6617 92.3382 31.8783C92.9863 32.2217 93.6124 32.5999 94.2459 32.9653C94.9675 33.382 95.7019 33.7823 96.4069 34.2248C97.112 34.6673 97.8078 35.1777 98.5184 35.6404C99.5227 36.2977 100.538 36.9256 101.544 37.5903C101.97 37.8694 102.356 38.2072 102.787 38.4771C103.082 38.6403 103.389 38.7815 103.705 38.8994C103.801 38.9416 103.909 38.9637 103.999 39.0132C104.55 39.3199 104.587 39.3566 104.952 38.8976C105.387 38.3265 105.785 37.7279 106.144 37.1056C106.694 36.2022 107.197 35.2824 107.719 34.368C108.27 33.4096 108.797 32.4438 109.353 31.4909C109.977 30.4278 110.62 29.3739 111.262 28.32C111.483 27.9528 111.802 27.8977 112.21 28.1658C113.007 28.6909 113.78 29.2472 114.58 29.7687C114.947 30.0092 115.366 30.1763 115.735 30.415C116.218 30.7271 116.675 31.0778 117.143 31.4101C117.718 31.8159 118.284 32.2382 118.873 32.6238C119.853 33.2664 120.843 33.8998 121.846 34.5075C122.312 34.7903 122.826 34.9996 123.314 35.2567C124.228 35.7463 125.136 36.2396 126.041 36.7365C126.408 36.9348 126.592 36.7916 126.775 36.4813C127.51 35.1575 128.244 33.8337 128.979 32.5173C129.713 31.2008 130.482 29.9192 131.226 28.6138C131.758 27.6792 132.276 26.7373 132.792 25.7936C133.06 25.3071 133.108 25.274 133.646 25.4466C135.023 25.8854 139.103 27.3249 139.778 27.5764C140.256 27.76 140.759 27.8757 141.236 28.0575C142.564 28.5624 143.972 28.5716 145.358 28.7295C146.744 28.8874 148.127 29.1132 149.511 29.306C149.811 29.3464 150.121 29.3427 150.416 29.4051C150.784 29.4823 150.879 29.6695 150.696 29.9927C150.031 31.1622 149.344 32.3226 148.676 33.494C148.309 34.133 147.993 34.7903 147.648 35.4366C147.251 36.1802 146.827 36.9054 146.451 37.6674C145.932 38.7103 145.432 39.7611 144.951 40.8199C144.749 41.2624 144.89 41.4662 145.395 41.435C146.702 41.3579 148.008 41.2514 149.311 41.1284C150.312 41.0347 151.312 40.9282 152.302 40.7612C152.936 40.6602 153.552 40.4527 154.175 40.293C154.726 40.1534 155.277 40.0286 155.827 39.8762C156.791 39.6081 157.761 39.3529 158.708 39.0371C159.656 38.7213 160.59 38.3229 161.541 37.9906C161.947 37.8473 162.391 37.8069 162.803 37.6748C163.732 37.3828 164.651 37.0633 165.575 36.7567C165.712 36.7073 165.854 36.6764 165.999 36.6649C166.315 36.6502 166.442 36.7953 166.308 37.0615C165.757 38.1631 165.184 39.2483 164.617 40.3389C164.315 40.9172 164.029 41.5066 163.699 42.0703C163.317 42.7221 162.902 43.3555 162.489 43.989C161.668 45.2485 160.836 46.5025 160.014 47.7639C159.77 48.1496 159.421 48.4574 159.007 48.6507C158.457 48.9059 157.937 49.2015 157.386 49.4549C156.696 49.7671 155.993 50.0571 155.286 50.3362C154.483 50.6502 153.679 50.9642 152.858 51.2322C152.363 51.3956 151.834 51.4672 151.322 51.5829C150.719 51.7188 150.115 51.8436 149.519 51.996C148.564 52.2402 147.616 52.523 146.656 52.7543C145.619 53.0059 144.578 53.2629 143.522 53.4355C142.132 53.665 140.746 53.9955 139.314 53.8688C139.154 53.8541 138.996 53.856 138.836 53.8431C138.374 53.8064 138.005 53.4759 138.26 52.9746C138.842 51.8234 139.385 50.6539 139.945 49.4861C140.285 48.7811 140.608 48.0705 140.968 47.3747C141.539 46.273 142.149 45.1879 142.716 44.0826C143.037 43.4565 143.329 42.8139 143.588 42.1621C143.781 41.6792 143.608 41.4736 143.069 41.4534C142.334 41.4277 141.6 41.4662 140.887 41.3762C140.028 41.2679 139.183 41.0586 138.335 40.8842C137.704 40.752 137.07 40.6216 136.446 40.4601C135.822 40.2985 135.238 40.0928 134.628 39.9386C134.019 39.7844 133.438 39.6981 132.851 39.5494C132.342 39.4297 131.839 39.2832 131.345 39.1106C130.301 38.725 129.271 38.3008 128.224 37.9116C127.806 37.7551 127.376 37.6323 126.939 37.5444C126.52 37.4599 126.155 37.5701 125.949 37.9906C125.743 38.411 125.543 38.7892 125.33 39.184C124.78 40.2012 124.242 41.2202 123.678 42.2319C123.351 42.8267 122.993 43.4051 122.659 43.9963C121.913 45.3146 121.181 46.6384 120.43 47.953C120.233 48.3142 120.002 48.6549 119.738 48.9702C119.658 49.029 119.566 49.0708 119.469 49.0932C119.372 49.1156 119.272 49.1181 119.174 49.1006C118.961 49.0693 118.772 48.9169 118.564 48.8362C117.026 48.2449 115.733 47.2737 114.393 46.3703C113.78 45.9554 113.093 45.6359 112.476 45.2338C111.813 44.7913 111.209 44.268 110.55 43.8219C109.981 43.4363 109.362 43.1168 108.776 42.7533C108.466 42.5605 108.193 42.3108 107.879 42.1254C106.999 41.5905 106.106 41.0751 105.2 40.5794C104.869 40.3958 104.649 40.4931 104.434 40.7905C103.728 41.7543 103.105 42.7757 102.571 43.8439C102.157 44.6408 101.693 45.4101 101.249 46.1904C100.657 47.2278 100.079 48.2707 99.4676 49.2933C99.0582 49.9782 98.6065 50.6373 98.164 51.3002C97.8372 51.7904 97.6352 51.7959 97.1322 51.4728C96.2141 50.8889 95.2777 50.3491 94.3652 49.7652C93.7171 49.3484 93.1057 48.8784 92.4612 48.4561C91.8976 48.0889 91.299 47.7657 90.7353 47.3949C90.0799 46.9652 89.4501 46.4989 88.7983 46.06C88.1465 45.6212 87.5755 45.2008 86.8576 44.8905C86.0974 44.5637 85.453 43.9908 84.7369 43.5575C84.2908 43.2894 83.8189 43.0709 83.336 42.8469C83.2765 42.8105 83.2097 42.7876 83.1404 42.7799C83.0711 42.7722 83.0009 42.7798 82.9348 42.8022C82.8688 42.8246 82.8085 42.8613 82.7582 42.9097C82.7079 42.958 82.6688 43.0168 82.6438 43.082C82.3647 43.6144 82.0838 44.1487 81.7992 44.6793C81.3733 45.4817 80.9418 46.2822 80.514 47.0846C79.9044 48.2248 79.3132 49.3778 78.6779 50.5051C77.9545 51.7904 77.1999 53.0628 76.4379 54.3297C76.3873 54.3968 76.3215 54.451 76.2458 54.4877C76.1702 54.5244 76.0869 54.5426 76.0028 54.5408C75.4667 54.4233 74.9415 54.2507 74.4146 54.0928C74.2972 54.036 74.1741 53.9916 74.0474 53.9606C73.0412 53.9129 72.2113 53.3694 71.2933 53.0793C70.1421 52.7121 69.0074 52.2971 67.8452 51.9777C67.1934 51.7941 66.4957 51.7757 65.8255 51.6435C65.1553 51.5113 64.4944 51.3277 63.8279 51.1716C63.6378 51.1214 63.4436 51.0882 63.2477 51.0725C62.2948 51.0266 61.3418 51.0009 60.3908 50.9495C59.6857 50.9109 59.2304 50.428 59.3571 49.868C59.4122 49.6045 59.4959 49.3478 59.6068 49.1024C60.0401 48.1844 60.4918 47.2829 60.9379 46.3758C61.2445 45.7553 61.5383 45.1292 61.867 44.5196C62.1773 43.9449 62.5335 43.3959 62.8548 42.8267C63.5892 41.5329 64.3169 40.2354 65.0378 38.9343C65.0978 38.8101 65.1926 38.7061 65.3105 38.6347C65.4285 38.5633 65.5647 38.5277 65.7025 38.5322H67.5734" fill="white"/>
<path fill-rule="evenodd" clip-rule="evenodd" d="M153.062 61.0203C152.998 61.2361 152.919 61.4471 152.825 61.6519C152.504 62.2358 152.155 62.805 151.839 63.3888C151.184 64.5951 150.554 65.8161 149.893 67.015C149.284 68.1167 148.628 69.1871 148.013 70.2832C147.676 70.8426 147.383 71.4269 147.135 72.0312C146.862 72.7656 146.256 73.0263 145.597 73.2834C144.635 73.6616 143.685 74.0692 142.723 74.4456C141.989 74.7338 141.245 74.9964 140.507 75.2645C140.252 75.3599 140.008 75.4921 139.745 75.5693C138.017 76.076 136.295 76.5993 134.555 77.0656C133.464 77.3576 132.351 77.5834 131.237 77.8001C130.172 78.0039 129.103 78.2003 128.026 78.3068C126.856 78.4225 125.677 78.4464 124.5 78.4904C124.159 78.5014 124.065 78.2921 124.221 78.0039C124.835 76.8637 125.45 75.7253 126.057 74.5833C127.054 72.7013 128.042 70.8175 129.037 68.9356C129.405 68.2562 129.772 67.5897 130.128 66.9049C130.324 66.5156 130.267 66.3816 129.836 66.321C128.83 66.1796 127.816 66.1062 126.81 65.9538C125.804 65.8014 124.836 65.6288 123.86 65.425C122.883 65.2212 121.902 64.9936 120.935 64.7402C120.384 64.597 119.866 64.373 119.332 64.2004C119.2 64.1422 119.06 64.105 118.917 64.0902C117.977 64.0902 117.211 63.5908 116.383 63.275C115.722 63.0241 115.062 62.7682 114.402 62.5075C114.134 62.4029 113.873 62.278 113.602 62.1807C113.253 62.054 112.974 62.1018 112.768 62.4561C111.911 63.9323 111.043 65.4012 110.164 66.8627C109.529 67.9312 108.879 68.9925 108.248 70.0629C107.88 70.6725 107.587 71.3133 107.212 71.9118C106.903 72.4033 106.552 72.8666 106.162 73.2962C106.068 73.3681 105.96 73.419 105.845 73.4453C105.73 73.4716 105.611 73.4727 105.495 73.4486C105.106 73.3513 104.761 73.1108 104.368 73.0006C103.426 72.7381 102.62 72.2515 101.825 71.7154C100.564 70.8598 99.2546 70.0629 97.9785 69.2348C97.3653 68.8401 96.7465 68.4564 96.1425 68.0414C95.2722 67.441 94.4257 66.8076 93.5573 66.2053C93.2378 65.985 92.8743 65.8271 92.5438 65.6215C92.2133 65.4158 91.8461 65.1625 91.5082 64.9183C91.2347 64.7236 91.0823 64.7842 90.9207 65.067C90.1349 66.4495 89.3197 67.8211 88.5338 69.1981C87.7829 70.5109 87.065 71.8476 86.2993 73.1512C85.7944 73.9994 85.2197 74.8036 84.6671 75.6317C84.6369 75.6838 84.5958 75.7289 84.5466 75.7638C84.4975 75.7987 84.4414 75.8226 84.3822 75.8339C84.323 75.8452 84.2621 75.8437 84.2035 75.8294C84.1449 75.8151 84.0901 75.7884 84.0428 75.751C83.4333 75.371 82.8365 74.9725 82.227 74.5925C81.9516 74.4217 81.6413 74.3005 81.3695 74.1243C80.7801 73.7387 80.2128 73.3201 79.6234 72.9363C78.3382 72.0991 77.0328 71.2839 75.7383 70.4448C75.3417 70.1914 74.9745 69.872 74.5467 69.6883C73.0981 69.0751 71.8697 68.1204 70.5184 67.3566C70.3605 67.2684 70.1751 67.2225 70.0098 67.1454C69.7197 67.0114 69.6426 66.8333 69.8097 66.5303C70.5827 65.1111 71.3336 63.6808 72.0993 62.2578C72.6335 61.2645 73.177 60.2749 73.7205 59.2852C74.286 58.2509 74.8546 57.2178 75.4262 56.186C75.5251 56.0344 75.6323 55.8885 75.7475 55.749C75.8311 55.6287 75.9545 55.5418 76.0959 55.5035C76.2372 55.4652 76.3876 55.478 76.5205 55.5397C76.6453 55.5819 76.7592 55.6572 76.8877 55.6921C78.6228 56.1713 80.0329 57.216 81.5182 58.1322C81.9607 58.4058 82.4785 58.5673 82.9081 58.8538C83.8427 59.4762 84.6818 60.2639 85.6788 60.7633C86.7804 61.3141 87.6984 62.1091 88.7266 62.748C89.0002 62.9188 89.2976 63.0547 89.573 63.2236C89.9402 63.4476 90.3013 63.682 90.6563 63.9268C91.0088 64.1692 91.1667 64.1361 91.376 63.7836C92.0719 62.6177 92.7898 61.4628 93.471 60.2951C93.8823 59.5863 94.2256 58.8391 94.6277 58.1248C95.263 56.9975 95.9258 55.883 96.5703 54.7612C96.9289 54.1369 97.2802 53.5102 97.6242 52.8811C97.8941 52.3798 98.1089 52.2917 98.5863 52.6093C99.183 53.0077 99.7356 53.4668 100.329 53.8725C101.285 54.5243 102.264 55.1578 103.226 55.7949C103.736 56.1382 104.19 56.5789 104.739 56.8414C106.066 57.4786 107.126 58.4792 108.367 59.2283C109.533 59.9242 110.735 60.5631 111.922 61.226C111.967 61.2517 112.019 61.2682 112.065 61.2939C112.939 61.7804 113.031 61.7364 113.464 60.8532C113.928 59.9113 114.428 58.9841 114.922 58.0569C115.656 56.675 116.396 55.2955 117.141 53.9184C117.58 53.1087 118.028 52.3009 118.5 51.5095C118.769 51.0405 119.081 50.5973 119.431 50.1857C119.523 50.1014 119.632 50.0384 119.751 50.0013C119.87 49.9642 119.996 49.9538 120.12 49.9709C120.782 50.1251 121.421 50.3657 122.073 50.5621C122.464 50.6796 122.872 50.7457 123.254 50.8834C124.133 51.1937 124.996 51.5426 125.874 51.8529C126.368 52.0273 126.884 52.1411 127.379 52.3082C128.485 52.6602 129.626 52.8869 130.782 52.9839C131.762 53.0849 132.722 53.3621 133.699 53.5218C134.617 53.6724 135.559 53.7697 136.49 53.8891C137.085 53.9643 137.224 54.2452 136.942 54.7575C136.415 55.7251 135.901 56.7001 135.385 57.6732C135.001 58.4076 134.634 59.142 134.239 59.8544C133.583 61.057 132.902 62.2413 132.25 63.4531C131.859 64.1753 131.492 64.9097 131.149 65.6564C130.993 65.9887 131.292 66.0236 131.516 66.0089C132.434 65.9703 133.341 65.9428 134.25 65.862C135.902 65.7151 137.544 65.5646 139.182 65.3534C139.916 65.2579 140.639 65.0211 141.363 64.8375C141.914 64.6979 142.453 64.5529 142.99 64.3858C143.753 64.149 144.512 63.8937 145.268 63.6349C146.064 63.3631 146.856 63.0828 147.644 62.7939C148.05 62.6452 148.437 62.4543 148.845 62.3184C149.212 62.1972 149.616 62.1477 149.989 62.0283C150.852 61.7511 151.707 61.4481 152.559 61.1599C152.68 61.1195 152.807 61.0993 153.062 61.0368" fill="white"/>
<path fill-rule="evenodd" clip-rule="evenodd" d="M80.6427 13.8636C81.4157 13.9114 87.5591 14.9653 88.2935 15.1746C89.1492 15.417 89.9992 15.6758 90.853 15.9274L91.088 15.9971C91.2716 16.0522 93.5171 16.7114 94.4186 17.0639C94.9805 17.2824 95.5203 17.5523 96.0711 17.7873C96.1299 17.8183 96.1945 17.8369 96.2609 17.8418C96.3272 17.8467 96.3938 17.8378 96.4566 17.8157C96.5193 17.7937 96.5768 17.7589 96.6255 17.7135C96.6742 17.6682 96.713 17.6133 96.7394 17.5523C96.901 17.2585 97.0332 16.9519 97.1966 16.66C98.1605 14.9377 99.119 13.21 100.101 11.497C100.779 10.3182 101.473 9.1468 102.196 7.99376C102.508 7.49619 102.912 7.05002 103.276 6.58183C103.339 6.48679 103.438 6.4206 103.55 6.39758C103.662 6.37456 103.778 6.39656 103.874 6.45881C105.229 7.22078 106.687 7.80648 107.952 8.72635C108.444 9.08255 109.013 9.33592 109.533 9.65723C110.2 10.0703 110.846 10.511 111.507 10.9296C112.201 11.3666 112.922 11.765 113.596 12.2296C114.305 12.7179 114.966 13.2706 115.66 13.7792C116.088 14.0932 116.578 14.3465 116.969 14.6972C117.211 14.9047 117.485 15.2297 117.492 15.5069C117.49 15.9984 117.392 16.4848 117.204 16.939C116.925 17.6414 116.602 18.3257 116.238 18.9881C115.515 20.3321 114.755 21.6559 114.017 22.9907C113.633 23.6866 113.282 24.399 112.882 25.0875C112.535 25.686 112.148 26.2607 111.771 26.8483C111.6 27.1182 111.345 27.1714 111.024 26.9694C110.414 26.5875 109.847 26.1249 109.201 25.8201C107.903 25.2068 106.86 24.2557 105.676 23.4975C105.093 23.1302 104.482 22.7979 103.906 22.4197C103.171 21.9386 102.488 21.3897 101.739 20.9362C100.391 20.1209 99.0143 19.3461 97.6373 18.575C97.3958 18.4372 97.122 18.3662 96.8441 18.3693C96.7275 18.3801 96.6146 18.4154 96.5126 18.473C96.4107 18.5306 96.3222 18.6092 96.2529 18.7035C95.3348 20.3247 94.4737 21.9717 93.5704 23.5966C92.8672 24.8635 92.1272 26.1102 91.4038 27.3642C90.9926 28.0747 90.607 28.8 90.1627 29.4904C89.8065 30.0412 89.5384 30.0871 88.8994 29.8851C88.2605 29.6831 87.583 29.5179 86.9404 29.2939C86.2977 29.0699 85.6753 28.7853 85.04 28.5411C83.6098 27.9903 82.1978 27.4138 80.6335 27.2559C79.5521 27.1439 78.4963 26.8042 77.4204 26.6132C76.3812 26.4296 75.331 26.3048 74.2862 26.1524C73.919 26.0992 73.5518 26.0514 73.1846 25.9688C72.7843 25.8825 72.6338 25.6548 72.8027 25.2913C73.2617 24.2668 73.7538 23.2533 74.2367 22.2379C74.4662 21.7514 74.6865 21.2611 74.9436 20.7874C75.353 20.0346 75.7808 19.2892 76.2141 18.5474C76.9485 17.2842 77.6279 15.3674 78.3788 14.1097C78.6065 13.7278 78.9553 13.7939 79.3666 13.86C79.5565 13.8967 79.7498 13.9127 79.9431 13.9077L80.6335 13.871" fill="white"/>
<path fill-rule="evenodd" clip-rule="evenodd" d="M111.118 89.8618C109.61 89.5093 104.536 88.0662 104.159 87.9175C102.99 87.4529 100.151 86.377 99.8995 86.3017C99.5323 86.1952 99.479 86.0171 99.6498 85.6922C99.9748 85.0807 100.28 84.4565 100.612 83.8561C100.944 83.2557 101.328 82.6131 101.677 81.987C102.312 80.845 102.933 79.6937 103.575 78.5554C104.218 77.417 104.881 76.2897 105.533 75.1568C105.641 74.9732 105.745 74.7749 105.835 74.5766C105.988 74.2351 106.243 74.2094 106.548 74.349C107.387 74.7556 108.264 75.0761 109.168 75.3056C110.086 75.5387 110.962 75.9684 111.856 76.3154C113.227 76.8478 114.61 77.3087 116.099 77.4794C116.936 77.5749 117.751 77.8099 118.585 77.9495C119.47 78.0982 120.361 78.2231 121.251 78.3295C121.787 78.3938 122.332 78.392 122.87 78.4416C123.293 78.4819 123.44 78.7133 123.262 79.0768C122.711 80.2133 122.127 81.3407 121.565 82.4735C121.37 82.8646 121.212 83.2704 121.014 83.656C120.394 84.8347 119.81 86.0428 119.114 87.1739C118.534 88.0671 117.902 88.9254 117.221 89.7443C117.088 89.9078 116.92 90.039 116.729 90.128C116.538 90.2171 116.33 90.2617 116.119 90.2584C115.635 90.2584 112.28 90.1336 111.118 89.8618Z" fill="white"/>
<path fill-rule="evenodd" clip-rule="evenodd" d="M71.3162 26.599C71.162 26.9662 71.0041 27.4105 70.7874 27.831C69.9074 29.5446 69.0163 31.2485 68.1141 32.9426C67.6092 33.8918 67.0713 34.8264 66.5443 35.7664C66.1863 36.4035 65.8099 37.0351 65.4647 37.6741C65.3842 37.83 65.2648 37.9626 65.1182 38.0591C64.9716 38.1556 64.8026 38.2127 64.6275 38.2249C63.2394 38.4085 61.8587 38.6435 60.4688 38.8216C59.29 38.9722 58.0984 39.0475 56.9197 39.2017C56.1853 39.2972 55.471 39.4606 54.755 39.6258C54.0389 39.7911 53.3871 39.982 52.7059 40.1766C52.3277 40.2813 51.9513 40.3933 51.5804 40.5218C50.5008 40.889 49.4212 41.2728 48.349 41.6657C47.2767 42.0586 46.2265 42.4772 45.1101 42.7379C44.6721 42.8691 44.2428 43.028 43.8249 43.2135C43.7175 43.2627 43.6038 43.2967 43.4871 43.3145C43.2264 43.331 43.0905 43.2153 43.219 42.9656C43.7827 41.8878 44.3574 40.8156 44.9284 39.7415C45.112 39.4018 45.2956 39.0603 45.4792 38.7243C46.3385 37.1765 47.2051 35.6342 48.0497 34.0828C48.371 33.4971 48.6335 32.8801 48.9806 32.3091C49.1642 31.9952 49.4286 31.6426 49.7499 31.4866C50.9029 30.9358 52.0945 30.4455 53.2733 29.9406C53.9471 29.6542 54.6154 29.3567 55.3058 29.1125C55.7611 28.9528 56.2514 28.8849 56.7232 28.7655C57.274 28.6278 57.8157 28.4791 58.361 28.3322C59.7601 27.954 61.15 27.539 62.5601 27.2012C63.8141 26.9001 65.0865 26.6632 66.3589 26.4337C67.2677 26.2685 68.1821 26.1198 69.1019 26.0445C69.721 26.0201 70.3409 26.0435 70.9564 26.1143C71.1822 26.1308 71.3585 26.252 71.3236 26.6008" fill="white"/>
<path fill-rule="evenodd" clip-rule="evenodd" d="M84.81 1.93338C84.6503 2.31344 84.4575 2.82753 84.2206 3.32327C83.8534 4.09625 83.4623 4.86189 83.0639 5.62018C82.436 6.80995 81.7897 7.9887 81.1599 9.17663C80.8056 9.84496 80.4769 10.5261 80.1225 11.1963C79.7076 11.9766 79.2798 12.7514 78.8538 13.5263C78.7837 13.6594 78.6779 13.7704 78.5481 13.8467C78.4183 13.9229 78.2698 13.9614 78.1194 13.9577C77.71 13.9669 77.2987 13.9706 76.8892 14.0036C75.4791 14.1156 74.0635 14.1983 72.6663 14.3708C71.2691 14.5434 69.8167 14.7674 68.4085 15.0484C67.4041 15.2485 66.4292 15.579 65.4414 15.8581C64.5858 16.1004 63.7192 16.3171 62.8819 16.609C61.8648 16.9634 60.877 17.3893 59.8726 17.7731C59.2502 18.0099 58.6186 18.2229 57.9907 18.4469C57.7823 18.5306 57.5689 18.6011 57.3517 18.658C57.1918 18.6754 57.0306 18.6754 56.8707 18.658C56.8544 18.516 56.865 18.3721 56.9019 18.2339C57.4784 17.1176 58.0751 16.0123 58.6572 14.8996C58.872 14.4902 59.0372 14.055 59.2704 13.6585C59.9779 12.454 60.6989 11.2581 61.4333 10.0708C61.8259 9.42154 62.255 8.79505 62.7185 8.19434C63.3648 7.37913 64.2975 6.87054 65.2009 6.38949C66.3154 5.79828 70.474 4.36983 71.3719 4.1293C71.8162 4.00996 72.2569 3.87776 72.703 3.76209C74.6584 3.26636 76.6028 2.72104 78.5784 2.30242C80.3777 1.91501 84.7971 1.43213 84.81 1.93338Z" fill="white"/>
<path fill-rule="evenodd" clip-rule="evenodd" d="M57.0359 50.8613C57.1296 50.8613 57.2196 50.8613 57.3132 50.8797C58.0017 50.9752 58.1119 51.2212 57.7759 51.7977C57.2526 52.7157 56.7605 53.6338 56.2428 54.5518C55.624 55.6534 54.9814 56.7275 54.3682 57.8255C54.0009 58.4993 53.6631 59.1934 53.3014 59.8727C52.8314 60.754 42.7496 63.6183 41.5708 63.8276C40.5481 64.0112 39.5511 64.3343 38.5468 64.5987C37.996 64.7419 37.4562 64.8833 36.9146 65.0431C36.5639 65.1459 36.2205 65.2762 35.879 65.4103C34.8857 65.7885 33.9034 66.1924 32.9009 66.5468C32.4089 66.7304 31.8801 66.802 31.3733 66.9434C31.0226 67.0425 30.6866 67.1876 30.336 67.2831C30.2115 67.2898 30.087 67.2729 29.9688 67.2335C29.9761 67.112 30.0002 66.9921 30.0404 66.8773C30.8446 65.2891 31.6377 63.6972 32.4695 62.1219C32.8862 61.3305 33.3673 60.5704 33.83 59.8029C34.4616 58.7564 35.0638 57.6915 35.7634 56.6816C36.0167 56.3144 36.4868 56.0739 36.8962 55.8334C38.1229 55.1268 39.4209 54.552 40.7685 54.1185C41.4864 53.8798 42.1694 53.542 42.8909 53.3125C43.4509 53.1289 44.0477 53.0628 44.6242 52.9287C45.2007 52.7947 45.746 52.6607 46.3023 52.5156C46.9138 52.3559 47.5141 52.1484 48.1384 52.0272C49.9249 51.6765 51.7187 51.3534 53.5107 51.0321C53.7864 50.9955 54.0643 50.9784 54.3424 50.9807C55.2403 50.9458 56.1399 50.9146 57.0396 50.8815V50.8613" fill="white"/>
<path d="M28.3437 28.8636L10.4219 61.6208L173.495 61.7401L190.824 28.7461L28.3437 28.8636Z" fill="black"/>
<path d="M189.992 31.1785H27.4531V29.873H189.992V31.1785Z" fill="#C1272D"/>
<path d="M188.807 33.0769H27.0391V31.7715H188.807V33.0769Z" fill="#C1272D"/>
<path d="M187.62 34.9168H25.8525V33.6113H187.62V34.9168Z" fill="#C1272D"/>
<path d="M186.908 36.8152H24.6055V35.5098H186.908V36.8152Z" fill="#C1272D"/>
<path d="M185.72 38.7156H23.6562V37.4102H185.72V38.7156Z" fill="#C1272D"/>
<path d="M179.786 50.1082H17.0684V48.8027H179.786V50.1082Z" fill="#C1272D"/>
<path d="M178.244 52.0672H15.8828V50.7617H178.244V52.0672Z" fill="#C1272D"/>
<path d="M177.829 53.907H14.6953V52.6016H177.829V53.907Z" fill="#C1272D"/>
<path d="M176.582 55.8054H13.9844V54.5H176.582V55.8054Z" fill="#C1272D"/>
<path d="M175.811 57.7039H12.7969V56.3984H175.811V57.7039Z" fill="#C1272D"/>
<path d="M175.218 59.6043H11.9668V58.2988H175.218V59.6043Z" fill="#C1272D"/>
<path d="M174.208 61.325H10.957V60.0195H174.208V61.325Z" fill="#C1272D"/>
<path d="M185.068 40.614H22.5293V39.3086H185.068V40.614Z" fill="#C1272D"/>
<path d="M183.881 42.5712H21.4023V41.2676H183.881V42.5712Z" fill="#C1272D"/>
<path d="M182.813 44.4127H20.2744V43.1055H182.813V44.4127Z" fill="#C1272D"/>
<path d="M181.745 46.3113H19.3838V45.0059H181.745V46.3113Z" fill="#C1272D"/>
<path d="M180.736 48.2097H18.1367V46.9043H180.736V48.2097Z" fill="#C1272D"/>
<path d="M18.0602 45.9954L8.87988 62.8082H173.852L174.744 61.1429H172.785H141.811V61.8773H18.0602V61.1429H11.3714L12.0012 60.0192L12.2325 59.6024L12.967 58.297L13.2864 57.7039L14.0209 56.3985L14.3513 55.8054L15.0858 54.5L15.4144 53.907L16.1488 52.6015L16.4463 52.0672L17.1422 50.7618L17.5094 50.1082L18.0602 49.1259V46.0046M192.486 28.0424H27.8703L25.8304 31.7659H27.7197L28.0465 31.1784L28.7809 29.8729L28.9462 29.5755H189.638L189.478 29.8729L188.783 31.1784L188.465 31.7659L187.769 33.0713L187.483 33.6056L186.794 34.9166L186.476 35.5096L185.781 36.8151L185.463 37.4081L185.142 37.9975V41.7394L192.486 28.0332" fill="url(#paint0_linear_2048_38057)"/>
<path d="M29.8879 52.2761C27.2164 52.4597 28.5513 50.0508 28.5513 50.0508C28.5513 50.0508 33.0625 41.4452 34.0117 40.081C34.9609 38.7168 36.215 38.8931 36.215 38.8931H53.5713L56.5989 33.3757C56.5989 33.3757 40.2121 33.2362 35.319 33.4932C30.4259 33.7503 28.9093 36.2473 27.9307 37.7363C26.9521 39.2254 20.7774 50.6787 20.3037 51.3562C19.83 52.0337 18.9083 54.3233 19.9181 55.7169C21.2823 57.5529 23.0394 57.3693 23.0394 57.3693L43.3646 57.1857L46.2435 52.0833C46.2435 52.0833 31.9296 52.1476 29.8879 52.2761Z" fill="url(#paint1_linear_2048_38057)"/>
<path d="M63.209 33.5819C62.1991 33.6994 57.15 33.6994 54.5152 38.5668C51.8805 43.4342 44.2773 57.2598 44.2773 57.2598H51.785L55.257 51.4431L66.2054 51.355L63.1484 57.1992L70.4485 57.2598L83.424 33.6701C83.424 33.6701 64.217 33.4626 63.209 33.5819ZM68.9338 46.3113L57.2436 46.2507C57.2436 46.2507 59.4469 43.1294 60.8349 40.7628C62.223 38.3961 63.3265 38.6256 63.3265 38.6256C63.3265 38.6256 73.1769 38.4769 73.0888 38.5962C73.0007 38.7156 68.9338 46.3113 68.9338 46.3113Z" fill="url(#paint2_linear_2048_38057)"/>
<path d="M103.436 45.4807C105.64 42.543 107.857 38.2705 108.065 37.4993C108.272 36.7282 108.509 33.4343 103.556 33.3756C98.6019 33.3168 84.277 33.3443 84.277 33.3443L71.1602 57.2609L78.6366 57.2902L83.6509 48.1815H85.6393L88.1309 57.3196L96.7071 57.349L94.3037 48.4753C94.3037 48.4753 101.246 48.4184 103.436 45.4807ZM85.6265 43.1067L88.3549 38.2117C88.3549 38.2117 97.3516 38.4486 97.6123 38.4486C97.873 38.4486 99.542 38.478 99.1564 40.0221C98.422 42.0418 96.4262 43.1673 96.07 43.1966C95.7138 43.226 85.6393 43.1067 85.6393 43.1067H85.6265Z" fill="url(#paint3_linear_2048_38057)"/>
<path d="M114.821 40.1352C114.773 40.194 114.727 40.2552 114.683 40.3188C113.807 41.5453 113.045 43.3465 115.397 43.3465H115.513C115.79 43.3465 116.143 43.3373 116.552 43.3373C118.607 43.3373 122.06 43.4126 124.363 43.4677V43.0399C121.66 42.9866 116.835 42.8985 115.069 42.8985C114.562 42.8985 114.264 42.7755 114.114 42.5717C113.888 42.2669 113.993 41.7822 114.217 41.2662C114.315 41.0436 114.425 40.826 114.545 40.6144C114.63 40.4621 114.716 40.3115 114.801 40.1683C114.808 40.1577 114.815 40.1466 114.821 40.1352ZM116.996 38.8335C116.383 38.9651 115.81 39.24 115.324 39.6358C115.517 39.5053 115.723 39.3957 115.939 39.309C116.185 39.2065 116.44 39.1267 116.701 39.0703L124.363 39.0979V38.9143L116.996 38.8371M124.368 33.1582C121.023 33.1839 117.942 33.2316 116.38 33.3143C115.669 33.352 114.963 33.4515 114.27 33.6117C113.152 33.866 112.085 34.3074 111.114 34.9172C110.827 35.0984 110.551 35.2964 110.287 35.5102C109.955 35.774 109.652 36.0726 109.382 36.4007C109.325 36.4741 109.219 36.6173 109.076 36.8156C108.958 36.979 108.817 37.1829 108.657 37.4087C108.404 37.7759 108.106 38.2221 107.794 38.716C107.673 38.8996 107.55 39.1052 107.427 39.309C107.174 39.7258 106.916 40.1664 106.674 40.6144C106.557 40.8311 106.443 41.0496 106.333 41.2662C106.11 41.7069 105.908 42.1457 105.738 42.5717C105.666 42.7553 105.6 42.9389 105.541 43.106C105.453 43.3637 105.379 43.6261 105.319 43.8918C105.306 44.0754 105.301 44.2462 105.301 44.4114C105.301 44.6207 105.301 44.8172 105.328 45.0045C105.366 45.4532 105.471 45.8938 105.639 46.3117C105.725 46.5187 105.83 46.7173 105.953 46.9048C106.351 47.4994 106.925 47.9555 107.594 48.2102C108.042 48.3887 108.517 48.4887 108.999 48.5058C108.999 48.5058 118.227 48.3222 119.057 48.3222C119.607 48.3222 120.487 48.3902 120.845 48.7978C121.028 48.9997 121.072 49.2862 120.896 49.6883C120.835 49.8303 120.766 49.9689 120.689 50.1032C120.557 50.3359 120.402 50.5549 120.226 50.7568C119.764 51.3082 119.135 51.6947 118.434 51.8585L96.0029 51.976L96.025 52.066L96.1627 52.6002L96.5005 53.9057L96.6529 54.4987L96.9907 55.8042L97.1431 56.3972L97.4259 57.4989C97.4259 57.4989 114.962 57.4107 116.682 57.4107H117.459C118.845 57.4107 120.713 57.3336 122.642 56.3991C123.004 56.2235 123.355 56.0254 123.693 55.806C123.849 55.7032 124.005 55.5949 124.161 55.4792C124.232 55.4259 124.306 55.3727 124.376 55.3176V54.9908L124.131 55.1524C121.164 57.0527 119.146 57.0527 117.424 57.0527C115.702 57.0527 97.6646 57.1114 97.6646 57.1114L96.4766 52.2459L118.142 52.3046C118.142 52.3046 120.399 52.121 121.109 50.1675C121.82 48.2139 120.457 48.0909 119.626 48.0909C118.794 48.0909 109.538 48.2102 109.538 48.2102H109.469C108.918 48.2102 105.361 48.0578 105.796 44.0552C106.39 41.3268 109.469 37.528 109.891 36.9937C110.313 36.4594 112.502 34.146 116.894 33.9092C118.408 33.8265 121.274 33.7806 124.377 33.7531V33.1582" fill="url(#paint4_linear_2048_38057)"/>
<path d="M29.2926 52.6033C27.2454 52.572 27.9284 50.5248 27.9284 50.5248C27.9284 50.5248 32.9427 41.2087 33.8919 39.8445C34.8412 38.4803 36.0952 38.6565 36.0952 38.6565L53.334 38.539L55.9448 33.8497C55.9448 33.8497 40.4577 33.701 35.5646 33.9691C30.6715 34.2371 29.1439 36.725 28.1579 38.2122C27.1719 39.6994 21.0156 51.1491 20.5401 51.8303C20.0646 52.5115 19.2347 54.0868 20.2427 55.4804C20.6212 56.0098 21.1201 56.4418 21.6981 56.7408C22.2762 57.0399 22.9169 57.1975 23.5678 57.2008L43.1512 56.9639L45.6446 52.572C45.6446 52.572 31.3398 52.6326 29.2926 52.6033Z" fill="url(#paint5_linear_2048_38057)"/>
<path d="M63.4464 34.0556C62.4366 34.175 57.3874 34.175 54.7526 39.0405C52.1179 43.9061 44.9609 56.9623 44.9609 56.9623H51.4881L54.7526 51.1769H66.9184L63.6832 56.8687H70.2049L82.8462 34.0501C82.8462 34.0501 64.4544 33.9381 63.4464 34.0556ZM69.1731 46.785L57.4829 46.7263C57.4829 46.7263 59.6861 43.605 61.0724 41.2365C62.4586 38.868 63.5639 39.1103 63.5639 39.1103C63.5639 39.1103 73.4162 38.9616 73.3262 39.0791C73.2363 39.1966 69.1731 46.785 69.1731 46.785Z" fill="url(#paint6_linear_2048_38057)"/>
<path d="M103.205 45.2436C105.409 42.3059 107.449 38.8339 107.656 38.0628C107.864 37.2916 108.758 33.9096 103.8 33.8398C98.843 33.7701 84.5217 33.8105 84.5217 33.8105L71.8125 56.9926L78.4003 56.9338L83.3852 48.0032H85.9942L88.337 56.9632L96.2321 57.0219L93.8581 48.24C93.8581 48.24 101.01 48.1813 103.205 45.2436ZM85.8767 43.5911L88.6069 38.6944C88.6069 38.6944 97.6036 38.9331 97.8644 38.9331C98.1251 38.9331 99.7922 38.9624 99.4066 40.5047C98.6722 42.5244 96.6764 43.6499 96.3202 43.6793C95.964 43.7087 85.8767 43.582 85.8767 43.582V43.5911Z" fill="url(#paint7_linear_2048_38057)"/>
<path d="M124.368 33.7539C121.265 33.7814 118.399 33.8273 116.884 33.91C112.492 34.1468 110.297 36.4603 109.882 36.9946C109.467 37.5288 106.38 41.3277 105.787 44.056C105.348 48.0586 108.908 48.211 109.459 48.211H109.529C109.529 48.211 118.786 48.0917 119.616 48.0917C120.446 48.0917 121.82 48.211 121.1 50.1683C120.38 52.1255 118.125 52.3055 118.125 52.3055L96.46 52.2467L97.6479 57.1123C97.6479 57.1123 115.687 57.0535 117.408 57.0535C119.128 57.0535 121.148 57.0535 124.115 55.1532L124.359 54.9916V43.4648C122.066 43.4097 118.603 43.3345 116.548 43.3345C116.139 43.3345 115.786 43.3345 115.509 43.3436H115.393C113.041 43.3436 113.803 41.5425 114.679 40.316C114.723 40.2536 114.769 40.1924 114.817 40.1324C114.967 39.9493 115.136 39.7819 115.32 39.633C115.806 39.2372 116.38 38.9622 116.993 38.8306L124.359 38.9077V33.7539" fill="url(#paint8_linear_2048_38057)"/>
<path d="M138.661 32.959L125.785 56.8755L168.215 56.7562L180.918 32.959H138.661ZM139.849 50.3116C139.444 50.3116 139.049 50.1915 138.712 49.9666C138.375 49.7416 138.113 49.4219 137.958 49.0478C137.803 48.6737 137.763 48.2621 137.842 47.865C137.92 47.4679 138.115 47.1031 138.402 46.8168C138.688 46.5305 139.053 46.3355 139.45 46.2565C139.847 46.1775 140.259 46.2181 140.633 46.373C141.007 46.528 141.327 46.7904 141.552 47.127C141.777 47.4637 141.897 47.8595 141.897 48.2644C141.897 48.8073 141.681 49.3281 141.297 49.712C140.913 50.0959 140.392 50.3116 139.849 50.3116ZM154.002 43.162H150.44L146.345 50.8165H143.202L147.148 43.2207H143.83L145.018 40.9055L155.313 40.9367L154.002 43.162ZM160.441 50.8734L157.711 50.934L158.008 40.6668L161.509 40.6961L161.326 46.6909L166.874 40.8449L170.642 40.7255L160.441 50.8734Z" fill="url(#paint9_linear_2048_38057)"/>
<path d="M139.077 33.3145L126.615 56.3992H167.859L180.439 33.3145H139.077ZM139.374 50.3164C138.969 50.3164 138.573 50.1963 138.237 49.9714C137.9 49.7464 137.638 49.4267 137.483 49.0526C137.328 48.6785 137.287 48.2669 137.366 47.8698C137.445 47.4727 137.64 47.1079 137.926 46.8216C138.213 46.5353 138.578 46.3403 138.975 46.2613C139.372 46.1823 139.783 46.2228 140.157 46.3778C140.532 46.5327 140.851 46.7951 141.076 47.1318C141.301 47.4685 141.421 47.8643 141.421 48.2692C141.42 48.8112 141.203 49.3305 140.82 49.7132C140.436 50.0959 139.916 50.3109 139.374 50.3109V50.3164ZM154.246 43.4036H150.679L146.584 50.8213H142.728L146.676 43.4624H143.353L144.776 40.6734L155.546 40.7028L154.246 43.4036ZM160.834 50.8507L157.333 50.88L157.601 40.4365H161.785L161.519 46.222L166.682 40.6734L170.954 40.6146L160.834 50.8507Z" fill="url(#paint10_linear_2048_38057)"/>
<path d="M181.626 33.1074H185.01L172.103 56.8458H168.779L181.626 33.1074Z" fill="url(#paint11_linear_2048_38057)"/>
<path d="M181.745 33.4336H184.414L171.775 56.5771H169.164L181.745 33.4336Z" fill="url(#paint12_linear_2048_38057)"/>
<defs>
<linearGradient id="paint0_linear_2048_38057" x1="8.87988" y1="45.4207" x2="192.486" y2="45.4207" gradientUnits="userSpaceOnUse">
<stop stop-color="#CBD1D6"/>
<stop offset="0.09" stop-color="#C7CDD2"/>
<stop offset="0.17" stop-color="#BCC3C7"/>
<stop offset="0.25" stop-color="#AAB1B5"/>
<stop offset="0.29" stop-color="#CAD1D5"/>
<stop offset="0.33" stop-color="#E1E8EC"/>
<stop offset="0.37" stop-color="#EFF6F9"/>
<stop offset="0.4" stop-color="#F4FBFE"/>
<stop offset="0.63" stop-color="#F4FBFE"/>
<stop offset="0.75" stop-color="#979DA1"/>
<stop offset="0.83" stop-color="#B0B7BC"/>
<stop offset="0.85" stop-color="#959B9F"/>
<stop offset="0.87" stop-color="#7D8387"/>
<stop offset="0.89" stop-color="#6F7478"/>
<stop offset="0.91" stop-color="#6A6F73"/>
<stop offset="0.93" stop-color="#71767A"/>
<stop offset="0.95" stop-color="#84898E"/>
<stop offset="0.97" stop-color="#A4A9AE"/>
<stop offset="1" stop-color="#CBD1D6"/>
</linearGradient>
<linearGradient id="paint1_linear_2048_38057" x1="38.0914" y1="57.4483" x2="38.0914" y2="33.3977" gradientUnits="userSpaceOnUse">
<stop stop-color="#AAB1B5"/>
<stop offset="0.25" stop-color="#AAB1B5"/>
<stop offset="0.4" stop-color="#92989C"/>
<stop offset="0.58" stop-color="#7C8286"/>
<stop offset="0.76" stop-color="#6F7478"/>
<stop offset="0.91" stop-color="#6A6F73"/>
<stop offset="1" stop-color="#6A6F73"/>
</linearGradient>
<linearGradient id="paint2_linear_2048_38057" x1="63.8534" y1="57.2671" x2="63.8534" y2="33.5526" gradientUnits="userSpaceOnUse">
<stop stop-color="#AAB1B5"/>
<stop offset="0.25" stop-color="#AAB1B5"/>
<stop offset="0.4" stop-color="#92989C"/>
<stop offset="0.58" stop-color="#7C8286"/>
<stop offset="0.76" stop-color="#6F7478"/>
<stop offset="0.91" stop-color="#6A6F73"/>
<stop offset="1" stop-color="#6A6F73"/>
</linearGradient>
<linearGradient id="paint3_linear_2048_38057" x1="89.686" y1="57.3784" x2="89.686" y2="33.3664" gradientUnits="userSpaceOnUse">
<stop stop-color="#AAB1B5"/>
<stop offset="0.25" stop-color="#AAB1B5"/>
<stop offset="0.4" stop-color="#92989C"/>
<stop offset="0.58" stop-color="#7C8286"/>
<stop offset="0.76" stop-color="#6F7478"/>
<stop offset="0.91" stop-color="#6A6F73"/>
<stop offset="1" stop-color="#6A6F73"/>
</linearGradient>
<linearGradient id="paint4_linear_2048_38057" x1="110.116" y1="57.4713" x2="110.116" y2="33.105" gradientUnits="userSpaceOnUse">
<stop stop-color="#AAB1B5"/>
<stop offset="0.25" stop-color="#AAB1B5"/>
<stop offset="0.4" stop-color="#92989C"/>
<stop offset="0.58" stop-color="#7C8286"/>
<stop offset="0.76" stop-color="#6F7478"/>
<stop offset="0.91" stop-color="#6A6F73"/>
<stop offset="1" stop-color="#6A6F73"/>
</linearGradient>
<linearGradient id="paint5_linear_2048_38057" x1="37.8652" y1="57.2173" x2="37.8652" y2="33.824" gradientUnits="userSpaceOnUse">
<stop stop-color="#CBD1D6"/>
<stop offset="0.09" stop-color="#C7CDD2"/>
<stop offset="0.17" stop-color="#BCC3C7"/>
<stop offset="0.25" stop-color="#AAB1B5"/>
<stop offset="0.29" stop-color="#CAD1D5"/>
<stop offset="0.33" stop-color="#E1E8EC"/>
<stop offset="0.37" stop-color="#EFF6F9"/>
<stop offset="0.4" stop-color="#F4FBFE"/>
<stop offset="0.63" stop-color="#F4FBFE"/>
<stop offset="0.75" stop-color="#979DA1"/>
<stop offset="0.83" stop-color="#B0B7BC"/>
<stop offset="0.85" stop-color="#959B9F"/>
<stop offset="0.87" stop-color="#7D8387"/>
<stop offset="0.89" stop-color="#6F7478"/>
<stop offset="0.91" stop-color="#6A6F73"/>
<stop offset="0.93" stop-color="#71767A"/>
<stop offset="0.95" stop-color="#84898E"/>
<stop offset="0.97" stop-color="#A4A9AE"/>
<stop offset="1" stop-color="#CBD1D6"/>
</linearGradient>
<linearGradient id="paint6_linear_2048_38057" x1="63.9293" y1="56.9844" x2="63.9293" y2="34.0263" gradientUnits="userSpaceOnUse">
<stop stop-color="#CBD1D6"/>
<stop offset="0.09" stop-color="#C7CDD2"/>
<stop offset="0.17" stop-color="#BCC3C7"/>
<stop offset="0.25" stop-color="#AAB1B5"/>
<stop offset="0.29" stop-color="#CAD1D5"/>
<stop offset="0.33" stop-color="#E1E8EC"/>
<stop offset="0.37" stop-color="#EFF6F9"/>
<stop offset="0.4" stop-color="#F4FBFE"/>
<stop offset="0.63" stop-color="#F4FBFE"/>
<stop offset="0.75" stop-color="#979DA1"/>
<stop offset="0.83" stop-color="#B0B7BC"/>
<stop offset="0.85" stop-color="#959B9F"/>
<stop offset="0.87" stop-color="#7D8387"/>
<stop offset="0.89" stop-color="#6F7478"/>
<stop offset="0.91" stop-color="#6A6F73"/>
<stop offset="0.93" stop-color="#71767A"/>
<stop offset="0.95" stop-color="#84898E"/>
<stop offset="0.97" stop-color="#A4A9AE"/>
<stop offset="1" stop-color="#CBD1D6"/>
</linearGradient>
<linearGradient id="paint7_linear_2048_38057" x1="89.8463" y1="57.0366" x2="89.8463" y2="33.827" gradientUnits="userSpaceOnUse">
<stop stop-color="#CBD1D6"/>
<stop offset="0.09" stop-color="#C7CDD2"/>
<stop offset="0.17" stop-color="#BCC3C7"/>
<stop offset="0.25" stop-color="#AAB1B5"/>
<stop offset="0.29" stop-color="#CAD1D5"/>
<stop offset="0.33" stop-color="#E1E8EC"/>
<stop offset="0.37" stop-color="#EFF6F9"/>
<stop offset="0.4" stop-color="#F4FBFE"/>
<stop offset="0.63" stop-color="#F4FBFE"/>
<stop offset="0.75" stop-color="#979DA1"/>
<stop offset="0.83" stop-color="#B0B7BC"/>
<stop offset="0.85" stop-color="#959B9F"/>
<stop offset="0.87" stop-color="#7D8387"/>
<stop offset="0.89" stop-color="#6F7478"/>
<stop offset="0.91" stop-color="#6A6F73"/>
<stop offset="0.93" stop-color="#71767A"/>
<stop offset="0.95" stop-color="#84898E"/>
<stop offset="0.97" stop-color="#A4A9AE"/>
<stop offset="1" stop-color="#CBD1D6"/>
</linearGradient>
<linearGradient id="paint8_linear_2048_38057" x1="110.436" y1="57.1269" x2="110.436" y2="33.7392" gradientUnits="userSpaceOnUse">
<stop stop-color="#CBD1D6"/>
<stop offset="0.09" stop-color="#C7CDD2"/>
<stop offset="0.17" stop-color="#BCC3C7"/>
<stop offset="0.25" stop-color="#AAB1B5"/>
<stop offset="0.29" stop-color="#CAD1D5"/>
<stop offset="0.33" stop-color="#E1E8EC"/>
<stop offset="0.37" stop-color="#EFF6F9"/>
<stop offset="0.4" stop-color="#F4FBFE"/>
<stop offset="0.63" stop-color="#F4FBFE"/>
<stop offset="0.75" stop-color="#979DA1"/>
<stop offset="0.83" stop-color="#B0B7BC"/>
<stop offset="0.85" stop-color="#959B9F"/>
<stop offset="0.87" stop-color="#7D8387"/>
<stop offset="0.89" stop-color="#6F7478"/>
<stop offset="0.91" stop-color="#6A6F73"/>
<stop offset="0.93" stop-color="#71767A"/>
<stop offset="0.95" stop-color="#84898E"/>
<stop offset="0.97" stop-color="#A4A9AE"/>
<stop offset="1" stop-color="#CBD1D6"/>
</linearGradient>
<linearGradient id="paint9_linear_2048_38057" x1="153.368" y1="56.8939" x2="153.368" y2="32.9792" gradientUnits="userSpaceOnUse">
<stop stop-color="#AAB1B5"/>
<stop offset="0.25" stop-color="#AAB1B5"/>
<stop offset="0.27" stop-color="#A8AFB3"/>
<stop offset="0.53" stop-color="#9BA2A6"/>
<stop offset="0.75" stop-color="#979DA1"/>
<stop offset="0.83" stop-color="#B0B7BC"/>
<stop offset="0.85" stop-color="#959B9F"/>
<stop offset="0.87" stop-color="#7D8387"/>
<stop offset="0.89" stop-color="#6F7478"/>
<stop offset="0.91" stop-color="#6A6F73"/>
<stop offset="1" stop-color="#6A6F73"/>
</linearGradient>
<linearGradient id="paint10_linear_2048_38057" x1="153.545" y1="56.4158" x2="153.545" y2="33.331" gradientUnits="userSpaceOnUse">
<stop stop-color="#CBD1D6"/>
<stop offset="0.09" stop-color="#C7CDD2"/>
<stop offset="0.17" stop-color="#BCC3C7"/>
<stop offset="0.25" stop-color="#AAB1B5"/>
<stop offset="0.29" stop-color="#CAD1D5"/>
<stop offset="0.33" stop-color="#E1E8EC"/>
<stop offset="0.37" stop-color="#EFF6F9"/>
<stop offset="0.4" stop-color="#F4FBFE"/>
<stop offset="0.63" stop-color="#F4FBFE"/>
<stop offset="0.75" stop-color="#979DA1"/>
<stop offset="0.83" stop-color="#B0B7BC"/>
<stop offset="0.85" stop-color="#959B9F"/>
<stop offset="0.87" stop-color="#7D8387"/>
<stop offset="0.89" stop-color="#6F7478"/>
<stop offset="0.91" stop-color="#6A6F73"/>
<stop offset="0.93" stop-color="#71767A"/>
<stop offset="0.95" stop-color="#84898E"/>
<stop offset="0.97" stop-color="#A4A9AE"/>
<stop offset="1" stop-color="#CBD1D6"/>
</linearGradient>
<linearGradient id="paint11_linear_2048_38057" x1="176.906" y1="56.8569" x2="176.906" y2="33.1203" gradientUnits="userSpaceOnUse">
<stop stop-color="#AAB1B5"/>
<stop offset="0.25" stop-color="#AAB1B5"/>
<stop offset="0.4" stop-color="#92989C"/>
<stop offset="0.58" stop-color="#7C8286"/>
<stop offset="0.76" stop-color="#6F7478"/>
<stop offset="0.91" stop-color="#6A6F73"/>
<stop offset="1" stop-color="#6A6F73"/>
</linearGradient>
<linearGradient id="paint12_linear_2048_38057" x1="176.824" y1="56.612" x2="176.824" y2="33.4685" gradientUnits="userSpaceOnUse">
<stop stop-color="#CBD1D6"/>
<stop offset="0.09" stop-color="#C7CDD2"/>
<stop offset="0.17" stop-color="#BCC3C7"/>
<stop offset="0.25" stop-color="#AAB1B5"/>
<stop offset="0.29" stop-color="#CAD1D5"/>
<stop offset="0.33" stop-color="#E1E8EC"/>
<stop offset="0.37" stop-color="#EFF6F9"/>
<stop offset="0.4" stop-color="#F4FBFE"/>
<stop offset="0.63" stop-color="#F4FBFE"/>
<stop offset="0.75" stop-color="#979DA1"/>
<stop offset="0.83" stop-color="#B0B7BC"/>
<stop offset="0.85" stop-color="#959B9F"/>
<stop offset="0.87" stop-color="#7D8387"/>
<stop offset="0.89" stop-color="#6F7478"/>
<stop offset="0.91" stop-color="#6A6F73"/>
<stop offset="0.93" stop-color="#71767A"/>
<stop offset="0.95" stop-color="#84898E"/>
<stop offset="0.97" stop-color="#A4A9AE"/>
<stop offset="1" stop-color="#CBD1D6"/>
</linearGradient>
</defs>
</svg>
