<svg width="201" height="92" viewBox="0 0 201 92" fill="none" xmlns="http://www.w3.org/2000/svg">
<path d="M174.618 1.78125H99.249V76.9974H174.618V1.78125Z" fill="white"/>
<path d="M174.618 1.78125H99.249V76.9974H174.618V1.78125Z" fill="white"/>
<path d="M99.2486 1.78125H23.8799V76.9974H99.2486V1.78125Z" fill="black"/>
<path d="M74.2007 45.3808C72.8764 47.6952 70.8225 49.5078 68.3589 50.5365C65.8952 51.5652 63.1599 51.7522 60.5787 51.0685C57.9974 50.3848 55.7151 48.8687 54.0868 46.7562C52.4585 44.6437 51.5757 42.0532 51.5757 39.388C51.5757 36.7229 52.4585 34.1324 54.0868 32.0199C55.7151 29.9074 57.9974 28.3913 60.5787 27.7076C63.1599 27.0239 65.8952 27.2109 68.3589 28.2396C70.8225 29.2683 72.8764 31.0809 74.2007 33.3953L92.9029 22.7311C89.2222 16.3046 83.5163 11.2725 76.673 8.41756C69.8297 5.56265 62.2328 5.04509 55.0642 6.9454C47.8956 8.84572 41.5574 13.0573 37.0357 18.925C32.5141 24.7926 30.0625 31.9872 30.0625 39.3894C30.0625 46.7916 32.5141 53.9862 37.0357 59.8538C41.5574 65.7214 47.8956 69.9331 55.0642 71.8334C62.2328 73.7337 69.8297 73.2161 76.673 70.3612C83.5163 67.5063 89.2222 62.4741 92.9029 56.0477L74.2007 45.3808Z" fill="white"/>
<path d="M169.232 71.623V7.1543H147.699V34.0149L126.166 7.1543H104.633V71.623H126.166V44.7624L147.699 71.623H169.232Z" fill="black"/>
<path d="M137.367 89.1011L138.457 91.5799H141.013L142.773 82.3712H139.673L138.903 86.4156L137.367 82.6908L135.828 86.4156L135.058 82.3712H131.958L133.721 91.5799H136.277L137.367 89.1011Z" fill="black"/>
<path d="M131.214 82.3712H121.984V85.0567H124.869V91.5799H128.33V85.0567H131.214V82.3712Z" fill="black"/>
<path d="M147.797 82.1779C146.845 82.1773 145.915 82.4584 145.124 82.9855C144.333 83.5126 143.716 84.2621 143.352 85.1391C142.988 86.0162 142.892 86.9813 143.078 87.9125C143.263 88.8437 143.721 89.699 144.394 90.3703C145.066 91.0416 145.924 91.4988 146.857 91.6838C147.79 91.8689 148.757 91.7737 149.636 91.4101C150.514 91.0465 151.265 90.431 151.794 89.6414C152.322 88.8518 152.603 87.9236 152.603 86.9742C152.603 85.7021 152.097 84.4822 151.195 83.5827C150.294 82.6832 149.071 82.1779 147.797 82.1779ZM147.797 88.701C147.455 88.701 147.12 88.5997 146.836 88.41C146.551 88.2202 146.329 87.9505 146.198 87.635C146.067 87.3195 146.033 86.9723 146.1 86.6373C146.167 86.3024 146.331 85.9947 146.573 85.7532C146.815 85.5117 147.124 85.3472 147.459 85.2806C147.795 85.214 148.143 85.2482 148.459 85.3789C148.775 85.5096 149.045 85.7309 149.236 86.0149C149.426 86.2988 149.527 86.6327 149.527 86.9742C149.527 87.4322 149.345 87.8714 149.02 88.1952C148.696 88.5191 148.256 88.701 147.797 88.701Z" fill="black"/>
<path d="M111.603 91.5799V82.3712H108.527V86.2088L105.449 82.3712H102.373V91.5799H105.449V87.7423L108.527 91.5799H111.603Z" fill="black"/>
<path d="M120.976 85.0567V82.3712H112.9V91.5799H120.976V89.085H115.976V88.1639H120.206V85.8597H115.976V85.0567H120.976Z" fill="black"/>
<path d="M162.36 85.6322C162.36 83.9591 161.036 82.3693 158.9 82.3693H153.518V91.5806H156.593V88.8951H157.57L158.916 91.5806H162.352L160.522 88.5191C161.065 88.2535 161.524 87.8434 161.849 87.334C162.173 86.8246 162.35 86.2356 162.36 85.6322ZM156.593 85.0575H158.515C158.619 85.0513 158.724 85.0665 158.823 85.1023C158.922 85.138 159.012 85.1935 159.088 85.2653C159.164 85.3371 159.225 85.4237 159.267 85.5198C159.308 85.6159 159.33 85.7195 159.33 85.8242C159.33 85.9289 159.308 86.0325 159.267 86.1286C159.225 86.2247 159.164 86.3113 159.088 86.3831C159.012 86.4549 158.922 86.5104 158.823 86.5461C158.724 86.5819 158.619 86.5971 158.515 86.5909H156.593V85.0575Z" fill="black"/>
<path d="M172.648 82.3712H168.692L166.4 85.3871V82.3712H163.321V91.5799H166.4V88.1478L168.692 91.5799H172.648L169.056 86.7996L172.648 82.3712Z" fill="black"/>
<path d="M42.6171 91.5883H45.8867L43.0019 82.377H38.3869L35.5049 91.5883H38.7879L39.2265 90.0522H42.1866L42.6171 91.5883ZM39.8858 87.7507L40.6931 84.9201L41.5004 87.7507H39.8858Z" fill="black"/>
<path d="M65.6727 82.3789H56.4453V85.0644H59.33V91.5876H62.7906V85.0644H65.6727V82.3789Z" fill="black"/>
<path d="M32.8248 87.9088C32.6169 88.2735 32.294 88.5594 31.9063 88.7219C31.5187 88.8844 31.088 88.9143 30.6815 88.807C30.2751 88.6997 29.9155 88.4612 29.659 88.1288C29.4025 87.7963 29.2634 87.3884 29.2634 86.9688C29.2634 86.5492 29.4025 86.1414 29.659 85.8089C29.9155 85.4764 30.2751 85.238 30.6815 85.1307C31.088 85.0234 31.5187 85.0533 31.9063 85.2158C32.294 85.3783 32.6169 85.6641 32.8248 86.0289L35.3355 84.5895C34.8096 83.6703 33.9941 82.9504 33.0157 82.5418C32.0373 82.1332 30.9511 82.0589 29.926 82.3303C28.9009 82.6018 27.9945 83.2038 27.3478 84.0428C26.7012 84.8817 26.3506 85.9104 26.3506 86.9688C26.3506 88.0273 26.7012 89.056 27.3478 89.8949C27.9945 90.7338 28.9009 91.3359 29.926 91.6073C30.9511 91.8788 32.0373 91.8045 33.0157 91.3959C33.9941 90.9873 34.8096 90.2674 35.3355 89.3482L32.8248 87.9088Z" fill="black"/>
<path d="M70.8639 82.1855C69.9135 82.1861 68.9846 82.4678 68.1946 82.9952C67.4046 83.5225 66.789 84.2718 66.4256 85.1483C66.0623 86.0247 65.9675 86.989 66.1532 87.9193C66.339 88.8495 66.7969 89.7039 67.4692 90.3744C68.1414 91.0449 68.9978 91.5014 69.93 91.6863C70.8622 91.8711 71.8284 91.776 72.7065 91.4129C73.5845 91.0498 74.3349 90.435 74.8629 89.6463C75.3909 88.8576 75.6727 87.9304 75.6727 86.9819C75.6727 86.3518 75.5483 85.7279 75.3066 85.1458C75.0649 84.5637 74.7107 84.0348 74.2641 83.5894C73.8175 83.144 73.2874 82.7908 72.704 82.5499C72.1206 82.309 71.4953 82.1852 70.8639 82.1855ZM70.8639 88.7087C70.5214 88.7103 70.1861 88.6104 69.9005 88.4216C69.6148 88.2328 69.3918 87.9637 69.2596 87.6483C69.1274 87.3329 69.092 86.9855 69.1578 86.65C69.2237 86.3145 69.3878 86.0061 69.6295 85.7638C69.8712 85.5214 70.1795 85.3562 70.5153 85.2889C70.8512 85.2216 71.1995 85.2553 71.5161 85.3858C71.8328 85.5163 72.1035 85.7376 72.294 86.0217C72.4845 86.3058 72.5862 86.64 72.5862 86.9819C72.5862 87.4385 72.405 87.8765 72.0822 88.2001C71.7595 88.5237 71.3214 88.7066 70.8639 88.7087Z" fill="black"/>
<path d="M81.2494 82.1855C80.2989 82.1855 79.3697 82.4668 78.5793 82.9939C77.789 83.5209 77.173 84.27 76.8092 85.1464C76.4454 86.0228 76.3503 86.9872 76.5357 87.9176C76.7212 88.848 77.1789 89.7026 77.851 90.3734C78.5232 91.0442 79.3795 91.501 80.3118 91.6861C81.2441 91.8712 82.2104 91.7762 83.0886 91.4131C83.9668 91.0501 84.7174 90.4354 85.2455 89.6466C85.7736 88.8579 86.0555 87.9305 86.0555 86.9819C86.0548 85.71 85.5482 84.4905 84.6471 83.5912C83.7459 82.6918 82.5239 82.1863 81.2494 82.1855ZM81.2494 88.7087C80.9072 88.7087 80.5727 88.6074 80.2881 88.4177C80.0036 88.2279 79.7818 87.9582 79.6508 87.6427C79.5199 87.3272 79.4856 86.98 79.5524 86.645C79.6191 86.31 79.7839 86.0024 80.0259 85.7609C80.2679 85.5194 80.5762 85.3549 80.9119 85.2883C81.2475 85.2217 81.5954 85.2559 81.9116 85.3865C82.2278 85.5172 82.498 85.7386 82.6881 86.0225C82.8782 86.3065 82.9797 86.6404 82.9797 86.9819C82.9797 87.4399 82.7974 87.8791 82.4729 88.2029C82.1484 88.5268 81.7083 88.7087 81.2494 88.7087Z" fill="black"/>
<path d="M96.1968 91.5876V82.3789H93.121V86.2165L90.0453 82.3789H86.9668V91.5876H90.0453V87.75L93.121 91.5876H96.1968Z" fill="black"/>
<path d="M55.6336 85.6399C55.6336 83.9668 54.3069 82.377 52.173 82.377H46.791V91.5883H49.8695V88.9028H50.8463L52.1918 91.5883H55.6336L53.8037 88.5268C54.3453 88.2601 54.8026 87.8495 55.1255 87.3402C55.4483 86.8308 55.6241 86.2425 55.6336 85.6399ZM49.8668 85.0652H51.7882C51.8929 85.059 51.9977 85.0742 52.0963 85.11C52.1949 85.1457 52.2852 85.2012 52.3615 85.273C52.4379 85.3448 52.4987 85.4314 52.5402 85.5275C52.5818 85.6236 52.6033 85.7272 52.6033 85.8319C52.6033 85.9366 52.5818 86.0402 52.5402 86.1363C52.4987 86.2324 52.4379 86.319 52.3615 86.3908C52.2852 86.4626 52.1949 86.5181 52.0963 86.5538C51.9977 86.5896 51.8929 86.6048 51.7882 86.5986H49.8668V85.0652Z" fill="black"/>
<path d="M176.116 89.0742V89.5227H175.355V91.612H174.817V89.5227H174.05V89.0742H176.116Z" fill="black"/>
<path d="M178.116 89.0749H178.88V91.6128H178.385V89.8967C178.385 89.8484 178.385 89.7786 178.385 89.6872V89.4805L177.903 91.6101H177.386L176.91 89.4805C176.91 89.5288 176.91 89.5959 176.91 89.6846V91.6101H176.415V89.0723H177.19L177.653 91.0676L178.116 89.0749Z" fill="black"/>
</svg>
