<svg width="201" height="91" viewBox="0 0 201 91" fill="none" xmlns="http://www.w3.org/2000/svg">
<path fill-rule="evenodd" clip-rule="evenodd" d="M145.482 45.377C145.482 51.2864 144.328 57.1381 142.087 62.5977C139.845 68.0574 136.56 73.0181 132.418 77.1968C128.277 81.3754 123.36 84.6901 117.948 86.9515C112.537 89.213 106.737 90.377 100.88 90.377C89.051 90.377 77.7063 85.6359 69.3419 77.1968C60.9774 68.7576 56.2783 57.3117 56.2783 45.377C56.2783 33.4422 60.9774 21.9963 69.3419 13.5571C77.7063 5.11801 89.051 0.376953 100.88 0.376953C106.737 0.376953 112.537 1.54091 117.948 3.80237C123.36 6.06383 128.277 9.37851 132.418 13.5571C136.56 17.7358 139.845 22.6965 142.087 28.1562C144.328 33.6158 145.482 39.4675 145.482 45.377Z" fill="#B50B37"/>
<path fill-rule="evenodd" clip-rule="evenodd" d="M137.669 53.6094C137.689 53.5187 137.741 53.4985 137.94 53.5191C138.668 53.5944 141.365 53.9004 142.093 53.9709C142.172 53.9785 142.27 54.0198 142.243 54.1444C140.157 64.0806 134.032 73.6966 125.053 79.9092C116.452 85.8598 106.572 88.3815 95.956 87.1967C90.4807 86.5857 85.3396 84.8509 80.5051 82.1978C80.3574 82.1167 80.3908 81.9537 80.4477 81.887C80.5078 81.8166 80.6027 81.8158 80.7007 81.8689C88.9164 86.3229 99.6715 87.7055 109.503 84.7404C119.787 81.6385 127.649 74.5808 132.419 66.6693C135.352 61.8039 136.874 57.1183 137.669 53.6094Z" fill="#CE5F7C"/>
<path fill-rule="evenodd" clip-rule="evenodd" d="M119.193 44.1708C117.872 47.0963 116.969 50.403 116.406 53.0449C115.495 53.4909 114.46 53.9017 113.688 53.6216C112.858 53.3207 112.808 52.1603 112.777 51.2603C112.652 47.6575 113.06 36.6776 113.352 29.2902C114.557 28.1418 117.875 26.9927 117.677 29.5644C117.284 34.6684 116.808 39.9396 116.449 45.2143C117.151 43.3242 118.346 40.1076 119.845 38.6929C121.111 37.4979 122.53 37.6042 123.872 39.5614C123.29 41.8939 122.9 44.3296 122.838 46.7331C122.81 47.8373 123.074 49.9754 123.687 50.4549C123.967 50.6744 124.815 50.2799 125.426 48.9364C124.405 45.7635 124.842 41.5592 125.873 37.5351C126.887 37.1866 127.757 36.9241 128.581 36.8895C129.514 36.8503 130.028 37.3896 129.793 38.2934C129.235 40.44 128.747 42.7666 128.751 44.8959C128.754 46.7465 129.063 48.7326 129.706 49.0815C130.142 49.3176 130.636 48.3251 130.901 47.0847C131.265 45.3841 131.487 42.6958 131.499 40.464C132.373 39.7178 132.905 39.4379 133.717 39.1587C134.634 38.8433 135.977 38.9256 135.931 40.1442C135.814 43.2087 135.676 48.1666 135.345 51.2512C135.136 53.2046 134.552 56.0953 133.65 58.2892C133.117 59.5885 132.358 60.7227 131.336 61.6767C130.232 62.5752 129.025 62.802 127.6 62.6838C126.204 62.5679 125.367 62.3535 124.459 61.654C123.55 60.9536 123.369 59.6194 124.371 58.7712C125.059 58.1896 125.895 58.0797 126.642 58.651C127.57 59.3605 128.148 60.2057 128.784 60.4156C129.379 60.6119 130.013 60.4757 130.391 59.877C130.926 59.029 131.185 57.8108 131.326 56.8106C131.642 54.5609 131.821 52.5981 131.89 50.3304C130.798 52.1666 129.288 52.6381 127.359 51.7446C127.091 51.5598 126.83 51.3062 126.598 51.0743C125.067 53.0592 122.227 53.8301 120.652 51.8387C119.271 50.0923 119.096 46.4944 119.193 44.1708Z" fill="#E5E5E5"/>
<path fill-rule="evenodd" clip-rule="evenodd" d="M101.04 28.5515C100.768 28.5381 100.483 28.5768 100.231 28.6278C99.3251 28.811 98.474 29.2417 97.9117 29.6257C97.6831 31.1961 97.4713 32.7771 97.2436 34.3419L91.9007 34.415C91.6234 34.804 91.4513 35.4893 91.5879 36.0718C91.7088 36.5871 92.0944 36.9603 92.8864 36.9163C94.2446 36.8409 95.2122 36.8197 96.9354 36.7295C96.4899 40.672 95.8077 45.3008 96.4395 49.3759C96.5024 49.5305 96.2811 50.0587 96.0882 50.3403C95.8696 50.6593 95.4278 50.7558 95.1743 50.5593C94.6749 50.172 94.4503 49.4441 94.3594 48.8117C94.2371 47.9611 94.2028 47.3215 94.2188 46.4619C94.2544 44.5468 94.4201 43.0859 94.6042 41.2041C94.6685 40.5475 94.7383 39.6484 94.682 39.2304C94.6358 38.8874 94.2717 38.7817 94.1074 38.7437C93.6554 38.639 93.1639 38.539 92.9473 38.8857C92.8774 38.9976 92.8148 39.27 92.6626 39.8594C92.3248 38.6509 91.3215 37.9915 90.1068 37.9126C87.0028 37.711 84.6293 39.5158 83.6326 42.6542C82.8775 45.032 82.9812 47.6452 83.6597 49.9858C84.0983 51.4984 84.9154 52.8834 85.9978 53.5487C87.6471 54.5625 90.2881 54.0512 91.2514 51.4946C92.4863 53.1547 95.9104 53.3999 97.1313 51.4733C97.5049 52.1652 98.2578 53.0101 99.4696 53.1742C100.966 53.3769 101.885 53.052 102.613 52.308C103.645 53.6539 105.327 54.4141 107.221 54.0437C109.597 53.579 111.645 51.4793 112.23 48.7392C112.311 48.3591 111.982 47.8618 111.652 47.6491C111.175 47.3412 110.671 47.3109 110.33 47.8296C110.12 48.1488 110.064 48.5769 109.702 49.2879C109.318 50.0427 108.752 51.0324 108.015 51.4393C106.46 52.2984 105.499 50.8467 105.172 49.0883C104.851 47.3561 104.993 45.4167 105.269 43.9555C105.568 42.374 105.983 40.9717 106.734 39.8801C106.988 39.5091 107.584 38.9467 107.812 39.2602C108.352 40.0009 108.26 42.3854 108.164 43.411C108.132 43.7553 108.517 44.173 109.228 44.2159C110.106 44.2689 110.972 43.9219 111.473 42.893C111.896 42.0263 111.903 40.9299 111.636 40.0023C111.004 37.8115 109.056 36.6947 106.648 37.4063C105.285 37.8092 103.932 39.0576 103.046 40.4771C101.27 43.3238 100.542 47.8446 101.822 50.8696C101.388 51.209 99.9796 51.5178 99.6401 49.8382C99.3093 48.2019 99.595 45.9101 99.8491 43.976C100.204 41.2724 100.599 39.1389 101.025 36.4334C103.112 36.3703 105.181 36.2849 107.267 36.1945C107.812 35.42 107.889 34.3659 106.854 34.1811C106.393 34.0989 105.777 34.1017 105.04 34.1225C103.856 34.156 102.575 34.1894 101.39 34.2033C101.647 32.8309 101.882 31.3953 102.149 29.9947C102.25 29.4667 102.129 29.0597 101.776 28.7875C101.573 28.6303 101.313 28.5649 101.04 28.5515ZM89.9311 40.8327C91.5514 40.8874 92.1739 42.2378 91.6378 46.2097C91.2487 49.0927 89.8054 52.0501 88.6174 50.9907C87.5157 50.0082 87.1985 46.8679 87.5593 44.3801C87.9228 41.8736 88.9859 40.8008 89.9311 40.8327Z" fill="#E6E6E6"/>
<path fill-rule="evenodd" clip-rule="evenodd" d="M76.034 30.0255C79.0185 29.6858 81.7925 31.2764 83.0152 34.5079C83.711 36.3469 83.7161 38.3205 82.9166 39.9032C82.0363 41.6458 80.0286 42.4492 78.4843 41.9414C77.9746 41.7738 77.6085 41.4782 77.5135 40.9459C77.3024 39.7635 77.2925 37.8885 77.0826 36.3834C76.9644 35.536 76.7862 34.7312 76.3972 33.9737C76.11 33.4142 75.8338 33.4029 75.3692 33.7275C74.5881 34.2731 73.9989 35.468 73.6783 36.3751C72.8442 38.7346 72.5066 41.2578 72.3999 43.2876C72.2114 46.8735 72.5898 50.3094 73.8881 53.8139C74.5388 55.5703 75.9365 57.9685 77.5827 58.1982C78.3789 58.3093 79.1383 57.9207 79.8492 56.8606C80.5527 55.8116 80.9151 54.646 81.2709 53.1545C82.1982 52.3367 83.1928 52.152 84.2865 52.7286C84.8812 53.2792 85.0442 53.9479 84.7754 54.7348C84.3427 57.2211 83.2743 59.391 81.2876 60.8848C78.8319 62.7312 76.0326 62.9085 73.2688 61.5426C70.6771 60.2617 68.8935 58.1233 67.6454 55.492C66.0004 52.0241 65.548 47.8357 65.998 43.7326C66.3369 40.6427 67.2507 37.7754 68.8586 35.132C69.7591 33.6516 70.8706 32.4037 72.2988 31.4237C73.4628 30.6249 74.6497 30.1831 76.034 30.0255Z" fill="#E5E5E5"/>
<path fill-rule="evenodd" clip-rule="evenodd" d="M86.046 61.3728C85.406 60.7331 85.0859 59.9533 85.0859 59.0333C85.0859 58.1134 85.406 57.3336 86.046 56.6939C86.6921 56.0542 87.5375 55.7344 88.5822 55.7344C89.0592 55.7344 89.4788 55.8105 89.8412 55.9628C90.2035 56.1091 90.5627 56.3314 90.919 56.6299L90.14 57.7722C89.6932 57.358 89.1739 57.1508 88.5822 57.1508C88.0145 57.1508 87.5586 57.3306 87.2145 57.69C86.8703 58.0494 86.6982 58.4972 86.6982 59.0333C86.6982 59.5695 86.8703 60.0172 87.2145 60.3767C87.5586 60.7361 88.0145 60.9159 88.5822 60.9159C89.1739 60.9159 89.6932 60.7087 90.14 60.2944L90.919 61.4367C90.5627 61.7353 90.2035 61.9607 89.8412 62.113C89.4788 62.2592 89.0592 62.3323 88.5822 62.3323C87.5375 62.3323 86.6921 62.0125 86.046 61.3728Z" fill="#E6E6E6"/>
<path fill-rule="evenodd" clip-rule="evenodd" d="M96.9579 61.3728C96.3238 62.0125 95.5238 62.3323 94.5576 62.3323C93.5915 62.3323 92.7884 62.0125 92.1483 61.3728C91.5143 60.727 91.1973 59.9472 91.1973 59.0333C91.1973 58.1195 91.5143 57.3427 92.1483 56.703C92.7884 56.0573 93.5915 55.7344 94.5576 55.7344C95.5238 55.7344 96.3238 56.0573 96.9579 56.703C97.5979 57.3427 97.918 58.1195 97.918 59.0333C97.918 59.9472 97.5979 60.727 96.9579 61.3728ZM93.2986 60.3676C93.6307 60.7209 94.0504 60.8976 94.5576 60.8976C95.0648 60.8976 95.4845 60.7209 95.8166 60.3676C96.1487 60.0081 96.3148 59.5634 96.3148 59.0333C96.3148 58.5033 96.1487 58.0616 95.8166 57.7083C95.4845 57.3488 95.0648 57.1691 94.5576 57.1691C94.0504 57.1691 93.6307 57.3488 93.2986 57.7083C92.9725 58.0616 92.8095 58.5033 92.8095 59.0333C92.8095 59.5634 92.9725 60.0081 93.2986 60.3676Z" fill="#E6E6E6"/>
<path fill-rule="evenodd" clip-rule="evenodd" d="M102.781 62.1597H101.74L100.354 58.7328L100.064 62.2328H98.4609L99.0497 55.8359H100.617L102.256 59.8751L103.905 55.8359H105.471L106.06 62.2328H104.457L104.167 58.7328L102.781 62.1597Z" fill="#E6E6E6"/>
<path fill-rule="evenodd" clip-rule="evenodd" d="M111.331 62.2328H106.965V55.8359H111.331V57.1701H108.568V58.4404H110.968V59.7015H108.568V60.8986H111.331V62.2328Z" fill="#E6E6E6"/>
<path fill-rule="evenodd" clip-rule="evenodd" d="M115.137 62.2328H112.393V55.8359H115.137C116.043 55.8359 116.801 56.1466 117.41 56.7681C118.02 57.3895 118.325 58.1449 118.325 59.0344C118.325 59.93 118.02 60.6884 117.41 61.3099C116.801 61.9252 116.043 62.2328 115.137 62.2328ZM113.996 57.1701V60.8986H114.838C115.424 60.8986 115.883 60.725 116.215 60.3777C116.547 60.0305 116.713 59.5827 116.713 59.0344C116.713 58.4861 116.547 58.0383 116.215 57.691C115.883 57.3438 115.424 57.1701 114.838 57.1701H113.996Z" fill="#E6E6E6"/>
<path fill-rule="evenodd" clip-rule="evenodd" d="M119.876 55.8359L121.307 58.2119L122.747 55.8359H124.559V56.0553L122.113 59.6192V62.2328H120.51V59.6467L118.056 56.0553V55.8359H119.876Z" fill="#E6E6E6"/>
<path fill-rule="evenodd" clip-rule="evenodd" d="M136.474 40.3035V39.3701H136.146V39.1816H136.993V39.3701H136.663V40.3035H136.474Z" fill="#E6E6E6"/>
<path fill-rule="evenodd" clip-rule="evenodd" d="M137.133 40.3035V39.1816H137.376L137.68 39.9858L138.025 39.1816H138.287V40.3035H138.071V39.5569L137.772 40.3035H137.626L137.328 39.5408V40.3035H137.133Z" fill="#E6E6E6"/>
</svg>
