<svg width="201" height="92" viewBox="0 0 201 92" fill="none" xmlns="http://www.w3.org/2000/svg">
<path fill-rule="evenodd" clip-rule="evenodd" d="M71.2344 36.6582C60.4889 36.6582 50.5332 45.3272 50.5332 56.003C50.5332 66.6789 60.5097 75.3479 71.2344 75.3479C81.9591 75.3479 90.065 66.6789 90.065 56.003C90.065 45.3479 82.0422 36.7203 71.3383 36.6582M71.2344 67.2375C63.6065 66.9272 56.7477 62.5617 53.2975 55.7754C56.7893 49.072 63.6481 44.7892 71.2344 44.5617C78.7999 44.7479 85.6379 49.0513 89.0465 55.7754C85.7003 62.5823 78.8414 66.9892 71.2344 67.2375Z" fill="#13325D"/>
<path d="M71.2337 44.5831C78.7992 44.7693 85.6372 49.0728 89.0458 55.7969H90.0435C89.9188 45.2659 81.9376 36.7418 71.3168 36.6797H71.2129C60.5505 36.6797 50.6572 45.2245 50.5117 55.7969H53.276C56.7886 49.0935 63.6474 44.79 71.2337 44.5831Z" fill="#12294A"/>
<path d="M71.2343 66.8241C77.2722 66.8241 82.1669 61.9517 82.1669 55.9413C82.1669 49.931 77.2722 45.0586 71.2343 45.0586C65.1964 45.0586 60.3018 49.931 60.3018 55.9413C60.3018 61.9517 65.1964 66.8241 71.2343 66.8241Z" fill="url(#paint0_linear_2048_37855)"/>
<path fill-rule="evenodd" clip-rule="evenodd" d="M70.2154 35.6035C58.9088 35.6035 49.7637 44.707 49.7637 55.9621C49.7637 67.2173 58.9088 76.3208 70.2154 76.3208C81.5221 76.3208 90.6672 67.2173 90.6672 55.9621C90.6672 44.769 81.5845 35.6656 70.3401 35.6035M70.2154 67.7552C62.1927 67.4449 54.9805 62.8311 51.3641 55.6932C55.0429 48.6587 62.255 44.1483 70.2154 43.9208C78.155 44.1277 85.3672 48.638 88.9629 55.7139C85.4296 62.8518 78.2174 67.4863 70.2154 67.7552Z" fill="url(#paint1_linear_2048_37855)"/>
<path d="M70.2154 67.2988C76.5632 67.2988 81.7091 62.1763 81.7091 55.8574C81.7091 49.5385 76.5632 44.416 70.2154 44.416C63.8676 44.416 58.7217 49.5385 58.7217 55.8574C58.7217 62.1763 63.8676 67.2988 70.2154 67.2988Z" fill="url(#paint2_linear_2048_37855)"/>
<path fill-rule="evenodd" clip-rule="evenodd" d="M70.2156 75.9689C64.8533 75.9689 59.8027 73.8792 55.9991 70.1137C52.1956 66.3275 50.1172 61.2999 50.1172 55.962C50.1172 50.624 52.2164 45.5965 55.9991 41.8103C59.7819 38.024 64.8533 35.9551 70.2156 35.9551H70.3195C75.6611 35.9758 80.6909 38.0861 84.4529 41.8516C88.2148 45.6171 90.2933 50.6447 90.2933 55.962C90.2933 61.2999 88.1941 66.3275 84.4113 70.1137C80.6493 73.8792 75.5988 75.9689 70.2156 75.9689ZM70.2156 43.5689C62.1305 43.7965 54.7937 48.3896 51.0525 55.5482L50.9693 55.7137L51.0525 55.8792C54.7313 63.1206 62.0682 67.7965 70.2156 68.1275H70.2364H70.2572C78.4046 67.8585 85.6999 63.162 89.2956 55.8792L89.3788 55.7344L89.2956 55.5896C85.6376 48.4103 78.3215 43.8171 70.2364 43.6103H70.2156V43.5689ZM81.356 55.8585C81.356 49.7344 76.347 44.7689 70.2156 44.7689C64.0842 44.7689 59.0752 49.7551 59.0752 55.8585C59.0752 61.962 64.0842 66.9482 70.2156 66.9482C76.347 66.9482 81.356 61.9827 81.356 55.8585Z" fill="#D8DADD"/>
<path fill-rule="evenodd" clip-rule="evenodd" d="M70.2158 75.617C64.9366 75.617 59.9899 73.5687 56.2487 69.8653C52.5076 66.1618 50.4707 61.217 50.4707 55.9618C50.4707 50.7066 52.5284 45.7825 56.2487 42.0584C59.9899 38.3342 64.9366 36.3066 70.2158 36.3066H70.3197C75.5782 36.3273 80.504 38.3963 84.2036 42.0997C87.9033 45.8032 89.9401 50.7273 89.9401 55.9618C89.9401 61.217 87.8825 66.1411 84.1621 69.8653C80.4625 73.5687 75.495 75.617 70.2158 75.617ZM70.195 43.217C61.9852 43.4446 54.5236 48.1204 50.7409 55.3825L50.5746 55.6929L50.7409 56.0239C54.4821 63.3687 61.9436 68.1273 70.195 68.4584H70.2158H70.2366C78.5087 68.1894 85.9287 63.4101 89.5868 56.0239L89.7323 55.7135L89.566 55.4032C85.8456 48.0997 78.4256 43.4446 70.2158 43.2377H70.195V43.217ZM70.2158 66.617C64.2715 66.617 59.4287 61.7963 59.4287 55.8791C59.4287 49.9618 64.2715 45.1204 70.2158 45.1204C76.1601 45.1204 81.0029 49.9411 81.0029 55.8584C81.0029 61.7756 76.1809 66.617 70.2158 66.617Z" fill="url(#paint3_linear_2048_37855)"/>
<path d="M140.675 43.8372L143.252 7.71307L132.901 5.58203L95.9678 45.0579C98.0254 48.4303 96.716 50.8096 96.716 55.051C96.716 56.8717 97.4019 59.2096 96.9862 60.9062H117.916L114.403 77.1682L115.11 77.52L137.723 61.2579L146.411 60.9062L150.069 43.8579L140.675 43.8372ZM121.221 45.7613L107.15 45.6165L125.024 27.5958L121.221 45.7613Z" fill="#24250D"/>
<path d="M141.381 44.1889L150.464 1.91992H132.049L89.4824 44.2923V44.3958C91.5401 47.7682 92.7248 51.7406 92.7248 55.9613C92.7248 57.782 92.5169 59.5613 92.1012 61.2579H118.664L115.13 77.5199H134.189L137.723 61.2579H147.097L150.755 44.2096L141.381 44.1889ZM122.322 44.1889H109.83L125.73 27.9475L122.322 44.1889Z" fill="#5A2A0E"/>
<path d="M141.381 44.1889L150.464 1.91992H132.049L89.4824 44.2923V44.3958C91.5401 47.7682 92.7248 51.7406 92.7248 55.9613C92.7248 57.782 92.5169 59.5613 92.1012 61.2579H118.664L115.13 77.5199H134.189L137.723 61.2579H147.097L150.755 44.2096L141.381 44.1889ZM122.322 44.1889H109.83L125.73 27.9475L122.322 44.1889Z" fill="url(#paint4_radial_2048_37855)"/>
<path d="M141.381 44.1889L150.464 1.91992H132.049L89.4824 44.2923V44.3958C91.5401 47.7682 92.7248 51.7406 92.7248 55.9613C92.7248 57.782 92.5169 59.5613 92.1012 61.2579H118.664L115.13 77.5199H134.189L137.723 61.2579H147.097L150.755 44.2096L141.381 44.1889ZM122.322 44.1889H109.83L125.73 27.9475L122.322 44.1889Z" fill="url(#paint5_radial_2048_37855)"/>
<path d="M141.381 44.1889L150.464 1.91992H132.049L89.4824 44.2923V44.3958C91.5401 47.7682 92.7248 51.7406 92.7248 55.9613C92.7248 57.782 92.5169 59.5613 92.1012 61.2579H118.664L115.13 77.5199H134.189L137.723 61.2579H147.097L150.755 44.2096L141.381 44.1889ZM122.322 44.1889H109.83L125.73 27.9475L122.322 44.1889Z" fill="url(#paint6_radial_2048_37855)"/>
<path d="M141.381 44.1889L150.464 1.91992H132.049L89.4824 44.2923V44.3958C91.5401 47.7682 92.7248 51.7406 92.7248 55.9613C92.7248 57.782 92.5169 59.5613 92.1012 61.2579H118.664L115.13 77.5199H134.189L137.723 61.2579H147.097L150.755 44.2096L141.381 44.1889ZM122.322 44.1889H109.83L125.73 27.9475L122.322 44.1889Z" fill="url(#paint7_radial_2048_37855)"/>
<path d="M141.381 44.1889L150.464 1.91992H132.049L89.4824 44.2923V44.3958C91.5401 47.7682 92.7248 51.7406 92.7248 55.9613C92.7248 57.782 92.5169 59.5613 92.1012 61.2579H118.664L115.13 77.5199H134.189L137.723 61.2579H147.097L150.755 44.2096L141.381 44.1889ZM122.322 44.1889H109.83L125.73 27.9475L122.322 44.1889Z" fill="url(#paint8_radial_2048_37855)"/>
<path d="M141.381 44.1889L150.464 1.91992H132.049L89.4824 44.2923V44.3958C91.5401 47.7682 92.7248 51.7406 92.7248 55.9613C92.7248 57.782 92.5169 59.5613 92.1012 61.2579H118.664L115.13 77.5199H134.189L137.723 61.2579H147.097L150.755 44.2096L141.381 44.1889ZM122.322 44.1889H109.83L125.73 27.9475L122.322 44.1889Z" fill="url(#paint9_radial_2048_37855)"/>
<path d="M141.381 44.1889L150.464 1.91992H132.049L89.4824 44.2923V44.3958C91.5401 47.7682 92.7248 51.7406 92.7248 55.9613C92.7248 57.782 92.5169 59.5613 92.1012 61.2579H118.664L115.13 77.5199H134.189L137.723 61.2579H147.097L150.755 44.2096L141.381 44.1889ZM122.322 44.1889H109.83L125.73 27.9475L122.322 44.1889Z" fill="url(#paint10_radial_2048_37855)"/>
<path d="M141.381 44.1889L150.464 1.91992H132.049L89.4824 44.2923V44.3958C91.5401 47.7682 92.7248 51.7406 92.7248 55.9613C92.7248 57.782 92.5169 59.5613 92.1012 61.2579H118.664L115.13 77.5199H134.189L137.723 61.2579H147.097L150.755 44.2096L141.381 44.1889ZM122.322 44.1889H109.83L125.73 27.9475L122.322 44.1889Z" fill="url(#paint11_radial_2048_37855)"/>
<path d="M141.381 44.1889L150.464 1.91992H132.049L89.4824 44.2923V44.3958C91.5401 47.7682 92.7248 51.7406 92.7248 55.9613C92.7248 57.782 92.5169 59.5613 92.1012 61.2579H118.664L115.13 77.5199H134.189L137.723 61.2579H147.097L150.755 44.2096L141.381 44.1889ZM122.322 44.1889H109.83L125.73 27.9475L122.322 44.1889Z" fill="url(#paint12_radial_2048_37855)"/>
<path d="M141.381 44.1889L150.464 1.91992H132.049L89.4824 44.2923V44.3958C91.5401 47.7682 92.7248 51.7406 92.7248 55.9613C92.7248 57.782 92.5169 59.5613 92.1012 61.2579H118.664L115.13 77.5199H134.189L137.723 61.2579H147.097L150.755 44.2096L141.381 44.1889ZM122.322 44.1889H109.83L125.73 27.9475L122.322 44.1889Z" fill="url(#paint13_radial_2048_37855)"/>
<path d="M116.419 76.4643L119.932 60.2022H93.39C93.6394 58.816 93.7849 57.3884 93.7849 55.9608C93.7849 51.9263 92.7457 47.9953 90.792 44.4987L132.485 2.97461H149.175L140.092 45.2436H149.466L146.245 60.2022H136.871L133.337 76.4643H116.419ZM107.336 45.2436H123.174L127.497 24.6574L107.336 45.2436Z" fill="url(#paint14_linear_2048_37855)"/>
<path d="M89.9603 55.9626C89.9603 56.0247 89.9603 56.0661 89.9603 56.1281C89.8149 56.1488 89.6694 56.1488 89.5239 56.1695C89.5447 56.1281 89.5654 56.0661 89.5862 56.0247L89.7317 55.7143L89.5654 55.404C85.845 48.1005 78.4251 43.4454 70.2152 43.2385H70.1945H70.1737C62.2549 43.4867 55.0427 47.8109 51.156 54.6178C50.9482 54.5764 50.7196 54.535 50.5117 54.5143C50.8651 49.8178 52.8603 45.4523 56.2482 42.0798C59.9894 38.3557 64.936 36.3281 70.2152 36.3281H70.3192C75.5776 36.3488 80.5035 38.4178 84.2031 42.1212C87.9027 45.8247 89.9603 50.7281 89.9603 55.9626ZM70.2152 45.1212C64.2917 45.1212 59.4698 49.8798 59.4282 55.7764C66.2039 56.5212 73.4576 56.8109 80.9815 56.604C81.0023 56.3557 81.0023 56.1074 81.0023 55.8798C81.0023 49.9419 76.1803 45.1212 70.2152 45.1212Z" fill="url(#paint15_linear_2048_37855)"/>
<path d="M140.217 44.5815L149.175 2.97461H132.486L90.7715 44.4987C92.7044 47.9332 93.7436 51.8229 93.7644 55.7953C95.0531 55.6712 96.3417 55.5263 97.6303 55.3608C113.468 53.4574 128.038 49.6298 140.217 44.5815ZM127.497 24.6367L123.174 45.2229H107.337L127.497 24.6367Z" fill="url(#paint16_linear_2048_37855)"/>
<path d="M148.739 84.9697H143.127L142.898 86.087H148.115L147.699 88.1559H142.462L142.212 89.2939H147.845L147.409 91.3214H138.43L140.217 82.8594H149.3L148.739 84.9697Z" fill="black"/>
<path d="M80.2751 87.5979L81.2728 82.922H84.4736L82.7069 91.322H78.9865L76.4716 86.6668L75.4532 91.322H72.2524L74.0398 82.922H77.8642L80.2751 87.5979Z" fill="black"/>
<path d="M51.3226 88.4875L51.7175 86.5634H56.4771L55.4587 91.322C55.4587 91.322 54.5026 91.322 54.0038 91.322C53.9206 91.1151 53.8583 90.9082 53.7751 90.6599C52.923 91.2186 52.0085 91.591 51.0108 91.6117C49.93 91.6324 48.8493 91.6737 47.81 91.4875C45.5653 91.0737 44.6508 89.6255 45.0873 87.4117C45.6277 84.6186 47.4775 82.922 50.4289 82.7151C51.7591 82.6324 53.11 82.7151 54.4195 82.9427C56.103 83.2324 56.8304 84.2875 56.6642 85.8186C55.4379 85.8186 54.2116 85.8186 52.9853 85.8186C52.6944 85.0117 52.4449 84.8255 51.572 84.7841C49.6806 84.7013 48.2673 86.2944 48.5791 88.1565C48.683 88.7565 48.9947 89.191 49.5975 89.3772C50.3665 89.6048 51.1355 89.6048 51.863 89.253C52.2579 89.0461 52.7567 88.5082 52.7567 88.5082H51.3226V88.4875Z" fill="black"/>
<path d="M94.6787 88.8186H98.6277C98.6277 89.3979 99.0226 89.5427 99.5006 89.5427C99.9787 89.5427 100.457 89.5427 100.893 89.4186C100.956 89.3979 101.018 89.3565 101.08 89.2944C101.35 89.0048 101.288 88.5289 100.935 88.3634C100.914 88.3427 100.872 88.3427 100.852 88.3427C99.75 88.1358 98.6277 87.991 97.5053 87.8048C96.6324 87.6599 95.7387 87.4737 95.4893 86.4599C95.2398 85.3841 95.614 84.4737 96.4245 83.7496C97.1312 83.1082 98.0249 82.8599 98.9394 82.7358C100.54 82.5082 102.14 82.5082 103.72 82.8599C104.136 82.9634 104.572 83.1289 104.946 83.3358C105.694 83.7703 105.944 84.4324 105.757 85.3427H102.016C101.725 84.6186 101.08 84.3703 99.9579 84.5358C99.4383 84.6186 99.2096 84.7841 99.1473 85.1979C99.1265 85.3427 99.2304 85.5082 99.3551 85.5703C99.6253 85.6944 102.514 85.9841 103.304 86.1289C104.239 86.2944 105.216 86.5013 105.487 87.5979C105.757 88.6944 105.362 89.7082 104.468 90.3703C103.824 90.8462 103.013 91.1979 102.244 91.3841C100.436 91.7772 98.6069 91.7772 96.7779 91.4255C96.2791 91.322 95.7594 91.1151 95.323 90.8462C94.5955 90.391 94.4085 89.6462 94.6787 88.8186Z" fill="black"/>
<path d="M88.4433 88.1778L88.1939 89.3158H93.8264L93.4107 91.3227H84.4111L86.1986 82.9434H95.1774L94.7617 84.9916C94.7617 84.9916 90.9998 84.9916 89.1292 84.9916C89.046 85.3641 88.9629 85.7158 88.8798 86.1296C90.6464 86.1296 94.1174 86.1296 94.1174 86.1296L93.6809 88.1985H88.4433V88.1778Z" fill="black"/>
<path d="M65.1442 82.922L66.9316 91.322H63.3983L63.2112 90.4117H59.7818L59.2414 91.322H55.6665L61.0289 82.922H65.1442ZM62.5461 85.4462L60.9665 88.3013H62.9202L62.5461 85.4462Z" fill="black"/>
<path d="M113.364 82.922H116.959L111.535 91.322H108.043L106.11 82.922H109.706L110.496 88.1772L113.364 82.922Z" fill="black"/>
<path d="M131.259 82.922H134.605L133.296 89.0668H138.45L137.993 91.322H129.472L131.259 82.922Z" fill="black"/>
<path d="M122.135 82.922H125.481L124.192 89.0462H129.347L128.869 91.322H120.347L122.135 82.922Z" fill="black"/>
<path d="M118.788 91.322H115.442L117.23 82.922H120.576L118.788 91.322Z" fill="black"/>
<path d="M70.6312 91.322H67.2849L69.0724 82.922H72.4187L70.6312 91.322Z" fill="black"/>
<defs>
<linearGradient id="paint0_linear_2048_37855" x1="71.2284" y1="66.8096" x2="71.2284" y2="45.0551" gradientUnits="userSpaceOnUse">
<stop stop-color="#13325D"/>
<stop offset="1" stop-color="#12294A"/>
</linearGradient>
<linearGradient id="paint1_linear_2048_37855" x1="49.7737" y1="55.9533" x2="90.6693" y2="55.9533" gradientUnits="userSpaceOnUse">
<stop stop-color="#EFEFF0"/>
<stop offset="0.291" stop-color="#ABABAC"/>
<stop offset="0.5821" stop-color="#EFEFEE"/>
<stop offset="0.8032" stop-color="#949494"/>
<stop offset="1" stop-color="#E1E2E2"/>
</linearGradient>
<linearGradient id="paint2_linear_2048_37855" x1="58.7299" y1="55.8613" x2="81.7201" y2="55.8613" gradientUnits="userSpaceOnUse">
<stop stop-color="#EFEFF0"/>
<stop offset="0.291" stop-color="#ABABAC"/>
<stop offset="0.5821" stop-color="#EFEFEE"/>
<stop offset="0.8032" stop-color="#949494"/>
<stop offset="1" stop-color="#E1E2E2"/>
</linearGradient>
<linearGradient id="paint3_linear_2048_37855" x1="70.2219" y1="75.6131" x2="70.2219" y2="36.293" gradientUnits="userSpaceOnUse">
<stop stop-color="#6D7B94"/>
<stop offset="0.5" stop-color="#E6E7EB"/>
</linearGradient>
<radialGradient id="paint4_radial_2048_37855" cx="0" cy="0" r="1" gradientUnits="userSpaceOnUse" gradientTransform="translate(102.599 31.1959) scale(9.95411 9.90877)">
<stop stop-color="#F8EC95"/>
<stop offset="0.25" stop-color="#F4E888"/>
<stop offset="1" stop-color="#E5DA92" stop-opacity="0"/>
</radialGradient>
<radialGradient id="paint5_radial_2048_37855" cx="0" cy="0" r="1" gradientUnits="userSpaceOnUse" gradientTransform="translate(113.835 38.2333) scale(5.79377 5.76739)">
<stop stop-color="#F8EC95"/>
<stop offset="0.25" stop-color="#F4E888"/>
<stop offset="1" stop-color="#E5DA92" stop-opacity="0"/>
</radialGradient>
<radialGradient id="paint6_radial_2048_37855" cx="0" cy="0" r="1" gradientUnits="userSpaceOnUse" gradientTransform="translate(123.934 40.0555) scale(6.77284 6.74199)">
<stop stop-color="#F8EC95"/>
<stop offset="0.25" stop-color="#F4E888"/>
<stop offset="1" stop-color="#E5DA92" stop-opacity="0"/>
</radialGradient>
<radialGradient id="paint7_radial_2048_37855" cx="0" cy="0" r="1" gradientUnits="userSpaceOnUse" gradientTransform="translate(121.914 12.1573) scale(10.715 10.6662)">
<stop stop-color="#F8EC95"/>
<stop offset="0.25" stop-color="#F4E888"/>
<stop offset="1" stop-color="#E5DA92" stop-opacity="0"/>
</radialGradient>
<radialGradient id="paint8_radial_2048_37855" cx="0" cy="0" r="1" gradientUnits="userSpaceOnUse" gradientTransform="translate(151.739 1.78968) scale(9.82369 9.77894)">
<stop stop-color="#F8EC95"/>
<stop offset="0.25" stop-color="#F4E888"/>
<stop offset="1" stop-color="#E5DA92" stop-opacity="0"/>
</radialGradient>
<radialGradient id="paint9_radial_2048_37855" cx="0" cy="0" r="1" gradientUnits="userSpaceOnUse" gradientTransform="translate(147.479 19.8858) scale(7.84662 7.81088)">
<stop stop-color="#F8EC95"/>
<stop offset="0.25" stop-color="#F4E888"/>
<stop offset="1" stop-color="#E5DA92" stop-opacity="0"/>
</radialGradient>
<radialGradient id="paint10_radial_2048_37855" cx="0" cy="0" r="1" gradientUnits="userSpaceOnUse" gradientTransform="translate(150.193 47.2186) scale(12.9163 12.8575)">
<stop stop-color="#F8EC95"/>
<stop offset="0.25" stop-color="#F4E888"/>
<stop offset="1" stop-color="#E5DA92" stop-opacity="0"/>
</radialGradient>
<radialGradient id="paint11_radial_2048_37855" cx="0" cy="0" r="1" gradientUnits="userSpaceOnUse" gradientTransform="translate(138.957 66.2573) scale(8.13384 8.09679)">
<stop stop-color="#F8EC95"/>
<stop offset="0.25" stop-color="#F4E888"/>
<stop offset="1" stop-color="#E5DA92" stop-opacity="0"/>
</radialGradient>
<radialGradient id="paint12_radial_2048_37855" cx="0" cy="0" r="1" gradientUnits="userSpaceOnUse" gradientTransform="translate(122.482 57.7747) scale(15.1503 15.0813)">
<stop stop-color="#F8EC95"/>
<stop offset="0.25" stop-color="#F4E888"/>
<stop offset="1" stop-color="#E5DA92" stop-opacity="0"/>
</radialGradient>
<radialGradient id="paint13_radial_2048_37855" cx="0" cy="0" r="1" gradientUnits="userSpaceOnUse" gradientTransform="translate(94.4565 51.1771) scale(10.2327 10.1861)">
<stop stop-color="#F8EC95"/>
<stop offset="0.25" stop-color="#F4E888"/>
<stop offset="1" stop-color="#E5DA92" stop-opacity="0"/>
</radialGradient>
<linearGradient id="paint14_linear_2048_37855" x1="94.3538" y1="61.8765" x2="160.942" y2="23.2558" gradientUnits="userSpaceOnUse">
<stop stop-color="#E09C2E"/>
<stop offset="0.25" stop-color="#E3A738"/>
<stop offset="0.5" stop-color="#ECC358"/>
<stop offset="0.9" stop-color="#FEFEFE"/>
</linearGradient>
<linearGradient id="paint15_linear_2048_37855" x1="50.5309" y1="46.4849" x2="89.9678" y2="46.4849" gradientUnits="userSpaceOnUse">
<stop offset="0.25" stop-color="white"/>
<stop offset="0.75" stop-color="white" stop-opacity="0"/>
</linearGradient>
<linearGradient id="paint16_linear_2048_37855" x1="119.972" y1="55.7845" x2="119.972" y2="2.96907" gradientUnits="userSpaceOnUse">
<stop stop-color="white" stop-opacity="0.25"/>
<stop offset="0.75" stop-color="white" stop-opacity="0"/>
</linearGradient>
</defs>
</svg>
