<svg width="201" height="91" viewBox="0 0 201 91" fill="none" xmlns="http://www.w3.org/2000/svg">
<path fill-rule="evenodd" clip-rule="evenodd" d="M96.4546 61.1696L98.016 53.9007H105.317L107.105 45.6252H111.135L113.964 53.9007H121.478L117.964 44.3557C121.839 42.9893 124.483 39.9984 124.483 35.5064C124.483 30.7928 120.274 27.6774 115.806 27.6774H103.815L105.438 20.1289H200.877L191.977 61.1704L96.4546 61.1696ZM150.837 49.3758C148.106 52.193 143.629 54.6474 138.303 54.6474C130.756 54.6474 125.503 49.117 125.503 42.6306C125.503 33.6957 133.559 26.9453 142.801 26.9453C147.575 26.9453 151.762 29.2079 154.052 32.2123L148.8 36.4979C148.8 36.4979 146.864 33.3773 142.111 33.3773C136.443 33.3773 132.922 37.871 132.922 42.3576C132.922 45.6044 135.387 48.2812 139.181 48.2812C142.364 48.2812 144.132 46.5899 144.132 46.5899L144.71 43.7795H140.508L141.469 39.2504H152.998L150.837 49.3758ZM152.911 53.9003H174.041L175.364 47.8612H161.502L162.477 43.388H172.869L174.076 37.7965H163.704L164.596 33.6659L178.041 33.6591L179.358 27.6763H158.602L152.911 53.9003ZM179.793 45.6239L182.571 27.6753H190.233L185.183 45.6239H179.793ZM181.213 54.2399C179.16 54.2399 177.799 53.0283 177.799 51.2782C177.799 49.3339 179.669 47.5327 181.886 47.5327C183.853 47.5327 185.248 48.8181 185.248 50.491C185.248 52.9362 182.985 54.2399 181.213 54.2399Z" fill="#1E1E1E"/>
<path d="M108.493 39.2943L109.615 34.0383H114.299C115.969 34.0383 116.997 35.0407 116.997 36.3054C116.997 37.8151 115.775 39.2943 113.407 39.2943H108.493Z" fill="#1E1E1E"/>
<path d="M84.6955 54.2345L83.8482 46.5631L79.7269 54.2345H84.6955Z" fill="#1E1E1E"/>
<path fill-rule="evenodd" clip-rule="evenodd" d="M9.80465 31.6437L0.882812 72.7967H93.9457L102.924 31.6437H9.80465ZM13.3145 54.2006C13.3145 60.687 18.5676 66.2174 26.1148 66.2174C31.4414 66.2174 35.5621 63.8264 38.2938 61.0091L34.8719 56.1658C34.8719 56.1658 31.718 59.8512 26.9932 59.8512C23.1987 59.8512 20.7337 57.1744 20.7337 53.9276C20.7337 49.441 24.2553 44.9473 29.9224 44.9473C34.6762 44.9473 36.6113 48.0679 36.6113 48.0679L41.8639 43.7823C39.5735 40.7779 35.3869 38.5153 30.6124 38.5153C21.3708 38.5153 13.3145 45.2658 13.3145 54.2006ZM46.9397 65.5274H39.5791L45.2668 39.2473H52.6275L50.4534 49.0326H60.2536L62.375 39.2473H69.6908L64.0031 65.5274H56.6724L58.8731 55.351H49.0592L46.9397 65.5274ZM65.229 65.5294L81.1368 39.2492H89.2064L93.7086 65.5294H86.1262L85.4148 59.882H76.5201L73.4116 65.5294H65.229Z" fill="#1E1E1E"/>
</svg>
