<svg width="201" height="91" viewBox="0 0 201 91" fill="none" xmlns="http://www.w3.org/2000/svg">
<path d="M57.9762 86.2884C54.175 86.2884 50.9962 85.0154 48.4396 82.4694C45.9167 79.9233 44.6553 76.7742 44.6553 73.0222C44.6553 69.2701 45.9167 66.121 48.4396 63.5749C50.9962 61.0289 54.175 59.7559 57.9762 59.7559C60.4318 59.7559 62.6688 60.3421 64.6871 61.5147C66.7054 62.6872 68.2359 64.2617 69.2787 66.2383L63.6779 69.5046C63.1733 68.4661 62.3996 67.6453 61.3568 67.0423C60.3477 66.4393 59.204 66.1378 57.9257 66.1378C55.9747 66.1378 54.36 66.791 53.0817 68.0975C51.8035 69.3706 51.1643 71.0121 51.1643 73.0222C51.1643 74.9987 51.8035 76.6402 53.0817 77.9468C54.36 79.2198 55.9747 79.8563 57.9257 79.8563C59.2376 79.8563 60.3981 79.5715 61.4073 79.002C62.4501 78.399 63.2238 77.5783 63.7284 76.5397L69.3797 79.7558C68.2696 81.7323 66.7054 83.3236 64.6871 84.5297C62.6688 85.7022 60.4318 86.2884 57.9762 86.2884Z" fill="#EE463D"/>
<path d="M74.6522 56.2126C73.5758 56.2126 72.6339 55.8273 71.8265 55.0568C71.0529 54.2528 70.666 53.3148 70.666 52.2427C70.666 51.1707 71.0529 50.2327 71.8265 49.4287C72.6339 48.6247 73.5758 48.2227 74.6522 48.2227C75.7623 48.2227 76.7041 48.6247 77.4778 49.4287C78.2852 50.2327 78.6888 51.1707 78.6888 52.2427C78.6888 53.3148 78.2852 54.2528 77.4778 55.0568C76.7041 55.8273 75.7623 56.2126 74.6522 56.2126Z" fill="#EE463D"/>
<path d="M71.4229 85.5865V60.4609H77.9319V85.5865H71.4229Z" fill="#EE463D"/>
<path d="M88.886 64.7811C89.4915 63.1731 90.4839 61.9671 91.863 61.1631C93.2759 60.359 94.8401 59.957 96.5556 59.957V67.1932C94.571 66.9587 92.7881 67.3607 91.2071 68.3992C89.6597 69.4377 88.886 71.163 88.886 73.5751V85.5851H82.377V60.4595H88.886V64.7811Z" fill="#EE463D"/>
<path d="M110.1 86.2884C106.299 86.2884 103.12 85.0154 100.564 82.4694C98.0407 79.9233 96.7793 76.7742 96.7793 73.0222C96.7793 69.2701 98.0407 66.121 100.564 63.5749C103.12 61.0289 106.299 59.7559 110.1 59.7559C112.556 59.7559 114.793 60.3421 116.811 61.5147C118.829 62.6872 120.36 64.2617 121.403 66.2383L115.802 69.5046C115.297 68.4661 114.524 67.6453 113.481 67.0423C112.472 66.4393 111.328 66.1378 110.05 66.1378C108.099 66.1378 106.484 66.791 105.206 68.0975C103.928 69.3706 103.288 71.0121 103.288 73.0222C103.288 74.9987 103.928 76.6402 105.206 77.9468C106.484 79.2198 108.099 79.8563 110.05 79.8563C111.362 79.8563 112.522 79.5715 113.531 79.002C114.574 78.399 115.348 77.5783 115.852 76.5397L121.504 79.7558C120.394 81.7323 118.829 83.3236 116.811 84.5297C114.793 85.7022 112.556 86.2884 110.1 86.2884Z" fill="#EE463D"/>
<path d="M123.321 85.5856V48.0059H129.83V85.5856H123.321Z" fill="#EE463D"/>
<path d="M139.888 75.6855C140.763 78.8345 143.134 80.4091 147.003 80.4091C149.492 80.4091 151.376 79.5715 152.654 77.8965L157.901 80.9116C155.412 84.4962 151.746 86.2884 146.902 86.2884C142.73 86.2884 139.383 85.0322 136.861 82.5196C134.338 80.0071 133.076 76.8412 133.076 73.0222C133.076 69.2366 134.321 66.0875 136.81 63.5749C139.299 61.0289 142.495 59.7559 146.397 59.7559C150.097 59.7559 153.142 61.0289 155.53 63.5749C157.952 66.121 159.163 69.2701 159.163 73.0222C159.163 73.8597 159.079 74.7474 158.911 75.6855H139.888ZM139.787 70.6604H152.654C152.284 68.9518 151.51 67.6788 150.333 66.8413C149.189 66.0037 147.877 65.585 146.397 65.585C144.648 65.585 143.201 66.0372 142.058 66.9418C140.914 67.8128 140.157 69.0523 139.787 70.6604Z" fill="#EE463D"/>
<path fill-rule="evenodd" clip-rule="evenodd" d="M101.88 4.28906C83.0494 4.28908 64.9904 11.7388 51.6753 24.9992C38.3602 38.2597 30.8799 56.2448 30.8799 74.998C30.9096 78.5444 31.2072 82.0836 31.7701 85.5855H38.3044C37.7118 82.0871 37.4113 78.5458 37.406 74.998C37.406 57.9686 44.1988 41.6366 56.29 29.595C68.3811 17.5534 84.7803 10.7885 101.88 10.7885C110.347 10.7884 118.731 12.4493 126.553 15.6761C134.375 18.9029 141.483 23.6325 147.47 29.5949C153.457 35.5573 158.206 42.6358 161.446 50.426C164.686 58.2163 166.354 66.5658 166.354 74.998C166.329 78.5474 166.01 82.0887 165.398 85.5855H172.021C172.574 82.0828 172.861 78.5436 172.88 74.998C172.88 65.7123 171.043 56.5176 167.475 47.9388C163.907 39.36 158.677 31.5651 152.084 24.9992C145.491 18.4332 137.664 13.2249 129.05 9.67142C120.436 6.11797 111.204 4.28905 101.88 4.28906Z" fill="#EE463D"/>
</svg>
