<svg width="201" height="90" viewBox="0 0 201 90" fill="none" xmlns="http://www.w3.org/2000/svg">
<path d="M76.8977 13.6602C72.8557 13.6505 68.8889 14.8761 65.5227 17.1986C63.8831 18.3299 62.5567 19.8698 61.6705 21.6712C60.2249 24.6093 59.2788 27.7749 58.8723 31.0337L58.7793 31.7794L73.3936 33.0568L73.6494 32.2722C74.1462 30.7491 75.4929 29.5165 76.9494 29.0771C77.851 28.8052 79.6619 29.1057 80.4105 29.8017C81.9606 31.2429 82.4934 32.7781 82.2373 34.8974C82.1467 35.6479 81.1147 36.8847 80.5414 37.3667L67.0217 48.7318C63.8375 51.4085 61.5683 53.1142 60.0113 57.0042C59.157 59.1385 59.606 62.5042 61.1021 64.2356C63.151 66.6069 65.5594 68.1068 68.6449 68.4622L100.078 72.3083L100.186 58.4481L83.0579 56.372L95.1553 46.3904C98.3548 43.7505 100.191 39.8445 100.346 35.6593C100.462 32.5085 99.8061 29.3897 98.2879 26.64L97.6904 25.5254C95.5797 21.5885 92.3515 18.3885 88.426 16.3421L87.5957 15.9093C85.5115 14.8228 83.2403 14.1559 80.907 13.9455L78.6332 13.7404C78.0542 13.6882 77.4751 13.6616 76.8977 13.6602Z" fill="#0174B1"/>
<path d="M48.8799 0V60.4722C48.8799 63.7688 50.3946 76.7827 60.8293 78.1686C68.9024 79.2409 152.88 90 152.88 90V14.9618C152.88 11.4503 149.617 8.35283 145.582 8.01821L48.8799 0ZM55.5975 7.4062L146.162 15.2793V82.2555C134.467 80.7568 73.6707 72.3582 66.4534 71.3996C63.8736 71.057 58.1934 68.6859 57.0777 66.1409C55.9619 63.596 55.5975 61.0581 55.5975 60.4722V7.4062Z" fill="url(#paint0_linear_2048_37883)"/>
<path d="M103.899 16.0195L103.883 32.5217L121.884 34.2155L100.078 72.3086L118.217 74.5281L143.052 31.9571V19.5509L103.899 16.0195Z" fill="#0174B1"/>
<path d="M48.8799 0V60.4722C48.8799 63.7688 50.3946 76.7827 60.8293 78.1686C68.9024 79.2409 152.88 90 152.88 90L146.162 82.2555C134.467 80.7568 73.6707 72.3582 66.4534 71.3996C63.8736 71.057 58.1934 68.6859 57.0777 66.1409C55.9619 63.596 55.5975 61.0581 55.5975 60.4722V7.4062L48.8799 0Z" fill="url(#paint1_radial_2048_37883)"/>
<path d="M83.0585 56.3711L68.6455 68.4613L100.078 72.3073L100.187 58.4472L83.0585 56.3711Z" fill="#33A5DE"/>
<defs>
<linearGradient id="paint0_linear_2048_37883" x1="152.88" y1="90" x2="152.88" y2="0" gradientUnits="userSpaceOnUse">
<stop stop-color="#33A5DE"/>
<stop offset="1" stop-color="#33A5DE"/>
</linearGradient>
<radialGradient id="paint1_radial_2048_37883" cx="0" cy="0" r="1" gradientUnits="userSpaceOnUse" gradientTransform="translate(66.4534 71.3996) scale(52 45)">
<stop stop-color="#31A3DC"/>
<stop offset="1" stop-color="#0477B5"/>
</radialGradient>
</defs>
</svg>
