<svg width="201" height="91" viewBox="0 0 201 91" fill="none" xmlns="http://www.w3.org/2000/svg">
<path d="M61.2143 76.5462C60.7676 74.3606 58.9808 73.7783 56.9787 73.6028C50.5096 72.9966 49.369 77.8305 49.369 79.8725C49.369 83.3583 50.382 86.2538 56.7314 86.2538C57.912 86.2538 61.1345 85.0573 61.1345 83.0631H70.2678C69.9009 88.8701 60.1295 90.2421 55.9098 90.2421C47.0797 90.2421 39.5258 88.599 39.8927 79.9204C40.1559 73.7225 46.0188 69.3672 57.6806 69.6305C64.1816 69.79 70.4433 71.8161 70.4433 76.5143L61.2143 76.5462Z" fill="#231F20"/>
<path d="M152.683 76.5462C152.236 74.3606 150.442 73.7783 148.447 73.6028C141.978 72.9966 140.838 77.8305 140.838 79.8725C140.838 83.3583 141.851 86.2538 148.2 86.2538C149.373 86.2538 152.603 85.0573 152.603 83.0631H161.737C161.37 88.8701 151.606 90.2421 147.379 90.2421C138.556 90.2421 130.995 88.599 131.361 79.9204C131.633 73.7225 137.495 69.3672 149.157 69.6305C155.658 69.79 161.92 71.8161 161.92 76.5143L152.683 76.5462Z" fill="#231F20"/>
<path d="M72.0625 70.084H83.9078L94.0302 84.2585H94.102V70.084H101.704V89.7624H90.353L79.736 75.5879H79.6563V89.7624H72.0625V70.084Z" fill="#231F20"/>
<path d="M104.049 70.084H118.447C125.37 70.084 129.447 72.0143 129.447 74.9338C129.447 76.6568 127.739 78.7865 123.935 79.4087V79.4645C128.505 79.7357 130.188 82.6552 130.188 84.3542C130.188 87.832 126.2 89.7624 118.495 89.7624H104.049V70.084ZM112.384 77.7176H114.777C118.455 77.7176 120.409 77.4385 120.409 75.907C120.409 74.3754 118.814 73.7293 115.471 73.7293H112.392L112.384 77.7176ZM112.384 85.6385H114.777C119.212 85.6385 120.84 85.1678 120.84 83.6443C120.84 82.1207 118.79 81.4667 115.471 81.4667H112.392L112.384 85.6385Z" fill="#231F20"/>
<mask id="mask0_2048_37998" style="mask-type:luminance" maskUnits="userSpaceOnUse" x="52" y="15" width="42" height="49">
<path d="M61.1352 16.1962C58.868 17.0174 56.8686 18.4429 55.353 20.3184C53.8374 22.1939 52.8634 24.448 52.5364 26.837C52.2469 28.9923 52.5084 31.1859 53.2966 33.2127C54.0847 35.2395 55.3737 37.0335 57.0432 38.4271L93.0976 63.0111L76.8332 23.7501C76.1637 22.0738 75.1564 20.5533 73.8739 19.2831C72.7239 18.1066 71.3486 17.1739 69.83 16.5407C68.3115 15.9076 66.681 15.5869 65.0358 15.5979C63.7129 15.6002 62.3979 15.8019 61.1352 16.1962Z" fill="white"/>
</mask>
<g mask="url(#mask0_2048_37998)">
<path d="M80.3239 -3.44699L30.0918 30.3203L64.8248 81.9889L115.057 48.2216L80.3239 -3.44699Z" fill="url(#paint0_linear_2048_37998)"/>
</g>
<mask id="mask1_2048_37998" style="mask-type:luminance" maskUnits="userSpaceOnUse" x="75" y="0" width="26" height="59">
<path d="M78.2361 4.6551C75.1412 8.15685 74.3754 13.8362 76.1861 18.1596L92.0677 56.2401L93.0328 58.5294L100.212 14.8333C100.397 13.1206 100.289 11.3888 99.8927 9.71229C99.22 7.00559 97.6592 4.60261 95.4597 2.88759C93.2603 1.17258 90.5493 0.244598 87.7602 0.251997C85.9433 0.26225 84.1494 0.660359 82.4987 1.4197C80.848 2.17904 79.3784 3.28209 78.1883 4.6551" fill="white"/>
</mask>
<g mask="url(#mask1_2048_37998)">
<path d="M99.2641 -5.02418L62.5293 2.77734L75.4943 63.8251L112.229 56.0236L99.2641 -5.02418Z" fill="url(#paint1_linear_2048_37998)"/>
</g>
<mask id="mask2_2048_37998" style="mask-type:luminance" maskUnits="userSpaceOnUse" x="101" y="0" width="26" height="59">
<path d="M107.702 2.10157C105.754 3.32971 104.18 5.06865 103.152 7.12909C102.124 9.18953 101.681 11.4925 101.871 13.7874L106.657 13.8352C107 14.0107 107.71 14.1782 107.566 14.6888L105.11 16.1405C104.321 16.6567 103.693 17.3845 103.298 18.2408C102.903 19.097 102.757 20.047 102.876 20.9823L108.013 54.0615L108.811 58.4646L125.913 18.1586C126.59 16.4637 126.939 14.6555 126.942 12.8302C126.881 10.3539 126.115 7.94622 124.735 5.88931C123.355 3.8324 121.417 2.21141 119.148 1.21618C117.683 0.555358 116.09 0.223209 114.482 0.243025C112.094 0.225827 109.749 0.883928 107.718 2.14147" fill="white"/>
</mask>
<g mask="url(#mask2_2048_37998)">
<path d="M102.668 -5.0392L89.5098 55.8203L125.771 63.6603L138.93 2.80082L102.668 -5.0392Z" fill="url(#paint2_linear_2048_37998)"/>
</g>
<mask id="mask3_2048_37998" style="mask-type:luminance" maskUnits="userSpaceOnUse" x="108" y="15" width="42" height="48">
<path d="M125.69 22.4874L120.162 35.3378L108.5 62.937L143.079 39.8845C144.899 38.6966 146.457 37.1494 147.657 35.3378C150.202 31.501 150.05 25.3032 147.514 21.5143C146.363 19.6956 144.769 18.1995 142.881 17.1669C140.993 16.1343 138.873 15.599 136.721 15.6115C134.434 15.6689 132.204 16.3367 130.262 17.5456C128.319 18.7545 126.735 20.4607 125.674 22.4874" fill="white"/>
</mask>
<g mask="url(#mask3_2048_37998)">
<path d="M125.33 -4.89126L85.2861 43.8066L133.386 83.3589L173.43 34.661L125.33 -4.89126Z" fill="url(#paint3_linear_2048_37998)"/>
</g>
<mask id="mask4_2048_37998" style="mask-type:luminance" maskUnits="userSpaceOnUse" x="105" y="41" width="55" height="27">
<path d="M144.93 41.6259C143.175 41.9578 141.508 42.6475 140.032 43.652L105.022 67.1272H148.392C150.538 66.924 152.596 66.1685 154.364 64.9343C156.132 63.7 157.551 62.029 158.482 60.0838C159.512 57.8844 159.933 55.4485 159.7 53.0308C159.467 50.6132 158.589 48.3024 157.158 46.3401C155.965 44.8355 154.455 43.6124 152.736 42.7576C151.017 41.9028 149.13 41.4374 147.211 41.3946C146.434 41.3929 145.659 41.4704 144.898 41.6259" fill="white"/>
</mask>
<g mask="url(#mask4_2048_37998)">
<path d="M154.26 23.6574L96.835 44.3203L111.405 84.8128L168.83 64.1498L154.26 23.6574Z" fill="url(#paint4_linear_2048_37998)"/>
</g>
<mask id="mask5_2048_37998" style="mask-type:luminance" maskUnits="userSpaceOnUse" x="41" y="41" width="56" height="27">
<path d="M44.5599 46.3373C43.1283 48.2969 42.2518 50.6064 42.023 53.0225C41.7942 55.4385 42.2214 57.8716 43.2597 60.0651C44.1899 62.0092 45.6073 63.6795 47.374 64.9137C49.1408 66.1479 51.1967 66.904 53.3421 67.1085H96.7112L96.4639 66.925L61.7097 43.689C60.2306 42.6846 58.5608 41.9949 56.804 41.663C56.0455 41.5075 55.2731 41.43 54.4988 41.4317C52.5802 41.4735 50.6945 41.9385 48.9765 42.7934C47.2584 43.6483 45.7503 44.872 44.5599 46.3772" fill="white"/>
</mask>
<g mask="url(#mask5_2048_37998)">
<path d="M51.0796 20.0169L31.2227 62.4648L86.712 88.4225L106.569 45.9746L51.0796 20.0169Z" fill="url(#paint5_linear_2048_37998)"/>
</g>
<defs>
<linearGradient id="paint0_linear_2048_37998" x1="56.4897" y1="18.2746" x2="79.2563" y2="52.1422" gradientUnits="userSpaceOnUse">
<stop stop-color="#983B1F"/>
<stop offset="0.21" stop-color="#A6431F"/>
<stop offset="0.61" stop-color="#CA5820"/>
<stop offset="1" stop-color="#F37021"/>
</linearGradient>
<linearGradient id="paint1_linear_2048_37998" x1="82.1375" y1="-1.04443" x2="89.9241" y2="35.6201" gradientUnits="userSpaceOnUse">
<stop stop-color="#6D0C2A"/>
<stop offset="0.61" stop-color="#A41A3D"/>
<stop offset="1" stop-color="#C9234A"/>
</linearGradient>
<linearGradient id="paint2_linear_2048_37998" x1="115.927" y1="-3.88636" x2="106.841" y2="38.1368" gradientUnits="userSpaceOnUse">
<stop stop-color="#293377"/>
<stop offset="0.34" stop-color="#3A4086"/>
<stop offset="1" stop-color="#6460AA"/>
</linearGradient>
<linearGradient id="paint3_linear_2048_37998" x1="150.637" y1="26.5141" x2="115.629" y2="69.0878" gradientUnits="userSpaceOnUse">
<stop stop-color="#2E2F89"/>
<stop offset="0.54" stop-color="#1462B1"/>
<stop offset="1" stop-color="#0089CF"/>
</linearGradient>
<linearGradient id="paint4_linear_2048_37998" x1="174.241" y1="48.7717" x2="125.425" y2="66.337" gradientUnits="userSpaceOnUse">
<stop stop-color="#0B592F"/>
<stop offset="0.3" stop-color="#0C7036"/>
<stop offset="0.93" stop-color="#0DAA49"/>
<stop offset="1" stop-color="#0DB14B"/>
</linearGradient>
<linearGradient id="paint5_linear_2048_37998" x1="52.7773" y1="42.4041" x2="83.123" y2="56.5997" gradientUnits="userSpaceOnUse">
<stop stop-color="#D09B2C"/>
<stop offset="0.33" stop-color="#DBA226"/>
<stop offset="0.9" stop-color="#F7B416"/>
<stop offset="1" stop-color="#FDB813"/>
</linearGradient>
</defs>
</svg>
