<svg width="201" height="91" viewBox="0 0 201 91" fill="none" xmlns="http://www.w3.org/2000/svg">
<path d="M140.327 30.187C142.475 26.9482 142.355 21.72 140.206 18.5217C138.118 15.3247 134.826 13.5406 131.113 13.5406C127.236 13.6036 123.685 15.8371 121.798 19.3423L117.14 30.187L107.324 53.4732L136.473 34.0193C137.938 33.0557 139.364 31.7034 140.327 30.187ZM122.82 11.1624C122.76 7.00186 120.091 2.92186 116.256 1.36424C113.305 -0.0298717 109.269 0.420689 106.619 2.14305C103.207 4.33719 101.441 7.98536 101.702 12.0042L105.756 12.0448C106.038 12.1877 106.64 12.3312 106.52 12.7624L104.451 13.9918C103.086 14.9347 102.384 16.3694 102.566 18.0718L106.901 45.9504L107.544 49.6609L121.959 15.6536C122.54 14.2789 122.8 12.7006 122.82 11.1624ZM100.337 12.8854C100.417 11.4507 100.478 9.87247 100.077 8.55948C99.2322 5.05484 96.0203 1.77549 92.5881 0.935525C88.5324 -0.111622 84.5979 1.20074 81.8078 4.29601C79.1974 7.24774 78.5553 12.0448 80.0817 15.6929L94.2749 49.7839L100.337 12.8854ZM94.3348 53.5356L80.6227 20.4082C80.0211 19.0553 79.2979 17.7429 78.1334 16.6371C75.362 13.7871 71.2072 12.8442 67.393 14.033C63.68 15.2218 60.5679 19.0759 60.1467 23.0099C59.7254 26.9058 61.0303 30.2681 63.9408 32.7899L94.3348 53.5356ZM97.3838 56.9991L67.8754 37.2C66.6361 36.4225 65.3181 35.7472 63.7461 35.4939C59.8896 34.7138 56.0617 36.3045 53.4164 39.469C50.9889 42.5755 50.5196 47.5461 52.3243 51.0501C54.1084 54.5216 57.0314 56.561 60.8256 56.991L97.3838 56.9991ZM140.938 56.9903C144.733 56.561 147.656 54.521 149.438 51.0494C151.245 47.5454 150.776 42.5743 148.348 39.4684C145.701 36.3045 141.874 34.7132 138.016 35.4932C136.445 35.7466 135.127 36.4218 133.888 37.1994L104.38 56.9991L140.938 56.9903Z" fill="#2486C8"/>
<path fill-rule="evenodd" clip-rule="evenodd" d="M68.5446 67.5192C68.1795 65.7501 66.7298 65.2814 65.1073 65.1316C59.866 64.6449 58.9356 68.5639 58.9356 70.2188C58.9356 73.0489 59.7624 75.3903 64.9089 75.3903C65.8581 75.3903 68.4784 74.413 68.4784 72.8249H75.8789C75.5806 77.5345 67.6659 78.6622 64.2137 78.6622C57.0622 78.6622 50.9391 77.3305 51.2349 70.2819C51.4464 65.2508 56.1985 61.72 65.6515 61.9415C70.9209 62.0638 75.9813 63.7069 76.0044 67.5192H68.5446Z" fill="black"/>
<path fill-rule="evenodd" clip-rule="evenodd" d="M142.67 67.5192C142.306 65.7501 140.857 65.2814 139.233 65.1316C133.992 64.6449 133.063 68.5639 133.063 70.2188C133.063 73.0489 133.888 75.3903 139.036 75.3903C139.984 75.3903 142.603 74.413 142.603 72.8249H150.005C149.707 77.5345 141.791 78.6622 138.34 78.6622C131.187 78.6622 125.065 77.3305 125.361 70.2819C125.572 65.2508 130.325 61.72 139.777 61.9415C145.046 62.0638 150.109 63.7069 150.13 67.5192H142.67Z" fill="black"/>
<path fill-rule="evenodd" clip-rule="evenodd" d="M77.3248 62.2772H86.9319L95.1293 73.7734H95.1955V62.2772H101.353V78.2416H92.1495L83.5496 66.7442H83.4822V78.2416H77.3248V62.2772Z" fill="black"/>
<path fill-rule="evenodd" clip-rule="evenodd" d="M103.254 62.2772H114.923C120.531 62.2772 123.83 63.8455 123.83 66.2125C123.83 67.6116 122.449 69.3377 119.371 69.8463V69.89C123.078 70.1109 124.446 72.4554 124.446 73.8608C124.446 76.6746 121.229 78.2416 114.957 78.2416H103.254V62.2772ZM110.01 68.4803H111.944C114.923 68.4803 116.505 68.2487 116.505 67.01C116.505 65.6839 115.19 65.2415 112.508 65.2415H110.01V68.4803ZM110.01 74.8961H111.944C115.535 74.8961 116.852 74.5191 116.852 73.2817C116.852 71.9549 115.189 71.5119 112.507 71.5119H110.01L110.01 74.8961Z" fill="black"/>
<path fill-rule="evenodd" clip-rule="evenodd" d="M54.7642 90.3913L51.2852 80.8084L54.4622 80.834L56.6613 87.4277L59.3534 80.834H63.0589L65.6637 87.5275L67.9689 80.834L71.0392 80.8084L67.4098 90.3913H64.1242L61.1625 83.1954L58.2183 90.3913H54.7642Z" fill="black"/>
<path fill-rule="evenodd" clip-rule="evenodd" d="M77.1754 85.6556C77.1754 84.5198 77.4999 83.5837 78.1495 82.8442C78.7992 82.1047 79.6472 81.5562 80.6944 81.1968C81.7415 80.8386 83.0102 80.6582 84.5023 80.6582C86.664 80.6582 88.425 81.0863 89.786 81.9419C91.1477 82.7981 91.8285 84.0193 91.8285 85.6056C91.8285 87.2013 91.1084 88.4494 89.6675 89.3505C88.4007 90.1437 86.6839 90.54 84.5141 90.54C82.3281 90.54 80.6014 90.148 79.3365 89.3624C77.8962 88.4613 77.1754 87.2263 77.1754 85.6556ZM80.3262 85.5932C80.3262 86.6933 80.7281 87.5183 81.5318 88.0681C82.3356 88.6185 83.3316 88.8931 84.521 88.8931C85.7179 88.8931 86.7095 88.6198 87.4977 88.0744C88.2846 87.5277 88.6784 86.689 88.6784 85.5551C88.6784 84.4555 88.2946 83.6386 87.5289 83.1045C86.7626 82.5715 85.761 82.3044 84.521 82.3044C83.2816 82.3044 82.272 82.574 81.4938 83.1107C80.7156 83.6499 80.3262 84.4761 80.3262 85.5932Z" fill="black"/>
<path fill-rule="evenodd" clip-rule="evenodd" d="M99.4262 90.3916V80.8094H105.848C107.49 80.8094 108.663 80.8949 109.367 81.0665C110.069 81.2381 110.648 81.5352 111.1 81.9583C111.553 82.3801 111.779 82.8887 111.779 83.4828C111.779 84.2367 111.428 84.8426 110.725 85.2988C110.022 85.7543 109.023 86.0408 107.728 86.1575C108.381 86.4108 108.92 86.6835 109.347 86.9743C109.775 87.2664 110.356 87.7837 111.095 88.5251L112.929 90.3916H109.27L107.079 88.3123C106.289 87.5616 105.756 87.0898 105.478 86.9001C105.199 86.7097 104.903 86.5787 104.592 86.5069C104.281 86.4352 103.781 86.3983 103.092 86.3983H102.477V90.391L99.4262 90.3916ZM102.476 84.8513H104.732C106.11 84.8513 106.986 84.8208 107.362 84.7571C107.738 84.6947 108.043 84.5662 108.276 84.3727C108.51 84.1792 108.628 83.9234 108.628 83.6045C108.628 83.2937 108.51 83.046 108.276 82.8606C108.043 82.6759 107.725 82.5492 107.325 82.4831C107.041 82.4332 106.218 82.407 104.857 82.407H102.477L102.476 84.8513Z" fill="black"/>
<path fill-rule="evenodd" clip-rule="evenodd" d="M119.784 90.3906V80.9076H122.834V88.793H130.386V90.3906H119.784Z" fill="black"/>
<path fill-rule="evenodd" clip-rule="evenodd" d="M137.706 80.8084H143.267C144.673 80.8084 145.733 80.8902 146.449 81.0537C147.165 81.2172 147.824 81.4905 148.426 81.8755C149.029 82.2606 149.502 82.7642 149.844 83.3832C150.187 84.0023 150.359 84.773 150.359 85.6941C150.359 86.5228 150.178 87.2448 149.819 87.8601C149.46 88.4761 149.003 88.9616 148.452 89.3167C147.898 89.6724 147.232 89.9413 146.449 90.121C145.666 90.3008 144.66 90.3913 143.43 90.3913H137.706V80.8084ZM140.757 82.4054V88.7937H143.037C144.013 88.7937 144.72 88.7456 145.16 88.6489C145.598 88.5522 145.957 88.4055 146.237 88.2071C146.518 88.0099 146.748 87.7004 146.932 87.2798C147.115 86.8585 147.208 86.3063 147.208 85.6248C147.208 84.9096 147.113 84.3461 146.926 83.9336C146.738 83.5224 146.446 83.1954 146.049 82.9558C145.652 82.7161 145.17 82.562 144.603 82.4952C144.176 82.4359 143.353 82.406 142.134 82.406L140.757 82.4054Z" fill="black"/>
</svg>
