<svg width="201" height="91" viewBox="0 0 201 91" fill="none" xmlns="http://www.w3.org/2000/svg">
<path d="M145.88 0.449219H55.8799V90.4492H145.88V0.449219Z" fill="#CC0000"/>
<path d="M74.1611 45.4482C74.1611 43.6298 74.8835 41.8859 76.1693 40.6001C77.4551 39.3143 79.199 38.5919 81.0174 38.5919H86.2174V34.7076H80.9736C79.5479 34.6832 78.1317 34.943 76.8075 35.4718C75.4832 36.0006 74.2775 36.7877 73.2607 37.7874C72.2439 38.787 71.4363 39.9791 70.885 41.2941C70.3337 42.6091 70.0498 44.0207 70.0498 45.4466C70.0498 46.8725 70.3337 48.2841 70.885 49.5992C71.4363 50.9142 72.2439 52.1063 73.2607 53.1059C74.2775 54.1055 75.4832 54.8927 76.8075 55.4214C78.1317 55.9502 79.5479 56.21 80.9736 56.1857H91.083C91.3476 56.1701 91.5973 56.0582 91.785 55.8711C91.9727 55.684 92.0854 55.4346 92.1018 55.1701V35.2794C92.0912 34.7603 92.2538 34.2525 92.5639 33.836C92.874 33.4195 93.3139 33.1182 93.8143 32.9794C94.6861 32.7419 95.9111 32.9794 96.7299 34.3732L103.027 45.2326C105.996 50.3482 109.064 55.6388 109.121 55.7326C109.433 56.2732 109.874 56.5263 110.286 56.4138C110.457 56.3645 110.606 56.2584 110.709 56.113C110.812 55.9676 110.862 55.7916 110.852 55.6138V35.2794C110.841 34.7613 111.003 34.2543 111.312 33.838C111.621 33.4218 112.059 33.1198 112.558 32.9794C113.427 32.7419 114.642 32.9794 115.461 34.3732L121.299 44.4357L127.861 55.7326C128.174 56.2732 128.617 56.5263 129.03 56.4138C129.201 56.364 129.35 56.2578 129.452 56.1125C129.555 55.9672 129.605 55.7914 129.596 55.6138V29.2763H125.68V44.9607L118.896 33.2419C114.764 26.2294 106.964 29.1294 106.964 35.1669V44.9544C106.964 44.9544 100.458 33.7513 100.146 33.2419C96.0174 26.2294 88.2174 29.1294 88.2143 35.1669V51.2107C88.2176 51.3535 88.1922 51.4955 88.1396 51.6284C88.0869 51.7612 88.0081 51.882 87.9079 51.9838C87.8076 52.0855 87.6878 52.1661 87.5558 52.2206C87.4238 52.2752 87.2821 52.3026 87.1393 52.3013H81.0174C80.1172 52.3017 79.2257 52.1248 78.3938 51.7805C77.562 51.4363 76.8062 50.9316 76.1695 50.2952C75.5328 49.6588 75.0277 48.9031 74.6831 48.0715C74.3385 47.2398 74.1611 46.3484 74.1611 45.4482Z" fill="white"/>
<path d="M131.127 29.277V55.6207C131.135 55.93 131.081 56.2379 130.968 56.526C130.855 56.8142 130.686 57.077 130.47 57.2988C130.255 57.5207 129.997 57.6971 129.712 57.8179C129.427 57.9386 129.121 58.0012 128.811 58.002C128.033 58.002 127.143 57.6176 126.502 56.527L119.939 45.2238C117.099 40.3238 114.161 35.2613 114.105 35.1676C113.793 34.6301 113.358 34.3738 112.952 34.4863C112.782 34.5363 112.634 34.6428 112.532 34.7882C112.43 34.9336 112.381 35.1093 112.393 35.2863V55.6207C112.403 56.1398 112.241 56.6477 111.93 57.0641C111.62 57.4806 111.18 57.782 110.68 57.9207C109.808 58.1582 108.583 57.9207 107.764 56.527L101.668 46.0176L95.3739 35.1676C95.0614 34.627 94.6207 34.3738 94.2082 34.4863C94.0375 34.5362 93.8886 34.6424 93.7859 34.7877C93.6832 34.9329 93.6327 35.1087 93.6426 35.2863V55.177C93.6252 55.8533 93.3485 56.497 92.8699 56.9751C92.3912 57.4532 91.7471 57.7291 91.0707 57.7457H80.9739C79.3431 57.7717 77.7235 57.473 76.2094 56.8669C74.6953 56.2608 73.3168 55.3595 72.1544 54.2155C70.992 53.0715 70.0689 51.7076 69.4388 50.2034C68.8086 48.6991 68.4841 47.0845 68.4841 45.4535C68.4841 43.8226 68.8086 42.208 69.4388 40.7037C70.0689 39.1994 70.992 37.8355 72.1544 36.6915C73.3168 35.5475 74.6953 34.6462 76.2094 34.0401C77.7235 33.4341 79.3431 33.1353 80.9739 33.1613H86.2176V29.277H80.9801C78.8369 29.2472 76.709 29.6436 74.7203 30.4432C72.7316 31.2427 70.9215 32.4295 69.3954 33.9346C67.8692 35.4397 66.6574 37.2331 65.8302 39.2105C65.0031 41.188 64.5771 43.3101 64.5771 45.4535C64.5771 47.597 65.0031 49.7191 65.8302 51.6965C66.6574 53.674 67.8692 55.4673 69.3954 56.9724C70.9215 58.4775 72.7316 59.6643 74.7203 60.4639C76.709 61.2635 78.8369 61.6599 80.9801 61.6301H91.1739C95.0489 61.6301 97.5426 59.3613 97.5364 55.1738V45.9395C97.5364 45.9395 104.039 57.1426 104.339 57.652C108.468 64.6645 116.271 61.7645 116.271 55.7301V45.9395L123.071 57.652C127.199 64.6645 135.002 61.7645 135.002 55.7301V29.277H131.127Z" fill="white"/>
<path d="M149.371 87.3751C149.675 87.377 149.972 87.469 150.224 87.6394C150.476 87.8099 150.671 88.0512 150.786 88.3329C150.9 88.6145 150.929 88.9239 150.868 89.2217C150.807 89.5196 150.659 89.7927 150.442 90.0064C150.226 90.2201 149.951 90.3648 149.652 90.4223C149.354 90.4798 149.045 90.4475 148.765 90.3294C148.484 90.2114 148.246 90.0128 148.078 89.759C147.911 89.5051 147.822 89.2073 147.824 88.9032C147.824 88.701 147.864 88.5007 147.942 88.3141C148.02 88.1275 148.135 87.9582 148.278 87.816C148.422 87.6739 148.593 87.5617 148.781 87.486C148.968 87.4103 149.169 87.3726 149.371 87.3751ZM149.371 90.222C149.632 90.2307 149.89 90.1613 150.111 90.0228C150.333 89.8842 150.508 89.6828 150.614 89.4442C150.72 89.2057 150.753 88.9408 150.708 88.6836C150.663 88.4264 150.542 88.1884 150.361 88.0002C150.18 87.812 149.947 87.6821 149.691 87.6272C149.436 87.5722 149.17 87.5946 148.928 87.6915C148.685 87.7885 148.477 87.9556 148.33 88.1714C148.183 88.3873 148.104 88.6421 148.102 88.9032C148.096 89.0736 148.124 89.2435 148.185 89.4027C148.246 89.5619 148.339 89.7072 148.457 89.8298C148.576 89.9523 148.718 90.0497 148.875 90.116C149.032 90.1824 149.201 90.2163 149.371 90.2157V90.222ZM148.771 88.0282H149.468C149.893 88.0282 150.093 88.197 150.093 88.5407C150.097 88.6049 150.087 88.6691 150.065 88.7294C150.043 88.7896 150.008 88.8446 149.964 88.8908C149.919 88.9369 149.865 88.9733 149.806 88.9975C149.746 89.0217 149.682 89.0332 149.618 89.0314L150.134 89.822H149.821L149.33 89.0501H149.037V89.822H148.755L148.771 88.0282ZM149.052 88.8251H149.343C149.59 88.8251 149.815 88.8251 149.815 88.5282C149.815 88.2314 149.612 88.2532 149.421 88.2532H149.052V88.8251Z" fill="#CC0000"/>
</svg>
