<svg width="201" height="91" viewBox="0 0 201 91" fill="none" xmlns="http://www.w3.org/2000/svg">
<path d="M27.9774 0.636719H30.1041C48.5574 3.22539 67.0923 5.2565 85.5714 7.658C114.465 11.2244 143.353 14.8505 172.258 18.3373C173.851 18.4368 175.759 19.3707 175.498 21.2645C175.572 37.5174 175.572 53.7702 175.498 70.0231C175.751 71.9308 173.857 72.9045 172.244 72.9901C124.586 78.7914 76.9346 84.6737 29.2897 90.6369H27.9974C26.8723 89.3247 26.0459 87.7635 26.2311 85.9913C26.2311 59.077 26.2311 32.1615 26.2311 5.24456C26.0459 3.47829 26.9121 1.95694 27.9774 0.636719ZM42.713 16.4436C39.5667 19.6296 38.6667 24.3231 38.5133 28.6442C38.5133 39.9759 38.5133 51.3117 38.5133 62.6514C38.6726 67.09 39.6265 72.0244 43.1072 75.1168C45.4809 77.3172 49.0931 77.5064 52.068 76.6183C55.7141 75.4036 58.2072 72.0642 59.38 68.5237C61.1145 63.5833 60.521 58.2765 60.6067 53.137C57.9403 53.1251 55.2601 53.0116 52.6276 53.5572C52.4743 57.2709 53.0258 61.0902 52.2074 64.7382C51.8271 66.8311 48.9736 67.09 47.5279 66.0366C46.5741 64.6646 46.4944 62.9381 46.4944 61.3312C46.5143 50.857 46.5143 40.3855 46.4944 29.9166C46.4307 28.238 46.9146 26.617 47.3726 25.024C48.5992 24.7373 50.0648 23.9188 51.1043 25.0857C53.5177 28.2917 52.3707 32.6048 52.6714 36.3246C55.3118 36.4779 57.9642 36.5118 60.6186 36.5376C60.6525 32.3042 60.8715 27.9751 59.6389 23.879C58.5915 20.1454 56.3991 16.3719 52.6853 14.7988C49.4256 13.4706 45.2578 13.839 42.711 16.4376M71.264 17.1385C66.3973 19.2772 64.9576 25.1037 64.8123 29.9505C64.7306 39.7376 64.7924 49.5248 64.7446 59.304C64.7107 64.4714 65.5789 70.7918 70.4854 73.6413C74.8324 75.9353 80.6191 74.4896 83.6857 70.736C86.3241 67.5898 87.2521 63.3364 87.2123 59.316C87.1923 49.9689 87.1923 40.6264 87.2123 31.2886C87.1724 27.4693 86.2325 23.4748 83.7534 20.4819C80.866 16.8976 75.5672 15.4021 71.272 17.1425M91.3601 18.6818C91.3455 36.6153 91.3455 54.5508 91.3601 72.4883C93.7463 72.3875 96.1257 72.1642 98.4889 71.8193C98.5745 61.0245 98.1882 50.2058 98.6881 39.419C100.414 50.0983 101.695 60.8513 103.342 71.5445C105.221 71.3453 107.109 71.1323 108.989 70.9471C110.488 60.5466 111.777 50.0923 113.629 39.7456C114.075 49.9928 113.682 60.2658 113.828 70.5269C116.14 70.3397 118.451 70.1685 120.759 70.0132C120.821 53.7178 120.807 37.4218 120.72 21.1251C117.287 20.9936 113.868 20.6193 110.447 20.2927C108.686 28.7856 107.774 37.4397 106.153 45.9584C104.413 37.2386 103.427 28.3734 101.854 19.6197C98.3595 19.2214 94.8608 18.859 91.3541 18.6857M124.987 21.6587C125.013 37.6269 124.987 53.593 125.007 69.5592C131.801 68.8722 138.607 68.3644 145.4 67.7192V60.2579C141.26 60.3514 137.128 60.69 133 60.9767C133 56.9105 133 52.8503 133 48.7841C135.987 48.7841 138.974 48.6506 141.961 48.4973C141.961 46.0042 141.961 43.5032 141.961 41.0101L133.016 40.8109C133.002 37.2704 132.954 33.7299 132.968 30.1914C136.861 30.3507 140.734 30.6912 144.629 30.9441C144.629 28.4032 144.641 25.8643 144.629 23.3175C138.082 22.8177 131.548 22.1366 124.995 21.6567M147.801 31.0716C150.055 31.1233 152.307 31.2707 154.548 31.5315C154.528 43.3439 154.587 55.1582 154.581 66.9765C157.222 66.7315 159.854 66.4308 162.509 66.2715C162.455 54.8515 162.549 43.4315 162.509 32.0214C164.749 32.109 166.995 32.1747 169.235 32.2942C169.235 30.048 169.235 27.8019 169.249 25.5557C162.122 24.7413 154.956 24.3012 147.815 23.6082C147.779 26.0913 147.779 28.5844 147.791 31.0716H147.801Z" fill="#22D1F9"/>
<path d="M74.5121 26.2704C75.8184 25.9498 77.5389 25.9578 78.3652 27.2242C79.325 28.6042 79.1916 30.3565 79.2454 31.9575C79.1916 41.5157 79.2792 51.0739 79.1976 60.632C79.3788 62.7587 78.0924 65.4729 75.5794 65.0925C73.2456 65.1861 72.7916 62.4262 72.7657 60.64C72.7259 50.8668 72.7657 41.0935 72.7657 31.3183C72.8912 29.5899 72.7259 27.2143 74.5121 26.2704Z" fill="#22D1F9"/>
</svg>
