<svg width="201" height="91" viewBox="0 0 201 91" fill="none" xmlns="http://www.w3.org/2000/svg">
<path d="M131.936 62.0692C131.211 61.799 130.56 61.3627 130.034 60.7952C128.774 59.4072 128.846 57.1612 130.192 55.9312C131.732 54.5212 133.97 55.0312 134.732 56.9612C134.898 57.3872 135.02 57.8292 135.22 58.2392C135.676 59.1852 136.736 59.2532 137.322 58.3712C137.5 58.1279 137.623 57.8487 137.682 57.553C137.741 57.2573 137.735 56.9523 137.664 56.6592C137.523 56.0484 137.326 55.4519 137.076 54.8772C135.264 51.0352 133.414 47.2092 131.604 43.3672C131.294 42.6567 130.721 42.0944 130.004 41.7992C129.82 41.725 129.641 41.6367 129.47 41.5352C128.528 40.9872 128.396 39.8972 129.238 39.1992C129.606 38.883 130.042 38.6552 130.512 38.5332C131.712 38.2692 132.912 38.0692 134.128 37.9132C134.774 37.8312 135.438 37.8992 136.094 37.8992C137.201 37.9011 138.307 37.9712 139.406 38.1092C139.88 38.2048 140.327 38.4035 140.716 38.6912C141.424 39.1912 141.634 40.0252 141.116 40.7172C140.316 41.7912 140.526 42.8132 141.068 43.8432C141.408 44.4988 141.81 45.1203 142.268 45.6992C142.738 46.2772 143.32 46.2532 143.788 45.6672C144.524 44.7444 144.922 43.5976 144.916 42.4172C144.916 41.8592 144.644 41.3892 144.302 40.9452C143.456 39.8612 143.702 38.9332 144.97 38.3992C145.417 38.2055 145.888 38.0711 146.37 37.9992C147.695 37.7713 149.051 37.7882 150.37 38.0492C150.704 38.1229 151.026 38.2413 151.328 38.4012C151.578 38.5119 151.787 38.6983 151.925 38.9341C152.063 39.1699 152.124 39.4431 152.098 39.7152C152.097 39.9728 152.02 40.2244 151.878 40.4393C151.736 40.6542 151.535 40.823 151.298 40.9252C151.172 40.9903 151.043 41.0477 150.91 41.0972C149.578 41.5532 148.696 42.4972 148.166 43.7512C147.522 45.2732 146.922 46.8172 146.334 48.3512C145.364 50.8772 144.474 53.4392 143.436 55.9372C142.654 57.8172 141.602 59.5692 139.932 60.8192C138.356 61.9972 136.684 62.6392 134.914 62.6392C133.895 62.6364 132.885 62.4431 131.936 62.0692ZM108.764 54.6052C106.206 52.2532 104.978 49.3312 105.442 45.8472C105.944 42.0652 108.986 38.3432 113.306 37.7972C114.808 37.6072 116.254 37.9252 117.638 38.5432C118.72 39.0252 119.094 38.7932 119.162 37.6292C119.244 36.1912 119.022 35.8552 117.688 35.3052C117.192 35.1052 116.642 34.9392 116.578 34.2612C116.514 33.5832 116.942 33.1592 117.47 32.8252C118.554 32.1829 119.751 31.7532 120.996 31.5592C122.452 31.2872 123.916 31.0572 125.386 30.9072C126.618 30.7812 126.96 31.1452 126.974 32.4152C126.996 34.1572 126.974 35.8992 126.974 37.6372C126.974 38.8372 126.974 40.0372 126.974 41.2372C126.974 44.0372 126.996 46.8372 126.974 49.6272C126.96 50.8272 127.27 51.7832 128.312 52.4952C129.112 53.0412 129.14 54.0612 128.412 54.6952C128.013 55.0598 127.539 55.3328 127.024 55.4952C125.736 55.8412 124.424 56.1092 123.106 56.3432C122.401 56.4528 121.688 56.5116 120.974 56.5192C120.096 56.5432 119.872 56.3412 119.71 55.4832C119.694 55.3415 119.668 55.2012 119.632 55.0632C119.464 54.5692 119.096 54.3912 118.632 54.6132C118.302 54.7828 117.988 54.9837 117.696 55.2132C116.529 56.1098 115.102 56.6013 113.63 56.6132C111.88 56.6092 110.162 55.8892 108.764 54.6052ZM115.68 41.9652C115.276 42.3234 114.956 42.7667 114.744 43.2632C113.834 45.5272 113.656 47.8632 114.37 50.2072C114.551 50.7767 114.865 51.2955 115.284 51.7212C116.262 52.7212 117.782 52.4812 118.464 51.2712C118.709 50.8541 118.875 50.396 118.956 49.9192C119.118 48.8192 119.188 47.7092 119.3 46.6072C119.25 46.6072 119.214 45.0072 119.132 44.2072C119.07 43.6135 118.902 43.0356 118.636 42.5012C118.491 42.1857 118.26 41.9175 117.97 41.7272C117.679 41.5368 117.341 41.4322 116.994 41.4252C116.504 41.4363 116.036 41.6287 115.68 41.9652ZM90.0801 55.3072C86.7501 53.5472 85.1481 49.9192 85.4561 46.4152C85.8561 41.9472 89.3021 38.7132 93.5081 37.9012C96.0741 37.4052 98.5261 37.7332 100.732 39.1912C102.562 40.4052 103.822 42.0752 104.186 44.2832C104.28 44.9582 104.256 45.6443 104.116 46.3112C103.944 47.1992 103.458 47.5752 102.552 47.5992C101.124 47.6352 99.6961 47.6092 98.2681 47.6092V47.6432H94.5921C94.3632 47.6339 94.134 47.6405 93.9061 47.6632C93.3061 47.7432 93.0781 47.9952 93.1881 48.5872C93.2687 49.0339 93.4358 49.4606 93.6801 49.8432C94.8481 51.5792 97.1541 52.2652 99.3301 51.5092C100.047 51.2277 100.743 50.8969 101.414 50.5192C102.4 50.0092 103.114 50.3192 103.378 51.4152C103.578 52.2652 103.306 52.9892 102.732 53.6152C101.963 54.4259 101.027 55.0593 99.9881 55.4712C98.4196 56.1662 96.7273 56.5382 95.0121 56.5652C93.2893 56.5602 91.5947 56.128 90.0801 55.3072ZM92.9701 43.2432C92.9701 44.0032 93.2701 44.3552 94.0201 44.4232C94.4201 44.4552 94.8201 44.4232 95.2201 44.4232V44.3912C95.6761 44.3912 96.1361 44.4232 96.5861 44.3912C97.1541 44.3412 97.4621 44.0272 97.5721 43.4852C97.7721 42.4992 97.0821 41.2852 96.1521 40.9052C95.8982 40.8006 95.6266 40.7456 95.3521 40.7432C94.0101 40.7392 92.9641 42.0732 92.9701 43.2432ZM14.6341 56.5312C9.51606 56.3572 5.44806 54.2512 2.75006 49.8312C-0.39994 44.6772 0.504061 38.5392 4.89806 34.3712C7.02406 32.3512 9.54806 31.1252 12.3961 30.4892C14.6801 29.9792 16.8801 30.2792 19.0361 31.0432C19.4133 31.1734 19.7826 31.3257 20.1421 31.4992C21.0661 31.9532 21.9861 32.1592 23.0321 31.8772C23.9681 31.6252 24.6881 32.1632 25.2481 32.8632C26.0984 33.9494 26.6016 35.2667 26.6921 36.6432C26.7734 37.4091 26.7627 38.1819 26.6601 38.9452C26.3881 40.6992 25.0921 41.7072 23.3621 41.6312C23.0756 41.631 22.7922 41.5728 22.5289 41.4601C22.2656 41.3473 22.0279 41.1824 21.8301 40.9752C21.4179 40.5063 21.0339 40.0135 20.6801 39.4992C20.1801 38.8072 19.7481 38.0572 19.2121 37.3932C17.7501 35.5812 15.7681 35.0132 13.5421 35.2952C12.1661 35.4712 11.2361 36.3552 10.6581 37.5972C10.2386 38.5386 10.0592 39.5694 10.1361 40.5972C10.2681 43.1072 10.8961 45.4432 12.5201 47.4232C14.2541 49.5372 16.5461 50.3352 19.2201 50.1032C20.9441 49.9552 22.4921 49.3592 23.7661 48.1372C24.8201 47.1372 25.6981 47.8092 25.9661 48.7652C26.0849 49.1458 26.1231 49.547 26.0781 49.9432C25.8912 51.4301 25.1824 52.8023 24.0781 53.8152C23.8141 54.0592 23.4621 54.3152 23.1261 54.3472C21.9561 54.4692 20.9561 55.0352 19.9021 55.4572C18.2901 56.1052 16.6361 56.5292 14.8781 56.5292L14.6341 56.5312ZM50.7421 56.1312C50.2981 56.0326 49.8754 55.8552 49.4941 55.6072C48.8681 55.1892 48.8261 54.4732 49.3161 53.9012C49.3324 53.8779 49.3527 53.8576 49.3761 53.8412C50.8361 52.7912 51.1541 51.2412 51.1601 49.6012C51.1661 47.9612 51.1361 46.2972 51.0681 44.6432C51.0241 43.6652 50.6681 42.8292 49.7761 42.2632C49.2361 41.9192 49.1761 41.1952 49.6341 40.6912C49.9638 40.3009 50.3729 39.9852 50.8341 39.7652C51.8814 39.3134 52.9603 38.9384 54.0621 38.6432C55.3356 38.3314 56.6247 38.087 57.9241 37.9112C58.7941 37.7872 59.0421 38.0472 59.1241 38.9252C59.1441 39.1792 59.1121 39.4392 59.1341 39.6952C59.1446 39.9792 59.1875 40.261 59.2621 40.5352C59.4481 41.0692 59.8841 41.2052 60.3441 40.8732C60.6382 40.647 60.912 40.3954 61.1621 40.1212C62.9101 38.3752 65.0121 37.6272 67.4681 37.9092C68.1107 37.9674 68.731 38.1747 69.2796 38.5146C69.8281 38.8545 70.2898 39.3176 70.6281 39.8672C70.7481 40.0672 70.8521 40.2672 70.9741 40.4552C71.4381 41.1732 71.6841 41.2092 72.3161 40.6552C72.7901 40.2452 73.2401 39.8052 73.7361 39.4212C75.5861 37.9792 77.6661 37.5052 79.9361 38.0712C81.8461 38.5432 82.9761 39.8032 83.3661 41.7112C83.4782 42.2987 83.5378 42.8951 83.5441 43.4932C83.5721 44.6932 83.5541 45.8932 83.5541 47.0932C83.5541 48.3212 83.5761 49.5492 83.5541 50.7752C83.511 51.6404 83.7968 52.4899 84.3541 53.1532C84.4253 53.2411 84.492 53.3326 84.5541 53.4272C85.0121 54.1232 84.9681 54.8272 84.3121 55.3272C83.8662 55.6796 83.3541 55.9388 82.8061 56.0892C80.4973 56.6728 78.0737 56.621 75.7921 55.9392C75.4353 55.8345 75.0976 55.6731 74.7921 55.4612C74.1501 55.0272 74.0181 54.3592 74.3921 53.6612C74.4028 53.6346 74.4184 53.6102 74.4381 53.5892C75.4181 52.5372 75.4841 51.2452 75.4381 49.9072C75.3921 48.5692 75.4521 47.2812 75.3961 45.9712C75.368 45.3748 75.2521 44.7858 75.0521 44.2232C74.929 43.8626 74.6941 43.5507 74.3814 43.333C74.0687 43.1154 73.6946 43.0033 73.3137 43.0131C72.9328 43.0229 72.565 43.1541 72.264 43.3877C71.9629 43.6212 71.7443 43.9448 71.6401 44.3112C71.5207 44.6622 71.4533 45.0287 71.4401 45.3992C71.4241 47.1992 71.4181 48.9992 71.4501 50.7992C71.4415 51.7226 71.7374 52.623 72.2921 53.3612C73.0641 54.3472 72.5701 55.3352 71.6401 55.7412C71.0966 55.9919 70.5232 56.172 69.9341 56.2772C67.7298 56.6168 65.4839 56.5796 63.2921 56.1672C62.9843 56.1076 62.6843 56.013 62.3981 55.8852C61.4101 55.4232 61.1821 54.2852 62.0181 53.5872C62.9981 52.7692 63.2841 51.7412 63.2761 50.5492C63.2761 49.1232 63.3161 47.6952 63.2521 46.2712C63.2104 45.5621 63.0759 44.8614 62.8521 44.1872C62.6121 43.4372 62.0161 43.0412 61.2241 43.0192C60.4321 42.9972 59.8241 43.4552 59.5281 44.2292C59.3938 44.5467 59.3154 44.885 59.2961 45.2292C59.2961 47.3392 59.2961 49.4472 59.3821 51.5532C59.4061 52.1532 59.6741 52.7652 59.9161 53.3372C60.4621 54.6152 60.1881 55.4572 58.8541 55.8852C57.3387 56.294 55.7775 56.5084 54.2081 56.5232C53.0419 56.5195 51.8796 56.3881 50.7421 56.1312ZM37.4921 56.5012C35.7926 56.5516 34.1059 56.1929 32.5741 55.4552C29.3301 53.8552 27.7101 51.2372 27.7741 47.6332C27.8361 43.5292 29.9121 40.7132 33.5381 38.9632C35.5294 38.0054 37.7323 37.5717 39.9381 37.7032C45.1921 37.9632 49.0361 41.9632 49.2001 46.8012C49.3041 49.8532 47.8401 52.1552 45.4741 53.9312C43.2543 55.5677 40.5776 56.4678 37.8201 56.5052L37.4921 56.5012ZM35.7081 42.8272C35.604 43.1224 35.5558 43.4344 35.5661 43.7472C35.5981 44.4572 35.6581 45.1672 35.7541 45.8732C35.9441 47.2912 36.1861 48.7032 36.8221 49.9952C37.1032 50.6162 37.5121 51.171 38.0221 51.6232C39.1421 52.5392 40.5561 51.9252 40.7521 50.4992C40.8161 50.0212 40.8121 49.5352 40.8381 49.0532C40.754 47.5406 40.4901 46.0434 40.0521 44.5932C39.7921 43.7192 39.4701 42.8592 38.8341 42.1692C38.6572 41.9654 38.4397 41.8009 38.1955 41.6862C37.9513 41.5715 37.6858 41.5092 37.4161 41.5032C36.6941 41.5032 36.0161 41.9672 35.7121 42.8272H35.7081Z" fill="#435486"/>
<path d="M186.88 55.6117C186.492 55.116 186.152 54.585 185.864 54.0257C183.918 50.3897 181.972 46.7537 180.064 43.1017C179.546 42.1017 178.864 41.3817 177.764 41.0877C177.57 41.0396 177.387 40.9577 177.222 40.8457L177.2 40.8277C177.02 41.2517 176.672 41.3697 175.95 41.3857C175.458 41.3977 174.966 41.3977 174.474 41.3957H173.73C173.418 41.3957 173.104 41.3817 172.792 41.3957C172.17 41.4317 171.902 41.5957 171.902 42.1957C171.892 44.6897 171.836 47.1957 172.01 49.6717C172.12 51.2397 173.538 51.8957 175.01 51.2897C175.3 51.1717 175.57 51.0017 175.854 50.8777C176.516 50.5857 176.92 50.7217 177.266 51.3677C177.722 52.2157 177.486 52.9897 176.95 53.6897C176.292 54.5517 175.406 55.1257 174.442 55.5737C172.764 56.3842 170.897 56.7197 169.042 56.5437C166.226 56.2597 163.882 54.5757 163.596 51.2597C163.472 49.8077 163.5 48.3397 163.484 46.8757C163.466 45.3537 163.484 43.8317 163.47 42.3137C163.458 41.4777 163.33 41.3737 162.516 41.3737C162.004 41.3737 161.492 41.3957 160.98 41.3737C160.232 41.3557 160.112 41.2217 160.076 40.4477C160.078 40.4191 160.078 40.3904 160.076 40.3617C159.918 39.3917 160.302 38.7917 161.156 38.2757C163.518 36.8437 165.824 35.3117 168.156 33.8117C169.308 33.0697 170.174 32.9217 171.77 33.2737C171.788 33.8117 171.806 34.3217 171.824 34.8317C171.848 35.4877 171.834 36.1517 171.904 36.8057C171.98 37.4937 172.146 37.6237 172.848 37.6417C173.672 37.6617 174.498 37.6417 175.324 37.6417C175.666 37.6417 176.006 37.6417 176.348 37.6417C177.148 37.6677 177.308 37.8177 177.348 38.5897C177.348 38.6337 177.348 38.6797 177.348 38.7237L177.408 38.6937C178.093 38.3514 178.829 38.1237 179.588 38.0197C180.932 37.8437 182.302 37.8077 183.772 37.6997C184.972 37.7937 186.278 37.8577 187.572 38.0077C188.107 38.0838 188.625 38.2502 189.104 38.4997C189.93 38.9117 190.054 39.5897 189.504 40.3437C189.327 40.5675 189.134 40.7787 188.928 40.9757C188.735 41.1499 188.599 41.377 188.535 41.6286C188.471 41.8802 188.483 42.145 188.57 42.3897C188.888 43.4157 189.336 44.3717 190.078 45.1537C190.662 45.7657 191.16 45.7857 191.772 45.1857C192.676 44.2997 193.172 43.1857 193.468 41.9637C193.521 41.7544 193.521 41.5351 193.468 41.3256C193.416 41.1161 193.312 40.923 193.166 40.7637C192.937 40.511 192.724 40.2438 192.53 39.9637C192.146 39.3277 192.288 38.6677 192.956 38.3777C193.574 38.0917 194.236 37.9138 194.914 37.8517C196.164 37.7814 197.417 37.7781 198.668 37.8417C199.176 37.8846 199.674 38.0131 200.14 38.2217C200.36 38.2977 200.55 38.4422 200.682 38.634C200.814 38.8258 200.881 39.055 200.874 39.2877C200.856 39.7657 200.55 40.0717 200.144 40.2677C199.862 40.4037 199.572 40.5257 199.28 40.6337C198.413 40.955 197.709 41.6056 197.32 42.4437C196.04 45.0017 194.72 47.5497 193.428 50.1017C192.752 51.4277 192.086 52.7597 191.382 54.0697C191.09 54.6261 190.742 55.1515 190.344 55.6377C189.812 56.2757 189.218 56.5917 188.626 56.5917C188.034 56.5917 187.42 56.2757 186.88 55.6117Z" fill="#435486"/>
<path fill-rule="evenodd" clip-rule="evenodd" d="M154.668 56.6099C154.09 56.6199 153.515 56.5125 152.979 56.2943C152.443 56.0762 151.957 55.7517 151.55 55.3405C151.143 54.9294 150.824 54.44 150.611 53.9019C150.398 53.3639 150.296 52.7883 150.312 52.2099C150.326 49.7759 152.224 47.8219 154.64 47.8579C157.198 47.8939 159.05 49.7059 159.064 52.2319C159.078 54.7579 157.134 56.6159 154.668 56.6099Z" fill="#EC1C24"/>
</svg>
