<svg width="201" height="91" viewBox="0 0 201 91" fill="none" xmlns="http://www.w3.org/2000/svg">
<path d="M118.366 55.5508H29.5273V63.2038H118.366V55.5508Z" fill="#87C827"/>
<path d="M162.237 52.7223C168.156 52.7223 172.771 49.2856 172.771 41.0448C172.771 40.6774 172.758 40.3239 172.738 39.9757H162.38V44.3058H166.302C165.685 46.5052 164.346 47.8268 162.269 47.8519H162.207C159.243 47.8156 157.775 45.1527 157.775 41.0448C157.775 36.8482 159.202 34.3844 162.207 34.3844H162.268C164.369 34.3844 165.696 35.5934 166.306 37.7533H172.473C171.346 31.8806 167.113 29.3672 162.236 29.3672C156.531 29.3672 151.702 32.8039 151.702 41.0448C151.703 49.2856 156.318 52.7223 162.237 52.7223Z" fill="black"/>
<path d="M61.9787 29.332C56.5439 29.332 50.9277 32.7676 50.9277 41.0085C50.9277 49.251 56.5439 52.6872 61.9787 52.6872C67.3816 52.6872 72.9983 49.2505 72.9983 41.0085C72.9983 32.7676 67.3816 29.332 61.9787 29.332ZM61.9787 47.821C58.7912 47.821 56.9991 45.1447 56.9991 41.0085C56.9991 36.8734 58.7906 34.3493 61.9787 34.3493C65.1349 34.3493 66.9264 36.8734 66.9264 41.0085C66.9264 45.1447 65.1349 47.821 61.9787 47.821Z" fill="black"/>
<path d="M85.3576 29.332C79.9222 29.332 74.3066 32.7676 74.3066 41.0085C74.3066 49.251 79.9222 52.6872 85.3576 52.6872C90.76 52.6872 96.3756 49.2505 96.3756 41.0085C96.3756 32.7676 90.76 29.332 85.3576 29.332ZM85.3576 47.821C82.1695 47.821 80.378 45.1447 80.378 41.0085C80.378 36.8734 82.169 34.3493 85.3576 34.3493C88.5132 34.3493 90.3053 36.8734 90.3053 41.0085C90.3053 45.1447 88.5132 47.821 85.3576 47.821Z" fill="black"/>
<path d="M117.598 29.7617H110.699L104.609 40.8626L111.775 52.2678H118.675L111.341 40.8749L117.598 29.7617Z" fill="black"/>
<path d="M104.573 29.6348H98.4668V52.2674H104.573V29.6348Z" fill="black"/>
<path d="M126.627 29.7578H120.553V52.2613H126.627V29.7578Z" fill="black"/>
<path d="M143.925 52.2613H149.542V29.7578H143.987V42.3773H143.925L135.698 29.7578H129.72V52.2613H135.275V39.6717H135.335L143.925 52.2613Z" fill="black"/>
<path d="M39.4442 47.8608H39.384C36.4192 47.8234 34.9523 45.1605 34.9523 41.0526C34.9523 36.856 36.3776 34.3912 39.384 34.3912H39.4437C41.546 34.3912 42.8717 35.6012 43.4825 37.7611H49.6498C48.5219 31.8874 44.2896 29.375 39.4138 29.375C33.7066 29.375 28.8799 32.8117 28.8799 41.0526C28.8799 49.2951 33.4939 52.7301 39.4138 52.7301C44.6088 52.7301 48.7975 50.0821 49.7447 43.8624H43.5955C43.0412 46.3352 41.6611 47.8336 39.4442 47.8608Z" fill="black"/>
<path d="M132.869 58.5182H129.345V55.418H128.033V63.1938H129.345V59.7368H132.869V63.1938H134.18V55.418H132.869V58.5182Z" fill="black"/>
<path d="M138.073 55.3867L135.326 63.194H136.553L137.193 61.3448H140.14L140.769 63.194H142.113L139.364 55.3867H138.073ZM137.591 60.1893L138.672 57.0367H138.692L139.751 60.1893H137.591Z" fill="black"/>
<path d="M148.426 60.966H148.406L144.733 55.418H143.401V63.1938H144.618V57.5299H144.639L148.448 63.1938H149.643V55.418H148.426V60.966Z" fill="black"/>
<path d="M156.694 60.966H156.673L153 55.418H151.669V63.1938H152.886V57.5299H152.907L156.714 63.1938H157.91V55.418H156.694V60.966Z" fill="black"/>
<path d="M161.247 59.7368H163.965V58.5706H161.247V56.637H164.95V55.418H159.937V63.1938H165.161V61.9966H161.247V59.7368Z" fill="black"/>
<path d="M168.025 55.418H166.714V63.1938H171.603V61.9966H168.025V55.418Z" fill="black"/>
<path d="M123.723 62.1335C122.422 62.1249 121.641 61.1082 121.641 59.2655C121.641 57.5092 122.416 56.4765 123.715 56.4674C124.673 56.4674 125.14 57.0222 125.434 58.0058H126.792C126.392 56.2202 125.33 55.266 123.729 55.2628V55.2617C123.728 55.2617 123.726 55.2628 123.726 55.2628C123.723 55.2628 123.722 55.2617 123.722 55.2617L123.72 55.2628C121.773 55.2671 120.319 56.6752 120.319 59.2762C120.319 61.9525 121.732 63.328 123.72 63.3323C123.72 63.3323 123.723 63.3323 123.724 63.3323C123.724 63.3323 123.728 63.3323 123.729 63.3323C125.405 63.3291 126.464 62.3476 126.821 60.4392H125.472C125.198 61.5328 124.714 62.1271 123.723 62.1335Z" fill="black"/>
<path d="M172.23 32.7711L172.546 32.6301C172.703 33.053 173.015 33.2624 173.44 33.2624C173.884 33.2624 174.179 33.0744 174.179 32.7412C174.179 32.4294 174.008 32.2756 173.386 32.0796C172.73 31.8788 172.337 31.6999 172.337 31.1531C172.337 30.6704 172.75 30.3164 173.351 30.3164C173.953 30.3164 174.301 30.624 174.464 31.0255L174.165 31.1921C173.996 30.8125 173.723 30.6587 173.347 30.6587C172.947 30.6587 172.708 30.8552 172.708 31.1243C172.708 31.4618 172.921 31.5729 173.54 31.7694C174.175 31.9659 174.55 32.1795 174.55 32.7172C174.55 33.2383 174.095 33.5966 173.425 33.5966C172.823 33.595 172.396 33.2709 172.23 32.7711Z" fill="black"/>
<path d="M174.912 30.375H175.402L176.396 33.0604H176.404L177.381 30.375H177.88V33.5345H177.508V30.9773H177.499C177.457 31.1439 177.381 31.349 177.308 31.5578L176.553 33.5345H176.217L175.462 31.5578C175.386 31.3484 175.335 31.216 175.267 30.9645H175.258V33.5345H174.913V30.375H174.912Z" fill="black"/>
</svg>
