<svg width="201" height="91" viewBox="0 0 201 91" fill="none" xmlns="http://www.w3.org/2000/svg">
<path d="M50.888 66.9927C47.724 66.9947 44.6045 66.2481 41.7842 64.8141C38.9639 63.3801 36.5228 61.2993 34.6603 58.7416C32.7979 56.184 31.5668 53.222 31.0677 50.0977C30.5687 46.9733 30.8157 43.7753 31.7888 40.7647C32.7618 37.7541 34.4332 35.0164 36.6664 32.7751C38.8997 30.5339 41.6314 28.8527 44.6385 27.8689C47.6456 26.8851 50.8427 26.6265 53.9688 27.1144C57.0949 27.6023 60.0613 28.8227 62.6256 30.676L67.3121 24.2624C63.1249 21.2275 58.179 19.4115 53.0228 19.0157C47.8666 18.6199 42.7015 19.6599 38.1002 22.0202C33.4989 24.3805 29.6411 27.969 26.9546 32.3878C24.2681 36.8066 22.8578 41.8831 22.8801 47.0544C22.9025 52.2258 24.3565 57.2899 27.081 61.6854C29.8056 66.0808 33.6942 69.6359 38.3157 71.9564C42.9372 74.2769 48.1111 75.2722 53.2637 74.8319C58.4163 74.3916 63.3463 72.533 67.5072 69.4621L62.8207 63.0485C59.3708 65.6124 55.1862 66.9955 50.888 66.9927Z" fill="#061535"/>
<path d="M178.946 21.1309H171.005V73.3959H178.946V21.1309Z" fill="#061535"/>
<path d="M96.0594 18.9336C90.5214 18.9327 85.1074 20.574 80.5022 23.6501C75.897 26.7262 72.3074 31.0989 70.1874 36.2152C68.0675 41.3314 67.5123 46.9614 68.5921 52.3932C69.672 57.825 72.3383 62.8145 76.254 66.7309C80.1697 70.6472 85.1588 73.3144 90.5904 74.3952C96.022 75.476 101.652 74.9218 106.769 72.8027C111.885 70.6835 116.259 67.0947 119.335 62.49C122.412 57.8854 124.055 52.4717 124.055 46.9336C124.055 39.5083 121.105 32.3872 115.855 27.1363C110.605 21.8854 103.485 18.9349 96.0594 18.9336ZM96.0594 66.9879C92.0917 66.9889 88.2128 65.8131 84.9134 63.6094C81.614 61.4056 79.0422 58.2728 77.5234 54.6073C76.0046 50.9418 75.6069 46.9082 76.3808 43.0166C77.1546 39.1251 79.0651 35.5505 81.8707 32.7449C84.6764 29.9393 88.251 28.0287 92.1425 27.2549C96.034 26.4811 100.068 26.8787 103.733 28.3975C107.399 29.9163 110.531 32.4881 112.735 35.7875C114.939 39.087 116.115 42.9659 116.114 46.9336C116.114 52.2528 114.001 57.3542 110.24 61.1158C106.48 64.8775 101.379 66.9915 96.0594 66.9927V66.9879Z" fill="#061535"/>
<path d="M96.8635 36.0234H81.2816V39.863H87.0862V53.7132H91.059V39.863H96.8635V36.0234Z" fill="#061535"/>
<path d="M107.878 43.0273L102.977 54.4034L98.091 43.0273H93.8851L101.355 59.5324L101.431 59.7036H104.471L112.017 43.0273H107.878Z" fill="#061535"/>
<path d="M124.634 21.1309L124.658 29.0717H150.655L123.393 73.3959H123.592H163.615V65.4551H137.6L164.862 21.1309H124.634Z" fill="#061535"/>
</svg>
