<svg width="205" height="91" viewBox="0 0 205 91" fill="none" xmlns="http://www.w3.org/2000/svg">
<path d="M36.4918 33.1774C32.8347 29.367 27.7292 27.3535 21.7256 27.3535C21.4823 27.3535 21.2367 27.3561 20.9876 27.3639L20.9601 27.3651C9.77009 27.9752 0.399178 37.4547 0.898997 47.6554C0.980479 51.0331 2.27394 56.1952 7.96419 61.6284C11.8824 65.3696 16.2752 67.6445 18.8897 68.2393L19.6196 66.3942C14.5129 63.5149 10.9591 60.1071 9.0568 56.265C7.36338 52.843 7.18778 49.5549 7.22336 47.0725L7.22451 47.0446L7.22336 47.0167C6.92955 39.9074 12.1584 31.8914 21.119 31.3289C21.3365 31.3237 21.5517 31.3185 21.7646 31.3185C27.9381 31.3185 32.5793 34.0221 34.8305 38.9313C37.216 44.1275 36.3719 51.0242 32.8772 54.9639C31.0345 56.9876 28.5647 58.1018 25.9239 58.1018C21.4834 58.1018 17.5572 55.0818 16.3791 50.7577L16.3658 50.7124C15.5349 48.1585 15.6485 44.2812 17.4699 41.813C18.8402 39.9566 20.9612 39.1622 23.7259 39.4717C27.3716 40.0926 28.4366 43.0979 28.2157 45.7079C27.9827 48.4619 26.2635 51.3106 23.7919 51.3106C23.4735 51.3106 23.1429 51.2629 22.8101 51.1689L22.1243 53.048C23.3369 53.5759 24.6361 53.8548 25.8802 53.8548C29.2871 53.8548 32.9781 51.6815 33.1169 45.5582C33.1169 40.7584 29.3301 35.6569 22.3114 35.6569C22.2162 35.6569 22.1209 35.658 22.0383 35.6595C17.1112 35.6957 11.5059 39.3355 10.3215 46.2294C9.08942 53.7719 15.5383 60.4315 22.0916 61.6908C23.0924 61.8865 24.1317 61.9857 25.1795 61.9857C32.9758 61.9851 41.3178 56.388 41.7797 47.026C41.9857 43.2094 40.705 37.5673 36.4918 33.1774Z" fill="#E37C1E"/>
<path d="M201.59 34.8307V33.0955H202.439C202.549 33.0955 202.649 33.1182 202.74 33.1637C202.832 33.2091 202.905 33.275 202.959 33.3612C203.013 33.4458 203.041 33.5493 203.041 33.6716C203.041 33.7938 203.013 33.8981 202.956 33.9843C202.9 34.0705 202.825 34.1363 202.73 34.1818C202.636 34.2257 202.532 34.2476 202.418 34.2476H201.837V33.9208H202.324C202.39 33.9208 202.446 33.8996 202.493 33.8573C202.542 33.815 202.566 33.7523 202.566 33.6692C202.566 33.583 202.542 33.5219 202.493 33.4858C202.446 33.4482 202.39 33.4294 202.326 33.4294H202.042V34.8307H201.59ZM202.698 34.029L203.093 34.8307H202.599L202.23 34.029H202.698ZM202.27 35.8653C202.009 35.8653 201.766 35.8167 201.538 35.7195C201.311 35.6223 201.111 35.4875 200.939 35.3151C200.766 35.1427 200.632 34.9428 200.534 34.7155C200.437 34.4882 200.389 34.2445 200.389 33.9843C200.389 33.7241 200.437 33.4803 200.534 33.253C200.632 33.0257 200.766 32.8259 200.939 32.6535C201.111 32.481 201.311 32.3462 201.538 32.249C201.766 32.1519 202.009 32.1033 202.27 32.1033C202.53 32.1033 202.774 32.1519 203.001 32.249C203.228 32.3462 203.428 32.481 203.6 32.6535C203.773 32.8259 203.908 33.0257 204.005 33.253C204.102 33.4803 204.151 33.7241 204.151 33.9843C204.151 34.2445 204.102 34.4882 204.005 34.7155C203.908 34.9428 203.773 35.1427 203.6 35.3151C203.428 35.4875 203.228 35.6223 203.001 35.7195C202.774 35.8167 202.53 35.8653 202.27 35.8653ZM202.27 35.3692C202.527 35.3692 202.76 35.3073 202.968 35.1834C203.178 35.058 203.345 34.8911 203.469 34.6826C203.593 34.4726 203.655 34.2398 203.655 33.9843C203.655 33.7288 203.592 33.4968 203.466 33.2883C203.343 33.0783 203.176 32.9113 202.966 32.7875C202.757 32.6621 202.525 32.5994 202.27 32.5994C202.016 32.5994 201.784 32.6621 201.574 32.7875C201.364 32.9113 201.197 33.0783 201.073 33.2883C200.949 33.4968 200.887 33.7288 200.887 33.9843C200.887 34.2398 200.949 34.4726 201.073 34.6826C201.197 34.8911 201.364 35.058 201.574 35.1834C201.784 35.3073 202.016 35.3692 202.27 35.3692Z" fill="#231F20"/>
<path d="M64.6929 38.7621C64.5896 36.9249 62.4716 35.8022 60.509 35.8022C55.3444 35.8022 54.2604 40.293 54.2604 44.4776C54.2604 48.5086 55.2411 53.5097 60.2513 53.5097C62.5243 53.5097 64.6929 51.8256 64.6929 49.6313H70.0125C70.0125 55.0401 64.6929 57.8984 59.8892 57.8984C52.2468 57.8984 48.9414 51.4174 48.9414 44.5281C48.9414 37.6904 52.8137 31.414 60.3541 31.414C65.1583 31.414 69.2378 33.7609 70.0125 38.7621H64.6929Z" fill="#231F20"/>
<path d="M115.567 41.3137C115.516 37.8945 112.933 35.8022 109.525 35.8022C106.272 35.8022 103.224 37.8945 103.018 41.3137H115.567ZM103.018 45.7024C102.759 50.3463 105.806 53.5097 110.558 53.5097C112.108 53.5097 114.07 53.3565 114.638 51.7236H119.906C119.647 56.5716 114.329 57.8984 110.299 57.8984C102.088 57.8984 97.6972 52.7958 97.6972 44.8349C97.6972 37.2311 101.468 31.414 109.628 31.414C117.737 31.414 120.887 36.6703 120.887 44.1204V45.7024H103.018Z" fill="#231F20"/>
<path d="M137.833 45.3452C134.94 45.3452 131.893 46.4169 131.893 49.7849C131.893 52.438 133.804 53.918 136.387 53.918C141.086 53.918 143.358 50.3973 143.358 46.2127V45.3452H137.833ZM143.358 54.9896C141.344 56.8778 138.607 57.8984 135.87 57.8984C130.86 57.8984 126.574 55.1938 126.574 49.9885C126.574 43.3549 132.874 41.3647 138.556 41.3647H143.358V40.4461C143.358 37.5373 142.946 35.3945 138.556 35.3945C135.818 35.3945 133.03 35.8022 133.03 38.3034H127.709C128.072 32.6388 133.545 31.414 138.298 31.414C145.786 31.414 148.677 34.0166 148.677 41.5178V57.4392H143.358V54.9896Z" fill="#231F20"/>
<path d="M164.144 31.4137H173.384V35.8019H164.144V48.6108C164.144 51.0093 164.557 53.5094 167.603 53.5094C169.409 53.5094 171.938 52.5908 173.384 51.5191V56.3671C171.732 57.3367 169.46 57.8981 167.499 57.8981C161.253 57.8981 158.827 53.8155 158.827 48.1005V35.8019H153.51V31.4137H158.827V25.5961L164.144 24.2188V31.4137Z" fill="#231F20"/>
<path d="M195.148 41.3137C195.096 37.8945 192.512 35.8022 189.102 35.8022C185.847 35.8022 182.798 37.8945 182.592 41.3137H195.148ZM182.592 45.7024C182.334 50.3463 185.382 53.5097 190.136 53.5097C191.687 53.5097 193.649 53.3565 194.217 51.7236H199.487C199.229 56.5716 193.908 57.8984 189.877 57.8984C181.662 57.8984 177.27 52.7958 177.27 44.8349C177.27 37.2311 181.042 31.414 189.206 31.414C197.318 31.414 200.469 36.6703 200.469 44.1204V45.7024H182.592Z" fill="#231F20"/>
<path d="M80.996 34.6801H81.0993C82.7009 32.5878 85.0766 31.414 87.8138 31.414C92.3587 31.414 95.6641 34.6291 95.6641 39.1703V40.191H90.3445V39.4261C90.3445 37.4353 89.3626 35.3435 87.0908 35.3435C82.0295 35.3435 80.996 40.3441 80.996 44.2225V57.4392H75.6764V31.8734H80.996V34.6801Z" fill="#231F20"/>
</svg>
