<svg width="201" height="91" viewBox="0 0 201 91" fill="none" xmlns="http://www.w3.org/2000/svg">
<path d="M167.256 15.4446H156.876V25.8664H155.151V15.4446H144.734V13.7199H155.135V3.29297H156.876V13.7147H167.277L167.256 15.4446Z" fill="black"/>
<path d="M33.8799 31.2194H40.7926V59.1242H33.8799V31.2194ZM75.8584 59.1295H82.9123L91.6395 31.2194H85.0876L79.754 50.9043H79.639L74.457 31.2194H67.3665L75.8584 59.1295ZM92.6644 59.1295H111.907V53.4049H99.5615V47.848H110.642V42.2125H99.5615V36.8759H111.834V31.2194H92.6644V59.1295ZM126.758 28.5406H146.006V22.8212H133.655V17.2644H144.735V11.6289H133.655V6.30271H145.927V0.630526H126.758V28.5406ZM112.482 54.5425C115.097 58.2593 119.306 59.5908 124.122 59.5908C129.785 59.5908 135.182 56.5398 135.182 50.4744C135.182 46.1285 132.525 43.7433 128.593 42.7263L124.274 41.552C122.182 41.0278 120.535 40.4564 120.535 38.847C120.535 36.9335 122.271 36.2258 124.274 36.2258C126.433 36.2258 128.745 37.0489 130.094 38.8103L134.449 34.9729C132.023 31.9586 129.132 30.7476 124.274 30.7476C118.187 30.7476 113.816 34.5063 113.816 39.712C113.816 44.2099 116.587 46.4011 120.326 47.4182L125.069 48.6711C126.763 49.1429 128.148 49.7667 128.148 51.4914C128.148 53.4468 125.916 54.1126 123.835 54.1126C122.478 54.1122 121.141 53.7934 119.93 53.1816C118.718 52.5699 117.667 51.6822 116.859 50.5898L112.503 54.5425M143.281 59.1242H150.178V36.813H158.545V31.2194H134.915V36.813H143.281V59.1242ZM160.37 59.1242H167.267V31.2194H160.359L160.37 59.1242ZM59.4497 31.2194V46.312L49.6349 31.2351H42.9731V59.14H49.8702V43.4445L59.9413 59.14H66.3416V31.2194H59.4497ZM87.8956 89.6712H94.7926V67.3599H103.159V61.7664H79.5187V67.3599H87.8851L87.8956 89.6712ZM33.8799 80.104C33.8799 87.0658 39.5063 90.1587 45.5981 90.1587C50.916 90.1587 56.6941 87.417 56.6941 81.0004V74.5838H44.5523V79.7475H50.1055V80.4552C50.1055 83.3909 48.176 84.5652 45.6347 84.5652C42.8215 84.5652 40.7769 82.8038 40.7769 79.9467V71.3336C40.7769 68.1882 43.245 66.8724 45.6347 66.8724C47.7524 66.8724 50.2205 67.9208 50.2205 70.8251V71.3755H56.6941V70.3585C56.6941 63.858 50.7591 61.3155 45.4412 61.3155C39.3547 61.3155 33.8799 64.723 33.8799 71.5695V80.104ZM106.6 89.6922H113.502V61.7873H106.6V89.6922ZM133.184 79.8261C133.184 82.9715 130.873 84.4079 128.441 84.4079C125.628 84.4079 123.589 82.7618 123.589 79.7894V71.6114C123.589 68.3612 125.863 67.0296 128.326 67.0296C130.909 67.0296 133.184 68.6338 133.184 71.5695V79.8261ZM116.692 79.9467C116.692 87.1444 122.276 90.1587 128.441 90.1587C134.193 90.1587 140.081 86.8718 140.081 79.5902V71.8421C140.081 64.6444 134.418 61.3155 128.29 61.3155C122.391 61.3155 116.692 64.8017 116.692 71.884V79.9467ZM160.359 61.7768V76.8695L149.938 61.7926H143.281V89.6974H150.178V74.0072L160.866 89.6974H167.267V61.7768H160.359ZM66.3416 79.0083L69.5522 68.9064H69.6672L72.8046 79.0083H66.3416ZM56.4797 89.6922H62.9898L64.684 84.4865H74.5093L76.1669 89.6922H83.2208L73.5838 61.7454H66.2265L56.4797 89.6922ZM33.8799 18.9472C33.8799 25.909 39.5429 29.0124 45.5981 29.0124C50.916 29.0124 56.579 26.2759 56.579 19.8541V18.4754H50.1055V19.1411C50.1055 22.0349 47.7524 23.2878 45.6347 23.2878C42.8215 23.2878 40.7926 21.6732 40.7926 18.7899V10.334C40.7926 7.18866 43.1457 5.87284 45.572 5.87284C47.6636 5.87284 50.1212 7.08905 50.1212 10.0195V10.6643H56.579V9.35897C56.579 2.90045 50.7591 0.179688 45.4412 0.179688C39.3547 0.179688 33.8799 3.58719 33.8799 10.4336V18.9472ZM66.3416 13.5056V6.10874H70.598C73.0661 6.10874 74.6086 7.39835 74.6086 9.77836C74.6086 12.0483 73.1027 13.4952 70.598 13.4952L66.3416 13.5056ZM59.4393 28.5353H66.3416V18.6693H69.479L74.8962 28.5353H82.4103L76.1355 17.6523C79.6808 16.1687 81.2966 12.8399 81.2966 9.43761C81.2966 4.26869 77.7147 0.630526 71.4712 0.630526H59.4445L59.4393 28.5353ZM84.7582 28.5353H91.6604V0.630526H84.7582V28.5353ZM95.143 28.5353H101.501V10.8059H101.58L106.856 24.7766H111.599L116.828 10.7639H116.906V28.5353H123.265V0.630526H114.835L109.361 15.0312H109.293L103.698 0.630526H95.143V28.5353ZM170.143 89.6974V88.0461H169.526V87.8206H170.995V88.0461H170.378V89.6974H170.143ZM171.256 89.6974V87.8206H171.628L172.072 89.1522C172.109 89.2728 172.14 89.3671 172.161 89.43C172.161 89.3619 172.213 89.2623 172.26 89.126L172.705 87.8206H173.04V89.6974H172.799V88.1247L172.276 89.6974H172.041L171.518 88.1247V89.6974H171.256Z" fill="black"/>
</svg>
