<svg width="201" height="91" viewBox="0 0 201 91" fill="none" xmlns="http://www.w3.org/2000/svg">
<path d="M59.3975 50.6674V41.4023H68.7244V50.6674H59.3975Z" fill="#1450FF"/>
<path d="M96.4231 52.4319C96.4231 59.4083 91.2949 62.7584 84.2242 62.7584C77.1852 62.7584 71.7591 59.5622 71.1871 52.207H78.6947C79.5408 58.0707 88.983 57.5143 88.983 52.8897C88.983 47.681 72.0252 50.4353 72.0252 38.8895C72.0252 32.9232 77.2925 29.2969 83.8071 29.2969C90.2859 29.2969 95.3387 32.4773 95.9703 39.4379H88.3514C87.7992 34.032 79.6838 34.8015 79.6838 38.6606C79.6838 44.1494 96.4231 40.8822 96.4231 52.4319ZM114.267 53.7972C121.115 53.7972 126.203 48.6044 126.203 41.8923C126.203 35.1803 121.115 29.9401 114.267 29.9401H99.0448V62.1153H106.91V53.7972H114.267ZM106.906 47.0852V36.6521H113.154C116.07 36.6521 118.338 38.7671 118.338 41.8923C118.338 45.0175 116.07 47.0852 113.154 47.0852H106.906ZM146.728 62.1153H155.241L141.314 29.944H135.391L121.464 62.1192H129.977L131.598 57.5695H145.064L146.728 62.1153ZM138.355 39.0433L142.752 51.1771H133.914L138.355 39.0433ZM179.802 49.1094L163.333 29.944H156.393V62.1192H164.258V42.9972L180.731 62.1192H187.671V29.944H179.806V49.1094H179.802ZM48.6442 50.6681C47.3969 53.6552 44.5806 55.9596 40.1395 55.9596C33.9388 55.9596 30.745 51.5007 30.745 46.0316C30.745 40.5625 33.9388 36.1036 40.1395 36.1036C44.5845 36.1036 47.3969 38.412 48.6442 41.403H56.4697C54.9483 34.9632 48.9382 29.3008 40.1872 29.3008C29.4501 29.2969 22.8799 36.9283 22.8799 46.0277C22.8799 55.127 29.4501 62.7584 40.1832 62.7584C48.9302 62.7584 54.9403 57.1 56.4657 50.6641H48.6442V50.6681Z" fill="#001A72"/>
</svg>
