<svg width="201" height="91" viewBox="0 0 201 91" fill="none" xmlns="http://www.w3.org/2000/svg">
<path d="M39.7621 54.3435V44.9261H49.1795V54.3435H39.7621ZM77.1036 56.1154C77.1036 63.2031 71.9191 66.6157 64.7986 66.6157C57.7109 66.6157 52.2311 63.3672 51.6405 55.8857H59.2204C60.0735 61.8249 69.5894 61.2671 69.5894 56.5748C69.5894 51.2919 52.4936 54.081 52.4936 42.3667C52.4936 36.2962 57.8094 32.6211 64.372 32.6211C70.9019 32.6211 76.0208 35.8368 76.6442 42.9245H68.9659C68.4081 37.4446 60.2376 38.2322 60.2376 42.137C60.2376 47.7152 77.1036 44.4011 77.1036 56.1154ZM95.1181 57.4936C102.042 57.4936 107.161 52.2106 107.161 45.4183C107.161 38.6259 102.042 33.2774 95.1181 33.2774H79.7615V65.9594H87.7023V57.5264H95.1181V57.4936ZM87.6695 50.7012V40.1025H93.9697C96.9229 40.1025 99.187 42.2354 99.187 45.4183C99.187 48.6012 96.89 50.7012 93.9697 50.7012H87.6695ZM127.833 65.9594H136.43L122.386 33.2774H116.414L102.37 65.9594H110.967L112.608 61.3328H126.192L127.833 65.9594ZM119.4 42.5307L123.83 54.8685H114.905L119.4 42.5307ZM161.204 52.7357L144.601 33.2774H137.611V65.9594H145.552V46.5339L162.156 65.9594H169.145V33.2774H161.204V52.7357ZM28.9008 54.3435C27.6539 57.3952 24.7992 59.7249 20.3366 59.7249C14.0692 59.7249 10.8535 55.1967 10.8535 49.6512C10.8535 44.1058 14.0692 39.5775 20.3366 39.5775C24.832 39.5775 27.6539 41.9073 28.9008 44.9589H36.776C35.2338 38.4291 29.1634 32.6539 20.3366 32.6539C9.50817 32.6539 2.87988 40.3978 2.87988 49.6512C2.87988 58.9046 9.50817 66.6485 20.3366 66.6485C29.1634 66.6485 35.2338 60.9062 36.7432 54.3763H28.9008V54.3435Z" fill="#001A72"/>
<path d="M188.439 42.2348L198.644 27.075V26.6484H173.017V33.2767H186.077L176.495 47.7474V48.2724H185.224C189.785 48.2724 192.278 50.3397 192.278 54.1132C192.278 57.6898 189.686 60.118 185.847 60.118C182.172 60.118 179.842 58.1164 179.35 54.4741L179.317 54.2116H172.065L172.098 54.5398C172.853 61.8571 178.267 66.6151 185.913 66.6151C192.771 66.6151 199.825 61.7915 199.825 53.7522C199.825 47.1568 195.461 42.7598 188.439 42.2348Z" fill="#F1B300"/>
</svg>
