<svg width="201" height="91" viewBox="0 0 201 91" fill="none" xmlns="http://www.w3.org/2000/svg">
<path d="M184.811 59.291L193.884 48.4515C196.311 45.5237 198.487 42.5405 198.487 38.2197C198.491 31.413 193.125 26.4727 185.736 26.4727C177.661 26.4727 172.87 31.1881 172.596 39.4074L172.588 39.6994H179.885L179.897 39.4272C180.016 36.5032 181.128 33.015 185.736 33.015C188.855 33.015 191.031 35.1774 191.031 38.275C191.031 40.5439 189.796 42.1183 188.084 44.2925L171.17 65.3362V65.8334H198.551V59.291H184.811Z" fill="#BA0C2F"/>
<path d="M40.3975 54.3783V45.1133H49.7244V54.3783H40.3975Z" fill="#001A72"/>
<path d="M77.4231 56.1429C77.4231 63.1193 72.2949 66.4694 65.2242 66.4694C58.1852 66.4694 52.7591 63.2732 52.1871 55.9179H59.6947C60.5408 61.7816 69.983 61.2252 69.983 56.6006C69.983 51.3919 53.0252 54.1462 53.0252 42.6004C53.0252 36.6341 58.2925 33.0078 64.8071 33.0078C71.2859 33.0078 76.3387 36.1882 76.9703 43.1489H69.3514C68.7992 37.7429 60.6838 38.5124 60.6838 42.3715C60.6838 47.8603 77.4231 44.5931 77.4231 56.1429ZM95.2667 57.5082C102.115 57.5082 107.203 52.3153 107.203 45.6033C107.203 38.8912 102.115 33.651 95.2667 33.651H80.0448V65.8262H87.91V57.5082H95.2667ZM87.906 50.7961V40.363H94.1544C97.0701 40.363 99.3383 42.4781 99.3383 45.6033C99.3383 48.7284 97.0701 50.7961 94.1544 50.7961H87.906ZM127.728 65.8262H136.241L122.314 33.6549H116.391L102.464 65.8301H110.977L112.598 61.2805H126.064L127.728 65.8262ZM119.355 42.7543L123.752 54.8881H114.914L119.355 42.7543ZM160.802 52.8204L144.333 33.6549H137.393V65.8301H145.258V46.7081L161.731 65.8301H168.671V33.6549H160.806V52.8204H160.802ZM29.6442 54.379C28.3969 57.3661 25.5806 59.6705 21.1395 59.6705C14.9388 59.6705 11.745 55.2116 11.745 49.7425C11.745 44.2735 14.9388 39.8146 21.1395 39.8146C25.5845 39.8146 28.3969 42.1229 29.6442 45.114H37.4697C35.9483 38.6742 29.9382 33.0118 21.1872 33.0118C10.4501 33.0078 3.87988 40.6393 3.87988 49.7386C3.87988 58.8379 10.4501 66.4694 21.1832 66.4694C29.9302 66.4694 35.9403 60.8109 37.4657 54.3751H29.6442V54.379Z" fill="#001A72"/>
</svg>
