<svg width="201" height="91" viewBox="0 0 201 91" fill="none" xmlns="http://www.w3.org/2000/svg">
<path d="M103.536 18.5664H93.138V42.1307C93.138 43.8616 92.534 45.3429 91.3262 46.5353C90.1564 47.7668 88.7215 48.3818 86.9855 48.3818C85.2874 48.3818 83.853 47.7664 82.6831 46.5353C81.5136 45.3433 80.928 43.8619 80.928 42.1307V18.5664H70.5301V38.5524C70.4734 41.0719 69.6997 43.2076 68.1522 45.0151C66.6047 46.7853 64.7553 47.6895 62.5853 47.7469H47.4305C45.1659 47.7469 43.222 46.8427 41.599 45.0735C40.0136 43.2459 39.2211 41.0333 39.2211 38.4946C39.2211 35.8978 40.0136 33.6859 41.599 31.8391C43.222 30.0693 45.1659 29.165 47.4305 29.165H62.5846V18.5664H47.4305C44.8829 18.5664 42.4674 19.1048 40.2216 20.1821C37.957 21.1441 35.9755 22.5481 34.277 24.3758C32.5595 26.2608 31.2384 28.377 30.3328 30.7044C29.3514 33.1857 28.8799 35.7826 28.8799 38.4946C28.8799 41.1687 29.3518 43.7464 30.3331 46.227C31.239 48.5551 32.5602 50.6514 34.2774 52.4599C35.9755 54.3453 37.9573 55.7685 40.2219 56.7494C42.4677 57.8078 44.8832 58.3462 47.4309 58.3462H62.3207C64.604 58.2502 66.8307 57.7302 68.9631 56.7494C71.0392 55.8068 72.9074 54.5176 74.5303 52.8445C76.0403 54.5566 77.7954 55.8643 79.7954 56.8068C81.8902 57.8461 84.0981 58.3462 86.4385 58.3462C88.7786 58.3462 90.9865 57.8461 93.0625 56.8068C95.0816 55.8643 96.8371 54.5176 98.3463 52.7871C99.8368 54.5176 101.593 55.8643 103.593 56.8068C105.725 57.8461 107.971 58.3462 110.292 58.3462C112.425 58.3462 114.482 57.8844 116.426 56.9999C118.351 56.1921 120.049 55.0564 121.503 53.5566C122.974 52.0753 124.107 50.3441 124.899 48.3818C125.729 46.3818 126.144 44.3036 126.144 42.1307V18.5664H115.802V42.1307C115.802 43.8616 115.199 45.3429 113.991 46.5353C112.821 47.7668 111.368 48.3818 109.669 48.3818C108.009 48.3818 106.556 47.7664 105.348 46.5353C104.14 45.3433 103.536 43.8619 103.536 42.1307V18.5664Z" fill="#5C973F"/>
<path d="M61.2636 36.2635V35.2246H57.1309V41.688H61.3957V40.649H58.4516V38.9376H61.0177V37.8413H58.4516V36.2639L61.2636 36.2635Z" fill="#5C973F"/>
<path d="M45.0527 35.225V36.2639H46.9212V41.6887H48.242V36.2635H50.1105V35.2246L45.0527 35.225Z" fill="#5C973F"/>
<path d="M52.243 37.8409V35.2246H50.9219V41.688H52.243V38.9376H54.9416V41.688H56.2627V35.2246H54.9416V37.8409H52.243Z" fill="#5C973F"/>
<path d="M137.593 57.9957V25.6573H132.798V18.9941H144.484V57.9957H137.593Z" fill="#006E3A"/>
<path d="M156.017 36.3342C154.839 35.2022 153.972 34.0531 153.417 32.8868C152.879 31.7034 152.609 30.3913 152.609 28.9506C152.609 26.4809 153.333 24.277 154.78 22.3389C156.816 19.5947 159.576 18.2227 163.059 18.2227C165.061 18.2227 166.87 18.6943 168.485 19.6376C170.1 20.5809 171.362 21.9101 172.271 23.6252C173.196 25.3232 173.659 27.0898 173.659 28.9249C173.659 31.6691 172.498 34.1388 170.176 36.3342C172.061 37.3975 173.482 38.7439 174.441 40.3733C175.401 41.9855 175.88 43.8635 175.88 46.0074C175.88 48.2199 175.316 50.3466 174.189 52.3876C173.079 54.4114 171.522 55.9893 169.52 57.1213C167.534 58.2361 165.423 58.7935 163.185 58.7935C160.93 58.7935 158.776 58.2189 156.723 57.0698C154.687 55.9035 153.114 54.3342 152.004 52.3619C150.893 50.3723 150.338 48.2627 150.338 46.0331C150.338 43.9235 150.817 42.0369 151.777 40.3733C152.752 38.6925 154.166 37.3461 156.017 36.3342ZM167.198 29.0793C167.198 27.8959 166.794 26.9011 165.986 26.095C165.195 25.2717 164.236 24.8601 163.109 24.8601C161.998 24.8601 161.048 25.2717 160.257 26.095C159.466 26.9011 159.071 27.8873 159.071 29.0536C159.071 30.2027 159.466 31.1889 160.257 32.0121C161.048 32.8182 161.998 33.2213 163.109 33.2213C164.236 33.2213 165.195 32.8182 165.986 32.0121C166.794 31.206 167.198 30.2284 167.198 29.0793ZM168.99 46.136C168.99 44.4724 168.409 43.0574 167.248 41.8911C166.104 40.7249 164.724 40.1417 163.109 40.1417C161.477 40.1417 160.08 40.7334 158.919 41.9169C157.775 43.0831 157.203 44.4895 157.203 46.136C157.203 47.7997 157.775 49.2232 158.919 50.4066C160.08 51.5729 161.477 52.156 163.109 52.156C164.724 52.156 166.104 51.5729 167.248 50.4066C168.409 49.2232 168.99 47.7997 168.99 46.136Z" fill="#006E3A"/>
<path d="M39.9355 64.9238L42.8814 73.969H43.95L46.5849 66.2414H46.6097L49.2819 73.969H50.3508L53.3336 64.9238H52.3392L49.8534 72.7274H49.8286L47.2064 64.9238H46.0754L43.4529 72.7274H43.4281L40.9672 64.9238H39.9355Z" fill="#006E3A"/>
<path d="M54.1738 64.9238V73.969H55.0936V70.9159L57.0324 69.2944L61.1462 73.969H62.4512L57.7534 68.6611L62.153 64.9238H60.8231L55.0936 69.8137V64.9238H54.1738Z" fill="#006E3A"/>
<path d="M67.6371 64.6953C64.1695 64.6953 62.9141 67.3809 62.9141 69.4459C62.9141 72.3469 64.7537 74.1964 67.6371 74.1964C70.1849 74.1964 71.8254 72.5497 72.0243 70.5227H71.1045C70.7938 72.2456 69.7499 73.3351 67.6371 73.3351C64.9401 73.3351 63.9084 71.4601 63.9084 69.4459C63.9084 66.8108 65.4372 65.5566 67.6371 65.5566C69.2403 65.5566 70.7565 66.2534 71.0299 67.9763H71.9497C71.6763 65.5947 69.5759 64.6953 67.6371 64.6953Z" fill="#006E3A"/>
<path d="M73.3477 64.9238V73.969H74.2672V69.7124H79.7109V68.8511H74.2672V65.7854H79.9967V64.9238H73.3477Z" fill="#006E3A"/>
<path d="M88.3664 64.6719L84.6875 74.2236H86.3653L90.0318 64.6719H88.3664Z" fill="#5C973F"/>
<path d="M100.458 64.6719C95.6852 64.6719 94.9395 67.5602 94.9395 69.4478C94.9395 71.3353 95.6852 74.2236 100.458 74.2236C105.23 74.2236 105.976 71.3353 105.976 69.4478C105.976 67.5602 105.23 64.6719 100.458 64.6719ZM100.458 66.3947C102.645 66.3947 103.416 68.0416 103.416 69.4478C103.416 70.8539 102.645 72.5008 100.458 72.5008C98.2703 72.5008 97.4998 70.8539 97.4998 69.4478C97.4998 68.0416 98.2703 66.3947 100.458 66.3947Z" fill="#5C973F"/>
<path d="M107.162 64.9238V73.969H109.573V70.6499H112.568C113.314 70.6499 113.848 70.9666 113.848 72.2335C113.848 73.1836 113.861 73.5509 114.084 73.969H116.719C116.297 73.5129 116.26 72.4489 116.26 72.0055C116.26 71.1187 116.098 69.7504 115.042 69.5857V69.5604C116.048 69.193 116.483 68.4837 116.483 67.3816C116.483 66.4568 116.073 64.9238 113.612 64.9238H107.162ZM109.573 66.6467H112.643C113.227 66.6467 113.923 66.8748 113.923 67.7742C113.923 68.623 113.302 68.9271 112.767 68.9271H109.573V66.6467Z" fill="#5C973F"/>
<path d="M117.745 64.9238V73.969H125.562V72.1701H120.156V64.9238H117.745Z" fill="#5C973F"/>
<path d="M129.609 64.9238L125.707 73.969H128.305L129.025 72.1068H133.102L133.823 73.969H136.42L132.518 64.9238H129.609ZM131.063 66.8746L132.455 70.46H129.671L131.063 66.8746Z" fill="#5C973F"/>
<path d="M137.092 64.9238V73.969H139.428V67.6602H139.453L144.288 73.969H146.91V64.9238H144.574V71.2326H144.549L139.888 64.9238H137.092Z" fill="#5C973F"/>
<path d="M148.598 64.9238V73.969H154.34C157.124 73.969 158.491 72.1701 158.491 69.4464C158.491 66.7227 157.173 64.9238 154.128 64.9238H148.598ZM151.009 66.6467H153.469C155.309 66.6467 156.005 67.6855 156.005 69.3577C156.005 71.2707 155.284 72.2461 153.693 72.2461H151.009V66.6467Z" fill="#5C973F"/>
<path d="M164.882 64.6719C160.109 64.6719 159.363 67.5602 159.363 69.4478C159.363 71.3353 160.109 74.2236 164.882 74.2236C169.654 74.2236 170.4 71.3353 170.4 69.4478C170.4 67.5602 169.654 64.6719 164.882 64.6719ZM164.882 66.3947C167.069 66.3947 167.839 68.0416 167.839 69.4478C167.839 70.8539 167.069 72.5008 164.882 72.5008C162.694 72.5008 161.924 70.8539 161.924 69.4478C161.924 68.0416 162.694 66.3947 164.882 66.3947Z" fill="#5C973F"/>
</svg>
