<svg width="201" height="91" viewBox="0 0 201 91" fill="none" xmlns="http://www.w3.org/2000/svg">
<path d="M63.7797 80.5524L63.0963 78.5608L62.3881 80.5524H63.7797ZM63.7129 77.219L65.7462 82.6691H64.5046L64.0962 81.4609H62.0629L61.6296 82.6691H60.4297L62.488 77.2357L63.7129 77.219Z" fill="#E11464"/>
<path d="M69.7549 77.219L72.0216 80.8607H72.0381V77.219H73.1549V82.6691H71.9633L69.6966 79.0355V82.6691H68.5798V77.219H69.7549Z" fill="#E11464"/>
<path d="M78.405 77.219V78.2189H75.5384V79.4024H78.1716V80.336H75.5384V81.669H78.4717V82.6691H74.3383V77.219H78.405Z" fill="#E11464"/>
<path d="M83.5719 82.6679L82.647 78.9678L81.7219 82.6679H80.5136L79.0719 77.2344H80.2636L81.122 80.9366H81.1386L82.0802 77.2344H83.2052L84.1303 80.9846H84.1469L85.0385 77.2344H86.2136L84.7469 82.6679H83.5719Z" fill="#E11464"/>
<path d="M90.3049 77.219V81.6545H92.9466V82.6691H89.1215V77.219H90.3049Z" fill="#E11464"/>
<path d="M93.7549 77.219H94.957V82.6691H93.7549V77.219Z" fill="#E11464"/>
<path d="M99.9634 77.219V78.2189H97.3466V79.4776H99.6299V80.413H97.3466V82.6691H96.155V77.219H99.9634Z" fill="#E11464"/>
<path d="M104.772 77.219V78.2189H101.905V79.4024H104.538V80.336H101.905V81.669H104.847V82.6691H100.705V77.219H104.772Z" fill="#E11464"/>
<path d="M106.764 81.3182C106.822 81.435 106.914 81.5433 107.022 81.6183C107.139 81.7015 107.272 81.7682 107.414 81.8014C107.555 81.8349 107.714 81.8596 107.864 81.8596C107.98 81.8596 108.097 81.8432 108.205 81.8285C108.33 81.8097 108.447 81.7764 108.547 81.7266C108.655 81.6763 108.747 81.6016 108.822 81.5182C108.889 81.4265 108.93 81.3098 108.93 81.1932C108.93 81.0516 108.88 80.9265 108.78 80.8346C108.672 80.7347 108.547 80.6515 108.414 80.6016C108.247 80.5348 108.072 80.4849 107.897 80.4431C107.705 80.4035 107.505 80.3514 107.313 80.2932C107.105 80.2429 106.914 80.1764 106.714 80.1014C106.53 80.0349 106.355 79.9346 106.197 79.8181C105.864 79.568 105.672 79.1681 105.689 78.743C105.68 78.4932 105.747 78.2431 105.864 78.0181C105.98 77.8181 106.147 77.6432 106.338 77.5098C106.539 77.3683 106.755 77.2598 106.989 77.2035C107.23 77.1347 107.472 77.1016 107.722 77.1016C107.997 77.1016 108.272 77.1347 108.539 77.1932C108.789 77.2598 109.03 77.3683 109.239 77.5182C109.439 77.6597 109.605 77.8514 109.722 78.0681C109.847 78.31 109.905 78.5931 109.897 78.8682H108.747C108.739 78.7266 108.705 78.5933 108.639 78.4683C108.588 78.362 108.505 78.2786 108.405 78.2182C108.305 78.1516 108.197 78.1099 108.08 78.0851C107.947 78.0599 107.805 78.0433 107.672 78.0433C107.572 78.0433 107.48 78.0599 107.38 78.0765C107.289 78.0953 107.197 78.1346 107.122 78.187C107.039 78.235 106.972 78.3015 106.922 78.3766C106.872 78.4599 106.847 78.5597 106.847 78.6598C106.847 78.7515 106.863 78.8431 106.914 78.9266C106.972 79.0017 107.055 79.0702 107.147 79.1098C107.313 79.1766 107.472 79.2348 107.647 79.2766L108.472 79.4846C108.572 79.5015 108.714 79.5431 108.897 79.5932C109.08 79.6514 109.263 79.7431 109.43 79.8515C109.613 79.9764 109.772 80.1368 109.888 80.3201C110.03 80.5432 110.097 80.8097 110.089 81.0682C110.089 81.3098 110.038 81.5431 109.938 81.7598C109.847 81.9766 109.697 82.1681 109.514 82.3096C109.305 82.4764 109.064 82.6014 108.805 82.6764C108.48 82.7683 108.155 82.8119 107.822 82.8119C107.53 82.8119 107.238 82.7681 106.947 82.6931C106.68 82.6286 106.43 82.5099 106.206 82.3514C105.989 82.1931 105.814 81.9848 105.689 81.7515C105.564 81.4785 105.497 81.1765 105.514 80.8764H106.663C106.663 81.0286 106.697 81.1765 106.764 81.3182Z" fill="#E11464"/>
<path d="M110.497 78.2189V77.219H114.955V78.2189H113.322V82.6691H112.13V78.2189H110.497Z" fill="#E11464"/>
<path d="M115.605 77.219H116.955L118.221 79.3692L119.488 77.219H120.805L118.788 80.5691V82.6691H117.605V80.5524L115.605 77.219Z" fill="#E11464"/>
<path d="M122.722 77.219V81.6545H125.38V82.6691H121.53V77.219H122.722Z" fill="#E11464"/>
<path d="M130.172 77.219V78.2189H127.297V79.4024H129.955V80.336H127.313V81.669H130.255V82.6691H126.105V77.219H130.172Z" fill="#E11464"/>
<path d="M134.571 77.219L136.863 80.8607V77.219H137.98V82.6691H136.788L134.521 79.019H134.505V82.6691H133.388V77.219H134.571Z" fill="#E11464"/>
<path d="M143.105 77.219V78.2189H140.239V79.4024H142.872V80.336H140.239V81.669H143.18V82.6691H139.039V77.219H143.105Z" fill="#E11464"/>
<path d="M143.872 78.2189V77.219H148.322V78.2189H146.689V82.6691H145.497V78.2189H143.872Z" fill="#E11464"/>
<path d="M153.513 82.6679L152.596 78.9678H152.58L151.672 82.6679H150.463L149.03 77.2344H150.222L151.08 80.9366H151.097L152.038 77.2344H153.163L154.088 80.9846H154.121L155.013 77.2344H156.18L154.705 82.6679H153.513Z" fill="#E11464"/>
<path d="M157.647 80.6278C157.697 80.8358 157.78 81.0298 157.905 81.213C158.022 81.3779 158.18 81.5278 158.363 81.6193C158.572 81.738 158.805 81.786 159.047 81.7776C159.288 81.7861 159.522 81.7381 159.73 81.6193C159.913 81.5276 160.072 81.3777 160.188 81.213C160.305 81.0298 160.397 80.8358 160.447 80.6278C160.497 80.4133 160.522 80.1943 160.522 79.9694C160.522 79.7361 160.497 79.511 160.447 79.2778C160.397 79.0713 160.305 78.8694 160.188 78.6862C160.072 78.5111 159.914 78.3632 159.73 78.261C159.522 78.1528 159.288 78.1027 159.047 78.1111C158.805 78.1027 158.572 78.1528 158.363 78.261C158.18 78.3632 158.022 78.5111 157.905 78.6862C157.78 78.8612 157.697 79.0714 157.647 79.2778C157.597 79.511 157.572 79.7361 157.572 79.9694C157.572 80.1943 157.597 80.4133 157.647 80.6278ZM156.555 78.8278C156.672 78.4945 156.847 78.1883 157.08 77.9214C157.313 77.6609 157.605 77.4528 157.922 77.311C158.647 77.0109 159.455 77.0109 160.172 77.311C160.497 77.4528 160.78 77.6611 161.013 77.9214C161.247 78.1883 161.422 78.4944 161.538 78.8278C161.663 79.1944 161.722 79.5779 161.722 79.9633C161.722 80.3363 161.663 80.7111 161.538 81.0696C161.421 81.3946 161.247 81.7027 161.013 81.9609C160.78 82.2194 160.497 82.4278 160.172 82.5611C159.455 82.8528 158.647 82.8528 157.922 82.5611C157.605 82.4278 157.313 82.2194 157.08 81.9609C156.847 81.7027 156.672 81.3944 156.555 81.0696C156.43 80.7113 156.372 80.3363 156.372 79.9633C156.372 79.5779 156.43 79.1944 156.555 78.8278Z" fill="#E11464"/>
<path d="M164.913 79.6775C165.138 79.6963 165.355 79.6275 165.53 79.4943C165.688 79.3379 165.763 79.1192 165.738 78.9028C165.763 78.686 165.68 78.4777 165.53 78.3276C165.355 78.1943 165.138 78.1278 164.913 78.1445H163.613V79.6776L164.913 79.6775ZM165.347 77.2191C165.572 77.2191 165.788 77.2525 165.997 77.336C166.188 77.4111 166.355 77.5192 166.505 77.6609C166.647 77.7944 166.755 77.961 166.83 78.1443C166.905 78.3275 166.938 78.5193 166.938 78.7213C166.947 79.0109 166.88 79.2943 166.738 79.5525C166.588 79.8026 166.355 79.9859 166.08 80.0859V80.1024C166.213 80.1379 166.338 80.2024 166.447 80.2856C166.546 80.369 166.621 80.4689 166.68 80.5879C166.747 80.7026 166.788 80.8276 166.821 80.9607C166.838 81.0942 166.855 81.2275 166.863 81.3607C166.863 81.4524 166.863 81.5524 166.88 81.6691C166.896 81.7859 166.88 81.9024 166.905 82.0274C166.913 82.1442 166.938 82.2607 166.963 82.3775C166.988 82.4774 167.03 82.5691 167.088 82.6525H165.896C165.821 82.4547 165.78 82.2441 165.771 82.0358C165.755 81.8025 165.738 81.5692 165.705 81.3525C165.688 81.1214 165.596 80.9025 165.446 80.7275C165.263 80.5775 165.021 80.5025 164.788 80.5275H163.597V82.6691H162.397V77.219L165.347 77.2191Z" fill="#E11464"/>
<path d="M169.063 77.219V79.469L171.189 77.219H172.68L170.555 79.3692L172.88 82.6691H171.38L169.755 80.2293L169.072 80.9189V82.6691H167.872V77.219H169.063Z" fill="#E11464"/>
<path d="M28.8799 10.7031V20.9375C39.8132 20.9375 48.6799 29.8028 48.6799 40.7447C48.6799 51.6772 39.8132 60.5437 28.8799 60.5437V70.7687C36.8965 70.852 44.6133 67.727 50.3133 62.0853C56.0132 56.4437 59.2215 48.7623 59.2215 40.7363C59.2215 32.7196 56.0132 25.0353 50.3133 19.3947C44.6133 13.752 36.8965 10.6291 28.8799 10.7115" fill="#E11464"/>
<path d="M82.0794 27.5938C76.3627 27.5938 70.871 29.8688 66.821 33.9198C62.771 37.9606 60.4961 43.451 60.4961 49.176C60.4961 54.901 62.771 60.3928 66.821 64.4428C70.871 68.4844 76.3627 70.7595 82.0794 70.7595C85.3544 70.7595 88.5877 70.0115 91.521 68.5596V56.0178C88.146 60.6511 81.9044 62.1427 76.796 59.5344C71.696 56.9261 69.246 50.9927 71.0294 45.5438C72.8043 40.0938 78.2794 36.7521 83.9461 37.6532C89.6044 38.5595 93.7627 43.4428 93.7545 49.1762V70.1178H103.671V49.176C103.654 37.2605 93.9961 27.6115 82.0794 27.5938Z" fill="#E11464"/>
<path d="M127.472 27.5942C124.206 27.5942 120.981 28.3527 118.039 29.7941V42.3359C121.422 37.7109 127.655 36.2192 132.756 38.8265C137.856 41.4359 140.305 47.3681 138.522 52.8099C136.747 58.2599 131.28 61.6015 125.622 60.7015C119.964 59.8015 115.806 54.9182 115.806 49.1931V10.7109H105.889V49.1765C105.889 57.9098 111.147 65.7849 119.214 69.1267C127.281 72.4682 136.572 70.6182 142.747 64.4432C148.914 58.2702 150.764 48.985 147.422 40.9192C144.08 32.8535 136.206 27.5942 127.472 27.5942Z" fill="#E11464"/>
<path d="M161.214 49.1765V10.7109H151.297V49.1765C151.314 61.0932 160.972 70.7514 172.88 70.7599V60.8537C166.439 60.8431 161.222 55.618 161.214 49.1765Z" fill="#E11464"/>
<path d="M28.8799 23.1934V58.279C38.5715 58.279 46.4215 50.4268 46.4215 40.7362C46.4215 31.0445 38.5715 23.1934 28.8799 23.1934Z" fill="#86E20E"/>
</svg>
