<svg width="201" height="91" viewBox="0 0 201 91" fill="none" xmlns="http://www.w3.org/2000/svg">
<path d="M152.762 69.2037C150.856 70.7901 148.922 72.4157 147.019 74.0334C146.461 74.5109 145.602 74.7884 144.67 74.7884C144.092 74.7884 143.518 74.6802 143.036 74.4718C119.601 64.358 95.4983 57.8799 71.4079 55.1994C70.7145 55.1222 70.0061 55.0375 70.0367 54.3445C70.0677 53.6514 70.7995 53.6358 71.5196 53.6205C73.0096 53.5977 74.5313 53.582 76.0295 53.582C101.58 53.582 127.119 57.8496 151.956 66.261C152.762 66.546 153.289 67.0623 153.401 67.6785C153.505 68.2253 153.267 68.7874 152.762 69.2037ZM140.922 79.2485C140.846 78.6017 140.357 78.0395 139.575 77.6998C110.081 64.9208 79.9431 57.8877 50.0176 56.7787H49.7244C49.3932 56.7787 48.5884 56.7787 48.5037 57.4565C48.423 58.1577 49.2203 58.358 49.7017 58.4811C74.9977 64.8745 100.406 75.4583 125.201 89.9244C125.748 90.2325 126.41 90.4172 127.088 90.4172C127.925 90.4172 128.667 90.1632 129.211 89.7163C132.847 86.6815 136.556 83.6769 140.207 80.7961C140.734 80.3884 140.996 79.8106 140.922 79.2485Z" fill="#ED1B35"/>
<path fill-rule="evenodd" clip-rule="evenodd" d="M101.234 0.417969C118.319 0.417969 135.45 2.34382 152.115 6.14108C153.505 6.45701 154.614 7.82037 154.615 9.2378V59.1753C154.615 60.4078 153.732 61.3011 152.55 61.3011C152.296 61.3011 152.015 61.2549 151.761 61.178C129.122 54.1371 105.848 50.5711 82.5622 50.5711C71.8514 50.5711 61.0982 51.3414 50.5838 52.8591C49.8136 52.9741 49.07 52.72 48.5502 52.2042C48.1072 51.7729 47.8799 51.1564 47.8799 50.5017V9.2378C47.8799 7.82037 48.97 6.45701 50.3561 6.14108C67.0213 2.34382 84.1412 0.417969 101.234 0.417969ZM61.1678 23.3792H58.9299C58.329 23.3792 57.8629 22.9093 57.8629 22.3083V16.0846C57.8629 15.4763 58.3293 15.0141 58.9299 15.0141H61.1678C63.733 15.0141 65.593 16.7624 65.593 19.1732V19.1967C65.593 21.6153 63.733 23.3792 61.1678 23.3792ZM60.0005 16.9858V21.4075L61.1674 21.4071C62.4923 21.4071 63.3857 20.5365 63.3857 19.2194V19.1967C63.3857 17.8717 62.4923 16.9858 61.1674 16.9858H60.0005ZM67.1951 16.0846V22.3083C67.1951 22.9093 67.669 23.3792 68.2656 23.3796H72.7488C73.2918 23.3796 73.7269 22.9402 73.7269 22.4087C73.7269 21.8771 73.2918 21.4381 72.7488 21.4381H69.3248V20.1445H72.1785C72.714 20.1445 73.1569 19.7054 73.1569 19.1735C73.1569 18.6345 72.714 18.2033 72.1785 18.2033H69.3248V16.9552H72.6908C73.2302 16.9552 73.6692 16.5237 73.6692 15.9925C73.6692 15.4531 73.2302 15.0141 72.6908 15.0141H68.2656C67.669 15.0141 67.1951 15.4766 67.1951 16.0846ZM79.5848 20.9759V20.9991C79.5848 21.5231 78.8533 21.5616 78.6214 21.5616C77.9514 21.5616 77.3196 21.3378 76.692 20.8834C76.5112 20.745 76.3031 20.6757 76.0836 20.6757C75.5136 20.6757 75.0671 21.1222 75.0671 21.6847C75.0671 22.0002 75.2325 22.3162 75.4752 22.5008C76.3686 23.1402 77.4782 23.4949 78.5911 23.4949C80.486 23.4949 81.7145 22.4471 81.7145 20.8297V20.8066C81.7145 19.2504 80.644 18.6424 79.0341 18.2339C77.6551 17.8717 77.4626 17.7177 77.4626 17.3633V17.3327C77.4626 17.0246 77.7863 16.8321 78.2983 16.8321C78.7797 16.8321 79.2845 16.9937 79.8776 17.3406C80.0505 17.4409 80.2242 17.5024 80.4206 17.5024C80.9827 17.5024 81.4295 17.0556 81.4295 16.4931C81.4295 16.0697 81.1794 15.7694 80.9521 15.6385C80.1779 15.1454 79.2924 14.9067 78.3179 14.9067C76.5653 14.9067 75.3329 15.9694 75.3329 17.5024V17.5177C75.3329 19.2892 76.5963 19.7592 78.1172 20.1519C79.4927 20.4985 79.5848 20.691 79.5848 20.9759ZM87.2608 17.0093H88.7512C89.3098 17.0093 89.7527 16.5699 89.7527 16.0156C89.7527 15.4606 89.3098 15.0141 88.7512 15.0141H83.6172C83.0704 15.0141 82.6236 15.4606 82.6236 16.0156C82.6236 16.5703 83.0704 17.0093 83.6172 17.0093H85.1229V22.3777C85.1229 22.9786 85.589 23.4486 86.186 23.4486C86.7869 23.4486 87.2608 22.9786 87.2608 22.3777V17.0093ZM92.4449 14.9525C91.8522 14.9525 91.3783 15.4147 91.3783 16.0156V22.3777C91.3783 22.9786 91.8518 23.4486 92.4449 23.4486C93.0419 23.4486 93.508 22.9786 93.508 22.3777V16.0156C93.508 15.4147 93.0419 14.9525 92.4449 14.9525ZM97.9642 18.673L101.142 22.8399C101.365 23.1252 101.665 23.4333 102.201 23.4337H102.263C102.855 23.4337 103.329 22.9559 103.329 22.3549V16C103.329 15.4222 102.855 14.9525 102.263 14.9525C101.688 14.9525 101.215 15.4222 101.215 16V19.5589L98.1684 15.5609C97.9414 15.2681 97.6333 14.9678 97.0978 14.9678H96.9246C96.3236 14.9678 95.8497 15.4375 95.8497 16.0384V22.3934C95.8497 22.9712 96.3233 23.4486 96.9089 23.4486C97.4906 23.4486 97.9642 22.9712 97.9642 22.3934V18.673ZM109.095 14.8906C109.622 14.8906 110.043 15.1681 110.277 15.6919L113.062 21.9853C113.131 22.1468 113.173 22.2856 113.173 22.4087C113.173 22.9943 112.722 23.4486 112.145 23.4486C111.691 23.4486 111.332 23.1946 111.128 22.7246L110.639 21.5925H107.372L106.861 22.7861C106.688 23.2021 106.325 23.4486 105.883 23.4486C105.325 23.4486 104.881 23.0021 104.881 22.4396C104.881 22.2706 104.946 22.1084 105.008 21.9853L107.785 15.6997C108.02 15.1681 108.448 14.8906 108.991 14.8906H109.095ZM108.186 19.6588H109.827L109.006 17.7024L108.186 19.6588ZM117.653 17.0093H119.151C119.701 17.0093 120.144 16.5699 120.145 16.0156C120.145 15.4606 119.702 15.0141 119.151 15.0141H114.017C113.463 15.0141 113.016 15.4606 113.016 16.0156C113.016 16.5703 113.462 17.0093 114.017 17.0093H115.515V22.3777C115.515 22.9786 115.981 23.4486 116.578 23.4486C117.179 23.4486 117.653 22.9786 117.653 22.3777V17.0093ZM122.84 14.9525C122.244 14.9525 121.77 15.4147 121.77 16.0156V22.3777C121.77 22.9786 122.244 23.4486 122.84 23.4486C123.441 23.4486 123.908 22.9786 123.908 22.3777V16.0156C123.908 15.4147 123.441 14.9525 122.84 14.9525ZM134.761 19.1967C134.761 21.6153 132.804 23.518 130.312 23.518C127.79 23.518 125.894 21.6694 125.894 19.2194V19.1967C125.894 16.7781 127.851 14.8828 130.335 14.8828C132.851 14.8828 134.761 16.724 134.761 19.1732V19.1967ZM130.312 16.8855C129.057 16.8855 128.113 17.8639 128.113 19.1732V19.1967C128.113 20.5216 129.064 21.5149 130.336 21.5149C131.599 21.5149 132.547 20.5291 132.547 19.2194V19.1967C132.547 17.8792 131.583 16.8855 130.312 16.8855ZM136.282 16.0384V22.3934C136.282 22.9712 136.756 23.4486 137.342 23.449C137.923 23.449 138.397 22.9715 138.397 22.3937V18.6733L141.567 22.8402C141.798 23.1252 142.098 23.4337 142.634 23.4337H142.687C143.288 23.4337 143.762 22.9559 143.762 22.3549V16C143.762 15.4222 143.28 14.9525 142.702 14.9525C142.121 14.9525 141.64 15.4222 141.64 16V19.5589L138.593 15.5609C138.366 15.2681 138.065 14.9678 137.537 14.9678H137.349C136.748 14.9678 136.282 15.4375 136.282 16.0384ZM62.9894 27.3074C63.7636 27.3074 64.3296 27.7468 64.6377 28.4552L69.1899 38.7234C69.2864 38.9315 69.3326 39.1084 69.3326 39.2934C69.3326 40.0562 68.7395 40.672 67.9767 40.672C67.3029 40.672 66.8638 40.2792 66.5942 39.6861L65.7275 37.6372H59.9852L59.0683 39.7786C58.8257 40.3408 58.3443 40.672 57.7512 40.672C57.0041 40.672 56.4263 40.0711 56.4263 39.3393C56.4263 39.1315 56.4996 38.9315 56.5921 38.7234L61.1443 28.4552C61.4602 27.7465 62.0341 27.3074 62.8158 27.3074H62.9894ZM62.8545 30.7969L61.0482 35.1033H64.653L62.8545 30.7969ZM84.5302 39.2393V28.8793C84.5302 28.0859 83.9101 27.4465 83.0975 27.4465H82.7893C82.2037 27.4465 81.7957 27.6927 81.5028 28.1706L78.0172 33.8325L74.5551 28.1937C74.2929 27.7699 73.8578 27.4465 73.2455 27.4465H72.9296C72.1323 27.4465 71.4933 28.0862 71.4933 28.8793V39.2781C71.4933 40.0562 72.1095 40.672 72.899 40.672C73.6771 40.672 74.3086 40.0562 74.3086 39.2781V32.7925L76.7848 36.6129C77.0851 37.0598 77.4548 37.3369 77.9863 37.3369C78.5064 37.3369 78.8765 37.0598 79.1767 36.6129L81.6839 32.7384V39.2393C81.6839 40.0252 82.3233 40.672 83.0975 40.672C83.9101 40.672 84.5302 40.0405 84.5302 39.2393ZM96.3308 40.5642C97.0395 40.5642 97.6173 40.0017 97.6173 39.2934C97.6173 38.5925 97.0398 38.0072 96.3308 38.0069H90.423V35.2723H95.4029C96.1038 35.2723 96.6777 34.7173 96.6777 34.0086C96.6777 33.3002 96.1038 32.715 95.4029 32.715H90.423V30.0726H96.2386C96.9473 30.0726 97.5212 29.5179 97.5212 28.8095C97.5212 28.1008 96.9473 27.5156 96.2386 27.5156H89.013C88.2083 27.5156 87.5767 28.1549 87.5767 28.9483V39.1318C87.5767 39.9331 88.2083 40.5642 89.013 40.5642H96.3308ZM101.396 27.5159H105.925C107.581 27.5159 108.863 27.9855 109.719 28.8408C110.45 29.5645 110.836 30.5895 110.836 31.8216V31.86C110.836 33.9168 109.811 35.1723 108.236 35.827L110.223 38.2534C110.505 38.6074 110.697 38.908 110.697 39.3471C110.697 40.1483 110.016 40.672 109.33 40.672C108.683 40.672 108.252 40.3564 107.92 39.9327L105.12 36.3895H102.832V39.2393C102.832 40.0405 102.193 40.672 101.396 40.672C100.598 40.672 99.959 40.0405 99.959 39.2393V28.9486C99.959 28.1549 100.598 27.5159 101.396 27.5159ZM105.733 33.8549C107.138 33.8549 107.936 33.1159 107.936 32.0144H107.936V31.9831C107.936 30.751 107.077 30.1117 105.679 30.1117H102.833V33.8549H105.733ZM116.335 39.2393V28.8408C116.335 28.0475 115.704 27.4078 114.906 27.4081C114.094 27.4081 113.469 28.0475 113.469 28.8408V39.2393C113.469 40.0405 114.094 40.672 114.906 40.672C115.704 40.672 116.335 40.0405 116.335 39.2393ZM130.25 39.139C130.508 38.9315 130.728 38.5693 130.728 38.1147C130.728 37.3985 130.116 36.7976 129.388 36.7983C129.056 36.7983 128.767 36.9292 128.536 37.1138C127.716 37.7685 126.919 38.1381 125.706 38.1381C123.472 38.1381 121.927 36.2817 121.927 34.0402V34.0093C121.927 31.7757 123.503 29.9423 125.706 29.9423C126.73 29.9423 127.566 30.2736 128.363 30.8745C128.567 31.0051 128.837 31.1591 129.222 31.1591C130.004 31.1591 130.643 30.5433 130.643 29.7573C130.643 29.2489 130.381 28.8408 130.085 28.6252C129.003 27.8162 127.678 27.3 125.721 27.3C121.723 27.3 118.924 30.3426 118.924 34.0399V34.0783C118.924 37.814 121.777 40.7798 125.617 40.7798C127.701 40.7798 129.079 40.1711 130.25 39.139ZM140.48 28.4552L145.021 38.7234C145.117 38.9315 145.171 39.1084 145.171 39.2934C145.171 40.0562 144.582 40.672 143.816 40.672C143.146 40.672 142.695 40.2792 142.437 39.6861L141.558 37.6372H135.816L134.903 39.7786C134.664 40.3408 134.175 40.672 133.586 40.672C132.843 40.672 132.261 40.0711 132.261 39.3393C132.261 39.1315 132.338 38.9315 132.434 38.7234L136.975 28.4552C137.291 27.7465 137.869 27.3074 138.658 27.3074H138.824C139.594 27.3074 140.164 27.7468 140.48 28.4552ZM138.689 30.7969L136.882 35.1033H140.503L138.689 30.7969Z" fill="#034EA2"/>
</svg>
