<svg width="201" height="91" viewBox="0 0 201 91" fill="none" xmlns="http://www.w3.org/2000/svg">
<path fill-rule="evenodd" clip-rule="evenodd" d="M24.0744 53.3206C21.3602 54.3496 19.1132 54.5157 15.6488 54.5157H14.2932V38.4663H15.5095C19.5331 38.4663 22.9047 38.7962 25.5729 40.5229C27.8187 41.9138 29.2707 44.1687 29.2707 46.5554C29.2707 49.1754 27.4907 51.9946 24.0744 53.3206ZM29.9717 35.3718C27.9601 33.9239 24.2615 32.0059 15.7416 32.0059H7.87988V60.9762H15.8846C19.7685 60.9762 24.2141 60.5849 27.3965 59.0979C32.4533 56.7883 35.6818 51.7766 35.6818 46.5691C35.6818 42.0293 33.2476 37.7239 29.9717 35.3718Z" fill="#185FA8"/>
<path fill-rule="evenodd" clip-rule="evenodd" d="M172.563 38.2787C172.563 38.2787 157.477 38.2787 156.431 38.2787C156.108 37.2783 151.444 22.9297 151.444 22.9297C151.444 22.9297 146.783 37.2783 146.461 38.2787C145.413 38.2787 130.324 38.2787 130.324 38.2787L146.38 46.562L140.661 42.0493H149.415C149.415 42.0493 150.768 37.8902 151.444 35.8032C152.086 37.7811 153.474 42.0493 153.474 42.0493H161.398L154.893 46.463L155.297 47.6676C155.661 48.7826 156.677 51.9027 156.931 52.6883C154.909 51.2205 151.38 48.6556 151.38 48.6556L128.254 70.7216C128.423 70.587 148.431 55.9688 151.457 53.6264C152.322 54.2558 164.5 63.107 164.5 63.107L159.507 47.7479C160.176 47.2656 160.121 47.307 172.563 38.2787Z" fill="#FFD457"/>
<path fill-rule="evenodd" clip-rule="evenodd" d="M181.353 50.2867C183.086 49.9327 185.052 49.5403 187.11 47.8986C189.591 45.8991 190.434 42.8828 190.434 40.9669C190.434 37.6396 188.329 35.2925 186.363 33.9598C184.396 32.6278 181.915 32.002 177.938 32.002H167.312V37.0168L177.843 37.0123C182.852 37.0123 184.022 39.793 184.022 41.3976C184.022 42.9252 183.132 45.8609 177.843 45.8609H173.725V38.9148L167.312 43.5713V60.9731H173.725V49.7823L182.991 60.9731H190.761L181.353 50.2867Z" fill="#185FA8"/>
<path fill-rule="evenodd" clip-rule="evenodd" d="M73.2979 50.2843L61.9248 32.002H68.9447L76.4803 45.3105L84.0629 32.002H91.0836L79.7107 50.2843V60.9696H73.2979V50.2843Z" fill="#185FA8"/>
<path fill-rule="evenodd" clip-rule="evenodd" d="M97.2634 52.4222C97.5921 55.2117 99.8847 56.1551 101.851 56.1551C104.378 56.1551 106.625 54.7601 106.625 52.6496C106.625 49.7839 104.331 49.2561 100.025 47.9342C97.3569 47.1055 91.7873 45.786 91.7873 39.9059C91.7873 35.456 96.0931 31.9492 101.945 31.9492C105.969 31.9492 111.867 34.2122 112.195 39.9059H105.641C105.363 37.4162 103.49 36.7775 101.757 36.7775C99.7428 36.7775 98.2007 37.9455 98.2007 39.6045C98.2007 42.0164 100.447 42.5433 103.958 43.4877C106.811 44.2398 113.038 46.0134 113.038 52.0836C113.038 58.1155 107.233 60.9807 101.804 60.9807C97.3569 60.9807 90.8982 58.5687 90.5234 52.4222H97.2634Z" fill="#185FA8"/>
<path fill-rule="evenodd" clip-rule="evenodd" d="M122.339 37.0118H115.926V32H135.21V37.0118H128.752V60.98H122.339V37.0118Z" fill="#185FA8"/>
<path fill-rule="evenodd" clip-rule="evenodd" d="M47.2493 48.4421H55.2062L51.2272 39.4569L47.2493 48.4421ZM48.7469 32H53.7549L68.2654 60.975H61.1973L57.5001 53.4929H45.0961L41.3995 60.975H34.332L48.7469 32Z" fill="#185FA8"/>
<path fill-rule="evenodd" clip-rule="evenodd" d="M192.662 59.499H192.964C193.219 59.499 193.452 59.4872 193.452 59.1943C193.452 58.9466 193.24 58.9096 193.043 58.9096H192.662V59.499ZM192.373 58.6752H193.09C193.533 58.6752 193.74 58.8504 193.74 59.2073C193.74 59.5419 193.529 59.6829 193.252 59.7114L193.783 60.5314H193.474L192.968 59.7336H192.662V60.5314H192.373V58.6752ZM192.993 60.9609C193.728 60.9609 194.297 60.3731 194.297 59.5976C194.297 58.8365 193.728 58.2506 192.993 58.2506C192.25 58.2506 191.683 58.8365 191.683 59.5976C191.683 60.3731 192.25 60.9609 192.993 60.9609ZM192.993 58.0176C193.86 58.0176 194.585 58.7011 194.585 59.5976C194.585 60.5096 193.86 61.1923 192.993 61.1923C192.123 61.1923 191.392 60.5096 191.392 59.5976C191.392 58.7011 192.123 58.0176 192.993 58.0176Z" fill="#185FA8"/>
</svg>
