<svg width="201" height="91" viewBox="0 0 201 91" fill="none" xmlns="http://www.w3.org/2000/svg">
<path d="M0.879883 74.4541V17.0888C0.879883 17.0888 17.692 16.9813 25.561 17.0888C30.0997 17.1425 34.531 17.9482 38.8012 19.5864C47.073 22.7823 52.1757 28.7445 54.0557 37.4459C55.3179 43.3544 55.291 49.3165 53.7871 55.1981C51.4774 64.195 45.5959 69.7811 36.8944 72.5473C32.8122 73.8364 28.6226 74.4541 24.3524 74.4541C16.9669 74.5079 0.879883 74.4541 0.879883 74.4541ZM19.7331 32.5044V58.4477C19.7331 58.4477 23.9496 58.6357 25.9638 58.4208C31.3351 57.83 34.3699 55.0638 35.4173 49.8536C36.1155 46.416 36.0081 42.9784 34.9876 39.6213C33.9133 36.0763 31.5499 33.8472 27.9512 32.9341C25.2655 32.2895 19.7331 32.5044 19.7331 32.5044Z" fill="#CC1F06"/>
<path d="M98.772 59.2017V74.4831H57.3057V17.0371H97.8589V31.8082H76.1052V37.9583H96.6772V52.7025H76.1052V59.2017H98.772Z" fill="#CC1F06"/>
<path d="M141.259 74.5084H101.431V59.2808H122.513V52.8084H103.821V38.0105H122.567V17.0625H141.259V74.5084Z" fill="#222222"/>
<path d="M176.306 62.3693C176.306 58.502 178.105 55.0375 180.898 52.8084V51.5999L200.88 17.0088H179.878L171.445 36.0232L163.093 16.9551H142.198L161.965 51.5462L162.018 74.4816H180.845V71.7691C178.078 69.5937 176.306 66.183 176.306 62.3693Z" fill="#222222"/>
<path d="M188.445 50.0958C181.731 50.1227 176.253 55.6282 176.279 62.3423C176.306 69.0833 181.758 74.5083 188.526 74.4815C195.267 74.4546 200.692 69.0027 200.692 62.2618C200.692 55.5745 195.159 50.0689 188.445 50.0958ZM186.727 59.9253H184.605V67.0154H181.651V59.9253H179.475V57.5887H186.727V59.9253ZM194.166 67.0154H191.158L187.72 57.5619H190.916L192.662 62.8526L194.408 57.5619H197.603L194.166 67.0154Z" fill="#CC1F06"/>
</svg>
