<svg width="201" height="91" viewBox="0 0 201 91" fill="none" xmlns="http://www.w3.org/2000/svg">
<path d="M10.1887 71.6788H0.878906L9.37984 25.4689L41.7209 25.4711L40.2358 33.9922H16.6859L14.6315 46.9249H34.3599L32.9641 55.3959H13.1795L10.1887 71.6788Z" fill="#008000"/>
<path d="M73.3824 63.5907L72.5703 70.6931C71.7231 71.5146 66.1224 72.4788 64.6672 72.2989C61.3168 72.2989 59.0591 71.0682 59.0591 67.9857C55.8019 71.1438 51.4911 72.3825 47.8418 72.2409C39.1488 72.2409 35.0561 64.455 35.202 56.4448C36.0087 44.105 43.9142 37.3746 53.5365 37.1836C57.9167 37.1836 60.1881 37.7911 62.9661 40.4847L63.4291 37.6015H72.5998L68.2877 61.2091C67.002 65.8617 70.9555 64.5533 73.3824 63.5907ZM55.0628 45.0506C52.0176 45.1026 46.7393 46.3597 44.9491 52.8378C43.835 56.8694 44.3436 62.6999 49.7212 64.0971C52.7812 64.8581 56.4548 63.4909 59.2804 61.3814L61.5493 48.0484C60.7569 46.7175 57.592 45.0628 55.0628 45.0506Z" fill="#008000"/>
<path d="M95.5383 71.6794L98.1834 55.8137C99.8812 49.6697 98.3584 44.9946 93.6164 45.498C90.7226 45.498 87.5072 47.8694 86.0261 50.987L82.5637 71.6794H73.6621L79.2544 37.6142L88.3562 37.5881L87.7292 40.8882C89.4506 40.0075 92.281 37.0586 98.1144 37.0586C105.397 37.0586 107.337 40.8149 107.813 42.5397C109.573 40.8331 111.537 37.0586 120.142 37.0586C128.746 37.0586 131.335 45.2154 129.887 51.1661L128.336 60.5369C127.018 65.3085 130.355 65.195 133.146 63.6326L132.415 70.8568C131.45 71.3968 129.233 72.2977 124.979 72.2977C123.005 72.2977 121.005 71.51 119.688 69.8051C118.371 68.1001 118.542 65.8188 119.101 61.9894L120.235 55.8136C121.3 50.2517 121.054 45.4979 115.528 45.4979C113.021 45.4979 108.88 48.3301 108.145 50.987L104.483 71.6793L95.5383 71.6794Z" fill="#008000"/>
<path d="M138.66 37.5879H147.671L143.599 60.5369C142.281 65.3085 145.618 65.195 148.409 63.6326L147.678 70.8568C146.714 71.3968 144.497 72.2977 140.243 72.2977C138.268 72.2977 136.268 71.51 134.951 69.8051C133.634 68.1 133.806 65.8188 134.364 61.9893L138.66 37.5879Z" fill="#008000"/>
<path d="M139.463 30.544C139.463 29.2371 139.815 28.2926 140.677 27.3151C141.54 26.3377 143.189 25.5555 145.148 25.5555C149.126 25.4775 150.536 27.0517 149.889 30.52C149.104 33.3219 147.987 34.4806 143.809 34.4806C140.354 34.4806 139.463 32.7713 139.463 30.544Z" fill="#008000"/>
<path d="M156.442 25.5723H165.452L159.386 60.5363C158.557 65.6812 161.964 65.0586 164.755 63.4962L164.059 70.8562C163.095 71.3962 160.878 72.2971 156.624 72.2971C154.649 72.2971 152.352 71.4614 151.035 69.7564C149.718 68.0514 149.395 66.6822 149.953 62.8527L156.442 25.5723Z" fill="#008000"/>
<path d="M160.714 75.0666C163.841 76.7975 169.188 78.1147 171.591 74.0791L173.683 70.6846L164.532 37.5879H174.188L178.813 61.6265L191.544 37.5879H200.879L179.552 75.1897C175.858 82.9642 167.589 87.4532 158.151 82.1698L160.714 75.0666Z" fill="#008000"/>
<path d="M129.209 21.7461L132.898 31.553L132.87 31.6231C132.87 31.6231 132.125 33.6232 131.454 34.1077C130.935 34.371 129.724 34.3512 129.264 34.3186V36.1682C130.067 36.1682 131.949 36.218 132.557 35.8369C133.319 35.3575 133.488 35.1517 134.008 34.1C134.575 32.9583 138.925 21.7461 138.925 21.7461H136.556L134.01 28.9881L131.636 21.7461H129.209Z" fill="black"/>
<path d="M54.291 18.4609V20.6973C54.6368 20.853 54.9676 21.0331 55.2751 21.244C55.7775 21.5904 56.2209 22.0071 56.6022 22.4787V20.5542H59.1963C61.9615 20.5542 63.7654 22.4442 63.7654 25.0238C63.7654 27.6037 61.9615 29.4531 59.1963 29.4531H57.1599C56.6779 30.2961 56.004 31.0125 55.1966 31.5481H59.1963C63.3315 31.5481 66.1903 28.6873 66.1903 24.9861C66.1903 21.2842 63.3315 18.4609 59.1963 18.4609H54.291Z" fill="black"/>
<path d="M85.406 21.541C82.4334 21.541 80.2539 23.8975 80.2539 26.7212C80.2539 29.5441 82.4338 31.8443 85.3866 31.8443C87.3217 31.8443 88.4691 31.0774 89.4481 29.9935L88.0732 28.6479C87.3588 29.376 86.5723 29.8804 85.4994 29.8804C83.7507 29.8804 82.5299 28.4597 82.5299 26.683C82.5299 24.9443 83.7337 23.5234 85.3866 23.5234C86.5343 23.5234 87.2657 24.0279 87.9622 24.7585L89.3732 23.2429C88.4518 22.2338 87.2859 21.541 85.406 21.541Z" fill="black"/>
<path d="M67.5078 21.75V31.6243H69.7833V21.75H67.5078Z" fill="black"/>
<path d="M95.2969 21.5427C94.5323 21.5427 93.8261 21.6808 93.1802 21.9543C92.5367 22.2282 91.9795 22.5993 91.507 23.0682C91.0385 23.5354 90.667 24.0797 90.3975 24.705C90.1276 25.3273 89.9932 25.9951 89.9932 26.7049V26.7426C89.9932 27.4401 90.1252 28.1028 90.3898 28.725C90.6522 29.3476 91.0172 29.8922 91.4894 30.3538C91.9583 30.813 92.5163 31.1793 93.1626 31.448C93.8082 31.7164 94.507 31.8496 95.259 31.8496C96.0235 31.8496 96.7324 31.7115 97.386 31.4376C98.0344 31.1618 98.5971 30.7931 99.0668 30.3237C99.5384 29.8568 99.9066 29.3121 100.176 28.6873C100.446 28.0655 100.58 27.4051 100.58 26.7049V26.6677C100.58 25.957 100.449 25.2922 100.187 24.6745C99.9243 24.0571 99.5558 23.5156 99.0867 23.0485C98.6176 22.5796 98.057 22.213 97.4136 21.9444C96.7679 21.6756 96.0614 21.5427 95.2969 21.5427ZM95.259 23.5256C95.7105 23.5256 96.1219 23.6082 96.4903 23.7791C96.8612 23.9466 97.1813 24.1754 97.4515 24.4613C97.7191 24.7478 97.9308 25.0838 98.0796 25.4707C98.2311 25.8568 98.307 26.2688 98.307 26.7049V26.7426C98.307 27.1667 98.236 27.5685 98.0999 27.9499C97.9612 28.3317 97.7592 28.662 97.497 28.9517C97.2343 29.2365 96.9194 29.4626 96.5486 29.6307C96.1777 29.8015 95.7611 29.8843 95.2969 29.8843C94.8579 29.8843 94.4539 29.8015 94.0831 29.6307C93.715 29.4626 93.3945 29.2345 93.1247 28.9409C92.8545 28.6471 92.645 28.3088 92.4966 27.9221C92.345 27.5354 92.2691 27.1297 92.2691 26.7049V26.6677C92.2691 26.231 92.3369 25.8237 92.4758 25.4429C92.6123 25.0612 92.8142 24.7327 93.0764 24.4519C93.3413 24.1705 93.6596 23.9466 94.028 23.7791C94.3961 23.6082 94.8071 23.5256 95.259 23.5256Z" fill="black"/>
<path d="M75.356 21.5801C74.8672 21.5801 74.4078 21.6479 73.974 21.7861C73.5421 21.9242 73.1663 22.1227 72.8459 22.3834C72.5254 22.6469 72.2754 22.96 72.0941 23.3295C71.9118 23.6984 71.8216 24.1172 71.8216 24.5911V24.6293C71.8216 25.1037 71.9148 25.5022 72.1041 25.8263C72.2907 26.15 72.5329 26.4212 72.8278 26.6395C73.1231 26.8581 73.4537 27.0359 73.8241 27.174C74.1933 27.3095 74.5613 27.4297 74.9242 27.5282C75.2125 27.6154 75.4923 27.6981 75.7622 27.7813C76.0297 27.8615 76.2693 27.9548 76.4769 28.0627C76.6835 28.1675 76.8446 28.2878 76.966 28.4258C77.0843 28.564 77.1424 28.7246 77.1424 28.9127V28.9513C77.1424 29.2739 77.0085 29.5327 76.7386 29.726C76.4686 29.9192 76.0904 30.0146 75.6006 30.0146C75.0859 30.0146 74.551 29.9152 73.9938 29.7058C73.4366 29.4999 72.886 29.1992 72.3486 28.8001L71.332 30.3332C71.9605 30.82 72.6382 31.189 73.3729 31.4373C74.107 31.6884 74.8288 31.8112 75.5451 31.8112C76.0572 31.8112 76.5417 31.7459 76.994 31.6155C77.4455 31.4824 77.8362 31.292 78.1667 31.0334C78.5 30.78 78.76 30.4588 78.9492 30.0725C79.1383 29.6859 79.2312 29.2289 79.2312 28.7045V28.6695C79.2312 28.2203 79.1383 27.839 78.9492 27.5282C78.76 27.2164 78.5179 26.9505 78.2249 26.732C77.9301 26.5161 77.6016 26.3307 77.2354 26.1804C76.8724 26.0328 76.5094 25.9014 76.1457 25.789C75.8584 25.6881 75.581 25.5953 75.3109 25.5076C75.0409 25.4193 74.8009 25.3245 74.5944 25.219C74.3868 25.1112 74.2211 24.9929 74.0971 24.8627C73.9709 24.7322 73.9081 24.5793 73.9081 24.4031V24.3685C73.9081 24.0793 74.0318 23.8437 74.2758 23.6554C74.5206 23.4696 74.8621 23.3771 75.3006 23.3771C75.7146 23.3771 76.1661 23.46 76.6556 23.6275C77.1425 23.7959 77.6267 24.0248 78.1036 24.3106L79.0046 22.7021C78.4798 22.3532 77.8969 22.0795 77.2562 21.879C76.6175 21.6804 75.9846 21.5801 75.356 21.5801Z" fill="black"/>
<path d="M115.938 21.5427C115.224 21.5427 114.571 21.6756 113.982 21.9444C113.392 22.213 112.882 22.5796 112.449 23.0485C112.017 23.5156 111.682 24.0625 111.445 24.6848C111.205 25.3099 111.086 25.9777 111.086 26.6852V26.7256C111.086 27.4857 111.218 28.1802 111.482 28.8103C111.745 29.4401 112.106 29.9798 112.562 30.4265C113.022 30.8759 113.559 31.227 114.18 31.4753C114.8 31.7238 115.469 31.8496 116.183 31.8496C117.099 31.8496 117.886 31.6822 118.542 31.3447C119.201 31.0084 119.768 30.5597 120.245 29.9974L118.908 28.8179C118.509 29.2069 118.103 29.4978 117.69 29.6985C117.273 29.8966 116.786 29.9974 116.221 29.9974C115.482 29.9974 114.851 29.7816 114.331 29.3534C113.811 28.9207 113.488 28.3009 113.362 27.4908H120.659C120.671 27.3775 120.681 27.2694 120.689 27.1641C120.694 27.0589 120.697 26.9562 120.697 26.8557C120.697 26.1452 120.596 25.4682 120.394 24.8258C120.194 24.1832 119.897 23.6186 119.503 23.1315C119.107 22.647 118.613 22.2601 118.017 21.9718C117.421 21.6856 116.728 21.5427 115.938 21.5427ZM115.92 23.395C116.296 23.395 116.632 23.4605 116.925 23.5906C117.22 23.7212 117.475 23.9068 117.69 24.1427C117.899 24.3783 118.07 24.6575 118.194 24.9761C118.32 25.2924 118.403 25.3945 118.441 25.7588H113.342C113.442 24.9837 113.723 24.5946 114.18 24.1153C114.639 23.636 115.217 23.395 115.92 23.395Z" fill="black"/>
<path d="M100.673 21.75L104.756 31.6997H106.805L110.866 21.75H108.477L105.79 29.0068L103.121 21.75H100.673Z" fill="black"/>
<path d="M122.396 21.75V31.6243H124.67V27.8655C124.67 27.2054 124.733 26.6254 124.917 26.1461C125.601 24.3492 127.511 23.8379 128.5 23.692L127.72 21.8052C126.925 21.94 125.528 22.3216 124.67 23.381V21.75H122.396Z" fill="black"/>
<path d="M51.5849 21.2051C51.3274 21.2073 51.0704 21.2269 50.8159 21.2667C50.8412 21.2727 50.8749 21.2811 50.8847 21.2901L51.0285 21.511C51.1184 21.5811 51.0566 21.7312 50.9886 21.8107C50.9206 21.8904 50.7653 21.9025 50.6831 21.8446C50.6292 21.8068 50.2999 21.5965 50.0884 21.4279C49.3881 21.6377 48.7399 21.9918 48.1861 22.4669C48.3152 22.5382 48.4414 22.6032 48.5137 22.5692C48.7656 22.4511 48.9919 22.2785 49.1845 22.2685C49.212 22.2678 49.2392 22.2691 49.2653 22.2745C49.3483 22.295 49.2881 22.5312 49.0249 22.6833C48.8596 22.7789 49.2142 22.8422 49.1792 22.9678C49.1372 23.1191 49.9164 23.0385 50.1461 23.1655C50.1521 23.1678 50.2241 22.9867 50.1337 22.7525C50.0545 22.5479 49.8062 22.2869 49.8765 22.2978C49.952 22.3081 51.4754 22.3308 51.7924 22.4537C51.8511 22.4771 51.6654 22.583 51.4113 22.6109C51.218 22.6327 50.9396 22.5731 50.9652 22.6049C51.1613 22.8315 50.8635 23.3322 50.8901 23.3714C50.9553 23.4675 50.8176 23.6123 50.687 23.7144C50.9381 23.9978 50.7953 24.9523 51.0271 25.1099C51.063 25.1344 51.0667 25.3171 51.1394 25.3548C51.2038 25.3881 51.337 25.2763 51.3788 25.2943C51.6334 25.4028 51.8127 25.4252 51.8402 25.5131C51.8517 25.5505 51.4563 25.6933 51.3 25.621C50.9775 25.4722 50.734 25.0136 50.6035 25.0681C49.5491 25.5086 49.4495 25.8233 49.6371 26.0152C49.7951 26.1767 50.1017 26.2075 50.2471 26.3368C50.3989 26.4716 50.5415 25.8389 50.6696 25.9525C50.8012 26.069 50.7669 26.3218 50.8675 26.401C51.0463 26.5418 51.4305 26.1919 51.4449 26.2033L51.5888 26.4238C51.6787 26.4938 51.6168 26.6438 51.5489 26.7235C51.4809 26.803 51.3255 26.8153 51.2434 26.7574C51.2066 26.7315 50.389 27.0593 49.3437 26.7042C49.1751 26.6469 48.8557 26.3489 48.6335 26.2306C48.2134 26.0069 47.8782 25.9045 47.7223 25.6245C47.3849 25.0183 47.3677 23.7631 47.3827 23.333C46.7268 24.2208 46.3721 25.2933 46.3701 26.3951C46.3701 29.2599 48.7048 31.5824 51.5851 31.5826C54.4655 31.5827 56.8006 29.2601 56.8006 26.3951C56.8006 23.53 54.4655 21.2075 51.5851 21.2075L51.5849 21.2051ZM49.5063 23.483C49.3169 23.4807 49.1732 23.4868 49.1813 23.489C49.4352 23.5706 49.9115 23.7482 50.1545 23.855C50.2042 23.8768 50.3003 23.8153 50.3949 23.7547C50.3267 23.6694 50.2499 23.5382 50.1041 23.5177C49.9302 23.493 49.6956 23.4844 49.5063 23.483ZM52.3261 25.2288C52.359 25.2326 52.3886 25.2412 52.4111 25.2607C52.501 25.3308 52.4964 25.5017 52.4284 25.5813C52.3605 25.6608 52.2051 25.6729 52.1229 25.6152C52.0408 25.5574 51.9954 25.4198 52.0552 25.328C52.1001 25.2594 52.2272 25.2165 52.3261 25.2288ZM54.2037 25.9013C54.5953 25.9381 54.7962 26.2194 55.0582 26.2564C55.3577 26.2985 55.4511 26.0813 55.7878 26.1717C56.3282 27.5786 54.1591 30.7286 54.1591 30.7286L53.9213 28.9398C53.9213 28.9398 52.4151 28.65 52.4221 27.8737C52.4283 27.2294 52.1704 27.0905 52.2169 26.817C52.3506 26.0306 53.5074 25.9511 54.0231 25.9018C54.0875 25.8958 54.1477 25.8959 54.2037 25.9013Z" fill="black"/>
</svg>
