<svg width="201" height="91" viewBox="0 0 201 91" fill="none" xmlns="http://www.w3.org/2000/svg">
<path d="M200.466 42.4945C199.077 35.3561 192.232 31.9571 189.14 31.1558C185.701 30.2676 181.989 30.5348 178.73 31.9304C177.147 32.6115 175.037 33.8068 173.755 34.9621C172.393 33.6533 169.348 31.8636 165.895 31.8636C162.864 32.0039 150.463 33.4462 147.278 35.1357C145.528 32.0573 142.79 28.6049 139.472 28.3578C137.916 28.2376 136.4 28.8653 135.465 30.1341C134.163 31.9104 134.263 34.3077 134.67 36.9387C129.936 32.1975 119.305 31.8903 112.54 31.8369C106.11 31.7968 97.7159 33.4529 95.3453 34.7551C96.554 34.0272 101.195 31.3294 104.08 27.3829C106.998 27.8436 110.33 26.2877 112 23.8771C113.816 21.2461 113.903 17.7069 112.447 14.8956C111.252 12.5717 109.055 10.8088 106.544 10.1076C103.846 9.34638 100.848 9.88727 98.6641 11.6702C98.3436 8.6786 96.2067 6.12772 93.4488 5.02589C90.4973 3.84394 86.9848 4.27131 84.4673 6.24124C83.1117 7.30299 82.0633 8.77209 81.5959 10.4348C81.055 12.3781 81.3355 14.5016 82.3238 16.2511C82.3171 16.2578 82.3104 16.2778 82.297 16.2845C79.7729 18.5216 77.5225 21.8738 77.7562 25.3996C71.773 19.4564 64.7213 14.7353 58.1772 11.3497C51.5262 7.91734 38.8251 2.65531 25.7301 2.36149C21.8704 2.27468 13.2962 2.6286 9.40313 3.7972C1.0827 6.29466 0.2747 12.338 1.16284 14.9623C2.17117 17.9072 5.61019 19.0558 10.0242 18.2945C11.6602 18.0074 13.3563 16.6451 13.7503 14.5216C20.1743 14.1477 27.5799 14.6752 34.6716 16.5917C33.0356 20.9656 31.9805 26.6617 31.3995 33.1591C27.8136 33.927 23.4864 35.1691 20.181 36.7851C17.2294 38.2342 13.9774 40.3176 12.8355 43.5763C11.6001 47.0688 13.6435 50.4878 15.8004 53.1188C18.0908 55.89 23.6734 61.0987 31.266 64.7514C31.5798 66.6278 32.4279 70.5409 36.4212 71.8297C39.1724 72.7179 42.6915 72.0902 44.6948 69.192C47.219 69.773 51.8934 70.0735 54.7315 70.1069L54.7381 74.0601C54.7381 78.9615 58.7247 82.9815 63.6328 82.9815H163.899C165.154 85.6059 167.718 88.7244 170.65 89.3053C175.919 90.3404 176.553 85.4456 176.827 83.903C177.121 82.287 177.368 80.6644 177.882 79.0951L181.742 66.1737C185.107 65.6595 188.933 64.0702 191.665 62.0803C194.336 60.1237 196.66 57.673 198.349 54.8283C200.539 51.1288 201.494 46.7416 200.466 42.4945Z" fill="#07397B"/>
<path d="M84.4873 45.2923C84.4473 28.9052 51.3792 5.34627 22.605 6.15427C16.3346 6.32789 11.0659 6.99567 8.58845 8.04407C6.48497 8.96559 4.54843 11.1959 4.54843 13.019C4.50837 14.7618 6.54507 14.9088 7.77377 14.8954C9.00915 14.8954 10.1377 14.7886 10.1243 14.0674C10.1243 13.0457 8.48161 13.2594 8.48161 12.2377C8.48161 11.0557 14.8321 10.7819 18.004 10.7686C45.209 10.6951 76.5542 29.5396 76.601 45.5261C76.6343 57.9466 60.4609 60.7379 51.5529 60.7579C48.3809 60.7646 45.3092 60.4307 42.3844 59.8698C42.2508 55.9166 42.0171 47.6095 41.9169 42.3608C42.9453 42.3475 43.9002 42.3341 44.7282 42.3341C51.3392 42.3074 59.9935 44.6446 60.0135 46.1938C60.0135 47.5093 57.7164 48.4175 57.7164 49.6729C57.7231 50.6145 59.8466 50.4475 61.6963 50.5744C62.0168 50.6078 65.7497 48.531 65.743 45.2456C65.7296 40.9051 60.2472 35.7966 41.8167 35.7966C41.6431 30.9086 40.9019 23.1958 38.1307 23.2092C35.8268 23.2158 35.1591 31.7032 34.9587 36.391C25.0223 37.8868 16.181 41.9335 16.1877 45.9201C16.1877 49.1721 23.2995 57.3857 34.8052 62.3806C34.9988 66.0667 35.7066 68.5976 38.9787 68.5775C41.3493 68.5775 42.164 66.8346 42.4111 64.9983C46.1306 65.9465 50.1639 66.4941 54.4443 66.4874C71.1319 66.434 84.5274 57.5192 84.4873 45.2923ZM34.7183 57.7997C24.8353 54.3073 18.1309 48.7714 18.1175 46.9284C18.1109 44.0703 26.7919 42.9885 34.8118 42.5879C34.7584 47.0686 34.7117 53.4926 34.7183 57.7997Z" fill="url(#paint0_linear_2048_37966)"/>
<path d="M24.0541 6.83556C27.4664 6.83556 31.0389 7.17612 34.685 7.84389C38.1574 8.48495 41.7099 9.42651 45.2558 10.6485C51.9669 12.9657 58.6313 16.2845 64.521 20.2511C70.2572 24.1108 75.0785 28.4513 78.4707 32.8052C81.9365 37.2592 83.7728 41.573 83.7862 45.2925C83.7929 48.1439 83.045 50.8751 81.5558 53.3926C80.1135 55.8366 78.0233 58.0135 75.3456 59.87C69.8832 63.6562 62.4643 65.753 54.451 65.7731H54.3575C50.3643 65.7731 46.411 65.2789 42.5981 64.304L41.73 64.8916C41.3761 67.556 40.0004 67.8632 38.9921 67.8632H38.9854H38.9454C37.6766 67.8632 36.8753 67.4425 36.3544 66.5009C35.8803 65.6529 35.6265 64.3641 35.5197 62.3274L35.099 61.7197C30.0373 59.5227 25.2694 56.4176 21.6835 52.9719C18.3847 49.8066 16.9089 47.1422 16.9089 45.9002C16.9089 44.3242 18.8254 42.4745 22.1709 40.8318C23.8604 40.0038 25.837 39.2492 28.0473 38.6014C30.2844 37.947 32.655 37.4262 35.079 37.0656L35.6733 36.4045C35.7668 34.1207 35.9805 30.8286 36.4613 28.1508C36.715 26.7351 37.0088 25.6333 37.3494 24.8854C37.6766 24.1575 37.9771 23.8971 38.1507 23.8971H38.1574C38.9654 23.8971 39.74 25.3195 40.2809 27.8103C40.8418 30.3879 41.0555 33.5865 41.129 35.8102L41.8168 36.498C46.1506 36.498 49.9836 36.7851 53.209 37.3527C56.0804 37.8602 58.491 38.5881 60.3808 39.523C62.0102 40.331 63.2389 41.2859 64.0335 42.3543C64.708 43.2625 65.0485 44.2374 65.0485 45.2524C65.0552 46.6614 64.2205 47.7966 63.5193 48.5045C62.7314 49.2991 61.8967 49.7666 61.6429 49.8734C61.2957 49.8534 60.9417 49.84 60.6012 49.8267C60.0336 49.8066 59.4994 49.7866 59.0586 49.7332C58.698 49.6864 58.5177 49.6263 58.4309 49.5863C58.5044 49.2724 58.9451 48.8517 59.3324 48.4845C59.9802 47.8634 60.7147 47.1623 60.7147 46.194V46.1873C60.708 45.5062 60.1204 44.9119 58.865 44.3109C57.9234 43.8635 56.6146 43.4161 55.072 43.0087C51.7666 42.154 47.9402 41.6398 44.8351 41.6398C44.8017 41.6398 44.7617 41.6398 44.7349 41.6398C43.8935 41.6398 42.9386 41.6465 41.9103 41.6665L41.2225 42.381C41.3159 47.5095 41.5563 55.85 41.6899 59.8967L42.2575 60.5644C45.3693 61.1654 48.4611 61.4659 51.446 61.4659H51.5596C54.3508 61.4592 61.5227 61.1454 67.7129 58.4409C70.6178 57.1722 72.8949 55.5428 74.4975 53.5929C76.3673 51.3158 77.3155 48.6047 77.3021 45.5262C77.2955 43.4828 76.8013 41.3393 75.833 39.169C74.9115 37.1056 73.5559 35.0022 71.8131 32.9187C68.4608 28.9188 63.6596 24.9989 57.9167 21.5666C52.1806 18.1409 45.6231 15.2762 38.952 13.2862C35.4863 12.2512 32.0005 11.4565 28.5815 10.9156C25.0157 10.3547 21.5099 10.0676 18.1643 10.0676C18.1109 10.0676 18.0575 10.0676 18.0041 10.0676C16.969 10.0742 14.318 10.1143 11.9808 10.3681C10.8522 10.4883 9.96409 10.6485 9.32971 10.8422C8.94908 10.9557 7.78715 11.3029 7.78715 12.2445C7.78715 13.1927 8.54841 13.5667 9.0025 13.7871C9.1227 13.8472 9.34306 13.954 9.40984 14.0208C9.26961 14.0876 8.87562 14.1944 7.78048 14.1944H7.7738C7.74709 14.1944 7.72038 14.1944 7.68699 14.1944C6.55178 14.1944 5.80387 14.0208 5.46331 13.6669C5.36982 13.5667 5.23627 13.3931 5.24962 13.0258V13.0124C5.24962 11.55 6.93908 9.52668 8.86227 8.67861C11.1728 7.70366 16.3146 7.02254 22.6184 6.84891C23.0925 6.84224 23.5733 6.83556 24.0541 6.83556ZM34.4846 58.461L35.4195 57.7999C35.4129 53.2991 35.4663 46.7683 35.5197 42.6014L34.7851 41.8935C29.9705 42.1339 26.1108 42.5613 23.3128 43.1556C21.5499 43.5296 20.2211 43.9703 19.2661 44.4912C18.0374 45.159 17.4231 45.9803 17.4231 46.9419C17.4231 47.603 17.8839 48.4043 18.8187 49.406C19.6668 50.3075 20.8755 51.3158 22.3179 52.3308C25.7035 54.7014 30.0239 56.885 34.4846 58.461ZM24.0541 6.1344C23.5666 6.1344 23.0858 6.14108 22.605 6.15443C16.3346 6.32805 11.0659 6.99582 8.58848 8.04423C6.485 8.96575 4.54846 11.1961 4.54846 13.0191C4.5084 14.7153 6.44493 14.9022 7.68699 14.9022C7.72038 14.9022 7.74709 14.9022 7.7738 14.9022C9.00918 14.9022 10.1377 14.7954 10.1244 14.0742C10.1244 13.0525 8.48164 13.2662 8.48164 12.2445C8.48164 11.0626 14.8321 10.7888 18.0041 10.7754C18.0575 10.7754 18.1109 10.7754 18.1643 10.7754C45.3359 10.7754 76.5542 29.5798 76.601 45.5329C76.6344 57.9534 60.461 60.7447 51.5529 60.7648C51.5128 60.7648 51.4794 60.7648 51.4394 60.7648C48.3075 60.7648 45.2758 60.4309 42.3844 59.8766C42.2508 55.9234 42.0171 47.6164 41.9169 42.3677C42.9453 42.3543 43.9002 42.341 44.7283 42.341C44.7616 42.341 44.795 42.341 44.8284 42.341C51.426 42.341 59.9935 44.6648 60.0069 46.2007C60.0069 47.5162 57.7097 48.4244 57.7097 49.6798C57.7164 50.6213 59.8399 50.4544 61.6896 50.5813H61.6963C62.0636 50.5813 65.743 48.5112 65.7363 45.2524C65.7297 40.9052 60.2473 35.7968 41.8168 35.7968C41.6432 30.9154 40.9019 23.2093 38.1374 23.2093H38.1307C35.8269 23.216 35.1591 31.7034 34.9588 36.3911C25.0223 37.8869 16.181 41.9336 16.1877 45.9202C16.1877 49.1723 23.2995 57.3858 34.8052 62.3808C34.9988 66.0468 35.7 68.5777 38.932 68.5777C38.9454 68.5777 38.9654 68.5777 38.9788 68.5777C41.3493 68.5777 42.164 66.8348 42.4111 64.9984C46.1039 65.94 50.1105 66.4876 54.3442 66.4876C54.3776 66.4876 54.4043 66.4876 54.4377 66.4876C71.1253 66.4408 84.5207 57.5194 84.4807 45.2925C84.4473 29.1792 52.4811 6.1344 24.0541 6.1344ZM34.7184 57.7999C24.8354 54.3074 18.1309 48.7716 18.1176 46.9285C18.1109 44.0705 26.7919 42.9887 34.8119 42.588C34.7584 47.0688 34.7117 53.4927 34.7184 57.7999Z" fill="white"/>
<path d="M93.5353 53.4593C93.1814 38.4411 92.1597 35.543 89.9561 35.543C87.1381 35.5563 87.0646 46.9218 86.9711 51.062C86.7641 60.531 88.1798 61.6729 90.6973 61.6528C92.9543 61.6461 93.729 61.3857 93.5353 53.4593Z" fill="url(#paint1_linear_2048_37966)"/>
<path d="M89.9562 36.2441C90.3435 36.2441 90.6039 36.3709 90.851 36.6714C91.2049 37.1055 91.5054 37.8935 91.7525 39.0153C92.3267 41.5996 92.654 46.0603 92.8276 53.4726C92.9344 57.8932 92.7274 60.0368 92.1331 60.6511C91.886 60.9049 91.492 60.9449 90.684 60.9516H90.6373C89.8092 60.9516 89.3151 60.798 88.9478 60.4241C87.9528 59.4091 87.5455 56.4375 87.659 51.0753C87.6657 50.8616 87.6657 50.6345 87.6724 50.3875C87.7191 48.1571 87.7926 44.4309 88.1799 41.3325C88.3936 39.6564 88.674 38.3609 89.0146 37.4728C89.3218 36.7048 89.669 36.2441 89.9562 36.2441ZM89.9562 35.5429C87.1382 35.5563 87.0647 46.9217 86.9712 51.0619C86.7709 60.4708 88.1598 61.6528 90.644 61.6528C90.664 61.6528 90.6773 61.6528 90.6974 61.6528C92.9544 61.6461 93.7291 61.3857 93.5354 53.4525C93.1815 38.4344 92.1598 35.5429 89.9562 35.5429Z" fill="white"/>
<path d="M90.1437 31.3027C94.2304 31.3761 100.341 27.3695 102.117 23.4163C102.698 23.7435 103.332 23.9572 103.993 24.0106C105.556 24.2911 107.219 23.9038 108.421 22.8487C109.583 21.8203 110.183 20.2711 110.077 18.7285C109.997 17.4197 109.482 16.1242 108.567 15.1893C106.958 13.5533 105.068 12.9924 103.459 13.1794C101.83 13.3663 100.394 14.3079 99.5659 15.7302C99.1987 16.3646 99.0184 17.1058 98.985 17.8404C98.9583 17.8404 98.9382 17.8337 98.9115 17.8337C97.8831 16.8387 96.3807 15.7236 94.1904 15.6034C95.0251 14.7019 95.5192 13.4999 95.4658 12.2712C95.3924 10.7353 94.4842 9.35302 93.2087 8.52499C90.8248 6.98243 87.319 7.39645 85.5361 9.68691C84.5745 10.929 84.2873 12.5784 84.8549 14.0675C85.3691 15.4164 86.511 16.4314 87.8466 16.9523C83.8065 18.9155 81.3959 22.5415 81.4092 24.832C81.4226 27.1491 83.1521 31.1758 90.1437 31.3027ZM97.616 20.3178C99.2654 20.3111 99.5526 21.62 99.5526 22.1208C99.5593 25.1458 93.3356 27.6299 90.6512 27.6366C89.5427 27.6366 88.6011 27.4897 87.8132 27.2493C89.95 24.852 95.0919 20.3245 97.616 20.3178ZM90.9984 19.5632C88.6946 20.9121 86.3374 22.8153 84.7548 24.7051C84.1004 22.7418 86.7648 20.2711 90.9984 19.5632Z" fill="white"/>
<path d="M90.017 8.30455C91.0453 8.30455 92.0203 8.58502 92.835 9.11256C93.9902 9.86046 94.7114 11.0491 94.7715 12.2978C94.8182 13.2995 94.4243 14.3278 93.683 15.1225L94.1571 16.2978C96.2272 16.4113 97.5895 17.5131 98.4309 18.3345L98.9184 18.5348C98.8783 18.5348 98.8449 18.5281 98.8382 18.5281C98.8649 18.5348 98.9184 18.5415 98.9918 18.5415L99.693 17.8737C99.7197 17.2059 99.8933 16.5849 100.18 16.0841C100.528 15.4831 101.022 14.9622 101.603 14.5816C102.184 14.201 102.852 13.9606 103.546 13.8804C103.713 13.8604 103.893 13.8537 104.067 13.8537C105.483 13.8537 106.912 14.5081 108.073 15.6901C108.835 16.4647 109.309 17.5866 109.389 18.7819V18.7886C109.482 20.1375 108.948 21.4596 107.967 22.3344C107.179 23.0289 106.124 23.4095 104.988 23.4095C104.701 23.4095 104.407 23.3828 104.12 23.3361L104.06 23.3294C103.519 23.2827 102.978 23.109 102.464 22.8219L101.483 23.1491C101.089 24.0306 100.454 24.9321 99.5928 25.8402C98.7714 26.7083 97.7631 27.543 96.6746 28.2642C94.451 29.74 92.047 30.6215 90.2574 30.6215C90.224 30.6215 90.1906 30.6215 90.1572 30.6215C88.6013 30.5948 87.2257 30.361 86.0838 29.927C85.1155 29.5597 84.3008 29.0522 83.6598 28.4111C82.2708 27.0222 82.1172 25.4529 82.1172 24.8452C82.1106 23.8436 82.6982 22.488 83.6731 21.2126C84.8084 19.7368 86.4043 18.4547 88.1606 17.5999L88.1071 16.3178C86.8784 15.837 85.9302 14.9288 85.5162 13.8337C85.0421 12.5983 85.2558 11.216 86.0905 10.1342C86.9786 8.979 88.441 8.30455 90.017 8.30455ZM85.2958 25.1591C86.785 23.3895 89.0487 21.5197 91.3592 20.1708L90.8917 18.8754C87.9536 19.3628 85.4895 20.7251 84.4611 22.4346C83.9603 23.2693 83.8334 24.1307 84.0938 24.9321L85.2958 25.1591ZM90.6514 28.3444C92.1872 28.3377 94.5111 27.6499 96.4342 26.6349C97.5227 26.0606 98.4042 25.4195 99.0452 24.7451C99.8466 23.9037 100.247 23.0222 100.247 22.1274C100.247 21.9338 100.214 21.2526 99.7731 20.6316C99.4459 20.1708 98.8115 19.6233 97.6296 19.6233H97.6095C96.3207 19.63 94.4844 20.5381 92.1405 22.3411C90.0704 23.9304 88.234 25.7334 87.2925 26.8018L87.613 27.937C88.5212 28.2041 89.5428 28.3444 90.6514 28.3444ZM90.017 7.60339C88.3142 7.60339 86.6113 8.30455 85.5429 9.68016C84.5813 10.9222 84.2942 12.5716 84.8618 14.0607C85.376 15.4096 86.5178 16.4247 87.8534 16.9455C83.8134 18.9088 81.4027 22.5348 81.4161 24.8252C81.4227 27.1491 83.159 31.1757 90.1438 31.2959C90.1839 31.2959 90.2173 31.2959 90.2574 31.2959C94.3441 31.2959 100.361 27.3294 102.117 23.4095C102.698 23.7367 103.332 23.9504 103.993 24.0039C104.321 24.064 104.655 24.0907 104.982 24.0907C106.23 24.0907 107.473 23.6766 108.421 22.8419C109.583 21.8136 110.184 20.2643 110.077 18.7218C109.997 17.413 109.482 16.1175 108.568 15.1826C107.152 13.7469 105.523 13.1392 104.06 13.1392C103.86 13.1392 103.66 13.1526 103.459 13.1726C101.83 13.3596 100.394 14.3011 99.5661 15.7235C99.1988 16.3579 99.0185 17.0991 98.9851 17.8336C98.9584 17.8336 98.9384 17.827 98.9117 17.827C97.8833 16.832 96.3808 15.7168 94.1905 15.5966C95.0253 14.6951 95.5194 13.4931 95.466 12.2644C95.3925 10.7286 94.4844 9.34628 93.2089 8.51824C92.2674 7.91057 91.1388 7.60339 90.017 7.60339ZM84.7549 24.705C84.1005 22.7418 86.7649 20.2643 90.9986 19.5632C88.6948 20.9121 86.3442 22.8152 84.7549 24.705ZM90.6514 27.6432C89.5428 27.6432 88.6013 27.4963 87.8133 27.2559C89.9435 24.8519 95.0853 20.3244 97.6095 20.3178C97.6162 20.3178 97.6229 20.3178 97.6229 20.3178C99.2589 20.3178 99.5461 21.6199 99.5461 22.1207C99.5594 25.1524 93.3358 27.6365 90.6514 27.6432Z" fill="white"/>
<path d="M95.0782 44.0436C95.0915 49.5059 103.178 48.1704 108.547 48.7113C112.928 49.1587 118.25 50.5811 118.25 52.0101C118.257 55.2154 106.671 56.4975 104.28 56.5109C99.3586 56.5242 99.2517 55.0885 99.2517 54.3673C99.2517 53.6595 100.066 52.4241 101.909 52.4107C103.746 52.4107 107.545 54.7546 110.156 54.7413C112.781 54.7346 114.951 53.5727 114.944 52.4041C114.938 50.2605 106.263 49.2255 103.592 49.2255C100.781 49.2388 96.7276 50.3941 96.7409 54.6278C96.7476 56.818 100.347 61.9933 110.417 61.9599C120.353 61.9332 122.857 56.2972 122.851 53.379C122.837 46.3073 116.133 45.506 110.297 45.0118C105.916 44.6512 101.208 44.4309 101.222 43.4559C101.255 40.2306 122.931 42.6145 122.918 38.2139C122.904 35.5829 116.166 35.6163 112.36 35.6297C109.509 35.6497 95.0515 35.9903 95.0782 44.0436Z" fill="url(#paint2_linear_2048_37966)"/>
<path d="M113.382 36.3375C115.251 36.3375 117.629 36.3776 119.472 36.7181C120.413 36.8918 121.134 37.1188 121.609 37.4059C122.216 37.7732 122.216 38.1071 122.223 38.2273C122.223 38.3341 122.223 38.6547 121.515 39.0487C120.947 39.3625 120.079 39.6296 118.931 39.8567C116.68 40.2907 113.689 40.4777 110.797 40.6647C108.266 40.8249 105.876 40.9785 104.06 41.2857C102.423 41.5595 100.547 42.0536 100.527 43.456C100.514 44.5444 101.989 44.8583 103.372 45.0786C104.767 45.2923 106.604 45.4392 108.554 45.5861C109.108 45.6262 109.682 45.673 110.236 45.7197C113.281 45.9801 116.2 46.3007 118.457 47.3758C119.645 47.9434 120.513 48.6579 121.121 49.5594C121.809 50.5878 122.149 51.8432 122.149 53.3924C122.149 54.0268 121.996 56.2505 119.879 58.2604C118.937 59.1619 117.735 59.8698 116.32 60.3706C114.65 60.9649 112.66 61.2654 110.417 61.2721H110.323C107.405 61.2721 103.285 60.8047 100.2 58.5609C99.2916 57.8998 98.5504 57.1319 98.0562 56.3373C97.502 55.4558 97.4419 54.8548 97.4419 54.6411C97.4352 53.0118 98.1164 51.7764 99.4652 50.9617C100.527 50.3206 102.029 49.9534 103.592 49.94C104.781 49.94 107.592 50.1804 110.123 50.7146C111.458 50.9951 112.507 51.3156 113.248 51.6562C114.063 52.0368 114.243 52.3373 114.243 52.4241C114.243 52.5443 114.15 52.7046 113.989 52.8715C113.682 53.1854 113.161 53.4725 112.52 53.6862C111.799 53.9266 110.984 54.0535 110.15 54.0602H110.13C108.841 54.0602 107.118 53.3857 105.595 52.7914C104.14 52.2238 102.884 51.7296 101.909 51.7296C100.654 51.7363 99.8659 52.2238 99.4185 52.6245C98.8776 53.1186 98.5504 53.7797 98.5504 54.3807C98.5504 54.7213 98.5504 55.6161 99.5053 56.2905C100.393 56.9182 101.929 57.2187 104.193 57.2187H104.28C105.462 57.212 109.034 56.8848 112.313 56.1436C116.781 55.1353 118.951 53.7797 118.944 52.0101C118.944 50.9684 117.769 50.1136 115.245 49.3257C113.382 48.738 110.897 48.2506 108.614 48.0168C107.418 47.8966 106.083 47.8699 104.787 47.8365C102.484 47.7831 100.1 47.7297 98.3634 47.1888C96.5738 46.6279 95.7791 45.6596 95.7725 44.0436C95.7658 42.3875 96.4336 41.0253 97.8092 39.8767C98.9844 38.8951 100.674 38.1004 102.824 37.5061C106.57 36.4711 110.744 36.3509 112.36 36.3442H112.373C112.7 36.3375 113.034 36.3375 113.382 36.3375ZM113.382 35.6364C113.021 35.6364 112.68 35.6364 112.36 35.6364C109.509 35.643 95.0513 35.9903 95.0713 44.0369C95.0847 49.4993 103.171 48.1637 108.54 48.7046C112.921 49.152 118.243 50.5744 118.243 52.0034C118.25 55.2087 106.664 56.4908 104.273 56.5042C104.246 56.5042 104.22 56.5042 104.193 56.5042C99.3517 56.5042 99.2516 55.0752 99.2516 54.3607C99.2516 53.6528 100.066 52.4174 101.909 52.4041C103.739 52.4041 107.525 54.7346 110.13 54.7346C110.136 54.7346 110.15 54.7346 110.156 54.7346C112.781 54.7279 114.951 53.566 114.944 52.3974C114.938 50.2539 106.263 49.2188 103.592 49.2188C100.781 49.2322 96.7274 50.3874 96.7407 54.6211C96.7474 56.8047 100.32 61.9532 110.317 61.9532C110.35 61.9532 110.377 61.9532 110.41 61.9532C120.346 61.9265 122.851 56.2905 122.844 53.3724C122.831 46.3007 116.126 45.4993 110.29 45.0052C105.909 44.6446 101.201 44.4242 101.215 43.4493C101.248 40.2239 122.924 42.6079 122.911 38.2073C122.911 35.81 117.261 35.6364 113.382 35.6364Z" fill="white"/>
<path d="M127.178 61.6123C131.131 61.6057 129.088 47.0549 130.677 47.0549C131.846 47.0549 138.296 60.3503 141.882 60.3302C145.775 60.3235 148.053 54.6341 148.053 50.948C148.012 42.4807 142.397 32.1236 139.131 32.1369C138.316 32.1369 138.156 33.0117 138.156 33.9265C138.17 36.6911 141.989 46.307 141.996 49.9998C141.996 50.7611 141.936 52.13 141.341 52.2969C140.42 52.5574 132.433 37.9866 129.108 37.7395C125.682 37.4924 123.866 52.0499 123.886 55.6291C123.893 59.215 124.514 61.619 127.178 61.6123Z" fill="url(#paint3_linear_2048_37966)"/>
<path d="M139.131 32.1306V32.8317C139.699 32.8317 140.513 33.386 141.375 34.3476C142.323 35.4093 143.291 36.9051 144.173 38.6747C145.094 40.5244 145.876 42.5812 146.423 44.6179C147.031 46.8616 147.338 48.9918 147.351 50.9483C147.351 52.7914 146.764 54.9817 145.816 56.6711C145.301 57.5927 144.707 58.3139 144.059 58.8214C143.378 59.3556 142.644 59.6227 141.882 59.6227H141.876C141.622 59.6227 141.161 59.4958 140.427 58.8815C139.832 58.394 139.151 57.6594 138.397 56.7045C136.961 54.9016 135.518 52.6445 134.243 50.6479C131.979 47.102 131.425 46.3474 130.684 46.3474C130.423 46.3474 129.936 46.4542 129.662 47.1821C129.549 47.4759 129.468 47.8566 129.408 48.3908C129.302 49.3056 129.261 50.561 129.221 51.8899C129.155 53.9934 129.081 56.3706 128.727 58.207C128.547 59.1419 128.313 59.8497 128.026 60.3105C127.699 60.838 127.392 60.8981 127.191 60.8981H127.178C126.196 60.8981 125.582 60.5175 125.181 59.6561C124.787 58.808 124.6 57.5259 124.6 55.6161C124.594 54.0001 124.968 50.2939 125.602 46.895C126.664 41.2189 127.826 39.3625 128.42 38.7682C128.647 38.5412 128.854 38.4276 129.041 38.4276C129.054 38.4276 129.068 38.4276 129.074 38.4276C129.261 38.441 129.702 38.5745 130.53 39.3158C131.151 39.8767 131.892 40.6914 132.741 41.7398C134.323 43.7231 135.979 46.1671 137.442 48.3307C140.113 52.2839 140.647 52.9851 141.341 52.9851C141.415 52.9851 141.488 52.9784 141.555 52.9583C142.59 52.6712 142.724 51.2221 142.724 49.9868C142.717 47.8966 141.622 44.2239 140.56 40.6713C139.739 37.9268 138.891 35.0821 138.884 33.9068C138.884 33.4594 138.924 33.1389 139.011 32.9452C139.064 32.8184 139.084 32.8184 139.158 32.8184L139.131 32.1306ZM139.131 32.1306C138.31 32.1306 138.156 33.0053 138.156 33.9202C138.17 36.6848 141.989 46.3007 141.996 49.9934C141.996 50.7547 141.936 52.1236 141.341 52.2906C141.335 52.2906 141.321 52.2972 141.315 52.2972C140.28 52.2972 132.407 37.9802 129.108 37.7398C129.081 37.7398 129.048 37.7398 129.021 37.7398C125.649 37.7398 123.866 52.0836 123.886 55.6361C123.893 59.2154 124.514 61.6193 127.165 61.6193C127.171 61.6193 127.171 61.6193 127.178 61.6193C131.131 61.6127 129.088 47.0619 130.677 47.0619C131.846 47.0619 138.283 60.3372 141.869 60.3372C141.876 60.3372 141.876 60.3372 141.876 60.3372C145.769 60.3305 148.046 54.6411 148.046 50.955C148.012 42.481 142.403 32.1372 139.131 32.1306Z" fill="white"/>
<path d="M148.827 56.5443C148.834 58.7614 150.47 63.6761 154.997 63.5292C162.149 63.2955 168.566 58.3206 168.653 57.4458C168.8 56.1237 166.85 54.5878 165.468 54.5878C164.092 54.5878 156.353 56.304 155.839 55.8432C155.338 55.3824 156.286 50.9217 157.268 50.6012C158.243 50.2873 164.273 50.3875 165.261 50.3341C168.072 50.1738 167.538 46.3809 165.802 46.2406C164.934 46.1605 159.458 46.1538 159.144 45.6463C158.857 45.1455 159.244 42.6146 159.852 42.3609C161.094 41.8467 169.408 41.6197 170.036 41.4594C171.064 41.199 171.825 40.6514 172.079 39.7699C172.339 38.8952 169.194 35.2558 165.314 35.6899C158.657 36.411 150.009 36.3777 150.016 38.5479C150.016 40.5913 154.062 41.406 154.169 41.9669C154.276 42.5412 153.648 44.6447 153.408 45.2991C153.161 46.0203 150.283 46.234 150.089 48.2239C150.049 48.6914 150.81 49.3992 150.664 49.9668C150.203 51.6563 148.827 55.1086 148.827 56.5443Z" fill="url(#paint4_linear_2048_37966)"/>
<path d="M165.956 36.3642C167.705 36.3642 169.121 37.2591 169.809 37.7933C170.89 38.628 171.325 39.4093 171.385 39.6363C171.204 40.1839 170.69 40.5712 169.869 40.7849C169.642 40.825 168.426 40.8917 167.244 40.9585C163.431 41.1722 160.44 41.3592 159.585 41.7131C159.204 41.8734 158.917 42.2473 158.697 42.9017C158.443 43.643 158.136 45.3057 158.53 45.9935L158.543 46.0202C158.884 46.5611 159.699 46.7414 164.426 46.8883C165.027 46.9084 165.542 46.9217 165.735 46.9417H165.749C166.176 46.9751 166.55 47.6095 166.543 48.2973C166.537 48.7714 166.363 49.5728 165.228 49.6395C164.954 49.6529 164.213 49.6596 163.351 49.6596C160.233 49.6729 157.795 49.7063 157.061 49.94H157.054C156.593 50.0869 156.213 50.5344 155.866 51.3424C155.625 51.8899 155.405 52.6044 155.245 53.3457C155.118 53.94 155.031 54.5143 155.011 54.9684C154.977 55.6829 155.084 56.0969 155.371 56.3573L155.378 56.364C155.632 56.591 155.972 56.6177 156.306 56.6177C157.348 56.6177 159.605 56.2238 161.782 55.8431C163.358 55.5693 164.987 55.2822 165.475 55.2822C166.083 55.2822 166.951 55.743 167.498 56.3506C167.799 56.6845 167.966 57.0251 167.966 57.2922C167.719 57.6728 166.31 58.9483 163.839 60.2638C161.775 61.3656 158.563 62.6945 154.977 62.8147C154.917 62.8147 154.857 62.8147 154.804 62.8147C153.916 62.8147 153.108 62.5876 152.4 62.1402C151.779 61.7462 151.231 61.1786 150.771 60.4641C149.922 59.1352 149.535 57.5326 149.535 56.5309C149.535 55.6628 150.176 53.7397 150.69 52.1971C150.951 51.4225 151.191 50.6946 151.338 50.1404V50.1337C151.492 49.5527 151.205 49.0319 150.971 48.6112C150.904 48.4977 150.811 48.324 150.784 48.2439C150.831 47.89 151.011 47.5962 151.351 47.3224C151.719 47.0286 152.206 46.8082 152.64 46.6145C153.301 46.314 153.876 46.0603 154.063 45.5127C154.136 45.3057 155.018 42.7214 154.851 41.8266V41.8199C154.744 41.279 154.216 41.0386 153.335 40.638C152.353 40.1906 150.717 39.4493 150.717 38.5345C150.717 38.461 150.864 38.3075 151.191 38.1472C151.645 37.9202 152.353 37.7198 153.301 37.5462C155.178 37.199 157.709 37.012 160.38 36.8117C162.049 36.6848 163.779 36.5579 165.388 36.3843C165.582 36.3709 165.769 36.3642 165.956 36.3642ZM165.956 35.6631C165.742 35.6631 165.528 35.6764 165.315 35.6965C158.657 36.4177 150.009 36.3843 150.016 38.5545C150.016 40.5979 154.063 41.4126 154.169 41.9735C154.276 42.5478 153.649 44.6513 153.408 45.3057C153.161 46.0269 150.283 46.2406 150.089 48.2305C150.049 48.698 150.811 49.4058 150.664 49.9734C150.203 51.6562 148.834 55.1086 148.834 56.5443C148.841 58.7279 150.43 63.5359 154.804 63.5359C154.871 63.5359 154.937 63.5359 155.004 63.5359C162.156 63.3021 168.573 58.3272 168.66 57.4525C168.807 56.1303 166.857 54.5944 165.475 54.5944C164.266 54.5944 158.096 55.9299 156.306 55.9299C156.066 55.9299 155.906 55.9032 155.846 55.8498C155.345 55.389 156.293 50.9283 157.275 50.6078C158.25 50.294 164.28 50.3941 165.268 50.3407C168.079 50.1804 167.545 46.3875 165.809 46.2473C164.941 46.1671 159.465 46.1604 159.151 45.6529C158.864 45.1521 159.251 42.6213 159.859 42.3675C161.101 41.8533 169.415 41.6263 170.042 41.466C171.071 41.2056 171.832 40.658 172.086 39.7766C172.326 38.9485 169.535 35.6631 165.956 35.6631Z" fill="white"/>
<path d="M191.39 37.286C187.497 37.5197 180.005 45.7868 175.631 51.3693C175.364 50.795 175.197 50.2475 175.19 49.7333C175.184 47.3827 179.631 40.3177 180.452 38.5548C181.321 36.7051 180.346 34.2744 179.257 35.1492C177.174 36.8653 170.503 44.6182 170.529 51.8568C170.529 53.5129 170.97 55.5429 171.905 57.3926C170.409 62.2473 166.763 73.0251 166.877 79.5827C166.943 82.9549 170.369 86.2871 172.419 85.833C173.194 85.6594 173.367 81.232 174.396 78.2137C175.845 73.8932 178.149 65.9935 178.95 62.6213C187.998 63.2557 197.267 53.9803 197.247 46.4946C197.227 39.0089 192.799 37.1992 191.39 37.286ZM182.015 55.79C185.287 50.1206 190.055 42.5815 191.811 42.6148C193.04 42.6282 193.501 43.8569 193.514 45.7133C193.534 51.2625 186.816 55.8701 182.015 55.79Z" fill="url(#paint5_linear_2048_37966)"/>
<path d="M179.718 35.6766C179.805 35.7634 179.978 36.0306 180.052 36.5047C180.152 37.0923 180.065 37.7267 179.825 38.2476C179.618 38.6883 179.15 39.523 178.603 40.4979C176.439 44.351 174.489 47.9503 174.496 49.7265V49.7332C174.503 50.3209 174.67 50.9486 175.004 51.6564L176.192 51.79C178.79 48.4711 181.701 45.2057 184.185 42.8151C185.715 41.346 187.104 40.1841 188.306 39.3694C189.581 38.5013 190.663 38.0205 191.437 37.9738C191.451 37.9738 191.471 37.9738 191.491 37.9738C191.992 37.9738 193.247 38.3143 194.409 39.6031C195.037 40.3043 195.538 41.1724 195.898 42.1874C196.332 43.4161 196.553 44.8652 196.559 46.4812C196.566 49.6531 194.736 53.3859 191.671 56.4644C190.042 58.1004 188.139 59.456 186.169 60.4042C184.045 61.4192 181.922 61.9401 179.852 61.9401C179.571 61.9401 179.291 61.9334 179.01 61.9134L178.276 62.4476C177.474 65.8198 175.191 73.6528 173.741 77.9799C173.261 79.3889 172.974 81.0383 172.713 82.4941C172.586 83.1952 172.473 83.863 172.353 84.3772C172.246 84.8246 172.166 85.0516 172.119 85.1585C172.092 85.1585 172.065 85.1585 172.039 85.1585C171.244 85.1585 170.149 84.484 169.241 83.4423C168.219 82.2604 167.618 80.8447 167.591 79.5559C167.551 77.0785 168.072 73.6328 169.147 69.319C170.069 65.6262 171.211 61.9801 172.052 59.3157C172.246 58.6947 172.433 58.1004 172.593 57.5862L172.546 57.0654C171.718 55.4293 171.251 53.5262 171.251 51.8434C171.237 48.1105 173.127 44.3176 174.716 41.8001C176.626 38.7684 178.75 36.4846 179.718 35.69C179.711 35.6833 179.711 35.6833 179.718 35.6766ZM182.142 56.4911C183.604 56.4911 185.227 56.1038 186.843 55.3692C188.446 54.6347 189.935 53.6063 191.144 52.3976C192.092 51.4494 192.833 50.421 193.361 49.3392C193.935 48.1506 194.229 46.9286 194.222 45.7132C194.215 44.6181 194.062 43.7834 193.755 43.1624C193.354 42.361 192.686 41.927 191.831 41.9136C191.825 41.9136 191.818 41.9136 191.811 41.9136C191.043 41.9136 189.855 42.4812 186.903 46.6748C184.893 49.5329 182.81 53.0187 181.414 55.436L182.008 56.4844C182.055 56.4911 182.095 56.4911 182.142 56.4911ZM179.725 34.9554C179.578 34.9554 179.424 35.0155 179.264 35.1357C177.18 36.8519 170.509 44.6047 170.536 51.8434C170.536 53.4995 170.977 55.5295 171.912 57.3792C170.416 62.2339 166.77 73.0117 166.883 79.5692C166.944 82.7345 169.969 85.8596 172.032 85.8596C172.166 85.8596 172.299 85.8463 172.426 85.8196C173.201 85.646 173.374 81.2186 174.403 78.2003C175.852 73.8798 178.155 65.9801 178.957 62.6079C179.251 62.6279 179.551 62.6412 179.845 62.6412C188.599 62.6412 197.267 53.7265 197.254 46.4879C197.227 39.1691 192.987 37.286 191.484 37.286C191.451 37.286 191.417 37.286 191.391 37.286C187.498 37.5197 180.005 45.7867 175.631 51.3693C175.364 50.795 175.197 50.2474 175.191 49.7332C175.184 47.3827 179.631 40.3176 180.453 38.5547C181.2 36.9721 180.593 34.9554 179.725 34.9554ZM182.142 55.7899C182.102 55.7899 182.055 55.7899 182.015 55.7899C185.274 50.1272 190.035 42.6148 191.805 42.6148C191.811 42.6148 191.811 42.6148 191.818 42.6148C193.047 42.6281 193.508 43.8568 193.521 45.7132C193.534 51.209 186.93 55.7899 182.142 55.7899Z" fill="white"/>
<path d="M160.714 77.4122C156.72 76.9982 152.674 77.6058 151.044 77.8863C150.984 77.893 150.938 77.8997 150.897 77.913C150.884 76.5508 150.737 68.5442 150.724 68.1903C150.717 67.4557 150.103 66.8748 149.375 66.8748C148.64 66.8748 148.033 67.4958 148.046 68.237C148.106 71.4223 148.22 77.5791 148.22 78.0666C148.22 80.11 149.802 80.8379 151.498 80.5374C152.988 80.2702 156.727 79.696 160.44 80.0766C161.174 80.1567 161.836 79.6158 161.909 78.8813C161.989 78.1467 161.448 77.4856 160.714 77.4122Z" fill="white"/>
<path d="M144.106 76.5374C140.94 77.145 138.71 77.4188 137.501 77.3053C137.441 76.9781 137.288 75.696 137.221 75.1885C139.184 75.115 141.408 75.0015 143.251 74.6409C143.979 74.5007 144.386 73.913 144.359 73.3387C144.346 72.5975 143.665 72.0099 143.07 72.1034C141.842 72.317 139.091 72.5107 136.907 72.5908C136.787 71.489 136.76 71.1818 136.7 70.4873C137.067 70.4807 137.475 70.4873 137.662 70.494C138.743 70.5007 143.825 70.3204 144.333 70.1401C145.034 69.893 145.401 69.1318 145.161 68.4306C144.94 67.8096 144.313 67.4423 143.671 67.5558C143.184 67.6026 139.358 67.8363 137.715 67.8029C136.099 67.7762 135.151 67.7896 134.49 68.4373C134.256 68.6643 133.969 69.085 133.969 69.7127C133.969 69.7528 134.129 72.2369 134.409 74.6676C134.409 74.6943 134.409 74.7077 134.409 74.7277C134.409 74.8479 134.436 74.9614 134.456 75.0683C134.69 76.9914 135.01 78.7944 135.398 79.2418C135.839 79.7493 136.894 80.0031 138.283 79.8695C141.167 79.5891 144.059 79.8695 145.401 78.968C146.009 78.5607 146.176 77.6459 145.815 76.9981C145.454 76.3704 144.833 76.3971 144.106 76.5374Z" fill="white"/>
<path d="M131.391 67.7896C131.318 67.055 130.65 66.5208 129.909 66.5943C129.174 66.6744 128.64 67.3355 128.727 68.0767C128.961 70.2537 129.355 73.9999 129.568 76.3638C129.141 75.9765 128.72 75.5825 128.433 75.302L128.24 75.115C127.705 74.6075 126.804 73.6459 125.916 72.7111C122.483 69.0717 122.129 68.6911 121.121 68.9916C119.906 69.3588 119.953 70.227 120.233 75.0216C120.373 77.332 120.547 79.6359 120.547 79.6359C120.607 80.337 121.195 80.8712 121.889 80.8712C121.922 80.8712 121.956 80.8712 121.989 80.8712C122.73 80.8111 123.291 80.1701 123.231 79.4355C123.071 77.3254 122.917 75.0616 122.837 73.3454C123.231 73.7595 123.632 74.1868 123.972 74.5474C124.921 75.5424 125.809 76.4907 126.39 77.0516L126.583 77.2385C128.814 79.3687 130.129 80.5507 131.438 79.9631C131.752 79.8161 132.46 79.3687 132.413 78.1734C132.34 76.5708 131.431 68.1502 131.391 67.7896Z" fill="white"/>
<path d="M116.915 65.7328C116.173 65.6527 115.506 66.1669 115.419 66.9014C115.345 67.5225 115.025 74.1534 114.992 76.3704C114.19 75.3487 113.162 73.9865 112.374 72.9314C111.512 71.7762 110.698 70.681 110.05 69.8663C109.042 68.5775 108.381 67.7228 107.312 68.1769C106.337 68.5709 106.224 68.9715 106.25 74.8813C106.277 80.2902 106.384 80.6108 106.411 80.7109C106.604 81.2719 107.139 81.6659 107.9 81.5924C108.668 81.5123 109.082 80.751 109.022 80.1367C108.982 79.4555 108.915 75.6359 108.942 72.8246C109.376 73.4055 109.823 74.0065 110.217 74.5407C113.456 78.8812 114.23 79.8228 114.865 80.1367C115.439 80.4238 116.047 80.4038 116.554 80.0966C117.643 79.4355 117.656 77.539 117.676 75.2419C117.709 72.9848 118.017 67.6894 118.077 67.2353C118.177 66.4941 117.649 65.8196 116.915 65.7328Z" fill="white"/>
<path d="M88.8476 71.0284C88.7875 71.035 88.714 71.0417 88.6339 71.0684L88.4736 67.4291C88.4402 66.6879 87.8125 66.1203 87.078 66.147C86.3434 66.1804 85.7691 66.8081 85.8025 67.5426L85.9895 71.7696C84.8209 72.0968 83.4653 72.4975 82.2032 72.8647V68.7312C82.2032 67.99 81.6089 67.389 80.861 67.389C80.1198 67.389 79.5188 67.9833 79.5188 68.7312V73.6661C79.0113 73.8197 78.6039 73.9465 78.3569 74.02C77.649 74.2404 77.2484 74.9816 77.4687 75.6961C77.6424 76.2771 78.1699 76.6443 78.7508 76.6443C78.871 76.6443 79.0046 76.631 79.1382 76.5842C79.2584 76.5508 79.3919 76.5108 79.5255 76.4707V78.9615C79.5255 79.696 80.1198 80.3037 80.8677 80.3037C81.6089 80.3037 82.2099 79.696 82.2099 78.9615V75.6694C83.5655 75.262 84.9411 74.8614 86.1097 74.5275L86.3367 79.6293C86.3701 80.3505 86.9644 80.9047 87.679 80.9047C87.7057 80.9047 87.719 80.9047 87.739 80.9047C88.4803 80.8713 89.0546 80.2503 89.0212 79.5091L88.7674 73.7996C89.9627 73.6126 90.4435 73.025 90.3834 72.1569C90.3233 71.409 89.5754 70.9148 88.8476 71.0284Z" fill="white"/>
<path d="M75.4391 76.2503C73.8698 76.7846 66.1771 77.2119 64.2339 77.1184C63.319 77.0717 62.2372 76.5575 62.0836 76.0967C62.0035 75.8497 62.2172 75.1352 63.546 74.02C67.6061 70.621 69.7897 70.0467 71.2454 69.9332C71.566 69.9065 71.7196 69.9599 71.7797 69.9933C71.9867 70.6277 72.6544 71.0217 73.3356 70.8815C74.0568 70.7279 74.5175 70.0134 74.3639 69.2855C74.2037 68.5109 73.2955 67.0818 71.0384 67.2555C69.1887 67.4024 66.4709 68.0701 61.8366 71.9566C59.7865 73.6727 59.0119 75.3488 59.5394 76.9448C60.1938 78.9014 62.7113 79.8029 64.4742 79.8029C67.152 79.8029 74.3573 79.4423 76.3005 78.7812C77.0016 78.5475 77.3823 77.7862 77.1419 77.0784C76.9015 76.3839 76.1402 76.0099 75.4391 76.2503Z" fill="white"/>
<path d="M102.557 73.7395C102.731 73.4456 102.784 73.0917 102.697 72.7311C102.55 72.1502 102.043 71.7695 101.482 71.7228C98.3835 66.1135 97.7091 66.1336 96.9946 66.1603C96.0931 66.187 95.3051 66.227 93.1215 74.5208C92.4604 74.7745 92.0264 74.9481 91.9596 74.9682C91.2651 75.2353 90.9312 76.0166 91.1983 76.6977C91.392 77.1985 91.8527 77.5057 92.3602 77.5391C92.2066 78.1668 92.0397 78.8212 91.8794 79.5224C91.7058 80.2436 92.2 81.0516 93.0347 81.1517C93.7559 81.2385 94.3502 80.7577 94.4971 80.1367C94.7776 78.9614 95.0781 77.7261 95.3986 76.5241C96.8276 75.9832 98.6239 75.3288 100.1 74.848C100.948 76.4439 101.843 78.1668 102.657 79.7895C102.991 80.4506 103.792 80.7244 104.454 80.3838C105.115 80.0566 105.388 79.2486 105.061 78.5875C104.1 76.7111 103.278 75.1084 102.557 73.7395ZM96.24 73.3588C96.6273 71.9966 96.9812 70.7946 97.2951 69.9131C97.7091 70.5809 98.2166 71.469 98.7842 72.4707C97.9628 72.7378 97.0881 73.045 96.24 73.3588Z" fill="white"/>
<defs>
<linearGradient id="paint0_linear_2048_37966" x1="44.5175" y1="6.13237" x2="44.5175" y2="68.576" gradientUnits="userSpaceOnUse">
<stop stop-color="white"/>
<stop offset="0.2293" stop-color="#FDFFFF"/>
<stop offset="0.3119" stop-color="#F6FFFD"/>
<stop offset="0.3708" stop-color="#EBFFFA"/>
<stop offset="0.4185" stop-color="#DAFFF6"/>
<stop offset="0.4593" stop-color="#C4FFF1"/>
<stop offset="0.4954" stop-color="#A8FFEA"/>
<stop offset="0.5281" stop-color="#88FFE2"/>
<stop offset="0.5571" stop-color="#64FFD9"/>
<stop offset="0.5801" stop-color="#41FFD1"/>
</linearGradient>
<linearGradient id="paint1_linear_2048_37966" x1="90.2568" y1="35.5418" x2="90.2568" y2="61.6538" gradientUnits="userSpaceOnUse">
<stop stop-color="white"/>
<stop offset="0.0757679" stop-color="#FBFFFE"/>
<stop offset="0.1528" stop-color="#EFFFFB"/>
<stop offset="0.2305" stop-color="#DAFFF6"/>
<stop offset="0.3087" stop-color="#BEFFEF"/>
<stop offset="0.3872" stop-color="#99FFE6"/>
<stop offset="0.4649" stop-color="#6DFFDC"/>
<stop offset="0.5304" stop-color="#41FFD1"/>
</linearGradient>
<linearGradient id="paint2_linear_2048_37966" x1="109" y1="35.6369" x2="109" y2="61.9642" gradientUnits="userSpaceOnUse">
<stop stop-color="white"/>
<stop offset="0.0563322" stop-color="#FBFFFE"/>
<stop offset="0.1074" stop-color="#F0FFFB"/>
<stop offset="0.1565" stop-color="#DEFFF7"/>
<stop offset="0.2043" stop-color="#C4FFF1"/>
<stop offset="0.2513" stop-color="#A2FFE9"/>
<stop offset="0.2975" stop-color="#79FFDF"/>
<stop offset="0.3424" stop-color="#4AFFD3"/>
<stop offset="0.3498" stop-color="#41FFD1"/>
</linearGradient>
<linearGradient id="paint3_linear_2048_37966" x1="135.97" y1="32.1334" x2="135.97" y2="61.6124" gradientUnits="userSpaceOnUse">
<stop stop-color="white"/>
<stop offset="0.155" stop-color="#FCFFFE"/>
<stop offset="0.2577" stop-color="#F3FFFC"/>
<stop offset="0.3453" stop-color="#E4FFF9"/>
<stop offset="0.4243" stop-color="#CFFFF3"/>
<stop offset="0.4977" stop-color="#B4FFED"/>
<stop offset="0.5668" stop-color="#92FFE5"/>
<stop offset="0.6314" stop-color="#6AFFDB"/>
<stop offset="0.6882" stop-color="#41FFD1"/>
</linearGradient>
<linearGradient id="paint4_linear_2048_37966" x1="160.464" y1="35.6614" x2="160.464" y2="63.5366" gradientUnits="userSpaceOnUse">
<stop stop-color="white"/>
<stop offset="0.0612689" stop-color="#FBFFFE"/>
<stop offset="0.1269" stop-color="#EEFFFB"/>
<stop offset="0.1946" stop-color="#D8FFF6"/>
<stop offset="0.2637" stop-color="#BAFFEE"/>
<stop offset="0.3338" stop-color="#94FFE5"/>
<stop offset="0.4039" stop-color="#65FFDA"/>
<stop offset="0.4516" stop-color="#41FFD1"/>
</linearGradient>
<linearGradient id="paint5_linear_2048_37966" x1="182.067" y1="34.958" x2="182.067" y2="85.8615" gradientUnits="userSpaceOnUse">
<stop stop-color="white"/>
<stop offset="0.0831551" stop-color="#FCFFFE"/>
<stop offset="0.1382" stop-color="#F3FFFC"/>
<stop offset="0.1851" stop-color="#E4FFF9"/>
<stop offset="0.2274" stop-color="#CFFFF3"/>
<stop offset="0.2666" stop-color="#B4FFED"/>
<stop offset="0.3036" stop-color="#92FFE5"/>
<stop offset="0.3381" stop-color="#6AFFDB"/>
<stop offset="0.3686" stop-color="#41FFD1"/>
</linearGradient>
</defs>
</svg>
