<svg width="201" height="91" viewBox="0 0 201 91" fill="none" xmlns="http://www.w3.org/2000/svg">
<path fill-rule="evenodd" clip-rule="evenodd" d="M106.774 48.1348C106.517 48.1351 106.261 48.1469 106.004 48.1663C104.93 48.2465 103.898 48.4729 102.893 48.8433C102.36 49.0392 101.874 49.3271 101.369 49.577C101.348 49.602 101.317 49.624 101.309 49.6526C100.97 50.7827 100.521 51.8837 100.324 53.0535C100.248 53.5054 100.165 53.9555 100.072 54.4045C100.032 54.5957 99.9628 54.7807 99.8951 54.965C99.8374 55.1223 99.7081 55.1823 99.5417 55.1854C99.3882 55.1886 99.2455 55.1543 99.1031 55.1036C98.8016 54.9966 98.5293 54.8363 98.2891 54.6312C97.6827 54.1136 97.2563 53.4825 97.0522 52.7103C96.9925 52.4847 96.9754 52.2568 96.9702 52.027C96.9495 51.1381 97.0739 50.2635 97.2258 49.3912C97.2596 49.1969 97.2965 49.0061 97.2952 48.8087C97.1953 48.8053 97.0953 48.7992 96.9954 48.7992C93.0429 48.7988 89.0877 48.7992 85.1349 48.7992C85.0516 48.7992 84.969 48.7956 84.8856 48.7992C84.6858 48.8075 84.6486 48.8414 84.6395 49.0259C84.6336 49.1408 84.6364 49.2544 84.6364 49.3692V76.4571H98.2859C98.286 72.4243 98.2903 68.0953 98.2859 64.5947C98.2852 64.15 98.3197 63.7097 98.3869 63.2722C98.4468 62.8819 98.5581 62.5029 98.7561 62.1542C98.9863 61.749 99.323 61.4688 99.7689 61.3229C100.122 61.2076 100.489 61.1772 100.857 61.219C101.677 61.3117 102.249 61.7317 102.545 62.4943C102.671 62.8169 102.745 63.1515 102.785 63.4957C102.854 64.0832 102.874 64.6746 102.874 65.2655L102.877 76.4918H116.526L116.523 59.5783C116.523 58.8405 116.501 58.1033 116.419 57.3677C116.286 56.1711 116.029 55.0062 115.592 53.8818C115.111 52.6416 114.432 51.5211 113.469 50.5816C111.968 49.1178 110.1 48.4397 108.045 48.2072C107.623 48.1593 107.2 48.1342 106.774 48.1348Z" fill="#E73636"/>
<path d="M43.498 75.8002C47.5169 73.0664 50.4775 69.6912 50.837 64.74V42.2278C51.972 40.9785 52.7668 39.949 53.5127 38.9509V64.8993C53.5127 64.8993 53.3253 68.9838 50.208 72.0949C47.0573 75.2393 43.498 75.8002 43.498 75.8002Z" fill="url(#paint0_linear_2048_37967)"/>
<path d="M28.7891 60.5973L32.828 60.3008C33.4889 61.6252 34.3064 62.2069 35.1507 62.6619C34.7553 62.8941 34.5145 63.2397 32.4578 63.2397C30.0893 63.1847 29.4046 61.8095 28.7891 60.5973Z" fill="url(#paint1_linear_2048_37967)"/>
<path fill-rule="evenodd" clip-rule="evenodd" d="M50.8293 42.2578C50.8342 42.4215 50.8439 42.5592 50.8441 42.723C50.8448 49.991 50.8546 57.2593 50.8389 64.5272C50.8338 66.9321 50.3683 68.1307 49.1438 70.2173C47.6872 72.6994 46.2068 74.2265 43.7915 75.6861C42.4445 76.232 40.6269 76.6749 39.177 76.8089C35.1548 77.1806 29.964 76.9037 26.3451 75.0919C25.0015 74.4191 23.7671 73.5794 22.6724 72.5472C22.2192 72.1198 22.2561 72.2398 22.5303 71.7448C24.469 68.2431 26.5858 64.535 28.5276 61.0349C28.599 60.9065 28.7132 60.719 28.7866 60.5913C28.8637 60.727 28.9397 60.8786 29.001 61.0007C29.2232 61.4448 29.4947 61.8516 29.8479 62.2025C30.3905 62.7417 31.0469 63.0487 31.7981 63.1762C32.5239 63.2993 33.2383 63.2377 33.9476 63.0699C34.2041 63.0094 34.5549 62.9701 34.7913 62.8533C35.7837 62.3625 36.1755 61.9364 36.22 60.8414C36.2268 60.6776 36.2216 60.0791 36.2216 59.9151C36.2218 55.0589 36.2218 50.2026 36.2221 45.3459C36.6654 45.3348 38.8448 45.3893 39.2862 45.4179C40.3688 45.4878 41.4519 45.4295 42.5282 45.3198C43.7185 45.1981 44.896 44.9883 46.0493 44.657C47.6197 44.2063 47.9929 44.197 49.3687 43.3116C49.8792 42.9832 50.3427 42.6183 50.8293 42.2578Z" fill="#E73636"/>
<path fill-rule="evenodd" clip-rule="evenodd" d="M70.0914 48.6557L70.0946 61.9352C70.0946 62.0674 70.1042 62.2004 70.0946 62.3319C70.0566 62.8576 70.0288 63.3852 69.8264 63.8844C69.5928 64.4597 69.1801 64.8366 68.5643 64.9929C68.0674 65.1186 67.5685 65.1234 67.0687 65.018C66.3683 64.8712 65.9056 64.4564 65.6741 63.7931C65.576 63.5115 65.5035 63.2248 65.4879 62.9271C65.458 62.3514 65.4192 61.7742 65.4185 61.1983L65.4154 48.6526H51.7627V64.0828C51.7632 64.974 51.8133 65.8613 51.9741 66.7406C52.3694 68.9052 53.2977 70.811 54.8296 72.4246C56.1467 73.8118 57.7366 74.8112 59.5025 75.5484C61.722 76.4757 64.0564 76.9184 66.4534 77.041C68.1841 77.1297 69.9095 77.0504 71.6249 76.7702C73.611 76.446 75.5163 75.8824 77.2979 74.9532C78.8427 74.1476 80.1993 73.108 81.2893 71.7538C82.9219 69.7251 83.7075 67.3956 83.7409 64.8291L83.7441 48.6557H70.0914Z" fill="#E73636"/>
<path fill-rule="evenodd" clip-rule="evenodd" d="M65.4141 48.6565L65.4172 61.1976C65.4179 61.7735 65.4567 62.3507 65.4866 62.9264C65.5022 63.2241 65.5747 63.5108 65.6728 63.7924C65.9043 64.4557 66.367 64.8705 67.0674 65.0173C67.4974 65.1079 68.9535 65.3065 69.3988 64.6715C69.1069 64.6314 68.4751 64.5731 68.0796 64.153C67.7901 63.8714 67.5436 63.5674 67.5281 63.2696C67.4981 62.6939 67.4593 62.1168 67.4587 61.5408L67.4555 48.9951L65.4141 48.6565Z" fill="#800000"/>
<path fill-rule="evenodd" clip-rule="evenodd" d="M83.7436 48.6504L83.7405 64.8278C83.7071 67.3944 82.9214 69.7238 81.2888 71.7525C80.1989 73.1068 78.8422 74.1463 77.2975 74.952C75.5158 75.8811 73.6106 76.4447 71.6244 76.7689C69.909 77.0492 68.1837 77.1284 66.453 77.0397C64.2375 76.9264 62.0741 76.5388 60.0068 75.7486C60.1158 75.7968 60.2278 75.8443 60.3381 75.8904C62.5576 76.8177 64.0402 76.9163 66.4372 77.0389C68.1679 77.1276 69.922 77.047 71.6373 76.7668C73.6235 76.4426 75.4826 75.8984 77.2643 74.9692C78.809 74.1635 80.3912 73.259 81.4812 71.9048C83.1137 69.876 84.6043 67.2166 84.6377 64.6501L84.6425 48.9977L83.7436 48.6504Z" fill="#800000"/>
<path fill-rule="evenodd" clip-rule="evenodd" d="M183.794 48.211C182.675 48.2085 181.592 48.2704 180.484 48.4598C179.931 48.5542 179.419 48.6943 178.919 48.8755V48.8817L178.932 52.2418C178.962 52.2465 178.992 52.2521 179.023 52.2575C179.242 51.9736 179.454 51.6833 179.679 51.4041C179.694 51.3866 179.709 51.3711 179.724 51.3537C181.063 49.7164 182.781 48.7362 184.879 48.3779C185.987 48.1885 187.096 48.2148 188.214 48.2173C188.293 48.2175 188.372 48.2212 188.451 48.2267C188.441 48.2247 188.43 48.2212 188.419 48.2204C188.337 48.2144 188.255 48.2112 188.173 48.211H183.794Z" fill="url(#paint2_linear_2048_37967)"/>
<path fill-rule="evenodd" clip-rule="evenodd" d="M159.977 50.7959V75.2473L165.76 76.4586V48.8008L159.977 50.7959Z" fill="url(#paint3_linear_2048_37967)"/>
<path fill-rule="evenodd" clip-rule="evenodd" d="M188.213 48.2174C187.095 48.215 185.986 48.1886 184.878 48.378C182.758 48.7401 181.024 49.7354 179.678 51.4042C179.453 51.6835 179.241 51.9737 179.022 52.2576C178.991 52.2523 178.961 52.2466 178.931 52.2419L178.918 48.8H165.761V76.4579H179.243V65.874C179.242 65.2798 179.298 64.6941 179.458 64.1231C179.97 62.2959 181.122 61.0688 182.938 60.4797C183.976 60.1424 185.041 60.1414 186.109 60.2624C186.863 60.3482 187.588 60.567 188.28 60.8859C188.374 60.9295 188.476 61.0216 188.62 60.93V60.6025C188.62 56.5987 188.617 52.5931 188.617 48.589C188.617 48.4905 188.621 48.479 188.614 48.3812C188.608 48.2887 188.554 48.2338 188.46 48.2269C188.378 48.2209 188.295 48.2177 188.213 48.2174Z" fill="#E73636"/>
<path fill-rule="evenodd" clip-rule="evenodd" d="M146.896 48.1387C145.815 48.1409 144.734 48.2178 143.658 48.3717C142.071 48.5991 140.518 48.9381 139.02 49.4896C136.725 50.3351 134.692 51.5603 133.022 53.3031C131.751 54.6295 130.814 56.1443 130.201 57.8408C129.67 59.3087 129.408 60.8218 129.362 62.3754C129.325 63.6116 129.402 64.8344 129.687 66.0409C130.289 68.5963 131.607 70.7622 133.612 72.5499C135.023 73.8075 136.635 74.7651 138.408 75.4817C141.122 76.578 143.963 77.0679 147.413 77.0719C147.572 77.0739 147.756 77.0671 147.953 77.0593C145.002 76.9838 142.511 76.4906 140.125 75.4817C138.43 74.7651 136.891 73.8075 135.543 72.5499C133.627 70.7622 132.37 68.5963 131.795 66.0409C131.523 64.8344 131.444 63.6116 131.479 62.3754C131.523 60.8218 131.776 59.3087 132.284 57.8408C132.87 56.1443 133.767 54.6295 134.982 53.3031C136.577 51.5603 138.518 50.3351 140.711 49.4896C142.143 48.9381 143.627 48.5991 145.145 48.3717C145.977 48.2471 146.811 48.1756 147.647 48.1513C147.396 48.1436 147.146 48.1382 146.896 48.1387Z" fill="#800000"/>
<path fill-rule="evenodd" clip-rule="evenodd" d="M148.243 58.707C147.919 58.7141 147.613 58.7558 147.325 58.8267C147.8 59.1024 148.202 59.4882 148.524 59.995C149.427 61.4188 149.536 62.9157 148.625 64.3753C148.081 65.2455 147.299 65.782 146.334 66.0065C146.968 66.3896 147.662 66.5613 148.41 66.526C149.719 66.4642 150.762 65.897 151.43 64.7783C152.301 63.3188 152.195 61.8219 151.332 60.3981C150.653 59.2774 149.603 58.7385 148.243 58.707Z" fill="url(#paint4_linear_2048_37967)"/>
<path fill-rule="evenodd" clip-rule="evenodd" d="M148.729 77.0717C145.433 77.0677 142.719 76.579 140.126 75.4826C138.431 74.766 136.889 73.8086 135.542 72.551C133.626 70.7633 132.369 68.5965 131.794 66.0411C131.522 64.8346 131.446 63.6121 131.481 62.3759C131.524 60.8223 131.777 59.3094 132.284 57.8415C132.87 56.145 133.766 54.6296 134.98 53.3032C136.576 51.5604 138.518 50.3365 140.711 49.491C142.143 48.9395 143.626 48.5988 145.143 48.3714C146.171 48.2175 147.202 48.1429 148.235 48.1407C149.268 48.1387 150.299 48.2126 151.327 48.3658C152.549 48.5483 153.753 48.7934 154.927 49.1767C157.061 49.8727 159.003 50.9112 160.669 52.4309C162.842 54.4122 164.175 56.8611 164.758 59.732C165.047 61.1574 165.131 62.5984 165.025 64.0412C164.795 67.1828 163.608 69.9116 161.377 72.1677C159.815 73.7472 157.964 74.8762 155.906 75.685C154.602 76.1977 153.256 76.5526 151.873 76.7785C150.669 76.9741 149.461 77.0813 148.729 77.0717ZM148.242 58.7087C146.792 58.7404 145.69 59.4097 144.997 60.7372C144.616 61.4683 144.464 62.2564 144.538 63.0695C144.646 64.2764 145.182 65.2559 146.216 65.9321C146.882 66.3681 147.616 66.5627 148.411 66.5251C149.72 66.4633 150.762 65.8963 151.43 64.7777C152.301 63.3181 152.197 61.8237 151.333 60.3999C150.654 59.2792 149.602 58.7402 148.242 58.7087Z" fill="#E73636"/>
<path d="M117.335 40.5698C117.436 37.5768 119.661 34.3656 124.217 34.7782C127.446 35.0705 129.757 37.9072 129.532 41.2158C129.352 43.877 126.841 46.6833 123.633 46.6492C119.59 46.6062 117.229 43.7398 117.335 40.5698Z" fill="url(#paint5_radial_2048_37967)"/>
<path d="M114.458 32.7803C114.525 30.8167 116.003 28.71 119.029 28.9806C121.173 29.1724 122.708 31.0335 122.559 33.2041C122.439 34.95 120.771 36.7912 118.641 36.7688C115.956 36.7406 114.388 34.8601 114.458 32.7803Z" fill="#282828"/>
<path d="M126.809 34.8819C126.876 32.9183 128.354 30.8115 131.379 31.0822C133.524 31.274 135.059 33.135 134.91 35.3057C134.79 37.0516 133.122 38.8927 130.991 38.8703C128.306 38.8421 126.738 36.9616 126.809 34.8819Z" fill="#282828"/>
<path fill-rule="evenodd" clip-rule="evenodd" d="M116.42 49.0791V56.0321H117.329V48.7012L116.42 49.0791Z" fill="#0F1110"/>
<path fill-rule="evenodd" clip-rule="evenodd" d="M116.42 56.0312C116.42 62.8188 116.526 68.5543 116.527 75.4544L117.329 76.4936V56.0312H116.42Z" fill="#56100C"/>
<path fill-rule="evenodd" clip-rule="evenodd" d="M117.328 56.0312V76.4936H130.858V56.0312H117.328Z" fill="#E73636"/>
<path fill-rule="evenodd" clip-rule="evenodd" d="M125.85 59.3698C125.79 58.7372 126.269 58.1222 127.106 58.0814C127.787 58.0479 128.4 58.6733 128.415 59.3591C128.43 60.0491 127.785 60.7123 127.092 60.6723C126.287 60.6259 125.786 60.025 125.85 59.3698Z" fill="#FDE84D"/>
<path fill-rule="evenodd" clip-rule="evenodd" d="M122.536 59.4006C122.594 60.0402 122.064 60.6569 121.262 60.6703C120.562 60.6817 119.972 60.0616 119.971 59.3776C119.97 58.676 120.617 58.03 121.309 58.0831C122.145 58.1473 122.6 58.7598 122.536 59.4006Z" fill="#FDE84D"/>
<path fill-rule="evenodd" clip-rule="evenodd" d="M117.327 48.7012H130.858V56.0316H117.327V48.7012Z" fill="#2A2A2A"/>
<path fill-rule="evenodd" clip-rule="evenodd" d="M101.971 50.2254C101.95 50.2519 101.917 50.2748 101.908 50.3048C101.555 51.4993 101.089 52.6618 100.884 53.8986C100.804 54.3761 100.718 54.8533 100.621 55.3279C100.579 55.5298 100.507 55.7265 100.437 55.9216C100.377 56.0878 100.241 56.1511 100.068 56.1541C99.9076 56.1574 99.7583 56.1208 99.61 56.0675C99.2958 55.9544 99.0123 55.7844 98.7622 55.5676C98.1305 55.0207 97.6862 54.3527 97.4733 53.5364C97.411 53.2979 97.3935 53.0594 97.3881 52.8165C97.3666 51.8769 97.496 50.9515 97.6543 50.0292C97.6893 49.8238 97.7269 49.6205 97.7255 49.4117C97.8729 49.0932 97.892 48.7435 97.9692 48.4079C98.4308 46.398 99.026 44.4256 99.6461 42.4601C99.6514 42.4438 99.6592 42.428 99.6641 42.4115C99.7545 42.113 99.8749 41.8197 99.9265 41.5149C99.9809 41.1923 99.7446 40.9312 99.6426 40.6421C99.1767 39.3224 99.1666 37.9963 99.5288 36.6558C99.8711 35.389 100.445 34.2282 101.144 33.1243C101.767 32.1394 102.478 31.2227 103.288 30.3833C103.443 30.2213 103.611 30.0676 103.789 29.9299C104 29.7665 104.219 29.8071 104.372 30.0256C104.43 30.1091 104.474 30.2071 104.507 30.3044C104.67 30.7868 104.64 31.2626 104.417 31.7184C104.257 32.0447 104.079 32.3628 103.901 32.6804C103.319 33.724 102.721 34.7604 102.222 35.8483C102.042 36.2414 101.877 36.6419 101.768 37.0631C101.666 37.4527 101.711 37.8159 101.907 38.1633C102.079 38.1503 102.131 38.0043 102.215 37.9007C103.359 36.4823 104.555 35.1092 105.857 33.8322C106.651 33.0541 107.475 32.3103 108.411 31.7009C108.745 31.4832 109.092 31.2905 109.471 31.1547C109.955 30.9814 110.423 31.0022 110.887 31.2149C111.423 31.4603 111.839 31.8478 112.18 32.3174C112.616 32.9186 112.852 33.6036 112.986 34.3262C113.209 35.5255 113.161 36.7054 112.722 37.8556C112.529 38.359 112.294 38.8417 112.003 39.2948C110.613 41.4523 108.736 43.0013 106.285 43.8214C105.539 44.071 104.766 44.1744 103.978 44.1595C103.651 44.1534 103.65 44.1522 103.565 44.4712C103.431 44.9732 103.305 45.4776 103.163 45.977C102.799 47.2599 102.428 48.5409 102.056 49.8212C102.018 49.9551 101.969 50.0842 101.971 50.2254ZM105.299 40.5243C105.579 40.5763 105.803 40.551 106.024 40.5071C107.633 40.1885 108.967 39.3956 110.037 38.1609C110.474 37.6575 110.802 37.0896 110.994 36.4471C111.176 35.8364 111.214 35.2218 111.073 34.5977C111.03 34.4088 110.964 34.2315 110.841 34.0808C110.601 33.7857 110.286 33.725 109.969 33.9297C109.809 34.0322 109.663 34.1595 109.526 34.2907C109.01 34.7861 108.586 35.3585 108.174 35.9392C107.18 37.3415 106.281 38.8051 105.42 40.2915C105.386 40.3493 105.358 40.41 105.299 40.5243Z" fill="#090909"/>
<path fill-rule="evenodd" clip-rule="evenodd" d="M70.1163 30.218C71.0798 30.2083 71.7216 30.3691 72.6206 30.4791C73.0176 30.528 73.4979 30.8401 73.8831 30.9473C74.1348 31.0172 74.3721 31.1241 74.5924 31.267C75.1043 31.5992 75.1415 32.2498 74.6141 32.6002C74.4097 32.7362 74.1916 32.837 73.9611 32.9178C73.3342 33.1376 72.5941 33.2058 71.9395 33.283C71.0087 33.3931 70.1612 33.4979 69.2252 33.5572C68.0304 33.633 67.32 33.6005 66.1321 33.766C65.6842 33.8283 64.8053 33.8875 64.3792 34.0455C64.2145 34.1064 63.4506 34.2314 63.3299 34.3641C63.1818 34.5271 63.2315 34.6267 63.421 34.7211C63.5594 34.7901 64.456 34.763 64.6067 34.7949C64.9462 34.8666 65.6704 34.9389 66.0149 34.9738C66.7568 34.9901 67.1175 35.1114 67.9655 35.1784C68.9178 35.254 70.1656 35.4863 71.1068 35.6549C71.8779 35.7931 72.317 36.0606 73.0188 36.4257C73.6836 36.9485 74.4961 38.0482 74.5628 39.4239C74.6354 40.9264 74.2853 41.8153 73.1128 42.6863C72.3453 43.2561 71.0266 43.5758 70.0951 43.74C68.2208 44.0701 67.1433 43.7694 65.2801 43.4783C64.3382 43.194 63.4478 42.9864 62.7208 42.313C62.452 42.0641 61.9122 41.6073 61.708 41.3036C61.054 40.3296 60.9075 39.2619 61.7659 38.5823C62.2701 38.1835 62.9353 37.687 63.5576 37.5741C64.0021 37.4931 64.7644 37.4054 65.2184 37.4363C66.5197 37.5251 64.3398 37.1026 69.0032 38.1278C69.3763 38.2098 69.8072 38.253 70.1426 38.4417C70.2633 38.5097 70.3795 38.5235 70.6304 38.6848C71.3016 39.1162 71.0153 39.2669 70.7634 39.5699C70.6396 39.7187 69.652 39.9775 69.4812 40.0628C68.6957 40.16 68.3729 40.1417 67.94 40.0357C67.4389 39.9689 66.9603 39.8069 66.4878 39.6322C66.0324 39.4636 65.5783 39.2907 65.126 39.1134C64.8496 39.005 64.6358 38.9629 64.3434 38.9336C63.7755 38.8769 63.3007 39.0962 62.9652 39.6034C62.709 39.9912 62.7778 40.3311 63.1687 40.5838C63.3447 40.6976 63.6429 40.8847 63.8475 40.9272C64.1532 40.9905 64.4603 41.076 64.7743 41.0972C65.6116 41.1541 66.2318 41.193 67.0587 41.0882C68.1269 40.9529 68.7523 40.6983 69.7881 40.3972C70.3048 40.2468 70.9008 39.9519 71.3699 39.6787C71.5973 39.5463 71.8953 39.3273 72.0515 39.1125C72.2985 38.7722 72.3865 38.4154 72.1582 38.1054C71.9088 37.9122 71.6395 37.6646 71.3471 37.5531C70.5817 37.2615 69.7176 37.2519 68.9151 37.0985C67.5616 36.9993 66.8018 37.0268 65.4456 37.0183C64.6807 37.0134 63.9368 37.094 63.1828 36.9594C62.7701 36.8857 61.8177 36.5029 61.446 36.3036C60.8065 35.9612 60.3975 35.6688 60.3661 34.9517C60.3157 33.7954 60.6647 32.9146 61.568 32.2341C62.1857 31.7687 63.0593 31.3064 63.789 31.0712C64.8506 30.7288 65.5968 30.4737 66.705 30.3592C67.6221 30.2645 68.7849 30.1996 69.6465 30.218L70.1163 30.218Z" fill="#090909"/>
<path fill-rule="evenodd" clip-rule="evenodd" d="M75.1094 40.9614C75.1274 39.9883 75.1446 38.9753 75.2785 38.0145C75.446 36.8129 75.6365 35.0225 75.9609 33.8516C76.1043 33.3335 76.2727 32.8237 76.4972 32.3347C76.6276 32.0504 76.7757 31.7755 76.9858 31.5396C77.3542 31.1259 77.7169 31.0655 78.186 31.3467C78.4401 31.499 79.3078 32.265 79.5181 32.4731C80.0256 32.9746 80.4685 33.5307 80.9005 34.0962C81.7225 35.172 81.8573 36.285 82.6208 37.4019C82.8654 37.7599 83.1134 38.1155 83.3632 38.4699C83.4631 38.6116 83.5679 38.7502 83.6786 38.8838C83.7865 39.0139 83.9724 39.4365 84.1512 39.3959C84.3838 39.343 84.2769 38.4097 84.3041 38.2076C84.3718 37.7056 84.1374 36.9612 84.044 36.4637C83.8169 35.2528 83.6277 34.0947 83.2792 32.9155C82.9893 31.9358 82.5019 30.9451 82.2835 29.946C82.2281 29.6924 82.1858 29.4353 82.1536 29.1779C82.1228 28.9345 82.1586 28.692 82.2319 28.4591C82.3131 28.2015 82.4751 28.1026 82.7479 28.1241C83.0172 28.1453 83.5816 28.8742 83.7957 29.0268C84.1671 29.291 84.3223 30.0421 84.602 30.3982C85.0972 31.0285 85.5374 32.0824 85.8868 32.8003C86.6506 34.3686 86.6246 35.1355 86.8764 36.8633C87.0824 38.2796 86.9846 39.1518 86.7696 40.4058C86.5472 40.8989 86.4742 41.4928 86.128 41.9996C85.7847 42.3796 85.6605 42.9606 85.1544 43.0938C84.6897 43.2161 84.3456 43.5367 83.9509 43.2472C83.584 42.978 83.3024 42.9021 83.0048 42.5621C82.4211 41.8943 82.0361 41.4815 81.5483 40.7434C81.0318 39.9625 80.8074 39.5892 80.4523 38.7874C80.3006 38.5551 79.8484 37.8393 79.685 37.6155C79.5934 37.4899 79.3846 36.955 79.2749 36.8447C79.1495 36.6343 78.3048 34.2488 78.2137 36.7829C78.2203 36.9666 78.196 37.4396 78.1695 37.5924C78.1584 38.28 78.1593 38.6393 78.1252 39.3137C78.0798 40.2129 78.1224 41.0906 77.9899 41.9834C77.9364 42.3421 77.8766 42.7461 77.794 43.1C77.763 43.2332 77.5567 43.4113 77.4983 43.5367C77.163 44.1336 76.7062 44.1336 76.5153 43.9716C76.2825 43.7754 75.7631 43.5969 75.6652 43.3152C75.5452 42.9707 75.1986 42.7615 75.1782 42.3962C75.1584 42.0325 75.1238 41.3251 75.1094 40.9614Z" fill="#090909"/>
<path fill-rule="evenodd" clip-rule="evenodd" d="M94.507 38.0122C93.9167 38.0303 93.3261 38.0679 92.7363 38.0606C92.1824 38.0537 91.8711 38.3135 91.7069 38.8221C91.5734 39.2355 91.4547 39.6516 91.3939 40.0813C91.3674 40.2684 91.3721 40.4617 91.3787 40.6516C91.3827 40.7685 91.4648 40.8448 91.5836 40.844C91.7918 40.8431 92.0017 40.8424 92.2073 40.8148C92.689 40.7501 93.1695 40.6745 93.6491 40.5937C94.3167 40.4813 94.9823 40.3579 95.65 40.2447C95.821 40.2155 95.9952 40.207 96.1681 40.189C96.9039 40.1128 97.4362 40.4563 97.8588 41.015C97.9307 41.1099 97.9863 41.2233 98.0237 41.3366C98.0928 41.5475 98.0635 41.7442 97.9019 41.9146C97.674 42.1553 97.4237 42.3687 97.1559 42.5626C96.1078 43.3222 94.9653 43.8981 93.7357 44.3019C92.891 44.5796 92.0263 44.7534 91.1365 44.8068C89.9847 44.8759 89.1221 44.3983 88.4954 43.4549C88.1544 42.942 87.9398 42.376 87.8364 41.7725C87.76 41.3253 87.7797 40.8797 87.8982 40.4327C88.0714 39.7786 88.2914 39.1404 88.4984 38.4976C88.5569 38.3165 88.6063 38.1319 88.6733 37.9538C88.739 37.7796 88.7296 37.6162 88.6484 37.4525C88.6177 37.3904 88.5848 37.3293 88.5562 37.2662C88.3697 36.858 88.4267 36.5548 88.7547 36.2348C88.9567 36.0381 89.2049 35.9108 89.4576 35.7944C90.1711 35.4655 90.1054 35.5538 90.3311 34.7566C90.416 34.4575 90.4728 34.15 90.5341 33.8447C90.5603 33.7132 90.5099 33.6079 90.3822 33.5458C90.1948 33.4549 90.0096 33.3597 89.8222 33.2695C89.5096 33.1184 89.1912 32.9777 88.9153 32.7618C88.7083 32.5996 88.5233 32.4201 88.4327 32.1628C88.3323 31.8778 88.3905 31.6508 88.6444 31.4818C88.7871 31.3871 88.9496 31.3179 89.1103 31.2556C89.534 31.0919 89.9805 31.0209 90.4269 30.9531C91.3548 30.8116 92.291 30.7505 93.2251 30.6697C94.2455 30.5817 95.2674 30.5061 96.288 30.419C97.6118 30.3061 98.645 30.8549 99.5017 31.8119C99.5476 31.8634 99.5871 31.9212 99.6257 31.9791C99.9221 32.4199 99.8888 32.7276 99.4856 33.07C99.2145 33.3 98.8941 33.4268 98.5347 33.4487C98.015 33.4804 97.4959 33.5262 96.9761 33.5465C96.0214 33.584 95.0691 33.6494 94.1209 33.7637C93.3869 33.8518 93.3313 33.8823 93.1546 34.6757C93.1099 34.8768 93.0862 35.0882 93.0938 35.2934C93.1016 35.5078 93.1676 35.6192 93.3938 35.6499C93.6171 35.6801 93.8398 35.7274 94.0641 35.7399C94.7743 35.7793 95.4855 35.806 96.1962 35.8376C96.2483 35.84 96.3004 35.8438 96.3524 35.8466C96.9448 35.8787 97.2649 36.1892 97.3194 36.784C97.3747 37.3928 97.0887 37.8228 96.5355 37.9583C96.2289 38.0336 95.914 38.0129 95.6024 38.023C95.2378 38.0351 94.8727 38.0258 94.5077 38.0258C94.5074 38.0214 94.5072 38.0166 94.507 38.0122Z" fill="#090909"/>
<path fill-rule="evenodd" clip-rule="evenodd" d="M57.8599 28.6731C57.3758 28.6681 56.7032 28.5961 56.0443 28.427C55.8576 28.3791 55.7246 28.3867 55.6084 28.5725C55.4038 28.8993 55.0842 29.07 54.7084 29.1352C54.2547 29.2138 53.9414 29.0443 53.7351 28.6251C53.5543 28.258 53.5416 27.8556 53.4798 27.4632C53.4718 27.4122 53.4746 27.3593 53.4763 27.3071C53.4831 27.0724 53.4003 26.8804 53.2555 26.6903C52.9155 26.2436 52.6979 25.7366 52.5803 25.185C52.4241 24.4513 52.4726 23.7425 52.7686 23.0471C53.1836 22.0721 53.7997 21.2423 54.5783 20.5328C56.0606 19.1817 57.8019 18.3788 59.7973 18.1595C60.4861 18.0837 61.1835 18.0608 61.8711 18.2258C62.6845 18.4213 63.387 18.8227 64.0028 19.3746C64.1795 19.533 64.3672 19.6279 64.5931 19.665C64.9376 19.7219 65.2686 19.8206 65.5859 19.967C66.2597 20.2773 66.6252 20.8008 66.7066 21.5366C66.7939 22.3245 66.6065 23.0487 66.2339 23.7361C65.8835 24.3822 65.4318 24.9548 64.9092 25.4657C63.549 26.7956 61.9792 27.793 60.1586 28.3774C59.4176 28.6157 58.8046 28.6983 57.8599 28.6731ZM56.8607 25.9411C57.544 26.1687 58.1816 26.2225 58.8195 26.1883C59.9459 26.1286 60.9921 25.7571 62.0026 25.2797C62.649 24.9741 63.2573 24.6088 63.7868 24.1222C64.0184 23.9094 64.2228 23.6749 64.3856 23.4065C64.5508 23.1342 64.6418 22.8416 64.6369 22.5186C64.6246 21.7177 64.0246 21.2055 63.2211 21.3132C62.477 21.4128 61.8363 21.7618 61.228 22.1661C60.2 22.8492 59.2319 23.6114 58.3279 24.4525C57.8336 24.9118 57.3335 25.3654 56.8607 25.9411ZM54.8408 24.2309C54.9537 24.1249 55.0067 24.0809 55.0528 24.0309C56.0801 22.9194 56.36 22.2986 57.5975 21.3665C57.6729 21.3185 57.8443 21.094 57.8424 20.9623C56.9526 21.246 56.884 21.3505 56.0907 21.9035C55.6596 22.2041 55.3186 22.6713 55.0508 23.1263C54.861 23.4491 54.7301 23.7874 54.8408 24.2309Z" fill="#090909"/>
<path fill-rule="evenodd" clip-rule="evenodd" d="M58.8595 40.9585C58.8604 41.6348 58.8349 42.3087 58.7603 42.9812C58.7296 43.2584 58.6721 43.5276 58.5701 43.7871C58.4291 44.1448 58.1636 44.3425 57.7801 44.3642C57.5378 44.3781 57.2939 44.3791 57.0514 44.3687C56.5408 44.3465 56.1663 44.103 55.924 43.653C55.6898 43.2178 55.5968 42.7425 55.5289 42.2615C55.4343 41.592 55.396 40.9181 55.4045 40.2414C55.4182 39.133 55.4049 38.0234 55.4501 36.9164C55.5053 35.5686 55.5677 34.2192 55.8235 32.8881C55.8987 32.4964 55.9867 32.1082 56.1365 31.7379C56.2072 31.5625 56.29 31.3868 56.3977 31.2321C56.6899 30.8125 57.1811 30.7592 57.5748 31.0907C57.7794 31.2633 57.9039 31.4923 58.0009 31.7346C58.1629 32.1379 58.2611 32.5592 58.3382 32.9859C58.4802 33.7705 58.5573 34.5637 58.6165 35.3575C58.7047 36.5486 58.7632 37.7415 58.7878 38.9358C58.8015 39.6107 58.8349 40.2846 58.8595 40.9585Z" fill="#090909"/>
<path fill-rule="evenodd" clip-rule="evenodd" d="M50.907 42.8945C50.3926 43.2756 50.2159 43.3934 49.6762 43.7409C48.2218 44.6769 46.6702 45.0296 45.0103 45.5061C43.8268 45.8563 42.3706 45.8277 41.0562 45.9217C39.9181 46.0379 39.0948 45.9924 37.9504 45.9185C37.4838 45.8882 36.9134 45.8119 36.4793 45.7543C36.1285 45.727 35.668 45.7615 35.3254 45.7077C34.5186 45.5814 34.3279 45.7644 33.5355 45.5658C33.3405 45.5169 33.3028 45.8165 33.2595 46.0108C33.2065 46.2483 33.1431 46.4809 33.0364 46.7008C32.7513 47.2873 32.4111 47.3786 31.7562 47.3883C31.5998 47.3907 30.9782 47.2901 30.8232 47.2743C30.2523 47.2155 30.1426 47.2771 29.8476 46.7737C29.6427 46.4242 29.5315 46.0424 29.4712 45.6469C29.4191 45.3048 29.3848 44.9593 29.3562 44.6143C29.3448 44.4767 29.293 44.4016 29.1664 44.3409C28.9821 43.8207 27.4317 42.9792 26.7441 42.6892C25.0388 41.7735 24.188 40.9064 22.7611 39.5957C22.0953 38.9841 21.5714 38.5099 21.0246 37.7879C20.7831 37.4688 20.3638 37.0954 20.1195 36.8134C20.0227 36.6306 19.792 36.2829 19.721 36.0881C19.5908 35.6033 19.5772 35.1825 19.9505 34.6635C20.1857 34.3367 20.2953 34.1607 20.6088 33.9107C21.2513 33.3985 21.6429 33.1179 22.387 32.7774C23.9424 32.066 25.5753 31.5991 27.245 31.252C27.6867 31.1602 28.1332 31.0908 28.5777 31.0131C28.7131 30.9895 29.4606 30.9281 29.4642 30.7779C29.4684 30.6048 29.4781 30.4315 29.4876 30.2584C29.568 28.8036 29.8475 27.6914 29.9633 26.1274C29.9709 25.6501 30.1617 24.5661 30.2951 24.2454C30.3756 24.0515 30.4905 23.8895 30.6365 23.7368C30.8998 23.4612 31.9005 23.9931 32.2208 24.2002C32.4148 24.3256 32.6388 24.5912 32.7559 24.7865C32.9537 25.1166 33.045 25.6503 33.1494 26.0175C33.3535 26.7363 33.4152 27.3139 33.4872 28.0565C33.5626 28.8322 33.614 29.6105 33.6745 30.3876C33.6942 30.6419 33.6956 30.6468 33.9438 30.6544C34.8637 30.6823 35.7845 30.6858 36.7025 30.7418C38.5264 30.853 40.3229 31.2511 42.0673 31.8291C42.7948 32.07 43.4421 32.3532 44.0882 32.7698C44.6033 33.1015 44.9395 33.369 45.2963 33.8722C45.5709 34.2597 45.8713 34.8783 45.9407 35.3513C46.0466 36.0741 45.8096 36.4525 45.3648 37.0341C45.0234 37.4804 44.6395 37.9195 44.1516 38.2024C43.9964 38.2924 43.9626 38.3342 43.7823 38.3217C43.2774 38.3841 42.9844 38.3855 42.537 38.3312C41.9343 38.2576 40.3019 37.8027 40.4903 37.4152C40.6009 37.3324 41.2043 37.0547 41.3855 36.8679C41.5429 36.7057 41.9303 36.4844 42.0083 36.2638C42.2032 36.107 42.3566 35.3161 42.257 35.203C42.129 35.0573 41.2713 34.9135 40.9577 34.8412C40.5579 34.7915 40.1933 34.6927 39.7382 34.6069C38.2368 34.2987 36.9792 34.1318 35.4342 33.9939C34.5837 33.9181 34.2132 33.9185 33.3622 33.9154C33.2756 33.9149 33.1885 33.9171 33.1022 33.9251C33.0255 33.9322 32.9718 33.9785 32.968 34.0566C32.96 34.2295 32.9526 34.403 32.9574 34.5761C32.9817 35.4595 33.0115 36.0563 33.0364 36.9394C33.07 38.1172 33.0984 39.2953 33.1336 40.4731C33.1533 41.1309 33.1838 41.7885 33.206 42.4462C33.2108 42.5857 33.5032 42.8563 33.6556 42.8858C33.9596 42.938 34.2196 42.9765 34.8752 43.0502C36.0865 43.1862 37.6228 43.164 38.8381 43.1026C41.0515 42.9904 42.2874 42.837 44.3732 42.0575C45.271 41.7222 46.3973 41.351 47.1813 40.7959C48.0423 40.1864 49.0729 39.6292 49.5807 38.6953C50.3252 37.3255 50.7655 35.6926 50.4603 34.1795C50.2382 33.0789 49.6584 31.6828 49.0755 30.7303C48.4388 29.6897 47.3121 28.7277 46.4642 27.8514C44.6275 25.9534 43.0677 24.7324 40.8079 23.3817C38.1167 21.7727 34.9229 20.7488 31.9407 19.7729C29.7581 19.0586 27.536 18.5101 25.2668 18.1611C23.962 17.9606 23.5196 17.8682 22.1971 17.8427C21.9198 17.8375 20.9992 17.7873 20.7219 17.7859C19.488 17.7783 18.9879 17.7995 17.7606 17.9301C17.3802 17.9707 17.0035 18.0347 16.6359 18.1403C16.5039 18.1781 16.3733 18.2333 16.255 18.3025C15.9775 19.0218 17.4957 19.1743 17.6729 19.3169C17.7794 19.4026 17.9083 19.4609 18.0271 19.5318C18.3056 19.698 18.4201 19.8656 18.3662 20.0548C18.2968 20.2978 18.0837 20.3386 17.8752 20.3759C17.3206 20.4756 16.0367 20.4264 15.4897 20.294C15.3574 20.2618 14.4633 19.9381 14.3438 19.8703C14.1162 19.7409 13.7057 19.3975 13.6872 19.1361C13.6671 18.853 13.832 18.3921 13.9583 18.137C14.0591 17.9342 14.1106 17.8476 14.211 17.611C14.3984 17.4058 14.6226 17.0613 14.7982 16.8471C15.1542 16.4918 15.671 16.2904 16.3374 16.1159C17.061 15.9265 17.3613 15.7398 18.1025 15.6515C19.8107 15.4479 21.5256 15.3329 23.247 15.3301C24.5346 15.328 25.8131 15.4399 27.0891 15.604C29.5094 15.9155 31.8628 16.5051 34.1682 17.2928C37.6026 18.4664 40.8463 20.0378 43.8702 22.0399C46.0606 23.4902 48.1251 25.1051 49.9481 27.0083C51.2382 28.355 52.3978 29.7989 53.2696 31.4563C53.7478 32.3661 54.1218 33.3139 54.3038 34.3309C54.5378 35.6386 54.4323 36.9217 54.0277 38.1812C53.585 39.56 53.1769 40.5084 52.1721 41.5468C51.943 41.783 51.3895 42.5987 50.907 42.8945ZM29.2441 41.2703C29.3203 41.1823 29.2705 41.0403 29.271 40.94C29.2762 39.2774 29.2608 38.049 29.3129 36.3866C29.3313 35.7982 29.3294 35.209 29.3361 34.6204C29.3377 34.482 29.3398 34.3432 29.3361 34.2046C29.3294 33.9533 29.3053 33.9342 29.0708 33.9481C28.0322 34.0095 26.9084 34.3378 25.874 34.4544C24.9425 34.5595 24.5375 34.7009 23.6238 34.9078C23.0998 35.0265 22.8788 35.1667 22.39 35.3964C22.1534 35.5079 22.0009 35.6596 21.8152 35.8459C21.6926 36.0579 21.5781 36.2207 21.7868 36.561C21.9326 36.799 22.0667 36.9591 22.2597 37.1595C22.8155 37.7376 23.4115 38.3467 24.0701 38.7993C25.8231 40.0033 26.2923 40.4238 28.2475 41.4083C28.3573 41.4494 29.1135 41.3088 29.2441 41.2703Z" fill="#090909"/>
<path fill-rule="evenodd" clip-rule="evenodd" d="M101.425 49.9677C101.404 49.9941 101.371 50.017 101.362 50.047C101.009 51.2416 100.543 52.404 100.338 53.6409C100.258 54.1183 100.172 54.5956 100.075 55.0702C100.033 55.2721 99.9615 55.4688 99.8909 55.6638C99.8309 55.83 99.6953 55.8933 99.5216 55.8964C99.3617 55.8997 99.2124 55.8631 99.0641 55.8097C98.7499 55.6966 98.4664 55.5266 98.2163 55.3098C97.5846 54.763 97.1403 54.095 96.9274 53.2787C96.8651 53.0402 96.8476 52.8017 96.8422 52.5587C96.8207 51.6192 96.9501 50.6938 97.1084 49.7714C97.1434 49.566 97.181 49.3627 97.1796 49.154C97.327 48.8354 97.3461 48.4857 97.4233 48.1502C97.8849 46.1403 98.4801 44.1679 99.1002 42.2023C99.1055 42.186 99.1133 42.1702 99.1182 42.1537C99.2086 41.8552 99.329 41.562 99.3806 41.2571C99.435 40.9346 99.1987 40.6734 99.0967 40.3844C98.6308 39.0647 98.6207 37.7386 98.9829 36.3981C99.3252 35.1312 99.8992 33.9704 100.598 32.8665C101.221 31.8816 101.933 30.965 102.742 30.1255C102.898 29.9636 103.065 29.8098 103.243 29.6722C103.454 29.5088 103.673 29.5494 103.826 29.7678C103.884 29.8514 103.928 29.9494 103.961 30.0467C104.124 30.5291 104.094 31.0049 103.871 31.4606C103.711 31.7869 103.533 32.105 103.355 32.4226C102.773 33.4663 102.175 34.5027 101.676 35.5905C101.496 35.9837 101.332 36.3841 101.222 36.8054C101.121 37.195 101.165 37.5582 101.361 37.9055C101.533 37.8925 101.585 37.7466 101.669 37.6429C102.814 36.2245 104.009 34.8514 105.312 33.5744C106.105 32.7964 106.929 32.0526 107.865 31.4431C108.199 31.2254 108.546 31.0327 108.925 30.897C109.409 30.7237 109.877 30.7444 110.342 30.9572C110.877 31.2025 111.293 31.59 111.634 32.0597C112.07 32.6609 112.306 33.3459 112.44 34.0684C112.663 35.2677 112.615 36.4476 112.176 37.5978C111.984 38.1013 111.749 38.5839 111.457 39.037C110.068 41.1945 108.19 42.7435 105.739 43.5636C104.994 43.8132 104.22 43.9166 103.432 43.9018C103.105 43.8956 103.104 43.8944 103.019 44.2134C102.886 44.7155 102.759 45.2198 102.617 45.7192C102.253 47.0021 101.883 48.2831 101.51 49.5634C101.472 49.6973 101.423 49.8265 101.425 49.9677ZM104.753 40.2666C105.033 40.3185 105.257 40.2932 105.478 40.2493C107.087 39.9308 108.421 39.1379 109.491 37.9031C109.928 37.3997 110.256 36.8318 110.448 36.1893C110.63 35.5787 110.669 34.9641 110.527 34.34C110.484 34.1511 110.418 33.9737 110.295 33.8231C110.055 33.5279 109.74 33.4672 109.423 33.672C109.263 33.7744 109.117 33.9017 108.98 34.033C108.464 34.5284 108.04 35.1008 107.628 35.6814C106.634 37.0838 105.736 38.5473 104.874 40.0337C104.84 40.0916 104.812 40.1523 104.753 40.2666Z" fill="#282828"/>
<path fill-rule="evenodd" clip-rule="evenodd" d="M69.5695 29.9621C70.5329 29.9524 71.1747 30.1132 72.0738 30.2233C72.4708 30.2721 72.951 30.5842 73.3362 30.6914C73.5879 30.7613 73.8252 30.8683 74.0455 31.0111C74.5575 31.3434 74.5946 31.9939 74.0673 32.3443C73.8628 32.4803 73.6447 32.5811 73.4142 32.6619C72.7873 32.8817 72.0473 32.95 71.3926 33.0272C70.4619 33.1372 69.6143 33.2421 68.6783 33.3013C67.4835 33.3771 66.7731 33.3446 65.5852 33.5101C65.1373 33.5725 64.2584 33.6316 63.8323 33.7896C63.6677 33.8505 62.9037 33.9756 62.783 34.1083C62.6349 34.2712 62.6846 34.3708 62.8741 34.4653C63.0125 34.5342 63.9091 34.5071 64.0598 34.539C64.3993 34.6108 65.1235 34.683 65.468 34.718C66.2099 34.7342 66.5707 34.8555 67.4186 34.9226C68.3709 34.9981 69.6188 35.2305 70.5599 35.3991C71.331 35.5372 71.7702 35.8048 72.4719 36.1698C73.1367 36.6927 73.9492 37.7924 74.0159 39.168C74.0885 40.6705 73.7385 41.5594 72.5659 42.4305C71.7984 43.0003 70.4797 43.32 69.5482 43.4841C67.6739 43.8142 66.5964 43.5136 64.7332 43.2225C63.7913 42.9382 62.901 42.7305 62.1739 42.0571C61.9051 41.8082 61.3653 41.3514 61.1611 41.0478C60.5072 40.0738 60.3607 39.0061 61.219 38.3265C61.7232 37.9277 62.3884 37.4311 63.0107 37.3183C63.4552 37.2373 64.2175 37.1495 64.6715 37.1805C65.9728 37.2692 63.7929 36.8468 68.4563 37.8719C68.8294 37.9539 69.2603 37.9971 69.5958 38.1858C69.7164 38.2538 69.8326 38.2677 70.0835 38.4289C70.7547 38.8603 70.4685 39.0111 70.2165 39.314C70.0927 39.4628 69.1052 39.7217 68.9343 39.8069C68.1488 39.9042 67.826 39.8859 67.3931 39.7799C66.892 39.713 66.4134 39.551 65.9409 39.3763C65.4855 39.2077 65.0315 39.0349 64.5791 38.8575C64.3027 38.7492 64.0889 38.707 63.7965 38.6778C63.2287 38.6211 62.7538 38.8404 62.4183 39.3476C62.1621 39.7353 62.2309 40.0753 62.6218 40.3279C62.7978 40.4417 63.096 40.6288 63.3006 40.6713C63.6063 40.7346 63.9134 40.8201 64.2274 40.8414C65.0647 40.8983 65.6849 40.9372 66.5118 40.8323C67.58 40.697 68.2054 40.4424 69.2412 40.1414C69.758 39.991 70.3539 39.6961 70.823 39.4229C71.0504 39.2904 71.3485 39.0715 71.5046 38.8566C71.7516 38.5163 71.8396 38.1595 71.6113 37.8495C71.362 37.6564 71.0926 37.4087 70.8002 37.2973C70.0348 37.0057 69.1707 36.9961 68.3682 36.8426C67.0147 36.7434 66.2549 36.771 64.8988 36.7625C64.1339 36.7575 63.3899 36.8381 62.6359 36.7035C62.2233 36.6299 61.2709 36.247 60.8992 36.0478C60.2597 35.7054 59.8506 35.413 59.8192 34.6958C59.7688 33.5395 60.1178 32.6587 61.0211 31.9782C61.6388 31.5128 62.5125 31.0505 63.2421 30.8153C64.3037 30.4729 65.05 30.2179 66.1582 30.1033C67.0752 30.0087 68.238 29.9437 69.0997 29.9621L69.5695 29.9621Z" fill="#282828"/>
<path fill-rule="evenodd" clip-rule="evenodd" d="M74.5635 40.7034C74.5815 39.7303 74.5987 38.7173 74.7326 37.7565C74.9001 36.5548 75.0906 34.7645 75.415 33.5935C75.5584 33.0755 75.7268 32.5657 75.9513 32.0766C76.0817 31.7923 76.2298 31.5175 76.4399 31.2816C76.8083 30.8679 77.171 30.8074 77.6401 31.0887C77.8942 31.241 78.7619 32.007 78.9722 32.215C79.4797 32.7165 79.9226 33.2726 80.3546 33.8382C81.1766 34.914 81.3114 36.0269 82.0749 37.1438C82.3195 37.5018 82.5675 37.8574 82.8173 38.2118C82.9172 38.3535 83.022 38.4921 83.1327 38.6258C83.2406 38.7559 83.4265 39.1784 83.6053 39.1378C83.8379 39.0849 83.731 38.1517 83.7582 37.9496C83.8259 37.4476 83.5915 36.7031 83.4981 36.2056C83.271 34.9947 83.0818 33.8367 82.7333 32.6574C82.4435 31.6777 81.956 30.687 81.7376 29.688C81.6822 29.4344 81.6399 29.1772 81.6077 28.9199C81.5769 28.6764 81.6127 28.4339 81.686 28.2011C81.7672 27.9435 81.9292 27.8445 82.202 27.866C82.4713 27.8873 83.0357 28.6162 83.2498 28.7687C83.6212 29.0329 83.7764 29.7841 84.0561 30.1402C84.5513 30.7704 84.9915 31.8244 85.3409 32.5422C86.1047 34.1106 86.0787 34.8774 86.3305 36.6052C86.5365 38.0215 86.4387 38.8937 86.2237 40.1478C86.0013 40.6408 85.9283 41.2348 85.5821 41.7416C85.2388 42.1215 85.1146 42.7025 84.6085 42.8357C84.1438 42.958 83.7997 43.2786 83.405 42.9892C83.0381 42.72 82.7565 42.6441 82.4589 42.3041C81.8752 41.6363 81.4902 41.2235 81.0024 40.4854C80.4859 39.7045 80.2615 39.3312 79.9064 38.5294C79.7547 38.297 79.3025 37.5813 79.1391 37.3574C79.0475 37.2318 78.8387 36.6969 78.729 36.5867C78.6036 36.3762 77.7589 33.9908 77.6678 36.5248C77.6744 36.7085 77.6501 37.1815 77.6236 37.3343C77.6125 38.0219 77.6134 38.3813 77.5793 39.0557C77.5339 39.9548 77.5765 40.8325 77.444 41.7253C77.3905 42.084 77.3307 42.488 77.2481 42.842C77.2171 42.9752 77.0108 43.1532 76.9524 43.2786C76.6171 43.8755 76.1603 43.8755 75.9694 43.7135C75.7366 43.5173 75.2172 43.3388 75.1193 43.0571C74.9993 42.7126 74.6527 42.5034 74.6323 42.1381C74.6125 41.7745 74.5779 41.067 74.5635 40.7034Z" fill="#282828"/>
<path fill-rule="evenodd" clip-rule="evenodd" d="M93.962 37.7563C93.3717 37.7745 92.7812 37.812 92.1914 37.8047C91.6375 37.7979 91.3262 38.0576 91.162 38.5662C91.0285 38.9797 90.9097 39.3957 90.8489 39.8255C90.8224 40.0125 90.8272 40.2059 90.8338 40.3957C90.8378 40.5126 90.9199 40.5889 91.0387 40.5882C91.2469 40.5872 91.4568 40.5865 91.6624 40.5589C92.1441 40.4942 92.6246 40.4186 93.1042 40.3379C93.7718 40.2255 94.4374 40.102 95.105 39.9889C95.2761 39.9596 95.4502 39.9511 95.6232 39.9332C96.359 39.8569 96.8913 40.2005 97.3139 40.7591C97.3858 40.8541 97.4414 40.9674 97.4788 41.0807C97.5479 41.2916 97.5185 41.4883 97.3569 41.6588C97.1291 41.8994 96.8788 42.1129 96.611 42.3067C95.5628 43.0664 94.4203 43.6423 93.1908 44.046C92.3461 44.3237 91.4814 44.4975 90.5915 44.5509C89.4398 44.6201 88.5772 44.1424 87.9504 43.1991C87.6095 42.6862 87.3949 42.1202 87.2915 41.5166C87.2151 41.0694 87.2347 40.6238 87.3533 40.1768C87.5265 39.5228 87.7465 38.8845 87.9535 38.2418C88.0119 38.0607 88.0614 37.876 88.1283 37.698C88.1941 37.5237 88.1847 37.3603 88.1035 37.1967C88.0727 37.1346 88.0399 37.0734 88.0112 37.0104C87.8248 36.6021 87.8818 36.2989 88.2097 35.979C88.4118 35.7823 88.66 35.655 88.9127 35.5386C89.6262 35.2096 89.5605 35.298 89.7862 34.5008C89.8711 34.2016 89.9279 33.8942 89.9892 33.5889C90.0154 33.4573 89.965 33.352 89.8373 33.2899C89.6499 33.199 89.4646 33.1038 89.2772 33.0136C88.9647 32.8625 88.6462 32.7218 88.3704 32.506C88.1634 32.3437 87.9783 32.1643 87.8877 31.9069C87.7874 31.6219 87.8456 31.395 88.0995 31.2259C88.2422 31.1312 88.4047 31.062 88.5653 30.9997C88.9891 30.8361 89.4355 30.765 89.882 30.6972C90.8099 30.5558 91.7461 30.4946 92.6802 30.4139C93.7006 30.3258 94.7225 30.2502 95.7431 30.1631C97.0669 30.0502 98.1001 30.599 98.9568 31.556C99.0027 31.6075 99.0422 31.6653 99.0808 31.7232C99.3772 32.1641 99.3439 32.4717 98.9407 32.8141C98.6696 33.0441 98.3492 33.1709 97.9898 33.1929C97.47 33.2245 96.9509 33.2703 96.4311 33.2906C95.4765 33.3282 94.5242 33.3936 93.5759 33.5079C92.842 33.5959 92.7864 33.6264 92.6097 34.4198C92.565 34.621 92.5413 34.8323 92.5489 35.0375C92.5567 35.2519 92.6227 35.3634 92.8489 35.3941C93.0722 35.4243 93.2949 35.4715 93.5191 35.484C94.2294 35.5235 94.9406 35.5501 95.6513 35.5818C95.7034 35.5841 95.7554 35.5879 95.8075 35.5908C96.3999 35.6229 96.72 35.9334 96.7744 36.5282C96.8298 37.1369 96.5438 37.5669 95.9906 37.7025C95.684 37.7778 95.3691 37.757 95.0575 37.7672C94.6929 37.7792 94.3278 37.77 93.9628 37.77C93.9625 37.7655 93.9623 37.7608 93.962 37.7563Z" fill="#282828"/>
<path fill-rule="evenodd" clip-rule="evenodd" d="M57.314 28.4192C56.8299 28.4142 56.1573 28.3422 55.4984 28.1731C55.3117 28.1252 55.1787 28.1328 55.0625 28.3186C54.8579 28.6454 54.5383 28.8161 54.1625 28.8813C53.7088 28.9599 53.3955 28.7904 53.1892 28.3712C53.0084 28.0041 52.9957 27.6017 52.9339 27.2093C52.9259 27.1583 52.9287 27.1054 52.9304 27.0532C52.9372 26.8185 52.8544 26.6265 52.7096 26.4364C52.3696 25.9896 52.152 25.4827 52.0344 24.9311C51.8782 24.1974 51.9267 23.4886 52.2227 22.7932C52.6377 21.8182 53.2538 20.9884 54.0324 20.2789C55.5147 18.9277 57.256 18.1249 59.2514 17.9055C59.9402 17.8298 60.6377 17.8068 61.3252 17.9719C62.1386 18.1674 62.8411 18.5688 63.4569 19.1207C63.6336 19.2791 63.8213 19.374 64.0472 19.4111C64.3917 19.468 64.7227 19.5667 65.04 19.7131C65.7138 20.0234 66.0793 20.5469 66.1607 21.2827C66.248 22.0706 66.0606 22.7948 65.688 23.4822C65.3376 24.1282 64.8859 24.7009 64.3633 25.2118C63.0031 26.5417 61.4333 27.5391 59.6127 28.1235C58.8717 28.3618 58.2587 28.4444 57.314 28.4192ZM56.3148 25.6872C56.9981 25.9148 57.6357 25.9686 58.2736 25.9344C59.4 25.8747 60.4462 25.5032 61.4567 25.0258C62.1031 24.7202 62.7114 24.3549 63.2409 23.8683C63.4725 23.6555 63.6769 23.421 63.8397 23.1526C64.0049 22.8803 64.0959 22.5877 64.091 22.2647C64.0787 21.4638 63.4787 20.9516 62.6752 21.0593C61.9311 21.1589 61.2904 21.5079 60.6821 21.9122C59.6541 22.5953 58.686 23.3575 57.782 24.1986C57.2877 24.6579 56.7876 25.1115 56.3148 25.6872ZM54.2949 23.977C54.4078 23.871 54.4608 23.827 54.5069 23.777C55.5342 22.6655 55.8141 22.0447 57.0516 21.1125C57.127 21.0646 57.2984 20.8401 57.2965 20.7083C56.4067 20.9921 56.3381 21.0966 55.5448 21.6496C55.1137 21.9502 54.7727 22.4174 54.5049 22.8724C54.3151 23.1952 54.1842 23.5335 54.2949 23.977Z" fill="#282828"/>
<path fill-rule="evenodd" clip-rule="evenodd" d="M58.3136 40.7065C58.3145 41.3828 58.289 42.0567 58.2144 42.7292C58.1837 43.0064 58.1262 43.2756 58.0242 43.5351C57.8832 43.8929 57.6177 44.0905 57.2342 44.1122C56.9919 44.1262 56.748 44.1271 56.5055 44.1167C55.9949 44.0945 55.6204 43.8511 55.3781 43.401C55.1439 42.9658 55.0509 42.4905 54.983 42.0095C54.8884 41.3401 54.8501 40.6662 54.8586 39.9894C54.8723 38.881 54.859 37.7715 54.9042 36.6645C54.9594 35.3167 55.0218 33.9672 55.2776 32.6361C55.3528 32.2444 55.4408 31.8562 55.5906 31.486C55.6613 31.3105 55.7441 31.1348 55.8518 30.9802C56.144 30.5606 56.6352 30.5072 57.0289 30.8387C57.2335 31.0113 57.358 31.2404 57.455 31.4827C57.617 31.886 57.7152 32.3072 57.7923 32.7339C57.9343 33.5186 58.0114 34.3117 58.0706 35.1056C58.1588 36.2966 58.2173 37.4895 58.2419 38.6839C58.2556 39.3587 58.289 40.0326 58.3136 40.7065Z" fill="#282828"/>
<path fill-rule="evenodd" clip-rule="evenodd" d="M50.3611 42.6386C49.8467 43.0197 49.67 43.1375 49.1303 43.4851C47.6759 44.4211 46.1243 44.7737 44.4644 45.2502C43.2809 45.6004 41.8247 45.5718 40.5103 45.6658C39.3722 45.782 38.5489 45.7365 37.4045 45.6626C36.9379 45.6324 36.3675 45.5561 35.9334 45.4984C35.5826 45.4712 35.1221 45.5057 34.7795 45.4519C33.9727 45.3255 33.782 45.5085 32.9896 45.3099C32.7946 45.261 32.7569 45.5606 32.7136 45.7549C32.6606 45.9925 32.5972 46.2251 32.4905 46.4449C32.2054 47.0314 31.8652 47.1228 31.2103 47.1324C31.0539 47.1348 30.4323 47.0343 30.2773 47.0185C29.7064 46.9597 29.5967 47.0213 29.3017 46.5179C29.0968 46.1684 28.9856 45.7866 28.9253 45.3911C28.8732 45.0489 28.8389 44.7034 28.8103 44.3585C28.7989 44.2208 28.7471 44.1457 28.6205 44.085C28.4362 43.5648 26.8858 42.7234 26.1982 42.4333C24.4929 41.5176 23.6421 40.6506 22.2152 39.3398C21.5494 38.7283 21.0255 38.2541 20.4787 37.532C20.2372 37.213 19.8179 36.8396 19.5736 36.5575C19.4768 36.3748 19.2461 36.027 19.1751 35.8322C19.0449 35.3474 19.0313 34.9267 19.4046 34.4076C19.6398 34.0808 19.7494 33.9049 20.0629 33.6548C20.7054 33.1426 21.097 32.8621 21.8411 32.5216C23.3965 31.8101 25.0294 31.3433 26.6991 30.9962C27.1408 30.9043 27.5873 30.8349 28.0318 30.7572C28.1672 30.7336 28.9147 30.6722 28.9183 30.522C28.9225 30.3489 28.9322 30.1756 28.9417 30.0025C29.0221 28.5478 29.3016 27.4355 29.4174 25.8715C29.425 25.3942 29.6158 24.3102 29.7492 23.9895C29.8297 23.7957 29.9446 23.6337 30.0906 23.4809C30.3539 23.2053 31.3546 23.7373 31.6749 23.9444C31.8689 24.0698 32.0929 24.3353 32.21 24.5306C32.4078 24.8607 32.4991 25.3945 32.6035 25.7617C32.8076 26.4804 32.8693 27.058 32.9413 27.8006C33.0167 28.5763 33.0681 29.3546 33.1286 30.1317C33.1483 30.386 33.1497 30.391 33.3979 30.3985C34.3178 30.4264 35.2386 30.4299 36.1566 30.4859C37.9805 30.5971 39.777 30.9952 41.5214 31.5733C42.2489 31.8141 42.8962 32.0974 43.5423 32.5139C44.0574 32.8457 44.3936 33.1132 44.7504 33.6164C45.025 34.0039 45.3254 34.6225 45.3948 35.0954C45.5007 35.8182 45.2637 36.1967 44.8189 36.7782C44.4775 37.2245 44.0936 37.6637 43.6057 37.9466C43.4505 38.0365 43.4167 38.0784 43.2364 38.0659C42.7315 38.1282 42.4385 38.1297 41.9911 38.0754C41.3884 38.0017 39.756 37.5468 39.9444 37.1594C40.055 37.0765 40.6584 36.7989 40.8396 36.6121C40.997 36.4499 41.3844 36.2285 41.4624 36.008C41.6573 35.8512 41.8107 35.0602 41.7111 34.9471C41.5831 34.8014 40.7254 34.6576 40.4118 34.5853C40.012 34.5356 39.6474 34.4368 39.1924 34.351C37.6909 34.0429 36.4333 33.876 34.8883 33.7381C34.0378 33.6623 33.6673 33.6626 32.8163 33.6596C32.7297 33.6591 32.6426 33.6612 32.5563 33.6692C32.4796 33.6763 32.4259 33.7226 32.4221 33.8008C32.4141 33.9736 32.4067 34.1472 32.4115 34.3202C32.4358 35.2036 32.4656 35.8004 32.4905 36.6835C32.5241 37.8614 32.5525 39.0394 32.5877 40.2172C32.6074 40.8751 32.6379 41.5327 32.6601 42.1903C32.6649 42.3299 32.9573 42.6005 33.1097 42.63C33.4137 42.6822 33.6737 42.7206 34.3293 42.7943C35.5406 42.9303 37.0769 42.9081 38.2922 42.8467C40.5056 42.7346 41.7415 42.5811 43.8273 41.8016C44.7251 41.4663 45.8514 41.0952 46.6354 40.54C47.4964 39.9306 48.527 39.3733 49.0348 38.4394C49.7793 37.0696 50.2196 35.4367 49.9144 33.9236C49.6923 32.823 49.1125 31.427 48.5296 30.4744C47.8929 29.4338 46.7662 28.4718 45.9183 27.5956C44.0816 25.6975 42.5218 24.4765 40.262 23.1259C37.5708 21.5169 34.377 20.4929 31.3948 19.517C29.2122 18.8027 26.9901 18.2542 24.7209 17.9052C23.4161 17.7047 22.9737 17.6123 21.6512 17.5868C21.3739 17.5816 20.4533 17.5314 20.176 17.53C18.9421 17.5225 18.442 17.5437 17.2147 17.6743C16.8343 17.7149 16.4576 17.7789 16.09 17.8844C15.958 17.9222 15.8274 17.9775 15.7091 18.0466C15.4316 18.7659 16.9498 18.9184 17.127 19.061C17.2335 19.1467 17.3624 19.2051 17.4812 19.2759C17.7597 19.4421 17.8742 19.6098 17.8203 19.7989C17.7509 20.0419 17.5378 20.0828 17.3293 20.1201C16.7747 20.2197 15.4908 20.1706 14.9438 20.0381C14.8115 20.006 13.9174 19.6822 13.7979 19.6144C13.5703 19.485 13.1598 19.1416 13.1413 18.8802C13.1212 18.5971 13.2861 18.1362 13.4124 17.8812C13.5132 17.6783 13.5647 17.5917 13.6651 17.3551C13.8525 17.1499 14.0767 16.8054 14.2523 16.5912C14.6083 16.236 15.1251 16.0345 15.7915 15.86C16.5151 15.6706 16.8154 15.4839 17.5566 15.3956C19.2648 15.1921 20.9797 15.0771 22.7011 15.0742C23.9887 15.0721 25.2672 15.184 26.5432 15.3482C28.9635 15.6596 31.3169 16.2492 33.6223 17.037C37.0567 18.2105 40.3004 19.7819 43.3243 21.7841C45.5147 23.2344 47.5792 24.8493 49.4022 26.7525C50.6923 28.0991 51.8519 29.543 52.7237 31.2004C53.2019 32.1102 53.576 33.058 53.7579 34.075C53.9919 35.3827 53.8864 36.6659 53.4818 37.9254C53.0391 39.3041 52.631 40.2525 51.6262 41.291C51.3971 41.5271 50.8436 42.3429 50.3611 42.6386ZM28.6982 41.0145C28.7744 40.9264 28.7246 40.7845 28.7251 40.6841C28.7303 39.0215 28.7149 37.7931 28.767 36.1308C28.7854 35.5423 28.7835 34.9532 28.7902 34.3645C28.7918 34.2261 28.794 34.0873 28.7902 33.9487C28.7835 33.6975 28.7594 33.6783 28.5249 33.6923C27.4863 33.7537 26.3625 34.0819 25.3281 34.1985C24.3966 34.3036 23.9916 34.445 23.0779 34.6519C22.5539 34.7707 22.3329 34.9108 21.8441 35.1406C21.6075 35.252 21.455 35.4038 21.2693 35.5901C21.1467 35.802 21.0322 35.9649 21.2409 36.3051C21.3867 36.5431 21.5208 36.7032 21.7138 36.9037C22.2696 37.4817 22.8656 38.0908 23.5242 38.5435C25.2772 39.7475 25.7464 40.1679 27.7016 41.1525C27.8114 41.1936 28.5676 41.053 28.6982 41.0145Z" fill="#282828"/>
<defs>
<linearGradient id="paint0_linear_2048_37967" x1="52.3734" y1="39.1348" x2="52.3734" y2="75.0913" gradientUnits="userSpaceOnUse">
<stop stop-color="#B02726"/>
<stop offset="0.45428" stop-color="#460E0D"/>
<stop offset="1" stop-color="#7B1A21"/>
</linearGradient>
<linearGradient id="paint1_linear_2048_37967" x1="33.5812" y1="61.4533" x2="31.54" y2="63.7279" gradientUnits="userSpaceOnUse">
<stop stop-color="#96272E"/>
<stop offset="1" stop-color="#9E231C"/>
</linearGradient>
<linearGradient id="paint2_linear_2048_37967" x1="180.85" y1="48.2834" x2="180.85" y2="52.0119" gradientUnits="userSpaceOnUse">
<stop stop-color="#A12525"/>
<stop offset="1" stop-color="#9C2424"/>
</linearGradient>
<linearGradient id="paint3_linear_2048_37967" x1="162.842" y1="50.7604" x2="162.842" y2="76.1992" gradientUnits="userSpaceOnUse">
<stop stop-color="#A12525"/>
<stop offset="1" stop-color="#651618"/>
</linearGradient>
<linearGradient id="paint4_linear_2048_37967" x1="149.135" y1="59.0253" x2="149.135" y2="66.7221" gradientUnits="userSpaceOnUse">
<stop stop-color="#6A1B14"/>
<stop offset="1" stop-color="#741A1A"/>
</linearGradient>
<radialGradient id="paint5_radial_2048_37967" cx="0" cy="0" r="1" gradientUnits="userSpaceOnUse" gradientTransform="translate(129.084 41.0806) rotate(97.0722) scale(5.74505 5.44586)">
<stop stop-color="#353535"/>
<stop offset="1" stop-color="#2A2A2A"/>
</radialGradient>
</defs>
</svg>
