<svg width="201" height="91" viewBox="0 0 201 91" fill="none" xmlns="http://www.w3.org/2000/svg">
<path d="M101.016 89.1642V69.5628C101.008 69.3055 100.957 69.0575 100.865 68.8124C100.759 68.5549 100.599 68.3199 100.415 68.1417L88.2759 55.7747C87.8572 55.344 87.8572 54.647 88.2759 54.2231L100.415 41.8546C100.599 41.6678 100.76 41.4464 100.865 41.183C100.957 40.9388 101.014 40.6796 101.016 40.4314V20.8357C101.016 20.555 100.914 20.2736 100.703 20.0626C100.49 19.8467 100.211 19.75 99.9442 19.75H81.4463C81.1998 19.75 80.9551 19.7923 80.714 19.9028C80.4551 20.0003 80.2358 20.1641 80.0517 20.3478L67.1597 33.4799C66.7399 33.9089 66.0639 33.9089 65.6381 33.4759L52.7435 20.3478C52.5642 20.1641 52.341 20.0001 52.0888 19.9028C51.8445 19.7923 51.5997 19.75 51.3497 19.75H32.8607C32.5916 19.75 32.3114 19.8467 32.1037 20.0626C31.8887 20.2736 31.791 20.5552 31.791 20.8319V40.4316C31.792 40.6798 31.8414 40.939 31.9388 41.1831C32.0441 41.4468 32.1992 41.668 32.3797 41.8548L44.5199 54.2233C44.9468 54.6472 44.9468 55.3442 44.5199 55.7749L32.3797 68.1419C32.1994 68.3228 32.0443 68.5551 31.9388 68.8126C31.8414 69.0575 31.7918 69.3089 31.791 69.563V89.1644C31.791 89.4408 31.8915 89.7221 32.1037 89.9304C32.3114 90.1439 32.5918 90.2501 32.8607 90.2501H52.0966C52.3488 90.2446 52.5939 90.1944 52.8411 90.0987C53.0929 89.9961 53.3142 89.84 53.5011 89.6483L65.6379 77.2813C66.0637 76.851 66.7397 76.851 67.1658 77.2775L79.3009 89.6483C79.4812 89.84 79.7043 89.9961 79.9615 90.0987C80.2085 90.1944 80.4549 90.2446 80.7031 90.2501H99.9442C100.211 90.2501 100.49 90.1439 100.703 89.9304C100.914 89.7219 101.016 89.4406 101.016 89.1642Z" fill="#08EE59"/>
<path d="M152.017 90.2498C152.259 90.2443 152.506 90.1941 152.75 90.0983C153.01 89.9957 153.229 89.8397 153.407 89.648L166.676 76.1355C166.847 75.9566 166.988 75.7376 167.089 75.4923C167.193 75.2346 167.242 74.97 167.242 74.7028V35.2892C167.242 35.0249 167.193 34.762 167.089 34.5007C166.988 34.2535 166.847 34.0356 166.676 33.86L153.407 20.3481C153.229 20.1644 153.01 20.0022 152.75 19.903C152.506 19.7926 152.259 19.7502 152.017 19.7502H105.525C105.249 19.7502 104.978 19.847 104.77 20.0629C104.556 20.2756 104.451 20.5554 104.445 20.8322V89.1642C104.451 89.4406 104.556 89.722 104.77 89.9303C104.978 90.1437 105.249 90.25 105.525 90.25L152.017 90.2498Z" fill="#08EE59"/>
<path d="M38.4108 11.8672C38.4335 12.559 38.455 13.2514 38.4781 13.9437C38.4842 14.1281 38.4899 14.1331 38.6645 14.1657C39.5398 14.3301 40.4232 14.3835 41.3113 14.3427C42.4098 14.2927 43.4843 14.1127 44.517 13.7128C45.0404 13.5103 45.5328 13.2507 45.9677 12.8877C46.5252 12.4232 46.9094 11.8439 47.0612 11.1173C47.1929 10.4884 47.1267 9.87516 46.9239 9.27182C46.7292 8.6929 46.4312 8.17101 46.0737 7.68365C45.4769 6.86762 44.7555 6.17921 43.9684 5.55965C42.555 4.44701 40.9962 3.5978 39.3426 2.92483C37.9911 2.37414 36.5979 1.96861 35.1625 1.71758C33.9505 1.50432 32.7291 1.42421 31.5007 1.48487C31.1531 1.50223 30.8043 1.52359 30.46 1.58711C30.3016 1.61668 30.1431 1.64338 30.0012 1.72445C29.8887 1.78797 29.8765 1.89765 29.9745 1.98063C30.0247 2.02278 30.0859 2.05139 30.141 2.08783C30.1801 2.11377 30.2232 2.13723 30.2545 2.17137C30.3385 2.26484 30.3121 2.40962 30.1998 2.46131C30.1406 2.48821 30.0739 2.50976 30.0106 2.51148C29.8036 2.51663 29.5943 2.5275 29.3889 2.50767C28.9517 2.4657 28.7806 2.17309 28.9364 1.75554C28.991 1.60962 29.0801 1.48449 29.1829 1.37137C29.3179 1.22335 29.4583 1.08086 29.5972 0.936655C29.6985 0.830789 29.8286 0.773374 29.96 0.720155C30.2332 0.609139 30.5187 0.543139 30.8066 0.49488C32.0478 0.2862 33.2985 0.209901 34.5546 0.269796C35.7347 0.326639 36.8947 0.536654 38.0333 0.859592C40.624 1.59379 42.9929 2.78921 45.1353 4.44644C46.1081 5.19895 46.9981 6.04206 47.7514 7.0267C48.1592 7.55947 48.5151 8.12466 48.7763 8.74803C49.0323 9.35728 49.1685 9.98828 49.1274 10.657C49.0895 11.2926 48.9178 11.8855 48.6189 12.4417C48.2296 13.1629 47.6835 13.7399 47.0328 14.2189C46.2036 14.8278 45.2808 15.2289 44.2979 15.4963C43.1015 15.8212 41.8826 15.9047 40.6523 15.8279C39.993 15.7869 39.3407 15.6829 38.6977 15.5273C38.6517 15.516 38.6059 15.5038 38.5597 15.4973C38.5185 15.4922 38.4878 15.5101 38.4766 15.5545C38.4573 15.6293 38.4415 15.7046 38.4176 15.7771C38.2746 16.2101 38.0148 16.4112 37.5432 16.3938C37.0961 16.3782 36.8247 16.1684 36.6845 15.7329C36.6078 15.495 36.5603 15.2476 36.559 14.9964C36.558 14.8526 36.5048 14.7755 36.3734 14.7156C35.6565 14.3902 34.9759 13.9974 34.3356 13.536C33.6554 13.0447 33.0232 12.4995 32.4907 11.8416C32.3163 11.6262 32.1536 11.4021 32.0272 11.1538C31.9669 11.0347 31.9112 10.9109 31.8706 10.7835C31.7899 10.5308 31.8334 10.29 31.9716 10.0663C32.0727 9.90206 32.2007 9.76205 32.3476 9.63863C32.6768 9.36014 33.0471 9.14993 33.4341 8.9712C34.2627 8.58799 35.132 8.33925 36.023 8.16433C36.1517 8.13954 36.2826 8.11932 36.4123 8.09585C36.5643 8.06781 36.571 8.06133 36.5884 7.8887C36.6002 7.77463 36.6053 7.65885 36.6114 7.54383C36.6454 6.89013 36.7083 6.24005 36.8434 5.59914C36.8848 5.40152 36.9399 5.20772 37.0202 5.02212C37.0433 4.96947 37.0692 4.91759 37.0996 4.86914C37.2636 4.60915 37.4965 4.58893 37.7101 4.81573C37.8032 4.91339 37.8641 5.03376 37.9167 5.15755C38.0251 5.41526 38.0922 5.68593 38.1407 5.96023C38.2383 6.50977 38.2936 7.06409 38.3158 7.62222C38.3183 7.68956 38.3186 7.75727 38.3246 7.82385C38.3301 7.87668 38.3617 7.91178 38.415 7.91579C38.4716 7.92113 38.5279 7.9217 38.5842 7.92113C39.1785 7.91712 39.7723 7.93028 40.3639 7.99285C41.1066 8.07106 41.8393 8.19428 42.5466 8.44855C42.9123 8.58017 43.2619 8.74478 43.5793 8.97578C43.7727 9.11617 43.9473 9.27697 44.0878 9.47287C44.2294 9.66915 44.3335 9.88317 44.37 10.1262C44.4264 10.5069 44.3431 10.8518 44.1084 11.156C43.9496 11.3632 43.7592 11.5333 43.5385 11.6682C43.4742 11.7079 43.4097 11.7476 43.3289 11.7443C43.0839 11.7338 42.8381 11.7436 42.596 11.6938C42.5502 11.6844 42.5035 11.6749 42.4602 11.6568C42.3629 11.6152 42.3265 11.5227 42.3595 11.4198C42.3923 11.3153 42.4579 11.2343 42.5306 11.158C42.6029 11.0822 42.6799 11.0109 42.7515 10.9348C42.7902 10.893 42.8253 10.847 42.8554 10.7984C42.9516 10.6412 42.9334 10.5416 42.7858 10.4268C42.6649 10.3322 42.526 10.2715 42.3854 10.2149C41.964 10.0444 41.5255 9.93162 41.082 9.84006C40.266 9.67049 39.4416 9.59514 38.6088 9.61765C38.5523 9.61899 38.4958 9.62032 38.4398 9.62662C38.3986 9.63119 38.3724 9.66171 38.3707 9.70292C38.3667 9.78952 38.3654 9.87574 38.3677 9.96272C38.3822 10.5975 38.398 11.2318 38.4131 11.8666C38.4129 11.8672 38.4121 11.8672 38.4108 11.8672ZM36.5155 11.6264C36.5193 11.6264 36.5224 11.6264 36.5254 11.6264C36.5332 11.0691 36.5416 10.5115 36.5489 9.95375C36.5498 9.88642 36.5489 9.81908 36.5433 9.75232C36.5397 9.70883 36.5071 9.68518 36.467 9.68308C36.4205 9.68022 36.3734 9.68441 36.3263 9.68861C35.9694 9.7176 35.6127 9.74679 35.2556 9.77712C34.7011 9.82442 34.1511 9.90129 33.6073 10.0222C33.3498 10.0796 33.0961 10.1535 32.8531 10.2614C32.7055 10.3276 32.5649 10.4062 32.4542 10.529C32.3232 10.675 32.3034 10.8053 32.3991 10.9733C32.456 11.0723 32.5235 11.1677 32.6011 11.2501C32.7381 11.3951 32.8789 11.5389 33.0316 11.6657C34.0228 12.4871 35.1484 13.0611 36.3348 13.5202C36.3698 13.5337 36.4077 13.5425 36.4447 13.5448C36.4707 13.5461 36.5023 13.536 36.505 13.5C36.5103 13.4332 36.5151 13.3659 36.5151 13.2993C36.5159 12.7417 36.5155 12.1844 36.5155 11.6264Z" fill="#08EE59"/>
<path d="M73.1923 12.0199C73.2965 11.9698 73.3392 11.8797 73.3966 11.8076C73.9601 11.0967 74.5491 10.4089 75.1929 9.77254C75.5517 9.41717 75.9258 9.07916 76.345 8.79743C76.5261 8.67497 76.7141 8.56872 76.9217 8.49662C77.1378 8.42203 77.347 8.42909 77.5552 8.52218C77.8394 8.64922 78.061 8.85217 78.2361 9.11102C78.4893 9.48508 78.602 9.90892 78.6527 10.3528C78.734 11.062 78.61 11.7334 78.2626 12.3551C77.6021 13.5372 76.6531 14.3738 75.3888 14.8264C75.0022 14.9653 74.6026 15.0195 74.1938 15.0139C74.048 15.0117 74.044 15.0139 74.0059 15.1652C73.7524 16.1605 73.4699 17.1467 73.1736 18.1295C73.1181 18.3131 73.0682 18.4984 73.0035 18.6792C72.8107 19.2236 72.6993 19.7878 72.6043 20.3568C72.5755 20.5272 72.5295 20.6939 72.4869 20.8612C72.4622 20.9583 72.3929 20.9916 72.2954 20.9955C72.1053 21.0019 71.9441 20.9283 71.7953 20.8228C71.4008 20.5432 71.1406 20.1657 71.018 19.6907C70.9449 19.4063 70.9682 19.1185 70.9926 18.8303C71.0756 17.8492 71.2976 16.8961 71.5593 15.9517C71.7562 15.24 71.9733 14.534 72.1852 13.8265C72.2195 13.7117 72.2241 13.6102 72.1741 13.4937C71.8054 12.6395 71.8306 11.7767 72.1302 10.9086C72.3534 10.2589 72.6798 9.6661 73.0676 9.10587C73.3341 8.72018 73.6238 8.35356 73.9584 8.02623C74.0128 7.97263 74.0686 7.91979 74.1306 7.87783C74.2193 7.81793 74.3117 7.8391 74.3815 7.92475C74.4299 7.98522 74.4585 8.05522 74.4782 8.13076C74.5392 8.36462 74.5159 8.59008 74.4128 8.8043C74.3296 8.97654 74.2361 9.14402 74.1448 9.31226C73.8809 9.8002 73.6072 10.2834 73.3772 10.7896C73.286 10.9905 73.2 11.1929 73.1399 11.4057C73.0806 11.6123 73.0779 11.8155 73.1923 12.0199ZM77.7118 10.576C77.7024 10.459 77.7078 10.3055 77.6566 10.1565C77.5384 9.81431 77.3022 9.74278 77.0293 9.9753C76.8479 10.13 76.6949 10.3133 76.5505 10.5044C75.9332 11.3205 75.4132 12.2012 74.9043 13.0889C74.8999 13.0973 74.8938 13.1051 74.8896 13.1135C74.8568 13.1803 74.887 13.222 74.9657 13.2148C75.2299 13.1917 75.4872 13.1362 75.7345 13.037C76.4194 12.7627 76.9875 12.3358 77.3896 11.6995C77.5979 11.3706 77.7196 11.0099 77.7118 10.576Z" fill="#08EE59"/>
<path d="M56.8474 7.88466C57.2077 7.86921 57.6215 7.90049 58.035 7.93655C58.2511 7.956 58.4648 7.99625 58.6731 8.05824C58.7904 8.09372 58.9052 8.13874 59.0065 8.21256C59.2693 8.40331 59.2743 8.68676 59.0155 8.87885C58.9235 8.94694 58.819 8.99082 58.7124 9.03049C58.4989 9.11042 58.2767 9.15925 58.0529 9.19034C57.6707 9.2428 57.2861 9.28476 56.9012 9.31795C56.1783 9.37956 55.4519 9.40226 54.7307 9.48924C54.5246 9.51461 54.3209 9.55105 54.1206 9.6056C54.0197 9.63307 53.9219 9.66836 53.8362 9.72997C53.774 9.77403 53.709 9.82611 53.7229 9.91404C53.7344 9.98824 53.8017 10.0212 53.8641 10.0417C53.9625 10.0735 54.0627 10.1082 54.1639 10.1218C54.5096 10.1668 54.8556 10.2097 55.2028 10.2414C55.7845 10.295 56.3682 10.3264 56.947 10.4136C57.2461 10.4582 57.5419 10.517 57.8267 10.6206C57.9597 10.6685 58.0917 10.7222 58.2177 10.7869C58.8405 11.1053 59.1503 11.6333 59.1856 12.3333C59.2175 12.9506 58.9767 13.4574 58.546 13.8749C58.1592 14.2503 57.685 14.456 57.1709 14.5723C56.5384 14.7148 55.9005 14.7213 55.259 14.6494C54.8819 14.607 54.5147 14.5294 54.1592 14.3957C53.721 14.2309 53.3214 14.001 52.996 13.6518C52.8981 13.5465 52.8113 13.433 52.739 13.3084C52.4564 12.8233 52.5504 12.2158 52.9653 11.8402C53.1305 11.6909 53.3224 11.5909 53.5303 11.5211C53.8481 11.4152 54.1752 11.3822 54.5073 11.4021C55.1392 11.4398 55.7643 11.5245 56.3768 11.6909C56.5309 11.733 56.6805 11.7937 56.8285 11.8551C56.906 11.8872 56.9805 11.9339 57.0471 11.9863C57.2176 12.1218 57.2283 12.2946 57.0797 12.4575C56.9886 12.5574 56.8743 12.6252 56.7507 12.6757C56.3347 12.847 55.9122 12.8811 55.4782 12.7512C55.2062 12.6702 54.9439 12.5645 54.6795 12.4621C54.5124 12.397 54.3448 12.3326 54.1735 12.2793C54.0003 12.2271 53.8227 12.2061 53.6445 12.2635C53.4763 12.319 53.3384 12.4129 53.2575 12.5779C53.1749 12.748 53.2129 12.9231 53.3555 13.045C53.4444 13.1207 53.5507 13.1596 53.6602 13.1902C53.9646 13.2762 54.2761 13.2838 54.5868 13.2691C55.38 13.2323 56.1611 13.1047 56.9262 12.8869C57.1707 12.8174 57.4109 12.728 57.6327 12.5977C57.7557 12.5256 57.8731 12.4451 57.9513 12.3188C58.0438 12.1689 58.0297 12.0506 57.9007 11.9354C57.8002 11.845 57.6806 11.7882 57.5589 11.7349C57.1936 11.5745 56.8093 11.4791 56.4211 11.4009C55.8368 11.2832 55.2464 11.2253 54.6505 11.2235C54.1601 11.2224 53.6705 11.206 53.1864 11.1125C53.0286 11.0822 52.8752 11.0364 52.7286 10.9696C52.3312 10.79 52.1401 10.4727 52.1456 10.034C52.1513 9.64394 52.2828 9.30135 52.5456 9.01351C52.7408 8.79949 52.9746 8.63927 53.2287 8.50822C53.6016 8.31633 53.9976 8.19406 54.4041 8.10574C55.1911 7.93502 55.9883 7.87379 56.8474 7.88466Z" fill="#08EE59"/>
<path d="M59.5386 13.0434C59.5359 12.3876 59.6243 11.7402 59.7275 11.0948C59.8045 10.6109 59.9026 10.131 60.0409 9.66041C60.1055 9.43953 60.1795 9.2215 60.2755 9.01187C60.3432 8.86365 60.4208 8.72002 60.5353 8.60252C60.697 8.43542 60.8428 8.41158 61.0455 8.52221C61.2306 8.62293 61.3797 8.77095 61.522 8.92489C61.7935 9.22055 62.0391 9.53776 62.2673 9.86795C62.6034 10.3555 62.9313 10.8484 63.2653 11.3381C63.4326 11.5824 63.6031 11.8241 63.7776 12.0629C63.8204 12.122 63.8658 12.2069 63.9514 12.1888C64.05 12.1678 64.0565 12.0644 64.076 11.9822C64.1265 11.7735 64.1189 11.5629 64.0886 11.3524C64.0174 10.8558 63.8814 10.3757 63.7465 9.89542C63.58 9.30429 63.4106 8.71449 63.2464 8.12298C63.1798 7.88206 63.1384 7.63733 63.1422 7.38382C63.1472 7.04105 63.3206 6.91878 63.6435 7.08015C63.7547 7.13585 63.8501 7.21425 63.9396 7.30047C64.174 7.52746 64.3648 7.78917 64.5299 8.0709C65.0999 9.03991 65.4585 10.0829 65.6041 11.2049C65.6863 11.8371 65.6466 12.4515 65.4169 13.0479C65.3132 13.3182 65.1815 13.5717 65.0007 13.7972C64.8363 14.0022 64.6402 14.1621 64.3903 14.2474C64.141 14.3309 63.9087 14.3095 63.6943 14.1445C63.4743 13.9757 63.2884 13.7718 63.1157 13.5555C62.8538 13.227 62.6179 12.8787 62.3907 12.5247C62.1223 12.106 61.857 11.6858 61.5892 11.2673C61.5121 11.1465 61.4312 11.0275 61.3263 10.9285C61.2555 10.861 61.1894 10.8782 61.1581 10.977C61.1354 11.0496 61.1222 11.1256 61.1098 11.2013C61.0539 11.5343 61.0669 11.8722 61.0545 12.2088C61.0366 12.6891 61.0179 13.1692 60.949 13.6459C60.9191 13.8556 60.876 14.0627 60.7916 14.2573C60.7121 14.4387 60.6125 14.6044 60.3951 14.6254C60.1667 14.6481 59.9667 14.5775 59.8106 14.3992C59.7345 14.3118 59.6845 14.2084 59.6468 14.0982C59.5838 13.9156 59.5495 13.7264 59.5401 13.5338C59.5321 13.3705 59.5386 13.2072 59.5386 13.0434Z" fill="#08EE59"/>
<path d="M70.2598 7.93164C70.8658 7.94194 71.3434 8.21185 71.7218 8.683C71.7514 8.71924 71.7753 8.76197 71.7993 8.80317C71.8691 8.92449 71.8537 9.04256 71.7745 9.15282C71.6503 9.32506 71.4771 9.41567 71.2724 9.44161C71.1233 9.46011 70.9726 9.47003 70.8223 9.47919C70.3988 9.50513 69.975 9.52554 69.5521 9.55492C69.3455 9.56827 69.1393 9.59612 68.9337 9.61901C68.7652 9.6377 68.6588 9.72773 68.6176 9.89845C68.5815 10.048 68.5461 10.1974 68.5445 10.3521C68.5434 10.4776 68.5825 10.5304 68.6975 10.5588C68.77 10.5773 68.8459 10.5852 68.9207 10.5928C69.268 10.6267 69.616 10.6481 69.9643 10.6479C70.0307 10.6479 70.0967 10.6491 70.1629 10.6531C70.431 10.6702 70.5857 10.8245 70.6193 11.1065C70.6533 11.3914 70.5218 11.6152 70.2762 11.6959C70.1667 11.7319 70.0536 11.734 69.9408 11.7352C69.5261 11.7388 69.1114 11.7403 68.6966 11.7476C68.5463 11.7502 68.3959 11.771 68.2458 11.775C68.0806 11.7791 67.9877 11.8765 67.9257 12.0167C67.8363 12.2189 67.7741 12.4301 67.7392 12.6494C67.7215 12.7631 67.7037 12.8778 67.6999 12.9922C67.6957 13.1133 67.7575 13.1723 67.8754 13.1643C68.0352 13.153 68.1953 13.1391 68.3534 13.113C68.8272 13.034 69.3003 12.948 69.7733 12.8667C69.876 12.8495 69.979 12.8387 70.0824 12.8303C70.4381 12.803 70.697 12.9773 70.8949 13.2579C71.01 13.4199 71.0186 13.6051 70.8484 13.7449C70.7317 13.8412 70.6222 13.9494 70.5001 14.0379C69.7829 14.5564 68.9941 14.9085 68.1281 15.07C67.9338 15.1059 67.7352 15.1282 67.5383 15.1357C67.0742 15.1536 66.6918 14.9739 66.4045 14.6C66.1289 14.2418 65.9875 13.8283 65.957 13.3762C65.9475 13.232 65.974 13.0882 66.0142 12.9493C66.0884 12.6918 66.1678 12.435 66.2458 12.1783C66.2906 12.0316 66.3315 11.8834 66.3858 11.7399C66.4308 11.6217 66.4188 11.5172 66.3614 11.41C66.307 11.3094 66.247 11.2112 66.2895 11.0847C66.3341 10.9512 66.4122 10.8438 66.5272 10.7727C66.647 10.6977 66.7744 10.6321 66.9035 10.5762C67.0451 10.5138 67.132 10.4156 67.166 10.2624C67.2053 10.0844 67.2587 9.90971 67.2892 9.73002C67.3188 9.5593 67.2976 9.53012 67.1536 9.45515C67.0533 9.40308 66.948 9.35959 66.8465 9.30885C66.7027 9.23675 66.5615 9.15854 66.441 9.04848C66.3479 8.96302 66.2771 8.86383 66.262 8.73126C66.2498 8.6273 66.2807 8.54185 66.3643 8.47871C66.457 8.40928 66.5607 8.36617 66.6695 8.33221C66.9503 8.24466 67.239 8.20098 67.5292 8.16779C67.866 8.12983 68.2037 8.09893 68.5417 8.0686C69.0577 8.02358 69.5746 7.98181 70.0909 7.93889C70.1466 7.93546 70.2031 7.93412 70.2598 7.93164Z" fill="#08EE59"/>
<path d="M50.7669 7.05297C50.5651 7.04496 50.2271 7.01539 49.8976 6.9286C49.7933 6.90152 49.7248 6.90476 49.6592 7.00662C49.5684 7.14758 49.433 7.23342 49.2686 7.26985C49.0212 7.32593 48.8411 7.23876 48.7421 7.0009C48.6599 6.80385 48.6332 6.59212 48.6261 6.38077C48.6217 6.24935 48.5815 6.14577 48.5071 6.03971C48.2654 5.69407 48.1428 5.30724 48.1466 4.87824C48.1485 4.63275 48.2089 4.40385 48.3058 4.18258C48.5662 3.58897 48.9786 3.11953 49.4774 2.72678C50.2397 2.12707 51.1076 1.82168 52.0676 1.7799C52.6895 1.75263 53.238 1.94337 53.7088 2.35635C53.841 2.47232 53.9749 2.55721 54.1544 2.57914C54.3217 2.59879 54.4819 2.66574 54.6309 2.7512C54.8667 2.88529 55.0113 3.08501 55.0736 3.35435C55.1482 3.67595 55.1072 3.98534 54.9962 4.2873C54.8621 4.65239 54.6484 4.96866 54.3913 5.25344C53.6796 6.04029 52.8297 6.6049 51.8235 6.91964C51.5249 7.01291 51.2188 7.06346 50.7669 7.05297ZM50.3114 5.67366C50.332 5.68969 50.3514 5.71544 50.376 5.72173C50.7637 5.82054 51.1587 5.85182 51.5511 5.77896C52.1578 5.66661 52.7259 5.44038 53.2497 5.10542C53.4654 4.96713 53.664 4.80785 53.8324 4.60986C53.9514 4.46985 54.0419 4.31362 54.0829 4.13241C54.1721 3.74042 53.9143 3.39402 53.5221 3.37151C53.3678 3.36255 53.2234 3.40013 53.0813 3.45258C52.7873 3.56093 52.5205 3.72306 52.2635 3.90065C51.5995 4.36093 51.0008 4.90018 50.4413 5.48501C50.3902 5.5388 50.3278 5.58745 50.3114 5.67366ZM51.1726 3.16703C51.0494 3.13918 50.963 3.18763 50.8775 3.2109C50.4081 3.33832 49.9711 3.53479 49.6075 3.87452C49.4679 4.00499 49.3433 4.14996 49.2708 4.33117C49.215 4.47175 49.1703 4.6173 49.2672 4.78878C49.5549 4.47652 49.8414 4.1862 50.1529 3.92297C50.471 3.65439 50.8159 3.42149 51.1726 3.16703Z" fill="#08EE59"/>
<path d="M51.5578 12.3541C51.5578 12.6761 51.5578 13.1087 51.5578 13.5413C51.5573 13.7723 51.5431 14.0025 51.4991 14.2301C51.4846 14.3055 51.4663 14.38 51.4413 14.4523C51.3799 14.6303 51.2641 14.7394 51.0733 14.7646C50.9127 14.7852 50.7553 14.7859 50.5957 14.7592C50.3945 14.7253 50.2493 14.6166 50.1497 14.4401C50.0547 14.2713 50.0069 14.0859 49.971 13.8959C49.9052 13.5457 49.8848 13.189 49.8811 12.8346C49.8707 11.8154 49.8958 10.796 49.9811 9.7805C50.0103 9.43582 50.0599 9.09304 50.1434 8.75713C50.1846 8.58889 50.2344 8.42313 50.3191 8.27129C50.4988 7.94568 50.8347 7.93119 51.0443 8.2402C51.1256 8.3598 51.1748 8.49561 51.2164 8.6341C51.3007 8.92003 51.3451 9.21455 51.3808 9.51059C51.4907 10.4182 51.509 11.3315 51.5578 12.3541Z" fill="#08EE59"/>
</svg>
