<svg width="201" height="91" viewBox="0 0 201 91" fill="none" xmlns="http://www.w3.org/2000/svg">
<path d="M51.9892 19.3125H64.1854V75.021H51.9395L51.9892 19.3125Z" fill="black"/>
<path d="M71.3877 75.0417V39.8359C73.2619 40.9034 75.389 41.4464 77.5455 41.4077C79.6723 41.385 81.7616 40.8455 83.6336 39.8359V75.0417H71.3877Z" fill="black"/>
<path d="M91.801 75.0407V50.0514H88.1104V39.8349H91.801V33.6074C91.801 23.0427 100.018 17.4122 107.37 17.4122C109.258 17.3504 111.131 17.7715 112.811 18.6358V29.4393C111.396 28.7021 109.83 28.3036 108.235 28.2754C105.161 28.2754 104.057 30.6927 104.057 33.6174V39.8349H115.268C111.923 42.3551 109.571 45.9716 108.623 50.0514H104.067V75.0407H91.801Z" fill="black"/>
<path d="M129.604 37.9947C118.144 38.2235 111.041 45.8237 111.041 57.0549C111.041 70.4946 120.76 76.2247 131.066 76.2247C139.751 76.2247 146.983 71.8674 148.754 63.9489H136.816C136.816 63.9489 135.553 67.2217 131.106 67.2217C126.868 67.2217 123.337 65.2322 123.337 59.8702V59.1838H149.201V57.8607C149.201 44.431 141.86 37.9648 130.171 37.9648L129.604 37.9947ZM130.688 46.2515C132.376 46.152 134.041 46.6848 135.358 47.746C136.675 48.8071 137.549 50.3206 137.811 51.9914H123.506C123.801 50.3254 124.693 48.8239 126.015 47.7676C127.337 46.7112 128.998 46.1723 130.688 46.2515Z" fill="black"/>
<path d="M122.719 3.49549L120.521 9.76271L118.481 3.49549H116.432L119.605 11.9811V12.0408C119.339 12.8266 118.927 13.5555 118.392 14.1895C117.783 14.3721 117.145 14.4363 116.512 14.3785V15.9802C117.463 16.0559 118.42 15.9582 119.337 15.6917C119.924 15.3604 120.369 14.8262 120.59 14.1895C121.078 13.1947 124.828 3.49549 124.828 3.49549H122.719ZM112.453 4.89815V3.48553H110.463V12.0308H112.453V8.77784C112.433 8.27195 112.503 7.76653 112.662 7.28565C112.943 6.69156 113.376 6.18253 113.918 5.81034C114.46 5.43815 115.09 5.21607 115.746 5.16674L115.079 3.53529C114.07 3.66439 113.139 4.14732 112.453 4.89815ZM78.9581 10.5187C78.6062 10.5127 78.2592 10.4354 77.938 10.2916C77.6167 10.1478 77.328 9.94047 77.0891 9.68205C76.8502 9.42362 76.6661 9.11948 76.5479 8.78798C76.4297 8.45648 76.3799 8.10448 76.4014 7.75321C76.3786 7.41123 76.4244 7.06817 76.5363 6.7442C76.6482 6.42024 76.8238 6.12197 77.0529 5.86699C77.2819 5.61201 77.5597 5.40546 77.8698 5.25957C78.1799 5.11368 78.5161 5.03137 78.8586 5.01752C79.285 5.02022 79.7055 5.11809 80.0892 5.30396C80.473 5.48983 80.8105 5.75903 81.077 6.09192L82.2906 4.76882C81.8702 4.28146 81.3447 3.89577 80.7537 3.64075C80.1627 3.38574 79.5215 3.26807 78.8785 3.29655C78.2904 3.29515 77.7079 3.41092 77.1651 3.63714C76.6223 3.86336 76.13 4.19548 75.7169 4.61409C75.3038 5.03269 74.9783 5.52941 74.7594 6.07522C74.5405 6.62103 74.4324 7.205 74.4417 7.79301C74.443 8.71785 74.7302 9.61967 75.2638 10.375C75.7974 11.1304 76.5514 11.7024 77.4226 12.0128C78.2938 12.3232 79.2396 12.3567 80.1306 12.1089C81.0216 11.861 81.8143 11.3439 82.4001 10.6282L81.2163 9.4543C80.9443 9.78104 80.6057 10.0459 80.2231 10.2312C79.8406 10.4165 79.4228 10.5179 78.9979 10.5287L78.9581 10.5187ZM107.18 6.95738C107.145 6.71818 107.071 6.48632 106.962 6.27097C106.86 6.00984 106.716 5.76768 106.534 5.55472C106.351 5.35057 106.128 5.18776 105.877 5.07721C105.605 4.95681 105.309 4.89903 105.012 4.90811C104.732 4.89685 104.454 4.94781 104.196 5.05732C103.938 5.16469 103.704 5.32381 103.51 5.52488C103.105 5.89577 102.85 6.40173 102.793 6.94743L107.18 6.95738ZM108.862 6.14164C109.036 6.71212 109.124 7.30579 109.12 7.90242C109.125 7.99188 109.125 8.08157 109.12 8.17103C109.125 8.26382 109.125 8.35679 109.12 8.44957H102.833C102.889 9.05897 103.175 9.62407 103.634 10.0291C104.092 10.4341 104.689 10.6485 105.3 10.6282C105.737 10.6392 106.169 10.5472 106.564 10.3596C106.954 10.1669 107.31 9.91155 107.618 9.60354L108.762 10.5983C108.354 11.0768 107.858 11.472 107.3 11.7622C106.68 12.0608 105.998 12.2107 105.31 12.1999C104.718 12.2017 104.13 12.0903 103.579 11.8717C103.059 11.6667 102.585 11.3588 102.187 10.9664C101.785 10.5712 101.47 10.097 101.261 9.5737C101.028 8.9989 100.909 8.38368 100.913 7.76316C100.911 7.16911 101.016 6.5795 101.222 6.02227C101.42 5.50197 101.714 5.02299 102.087 4.60965C102.457 4.19294 102.907 3.85467 103.41 3.61486C103.938 3.37598 104.512 3.25706 105.091 3.26667C105.708 3.25299 106.32 3.37884 106.882 3.63477C107.378 3.86785 107.816 4.20753 108.165 4.62957C108.503 5.08518 108.75 5.60207 108.891 6.1516L108.862 6.14164ZM96.3371 9.77264L94.0392 3.49549H91.9302L95.4418 12.1104H97.2125L100.704 3.49549H98.645L96.3371 9.77264ZM89.9605 7.78305C89.9625 7.41648 89.8985 7.05256 89.7715 6.70868C89.6434 6.38626 89.458 6.08966 89.2243 5.83326C88.9892 5.58665 88.7089 5.38741 88.3987 5.24634C88.0631 5.09969 87.7005 5.02513 87.3342 5.02748C86.9712 5.02504 86.6118 5.09963 86.2798 5.24634C85.9696 5.38741 85.6893 5.58665 85.4541 5.83326C85.2279 6.08223 85.0522 6.37278 84.9368 6.68877C84.8171 7.03085 84.7566 7.39081 84.7577 7.75321C84.7598 8.11383 84.8272 8.4711 84.9567 8.80769C85.081 9.13201 85.2668 9.42927 85.5038 9.68311C85.732 9.94011 86.0139 10.1439 86.3295 10.28C86.6623 10.4308 87.0235 10.5089 87.3889 10.5089C87.7544 10.5089 88.1156 10.4308 88.4484 10.28C88.7611 10.1484 89.04 9.94775 89.2641 9.69307C89.4941 9.44309 89.6702 9.14851 89.7814 8.8276C89.9011 8.49242 89.9617 8.13897 89.9605 7.78305ZM91.582 6.02227C91.8132 6.56967 91.9284 7.15905 91.9202 7.75321C91.8897 8.3409 91.7723 8.92085 91.5721 9.47421C91.1115 10.5512 90.2473 11.4047 89.1647 11.8518C87.9995 12.3194 86.6988 12.3194 85.5337 11.8518C84.9981 11.6295 84.5088 11.309 84.0912 10.9067C83.6684 10.5071 83.3302 10.0268 83.0964 9.4941C82.8652 8.95021 82.75 8.36407 82.7582 7.77312C82.7487 7.17784 82.8674 6.58747 83.1064 6.04216C83.5651 4.96514 84.4249 4.10889 85.5038 3.65466C86.6739 3.1945 87.9747 3.1945 89.1448 3.65466C89.6785 3.87082 90.1642 4.19043 90.574 4.59505C90.9837 4.99968 91.3094 5.48133 91.5323 6.01232L91.582 6.02227ZM72.7505 7.80296C72.4837 7.61304 72.1968 7.45291 71.895 7.32545C71.5866 7.19613 71.2683 7.08671 70.9599 6.98723L70.2437 6.74845C70.0318 6.68196 69.8256 6.5988 69.6269 6.49976C69.469 6.4201 69.3246 6.31603 69.1991 6.19137C69.144 6.13747 69.1001 6.07324 69.0698 6.00236C69.0595 5.93311 69.0595 5.86271 69.0698 5.79346C69.07 5.67173 69.1008 5.552 69.1593 5.44528C69.2127 5.33852 69.2912 5.24635 69.3882 5.17669C69.6495 5.00292 69.9603 4.91911 70.2735 4.93795C70.671 4.94524 71.0644 5.01923 71.4374 5.15681C71.8748 5.30754 72.295 5.50428 72.6909 5.74373L73.4668 4.35103C73.0004 4.0423 72.4908 3.80427 71.9547 3.6447C71.4276 3.47426 70.8772 3.38702 70.3232 3.38608C69.9187 3.38637 69.5164 3.44671 69.1295 3.56513C68.7682 3.67316 68.4306 3.84868 68.1347 4.08241C67.851 4.31194 67.6236 4.60347 67.4701 4.93458C67.3167 5.26569 67.2411 5.62757 67.2493 5.99243C67.2319 6.35589 67.3145 6.71716 67.4881 7.03695C67.6477 7.30915 67.8609 7.54607 68.1148 7.73332C68.3737 7.93313 68.6624 8.09092 68.9703 8.20088C69.2887 8.32025 69.607 8.41973 69.9154 8.50926L70.6416 8.72812C70.8515 8.78685 71.0548 8.86684 71.2484 8.96686C71.4104 9.04399 71.5558 9.15215 71.6762 9.2852C71.7777 9.40012 71.8312 9.54972 71.8254 9.703C71.835 9.8352 71.8038 9.96717 71.7359 10.081C71.6774 10.1988 71.588 10.2986 71.4772 10.3695C71.1812 10.5578 70.8322 10.6451 70.4824 10.6182C70.0084 10.6196 69.5387 10.5283 69.0997 10.3496C68.5924 10.1569 68.1138 9.89581 67.6771 9.5737L66.8017 10.8968C67.8343 11.7119 69.1073 12.163 70.4227 12.1801C70.8462 12.1789 71.2676 12.1221 71.6762 12.0109C72.035 11.9016 72.3717 11.7298 72.671 11.5036C72.9591 11.2822 73.1909 10.9959 73.3474 10.6679C73.5158 10.2966 73.5975 9.89175 73.5862 9.48414C73.599 9.13695 73.5165 8.79288 73.3474 8.48934C73.1875 8.22024 72.9742 7.98669 72.7207 7.80296H72.7505ZM63.5984 12.0408H65.588V3.49549H63.5984V12.0408ZM62.1759 6.30082C62.1787 7.07652 62.0224 7.84456 61.7165 8.55741C61.4106 9.27026 60.9617 9.91275 60.3976 10.4452C59.8334 10.9776 59.1661 11.3886 58.4367 11.6528C57.7074 11.917 56.9316 12.0287 56.1574 11.9811H51.9395V0.650391H56.1574C59.7188 0.650391 62.1759 3.08762 62.1759 6.29086M53.929 10.1606H56.1574C57.1784 10.1606 58.1576 9.755 58.8796 9.03301C59.6016 8.31102 60.0072 7.33182 60.0072 6.31077C60.0072 5.28973 59.6016 4.31049 58.8796 3.58851C58.1576 2.86652 57.1784 2.46089 56.1574 2.46089H53.929V10.1606Z" fill="black"/>
<path d="M72.6017 85.2382H68.9209V81.7266H67.1602V90.4808H68.9209V86.9293H72.6017V90.4808H74.3525V81.7266H72.6017V85.2382Z" fill="black"/>
<path d="M85.4538 81.6777L81.4746 90.4717H83.3349L84.27 88.3926H88.0005L88.9157 90.4717H90.8257L86.8465 81.6777H85.4538ZM85.0061 86.7313L86.1402 84.2045L87.2643 86.7313H85.0061Z" fill="black"/>
<path d="M58.5252 87.9045C58.2343 88.2087 57.8989 88.467 57.5304 88.6705C57.1614 88.8469 56.7554 88.9322 56.3466 88.9192C56.004 88.9206 55.6649 88.8494 55.3518 88.7103C55.0387 88.5649 54.7553 88.3625 54.5162 88.1134C54.2767 87.8539 54.0908 87.5496 53.969 87.2181C53.8299 86.8597 53.7591 86.4784 53.7601 86.094C53.7601 85.7129 53.8309 85.3351 53.969 84.9798C54.0908 84.6483 54.2767 84.3441 54.5162 84.0845C54.7567 83.8352 55.0441 83.6358 55.3618 83.4976C55.6759 83.3616 56.0142 83.2905 56.3565 83.2887C56.763 83.2784 57.1659 83.3672 57.5304 83.5473C57.8917 83.7379 58.2262 83.9754 58.5252 84.2536L58.8336 84.5521L60.0273 83.2688L59.7289 82.9803C59.5217 82.7812 59.3025 82.5952 59.0723 82.4232C58.832 82.2525 58.5754 82.1059 58.3063 81.9855C58.018 81.8629 57.718 81.7696 57.411 81.7069C57.0636 81.6394 56.7104 81.6061 56.3565 81.6075C55.7481 81.605 55.1455 81.7269 54.5858 81.9656C54.0559 82.1991 53.5787 82.5375 53.1831 82.9604C52.7867 83.3768 52.4758 83.8668 52.2679 84.4029C51.8352 85.53 51.8352 86.7774 52.2679 87.9045C52.4746 88.4387 52.7861 88.9261 53.1842 89.3378C53.5823 89.7496 54.0589 90.0774 54.5858 90.302C55.1346 90.5411 55.7282 90.6599 56.3267 90.6502C56.688 90.6582 57.0488 90.6214 57.4011 90.5407C57.7167 90.4726 58.0237 90.3691 58.3163 90.2323C58.594 90.1006 58.8573 89.9406 59.1022 89.7548C59.344 89.5679 59.5702 89.3616 59.7786 89.1381L60.0771 88.8297L58.8833 87.6558L58.5252 87.9045Z" fill="black"/>
<path d="M144.784 88.7896V81.7266H143.023V90.4808H149.211V88.7896H144.784Z" fill="black"/>
<path d="M130.766 86.9094H135.064V85.2282H130.766V83.4078H135.571V81.7266H129.016V90.4808H135.631V88.7996H130.766V86.9094Z" fill="black"/>
<path d="M103.639 87.2278L99.3221 81.7266H97.8398V90.4808H99.5807V84.8303L104.018 90.4808H105.38V81.7266H103.639V87.2278Z" fill="black"/>
<path d="M119.198 87.2278L114.881 81.7266H113.398V90.4808H115.139V84.8303L119.576 90.4808H120.929V81.7266H119.198V87.2278Z" fill="black"/>
<path d="M77.5166 20.3965C76.3396 20.396 75.1771 20.6565 74.113 21.1594C73.0488 21.6622 72.1094 22.3948 71.3625 23.3045C70.6156 24.2141 70.0797 25.2781 69.7935 26.4197C69.5074 27.5614 69.4779 28.7524 69.7075 29.9067C70.0014 31.3852 70.7092 32.7498 71.7485 33.8417C72.7877 34.9335 74.1158 35.7078 75.5779 36.0744C77.0401 36.4409 78.5763 36.3846 80.0077 35.9121C81.4392 35.4396 82.707 34.5702 83.6636 33.4052C84.6202 32.2402 85.2262 30.8275 85.4112 29.3315C85.5962 27.8355 85.3525 26.3177 84.7085 24.9548C84.0645 23.5919 83.0467 22.4399 81.7735 21.6329C80.5002 20.826 79.024 20.3972 77.5166 20.3965ZM77.5166 33.1498C76.8074 33.1501 76.107 32.9932 75.4658 32.6902C74.8245 32.3873 74.2585 31.9459 73.8085 31.3978C73.3584 30.8497 73.0355 30.2087 72.8631 29.5208C72.6906 28.8329 72.6729 28.1153 72.8112 27.4198C72.9959 26.4887 73.4528 25.6334 74.124 24.9622C74.7952 24.291 75.6504 23.8342 76.5815 23.6495C77.2771 23.5112 77.9946 23.5289 78.6825 23.7013C79.3704 23.8738 80.0115 24.1966 80.5596 24.6467C81.1076 25.0968 81.549 25.6628 81.852 26.304C82.1549 26.9452 82.3119 27.6457 82.3115 28.3548C82.3134 28.9868 82.1882 29.6126 81.9434 30.1952C81.716 30.7723 81.3781 31.2995 80.9486 31.7471C80.5004 32.1929 79.97 32.5476 79.3868 32.7916C78.7935 33.0346 78.1577 33.1563 77.5166 33.1498Z" fill="black"/>
</svg>
