<svg width="201" height="91" viewBox="0 0 201 91" fill="none" xmlns="http://www.w3.org/2000/svg">
<path d="M29.4618 58.1868H16.3186V37.3817H29.4618C35.3232 37.3817 41.3321 40.3291 41.3321 47.7843C41.3321 55.2384 35.3232 58.1868 29.4618 58.1868ZM27.9703 26.613C16.3401 26.613 6.91211 36.041 6.91211 47.6723C6.91211 59.3025 16.3401 68.7305 27.9703 68.7305C39.6005 68.7305 49.0285 59.3025 49.0285 47.6723C49.0285 36.041 39.6005 26.613 27.9703 26.613Z" fill="white"/>
<path d="M28.6629 43.4374H22.8672V52.1289H28.6629C32.8735 52.1289 34.3617 50.3811 34.3617 47.7837C34.3617 45.1852 32.8627 43.4374 28.6629 43.4374Z" fill="white"/>
<path d="M74.4618 48.3685L70.9803 38.8618H66.2475L62.7659 48.3685L59.9758 38.8618H53.7568L59.6118 57.1934H64.8841L68.5821 48.3189L72.3447 57.1934H77.6171L83.4709 38.8618H77.2531L74.4618 48.3685Z" fill="white"/>
<path d="M77.6177 57.1927H72.3453L68.5827 48.3193L64.8848 57.1927H59.6113L53.7575 38.8622H59.9753L62.7666 48.3677L66.2481 38.8622H70.9799L74.4625 48.3677L77.2526 38.8622H83.4715L77.6177 57.1927ZM27.9707 68.7302C16.3405 68.7302 6.91251 59.3012 6.91251 47.671C6.91251 36.0408 16.3405 26.6128 27.9707 26.6128C39.6009 26.6128 49.0289 36.0408 49.0289 47.671C49.0289 59.3012 39.6009 68.7302 27.9707 68.7302ZM67.8214 20.7105C59.8558 20.7105 52.7011 24.1769 47.7819 29.683C42.8628 24.1769 35.707 20.7105 27.7424 20.7105C12.9064 20.7105 0.879883 32.737 0.879883 47.573C0.879883 62.409 12.9064 74.4355 27.7424 74.4355C35.707 74.4355 42.8628 70.9691 47.7819 65.462C52.7011 70.9691 59.8558 74.4355 67.8214 74.4355C82.6564 74.4355 94.6829 62.409 94.6829 47.573C94.6829 32.737 82.6564 20.7105 67.8214 20.7105Z" fill="#0C2950"/>
<path d="M28.6625 52.1292H22.8668V43.4378H28.6625C32.8623 43.4378 34.3613 45.1856 34.3613 47.7841C34.3613 50.3815 32.8731 52.1292 28.6625 52.1292ZM29.4616 37.3804H16.3184V58.1855H29.4616C35.323 58.1855 41.3319 55.2381 41.3319 47.7829C41.3319 40.3278 35.323 37.3804 29.4616 37.3804Z" fill="#0C2950"/>
<path fill-rule="evenodd" clip-rule="evenodd" d="M141.329 34.1473H144.425V45.5363H141.858L141.635 44.6834C140.672 45.2402 139.576 45.7129 138.548 45.7129C135.723 45.7129 134.324 44.3248 134.324 40.9316V34.1473H137.357V40.4438C137.357 42.3606 138.067 42.8851 139.548 42.8851C140.016 42.8851 140.741 42.6352 141.329 42.2971V34.1473ZM116.708 37.8894C116.708 40.5751 115.301 42.3412 112.216 42.3412H109.977V33.4366H112.32C115.427 33.4366 116.708 34.8882 116.708 37.8894ZM120.157 37.8894C120.157 32.2961 117.005 30.2426 112.635 30.2426H106.554V45.5363H112.416C116.606 45.5363 120.157 43.2641 120.157 37.8894ZM175.168 37.2584C174.422 36.7242 173.679 36.454 172.819 36.454C171.235 36.454 170.355 38.0133 170.308 39.6017C170.257 41.2493 171.103 42.9281 172.986 42.9281C173.773 42.9281 174.433 42.7763 175.325 42.1032L176.909 44.0028C175.745 45.0592 174.426 45.6967 172.896 45.6967C169.032 45.6967 167.198 42.6051 167.257 39.5651C167.314 36.6209 169.145 33.7263 172.636 33.7263C174.225 33.7263 175.622 34.2453 176.59 35.1832L175.168 37.2584ZM181.658 45.4545H178.602V29.744H181.658V34.4069C182.421 34.0752 183.579 33.7263 184.436 33.7263C187.261 33.7263 188.826 35.1144 188.826 38.5076V45.4545H185.753V38.9954C185.753 37.0786 185.001 36.5541 183.519 36.5541C183.051 36.5541 182.245 36.8039 181.658 37.1431V45.4545ZM127.275 33.7305C124.301 33.7305 122.223 36.2041 122.258 39.7277C122.295 43.361 124.205 45.7032 127.738 45.7032C129.303 45.7032 130.946 45.0237 131.873 43.8424L130.321 42.31C130.321 42.31 129.321 43.0552 127.971 43.1091C126.339 43.1747 125.348 42.2152 125.221 40.6387H131.96C132.675 35.9694 130.533 33.7305 127.275 33.7305ZM129.379 38.5646H125.193C125.27 37.309 126.046 36.2063 127.245 36.2063C129.348 36.2063 129.373 37.9896 129.379 38.5646ZM153.736 42.4769C153.736 42.4769 153.141 42.7579 152.595 42.7579C151.875 42.7579 151.481 42.5545 151.481 41.4625V36.4464H154.233V34.0935H151.481V31.3485H149.018L148.588 34.0935H146.544V36.4464H148.506L148.467 42.1894C148.467 44.1999 149.382 45.6407 151.666 45.6407C152.852 45.6407 153.672 45.1723 154.59 44.5176L153.736 42.4769ZM196.056 33.7305C193.081 33.7305 191.003 36.2041 191.04 39.7277C191.076 43.361 192.985 45.7032 196.519 45.7032C198.084 45.7032 199.727 45.0237 200.653 43.8424L199.101 42.31C199.101 42.31 198.102 43.0552 196.751 43.1091C195.12 43.1747 194.13 42.2152 194.002 40.6387H200.741C201.457 35.9694 199.313 33.7305 196.056 33.7305ZM198.16 38.5646H193.973C194.049 37.309 194.826 36.2063 196.026 36.2063C198.128 36.2063 198.153 37.9896 198.16 38.5646ZM164.396 37.1744L165.312 34.858C165.312 34.858 163.279 33.7112 161.06 33.7457C158.27 33.7877 156.553 34.899 156.508 36.9957C156.48 38.2868 157.096 39.3938 158.59 40.1799C159.707 40.7679 160.747 41.1114 161.772 41.4958C162.296 41.6929 162.659 41.9869 162.551 42.4791C162.463 42.8904 162.01 43.0552 161.673 43.1037C160.298 43.2997 158.638 42.7741 157.212 42.1668L156.276 44.3625C156.276 44.3625 158.32 45.6946 160.95 45.6946C163.015 45.6946 165.531 45.0786 165.718 42.5124C165.838 40.8918 165.13 39.8461 163.426 39.1418C162.728 38.8522 160.465 38.0025 160.465 38.0025C159.776 37.7516 159.541 37.3682 159.625 36.9558C159.76 36.2903 160.762 36.3086 161.542 36.37C163.117 36.4938 164.396 37.1744 164.396 37.1744Z" fill="#0C2950"/>
<path fill-rule="evenodd" clip-rule="evenodd" d="M146.479 49.902H143.423V65.6136H146.479V49.902ZM123.985 51.331H120.684L119.283 57.9537C119.143 58.6752 118.897 60.7159 118.827 61.3491C118.711 60.7159 118.32 58.6968 118.134 57.9537L116.3 51.331H113.223L111.413 57.9537C111.226 58.6968 110.837 60.7159 110.719 61.3491C110.65 60.7159 110.364 58.6968 110.224 57.9537L108.862 51.331H105.514L108.858 65.6943H112.06L114.124 58.0873C114.358 57.1913 114.622 55.7311 114.692 55.1625C114.784 55.7311 115.047 57.1709 115.281 58.0873L117.3 65.6943H120.642L123.985 51.331ZM140.383 49.902H137.328V65.6136H140.383V49.902ZM130.06 53.88C127.084 53.88 125.008 56.3525 125.044 59.877C125.08 63.5104 126.991 65.8516 130.523 65.8516C132.088 65.8516 133.731 65.1731 134.658 63.9907L133.106 62.4594C133.106 62.4594 132.107 63.2046 130.756 63.2584C129.124 63.323 128.133 62.3636 128.007 60.7881H134.745C135.461 56.1188 133.318 53.88 130.06 53.88ZM132.164 58.714H127.978C128.055 57.4584 128.831 56.3546 130.03 56.3546C132.133 56.3546 132.158 58.139 132.164 58.714ZM153.903 53.88C150.929 53.88 148.85 56.3525 148.887 59.877C148.923 63.5104 150.834 65.8516 154.365 65.8516C155.931 65.8516 157.574 65.1731 158.5 63.9907L156.948 62.4594C156.948 62.4594 155.949 63.2046 154.598 63.2584C152.967 63.323 151.976 62.3636 151.848 60.7881H158.588C159.304 56.1188 157.16 53.88 153.903 53.88ZM156.007 58.714H151.82C151.897 57.4584 152.673 56.3546 153.873 56.3546C155.975 56.3546 156.001 58.139 156.007 58.714Z" fill="#0C2950"/>
</svg>
