<svg width="201" height="91" viewBox="0 0 201 91" fill="none" xmlns="http://www.w3.org/2000/svg">
<path d="M36.2221 66.3285C35.6051 66.2377 34.9781 66.1805 34.3711 66.0527C30.4424 65.2218 28.1145 62.3726 27.9845 58.3159C27.8744 54.8579 29.2852 52.298 32.3701 50.7372C33.0671 50.384 33.8175 50.1217 34.5679 49.8996C36.4522 49.3413 38.3932 49.2134 40.3442 49.2C41.5848 49.1899 42.8255 49.2 44.0628 49.2C44.2062 49.2 44.3496 49.2 44.533 49.2C44.4897 47.9217 44.6631 46.6838 44.3496 45.4729C43.9227 43.8111 42.6854 42.8424 40.8178 42.7549C40.2108 42.7246 39.5871 42.7751 38.9935 42.8996C37.6061 43.1989 36.7857 44.1475 36.5889 45.5603C36.5656 45.7184 36.5489 45.8799 36.5256 46.0784C36.4155 46.0851 36.3021 46.1019 36.1887 46.1019C34.0143 46.0952 31.8431 46.0817 29.6687 46.0884C29.3185 46.0884 29.2518 45.964 29.2485 45.6478C29.2351 43.6968 29.9822 42.0754 31.3162 40.703C33.1405 38.826 35.4016 37.8202 37.943 37.4334C40.5843 37.0331 43.2124 37.0802 45.7603 37.985C48.1582 38.8394 50.0926 40.2758 51.1998 42.6641C51.8101 43.976 52.0569 45.3686 52.0603 46.8083C52.0669 50.5287 52.0769 54.2457 52.0603 57.9661C52.0469 60.5764 52.3204 63.1362 53.2409 65.5952C53.2542 65.6322 53.2509 65.6725 53.2575 65.7499C53.1241 65.7566 53.0007 65.7735 52.8773 65.7735C50.6362 65.7735 48.3984 65.7701 46.1572 65.7802C45.8704 65.7802 45.7203 65.7028 45.6403 65.4236C45.2868 64.1958 44.9166 62.9714 44.5597 61.7705C44.5364 61.8075 44.4663 61.9118 44.3963 62.0161C43.1356 63.9234 41.5582 65.4303 39.2937 66.0426C38.8101 66.1737 38.3065 66.2377 37.8129 66.3352H36.2121L36.2221 66.3285ZM44.5364 53.4855C44.3496 53.4855 44.2062 53.4855 44.0628 53.4855C42.8888 53.4855 41.7149 53.472 40.5443 53.4922C40.014 53.4989 39.4738 53.5191 38.9535 53.6133C37.2926 53.9093 36.122 54.831 35.6351 56.4893C35.0181 58.5884 36.092 60.3342 38.1864 60.6537C38.63 60.721 39.0936 60.7177 39.5438 60.6806C41.3747 60.5293 42.8855 59.7421 44.0461 58.2991C44.3896 57.8752 44.5831 57.4077 44.5564 56.8224C44.5097 55.8704 44.543 54.9151 44.543 53.9631V53.4821L44.5364 53.4855Z" fill="black"/>
<path d="M200.88 27.4122C200.506 28.3844 200.123 29.3531 199.763 30.332C195.46 41.9708 191.158 53.6096 186.863 65.2551C186.739 65.5914 186.596 65.7361 186.216 65.7159C185.485 65.6789 184.748 65.6823 184.018 65.7159C183.671 65.7294 183.541 65.5948 183.427 65.2853C180.453 57.2122 177.468 49.1424 174.483 41.0726C173.175 37.5406 171.868 34.0086 170.564 30.4766C170.487 30.2715 170.437 30.1033 170.144 30.1066C165.838 30.1167 161.529 30.1134 157.224 30.1167C157.171 30.1167 157.121 30.1268 157.02 30.1369V65.6755H153.789V30.1235H140.775V27.3382C140.942 27.3382 141.086 27.3382 141.229 27.3382C151.644 27.3382 162.056 27.3382 172.472 27.3281C172.829 27.3281 172.965 27.4391 173.082 27.7721C176.967 38.7079 180.866 49.6403 184.761 60.5726C184.882 60.9124 184.975 61.2622 185.085 61.6154C185.118 61.5919 185.165 61.5784 185.175 61.5482C186.439 57.9724 187.693 54.3933 188.964 50.821C191.702 43.1178 194.453 35.4214 197.191 27.7183C197.291 27.4324 197.415 27.3248 197.725 27.3315C198.779 27.3517 199.833 27.3349 200.883 27.3315V27.4122H200.88Z" fill="black"/>
<path d="M84.3864 66.3284C83.8228 66.2376 83.2525 66.1771 82.6989 66.0492C79.7006 65.3529 77.873 63.3683 77.3561 60.2029C77.206 59.2812 77.1226 58.336 77.1193 57.4009C77.096 52.7958 77.1093 48.1908 77.1093 43.5857V43.0509H73.0605V37.7394H77.0926V28.1055H84.6165V37.7058H89.2856V43.0441H84.6499C84.6432 43.2056 84.6299 43.3368 84.6299 43.468C84.6299 48.0865 84.6299 52.705 84.6299 57.3235C84.6299 57.6565 84.6599 57.9963 84.7099 58.3259C84.9033 59.5907 85.7304 60.3442 87.0044 60.3442C87.6914 60.3442 88.3785 60.2231 89.1122 60.1491C89.3189 61.9017 89.5324 63.708 89.7492 65.5312C88.6886 65.908 87.6281 66.1535 86.5375 66.2578C86.3808 66.2712 86.2274 66.3082 86.0706 66.3352H84.3897L84.3864 66.3284Z" fill="black"/>
<path d="M8.3971 49.1551V59.9395H26.5031V65.742H0.879883V28.0977H26.4331V33.843H8.40044V43.3458H23.8718V49.1551H8.3971Z" fill="black"/>
<path d="M99.844 65.7459H92.3535V28.1016H99.834V41.1195C99.8641 41.1296 99.8907 41.1397 99.9208 41.1498C100.014 41.0287 100.108 40.9076 100.198 40.7865C103.069 37.0325 108.372 36.0368 112.29 38.5159C114.365 39.8312 115.485 41.8024 116.069 44.1335C116.469 45.7313 116.609 47.3627 116.613 49.0043C116.623 54.457 116.616 59.9064 116.613 65.3591C116.613 65.4768 116.603 65.5946 116.596 65.7359H109.092C109.092 65.571 109.092 65.4028 109.092 65.2346C109.092 59.8357 109.106 54.4402 109.079 49.0413C109.075 48.096 108.975 47.134 108.775 46.2089C108.368 44.3319 107.265 43.3329 105.37 43.0974C103.379 42.8485 101.582 43.2959 100.141 44.8096C99.9241 45.0383 99.8374 45.2772 99.8374 45.5967C99.8441 52.136 99.844 58.6752 99.844 65.2145V65.7426V65.7459Z" fill="black"/>
<path d="M117.77 37.8264C120.404 37.8264 122.936 37.8231 125.47 37.8399C125.604 37.8399 125.79 38.0047 125.864 38.1426C127.191 40.5444 128.509 42.9563 129.826 45.3647C129.959 45.6103 130.096 45.8525 130.259 46.1485C130.94 44.9342 131.593 43.7669 132.244 42.6031C133.081 41.1062 133.915 39.6093 134.762 38.1191C134.835 37.9913 135.005 37.8433 135.132 37.8399C137.663 37.8231 140.198 37.8264 142.803 37.8264C142.719 37.9879 142.659 38.1157 142.589 38.2335C140.115 42.5257 137.64 46.8179 135.152 51.1068C134.992 51.3826 134.979 51.5777 135.142 51.8603C137.71 56.2837 140.265 60.7172 142.826 65.1473C142.919 65.3088 143.006 65.4702 143.123 65.6788C142.959 65.6889 142.836 65.7057 142.709 65.7057C140.335 65.7057 137.963 65.7023 135.589 65.7158C135.289 65.7158 135.149 65.6081 135.005 65.3559C133.514 62.6917 132.01 60.0309 130.51 57.3735C130.44 57.2491 130.363 57.128 130.266 56.9766C129.202 58.8738 128.158 60.7306 127.118 62.5874C126.588 63.5327 126.064 64.4846 125.517 65.4198C125.44 65.551 125.247 65.6956 125.107 65.6956C122.625 65.7124 120.148 65.7091 117.666 65.7057C117.603 65.7057 117.543 65.6889 117.439 65.6754C117.516 65.5308 117.573 65.413 117.636 65.302C120.221 60.8248 122.802 56.3476 125.397 51.8737C125.554 51.6012 125.574 51.4028 125.407 51.1169C122.966 46.8986 120.538 42.6703 118.106 38.442C118.003 38.2604 117.9 38.0787 117.756 37.8264H117.77Z" fill="black"/>
<path d="M63.1555 65.7467H55.6816V37.743H62.6319C62.742 39.0582 62.8487 40.3634 62.9654 41.7997C63.0755 41.5979 63.1355 41.4936 63.1889 41.386C63.6724 40.4206 64.2727 39.5392 65.0665 38.8026C66.7107 37.272 68.9151 36.8011 71.0963 37.5344C70.8328 39.7411 70.5693 41.9612 70.3025 44.2116C70.0991 44.2116 69.919 44.2116 69.7356 44.2116C68.6183 44.2217 67.4977 44.1779 66.3838 44.2654C65.41 44.3428 64.5929 44.844 63.9359 45.5806C63.4123 46.1659 63.1288 46.8017 63.1322 47.6393C63.1655 53.4923 63.1488 59.342 63.1488 65.195C63.1488 65.3666 63.1488 65.5381 63.1488 65.7433L63.1555 65.7467Z" fill="black"/>
</svg>
