<svg width="201" height="91" viewBox="0 0 201 91" fill="none" xmlns="http://www.w3.org/2000/svg">
<path d="M75.9434 28.9727C70.5868 28.9656 67.0393 31.8201 66.5402 36.0883C66.4238 37.0748 66.3039 38.0608 66.1805 39.0464H135.877C135.877 39.0464 136.008 38.0066 136.109 37.172C136.633 32.8722 134.826 28.9732 128.253 28.9732V28.9737C128.253 28.9737 78.7672 28.9758 75.9434 28.9727ZM33.4088 28.974L32.1856 39.0464H63.7928L65.0113 28.9742H33.4083H33.4088V28.974ZM139.507 28.974L138.287 39.0464H172.551C172.551 39.0464 172.593 38.6822 172.745 37.4965C173.579 30.8851 169.359 28.974 165.286 28.974H139.507ZM137.815 42.8815L135.145 64.8641L146.966 64.8599L149.638 42.8857L137.815 42.881V42.8815ZM160.272 42.8815L157.598 64.8641L169.42 64.8599L172.092 42.8857L160.272 42.881V42.8815ZM31.7245 42.8847L29.0498 64.8652H60.6549L61.8194 55.3297L42.029 55.3276L42.5297 51.2157H62.3122L63.3249 42.8852H31.726L31.7245 42.8847ZM65.7168 42.8847C64.8497 48.6216 67.6902 51.2149 71.7159 51.2149C73.9055 51.2149 87.7067 51.2086 87.7067 51.2086L87.2076 55.3268L64.2071 55.3289L63.0489 64.8644C63.0489 64.8644 88.0893 64.8728 89.104 64.8644C89.9421 64.8034 95.7998 64.6416 97.794 59.7981C98.4407 58.2257 99.0125 52.5876 99.1726 51.4041C100.094 44.5299 95.386 42.891 91.6784 42.891C89.6343 42.891 69.7529 42.8847 65.7168 42.8847ZM102.51 42.8847L99.8401 64.8652H111.655L113.319 51.2157H128.16C132.369 51.2157 134.631 48.928 135.051 45.8559C135.185 44.8673 135.307 43.877 135.415 42.8852H102.51V42.8847Z" fill="#E52534"/>
</svg>
