<svg width="201" height="91" viewBox="0 0 201 91" fill="none" xmlns="http://www.w3.org/2000/svg">
<path d="M168.386 31.8104H195.144C195.144 31.8104 200.933 31.5785 200.526 35.4658L199.133 46.7512C199.133 46.7512 198.64 50.127 194.686 50.127H178.753L178.325 53.7235H198.298L197.319 61.5457H164.119L166.158 47.4635C166.158 47.4635 166.404 43.3984 170.866 43.3984H186.666L187.007 39.838H167.22M36.2332 51.0108L37.3939 43.2837H3.5672L1.14453 62.3039H34.5979L35.8456 53.5552H15.7656L16.2589 51.0108H36.2456H36.2332ZM38.9932 43.2869C38.8119 44.0715 38.6957 45.7352 39.3487 47.7683C40.3788 50.8295 44.3473 50.6569 44.3473 50.6569L62.5873 50.4786L61.9345 53.5637L37.7079 53.641L36.6345 62.3066H67.3679C69.7465 62.3066 72.8959 60.7498 74.4119 57.0943C74.6657 56.3454 75.7248 48.3391 75.7031 47.8038C75.5871 45.7358 74.1871 44.0708 72.2244 43.2864L38.9932 43.2869ZM115.047 43.2869L112.609 62.3071H125.529L128.351 43.2869H115.047ZM139.54 43.2869L137.103 62.3071H150.08L152.873 43.2869H139.54ZM153.54 40.1843L153.569 34.984C153.169 32.8788 151.302 31.6673 148.369 31.4531H116.716L115.584 40.1843H153.597H153.54ZM75.3279 62.3071H88.3639L89.8079 50.41H107.648C111.776 49.9048 113.56 46.0892 113.655 43.2837L77.7839 43.2853L75.3279 62.3071ZM114.048 34.2936C112.901 32.6472 111.528 31.6673 108.995 31.4531H46.8079C44.4079 31.6312 43.0879 32.3385 41.3545 34.133C39.9545 35.5248 39.5412 38.9006 39.4212 40.1843H114.273C114.469 38.9006 114.868 35.4833 114.048 34.2936ZM39.1479 31.4531H5.1212L4.00413 40.1843H37.8855L39.1479 31.4531Z" fill="#CC0000"/>
</svg>
