<svg width="201" height="91" viewBox="0 0 201 91" fill="none" xmlns="http://www.w3.org/2000/svg">
<path d="M146.84 55.7785L140.82 42.0865L146.824 28.4069H129.957V21.2353H136.444V0.234375H134.229H103.672V21.1854L106.874 21.1799C106.874 21.1799 106.868 24.0638 106.858 28.4067H95.2272V21.1799L98.2977 21.1854V0.234375H66.3798V21.2353H72.1317V28.4069H55.8963L61.9003 42.0865L55.8799 55.7785H72.1313V76.2855L85.9108 90.2344H116.177L129.957 76.2855V55.7785H146.839" fill="#231F20"/>
<path d="M123.318 14.5949H129.805V6.88477H110.017V14.5878L113.317 14.5823L113.339 28.4099H123.319V14.593L123.318 14.5949ZM113.407 71.7193L108.878 76.0015H92.8512L88.5744 71.7193L88.6072 55.78H78.7818V73.5563L88.6946 83.5904H113.407L123.32 73.5563V55.78H113.379L113.406 71.7193M88.6689 28.4119L88.7017 14.5842H91.9641V6.88655H73.0303V14.5967H78.7821V28.4136H88.6682L88.6689 28.4119Z" fill="#CC0000"/>
<path d="M82.2543 50.2388L82.7752 45.8358L73.9468 45.8249L74.1935 43.9497L83.0322 43.9389L83.5366 40.0952H69.2524L68.0352 50.239H82.2534M128.998 40.1585L127.726 50.2086H133.11L134.382 40.1585H128.998ZM123.909 40.1585H118.361L116.984 50.1819H122.467L123.91 40.1585M114.3 43.8736C115.972 43.8736 116.69 42.7715 116.926 41.5982C117.036 41.028 117.184 40.1553 117.184 40.1553H101.881L100.604 50.2108H105.983L106.876 43.8723H114.3M84.2035 45.8354L83.6772 50.211C83.6772 50.211 95.2576 50.2274 95.575 50.211C95.9644 50.1781 98.0259 50.5015 99.4023 48.1219C99.9177 47.2337 100.203 44.9473 100.263 43.7628C100.389 41.1364 98.7773 40.0947 96.8692 40.0782C95.926 40.0674 87.4655 40.0674 84.6806 40.0947C84.2638 42.743 85.7334 43.8067 87.2248 43.8615C88.2885 43.9053 94.8793 43.8889 94.8793 43.8889L94.6874 45.8244L84.2037 45.8353M119.17 33.6576L118.61 38.3233L134.671 38.3397C134.671 38.3013 134.682 38.1478 134.731 37.6104C135.016 34.5445 133.108 33.6563 131.217 33.6456C128.272 33.6347 119.171 33.6565 119.171 33.6565M134.672 38.3411H134.666C134.666 38.3686 134.672 38.3411 134.672 38.3411ZM85.1204 36.818C85.0162 37.5253 84.901 38.3258 84.901 38.3258L117.4 38.3422C117.4 38.3422 117.57 37.4868 117.554 36.7083C117.516 35.0414 116.243 33.7583 114.637 33.7309C113.052 33.7089 91.8435 33.7309 89.195 33.7309C87.0512 33.7309 85.313 35.518 85.1211 36.8178M83.7506 38.3268L84.277 33.6825L70.0926 33.677L69.5058 38.3267H83.751" fill="white"/>
</svg>
