<svg width="201" height="91" viewBox="0 0 201 91" fill="none" xmlns="http://www.w3.org/2000/svg">
<path d="M172.58 43.1603H193.06C197.914 43.1603 199.36 44.5654 198.844 48.6223L198.196 54.9124C197.796 58.0113 195.096 60.3989 191.196 60.3989H170.826L171.675 52.8906H189.735L190.051 49.5855H180.503C175.838 49.5855 172.384 49.3581 172.384 44.7005L172.533 43.1613L172.58 43.1603ZM200.78 32.228H182.47C176.968 32.228 173.691 33.6443 173.255 37.8008L172.928 40.1681H199.918L200.718 32.228H200.78ZM112.88 43.1095H136.67L135.913 49.6038H121.063L120.713 52.8449H135.563L134.691 60.3532H110.921L112.883 43.1115L112.88 43.1095ZM146.58 40.1082L146.167 32.1914H113.987L113.115 40.1315L146.575 40.1082H146.58ZM162.98 40.1082L165.2 32.1914H173.445L171.362 40.1082H162.979H162.98ZM149.18 40.1082L151.58 32.1924H159.636L160.377 40.1092H149.137L149.18 40.1082ZM153.88 49.7948L154.964 60.3918H165.814L170.53 43.1196H162.193L161.005 47.5037L160.638 43.1196H148.258L146.944 47.5037L146.732 43.1196H138.361L139.461 60.4121H150.601L153.86 49.805L153.88 49.7948ZM84.1804 40.1203L85.0524 32.1975H104.082C111.323 32.1975 111.65 34.7396 111.203 40.1203H84.1834H84.1804ZM108.88 60.4019H99.9294L101.834 43.1196H110.808L108.808 60.4019H108.88ZM83.8504 43.1196H92.8244L90.8674 60.3715H81.9564L83.8494 43.1196H83.8504ZM28.0904 43.1603H48.5604C53.4264 43.1603 54.8894 44.542 54.3784 48.6223L53.6899 54.9063C53.3499 58.0052 50.6299 60.3928 46.7399 60.3928H26.3699L27.2191 52.8845H45.2791L45.5832 49.5733H36.0352C31.4162 49.5733 27.9222 49.3518 27.9222 44.6944L28.0771 43.1552L28.0904 43.1603ZM56.5204 43.1603H82.3104L82.1956 44.1571C81.8054 47.8767 80.9736 49.6486 76.1026 49.6486H64.7826L63.5526 60.398H54.6076L56.5186 43.1563L56.5204 43.1603ZM82.9404 40.1671L83.1704 37.9989C83.6404 33.8536 80.2804 32.228 77.8204 32.228H37.9804C32.4784 32.228 29.1734 33.6392 28.7144 37.8008L28.4562 40.1681H82.9462L82.9404 40.1671ZM2.88542 43.1603H26.6954L25.9894 49.6485H11.0994L10.7724 52.8896H25.6024L24.7224 60.3979H0.982422L2.88742 43.1562L2.88542 43.1603ZM4.06142 32.2392H27.9514L27.1309 40.1793H3.23092L4.06192 32.2392H4.06142Z" fill="#CC0000"/>
</svg>
