<svg width="201" height="91" viewBox="0 0 201 91" fill="none" xmlns="http://www.w3.org/2000/svg">
<path d="M92.1801 40.0744C90.8415 40.2255 89.6852 40.802 89.0538 41.6332C88.7676 42.0082 88.5431 42.5427 88.4729 43.0101C88.4252 43.3431 88.4533 44.054 88.5262 44.331C88.7676 45.2294 89.312 45.8535 90.2577 46.3152C90.819 46.5867 91.3382 46.7518 92.3765 46.9841C92.7245 47.0625 93.1848 47.1716 93.4009 47.2276C94.6076 47.5354 95.0426 47.8405 95.0426 48.389C95.0426 49.1334 94.2624 49.5504 92.9659 49.4944C92.5141 49.4749 92.2362 49.4105 91.9079 49.251C91.6272 49.1138 91.3859 48.8983 91.2231 48.6437C90.9537 48.2155 90.9537 48.2155 89.5814 48.2155C88.9921 48.2155 88.4701 48.2239 88.4224 48.2323C88.3101 48.2547 88.1754 48.3778 88.1502 48.4842C88.1165 48.6101 88.1866 49.0635 88.2821 49.3517C88.6637 50.4963 89.8171 51.3667 91.3915 51.6969C92.3457 51.8984 93.4514 51.9236 94.4252 51.7697C96.8639 51.3779 98.2671 49.8946 98.0791 47.902C98.0089 47.1408 97.7676 46.6175 97.2849 46.1585C96.6787 45.5848 95.7386 45.1986 94.1446 44.8712C92.4411 44.5213 91.776 44.2443 91.5543 43.7937C91.4617 43.6034 91.4673 43.248 91.5655 43.0353C91.7142 42.7162 92.0286 42.5175 92.5169 42.4336C92.834 42.3804 93.3616 42.3944 93.6254 42.4644C94.0716 42.5847 94.4308 42.8534 94.5908 43.1836C94.6806 43.3767 94.7872 43.4942 94.9107 43.539C94.9612 43.5586 95.4214 43.5698 96.2269 43.5698C97.602 43.5698 97.5767 43.5726 97.6693 43.3795C97.7227 43.2676 97.7086 43.0829 97.6216 42.761C97.4925 42.2769 97.2259 41.8515 96.7713 41.3981C96.0445 40.6761 95.0931 40.2451 93.8808 40.0856C93.5243 40.0408 92.5505 40.0324 92.1801 40.0744Z" fill="black"/>
<path d="M173.705 46.3816V51.7129H174.182H174.659V46.3816V41.0502L176.786 41.0446L178.91 41.0362V40.6024V40.1687L174.204 40.1603L169.495 40.1547V40.6024V41.0502H171.6H173.705V46.3816Z" fill="black"/>
<path d="M180.897 40.2022C180.905 40.2414 185.168 51.0328 185.393 51.5926L185.44 51.7129H185.87C186.187 51.7129 186.302 51.7045 186.313 51.6765C186.42 51.4078 190.862 40.2134 190.871 40.1883C190.882 40.1631 190.775 40.1547 190.396 40.1547H189.908L188.202 44.4841C187.262 46.8685 186.355 49.1662 186.184 49.5971C185.968 50.1429 185.87 50.364 185.853 50.3332C185.839 50.3108 184.944 48.0271 183.86 45.2593C182.777 42.4887 181.888 40.2078 181.879 40.1883C181.868 40.1631 181.739 40.1547 181.374 40.1547C180.919 40.1547 180.883 40.1575 180.897 40.2022Z" fill="black"/>
<path d="M77.7606 40.2119C77.6455 40.2399 77.5361 40.3351 77.4856 40.4554C77.4519 40.531 77.4463 41.4349 77.4463 45.9546C77.4463 51.3559 77.4463 51.3615 77.5052 51.4791C77.5473 51.5658 77.595 51.6134 77.682 51.6582C77.8027 51.7142 77.8055 51.7142 81.8186 51.7086C85.8233 51.7002 85.8345 51.7002 85.9103 51.6414C85.9524 51.6106 86.0141 51.5491 86.045 51.5071C86.1011 51.4343 86.1039 51.3951 86.1039 50.5304C86.1039 49.6432 86.1039 49.6264 86.0394 49.5285C85.9159 49.3242 86.0702 49.3354 83.0309 49.3354H80.3088V48.1879V47.0405L82.8457 47.0349L85.3827 47.0265L85.4585 46.9565C85.61 46.8166 85.6128 46.797 85.6128 45.9323C85.6128 45.1878 85.61 45.1179 85.5567 45.0115C85.5258 44.9499 85.4613 44.8744 85.4107 44.8436C85.3209 44.7904 85.2508 44.7876 82.8149 44.7792L80.3088 44.7708V43.6682V42.5627H82.9776C85.9299 42.5627 85.7672 42.5739 85.9019 42.3836C85.9608 42.2997 85.9636 42.2773 85.972 41.4069C85.9804 40.5422 85.9776 40.5142 85.9187 40.4106C85.8878 40.3518 85.8205 40.2819 85.7728 40.2511C85.6858 40.2007 85.5679 40.1979 81.7681 40.1923C79.6156 40.1923 77.8111 40.1979 77.7606 40.2119Z" fill="black"/>
<path d="M99.9588 40.2106C99.9083 40.2218 99.8326 40.261 99.7933 40.2974C99.6501 40.4317 99.6445 40.4737 99.6445 41.484C99.6445 42.4887 99.6501 42.5391 99.7877 42.665C99.8241 42.6986 99.9111 42.7378 99.9813 42.7546C100.06 42.7742 100.66 42.7854 101.558 42.7854H103.012L103.018 47.1344L103.026 51.4834L103.096 51.559C103.237 51.7101 103.254 51.7129 104.505 51.7129C105.796 51.7129 105.793 51.7129 105.922 51.5198L105.987 51.4246V47.1064V42.7882L107.528 42.7798C109.035 42.7714 109.071 42.7714 109.147 42.7126C109.189 42.6818 109.251 42.6202 109.282 42.5783C109.338 42.5027 109.341 42.4691 109.341 41.4896C109.341 40.5465 109.338 40.4709 109.287 40.3898C109.259 40.3422 109.195 40.2778 109.147 40.2498C109.063 40.1994 108.914 40.1966 104.556 40.1911C102.078 40.1911 100.009 40.1966 99.9588 40.2106Z" fill="black"/>
<path d="M111.956 40.2218C111.9 40.2414 111.832 40.2778 111.807 40.2974C111.678 40.4037 111.684 40.1379 111.684 45.9562V51.4246L111.748 51.5198C111.877 51.7129 111.874 51.7129 113.143 51.7129C114.204 51.7129 114.288 51.7073 114.397 51.6569C114.468 51.6261 114.541 51.5646 114.574 51.5114C114.628 51.4218 114.63 51.3743 114.63 49.5356V47.6549H115.481H116.328L117.296 49.5216C118.048 50.9713 118.29 51.4134 118.382 51.5058C118.579 51.7073 118.618 51.7129 119.96 51.7129C121.037 51.7129 121.135 51.7101 121.222 51.6625C121.346 51.5953 121.43 51.4498 121.41 51.3267C121.402 51.2763 120.883 50.3136 120.254 49.1914C119.628 48.0663 119.118 47.1428 119.123 47.1372C119.129 47.1316 119.236 47.0756 119.359 47.0112C120.212 46.5663 120.79 45.8442 121.037 44.9179C121.121 44.5988 121.124 44.5709 121.124 43.9608C121.127 43.2835 121.102 43.096 120.953 42.6454C120.56 41.4756 119.561 40.6612 118.135 40.3534C117.439 40.205 117.411 40.2022 114.644 40.1939C112.5 40.1855 112.046 40.1883 111.956 40.2218ZM116.976 42.5195C117.689 42.6566 118.082 43.1464 118.082 43.9048C118.082 44.4953 117.852 44.9151 117.409 45.1306C117.094 45.2845 116.912 45.3041 115.708 45.3041H114.63V43.8908V42.4775H115.694C116.519 42.4775 116.808 42.4859 116.976 42.5195Z" fill="black"/>
<path d="M124.214 40.2078C124.08 40.2414 124.007 40.3002 123.948 40.4233C123.892 40.5353 123.892 40.6192 123.892 45.9646C123.892 51.1644 123.894 51.3966 123.942 51.489C123.976 51.5506 124.04 51.6121 124.116 51.6485L124.24 51.7129H128.216C130.958 51.7129 132.218 51.7045 132.274 51.6821C132.415 51.6317 132.502 51.5198 132.535 51.3575C132.558 51.2595 132.563 50.9265 132.558 50.4115C132.549 49.6615 132.546 49.6139 132.49 49.5412C132.459 49.4992 132.398 49.4376 132.356 49.4068C132.28 49.3481 132.257 49.3481 129.516 49.3397L126.754 49.3341V48.1867V47.0392H129.263H131.769L131.864 46.9749C132.055 46.8489 132.061 46.8153 132.052 45.8862C132.044 45.097 132.041 45.0522 131.985 44.9795C131.954 44.9375 131.893 44.8759 131.85 44.8451C131.775 44.7864 131.749 44.7864 129.263 44.778L126.754 44.7696V43.6669V42.5615H129.42C132.061 42.5615 132.089 42.5615 132.201 42.5027C132.285 42.4607 132.33 42.4131 132.37 42.3208C132.423 42.206 132.426 42.1417 132.417 41.3329C132.409 40.5073 132.406 40.4625 132.35 40.3898C132.319 40.3478 132.257 40.2862 132.215 40.2554C132.139 40.1966 132.131 40.1966 128.219 40.1911C126.064 40.1911 124.262 40.1966 124.214 40.2078Z" fill="black"/>
<path d="M135.563 40.2078C135.44 40.247 135.347 40.3226 135.302 40.4205C135.263 40.5045 135.257 41.0446 135.257 45.9534C135.257 52.0963 135.235 51.5254 135.482 51.6513L135.608 51.7129L139.501 51.7073C143.382 51.6989 143.393 51.6989 143.469 51.6401C143.511 51.6093 143.573 51.5478 143.603 51.5058C143.66 51.433 143.662 51.3855 143.671 50.5711C143.679 50.0057 143.671 49.6643 143.648 49.5692C143.615 49.4152 143.522 49.3033 143.387 49.2529C143.334 49.2305 142.498 49.2221 140.783 49.2221H138.26L138.255 44.8451C138.246 40.4709 138.246 40.4653 138.187 40.3898C138.156 40.3478 138.095 40.2862 138.053 40.2554C137.977 40.1994 137.94 40.1966 136.806 40.1911C136.164 40.1883 135.603 40.1966 135.563 40.2078Z" fill="black"/>
<path d="M146.236 40.2106C146.121 40.2386 146.012 40.3366 145.961 40.4541C145.927 40.5297 145.922 41.4336 145.922 45.9534C145.922 51.1728 145.925 51.3659 145.975 51.4778C146.014 51.5646 146.059 51.6093 146.152 51.6541L146.275 51.7129H150.131C153.968 51.7129 153.987 51.7129 154.105 51.6541C154.192 51.6121 154.24 51.5646 154.282 51.4778C154.338 51.3659 154.341 51.3099 154.341 50.4675C154.341 49.6251 154.338 49.5692 154.282 49.4572C154.24 49.3705 154.192 49.3229 154.105 49.2809C153.987 49.2221 153.954 49.2221 151.456 49.2221H148.925V44.8787C148.925 40.608 148.925 40.5353 148.869 40.4205C148.838 40.359 148.773 40.2834 148.723 40.2526C148.636 40.1994 148.571 40.1966 147.479 40.1911C146.848 40.1883 146.287 40.1966 146.236 40.2106Z" fill="black"/>
<path d="M159.942 40.2134C159.799 40.247 159.673 40.3254 159.597 40.4317C159.499 40.5605 155.603 51.1979 155.598 51.3407C155.595 51.4806 155.654 51.5814 155.78 51.6569C155.864 51.7101 155.929 51.7129 156.945 51.7129C157.666 51.7129 158.062 51.7017 158.149 51.6793C158.399 51.6177 158.438 51.5506 158.803 50.5655L159.131 49.6839L161.32 49.6755C163.051 49.6699 163.515 49.6783 163.537 49.7035C163.551 49.7231 163.708 50.1177 163.885 50.5767C164.059 51.0384 164.23 51.4526 164.261 51.4974C164.292 51.545 164.368 51.6093 164.429 51.6401C164.536 51.6961 164.589 51.6989 165.664 51.7073C166.691 51.7129 166.795 51.7101 166.882 51.6653C167.014 51.5981 167.093 51.4806 167.09 51.3659C167.087 51.2343 163.197 40.5885 163.102 40.4513C163.057 40.3842 162.97 40.3114 162.886 40.2694L162.748 40.1966L161.398 40.1911C160.635 40.1883 160.004 40.1994 159.942 40.2134ZM162.097 45.097C162.504 46.25 162.847 47.2211 162.855 47.2547L162.875 47.3191H161.342C160.124 47.3191 159.81 47.3107 159.819 47.2827C159.827 47.2659 160.172 46.2892 160.585 45.1166C161 43.9412 161.342 42.9869 161.348 42.9897C161.354 42.9952 161.69 43.944 162.097 45.097Z" fill="black"/>
<path d="M36.4159 18.7152L35.2751 24.0585C33.2615 33.4837 25.854 40.8707 16.4018 42.8787L11.0204 44.021C10.944 44.8626 10.9043 45.7158 10.9043 46.5776C10.9043 47.4037 10.9409 48.222 11.0111 49.0301L16.4018 50.174C25.854 52.1812 33.2615 59.569 35.2751 68.9935L36.4268 74.3895L36.4377 74.4408C37.2676 74.5147 38.1084 74.5527 38.957 74.5527C39.7884 74.5527 40.6121 74.5162 41.4248 74.4455L41.4388 74.3802H41.4404L42.5913 68.9935C44.6041 59.569 52.0116 52.1812 61.4622 50.174L66.807 49.0394V49.0379L66.9044 49.0169C66.9746 48.2126 67.0096 47.3998 67.0096 46.5776C67.0096 45.719 66.9715 44.8696 66.8951 44.0311L66.807 44.0125L61.4622 42.8787C52.0116 40.8707 44.6041 33.4837 42.5913 24.0585L41.449 18.7113C40.6277 18.6391 39.797 18.6025 38.957 18.6025C38.1006 18.6025 37.2528 18.6406 36.4159 18.7152ZM24.9065 46.5264C31.9189 45.0375 37.4398 39.5318 38.9328 32.5388C40.4258 39.5318 45.9468 45.0375 52.9591 46.5264C45.9468 48.0152 40.4258 53.5209 38.9328 60.5139C37.4398 53.5209 31.9189 48.0152 24.9065 46.5264Z" fill="url(#paint0_linear_2048_37875)"/>
<defs>
<linearGradient id="paint0_linear_2048_37875" x1="38.9327" y1="86.119" x2="38.9327" y2="6.93308" gradientUnits="userSpaceOnUse">
<stop stop-color="#124A84"/>
<stop offset="0.15" stop-color="#124A84"/>
<stop offset="0.75" stop-color="#6FCCDE"/>
<stop offset="1" stop-color="#6FCCDE"/>
</linearGradient>
</defs>
</svg>
