<svg width="201" height="92" viewBox="0 0 201 92" fill="none" xmlns="http://www.w3.org/2000/svg">
<path d="M61.8799 31.9903V14.5843C61.8799 14.5843 62.14 13.1983 63.7852 13.1983H71.9248C71.9248 13.1983 72.4513 13.1479 72.8752 13.7653L80.4982 22.0318L73.1722 31.5295C73.1722 31.5295 72.7978 31.9795 71.2327 31.9903C69.1465 32.0092 61.8799 31.9903 61.8799 31.9903Z" fill="black"/>
<path fill-rule="evenodd" clip-rule="evenodd" d="M92.6924 9.40713L102.26 7.79883L112.311 15.9195L102.24 17.6439L92.6924 9.40713Z" fill="black"/>
<path fill-rule="evenodd" clip-rule="evenodd" d="M76.4287 12.333L86.1271 10.623L96.4546 18.7059L86.479 20.6742L76.4287 12.333Z" fill="black"/>
<path fill-rule="evenodd" clip-rule="evenodd" d="M107.165 6.75239L116.521 5.05859L126.65 13.2459L116.817 14.8947L107.165 6.75239Z" fill="black"/>
<path fill-rule="evenodd" clip-rule="evenodd" d="M121.543 4.10253L136.092 1.42143C136.092 1.42143 138.603 0.815727 139.123 2.46093C139.642 4.10613 140.681 9.21543 140.681 9.21543C140.681 9.21543 141.106 10.4475 139.556 10.8606L131.502 12.333L121.543 4.10253Z" fill="black"/>
<path d="M76.5957 31.9999H86.4048L92.1144 24.8008L82.4655 24.9241L76.5957 31.9999Z" fill="black"/>
<path d="M96.2144 24.7637L108.597 24.8447L102.838 31.9916H90.0215L96.2144 24.7637Z" fill="black"/>
<path d="M106.969 31.8278L112.797 24.8906H123.416L117.387 31.8188L106.969 31.8278Z" fill="black"/>
<path d="M121.781 31.9181L127.677 24.7226L138.34 24.7163C138.34 24.7163 140.082 24.5363 140.14 25.4174L140.16 29.6924C140.16 29.6924 140.52 31.8524 139.227 31.838L121.781 31.9181Z" fill="black"/>
<path d="M62.0527 35.4548H140.338L140.428 74.9441C140.428 74.9441 140.688 77.7143 137.831 77.8016C134.973 77.8889 64.4809 77.8916 64.4809 77.8916C64.4809 77.8916 61.8799 77.6324 61.8799 75.0305C61.8799 72.4286 62.0527 35.4548 62.0527 35.4548Z" fill="black"/>
<path d="M115.971 45.7276V71.9176H110.038V45.7276H104.926V40.9414H121.083V45.7276H115.971Z" fill="#096BB7"/>
<path d="M133.36 71.9176H126.559L121.722 40.9414H127.518L130.302 62.6944H130.393L133.451 40.9414H138.243L133.36 71.9176Z" fill="#096BB7"/>
<path d="M69.9657 88.7484V91.3134H66.5601V88.7484H67.0776V86.8512H65.3901V88.7484H65.9076V91.3134H62.502V88.7484H63.0195V82.4988H62.502V79.9473H65.9076V82.4988H65.3901V84.054H67.0776V82.4988H66.5601V79.9473H69.9657V82.4988H69.4482V88.7484H69.9657Z" fill="black"/>
<path d="M76.4161 79.9473H72.6163L71.2402 81.7617V89.5017L72.6163 91.3134H76.4161L77.7931 89.499V81.759L76.4161 79.9473ZM75.4261 88.3929L75.1561 88.7529H73.8961L73.6171 88.3929V82.8669L73.8961 82.4988H75.1561L75.4261 82.8669V88.3929Z" fill="black"/>
<path d="M79.1191 91.3134V88.7484H79.6366V82.4988H79.1191V79.9473H82.5256V82.4988H82.0072V88.7484H83.5606V88.0662H85.5064V91.3134H79.1191Z" fill="black"/>
<path d="M86.6562 91.3134V88.7484H87.1738V82.4988H86.6562V79.9473H90.0618V82.4988H89.5443V88.7484H91.0978V88.0662H93.0436V91.3134H86.6562Z" fill="black"/>
<path d="M101.073 82.4988L98.278 86.1825V88.7484H98.7955V91.3134H95.389V88.7484H95.9065V86.1825L93.112 82.4988H92.3047V79.9473H96.4042V82.4988H96.0622L97.0972 83.8632L98.1331 82.4988H97.7803V79.9473H101.756V82.4988H101.073Z" fill="black"/>
<path d="M115.85 82.4988L114.276 88.7484H114.556V91.3134H110.146V88.7484H110.425L109.742 86.0196L109.048 88.7484H109.328V91.3134H104.918V88.7484H105.197L103.624 82.4988H102.93V79.9473H106.532V82.4988H106.191L107.143 86.2509L108.086 82.4988H107.806V79.9473H111.657V82.4988H111.388L112.33 86.2509L113.282 82.4988H113.002V79.9473H116.533V82.4988H115.85Z" fill="black"/>
<path d="M122.85 79.9473H119.05L117.673 81.7617V89.5017L119.05 91.3161H122.85L124.227 89.5017V81.7617L122.85 79.9473ZM121.86 88.3929L121.59 88.7529H120.33L120.051 88.3929V82.8669L120.33 82.4988H121.59L121.86 82.8669V88.3929Z" fill="black"/>
<path d="M130.729 79.9473H126.929L125.553 81.7617V89.5017L126.929 91.3134H130.729L132.106 89.499V81.759L130.729 79.9473ZM129.739 88.3929L129.469 88.7529H128.209L127.93 88.3929V82.8669L128.209 82.4988H129.469L129.739 82.8669V88.3929Z" fill="black"/>
<path d="M138.774 79.9473H133.438V82.4988H133.955V88.7484H133.438V91.3134H138.774L140.151 89.499V81.759L138.774 79.9473ZM137.784 88.3929L137.505 88.7529H136.318V82.4988H137.497L137.777 82.8669L137.784 88.3929Z" fill="black"/>
<path d="M80.1448 67.1323V71.9176H66.4072V40.9414H79.8253V45.7276H72.34V53.6458H77.8624V58.6921H72.34V67.1323H80.1448Z" fill="#CB0525"/>
<path d="M89.4084 45.1182C87.9936 45.1182 87.1719 46.2495 87.1719 47.946C87.1719 53.2101 97.9431 54.9939 97.9431 63.9993C97.9431 68.7414 95.1135 72.5268 89.7738 72.5268C83.4297 72.5268 82.1517 67.2168 82.1517 62.9553H87.4473C87.4473 64.6959 87.4473 67.7415 90.0033 67.7415C91.9662 67.7415 92.6502 66.0009 92.6502 64.7391C92.6502 59.214 81.8799 57.9522 81.8799 48.7722C81.8799 44.1174 84.5268 40.332 89.547 40.332C94.8867 40.332 96.9405 44.202 97.0773 49.773H91.7817C91.7817 48.0324 91.7817 45.1182 89.4084 45.1182Z" fill="#CB0525"/>
<path d="M106.497 66.25H100.521V71.9659H106.497V66.25Z" fill="white"/>
</svg>
