<svg width="201" height="91" viewBox="0 0 201 91" fill="none" xmlns="http://www.w3.org/2000/svg">
<path d="M54.0914 60.6348H78.3294H142.902V61.8882H72.2863H17.5898H1.61523V61.6659V60.6348H54.0914Z" fill="black"/>
<path d="M28.2703 23.3828L28.0259 29.2009H27.953H14.8021H10.7136C10.5267 31.4929 10.5046 33.9142 10.4002 36.2377H14.462H25.3576C25.4112 38.4721 25.2511 40.7173 25.1795 42.9812H19.1464H10.3044C10.2134 42.9477 10.1397 42.9035 10.1176 42.9812L9.83974 50.6474H19.9024H26.9057C26.8501 52.7037 26.7015 54.5625 26.5877 56.6429H1.74902L3.12772 23.3828H28.2703Z" fill="black"/>
<path d="M37.6463 23.4092L38.6159 26.4284L46.0062 49.7102C45.9928 49.7544 46.0665 49.7859 46.0752 49.8194L46.3263 49.4638L51.0416 39.1233L46.0658 23.4092C48.3244 23.3918 50.5876 23.3784 52.9312 23.4092C53.7293 25.495 54.3695 27.7094 55.1723 29.7898L55.3504 29.5655L58.0831 23.4092C60.4728 23.3269 62.8673 23.3871 65.2953 23.4092L58.292 39.0677L60.973 47.1557C61.2596 47.9787 61.5194 48.8123 61.8288 49.6125L62.3798 48.5297L73.4429 23.4085H80.8707L80.6149 24.0822L72.1137 43.0719L67.8719 52.4047C67.3248 53.859 66.6425 55.2411 66.009 56.678C63.0407 56.753 59.83 56.7758 56.78 56.678L54.19 48.503L54.0876 48.3985L53.4916 49.5636L50.21 56.678H49.2029H41.0526L39.4804 52.1248L30.1562 23.4092H37.6463Z" fill="black"/>
<path d="M83.0181 23.3828H108.005C108.068 25.1947 107.863 27.0107 107.778 28.8876L98.7877 28.9652L97.3983 54.0014L97.2383 56.6516C94.9904 56.7722 92.6321 56.6202 90.326 56.6516L90.7639 43.3943L91.3284 29.0429L91.2286 28.9779H82.7422C82.8426 27.0937 82.8828 25.2463 83.0181 23.3828Z" fill="black"/>
<path d="M111.919 23.6836H122.27L134.427 49.5286C134.468 49.5467 134.476 49.6043 134.543 49.5869L134.614 49.4824L135.93 23.6836H142.556H142.675L141.613 44.1772L140.955 56.9457H129.661L125.806 48.8088L117.397 31.2875L117.327 31.2098L117.251 31.3163L115.681 56.9464H109.002H108.9L110.497 23.6843L111.919 23.6836Z" fill="black"/>
<path d="M5.34675 68.6655H4.14416C4.04439 68.6655 4.01292 68.7358 4.00622 68.8516H3.89239V67.5446H4.00555C4.01225 67.6691 4.04372 67.7133 4.14349 67.7133H6.8895V67.8244C6.77165 67.8385 6.73817 67.8827 6.73817 67.9845V69.5232C6.73817 69.6076 6.75625 69.6879 6.85133 69.6879H6.8982V69.7944C6.05116 70.2611 5.04811 70.4968 3.9011 70.4968C2.34964 70.4968 0.879883 69.6745 0.879883 67.9892C0.879883 66.3038 2.34964 65.4902 3.90177 65.4902C4.51311 65.4902 4.7863 65.5344 5.41773 65.7172C5.7244 65.8016 6.02036 65.9536 6.09134 65.9536C6.14692 65.9536 6.20249 65.9174 6.22459 65.8826L6.33373 65.9181L5.73378 67.1455L5.62463 67.0825C5.63334 67.0604 5.64204 67.0243 5.64204 66.9801C5.64204 66.802 4.71733 66.5402 3.94797 66.5402C3.06075 66.5402 2.25389 67.0069 2.25389 68.0119C2.25389 69.0123 3.23217 69.4522 4.04372 69.4522C4.54792 69.4522 4.95973 69.3853 5.34675 69.2741V68.6655Z" fill="black"/>
<path d="M9.70429 69.3067H12.8989C13.0081 69.3067 13.0409 69.2625 13.0677 69.0402H13.1808V70.6854H13.0677C13.0409 70.4899 13.0074 70.441 12.8989 70.441H8.04102V70.3298C8.28341 70.3124 8.30551 70.2455 8.30551 70.1604V65.8295C8.30551 65.7498 8.28341 65.6782 8.04102 65.6608V65.5449H9.9661V65.6608C9.72639 65.6782 9.70362 65.7498 9.70362 65.8295L9.70429 69.3067Z" fill="black"/>
<path d="M19.8466 67.9891C19.8466 69.6168 18.5329 70.4967 16.9473 70.4967C15.3576 70.4967 14.0459 69.6168 14.0459 67.9891C14.0459 66.3613 15.3576 65.4941 16.9473 65.4941C18.5322 65.4948 19.8466 66.3613 19.8466 67.9891ZM15.4219 67.9891C15.4219 68.8656 16.1357 69.3678 16.9473 69.3678C17.7561 69.3678 18.4726 68.8656 18.4726 67.9891C18.4726 67.1172 17.7568 66.6284 16.9473 66.6284C16.1357 66.6284 15.4219 67.1172 15.4219 67.9891Z" fill="black"/>
<path d="M21.3739 65.8287C21.3739 65.749 21.3451 65.6774 21.1094 65.6647V65.5488H24.6556C25.6626 65.5488 26.3965 65.9225 26.3965 66.8432C26.3965 67.3989 26.0229 67.7458 25.5026 67.8569V67.8743C26.1233 68.0437 26.5766 68.3772 26.5766 69.0662C26.5766 69.8128 26.0229 70.4355 24.7024 70.4355H21.11V70.3291C21.3457 70.3117 21.3745 70.2447 21.3745 70.1597L21.3739 65.8287ZM22.77 67.3895H24.0328C24.8283 67.3895 25.0372 67.332 25.0372 66.9577C25.0372 66.5887 24.8283 66.5398 24.0328 66.5398H22.77V67.3895ZM22.77 69.4573H24.3509C24.9977 69.4573 25.2622 69.3059 25.2622 68.8968C25.2622 68.4884 24.9977 68.341 24.3509 68.341H22.77V69.4573Z" fill="black"/>
<path d="M29.3598 69.3863C29.1174 70.0579 29.0645 70.1784 29.0645 70.24C29.0645 70.2889 29.1046 70.3291 29.2312 70.3291V70.4355H27.584V70.3291C27.7105 70.3023 27.7708 70.2581 27.8217 70.1155C27.9061 69.8932 29.487 65.8026 29.487 65.7577C29.487 65.6908 29.3778 65.6687 29.3002 65.6647V65.5488H31.7234V65.6647C31.619 65.6687 31.5547 65.6908 31.5547 65.7845C31.5547 65.8555 32.6977 68.6303 33.2755 70.0532C33.3713 70.2708 33.4269 70.3291 33.5313 70.3291V70.4355H31.704V70.3291C31.8373 70.3197 31.8821 70.2708 31.8821 70.2226C31.8821 70.1784 31.5995 69.4974 31.5687 69.3863H29.3598ZM29.5914 68.6303H31.3257L30.4204 66.4247L29.5914 68.6303Z" fill="black"/>
<path d="M36.4115 69.3067H39.6129C39.722 69.3067 39.7528 69.2625 39.7816 69.0402H39.8995V70.6854H39.7816C39.7528 70.4899 39.7214 70.441 39.6129 70.441H34.7637V70.3298C34.9907 70.3124 35.0215 70.2455 35.0215 70.1604V65.8295C35.0215 65.7498 34.9907 65.6782 34.7637 65.6608V65.5449H36.6801V65.6608C36.4464 65.6782 36.4109 65.7498 36.4109 65.8295L36.4115 69.3067Z" fill="black"/>
<path d="M48.5342 67.3537L48.4385 67.2868C48.4518 67.2506 48.4605 67.2111 48.4605 67.1441C48.4605 66.9573 47.7427 66.7169 46.9486 66.7169C46.1973 66.7169 45.2231 67.0457 45.2231 67.9932C45.2231 68.94 46.1973 69.2688 46.9486 69.2688C47.278 69.2688 48.5114 69.011 48.5114 68.7445C48.5114 68.6909 48.478 68.6554 48.4599 68.6112L48.5597 68.5402L49.5158 70.0073L49.4067 70.0696C49.3799 70.0073 49.3424 69.9899 49.2754 69.9899C49.0933 69.9899 48.2329 70.4968 46.8388 70.4968C45.3489 70.4968 43.7754 69.6611 43.7754 67.9938C43.7754 66.3266 45.3496 65.4902 46.8388 65.4902C47.5901 65.4902 48.1124 65.588 48.486 65.6864C48.8462 65.7842 49.0284 65.8645 49.1281 65.8645C49.1837 65.8645 49.2279 65.8378 49.2701 65.7842L49.3699 65.8203L48.5342 67.3537Z" fill="black"/>
<path d="M52.1889 69.3863C51.9579 70.0579 51.8929 70.1784 51.8929 70.24C51.8929 70.2889 51.9351 70.3291 52.0617 70.3291V70.4355H50.4238V70.3291C50.5504 70.3023 50.6106 70.2581 50.6548 70.1155C50.7459 69.8932 52.3174 65.8026 52.3174 65.7577C52.3174 65.6908 52.2177 65.6687 52.1353 65.6647V65.5488H54.5566V65.6647C54.4521 65.6687 54.3898 65.6908 54.3898 65.7845C54.3898 65.8555 55.5369 68.6303 56.1154 70.0532C56.2065 70.2708 56.2506 70.3291 56.3752 70.3291V70.4355H54.5345V70.3291C54.6724 70.3197 54.7166 70.2708 54.7166 70.2226C54.7166 70.1784 54.43 69.4974 54.4032 69.3863H52.1889ZM52.4313 68.6303H54.1568L53.2609 66.4247L52.4313 68.6303Z" fill="black"/>
<path d="M58.5824 70.4403V70.3292C58.8134 70.3117 58.8469 70.2448 58.8469 70.1598V66.6832H57.2439C57.1441 66.6832 57.106 66.7274 57.0752 66.941H56.9707V65.2871H57.0752C57.106 65.5 57.1441 65.5449 57.2439 65.5449H61.8373C61.9418 65.5449 61.9793 65.5007 62.0061 65.2871H62.1152V66.941H62.0061C61.9793 66.7281 61.9411 66.6832 61.8373 66.6832H60.2343V70.1598C60.2343 70.2448 60.2631 70.3117 60.5035 70.3292V70.4403H58.5824Z" fill="black"/>
<path d="M68.6087 70.1585C68.6087 70.2435 68.6395 70.3105 68.8712 70.3279V70.439H66.9501V70.3279C67.1878 70.3105 67.2099 70.2435 67.2099 70.1585V68.4423H64.796V70.1585C64.796 70.2435 64.8248 70.3105 65.0558 70.3279V70.439H63.1348V70.3279C63.3745 70.3105 63.3952 70.2435 63.3952 70.1585V65.8275C63.3952 65.7479 63.3752 65.6762 63.1348 65.6588V65.543H65.0558V65.6588C64.8248 65.6762 64.796 65.7479 64.796 65.8275V67.304H67.2099V65.8275C67.2099 65.7479 67.1878 65.6762 66.9501 65.6588V65.543H68.8712V65.6588C68.6402 65.6762 68.6087 65.7479 68.6087 65.8275V70.1585Z" fill="black"/>
<path d="M75.9793 67.9891C75.9793 69.6168 74.6582 70.4967 73.0713 70.4967C71.4951 70.4967 70.1699 69.6168 70.1699 67.9891C70.1699 66.3613 71.4951 65.4941 73.0713 65.4941C74.6589 65.4948 75.9793 66.3613 75.9793 67.9891ZM71.5506 67.9891C71.5506 68.8656 72.2597 69.3678 73.0713 69.3678C73.8848 69.3678 74.6013 68.8656 74.6013 67.9891C74.6013 67.1172 73.8855 66.6284 73.0713 66.6284C72.2597 66.6284 71.5506 67.1172 71.5506 67.9891Z" fill="black"/>
<path d="M78.9339 69.3067H82.1306C82.2397 69.3067 82.2725 69.2625 82.2993 69.0402H82.4085V70.6854H82.2993C82.2725 70.4899 82.239 70.441 82.1306 70.441H77.2773V70.3298C77.5084 70.3124 77.5371 70.2455 77.5371 70.1604V65.8295C77.5371 65.7498 77.5084 65.6782 77.2773 65.6608V65.5449H79.1984V65.6608C78.9587 65.6782 78.9339 65.7498 78.9339 65.8295V69.3067Z" fill="black"/>
<path d="M83.6699 70.439V70.3279C83.9123 70.3105 83.9344 70.2435 83.9344 70.1585V65.8275C83.9344 65.7479 83.9123 65.6762 83.6699 65.6588V65.543H85.593V65.6588C85.3593 65.6762 85.3325 65.7479 85.3325 65.8275V70.1585C85.3325 70.2435 85.3593 70.3105 85.593 70.3279V70.439H83.6699Z" fill="black"/>
<path d="M91.8333 67.3537L91.7375 67.2868C91.7462 67.2506 91.7529 67.2111 91.7529 67.1441C91.7529 66.9573 91.0411 66.7169 90.2497 66.7169C89.4937 66.7169 88.5134 67.0457 88.5134 67.9932C88.5134 68.94 89.4937 69.2688 90.2497 69.2688C90.5764 69.2688 91.8058 69.011 91.8058 68.7445C91.8058 68.6909 91.7703 68.6554 91.7522 68.6112L91.8567 68.5402L92.8176 70.0073L92.6977 70.0696C92.6796 70.0073 92.6354 69.9899 92.5712 69.9899C92.389 69.9899 91.5239 70.4968 90.1412 70.4968C88.6513 70.4968 87.0664 69.6611 87.0664 67.9938C87.0664 66.3266 88.652 65.4902 90.1412 65.4902C90.8811 65.4902 91.4061 65.588 91.7844 65.6864C92.1446 65.7842 92.3314 65.8645 92.4265 65.8645C92.4841 65.8645 92.5263 65.8378 92.5624 65.7842L92.6716 65.8203L91.8333 67.3537Z" fill="black"/>
<path d="M97.2761 65.8295C97.2761 65.7498 97.2473 65.6782 97.0156 65.6608V65.5449H99.2614V65.6608C99.0458 65.6695 98.9923 65.7277 98.9923 65.7853C98.9923 65.8878 100.609 67.5952 101.26 68.311V65.8295C101.26 65.7183 101.183 65.6695 101.06 65.6608V65.5449H102.763V65.6608C102.527 65.6782 102.5 65.7498 102.5 65.8295V70.1604C102.5 70.2455 102.527 70.3124 102.763 70.3298V70.441H100.992V70.3298C101.165 70.3298 101.214 70.2897 101.214 70.2274C101.214 70.1075 100.978 69.9917 98.5195 67.2444V70.1604C98.5195 70.2455 98.5463 70.3124 98.784 70.3298V70.441H97.0163V70.3298C97.2473 70.3124 97.2768 70.2455 97.2768 70.1604L97.2761 65.8295Z" fill="black"/>
<path d="M108.117 68.6559H108.014C107.988 68.5314 107.917 68.443 107.735 68.443H106V69.3054H108.984C109.086 69.3054 109.126 69.2612 109.153 69.0295H109.264V70.6439H109.153C109.126 70.4886 109.086 70.439 108.984 70.439H104.346V70.3279C104.582 70.3105 104.609 70.2435 104.609 70.1585V65.8275C104.609 65.7478 104.582 65.6762 104.346 65.6588V65.543H108.984C109.086 65.543 109.126 65.4988 109.153 65.2852H109.264V66.9036H109.153C109.126 66.69 109.086 66.6451 108.984 66.6451H106V67.4145H107.735C107.917 67.4145 107.988 67.3207 108.014 67.2049H108.117V68.6559Z" fill="black"/>
<path d="M111.954 70.4403V70.3292C112.186 70.3117 112.221 70.2448 112.221 70.1598V66.6832H110.616C110.514 66.6832 110.479 66.7274 110.438 66.941H110.336V65.2871H110.438C110.479 65.5 110.513 65.5449 110.616 65.5449H115.209C115.307 65.5449 115.347 65.5007 115.378 65.2871H115.48V66.941H115.378C115.347 66.7281 115.307 66.6832 115.209 66.6832H113.613V70.1598C113.613 70.2448 113.635 70.3117 113.875 70.3292V70.4403H111.954Z" fill="black"/>
<path d="M117.478 70.4403V70.3292C117.579 70.3118 117.664 70.289 117.664 70.1691C117.664 70.1069 116.255 65.9273 116.215 65.7672C116.197 65.6875 116.152 65.6608 116.121 65.6608V65.5449H117.819V65.6608C117.708 65.6782 117.624 65.6962 117.624 65.8027C117.624 65.9005 118.305 67.924 118.54 68.6753H118.549C118.78 67.9729 119.425 65.8918 119.425 65.8027C119.425 65.6962 119.305 65.6782 119.229 65.6608V65.5449H121.44V65.6608C121.364 65.6875 121.284 65.705 121.284 65.8027C121.284 65.8563 121.933 68.0619 122.058 68.6753H122.085C122.196 68.2307 122.991 65.936 122.991 65.8208C122.991 65.705 122.889 65.6875 122.804 65.6608V65.5449H124.36V65.6608C124.267 65.6695 124.223 65.7498 124.205 65.8389C124.174 65.9989 122.747 70.0895 122.747 70.2006C122.747 70.3118 122.849 70.3205 122.925 70.3292V70.4403H120.99V70.3292C121.124 70.3118 121.181 70.2709 121.181 70.2006C121.181 69.898 120.63 68.1858 120.283 66.941H120.261C119.959 68.0258 119.283 70.0312 119.283 70.2006C119.283 70.2709 119.372 70.3292 119.483 70.3292V70.4403H117.478Z" fill="black"/>
<path d="M130.985 67.9891C130.985 69.6168 129.66 70.4967 128.077 70.4967C126.499 70.4967 125.174 69.6168 125.174 67.9891C125.174 66.3613 126.499 65.4941 128.077 65.4941C129.66 65.4948 130.985 66.3613 130.985 67.9891ZM126.553 67.9891C126.553 68.8656 127.268 69.3678 128.077 69.3678C128.895 69.3678 129.607 68.8656 129.607 67.9891C129.607 67.1172 128.895 66.6284 128.077 66.6284C127.268 66.6284 126.553 67.1172 126.553 67.9891Z" fill="black"/>
<path d="M133.467 70.1585C133.467 70.2435 133.498 70.3105 133.73 70.3279V70.439H131.822V70.3279C132.045 70.3105 132.071 70.2435 132.071 70.1585V65.8275C132.071 65.7479 132.045 65.6762 131.822 65.6588V65.543H135.228C136.598 65.543 137.176 66.0318 137.176 67.0904C137.176 67.9441 136.615 68.4068 135.851 68.611L136.953 70.1585C137.033 70.279 137.122 70.3279 137.229 70.3279V70.439H135.281V70.3279C135.415 70.3185 135.486 70.2696 135.486 70.1585C135.486 70.0741 134.503 68.7985 134.392 68.5936H133.467V70.1585ZM133.467 67.6113H135.042C135.58 67.6113 135.753 67.3716 135.753 67.0998C135.753 66.8333 135.58 66.5882 135.042 66.5882H133.467V67.6113Z" fill="black"/>
<path d="M142.293 70.439V70.3279C142.408 70.3279 142.471 70.3279 142.471 70.2074C142.471 70.0915 141.328 68.4604 141.195 68.2287L140.279 69.0383V70.1585C140.279 70.2435 140.306 70.3105 140.542 70.3279V70.439H138.621V70.3279C138.861 70.3105 138.884 70.2435 138.884 70.1585V65.8275C138.884 65.7479 138.861 65.6762 138.621 65.6588V65.543H140.542V65.6588C140.306 65.6762 140.279 65.7479 140.279 65.8275V67.4995H140.346C141.089 66.7703 142.165 65.8858 142.165 65.7833C142.165 65.6675 142.098 65.6675 142.005 65.6588V65.543H144.362V65.6588C144.118 65.6762 144.077 65.7479 143.846 65.9521L142.232 67.3388L144.131 70.1759C144.237 70.3272 144.299 70.3272 144.433 70.3272V70.4384L142.293 70.439Z" fill="black"/>
<path d="M199.863 26.6456C200.303 27.0788 200.517 27.6085 200.517 28.2178C200.517 28.8378 200.303 29.3648 199.863 29.8027C199.436 30.2339 198.911 30.4583 198.298 30.4583C197.679 30.4583 197.16 30.2339 196.72 29.8027C196.301 29.3648 196.075 28.8378 196.075 28.2178C196.075 27.6085 196.301 27.0795 196.728 26.6456C197.16 26.2144 197.68 25.9967 198.299 25.9967C198.911 25.9961 199.436 26.2137 199.863 26.6456ZM200.125 26.3965C199.623 25.8943 199.014 25.6445 198.298 25.6445C197.586 25.6445 196.982 25.8936 196.479 26.3965C195.972 26.9007 195.723 27.508 195.723 28.2171C195.723 28.9376 195.972 29.5463 196.465 30.0464C196.963 30.558 197.577 30.8071 198.297 30.8071C199.012 30.8071 199.622 30.558 200.125 30.0464C200.627 29.5422 200.881 28.9302 200.881 28.2171C200.881 27.508 200.628 26.9007 200.125 26.3965ZM198.68 28.0993C198.568 28.1394 198.417 28.1615 198.204 28.1615H197.755V27.1391H198.173C198.453 27.1391 198.657 27.1659 198.782 27.2435C198.902 27.3172 198.968 27.4484 198.968 27.6573C198.969 27.8703 198.867 28.0216 198.68 28.0993ZM197.253 29.6293H197.756V28.5091H198.147C198.41 28.5091 198.596 28.5399 198.698 28.6001C198.876 28.7093 198.969 28.9222 198.969 29.2516V29.478L198.983 29.569C198.983 29.5777 198.988 29.5938 198.988 29.6025C198.992 29.6112 198.992 29.6206 198.996 29.6293H199.455L199.446 29.5938C199.436 29.569 199.428 29.5248 199.428 29.4472C199.414 29.3695 199.414 29.3005 199.414 29.2382V29.0293C199.414 28.8874 199.361 28.7361 199.259 28.5867C199.157 28.4354 198.992 28.349 198.774 28.3089C198.939 28.2821 199.081 28.2352 199.183 28.1776C199.369 28.0531 199.454 27.8662 199.454 27.6178C199.454 27.2576 199.312 27.0199 199.022 26.8973C198.858 26.8284 198.595 26.7976 198.249 26.7976H197.253V29.6293Z" fill="black"/>
<path d="M176.713 20.8105C176.846 20.9237 176.976 21.0375 177.095 21.1621C178.843 22.905 180.333 25.651 181.492 29.0613C183.449 28.4145 185.783 27.7897 187.754 27.9719C184.948 24.2255 181.248 21.8263 176.713 20.8105Z" fill="black"/>
<path d="M158.109 65.2823C159.853 64.8504 161.711 64.5042 163.641 64.237C163.24 62.9561 162.885 61.5868 162.578 60.1465C161.898 62.2765 160.049 64.0502 158.109 65.1664V65.2823Z" fill="black"/>
<path d="M156.562 29.2741C156.936 29.3652 157.309 29.4476 157.683 29.5299L159.203 27.8138L161.6 29.7616L163.548 29.8085C165.304 24.4946 167.758 21.7981 169.715 20.4375C166.033 20.9886 162.44 22.8695 159.399 25.9021C158.368 26.9245 157.42 28.0582 156.562 29.2741Z" fill="black"/>
<path d="M181.845 53.0051C181.098 51.6579 179.448 49.5634 176.305 49.2587V46.2529C174.642 44.1457 175.1 41.6086 175.1 38.9275L176.892 38.9101V37.3895L175.229 37.4069V35.457H173.664L173.628 37.4069L171.797 37.3895V38.9101L173.593 38.9275C173.655 41.551 174.117 44.1812 172.499 46.2529V49.2587C169.306 49.8721 165.962 53.4049 165.091 56.6243C164.842 57.2644 164.763 57.9849 164.687 58.6967L163.535 58.7014C163.9 60.6264 164.353 62.4317 164.878 64.0862C167.386 63.793 170 63.6369 172.705 63.6369C175.364 63.6369 177.956 63.7923 180.442 64.0769C181.584 60.5548 182.407 56.3129 182.745 51.7423C182.454 52.1782 182.147 52.6094 181.845 53.0051Z" fill="black"/>
<path d="M160.555 32.6113L161.524 40.5708C161.782 37.5154 162.2 34.888 162.747 32.6354L160.555 32.6113Z" fill="black"/>
<path d="M172.703 64.8418C170.146 64.8418 167.656 64.9838 165.264 65.2422C166.327 68.1991 167.651 70.5688 169.146 72.0714C170.298 73.2191 171.485 73.8057 172.694 73.8057H172.704C175.523 73.8016 178.159 70.4483 180.04 65.2422C177.692 64.975 175.22 64.8418 172.703 64.8418Z" fill="black"/>
<path d="M184.059 49.6762C183.85 55.0055 182.992 60.0656 181.658 64.2272C184.095 64.5559 186.398 65.0273 188.519 65.6059C192.099 60.9729 194.02 54.9339 193.89 48.5801C190.942 48.7374 187.807 48.8673 184.503 48.9537C184.358 49.1981 184.206 49.4405 184.059 49.6762Z" fill="black"/>
<path d="M164.771 29.8343L178.403 30.1342C178.901 29.9856 179.568 29.7338 180.342 29.4559C179.257 26.2144 177.852 23.6177 176.247 22.0127C175.256 21.0056 174.215 20.4365 173.152 20.3052C173.041 20.3052 172.925 20.2939 172.823 20.2852C171.641 20.5409 167.429 21.9926 164.771 29.8343Z" fill="black"/>
<path d="M174.352 32.7615L163.96 32.6523C163.28 35.3736 162.791 38.6928 162.586 42.7458C166.495 38.2147 171.088 34.4643 174.352 32.7615Z" fill="black"/>
<path d="M182.818 21.9219C185.766 23.6648 188.025 26.0774 189.737 28.7651C190.679 28.5047 191.538 28.2268 192.303 27.9355C189.617 25.3502 186.389 23.2825 182.818 21.9219Z" fill="black"/>
<path d="M168.785 73.3692C168.621 73.2266 168.461 73.0847 168.301 72.9153C166.611 71.2393 165.162 68.6292 164.037 65.4004C161.942 65.6763 159.946 66.0546 158.082 66.5307L158.073 66.69C160.973 70.1237 164.645 72.4626 168.785 73.3692Z" fill="black"/>
<path d="M193.209 28.8652C192.383 29.2101 191.431 29.5301 190.373 29.8301C193.832 35.8819 194.797 43.0339 195.042 47.2737V47.3226C196.936 47.2048 198.75 47.0829 200.471 46.949C200.44 39.9798 197.697 33.6321 193.209 28.8652Z" fill="black"/>
<path d="M191.094 34.0352C190.934 35.5846 190.285 38.411 187.99 42.9548L186.5 45.656C186.082 46.3162 185.664 47.0166 185.232 47.7331C188.256 47.646 191.129 47.5282 193.845 47.3815V47.3414C193.637 43.6619 192.943 38.7129 191.094 34.0352Z" fill="black"/>
<path d="M195.096 48.5214C195.211 54.989 193.317 61.1607 189.751 65.9724C190.445 66.1853 191.112 66.417 191.761 66.6527C196.865 61.9796 200.138 55.443 200.45 48.1484C198.75 48.2904 196.963 48.4129 195.096 48.5214Z" fill="black"/>
<path d="M155.321 28.9687C156.281 27.5478 157.352 26.2274 158.54 25.0536C159.724 23.8778 160.972 22.8774 162.28 22.0391C158.687 23.4506 155.468 25.5672 152.809 28.2174C153.605 28.4906 154.445 28.7357 155.321 28.9687Z" fill="black"/>
<path d="M155.926 65.8775C152.64 61.3068 150.532 55.2597 150.106 48.3562C148.292 48.2423 146.566 48.1245 144.943 47.9785C145.207 55.3441 148.497 61.9423 153.641 66.6515C154.374 66.3797 155.135 66.1219 155.926 65.8775Z" fill="black"/>
<path d="M176.936 72.9787C176.781 73.13 176.621 73.276 176.461 73.4186C180.396 72.5957 184.051 70.524 187.039 67.3621C187.257 67.1177 187.474 66.8733 187.689 66.6236C185.693 66.0946 183.527 65.6815 181.259 65.3828C180.093 68.6391 178.626 71.2893 176.936 72.9787Z" fill="black"/>
<path d="M150.039 47.1519C149.861 41.1691 151.551 35.0349 154.636 30.0257C153.676 29.7699 152.765 29.4786 151.897 29.1699C147.619 33.8745 145.001 40.0308 144.93 46.7829C146.531 46.9182 148.247 47.0448 150.039 47.1519Z" fill="black"/>
<path d="M157.998 33.9597L155.748 31.7099L156.767 30.5535C156.459 30.4845 156.148 30.4109 155.851 30.3379C152.742 35.2293 151.048 41.3032 151.244 47.2211C153.881 47.3764 156.673 47.4989 159.568 47.5947L157.998 33.9597Z" fill="black"/>
<path d="M162.618 72.1687C160.404 70.8348 158.413 69.047 156.7 66.9043C156.002 67.1092 155.326 67.3221 154.686 67.5538C157.024 69.4963 159.697 71.0665 162.618 72.1687Z" fill="black"/>
<path d="M158.892 49.2586L159.22 48.7852C156.477 48.6935 153.818 48.5757 151.306 48.4297C151.719 54.5705 153.485 59.9815 156.241 64.2194C155.366 59.6836 157.282 52.76 158.892 49.2586Z" fill="black"/>
<path d="M183.17 72.0197C185.94 70.9256 188.479 69.4049 190.729 67.5595C190.151 67.3553 189.555 67.1685 188.955 66.9863C188.622 67.3955 188.274 67.7912 187.901 68.1782C186.47 69.7116 184.869 70.9925 183.17 72.0197Z" fill="black"/>
</svg>
