<svg width="201" height="91" viewBox="0 0 201 91" fill="none" xmlns="http://www.w3.org/2000/svg">
<path d="M127.05 7.04185C120.97 3.6878 114.052 1.38171 106.714 0.542969C106.295 0.542969 106.086 0.752194 105.876 0.962341C104.408 3.6878 103.36 6.41326 102.311 9.34794C102.102 9.55716 102.311 9.97653 102.731 9.97653C107.971 10.3959 112.794 11.4439 117.615 13.3306C115.938 25.0702 109.858 35.5527 100.844 42.6802C100.635 42.8894 100.635 43.0995 100.635 43.5189C101.263 46.2444 102.102 49.1791 103.15 52.1147C103.359 52.3239 103.779 52.534 103.989 52.3239C118.873 42.2608 127.469 25.4896 127.678 8.08982C127.678 7.67045 127.469 7.25108 127.05 7.04185Z" fill="#0078FF"/>
<path d="M96.0226 39.1174C93.2971 36.6021 90.991 33.4573 88.8951 29.8931C91.2012 28.8451 93.0879 28.2156 95.1848 27.7962C95.6041 27.7962 95.8134 27.587 95.8134 27.1676C95.8134 24.4422 96.2327 21.5075 96.6521 18.5719C96.6521 18.1525 96.4429 17.9433 96.0235 17.9433C92.2501 18.3627 88.4766 19.4106 84.9124 21.0881C84.0737 18.5728 83.4451 16.0566 83.235 13.3311C87.8471 11.4444 92.8787 10.1863 98.1194 9.97708C98.5388 9.97708 98.748 9.97708 98.748 9.55771C99.5868 6.83225 100.845 3.89757 102.102 1.17211C102.311 0.752737 102.102 0.333365 101.683 0.333365C92.039 0.12414 82.3953 2.43022 73.8005 7.25162C73.3811 7.46085 73.1719 7.88022 73.1719 8.29959C73.3811 26.7483 83.0248 44.3582 99.5868 54.2111C99.796 54.4204 100.006 54.4204 100.215 54.2111V53.5825C98.5379 49.3897 97.2807 44.7776 96.6512 40.3756C96.442 39.747 96.2318 39.5368 96.0226 39.1174Z" fill="#0078FF"/>
<path d="M170.229 68.5176H156.017C156.017 68.5176 155.694 68.5176 155.694 68.8402V72.8781C155.694 72.8781 155.694 73.2007 156.017 73.2007H161.185V89.6751C161.185 89.6751 161.024 89.9977 161.507 89.9977H165.707C166.029 89.9977 166.029 89.6751 166.192 89.6751V73.2007H171.522C171.844 73.2007 171.844 73.0394 171.844 72.8781L170.713 68.8402C170.552 68.5176 170.391 68.5176 170.229 68.5176H170.229Z" fill="#0078FF"/>
<path d="M192.034 68.3555H187.511C187.511 68.3555 187.189 68.3555 187.027 68.6781L182.827 83.5367L178.628 68.6781C178.467 68.3555 178.143 68.3555 178.143 68.3555H173.621C173.621 68.3555 173.298 68.3555 173.459 68.6781L179.436 89.513C179.436 89.513 179.597 89.8356 179.92 89.8356H185.573C185.896 89.8356 186.058 89.513 186.058 89.513L192.357 68.6781C192.518 68.3555 192.034 68.3555 192.034 68.3555Z" fill="#0078FF"/>
<path d="M22.285 77.3992H13.8865V73.0386H23.8999C24.0611 73.0386 24.2224 72.8773 24.3847 72.716L25.8382 68.6781C25.8382 68.5168 25.6769 68.3555 25.5156 68.3555H9.20248C9.04118 68.3555 8.87988 68.5168 8.87988 68.6781V89.6743C8.87988 89.8356 9.04118 89.9969 9.20248 89.9969H13.5639C13.7252 89.9969 13.8865 89.8356 13.8865 89.6743V82.2445H20.5089C20.6702 82.2445 20.8315 82.2445 20.9937 81.9219L22.6086 77.7227C22.6086 77.5614 22.4473 77.4001 22.286 77.4001L22.285 77.3992Z" fill="#0078FF"/>
<path d="M65.2475 68.3555H60.8869C60.7256 68.3555 60.5643 68.5168 60.5643 68.6781V81.4371L52.9732 68.6781C52.9732 68.5168 52.8119 68.3555 52.4884 68.3555H47.4818C47.3205 68.3555 47.1592 68.5168 47.1592 68.6781H47.3205V89.3517C47.3205 89.513 47.4818 89.6743 47.6431 89.6743H51.8423C52.0036 89.6743 52.1649 89.513 52.1649 89.3517V76.5927L59.756 89.5139C59.756 89.6752 59.9173 89.8365 60.2408 89.8365H65.2475C65.4088 89.8365 65.5701 89.6752 65.5701 89.5139V68.679C65.5701 68.5177 65.4088 68.3564 65.2475 68.3564V68.3555Z" fill="#0078FF"/>
<path d="M37.4674 68.6781C37.3061 68.5168 37.1448 68.3555 36.9826 68.3555H31.3298C31.0072 68.3555 31.0072 68.5168 30.845 68.6781L23.2539 89.513C23.2539 89.6743 23.4152 89.8356 23.5765 89.8356H28.0993C28.4219 89.8356 28.4219 89.6743 28.5841 89.513L30.0376 85.3138H38.4361L39.8896 89.513C40.0509 89.6743 40.0509 89.8356 40.3744 89.8356H44.8972C45.0585 89.9969 45.2198 89.6743 45.0585 89.513L37.4674 68.6781ZM31.4911 80.791L34.0755 73.3612L36.66 80.791H31.492H31.4911Z" fill="#0078FF"/>
<path d="M77.8453 68.5165H70.2542C70.0929 68.5165 69.9316 68.6778 69.9316 68.8391V72.8771C69.9316 73.0384 70.0929 73.1997 70.2542 73.1997H77.8453C81.2372 73.1997 83.8216 75.7841 83.8216 79.176C83.8216 82.5678 81.2372 85.4748 77.8453 85.4748H74.9383V75.7841C74.9383 75.6228 74.777 75.4615 74.6157 75.4615H73.8083C72.8396 75.4615 71.7087 75.9463 71.0626 76.5925C70.4165 77.3999 69.9316 78.5308 69.9316 79.823V89.8363C69.9316 89.9976 70.0929 90.1589 70.2542 90.1589H77.8453C84.1442 90.1589 88.8283 85.4748 88.8283 79.3373C88.8283 73.1997 84.1442 68.5156 77.8453 68.5156V68.5165Z" fill="#0078FF"/>
<path d="M110.148 68.3555H105.787C105.626 68.3555 105.465 68.5168 105.465 68.6781V81.4371C105.465 83.8603 103.688 85.6364 101.266 85.6364C98.8433 85.6364 97.0663 83.8593 97.0663 81.4371V68.6781C97.0663 68.5168 96.905 68.3555 96.7437 68.3555H92.3831C92.2218 68.3555 92.0605 68.5168 92.0605 68.6781V81.4371C92.0605 86.7673 95.775 90.3204 101.266 90.3204C106.758 90.3204 110.472 86.7673 110.472 81.4371V68.6781C110.472 68.5168 110.311 68.3555 110.15 68.3555H110.148Z" fill="#0078FF"/>
<path d="M129.851 68.3555H114.993C114.831 68.3555 114.67 68.5168 114.67 68.6781V89.513C114.67 89.6743 114.831 89.8356 114.993 89.8356H129.851C130.012 89.8356 130.174 89.6743 130.174 89.513V85.4751C130.174 85.3138 130.012 85.1525 129.851 85.1525H119.676V81.438H129.205C129.366 81.438 129.528 81.2767 129.528 81.1145V77.0766C129.528 76.9153 129.366 76.754 129.205 76.754V76.5927H119.676V73.0395H129.851C130.012 73.0395 130.174 72.8782 130.174 72.7169V68.679C130.174 68.5177 130.012 68.3564 129.851 68.3564V68.3555Z" fill="#0078FF"/>
<path d="M149.556 85.1525H139.543V68.6781C139.543 68.5168 139.382 68.3555 139.22 68.3555H134.86C134.698 68.3555 134.537 68.5168 134.537 68.6781V89.513C134.537 89.6743 134.698 89.8356 134.86 89.8356H149.557C149.718 89.8356 149.88 89.6743 149.88 89.513V85.4751C149.88 85.3138 149.718 85.1525 149.557 85.1525H149.556Z" fill="#0078FF"/>
</svg>
