<svg width="201" height="91" viewBox="0 0 201 91" fill="none" xmlns="http://www.w3.org/2000/svg">
<path d="M24.2219 58.8516C24.1325 58.3001 23.9527 57.9676 23.6453 57.6472C20.9532 54.9551 18.5052 51.7376 16.4931 48.2389C18.7362 47.2132 20.7613 46.5724 22.8508 46.1625C23.2355 46.0982 23.4143 45.8682 23.4404 45.5347C23.569 42.5864 23.8894 39.6512 24.3636 36.7672C24.4017 36.4337 24.235 36.1645 23.8251 36.2158C20.0803 36.6628 16.2581 37.6844 12.6398 39.3549C11.8874 36.8637 11.3138 34.2831 10.9813 31.6392C15.6343 29.7035 20.7101 28.5241 25.9276 28.2549C26.2862 28.2419 26.4911 28.0751 26.5946 27.7426C27.4786 24.8968 28.5946 22.051 29.9397 19.2574C30.1064 18.9109 29.9527 18.5272 29.5167 18.5141C19.7608 18.2951 10.0572 20.6276 1.41831 25.4604C1.03357 25.6783 0.879883 26.0118 0.879883 26.4599C1.04663 45.0977 10.8648 62.8506 27.119 72.7461C27.3369 72.8868 27.58 72.8868 27.7337 72.7461C27.8744 72.6055 27.8744 72.4388 27.7719 72.1947C26.1436 67.8883 24.9261 63.3499 24.2209 58.8506L24.2219 58.8516Z" fill="#0078FF"/>
<path d="M54.9852 25.4618C48.7813 22.0012 41.833 19.6938 34.4889 18.8601C34.1303 18.8219 33.8611 18.9495 33.7074 19.2579C32.3744 21.8596 31.1951 24.6672 30.1695 27.6406C30.067 27.961 30.2981 28.2554 30.6185 28.2815H30.6316C35.9003 28.5638 40.8606 29.73 45.4493 31.6265C43.9365 43.6627 37.6301 54.2503 28.6316 61.3392C28.3373 61.5703 28.2469 61.8516 28.3373 62.2363C28.9651 65.0821 29.8501 68.0304 30.9269 70.9274C31.0555 71.2609 31.4141 71.3634 31.6964 71.1705C46.5653 60.9676 55.397 44.0987 55.5256 26.4613C55.5387 26.0123 55.3719 25.6667 54.9872 25.4618H54.9852Z" fill="#0078FF"/>
<path d="M76.8133 32.0018H68.7119V27.7467H78.4276C78.6586 27.7467 78.8123 27.6442 78.9017 27.4262L80.3241 23.4915C80.3884 23.2997 80.2347 23.0938 80.0419 23.0938H64.1473C63.9424 23.0938 63.8008 23.2344 63.8008 23.4403H63.8138V43.7427C63.8138 43.9476 63.9545 44.0892 64.1604 44.0892H68.3643C68.5692 44.0892 68.7109 43.9486 68.7109 43.7427V36.5905H75.2222C75.4532 36.5905 75.6069 36.5011 75.6963 36.257L77.0936 32.3986C77.1579 32.2068 77.0042 32.0008 76.8113 32.0008L76.8133 32.0018Z" fill="#0078FF"/>
<path d="M91.7213 23.4142H91.7083C91.6189 23.1962 91.4652 23.0938 91.2342 23.0938H85.6068C85.3637 23.0938 85.209 23.1962 85.1327 23.4142L77.7756 43.7055C77.7113 43.8853 77.865 44.1033 78.0579 44.1033H82.4547C82.6977 44.1033 82.8524 43.9878 82.9157 43.7698L84.3261 39.6804H92.4788L93.8891 43.7698C93.9785 43.9878 94.1071 44.1033 94.3502 44.1033H98.7982C98.9901 44.1033 99.1448 43.8984 99.0805 43.7055L91.7234 23.4142H91.7213ZM85.8891 35.0917L88.4014 27.8371L90.9007 35.0917H85.8891Z" fill="#0078FF"/>
<path d="M118.665 23.0948H114.55C114.345 23.0948 114.204 23.2354 114.204 23.4413V35.8361L106.898 23.4021C106.769 23.1842 106.616 23.0948 106.359 23.0948H101.475C101.271 23.0948 101.129 23.2354 101.129 23.4413V43.7437C101.129 43.9486 101.27 44.0902 101.475 44.0902H105.59C105.795 44.0902 105.937 43.9496 105.937 43.7437V31.2595L113.294 43.7829C113.422 44.0008 113.576 44.0902 113.832 44.0902H118.665C118.87 44.0902 119.011 43.9496 119.011 43.7437V23.4403C119.011 23.2354 118.871 23.0938 118.665 23.0938V23.0948Z" fill="#0078FF"/>
<path d="M130.983 23.0938H123.522C123.317 23.0938 123.176 23.2344 123.176 23.4404V27.3881C123.176 27.5931 123.316 27.7347 123.522 27.7347H130.983C134.316 27.7347 136.84 30.2601 136.84 33.592C136.84 36.924 134.315 39.4494 130.983 39.4494H128.086V30.0792C128.086 29.8743 127.945 29.7327 127.739 29.7327H127.009C126.061 29.7327 125.009 30.1817 124.343 30.8477C123.6 31.591 123.177 32.6036 123.177 33.9235V43.7417C123.177 43.9466 123.317 44.0883 123.523 44.0883H130.984C137.137 44.0883 141.738 39.576 141.738 33.59C141.738 27.6041 137.124 23.0918 130.984 23.0918L130.983 23.0938Z" fill="#0078FF"/>
<path d="M162.272 23.1055H158.068C157.863 23.1055 157.721 23.2461 157.721 23.452V35.8086C157.721 38.1924 156.055 39.8468 153.683 39.8468C151.312 39.8468 149.645 38.1934 149.645 35.8086V23.452C149.645 23.2471 149.504 23.1055 149.299 23.1055H145.095C144.89 23.1055 144.748 23.2461 144.748 23.452V35.8086C144.748 40.9618 148.388 44.4867 153.682 44.4867C158.976 44.4867 162.616 40.9618 162.616 35.8086V23.452C162.616 23.2471 162.476 23.1055 162.27 23.1055H162.272Z" fill="#0078FF"/>
<path d="M181.512 23.0811H167.117C166.912 23.0811 166.771 23.2217 166.771 23.4276V43.731C166.771 43.9359 166.911 44.0776 167.117 44.0776H181.512C181.717 44.0776 181.858 43.9369 181.858 43.731V39.7832C181.858 39.5783 181.718 39.4367 181.512 39.4367H171.668V35.7963H180.948C181.153 35.7963 181.295 35.6557 181.295 35.4497V31.5532C181.295 31.3483 181.154 31.2066 180.948 31.2066V31.1936H171.668V27.72H181.512C181.717 27.72 181.858 27.5793 181.858 27.3734V23.4266C181.858 23.2217 181.718 23.0801 181.512 23.0801V23.0811Z" fill="#0078FF"/>
<path d="M200.534 39.4504H190.856V23.4403C190.856 23.2354 190.715 23.0938 190.509 23.0938H186.306C186.101 23.0938 185.959 23.2344 185.959 23.4403V43.7437C185.959 43.9486 186.1 44.0902 186.306 44.0902H200.534C200.739 44.0902 200.88 43.9496 200.88 43.7437V39.7959C200.88 39.591 200.74 39.4493 200.534 39.4493V39.4504Z" fill="#0078FF"/>
<path d="M87.098 51.3701L87.0669 51.2878L86.9644 51.0226L86.8971 50.8558C86.8348 50.6931 86.7946 50.5977 86.5626 50.5977H83.768C83.5922 50.5977 83.5189 50.6931 83.4556 50.8558L83.4114 50.9744L77.5721 66.0582V66.0783C77.531 66.1808 77.5802 66.2983 77.6837 66.3395C77.7148 66.3516 77.7489 66.3566 77.7821 66.3526H79.8886C80.0563 66.3566 80.208 66.2521 80.2633 66.0944L81.763 62.1225H88.5937L90.0935 66.0944C90.1367 66.238 90.2633 66.3405 90.4119 66.3526H92.6319C92.8017 66.3526 92.8328 66.2079 92.7947 66.0944L87.098 51.3721V51.3701ZM82.6811 59.7117L85.1794 53.117L87.6776 59.7117H82.6811Z" fill="#0078FF"/>
<path d="M113.429 50.6024H111.423C111.288 50.5913 111.17 50.6918 111.158 50.8264C111.158 50.8374 111.157 50.8495 111.158 50.8616V66.1152C111.158 66.291 111.249 66.3603 111.423 66.3603H113.429C113.563 66.3724 113.681 66.2739 113.693 66.1403C113.693 66.1333 113.693 66.1262 113.694 66.1192V50.8616C113.689 50.7179 113.573 50.6044 113.429 50.6034V50.6024Z" fill="#0078FF"/>
<path d="M129.69 50.6027H127.684C127.551 50.5897 127.434 50.6871 127.422 50.8197C127.421 50.8338 127.421 50.8478 127.422 50.8619V62.6118L119.933 50.8619C119.829 50.6982 119.646 50.5997 119.452 50.6037H117.038C116.906 50.5897 116.787 50.6851 116.773 50.8177C116.771 50.8338 116.771 50.8488 116.773 50.8649V66.1206C116.761 66.2431 116.85 66.3526 116.973 66.3647C116.995 66.3667 117.017 66.3657 117.038 66.3616H119.068C119.291 66.3616 119.313 66.1186 119.313 66.1186V54.3938L126.427 65.5621L126.817 66.1678C126.888 66.3034 127.035 66.3827 127.187 66.3657H129.712C129.845 66.3627 129.951 66.2552 129.955 66.1226V50.8629C129.951 50.7193 129.834 50.6047 129.69 50.6047V50.6027Z" fill="#0078FF"/>
<path d="M147.897 57.9825C147.889 57.9825 147.882 57.9825 147.876 57.9825H139.905C139.77 57.9724 139.651 58.0739 139.641 58.2085C139.641 58.2195 139.641 58.2316 139.641 58.2436V59.877C139.641 60.0226 139.759 60.1412 139.905 60.1422H145.561C145.155 62.7077 143.063 64.2607 140.435 64.2607C137.037 64.2607 134.921 61.7404 134.921 58.546C134.921 55.1698 137.239 52.763 140.457 52.763C142.549 52.763 144.228 53.7574 145.137 55.3707H145.126C145.24 55.5515 145.318 55.6871 145.492 55.6871H147.631C147.816 55.6871 147.966 55.5977 147.908 55.3707C146.829 52.3602 144.018 50.332 140.475 50.332C135.817 50.332 132.352 53.7976 132.352 58.4998C132.352 63.2019 135.795 66.6233 140.25 66.6233C143.063 66.6233 145.2 65.2281 145.943 63.2019V66.099C145.931 66.2316 146.029 66.3481 146.162 66.3602C146.176 66.3612 146.19 66.3612 146.204 66.3602H147.877C148.021 66.3592 148.138 66.2436 148.141 66.099V58.2426C148.146 58.104 148.037 57.9865 147.899 57.9814L147.897 57.9825Z" fill="#0078FF"/>
<path d="M76.2147 66.1046L76.1343 66.0021L71.7064 60.3457C74.2046 59.8736 75.6672 58.186 75.6672 55.5983C75.6672 52.628 73.7325 50.6038 70.3181 50.6038H64.0781C63.9404 50.5968 63.8229 50.7023 63.8149 50.8399C63.8149 50.8479 63.8149 50.855 63.8149 50.863V52.7776C63.8139 52.9142 63.9213 53.0257 64.058 53.0298H70.0419C72.1122 53.0298 73.1017 54.0865 73.1017 55.6174C73.1017 57.1483 72.1343 58.2271 70.0419 58.2271H66.3312V54.7063C66.3372 54.6129 66.2669 54.5325 66.1735 54.5255C66.1654 54.5255 66.1584 54.5255 66.1504 54.5255H65.7757C65.2634 54.5386 64.7742 54.7445 64.4055 55.1001C63.9967 55.525 63.7797 56.0996 63.8058 56.6892V66.1006C63.8098 66.2482 63.9304 66.3658 64.0781 66.3658H66.0841C66.2287 66.3638 66.3453 66.2452 66.3453 66.1006V60.4823H68.7742L73.0755 66.0966C73.1157 66.1498 73.2734 66.3547 73.4482 66.3547H76.0851C76.2498 66.3547 76.3081 66.2191 76.2076 66.1056H76.2167L76.2147 66.1046Z" fill="#0078FF"/>
<path d="M108.345 61.1598C108.319 61.1538 108.29 61.1528 108.264 61.1548H106.134C105.96 61.1548 105.871 61.2663 105.77 61.4672C104.879 63.1277 103.184 64.1844 101.09 64.1844C97.8715 64.1844 95.5541 61.7525 95.5541 58.4677C95.5541 55.1829 97.8715 52.753 101.09 52.753L101.086 52.762C103.185 52.762 104.875 53.8208 105.766 55.4853C105.866 55.6882 105.958 55.7997 106.13 55.7997H108.262C108.405 55.8128 108.53 55.7083 108.544 55.5666C108.547 55.5395 108.544 55.5124 108.539 55.4853C107.462 52.3964 104.629 50.3301 101.101 50.3301C96.421 50.3301 92.9795 53.8178 92.9795 58.4757C92.9795 63.1337 96.427 66.6214 101.107 66.6214C104.631 66.6214 107.461 64.5601 108.54 61.4752V61.4642C108.57 61.3256 108.482 61.1889 108.344 61.1588L108.345 61.1598Z" fill="#0078FF"/>
</svg>
