<svg width="201" height="90" viewBox="0 0 201 90" fill="none" xmlns="http://www.w3.org/2000/svg">
<path d="M37.9421 36.8234V70.7502C37.9421 74.42 31.8757 74.42 31.8757 70.7502V36.8234H27.3821C24.1617 36.8234 24.2366 31.7306 27.457 31.7306H31.8757V29.9332C31.8757 19.2983 44.5327 14.6549 52.2468 20.6464C55.1676 23.1178 51.3481 27.0872 48.8017 24.9153C45.3566 21.7698 37.8672 23.6421 37.8672 30.083V31.8055H45.9557C48.9515 31.8055 48.9515 36.8983 45.9557 36.8983H37.9421V36.8234Z" fill="black"/>
<path d="M68.7983 30.8328C78.16 27.9868 87.1473 31.4319 92.9141 40.3443L92.8392 40.2694C93.9626 41.6923 94.3371 43.8643 91.4162 45.6617L63.6307 63.1868C68.1992 68.4294 76.1379 70.077 83.1779 65.6583C86.3983 63.6362 89.2443 60.6404 90.6673 56.8209C91.7158 53.0013 97.183 53.6004 96.2094 58.1689C94.8613 63.2617 90.9668 67.4558 86.3234 70.3017C80.8562 73.7468 73.966 75.0949 68.0494 72.9979C54.1941 67.7553 47.3039 49.4813 58.0885 37.5732C60.8596 34.5026 64.7541 32.1809 68.7983 30.8328ZM60.7847 58.9928L87.372 42.2915C83.103 36.5996 76.5873 34.3528 70.2213 36.3749L70.2962 36.3C67.6 37.1238 64.6792 38.9213 62.7319 41.1681C57.9388 46.2609 57.5643 53.0762 60.7847 58.9928Z" fill="#F49231"/>
<path d="M123.47 30.7548C127.215 30.7548 127.215 35.9974 123.47 35.9974H114.408V58.4655C114.408 63.1838 115.157 68.2016 120.849 68.2016C122.122 68.2016 123.919 67.7523 124.743 67.3029C128.263 65.2808 130.959 70.2238 127.215 72.3208C125.118 73.5191 123.021 73.7438 120.774 73.7438C110.813 73.7438 108.342 66.4042 108.342 58.5404V36.0723H102.874C98.9799 36.0723 99.2045 30.8297 102.874 30.8297H108.342V21.0935C108.342 17.1242 114.333 17.1991 114.333 21.0935V30.7548H123.47Z" fill="black"/>
<path d="M132.084 34.2016C130.811 30.6816 136.353 28.7344 137.851 31.9548C143.618 43.4135 148.336 52.8501 154.178 64.3837L170.654 31.805C171.927 28.7344 177.544 30.4569 176.046 33.902L156.799 72.0978C155.75 74.2697 152.904 74.9437 151.332 72.1727L132.084 34.2016Z" fill="black"/>
<path d="M182.861 28.2852C183.535 28.2852 184.134 28.4349 184.808 28.8094C185.408 29.109 185.932 29.6332 186.231 30.2324C186.606 30.8315 186.756 31.5056 186.756 32.1796C186.756 32.8537 186.606 33.5277 186.231 34.1269C185.857 34.726 185.408 35.2503 184.808 35.5498C184.209 35.9243 183.535 36.0741 182.861 36.0741C182.187 36.0741 181.513 35.9243 180.914 35.5498C180.315 35.1754 179.791 34.726 179.491 34.1269C179.117 33.5277 178.967 32.8537 178.967 32.1796C178.967 31.5056 179.117 30.8315 179.491 30.2324C179.866 29.6332 180.315 29.109 180.914 28.8094C181.588 28.4349 182.187 28.2852 182.861 28.2852ZM182.861 29.0341C182.337 29.0341 181.813 29.1839 181.363 29.4086C180.839 29.7081 180.465 30.0826 180.24 30.532C179.94 31.0562 179.791 31.5805 179.791 32.1047C179.791 32.629 179.94 33.1532 180.24 33.6775C180.54 34.2018 180.914 34.5762 181.363 34.8009C181.888 35.1005 182.337 35.2503 182.936 35.2503C183.46 35.2503 183.985 35.1005 184.509 34.8009C185.033 34.5013 185.408 34.1269 185.632 33.6775C185.932 33.1532 186.082 32.7039 186.082 32.1047C186.082 31.5805 185.932 31.0562 185.632 30.532C185.333 30.0077 184.958 29.6332 184.509 29.4086C183.91 29.1839 183.386 29.0341 182.861 29.0341ZM181.139 34.2018V30.0826H181.963C182.711 30.0826 183.161 30.0826 183.311 30.0826C183.61 30.0826 183.835 30.1575 183.985 30.2324C184.134 30.3073 184.284 30.4571 184.359 30.6069C184.434 30.7566 184.509 30.9813 184.509 31.206C184.509 31.5056 184.434 31.7303 184.209 31.9549C183.985 32.1796 183.76 32.3294 183.386 32.3294C183.535 32.4043 183.61 32.4043 183.685 32.4792C183.76 32.5541 183.835 32.629 183.985 32.7788C183.985 32.8537 184.134 33.0035 184.284 33.303L184.734 34.1269H183.685L183.311 33.4528C183.086 33.0035 182.861 32.7039 182.711 32.629C182.562 32.4792 182.337 32.4792 182.112 32.4792H181.888V34.2018H181.139ZM181.963 31.8801H182.337C182.786 31.8801 183.086 31.88 183.236 31.8052C183.386 31.8052 183.46 31.7303 183.535 31.5805C183.61 31.4307 183.61 31.3558 183.61 31.2809C183.61 31.1311 183.61 31.0562 183.535 30.9813C183.46 30.9064 183.386 30.8315 183.236 30.7566C183.086 30.6818 182.786 30.6818 182.337 30.6818H181.963V31.8801Z" fill="black"/>
</svg>
