<svg width="201" height="91" viewBox="0 0 201 91" fill="none" xmlns="http://www.w3.org/2000/svg">
<path d="M0.879883 28.9651L9.08028 50.5252C11.3761 48.9964 14.2801 47.8957 17.9769 47.8957C22.0436 47.8957 24.6944 48.7258 26.4197 50.004H27.0395V43.4864H10.5394V35.8237H27.9414V28.9651H0.879883ZM9.08028 50.5252C5.69057 52.82 2.64274 58.3322 2.64274 64.157H14.2649L9.08028 50.5252Z" fill="#F941E4"/>
<path d="M37.1214 43.4857H37.2603C38.0625 41.7198 39.019 40.4584 40.1298 39.7016C41.2406 38.9448 42.5673 38.5664 44.1101 38.5664C44.8506 38.5664 45.3597 38.6295 45.6374 38.7556V45.2358H45.4522C44.9277 45.1412 44.4186 45.0939 43.9249 45.0939C41.9502 45.0623 40.3612 45.6772 39.1579 46.9386C37.9854 48.1685 37.3991 50.0132 37.3991 52.4728V64.1561H30.1328V38.9921H37.1214V43.4857Z" fill="#F941E4"/>
<path d="M59.9399 64.9138C57.9343 64.9138 56.1293 64.5827 54.5249 63.9204C52.9204 63.2267 51.5474 62.2807 50.4057 61.0824C49.295 59.8841 48.431 58.4809 47.8139 56.8726C47.2277 55.2644 46.9346 53.5143 46.9346 51.6222C46.9346 49.7302 47.2431 47.9801 47.8602 46.3719C48.4773 44.7321 49.3412 43.3131 50.452 42.1148C51.5628 40.9165 52.8896 39.9863 54.4323 39.3241C55.975 38.6303 57.6875 38.2834 59.5696 38.2834C61.3284 38.2834 62.9019 38.5673 64.2904 39.1349C65.7097 39.7025 66.9594 40.4908 68.0393 41.4999C69.4277 42.8874 70.446 44.606 71.0939 46.6557C71.7419 48.7054 72.0504 50.9758 72.0196 53.467H54.062C54.3089 55.359 54.926 56.8411 55.9133 57.9132C56.9007 58.9854 58.2737 59.5215 60.0325 59.5215C61.1741 59.5215 62.0997 59.3165 62.8094 58.9066C63.5499 58.4651 64.1207 57.8502 64.5218 57.0618H71.5567C71.2482 58.1655 70.7545 59.2061 70.0757 60.1837C69.4277 61.1297 68.6101 61.9653 67.6227 62.6906C66.6662 63.3844 65.54 63.9204 64.2441 64.2988C62.9482 64.7088 61.5135 64.9138 59.9399 64.9138ZM59.5696 43.5338C57.9035 43.5338 56.6384 44.0384 55.7745 45.0474C54.9105 46.0565 54.3552 47.4283 54.1083 49.1626H64.6144C64.491 47.3967 63.9819 46.025 63.0871 45.0474C62.1923 44.0384 61.0198 43.5338 59.5696 43.5338Z" fill="#F941E4"/>
<path d="M86.8217 64.9138C84.8162 64.9138 83.0112 64.5827 81.4067 63.9204C79.8022 63.2267 78.4292 62.2807 77.2876 61.0824C76.1768 59.8841 75.3129 58.4809 74.6958 56.8726C74.1095 55.2644 73.8164 53.5143 73.8164 51.6222C73.8164 49.7302 74.125 47.9801 74.7421 46.3719C75.3591 44.7321 76.2231 43.3131 77.3339 42.1148C78.4446 40.9165 79.7714 39.9863 81.3141 39.3241C82.8569 38.6303 84.5693 38.2834 86.4515 38.2834C88.2102 38.2834 89.7838 38.5673 91.1723 39.1349C92.5916 39.7025 93.8412 40.4908 94.9211 41.4999C96.3096 42.8874 97.3278 44.606 97.9757 46.6557C98.6237 48.7054 98.9322 50.9758 98.9014 53.467H80.9439C81.1907 55.359 81.8078 56.8411 82.7952 57.9132C83.7825 58.9854 85.1556 59.5215 86.9143 59.5215C88.0559 59.5215 88.9816 59.3165 89.6912 58.9066C90.4317 58.4651 91.0026 57.8502 91.4037 57.0618H98.4386C98.13 58.1655 97.6363 59.2061 96.9575 60.1837C96.3096 61.1297 95.4919 61.9653 94.5046 62.6906C93.5481 63.3844 92.4219 63.9204 91.126 64.2988C89.8301 64.7088 88.3953 64.9138 86.8217 64.9138ZM86.4515 43.5338C84.7853 43.5338 83.5203 44.0384 82.6563 45.0474C81.7924 46.0565 81.237 47.4283 80.9902 49.1626H91.4962C91.3728 47.3967 90.8637 46.025 89.9689 45.0474C89.0741 44.0384 87.9016 43.5338 86.4515 43.5338Z" fill="#F941E4"/>
<path d="M112.276 28.9616C110.933 28.9719 109.709 29.1149 108.602 29.3908C107.368 29.7061 106.349 30.2266 105.547 30.9519C104.158 32.2448 103.464 34.2154 103.464 36.8642V38.993H99.7617V44.3956C102.972 44.3956 106.26 45.7439 108.768 48.1117L110.67 44.3956H115.868V38.993H110.73V37.3848C110.73 36.6911 110.823 36.1393 111.008 35.7294C111.193 35.3195 111.486 35.0196 111.887 34.8304C112.319 34.6096 112.859 34.4834 113.507 34.4519C114.155 34.4204 114.942 34.4204 115.868 34.4519V29.1544C115.343 29.0914 114.834 29.0438 114.341 29.0123C113.847 28.9808 113.353 28.9651 112.859 28.9651C112.663 28.9612 112.468 28.9601 112.276 28.9616ZM108.768 48.1117L100.55 64.1568H110.862C112.16 62.4102 112.856 59.9349 112.856 57.4239C112.856 53.5727 111.166 50.3761 108.768 48.1117Z" fill="#F941E4"/>
<path d="M129.893 64.9611C127.919 64.9611 126.129 64.63 124.525 63.9677C122.92 63.274 121.547 62.328 120.406 61.1297C119.264 59.9314 118.385 58.5282 117.767 56.9199C117.15 55.2802 116.842 53.5143 116.842 51.6222C116.842 49.7302 117.15 47.9801 117.767 46.3719C118.385 44.7321 119.264 43.3131 120.406 42.1148C121.547 40.9165 122.92 39.9863 124.525 39.3241C126.129 38.6303 127.919 38.2834 129.893 38.2834C131.837 38.2834 133.611 38.6303 135.216 39.3241C136.82 39.9863 138.178 40.9165 139.289 42.1148C140.43 43.3131 141.31 44.7321 141.927 46.3719C142.544 47.9801 142.852 49.7302 142.852 51.6222C142.852 53.5143 142.544 55.2802 141.927 56.9199C141.31 58.5282 140.43 59.9314 139.289 61.1297C138.178 62.328 136.82 63.274 135.216 63.9677C133.611 64.63 131.837 64.9611 129.893 64.9611ZM129.847 59.5688C131.668 59.5688 133.056 58.8435 134.013 57.3929C135 55.9109 135.494 53.9873 135.494 51.6222C135.494 49.2257 135 47.2863 134.013 45.8043C133.056 44.3222 131.668 43.5811 129.847 43.5811C127.996 43.5811 126.592 44.3222 125.635 45.8043C124.679 47.2863 124.201 49.2257 124.201 51.6222C124.201 53.9873 124.679 55.9109 125.635 57.3929C126.592 58.8435 127.996 59.5688 129.847 59.5688Z" fill="#F941E4"/>
<path d="M152.227 43.4857H152.366C153.168 41.7198 154.124 40.4584 155.235 39.7016C156.346 38.9448 157.673 38.5664 159.216 38.5664C159.956 38.5664 160.465 38.6295 160.743 38.7556V45.2358H160.558C160.033 45.1412 159.524 45.0939 159.03 45.0939C157.056 45.0623 155.467 45.6772 154.263 46.9386C153.091 48.1685 152.505 50.0132 152.505 52.4728V64.1561H145.238V38.9921H152.227V43.4857Z" fill="#F941E4"/>
<path d="M163.392 38.993H170.38V42.9189H170.519C171.321 41.4053 172.309 40.2543 173.481 39.466C174.684 38.6776 176.166 38.2834 177.924 38.2834C181.164 38.2834 183.416 39.8759 184.681 43.0608H184.774C185.792 41.358 186.949 40.1439 188.245 39.4187C189.572 38.6619 191.022 38.2834 192.596 38.2834C195.342 38.2834 197.409 39.1349 198.798 40.8377C200.186 42.509 200.88 44.7479 200.88 47.5544V64.157H193.66V48.7842C193.66 47.3967 193.336 46.3246 192.688 45.5678C192.071 44.7794 191.176 44.3852 190.004 44.3852C188.708 44.3852 187.674 44.8898 186.903 45.8989C186.162 46.9079 185.792 48.2166 185.792 49.8248V64.157H178.526V48.7842C178.526 47.3967 178.217 46.3246 177.6 45.5678C177.014 44.7794 176.119 44.3852 174.916 44.3852C173.62 44.3852 172.586 44.8898 171.815 45.8989C171.044 46.9079 170.658 48.2166 170.658 49.8248V64.157H163.392L163.392 38.993Z" fill="#F941E4"/>
</svg>
