<svg width="201" height="91" viewBox="0 0 201 91" fill="none" xmlns="http://www.w3.org/2000/svg">
<path d="M92.1127 67.7688L87.5767 60.6539V67.7688H84.0947V53.6152H87.1423L91.673 60.7362V53.6152H95.1542V67.7688H92.1127Z" fill="black"/>
<path d="M98.2139 67.7688V53.6152H107.831V56.7154H101.689V59.084H106.941V62.1781H101.689V64.6633H107.831V67.7688H98.2139Z" fill="black"/>
<path d="M116.317 56.7137V67.7671H112.836V56.7137H109.36V53.6074H119.793V56.7137H116.317Z" fill="black"/>
<path d="M134.428 67.7688H131.579L129.3 60.7949L127.014 67.7688H124.189L120.291 53.6152H123.932L125.777 61.0875L128.063 53.6152H130.53L132.816 61.0875L134.668 53.6152H138.302L134.428 67.7688Z" fill="black"/>
<path d="M143.265 64.1458C142.949 63.7297 142.75 63.2663 142.75 60.6935C142.75 58.1085 142.949 57.6292 143.265 57.213C143.53 56.8793 144.021 56.5973 144.666 56.5973C145.293 56.5973 145.797 56.8785 146.049 57.213C146.366 57.6292 146.565 58.1093 146.565 60.6935C146.565 63.2663 146.366 63.7297 146.049 64.1458C145.797 64.4849 145.293 64.7844 144.666 64.7844C144.021 64.7844 143.529 64.4849 143.265 64.1458ZM140.704 55.0845C139.222 56.5729 139.274 58.5658 139.274 60.6928C139.274 62.8205 139.222 64.802 140.704 66.2903C141.741 67.3336 142.937 67.8846 144.665 67.8846C146.395 67.8846 147.584 67.3336 148.61 66.2903C150.099 64.802 150.047 62.8205 150.047 60.6928C150.047 58.5658 150.099 56.5729 148.61 55.0845C147.584 54.0527 146.395 53.4902 144.665 53.4902C142.937 53.491 141.742 54.0534 140.704 55.0845Z" fill="black"/>
<path d="M156.13 56.7398H158.1C159.055 56.7398 159.612 57.431 159.612 58.1695C159.612 58.9026 159.055 59.5999 158.1 59.5999H156.13V56.7398ZM152.648 53.616V67.7696H156.13V62.4951H157.302L159.81 67.7696H163.842L160.778 61.8618C161.891 61.3108 163.087 60.0983 163.087 58.1695C163.087 55.8489 161.399 53.6152 158.257 53.6152L152.648 53.616Z" fill="black"/>
<path d="M173.338 53.6152L169.252 58.626V53.6152H165.807V67.7688H169.252V63.3266L170.449 61.9609L173.7 67.7688H177.739V67.7337L172.769 59.3408L177.592 53.6152H173.338Z" fill="black"/>
<path d="M84.0947 25.8203V50.0076H90.0436V40.6681H99.0165V35.3701H90.0436V31.1214H100.54V25.8203H84.0947Z" fill="black"/>
<path d="M110.633 25.8242H104.69V50.0084H110.633V25.8242Z" fill="black"/>
<path d="M117.531 28.3389C114.981 30.8859 115.081 34.2825 115.081 37.9184C115.081 41.5498 114.981 44.9457 117.531 47.4895C119.294 49.2683 121.44 50.2148 124.253 50.2148C127.148 50.2148 129.317 49.2683 131.116 47.4309C132.956 45.5645 133.496 43.2554 133.496 39.3466V36.0818H124.253V41.0461H127.582V41.3158C127.582 42.1328 127.347 43.3201 126.702 43.9672C126.164 44.5448 125.513 44.9167 124.253 44.9167C123.169 44.9167 122.354 44.477 121.915 43.8963C121.363 43.1814 121.029 42.3348 121.029 37.9184C121.029 33.496 121.363 32.6852 121.915 31.9696C122.354 31.3888 123.169 30.9202 124.253 30.9202C125.783 30.9202 126.533 31.4978 127.687 32.6547L131.732 28.6103C129.557 26.436 127.723 25.6152 124.253 25.6152C121.34 25.6168 119.295 26.5694 117.531 28.3389Z" fill="black"/>
<path d="M149.977 25.8203V35.1361H143.659V25.8203H137.717V50.0076H143.659V40.4342H149.977V50.0076H155.925V25.8203H149.977Z" fill="black"/>
<path d="M159.219 25.8203V31.1214H165.162V50.0076H171.111V31.1214H177.054V25.8203H159.219Z" fill="black"/>
<path d="M62.5269 18.7422V47.6803L54.4449 41.5577H39.2427V32.2571H54.4449V18.7422H24.0215V74.6485H39.2427V55.0673H51.6374L77.7306 74.7422H77.7596V18.7422H62.5269Z" fill="black"/>
</svg>
