<svg width="201" height="92" viewBox="0 0 201 92" fill="none" xmlns="http://www.w3.org/2000/svg">
<path d="M45.8799 1.03125C64.7232 1.03125 83.5666 1.03125 102.41 1.03125C102.41 9.50856 102.41 17.9859 102.41 26.4632C93.7349 26.4632 85.038 26.4632 76.363 26.4632C76.363 28.3299 76.363 30.1747 76.363 32.0415C82.71 32.0415 89.0351 32.0415 95.3821 32.0415C95.3821 40.7384 95.3821 49.4573 95.3821 58.1542C89.0351 58.1542 82.71 58.1542 76.363 58.1542C76.363 69.1132 76.363 80.0722 76.363 91.0313C73.1786 89.9771 70.1917 88.4178 67.3367 86.6608C61.6266 83.103 56.6632 78.2274 53.5226 72.2538C51.568 68.5203 50.3601 64.3914 50.0307 60.1967C49.5475 54.1572 50.8433 48.0737 53.3689 42.5832C53.7423 41.6608 54.2693 40.7165 55.1478 40.1674C55.6969 39.816 56.3996 39.7282 57.0365 39.9039C57.7613 40.1015 58.3762 40.6067 58.8813 41.1337C59.6939 42.0122 60.2869 43.0444 60.814 44.0986C60.9458 44.3621 61.363 44.2743 61.407 43.9888C61.2093 40.1894 61.5387 36.368 62.1317 32.6125C63.6251 23.4324 66.8535 14.5598 71.3338 6.41192C71.5314 6.17034 71.202 5.77503 70.9165 5.95072C70.6529 6.1923 70.4553 6.52173 70.2357 6.78528C65.6237 12.8028 61.1874 18.9741 57.0365 25.3211C54.8623 28.6813 52.754 32.1074 50.8872 35.6433C48.5812 39.9258 46.8462 44.4939 45.8799 49.2157C45.8799 33.1616 45.8799 17.0854 45.8799 1.03125Z" fill="#15273E"/>
<path d="M107.923 39.4867H105.617L104.673 35.3578L103.728 39.4867H101.422L99.3359 32.1953H101.796L102.74 36.6536L103.838 32.1953H105.507L106.605 36.6536L107.528 32.1953H110.009L107.923 39.4867Z" fill="#15273E"/>
<path d="M117.059 38.5652C116.29 39.268 115.346 39.6194 114.204 39.6194C113.062 39.6194 112.118 39.268 111.349 38.5652C110.58 37.8624 110.207 36.962 110.207 35.8419C110.207 34.7438 110.58 33.8214 111.349 33.1186C112.118 32.4158 113.062 32.0645 114.204 32.0645C115.346 32.0645 116.29 32.4158 117.059 33.1186C117.828 33.8214 118.201 34.7218 118.201 35.8419C118.201 36.94 117.806 37.8624 117.059 38.5652ZM112.93 37.1377C113.26 37.489 113.677 37.6647 114.182 37.6647C114.709 37.6647 115.127 37.489 115.434 37.1377C115.763 36.7863 115.917 36.347 115.917 35.8419C115.917 35.3148 115.763 34.8975 115.434 34.5462C115.105 34.1948 114.687 34.0191 114.182 34.0191C113.655 34.0191 113.238 34.1948 112.93 34.5462C112.601 34.8975 112.447 35.3368 112.447 35.8419C112.447 36.369 112.623 36.7863 112.93 37.1377Z" fill="#15273E"/>
<path d="M125.757 39.4867H123.253L122.243 37.2026H121.452V39.4867H119.256V32.1953H123.143C123.956 32.1953 124.615 32.4369 125.076 32.9201C125.537 33.4032 125.779 33.9962 125.779 34.699C125.779 35.27 125.647 35.7312 125.383 36.1045C125.12 36.4779 124.812 36.7414 124.461 36.9171L125.757 39.4867ZM122.792 35.27C122.989 35.27 123.165 35.2261 123.297 35.1163C123.429 35.0284 123.495 34.8747 123.495 34.677C123.495 34.5013 123.429 34.3476 123.297 34.2597C123.165 34.1719 122.989 34.106 122.792 34.106H121.452V35.248H122.792V35.27Z" fill="#15273E"/>
<path d="M131.862 39.4867H126.898V32.1953H129.095V37.554H131.862V39.4867Z" fill="#15273E"/>
<path d="M136.232 39.4867H132.96V32.1953H136.21C137.396 32.1953 138.341 32.5247 139.087 33.1616C139.834 33.7985 140.207 34.699 140.207 35.841C140.207 36.983 139.834 37.8615 139.087 38.5203C138.363 39.1572 137.396 39.4867 136.232 39.4867ZM136.232 37.554C136.759 37.554 137.199 37.3783 137.506 37.0489C137.836 36.7195 137.989 36.3022 137.989 35.819C137.989 35.2919 137.836 34.8966 137.55 34.5672C137.243 34.2597 136.825 34.106 136.254 34.106H135.2V37.554H136.232Z" fill="#15273E"/>
<path d="M102.257 48.8207H100.061V41.5293H105.595V43.4619H102.279V44.1867H105.529V46.1193H102.279V48.8207H102.257Z" fill="#15273E"/>
<path d="M108.999 48.8207H106.803V41.5293H108.999V48.8207Z" fill="#15273E"/>
<path d="M113.283 48.9524C111.877 48.9524 110.757 48.5571 109.9 47.7884L111.042 46.1413C111.701 46.7782 112.47 47.0856 113.392 47.0856C113.941 47.0856 114.205 46.9539 114.205 46.6903C114.205 46.5585 114.073 46.4707 113.788 46.4048C113.502 46.3389 113.173 46.273 112.777 46.2071C112.382 46.1413 111.987 46.0315 111.591 45.8997C111.196 45.7679 110.867 45.5263 110.581 45.1749C110.296 44.8235 110.164 44.3843 110.164 43.8572C110.164 43.1984 110.427 42.6274 110.977 42.1442C111.504 41.661 112.25 41.4414 113.195 41.4414C114.425 41.4414 115.457 41.7708 116.291 42.4517L115.105 44.011C114.468 43.5278 113.766 43.2862 112.975 43.2862C112.602 43.2862 112.426 43.396 112.426 43.6156C112.426 43.7254 112.536 43.8133 112.733 43.8792C112.931 43.9451 113.173 44.011 113.48 44.0549C113.788 44.0988 114.095 44.1647 114.468 44.2745C114.82 44.3843 115.149 44.5161 115.457 44.6479C115.764 44.8016 116.006 45.0212 116.203 45.3287C116.401 45.6361 116.511 46.0095 116.511 46.4268C116.511 47.2174 116.225 47.8543 115.676 48.2935C115.018 48.7328 114.249 48.9524 113.283 48.9524Z" fill="#15273E"/>
<path d="M124.482 48.8207H122.286V46.0315H119.673V48.8207H117.477V41.5293H119.673V44.0988H122.286V41.5293H124.482V48.8207Z" fill="#15273E"/>
<path d="M128.173 48.8207H125.977V41.5293H128.173V48.8207Z" fill="#15273E"/>
<path d="M136.605 48.8207H134.475L131.796 45.1311V48.8207H129.6V41.5293H131.862L134.387 44.9773V41.5293H136.584V48.8207H136.605Z" fill="#15273E"/>
<path d="M141.656 48.9533C140.514 48.9533 139.57 48.602 138.801 47.9211C138.033 47.2403 137.659 46.3179 137.659 45.1759C137.659 44.0339 138.033 43.1334 138.801 42.4306C139.57 41.7498 140.514 41.3984 141.656 41.3984C142.447 41.3984 143.128 41.5741 143.655 41.9475C144.182 42.3208 144.599 42.7601 144.841 43.3091L142.974 44.2535C142.864 44.0119 142.688 43.7923 142.447 43.6166C142.205 43.4409 141.942 43.353 141.634 43.353C141.107 43.353 140.69 43.5287 140.361 43.8801C140.031 44.2315 139.877 44.6708 139.877 45.1759C139.877 45.703 140.031 46.1203 140.361 46.4716C140.69 46.823 141.107 46.9987 141.634 46.9987C141.832 46.9987 142.052 46.9768 142.271 46.9109C142.491 46.845 142.667 46.7791 142.776 46.6913V46.4277H141.415V44.4951H144.973V47.4819C144.094 48.4482 142.996 48.9533 141.656 48.9533Z" fill="#15273E"/>
<path d="M107.045 58.1546H104.915L102.235 54.465V58.1546H100.039V50.8633H102.323L104.849 54.3113V50.8633H107.045V58.1546Z" fill="#15273E"/>
<path d="M113.743 58.1546H108.209V50.8633H113.743V52.7959H110.427V53.5207H113.678V55.4533H110.427V56.244H113.743V58.1546Z" fill="#15273E"/>
<path d="M118.75 58.1546H116.554V52.7959H114.6V50.8633H120.705V52.7959H118.75V58.1546Z" fill="#15273E"/>
<path d="M130.083 58.1546H127.777L126.833 54.0258L125.888 58.1546H123.582L121.496 50.8633H123.956L124.9 55.3216L125.998 50.8633H127.667L128.765 55.3216L129.688 50.8633H132.17L130.083 58.1546Z" fill="#15273E"/>
<path d="M138.956 57.2332C138.187 57.9359 137.243 58.2873 136.101 58.2873C134.959 58.2873 134.014 57.9359 133.246 57.2332C132.477 56.5304 132.104 55.6299 132.104 54.5099C132.104 53.4118 132.477 52.4894 133.246 51.7866C134.014 51.0838 134.959 50.7324 136.101 50.7324C137.243 50.7324 138.187 51.0838 138.956 51.7866C139.724 52.4894 140.098 53.3898 140.098 54.5099C140.098 55.6299 139.702 56.5304 138.956 57.2332ZM134.849 55.8276C135.178 56.179 135.595 56.3547 136.101 56.3547C136.628 56.3547 137.045 56.179 137.352 55.8276C137.682 55.4762 137.836 55.037 137.836 54.5318C137.836 54.0048 137.682 53.5875 137.352 53.2361C137.023 52.8847 136.606 52.709 136.101 52.709C135.573 52.709 135.156 52.8847 134.849 53.2361C134.519 53.5875 134.366 54.0267 134.366 54.5318C134.344 55.037 134.519 55.4762 134.849 55.8276Z" fill="#15273E"/>
<path d="M147.52 58.1546H145.017L144.006 55.8706H143.216V58.1546H141.02V50.8633H144.907C145.719 50.8633 146.378 51.1049 146.839 51.588C147.301 52.0712 147.542 52.6642 147.542 53.3669C147.542 53.938 147.41 54.3992 147.147 54.7725C146.883 55.1459 146.576 55.4094 146.225 55.5851L147.52 58.1546ZM144.555 53.938C144.753 53.938 144.929 53.894 145.061 53.7842C145.192 53.6964 145.258 53.5426 145.258 53.345C145.258 53.1693 145.192 53.0156 145.061 52.9277C144.929 52.8399 144.753 52.774 144.555 52.774H143.216V53.916H144.555V53.938Z" fill="#15273E"/>
<path d="M155.69 58.1546H153.011L151.364 55.5851L150.969 56.1341V58.1546H148.772V50.8633H150.969V53.5866L152.879 50.8633H155.581L152.835 54.2454L155.69 58.1546Z" fill="#15273E"/>
</svg>
