<svg width="200" height="91" viewBox="0 0 200 91" fill="none" xmlns="http://www.w3.org/2000/svg">
<path d="M90.0479 69.8735H86.1119C86.011 69.8735 85.9101 69.7748 85.9101 69.6761V51.1167C85.9101 51.018 86.011 50.9193 86.1119 50.9193C87.2894 50.9193 93.2101 50.8534 95.3631 50.8205C98.1216 50.7547 100.712 51.1825 101.721 54.1112C102.394 57.0399 102.259 59.3763 99.5345 60.9558C102.831 63.0619 101.418 66.6487 102.495 69.6103C102.529 69.7419 102.461 69.8735 102.293 69.8735H98.4917C98.3908 69.8735 98.3235 69.8077 98.2898 69.709C98.1553 69.1167 98.0207 68.4586 97.9198 67.8004C97.7516 66.7803 97.7179 65.7273 97.5161 64.7072C97.2806 63.5225 96.5405 62.667 95.2622 62.6012C93.8829 62.5353 91.2253 62.5682 90.4516 62.5682C90.3507 62.5682 90.2497 62.667 90.2497 62.7657V69.6761C90.2497 69.7748 90.1488 69.8735 90.0479 69.8735ZM90.2834 59.113C90.2834 59.2118 90.3843 59.3105 90.4852 59.3105C92.3355 59.3105 94.0511 59.4092 95.7332 59.2776C97.2133 59.1459 97.7516 58.06 97.7516 56.7108C97.7516 55.4275 97.2133 54.3745 95.8004 54.2428C94.0511 54.1112 92.3018 54.2099 90.4852 54.2099C90.3843 54.2099 90.2834 54.3087 90.2834 54.4074V59.113Z" fill="#4587BC"/>
<path d="M112.975 69.7422V51.0182C112.975 50.9195 113.076 50.8208 113.177 50.8208H120.275C121.015 50.8208 121.789 50.8537 122.529 50.9524C123.403 51.0841 124.211 51.2486 124.917 51.446C127.003 52.1042 128.483 53.5521 129.291 55.5265C130.67 58.9488 130.636 62.3711 128.988 65.7276C127.709 68.2943 125.422 69.7093 122.562 69.9067C119.77 70.1042 114.253 69.9725 113.143 69.9725C113.042 69.9396 112.975 69.8409 112.975 69.7422ZM117.314 66.1553C117.314 66.2541 117.415 66.3528 117.516 66.3528C119.77 66.3528 123.168 67.1426 125.018 64.2139C126.296 62.2065 126.095 57.9616 124.749 56.1846C124.213 55.486 123.635 55.0899 122.83 54.7696C122.133 54.5409 121.38 54.5628 120.646 54.5503C119.446 54.5298 117.671 54.5106 117.483 54.5722C117.382 54.6051 117.348 54.6709 117.348 54.7696V66.1553H117.314Z" fill="#4587BC"/>
<path d="M142.126 51.0183L149.224 69.5449C149.258 69.6765 149.191 69.8081 149.022 69.8081H144.952C144.851 69.8081 144.784 69.7423 144.75 69.6765L143.371 65.9251C143.337 65.8593 143.27 65.7935 143.169 65.7935H136.273C136.205 65.7935 136.104 65.8593 136.071 65.9251L134.557 69.7423C134.523 69.8081 134.456 69.8739 134.355 69.8739H130.486C130.352 69.8739 130.251 69.7423 130.285 69.6107L137.45 51.0183C137.484 50.9525 137.551 50.8867 137.652 50.8867H141.891C141.991 50.8867 142.092 50.9525 142.126 51.0183ZM142.059 62.075L139.973 56.1189C139.906 55.9544 139.67 55.9544 139.603 56.1189L137.517 62.075C137.484 62.2066 137.585 62.3383 137.719 62.3383H141.924C141.991 62.3383 142.092 62.2066 142.059 62.075Z" fill="#4587BC"/>
<path d="M83.102 60.3637C83.102 66.616 79.6778 70.2029 73.7935 70.2029C67.7763 70.2029 64.4186 66.616 64.4186 60.2321C64.4186 54.1114 67.876 50.4917 73.7603 50.4917C79.6778 50.5246 83.102 54.1114 83.102 60.3637ZM68.9066 60.2979C68.9066 64.4113 70.7018 66.8134 73.7603 66.8134C76.7855 66.8134 78.614 64.3784 78.614 60.3966C78.614 56.4149 76.7855 53.9798 73.7603 53.9798C70.7683 53.9469 68.9066 56.3491 68.9066 60.2979Z" fill="#4587BC"/>
<path d="M50.0243 50.8867H53.7584C53.8593 50.8867 53.9602 50.9854 53.9602 51.0842V66.1555C53.9602 66.2542 54.0611 66.3529 54.1621 66.3529H63.2114C63.3123 66.3529 63.4132 66.4516 63.4132 66.5503V69.6436C63.4132 69.7423 63.3123 69.841 63.2114 69.841H50.0243C49.9234 69.841 49.8224 69.7423 49.8224 69.6436V51.0842C49.8224 50.9854 49.9234 50.8867 50.0243 50.8867Z" fill="#4587BC"/>
<path d="M105.514 50.8867H109.281C109.382 50.8867 109.483 50.9854 109.483 51.0842V69.6107C109.483 69.7094 109.382 69.8081 109.281 69.8081H105.514C105.413 69.8081 105.312 69.7094 105.312 69.6107V51.0842C105.312 50.9854 105.413 50.8867 105.514 50.8867Z" fill="#4587BC"/>
<path d="M46.1762 62.0417H38.607C38.5061 62.0417 38.4052 62.1404 38.4052 62.2392V69.6432C38.4052 69.7419 38.3043 69.8406 38.2034 69.8406H34.3347C34.2338 69.8406 34.1328 69.7419 34.1328 69.6432V51.1496C34.1328 51.0509 34.2338 50.9521 34.3347 50.9521H47.5218C47.6227 50.9521 47.7236 51.0509 47.7236 51.1496V54.2757H38.708C38.607 54.2757 38.5061 54.3745 38.5061 54.4732V58.4878C38.5061 58.5865 38.607 58.6852 38.708 58.6852H46.2098C46.3107 58.6852 46.4117 58.784 46.4117 58.8827V61.8772C46.378 61.9759 46.2771 62.0417 46.1762 62.0417Z" fill="#4587BC"/>
<path d="M120.085 73.0952H121.565C121.632 73.0952 121.7 73.1281 121.733 73.1939L128.428 83.1976C128.495 83.2963 128.63 83.2305 128.63 83.1318L128.596 73.2927C128.596 73.1939 128.697 73.0952 128.798 73.0952H130.076C130.177 73.0952 130.278 73.1939 130.278 73.2927V85.8301C130.278 85.9288 130.177 86.0276 130.076 86.0276H128.428C128.36 86.0276 128.293 85.9947 128.26 85.9289L121.801 76.1884C121.733 76.0897 121.599 76.1555 121.599 76.2543V85.7972C121.599 85.896 121.498 85.9947 121.397 85.9947H120.085C119.984 85.9947 119.883 85.896 119.883 85.7972V73.2598C119.883 73.161 119.984 73.0952 120.085 73.0952Z" fill="#4587BC"/>
<path d="M132.918 73.0952H134.398C134.465 73.0952 134.532 73.1281 134.566 73.1939L141.26 83.1976C141.328 83.2963 141.462 83.2305 141.462 83.1318L141.429 73.2927C141.429 73.1939 141.53 73.0952 141.631 73.0952H142.909C143.01 73.0952 143.111 73.1939 143.111 73.2927V85.8301C143.111 85.9288 143.01 86.0276 142.909 86.0276H141.26C141.193 86.0276 141.126 85.9947 141.092 85.9289L134.633 76.1884C134.566 76.0897 134.431 76.1555 134.431 76.2543V85.7972C134.431 85.896 134.331 85.9947 134.23 85.9947H132.918C132.817 85.9947 132.716 85.896 132.716 85.7972V73.2598C132.716 73.161 132.817 73.0952 132.918 73.0952Z" fill="#4587BC"/>
<path d="M60.3856 40.6854V44.7987C60.3856 44.8646 60.4192 44.8975 60.4865 44.8975H67.4164C67.5174 44.8975 67.6183 44.9962 67.6183 45.0949V46.3125C67.6183 46.4112 67.5174 46.5099 67.4164 46.5099H58.7372C58.6363 46.5099 58.5353 46.4112 58.5353 46.3125V33.7092C58.5353 33.6104 58.6363 33.5117 58.7372 33.5117H67.4164C67.5174 33.5117 67.6183 33.6104 67.6183 33.7092V34.828C67.6183 34.9267 67.5174 35.0254 67.4164 35.0254H60.4865C60.4192 35.0254 60.3856 35.0583 60.3856 35.1242V38.8755C60.3856 38.9413 60.4192 38.9742 60.4865 38.9742H66.8445C66.9455 38.9742 67.0464 39.073 67.0464 39.1717V40.3892C67.0464 40.488 66.9455 40.5867 66.8445 40.5867H60.4865C60.4528 40.5867 60.3856 40.6196 60.3856 40.6854Z" fill="#4587BC"/>
<path d="M97.1723 80.2362V85.8303C97.1723 85.9291 97.0714 86.0278 96.9704 86.0278H95.5912C95.4902 86.0278 95.3893 85.9291 95.3893 85.8303V73.2929C95.3893 73.1941 95.4902 73.0954 95.5912 73.0954H96.9032C97.0041 73.0954 97.105 73.1941 97.105 73.2929V78.558H103.833V73.2929C103.833 73.1941 103.934 73.0954 104.035 73.0954H105.515C105.616 73.0954 105.717 73.1941 105.717 73.2929V85.8303C105.717 85.9291 105.616 86.0278 105.515 86.0278H104.17C104.069 86.0278 103.968 85.9291 103.968 85.8303V80.2362H97.1723Z" fill="#4587BC"/>
<path d="M47.2143 40.8499V46.3125C47.2143 46.4112 47.1133 46.5099 47.0124 46.5099H45.7341C45.6331 46.5099 45.5322 46.4112 45.5322 46.3125V33.7092C45.5322 33.6104 45.6331 33.5117 45.7341 33.5117H46.9115C47.0124 33.5117 47.1133 33.6104 47.1133 33.7092V38.8426C47.1133 38.9084 47.147 38.9413 47.2143 38.9413H53.976C54.0433 38.9413 54.0769 38.9084 54.0769 38.8426V33.7092C54.0769 33.6104 54.1778 33.5117 54.2788 33.5117H55.5571C55.658 33.5117 55.7589 33.6104 55.7589 33.7092V46.3125C55.7589 46.4112 55.658 46.5099 55.5571 46.5099H54.3797C54.2788 46.5099 54.1778 46.4112 54.1778 46.3125V40.8499C54.1778 40.7841 54.1442 40.7512 54.0769 40.7512H47.3152C47.2479 40.7512 47.2143 40.7841 47.2143 40.8499Z" fill="#4587BC"/>
<path d="M146.028 73.0954H154.775C154.876 73.0954 154.977 73.1941 154.977 73.2929V74.3459C154.977 74.4446 154.876 74.5433 154.775 74.5433H147.811C147.744 74.5433 147.71 74.5762 147.71 74.642V78.4921C147.71 78.558 147.744 78.5909 147.811 78.5909H154.203C154.304 78.5909 154.405 78.6896 154.405 78.7883V79.8742C154.405 79.9729 154.304 80.0717 154.203 80.0717H147.878C147.811 80.0717 147.777 80.1046 147.777 80.1704V84.4154C147.777 84.4812 147.811 84.5141 147.878 84.5141H154.775C154.876 84.5141 154.977 84.6128 154.977 84.7115V85.7974C154.977 85.8962 154.876 85.9949 154.775 85.9949H146.028C145.927 85.9949 145.826 85.8962 145.826 85.7974V73.26C145.826 73.1612 145.894 73.0954 146.028 73.0954Z" fill="#4587BC"/>
<path d="M111.807 73.0954H113.556C113.623 73.0954 113.724 73.1612 113.758 73.2271L118.703 85.7645C118.77 85.8962 118.669 86.0278 118.501 86.0278H117.021C116.954 86.0278 116.853 85.9949 116.819 85.8962C116.617 85.4026 115.877 83.5269 115.44 82.408C115.406 82.3422 115.339 82.2764 115.238 82.2764H110.024C109.956 82.2764 109.855 82.3093 109.822 82.408C109.384 83.494 108.611 85.3697 108.443 85.8962C108.409 85.962 108.342 86.0278 108.241 86.0278H106.895C106.76 86.0278 106.66 85.8962 106.693 85.7645L111.605 73.2271C111.672 73.1283 111.739 73.0954 111.807 73.0954ZM112.479 75.3331C111.807 77.143 111.235 78.6567 110.629 80.2362C110.596 80.3678 110.663 80.4995 110.831 80.4995H114.464C114.599 80.4995 114.7 80.3678 114.666 80.2362C114.094 78.6238 113.522 77.1101 112.883 75.3331C112.816 75.1686 112.547 75.1686 112.479 75.3331Z" fill="#4587BC"/>
<path d="M93.2278 76.9786H92.1513C92.0504 76.9786 91.9495 76.8799 91.9495 76.7811C91.8149 74.708 89.2583 74.017 87.1725 74.4118C85.5242 74.708 84.044 76.123 83.8758 77.9C83.7412 79.1833 83.7412 80.5325 84.0103 81.783C84.4477 83.7245 86.1297 84.8433 88.0808 84.8104C89.9983 84.8104 91.243 83.9219 91.9159 81.8488C91.9495 81.7171 91.9831 81.5197 92.0168 81.3552C92.0168 81.2565 92.1177 81.1906 92.2186 81.1906H93.2615C93.3624 81.1906 93.4633 81.2894 93.4633 81.3881C93.396 83.9877 91.6804 85.8634 89.1237 86.2254C85.6924 86.6861 82.8329 85.1065 82.261 82.1449C81.9583 80.5325 81.9246 78.7555 82.261 77.1102C82.7993 74.2802 85.3896 72.6678 88.5182 72.7336C92.6559 72.8323 93.3624 75.8597 93.4633 76.7153C93.4297 76.8799 93.3288 76.9786 93.2278 76.9786Z" fill="#4587BC"/>
<path d="M44.2699 33.7092V34.8609C44.2699 34.9596 44.169 35.0583 44.0681 35.0583H40.0649C39.9976 35.0583 39.9639 35.0912 39.9639 35.1571V46.3454C39.9639 46.4441 39.863 46.5428 39.7621 46.5428H38.2819C38.181 46.5428 38.0801 46.4441 38.0801 46.3454V35.2558C38.0801 35.19 38.0464 35.1571 37.9791 35.1571H34.0768C33.9759 35.1571 33.875 35.0583 33.875 34.9596V33.7092C33.875 33.6104 33.9759 33.5117 34.0768 33.5117H44.0681C44.2026 33.5117 44.2699 33.5775 44.2699 33.7092Z" fill="#4587BC"/>
<path d="M156.648 85.7974V73.2599C156.648 73.1612 156.749 73.0625 156.85 73.0625H158.195C158.296 73.0625 158.397 73.1612 158.397 73.2599V84.2179C158.397 84.3166 158.498 84.4153 158.599 84.4153H164.755C164.856 84.4153 164.957 84.5141 164.957 84.6128V85.7645C164.957 85.8632 164.856 85.962 164.755 85.962H156.85C156.749 85.9949 156.648 85.929 156.648 85.7974Z" fill="#4587BC"/>
<path d="M133.024 47.1361C130.03 47.1361 113.614 47.1361 110.317 47.1361C106.348 47.8929 98.1392 39.9295 97.1637 39.1068C90.301 32.5584 84.0775 44.7997 76.8111 45.8198C75.2637 42.3317 74.3554 38.5474 74.2881 34.5328C86.5332 38.8765 87.9125 35.9477 91.8148 33.4797C93.4968 32.4267 95.448 31.3408 99.3503 31.1763C103.152 31.0117 106.852 34.3024 110.183 36.0136C112.033 37.9551 133.092 36.6059 135.783 36.935C135.48 40.2914 134.538 43.9441 133.024 47.1361ZM84.6494 27.9514C96.1881 19.1982 98.913 29.2348 108.702 31.9989C112.638 32.5254 131.645 31.966 135.884 32.0318C135.615 27.8527 134.471 23.871 132.587 20.2841C129.223 19.8893 107.323 21.3371 104.8 19.3298C97.8028 15.1178 92.7231 8.27316 83.2701 16.4669C83.2701 16.4669 82.16 17.3554 80.7134 18.2768C79.9061 18.7704 79.166 19.2969 78.0222 19.6918C76.0374 23.2128 74.7927 27.1616 74.389 31.3408C75.5664 31.5053 79.0314 31.7028 84.6494 27.9514ZM91.7812 10.9057C97.3319 10.9715 98.8793 12.8472 102.21 14.5254C104.094 15.6114 107.592 16.8289 109.981 16.6315C112.605 16.5986 126.902 16.5657 130.3 16.5328C120.006 0.836233 93.8669 -0.381317 81.9581 14.1964C85.8941 12.8143 87.9462 10.8399 91.7812 10.9057Z" fill="url(#paint0_linear_2050_62335)"/>
<path d="M156.847 14.6223C156.981 14.6223 157.114 14.4916 157.114 14.3609V4.6461C157.114 4.5154 157.248 4.3847 157.381 4.3847H162.637C162.77 4.3847 162.904 4.5154 162.904 4.6461V29.1292C162.904 29.2599 162.77 29.3906 162.637 29.3906H157.515C157.381 29.3906 157.248 29.2599 157.248 29.1292V19.3273C157.248 19.1966 157.114 19.0659 156.981 19.0659H147.543C147.41 19.0659 147.276 19.1966 147.276 19.3273V29.1292C147.276 29.2599 147.143 29.3906 147.009 29.3906H141.887C141.754 29.3906 141.62 29.2599 141.62 29.1292V4.6461C141.62 4.5154 141.754 4.3847 141.887 4.3847H147.143C147.276 4.3847 147.41 4.5154 147.41 4.6461V14.3609C147.41 14.4916 147.543 14.6223 147.677 14.6223H156.847Z" fill="black"/>
<path d="M165.387 29.0221V4.23404C165.387 4.10334 165.521 3.97266 165.654 3.97266H175.051C176.031 3.97266 177.055 4.01622 178.035 4.14691C179.193 4.32117 180.262 4.53899 181.197 4.80038C183.958 5.67166 185.918 7.5885 186.987 10.2024C188.813 14.733 188.768 19.2637 186.586 23.7073C184.894 27.1053 181.865 28.9786 178.08 29.24C174.383 29.5013 167.079 29.3271 165.61 29.3271C165.476 29.2835 165.387 29.1528 165.387 29.0221ZM171.132 24.2736C171.132 24.4043 171.266 24.535 171.399 24.535C174.383 24.535 178.881 25.5806 181.331 21.7033C183.023 19.0459 182.756 13.4261 180.974 11.0736C180.265 10.1487 179.5 9.62443 178.434 9.20037C177.512 8.89755 176.514 8.9266 175.543 8.91001C173.954 8.88287 171.605 8.85749 171.355 8.93899C171.221 8.98255 171.177 9.06968 171.177 9.20037V24.2736H171.132Z" fill="black"/>
<defs>
<linearGradient id="paint0_linear_2050_62335" x1="74.3059" y1="25.5944" x2="135.876" y2="25.5944" gradientUnits="userSpaceOnUse">
<stop stop-color="#EC3934"/>
<stop offset="0.2376" stop-color="#F1763A"/>
<stop offset="0.5098" stop-color="#F9AA41"/>
<stop offset="0.7498" stop-color="#FFE048"/>
<stop offset="1" stop-color="#FFF360"/>
</linearGradient>
</defs>
</svg>
