<svg width="201" height="91" viewBox="0 0 201 91" fill="none" xmlns="http://www.w3.org/2000/svg">
<path d="M90.9229 70.2349H86.9869C86.886 70.2349 86.7851 70.1362 86.7851 70.0374V51.478C86.7851 51.3793 86.886 51.2806 86.9869 51.2806C88.1644 51.2806 94.0851 51.2148 96.2381 51.1819C98.9966 51.1161 101.587 51.5438 102.596 54.4725C103.269 57.4012 103.134 59.7376 100.41 61.3171C103.706 63.4232 102.293 67.01 103.37 69.9716C103.404 70.1032 103.336 70.2349 103.168 70.2349H99.3667C99.2658 70.2349 99.1985 70.1691 99.1648 70.0703C99.0303 69.478 98.8957 68.8199 98.7948 68.1618C98.6266 67.1416 98.5929 66.0886 98.3911 65.0685C98.1556 63.8839 97.4155 63.0283 96.1372 62.9625C94.7579 62.8967 92.1003 62.9296 91.3266 62.9296C91.2257 62.9296 91.1247 63.0283 91.1247 63.127V70.0374C91.1247 70.1362 91.0238 70.2349 90.9229 70.2349ZM91.1584 59.4744C91.1584 59.5731 91.2593 59.6718 91.3602 59.6718C93.2105 59.6718 94.9261 59.7705 96.6082 59.6389C98.0883 59.5073 98.6266 58.4213 98.6266 57.0722C98.6266 55.7888 98.0883 54.7358 96.6754 54.6042C94.9261 54.4725 93.1768 54.5713 91.3602 54.5713C91.2593 54.5713 91.1584 54.67 91.1584 54.7687V59.4744Z" fill="#4587BC"/>
<path d="M113.85 70.1035V51.3796C113.85 51.2808 113.951 51.1821 114.052 51.1821H121.15C121.89 51.1821 122.664 51.215 123.404 51.3138C124.278 51.4454 125.086 51.6099 125.792 51.8074C127.878 52.4655 129.358 53.9134 130.166 55.8878C131.545 59.3101 131.511 62.7324 129.863 66.0889C128.584 68.6556 126.297 70.0706 123.437 70.2681C120.645 70.4655 115.128 70.3339 114.018 70.3339C113.917 70.301 113.85 70.2022 113.85 70.1035ZM118.189 66.5167C118.189 66.6154 118.29 66.7141 118.391 66.7141C120.645 66.7141 124.043 67.5039 125.893 64.5752C127.171 62.5679 126.97 58.3229 125.624 56.5459C125.088 55.8473 124.51 55.4513 123.705 55.1309C123.008 54.9022 122.255 54.9241 121.521 54.9116C120.321 54.8911 118.546 54.8719 118.358 54.9335C118.257 54.9664 118.223 55.0322 118.223 55.1309V66.5167H118.189Z" fill="#4587BC"/>
<path d="M143.001 51.3797L150.099 69.9062C150.133 70.0378 150.066 70.1694 149.897 70.1694H145.827C145.726 70.1694 145.659 70.1036 145.625 70.0378L144.246 66.2864C144.212 66.2206 144.145 66.1548 144.044 66.1548H137.148C137.08 66.1548 136.979 66.2206 136.946 66.2864L135.432 70.1036C135.398 70.1694 135.331 70.2352 135.23 70.2352H131.361C131.227 70.2352 131.126 70.1036 131.16 69.972L138.325 51.3797C138.359 51.3139 138.426 51.248 138.527 51.248H142.766C142.866 51.248 142.967 51.3139 143.001 51.3797ZM142.934 62.4363L140.848 56.4802C140.781 56.3157 140.545 56.3157 140.478 56.4802L138.392 62.4363C138.359 62.568 138.46 62.6996 138.594 62.6996H142.799C142.866 62.6996 142.967 62.568 142.934 62.4363Z" fill="#4587BC"/>
<path d="M83.977 60.7251C83.977 66.9773 80.5528 70.5642 74.6685 70.5642C68.6513 70.5642 65.2936 66.9773 65.2936 60.5934C65.2936 54.4728 68.751 50.853 74.6353 50.853C80.5528 50.8859 83.977 54.4728 83.977 60.7251ZM69.7816 60.6592C69.7816 64.7726 71.5768 67.1748 74.6353 67.1748C77.6605 67.1748 79.489 64.7397 79.489 60.758C79.489 56.7762 77.6605 54.3411 74.6353 54.3411C71.6433 54.3082 69.7816 56.7104 69.7816 60.6592Z" fill="#4587BC"/>
<path d="M50.8993 51.248H54.6334C54.7343 51.248 54.8352 51.3468 54.8352 51.4455V66.5168C54.8352 66.6155 54.9361 66.7142 55.0371 66.7142H64.0864C64.1873 66.7142 64.2882 66.813 64.2882 66.9117V70.0049C64.2882 70.1036 64.1873 70.2023 64.0864 70.2023H50.8993C50.7984 70.2023 50.6974 70.1036 50.6974 70.0049V51.4455C50.6974 51.3468 50.7984 51.248 50.8993 51.248Z" fill="#4587BC"/>
<path d="M106.389 51.248H110.156C110.257 51.248 110.358 51.3468 110.358 51.4455V69.972C110.358 70.0707 110.257 70.1694 110.156 70.1694H106.389C106.288 70.1694 106.187 70.0707 106.187 69.972V51.4455C106.187 51.3468 106.288 51.248 106.389 51.248Z" fill="#4587BC"/>
<path d="M47.0512 62.4031H39.482C39.3811 62.4031 39.2802 62.5018 39.2802 62.6005V70.0045C39.2802 70.1032 39.1793 70.202 39.0784 70.202H35.2097C35.1088 70.202 35.0078 70.1032 35.0078 70.0045V51.5109C35.0078 51.4122 35.1088 51.3135 35.2097 51.3135H48.3968C48.4977 51.3135 48.5986 51.4122 48.5986 51.5109V54.6371H39.583C39.482 54.6371 39.3811 54.7358 39.3811 54.8345V58.8491C39.3811 58.9478 39.482 59.0466 39.583 59.0466H47.0848C47.1857 59.0466 47.2867 59.1453 47.2867 59.244V62.2385C47.253 62.3372 47.1521 62.4031 47.0512 62.4031Z" fill="#4587BC"/>
<path d="M120.96 73.4565H122.44C122.507 73.4565 122.575 73.4894 122.608 73.5553L129.303 83.5589C129.37 83.6576 129.505 83.5918 129.505 83.4931L129.471 73.654C129.471 73.5553 129.572 73.4565 129.673 73.4565H130.951C131.052 73.4565 131.153 73.5553 131.153 73.654V86.1915C131.153 86.2902 131.052 86.3889 130.951 86.3889H129.303C129.235 86.3889 129.168 86.356 129.135 86.2902L122.676 76.5498C122.608 76.4511 122.474 76.5169 122.474 76.6156V86.1586C122.474 86.2573 122.373 86.356 122.272 86.356H120.96C120.859 86.356 120.758 86.2573 120.758 86.1586V73.6211C120.758 73.5224 120.859 73.4565 120.96 73.4565Z" fill="#4587BC"/>
<path d="M133.793 73.4565H135.273C135.34 73.4565 135.407 73.4894 135.441 73.5553L142.135 83.5589C142.203 83.6576 142.337 83.5918 142.337 83.4931L142.304 73.654C142.304 73.5553 142.405 73.4565 142.506 73.4565H143.784C143.885 73.4565 143.986 73.5553 143.986 73.654V86.1915C143.986 86.2902 143.885 86.3889 143.784 86.3889H142.135C142.068 86.3889 142.001 86.356 141.967 86.2902L135.508 76.5498C135.441 76.4511 135.306 76.5169 135.306 76.6156V86.1586C135.306 86.2573 135.206 86.356 135.105 86.356H133.793C133.692 86.356 133.591 86.2573 133.591 86.1586V73.6211C133.591 73.5224 133.692 73.4565 133.793 73.4565Z" fill="#4587BC"/>
<path d="M61.2606 41.0467V45.1601C61.2606 45.2259 61.2942 45.2588 61.3615 45.2588H68.2914C68.3924 45.2588 68.4933 45.3575 68.4933 45.4562V46.6738C68.4933 46.7725 68.3924 46.8712 68.2914 46.8712H59.6122C59.5113 46.8712 59.4103 46.7725 59.4103 46.6738V34.0705C59.4103 33.9718 59.5113 33.873 59.6122 33.873H68.2914C68.3924 33.873 68.4933 33.9718 68.4933 34.0705V35.1893C68.4933 35.288 68.3924 35.3868 68.2914 35.3868H61.3615C61.2942 35.3868 61.2606 35.4197 61.2606 35.4855V39.2369C61.2606 39.3027 61.2942 39.3356 61.3615 39.3356H67.7195C67.8205 39.3356 67.9214 39.4343 67.9214 39.533V40.7506C67.9214 40.8493 67.8205 40.948 67.7195 40.948H61.3615C61.3278 40.948 61.2606 40.9809 61.2606 41.0467Z" fill="#4587BC"/>
<path d="M98.0473 80.5975V86.1917C98.0473 86.2904 97.9464 86.3891 97.8454 86.3891H96.4662C96.3652 86.3891 96.2643 86.2904 96.2643 86.1917V73.6542C96.2643 73.5555 96.3652 73.4568 96.4662 73.4568H97.7782C97.8791 73.4568 97.98 73.5555 97.98 73.6542V78.9193H104.708V73.6542C104.708 73.5555 104.809 73.4568 104.91 73.4568H106.39C106.491 73.4568 106.592 73.5555 106.592 73.6542V86.1917C106.592 86.2904 106.491 86.3891 106.39 86.3891H105.045C104.944 86.3891 104.843 86.2904 104.843 86.1917V80.5975H98.0473Z" fill="#4587BC"/>
<path d="M48.0893 41.2113V46.6738C48.0893 46.7725 47.9883 46.8712 47.8874 46.8712H46.6091C46.5081 46.8712 46.4072 46.7725 46.4072 46.6738V34.0705C46.4072 33.9718 46.5081 33.873 46.6091 33.873H47.7865C47.8874 33.873 47.9883 33.9718 47.9883 34.0705V39.2039C47.9883 39.2698 48.022 39.3027 48.0893 39.3027H54.851C54.9183 39.3027 54.9519 39.2698 54.9519 39.2039V34.0705C54.9519 33.9718 55.0528 33.873 55.1538 33.873H56.4321C56.533 33.873 56.6339 33.9718 56.6339 34.0705V46.6738C56.6339 46.7725 56.533 46.8712 56.4321 46.8712H55.2547C55.1538 46.8712 55.0528 46.7725 55.0528 46.6738V41.2113C55.0528 41.1454 55.0192 41.1125 54.9519 41.1125H48.1902C48.1229 41.1125 48.0893 41.1454 48.0893 41.2113Z" fill="#4587BC"/>
<path d="M146.903 73.4568H155.65C155.751 73.4568 155.852 73.5555 155.852 73.6542V74.7072C155.852 74.8059 155.751 74.9047 155.65 74.9047H148.686C148.619 74.9047 148.585 74.9376 148.585 75.0034V78.8535C148.585 78.9193 148.619 78.9522 148.686 78.9522H155.078C155.179 78.9522 155.28 79.0509 155.28 79.1496V80.2355C155.28 80.3343 155.179 80.433 155.078 80.433H148.753C148.686 80.433 148.652 80.4659 148.652 80.5317V84.7767C148.652 84.8425 148.686 84.8754 148.753 84.8754H155.65C155.751 84.8754 155.852 84.9741 155.852 85.0728V86.1588C155.852 86.2575 155.751 86.3562 155.65 86.3562H146.903C146.802 86.3562 146.701 86.2575 146.701 86.1588V73.6213C146.701 73.5226 146.769 73.4568 146.903 73.4568Z" fill="#4587BC"/>
<path d="M112.682 73.4568H114.431C114.498 73.4568 114.599 73.5226 114.633 73.5884L119.578 86.1259C119.645 86.2575 119.544 86.3891 119.376 86.3891H117.896C117.829 86.3891 117.728 86.3562 117.694 86.2575C117.492 85.7639 116.752 83.8882 116.315 82.7694C116.281 82.7036 116.214 82.6377 116.113 82.6377H110.899C110.831 82.6377 110.73 82.6707 110.697 82.7694C110.259 83.8553 109.486 85.731 109.318 86.2575C109.284 86.3233 109.217 86.3891 109.116 86.3891H107.77C107.635 86.3891 107.535 86.2575 107.568 86.1259L112.48 73.5884C112.547 73.4897 112.614 73.4568 112.682 73.4568ZM113.354 75.6944C112.682 77.5043 112.11 79.018 111.504 80.5975C111.471 80.7292 111.538 80.8608 111.706 80.8608H115.339C115.474 80.8608 115.575 80.7292 115.541 80.5975C114.969 78.9851 114.397 77.4714 113.758 75.6944C113.691 75.5299 113.422 75.5299 113.354 75.6944Z" fill="#4587BC"/>
<path d="M94.1028 77.3399H93.0263C92.9254 77.3399 92.8245 77.2412 92.8245 77.1425C92.6899 75.0693 90.1333 74.3783 88.0475 74.7732C86.3992 75.0693 84.919 76.4843 84.7508 78.2613C84.6162 79.5447 84.6162 80.8938 84.8853 82.1443C85.3227 84.0858 87.0047 85.2046 88.9558 85.1717C90.8733 85.1717 92.118 84.2832 92.7909 82.2101C92.8245 82.0785 92.8581 81.881 92.8918 81.7165C92.8918 81.6178 92.9927 81.552 93.0936 81.552H94.1365C94.2374 81.552 94.3383 81.6507 94.3383 81.7494C94.271 84.349 92.5554 86.2247 89.9987 86.5867C86.5674 87.0474 83.7079 85.4679 83.136 82.5063C82.8333 80.8938 82.7996 79.1169 83.136 77.4715C83.6743 74.6415 86.2646 73.0291 89.3932 73.0949C93.5309 73.1936 94.2374 76.2211 94.3383 77.0766C94.3047 77.2412 94.2038 77.3399 94.1028 77.3399Z" fill="#4587BC"/>
<path d="M45.1449 34.0705V35.2222C45.1449 35.3209 45.044 35.4197 44.9431 35.4197H40.9399C40.8726 35.4197 40.8389 35.4526 40.8389 35.5184V46.7067C40.8389 46.8054 40.738 46.9041 40.6371 46.9041H39.1569C39.056 46.9041 38.9551 46.8054 38.9551 46.7067V35.6171C38.9551 35.5513 38.9214 35.5184 38.8541 35.5184H34.9518C34.8509 35.5184 34.75 35.4197 34.75 35.3209V34.0705C34.75 33.9718 34.8509 33.873 34.9518 33.873H44.9431C45.0776 33.873 45.1449 33.9389 45.1449 34.0705Z" fill="#4587BC"/>
<path d="M157.523 86.1587V73.6213C157.523 73.5225 157.624 73.4238 157.725 73.4238H159.07C159.171 73.4238 159.272 73.5225 159.272 73.6213V84.5792C159.272 84.6779 159.373 84.7767 159.474 84.7767H165.63C165.731 84.7767 165.832 84.8754 165.832 84.9741V86.1258C165.832 86.2246 165.731 86.3233 165.63 86.3233H157.725C157.624 86.3562 157.523 86.2904 157.523 86.1587Z" fill="#4587BC"/>
<path d="M133.899 47.4954C130.905 47.4954 114.489 47.4954 111.192 47.4954C107.223 48.2523 99.0142 40.2888 98.0387 39.4662C91.176 32.9177 84.9525 45.159 77.6861 46.1792C76.1387 42.691 75.2304 38.9068 75.1631 34.8921C87.4082 39.2358 88.7875 36.3071 92.6898 33.8391C94.3718 32.7861 96.323 31.7002 100.225 31.5356C104.027 31.3711 107.727 34.6618 111.058 36.3729C112.908 38.3144 133.967 36.9653 136.658 37.2943C136.355 40.6508 135.413 44.3035 133.899 47.4954ZM85.5244 28.3108C97.0631 19.5576 99.788 29.5941 109.577 32.3583C113.513 32.8848 132.52 32.3254 136.759 32.3912C136.49 28.2121 135.346 24.2303 133.462 20.6435C130.098 20.2486 108.198 21.6965 105.675 19.6892C98.6778 15.4771 93.5981 8.63254 84.1451 16.8263C84.1451 16.8263 83.035 17.7148 81.5884 18.6362C80.7811 19.1298 80.041 19.6563 78.8972 20.0512C76.9124 23.5722 75.6677 27.521 75.264 31.7002C76.4414 31.8647 79.9064 32.0622 85.5244 28.3108ZM92.6562 11.2651C98.2069 11.3309 99.7543 13.2066 103.085 14.8848C104.969 15.9707 108.467 17.1883 110.856 16.9909C113.48 16.9579 127.777 16.925 131.175 16.8921C120.881 1.19561 94.7419 -0.0219422 82.8331 14.5558C86.7691 13.1737 88.8212 11.1993 92.6562 11.2651Z" fill="url(#paint0_linear_2048_37858)"/>
<defs>
<linearGradient id="paint0_linear_2048_37858" x1="75.1809" y1="25.9538" x2="136.751" y2="25.9538" gradientUnits="userSpaceOnUse">
<stop stop-color="#EC3934"/>
<stop offset="0.2376" stop-color="#F1763A"/>
<stop offset="0.5098" stop-color="#F9AA41"/>
<stop offset="0.7498" stop-color="#FFE048"/>
<stop offset="1" stop-color="#FFF360"/>
</linearGradient>
</defs>
</svg>
