<svg width="201" height="91" viewBox="0 0 201 91" fill="none" xmlns="http://www.w3.org/2000/svg">
<path d="M28.9464 23.2891H65.2482C65.2482 23.2891 65.3147 23.2891 65.3147 23.3555V39.1794C65.3147 39.2459 65.3147 39.2459 65.2482 39.2459H55.8735C55.8735 39.2459 55.8071 39.2459 55.8071 39.1794C55.6076 33.661 55.4081 30.935 55.3416 30.935C54.9427 29.8713 54.1449 29.3394 52.9481 29.3394H49.6903C48.1611 29.3394 47.4297 29.8713 47.4297 30.935V41.2405H56.2725L56.339 41.307L56.206 51.2135L56.1395 51.28H47.2967C47.2967 53.4741 47.2967 56.9979 47.2967 61.8514C47.2967 62.7822 47.5627 63.4471 48.0281 63.9125C48.3605 64.1785 49.0254 64.245 50.1557 64.245H56.339C56.339 64.245 56.4054 64.245 56.4054 64.3114V69.6969C56.4054 69.6969 56.4054 69.7634 56.339 69.7634H28.9464C28.8799 69.7634 28.8799 69.7634 28.8799 69.6969V64.3114L28.9464 64.245H30.8745C32.2707 64.245 33.0686 63.979 33.268 63.4471C33.534 62.9817 33.6669 62.2504 33.6669 61.253V51.3465C33.6669 49.7508 33.3345 48.6205 32.7361 47.8892C32.1377 46.8919 31.0075 46.1605 29.3453 45.6286V45.4292C31.1404 44.7643 32.2707 44.033 32.8026 43.2351C33.401 42.3043 33.6669 41.3735 33.6669 40.4427V32.0653C33.6669 30.6691 33.4675 29.8713 33.0021 29.5388C32.6696 29.2729 32.1377 29.2064 31.3399 29.2064H28.9464C28.8799 29.2064 28.8799 29.2064 28.8799 29.1399V23.2891H28.9464Z" fill="#53565A"/>
<path d="M67.2424 23.1562H88.5181C88.5181 23.1562 89.1165 24.7519 90.2468 27.8768L94.9009 40.6423H95.4993C99.2225 29.6055 101.151 23.7546 101.35 23.1562H123.291C123.291 23.1562 123.357 23.1563 123.357 23.2227V28.9406C123.357 28.9406 123.357 29.0071 123.291 29.0071H120.831C119.767 29.0071 119.102 29.273 118.836 29.8049C118.57 30.2703 118.437 31.0017 118.437 31.866V40.0439C118.437 41.2407 118.836 42.3045 119.7 43.3683C120.498 44.1661 121.429 44.698 122.493 44.9639C122.493 45.0304 122.493 45.1634 122.559 45.2964C121.03 45.7618 119.9 46.4931 119.235 47.6234C118.703 48.2883 118.437 49.4186 118.437 51.0142V61.5192C118.437 62.9819 118.77 63.9127 119.368 64.1786C119.634 64.3781 120.365 64.4446 121.562 64.4446H123.357C123.357 64.4446 123.424 64.4446 123.424 64.5111V69.697C123.424 69.697 123.424 69.7635 123.357 69.7635H100.752C100.685 69.7635 100.685 69.7635 100.685 69.697V64.5111C100.685 64.5111 100.685 64.4446 100.752 64.4446H101.483C102.946 64.4446 103.81 64.2451 104.01 63.7797C104.342 63.4473 104.541 62.5165 104.541 60.9873V42.3045H104.209C99.156 57.1975 96.4966 65.1095 96.1641 65.9738H89.9144C89.9144 65.9738 89.6484 65.3089 89.1165 63.9127L81.1381 42.3045C81.1381 42.3045 81.0051 42.3045 80.7392 42.238V61.4527C80.7392 62.9154 81.0051 63.7797 81.6035 64.1122C81.8695 64.3781 82.6008 64.4446 83.7976 64.4446H84.5954C84.5954 64.4446 84.6619 64.4446 84.6619 64.5111V69.697C84.6619 69.697 84.6619 69.7635 84.5954 69.7635H67.2424C67.2424 69.7635 67.1759 69.7635 67.1759 69.697V64.5111C67.1759 64.5111 67.1759 64.4446 67.2424 64.4446H69.0375C70.5002 64.4446 71.3645 64.2451 71.564 63.8462C71.8964 63.3808 72.0959 62.583 72.0959 61.5192V49.9505C72.0959 48.7537 71.564 47.6234 70.4337 46.5596C69.7024 45.8948 68.9045 45.4958 67.9737 45.2299V44.9639C68.3726 44.831 68.838 44.6315 69.4364 44.3656C70.6332 43.7672 71.431 42.9028 71.8299 41.7061C72.0294 41.1077 72.0959 40.6423 72.0959 40.2434V31.9325C72.0959 30.4698 71.7635 29.6055 71.1651 29.273C70.8326 29.0736 70.3007 29.0071 69.7024 29.0071H67.1759C67.1759 29.0071 67.1094 29.0071 67.1094 28.9406V23.2892C67.2423 23.2227 67.2424 23.1562 67.2424 23.1562Z" fill="#53565A"/>
<path d="M149.088 22.4922H150.551C154.274 22.4922 157.864 23.3565 161.321 25.0852C162.385 25.6171 163.648 26.4814 164.978 27.6117C166.241 28.8084 167.172 29.8057 167.771 30.6036C169.965 33.795 171.095 37.2523 171.095 41.1085L171.028 41.175H155.205C155.205 41.175 155.138 41.1085 155.138 41.042C155.138 38.0501 154.806 34.9917 154.141 31.7339C153.941 30.936 153.675 30.3376 153.21 30.0052C152.279 29.1409 151.149 28.742 149.886 28.742C147.958 28.742 146.761 29.2738 146.295 30.2711C145.963 30.8695 145.697 31.5344 145.498 32.3322C145.298 32.8641 145.032 35.3906 144.899 39.9117V39.9782C144.899 40.9755 145.232 41.9728 145.83 42.9037C146.495 43.8345 147.492 44.4328 148.822 44.8318C149.088 44.8983 149.354 44.9647 149.62 45.0312V45.2307C148.489 45.3637 147.426 45.8291 146.428 46.5604C145.564 47.4248 145.032 48.1561 144.899 48.8875C144.899 48.954 144.899 49.0204 144.833 49.0869C144.833 50.6161 145.165 54.0734 145.83 59.4589C146.029 60.4562 146.295 61.3205 146.628 61.9854C147.293 63.3151 148.024 64.113 148.888 64.3789C149.354 64.5784 149.952 64.6448 150.551 64.6448C152.612 64.6448 154.008 62.3178 154.806 57.5972C155.072 55.6026 155.271 53.4751 155.271 51.414H155.338H172.358C172.425 51.414 172.425 51.414 172.425 51.4805V51.6134C172.425 54.6718 171.56 57.9297 169.765 61.3205C167.904 64.4454 165.111 66.9054 161.388 68.7005C158.263 70.0968 154.54 70.8281 150.085 70.8281C145.365 70.8281 141.176 69.7643 137.586 67.5703C136.788 67.1049 135.724 66.2405 134.328 64.9773C132.4 62.9162 130.87 60.5227 129.74 57.7967C129.341 56.7994 128.942 55.4697 128.543 53.8075C128.144 51.5469 127.945 49.8848 127.945 48.8875C127.613 47.8237 127.081 46.9593 126.349 46.361C125.419 45.6961 124.488 45.2307 123.357 45.0977V44.8983C124.887 44.7653 126.017 44.3664 126.748 43.8345C127.546 43.1696 127.945 42.7042 128.012 42.4382C128.144 42.3053 128.344 41.8399 128.477 41.042C129.075 38.449 129.674 36.4544 130.339 35.0582C130.87 33.9279 131.535 32.7312 132.4 31.4014C135.059 27.6782 138.516 25.0187 142.838 23.556C145.099 22.8246 147.226 22.4922 149.088 22.4922Z" fill="#53565A"/>
<path d="M174.154 22.5586C174.619 22.5586 175.085 22.6916 175.483 22.891C175.882 23.157 176.281 23.4894 176.481 23.8883C176.747 24.3537 176.88 24.8191 176.88 25.2846C176.88 25.75 176.747 26.2154 176.547 26.6808C176.281 27.1462 175.949 27.4786 175.55 27.6781C175.085 27.944 174.686 28.0105 174.154 28.0105C173.688 28.0105 173.223 27.8775 172.757 27.6781C172.292 27.4786 171.96 27.0797 171.76 26.6808C171.494 26.2154 171.428 25.8164 171.428 25.2846C171.428 24.8191 171.561 24.3537 171.827 23.8883C172.093 23.4229 172.425 23.0905 172.824 22.891C173.223 22.6916 173.688 22.5586 174.154 22.5586ZM174.154 23.0905C173.755 23.0905 173.422 23.157 173.09 23.3564C172.757 23.5559 172.492 23.8218 172.292 24.1543C172.093 24.4867 172.026 24.8856 172.026 25.2846C172.026 25.6835 172.093 26.0159 172.292 26.4148C172.492 26.7473 172.757 27.0132 173.09 27.2127C173.422 27.4121 173.821 27.4786 174.154 27.4786C174.553 27.4786 174.885 27.4121 175.217 27.2127C175.55 27.0132 175.816 26.7473 176.015 26.4148C176.215 26.0824 176.281 25.6835 176.281 25.2846C176.281 24.8856 176.215 24.5532 176.015 24.1543C175.816 23.8218 175.55 23.5559 175.217 23.3564C174.885 23.2235 174.553 23.0905 174.154 23.0905ZM172.89 26.8138V23.8883H173.489C174.021 23.8883 174.353 23.8883 174.42 23.8883C174.619 23.8883 174.752 23.9548 174.885 24.0213C175.018 24.0878 175.085 24.1543 175.151 24.2873C175.217 24.4202 175.284 24.5532 175.284 24.6862C175.284 24.8856 175.217 25.0851 175.085 25.2181C174.952 25.351 174.752 25.484 174.486 25.484C174.553 25.5505 174.619 25.5505 174.686 25.617C174.752 25.6835 174.819 25.75 174.885 25.8164C174.885 25.8164 174.952 25.9494 175.085 26.1489L175.417 26.7473H174.686L174.42 26.2819C174.287 25.9494 174.087 25.75 174.021 25.6835C173.888 25.617 173.755 25.5505 173.622 25.5505H173.489V26.7473H172.89V26.8138ZM173.489 25.1516H173.755C174.087 25.1516 174.287 25.1516 174.42 25.0851C174.486 25.0851 174.553 25.0186 174.619 24.9521C174.686 24.8856 174.686 24.8191 174.686 24.7527C174.686 24.6862 174.686 24.6197 174.619 24.5532C174.553 24.4867 174.486 24.4202 174.42 24.4202C174.353 24.4202 174.154 24.3537 173.755 24.3537H173.489V25.1516Z" fill="#53565A"/>
</svg>
