<svg width="201" height="92" viewBox="0 0 201 92" fill="none" xmlns="http://www.w3.org/2000/svg">
<path d="M83.4177 67.5095V64.2933C83.4177 63.5686 82.9589 63.3233 82.54 63.3233C82.121 63.3233 81.6511 63.5686 81.6511 64.2933V67.5095H80.3242V62.1843H81.6209V62.6749C81.7931 62.4973 81.9997 62.3567 82.2281 62.2616C82.4566 62.1666 82.702 62.1191 82.9494 62.1222C83.1799 62.114 83.4097 62.152 83.6253 62.2341C83.8409 62.3162 84.0379 62.4406 84.2046 62.6001C84.6331 63.0286 84.7462 63.5287 84.7462 64.1118V67.511L83.4177 67.5095Z" fill="white"/>
<path d="M88.4142 65.2638C88.4142 65.9487 88.8332 66.4489 89.5803 66.4489C89.8057 66.4634 90.0314 66.4258 90.2399 66.3391C90.4485 66.2524 90.6343 66.1188 90.7829 65.9487L91.5905 66.7356C91.0489 67.2756 90.528 67.5719 89.5675 67.5719C88.3123 67.5719 87.1064 67.0001 87.1064 64.8448C87.1064 63.1101 88.0479 62.1289 89.4241 62.1289C90.9072 62.1289 91.7434 63.2105 91.7434 64.6776V65.2701L88.4142 65.2638ZM90.313 63.7824C90.2311 63.6168 90.1045 63.4774 89.9476 63.38C89.7907 63.2826 89.6097 63.2309 89.4249 63.2309C89.2402 63.2309 89.0592 63.2826 88.9023 63.38C88.7454 63.4774 88.6188 63.6168 88.5369 63.7824C88.4584 63.9629 88.4167 64.1573 88.4142 64.3542H90.4372C90.4343 64.1572 90.3921 63.9628 90.313 63.7824Z" fill="white"/>
<path d="M95.8292 67.5095C94.7492 67.5095 94.2889 66.7449 94.2889 65.9883V63.3552H93.7266V62.3437H94.2889V60.7715H95.6158V62.3437H96.5636V63.3568H95.6221V65.9055C95.6221 66.2129 95.7655 66.3833 96.0825 66.3833H96.5604V67.5063L95.8292 67.5095Z" fill="white"/>
<path d="M104.711 67.5082H103.619L102.505 64.1695L101.392 67.5082H100.299L98.6631 62.1895H100.074L100.933 65.4772L102.015 62.1895H102.985L104.077 65.4772L104.936 62.1895H106.335L104.711 67.5082Z" fill="white"/>
<path d="M112.118 66.917C111.903 67.1343 111.644 67.3045 111.359 67.4169C111.074 67.5293 110.769 67.5815 110.463 67.5701C110.159 67.582 109.856 67.53 109.572 67.4175C109.289 67.305 109.033 67.1345 108.82 66.917C108.342 66.4153 108.216 65.8131 108.216 64.8462C108.216 63.8793 108.338 63.282 108.82 62.7834C109.032 62.5651 109.289 62.3939 109.572 62.2811C109.855 62.1683 110.159 62.1164 110.463 62.1287C110.77 62.1169 111.075 62.169 111.36 62.2818C111.645 62.3945 111.903 62.5653 112.118 62.7834C112.596 63.282 112.721 63.8841 112.721 64.8462C112.721 65.8084 112.598 66.4169 112.118 66.917ZM111.086 63.5576C111.004 63.4779 110.906 63.4158 110.799 63.3753C110.692 63.3347 110.578 63.3166 110.463 63.3218C110.351 63.3166 110.238 63.3348 110.133 63.3754C110.028 63.416 109.932 63.478 109.852 63.5576C109.575 63.8331 109.544 64.2919 109.544 64.8447C109.544 65.3974 109.575 65.8641 109.852 66.1397C109.932 66.2196 110.027 66.2818 110.133 66.3224C110.238 66.363 110.351 66.3811 110.463 66.3755C110.578 66.3811 110.692 66.3631 110.799 66.3225C110.907 66.2819 111.004 66.2197 111.086 66.1397C111.362 65.8641 111.392 65.3942 111.392 64.8447C111.392 64.2951 111.362 63.8331 111.086 63.5576Z" fill="white"/>
<path d="M117.87 63.6398C117.784 63.5369 117.676 63.4548 117.554 63.3996C117.431 63.3445 117.298 63.3177 117.164 63.3212C116.757 63.3212 116.307 63.6271 116.307 64.3024V67.5074H114.98V62.1839H116.276V62.6936C116.447 62.5107 116.654 62.3654 116.884 62.267C117.115 62.1685 117.363 62.1191 117.614 62.1217C117.847 62.1085 118.08 62.1462 118.297 62.2323C118.514 62.3184 118.71 62.4508 118.87 62.6203L117.87 63.6398Z" fill="white"/>
<path d="M124.123 67.5084L122.817 65.2942L122.255 65.925V67.5084H120.928V60.2383H122.255V64.3639L124.021 62.1896H125.625L123.725 64.3337L125.767 67.5084H124.123Z" fill="white"/>
<path d="M142.429 23.6354V25.891H142.099V23.6354H141.422V23.3359H143.106V23.6354H142.429ZM145.563 25.891V23.7835L144.858 25.8926H144.566L143.861 23.7835V25.8926H143.532V23.3439H144.01L144.706 25.4736L145.404 23.3439H145.882V25.8926L145.563 25.891Z" fill="#D20001"/>
<path d="M109.51 39.2693C109.269 38.9269 108.938 38.6565 108.555 38.4872C108.351 38.3955 108.137 38.3287 107.918 38.2881C107.671 38.2427 107.421 38.2208 107.17 38.2228C106.913 38.2212 106.656 38.2431 106.403 38.2881C106.167 38.3312 105.937 38.3973 105.714 38.4856C105.497 38.5774 105.287 38.6877 105.088 38.8153C104.881 38.9525 104.686 39.1065 104.504 39.2757C104.153 39.5915 103.849 39.957 103.604 40.3605C103.342 40.7937 103.123 41.2521 102.952 41.7288C102.763 42.2548 102.604 42.7908 102.474 43.3345C102.338 43.9031 102.212 44.5068 102.091 45.144C101.97 45.7812 101.855 46.3785 101.772 46.9568C101.69 47.4965 101.639 48.0407 101.621 48.5863C101.601 49.0527 101.635 49.5198 101.721 49.9785C101.796 50.3715 101.946 50.7466 102.161 51.084C102.286 51.2533 102.43 51.4073 102.591 51.5428C102.749 51.6781 102.924 51.7907 103.113 51.8773C103.318 51.9668 103.531 52.0331 103.75 52.0748C104.001 52.1193 104.256 52.1401 104.51 52.1369C104.771 52.1305 105.03 52.1028 105.286 52.0541C105.529 52.0054 105.767 51.9334 105.996 51.8391C106.224 51.7442 106.441 51.6262 106.645 51.487C106.856 51.3443 107.054 51.1845 107.239 51.0091C107.587 50.6822 107.886 50.3066 108.126 49.8941C108.383 49.4511 108.596 48.9844 108.763 48.5003C108.862 48.2279 108.95 47.9428 109.034 47.6465C109.104 47.398 109.173 47.1447 109.233 46.8819C109.373 46.3116 109.498 45.7095 109.616 45.0835C109.671 44.7888 109.724 44.5037 109.775 44.2217C109.832 43.9031 109.882 43.592 109.925 43.2883C110.002 42.7605 110.048 42.2286 110.062 41.6953C110.08 41.2413 110.044 40.7867 109.953 40.3414C109.878 39.9582 109.727 39.5939 109.51 39.2693Z" fill="url(#paint0_linear_2048_37912)"/>
<path d="M89.569 39.2693C89.3278 38.9262 88.9973 38.6557 88.6133 38.4872C88.4093 38.3959 88.1955 38.3285 87.9761 38.2864C87.7288 38.2439 87.4784 38.2226 87.2274 38.2227C86.9701 38.2212 86.7131 38.2431 86.4596 38.288C86.2247 38.3306 85.9947 38.3968 85.7731 38.4856C85.5547 38.5766 85.3452 38.6875 85.1471 38.8169C84.9406 38.9546 84.7441 39.1068 84.5593 39.2725C84.2097 39.5906 83.9072 39.9569 83.6609 40.3604C83.3985 40.7934 83.1808 41.2518 83.011 41.7287C82.8206 42.2542 82.6611 42.7904 82.5331 43.3344C82.3945 43.9031 82.2687 44.5068 82.1492 45.144C82.0297 45.7811 81.9135 46.3801 81.8306 46.9551C81.7491 47.4955 81.6992 48.0401 81.6809 48.5863C81.6601 49.0515 81.6927 49.5175 81.7781 49.9753C81.8534 50.372 82.0043 50.7505 82.2225 51.0903C82.3456 51.2595 82.4884 51.4135 82.6478 51.5491C82.8061 51.6851 82.9832 51.7978 83.1734 51.8836C83.3779 51.9732 83.5916 52.04 83.8106 52.0827C84.0615 52.1259 84.3159 52.1462 84.5704 52.1433C84.8307 52.1353 85.09 52.1082 85.3462 52.062C85.5892 52.0121 85.8271 51.9396 86.0566 51.8454C86.2826 51.7506 86.4987 51.6338 86.7018 51.4965C86.9129 51.3535 87.1121 51.1937 87.2975 51.0187C87.6458 50.6924 87.9442 50.3167 88.1832 49.9036C88.4406 49.4615 88.654 48.9952 88.8204 48.5114C88.9223 48.2342 89.0115 47.9443 89.0959 47.6433C89.166 47.4011 89.2329 47.1495 89.295 46.8914C89.4304 46.3211 89.5563 45.719 89.6758 45.0946C89.7315 44.8015 89.7825 44.5164 89.835 44.2376C89.8908 43.919 89.9418 43.6004 89.9816 43.2978C90.0605 42.7701 90.1074 42.2382 90.1218 41.7049C90.1392 41.2507 90.1018 40.7961 90.0103 40.3509C89.9361 39.9647 89.7861 39.5971 89.569 39.2693Z" fill="url(#paint1_linear_2048_37912)"/>
<path d="M128.862 38.7689C128.698 38.6362 128.518 38.5258 128.325 38.4407C128.119 38.3462 127.902 38.2787 127.678 38.24C127.43 38.1928 127.178 38.1693 126.925 38.1699C126.665 38.17 126.406 38.1934 126.151 38.24C125.913 38.2821 125.68 38.3483 125.456 38.4375C125.235 38.5309 125.022 38.6422 124.819 38.7705C124.611 38.9098 124.414 39.0653 124.23 39.2356C123.876 39.5566 123.57 39.9267 123.322 40.3347C123.058 40.7726 122.838 41.2358 122.665 41.7174C122.472 42.2481 122.309 42.7896 122.178 43.339C122.041 43.9124 121.914 44.5225 121.789 45.1644C121.665 45.8064 121.552 46.4133 121.471 46.9979C121.386 47.5429 121.333 48.0923 121.311 48.6434C121.293 49.1146 121.327 49.5863 121.413 50.0499C121.489 50.4467 121.641 50.8252 121.859 51.165C121.983 51.3368 122.128 51.4926 122.291 51.6285C122.449 51.7669 122.628 51.8803 122.82 51.9646C123.027 52.0581 123.245 52.126 123.468 52.1669C123.721 52.2124 123.978 52.2327 124.234 52.2275C124.497 52.2223 124.76 52.1951 125.018 52.1462C125.263 52.0958 125.503 52.0233 125.735 51.9296C125.965 51.8333 126.185 51.7143 126.391 51.5744C126.604 51.433 126.804 51.2731 126.989 51.0965C127.34 50.7668 127.642 50.388 127.885 49.9719C128.145 49.5242 128.362 49.0533 128.534 48.5653C128.634 48.2898 128.723 47.9983 128.808 47.7004C128.913 47.369 129.008 47.0282 129.093 46.6666C129.212 46.1584 129.316 45.6232 129.411 45.0736C129.461 44.7901 129.509 44.5145 129.55 44.2453C129.606 43.9267 129.655 43.6082 129.698 43.3039C129.776 42.7708 129.822 42.2336 129.838 41.6951C129.856 41.2372 129.818 40.7789 129.727 40.3299C129.651 39.9387 129.499 39.5663 129.279 39.234C129.161 39.0615 129.021 38.9051 128.862 38.7689Z" fill="url(#paint2_linear_2048_37912)"/>
<path d="M141.07 28.2292C140.824 28.2759 140.583 28.3457 140.35 28.4379C140.118 28.5345 139.897 28.6524 139.687 28.7899C139.47 28.932 139.266 29.0918 139.075 29.2678C138.707 29.6016 138.389 29.9875 138.132 30.4131C137.858 30.867 137.629 31.3473 137.451 31.8467C137.252 32.3994 137.083 32.9625 136.946 33.5336C136.805 34.1325 136.673 34.7671 136.547 35.4371C136.469 35.8354 135.821 39.652 135.302 42.7486L134.594 46.766C134.594 46.766 134.577 46.8679 134.553 47.0177C134.54 47.0925 134.524 47.177 134.512 47.2407C134.456 47.5593 134.419 47.8779 134.391 48.1725C134.375 48.3079 134.362 48.4258 134.356 48.515C134.356 48.6345 134.338 48.8718 134.338 48.8718C134.338 48.8718 134.338 48.9053 134.349 48.9228C134.34 49.2192 134.359 49.5157 134.407 49.8085C134.461 50.147 134.581 50.4716 134.76 50.7642C134.862 50.9103 134.98 51.0439 135.112 51.1625C135.245 51.2794 135.393 51.378 135.552 51.4555C135.724 51.5378 135.905 51.5982 136.092 51.6355C136.122 51.6435 136.157 51.6435 136.191 51.6515L134.77 56.2088C134.622 56.2088 134.475 56.2168 134.327 56.2088C133.828 56.1955 133.333 56.1314 132.847 56.0177C132.419 55.9197 132.004 55.7694 131.613 55.5701C131.544 55.5334 131.479 55.4888 131.412 55.449C131.153 55.3185 130.904 55.1694 130.666 55.003C130.33 54.76 130.027 54.4734 129.766 54.1508C129.366 53.6288 129.071 53.0336 128.898 52.3986C128.659 52.8208 128.378 53.2183 128.06 53.5853C127.914 53.7525 127.762 53.9039 127.606 54.0552L127.59 54.0807C127.559 54.1062 127.528 54.1348 127.498 54.1603C127.422 54.232 127.339 54.3005 127.267 54.3642C127.186 54.4343 127.108 54.4996 127.02 54.5649C126.787 54.7514 126.545 54.9258 126.294 55.0874C125.467 55.6376 124.527 55.9942 123.543 56.1308C123.022 56.1991 122.496 56.2226 121.971 56.2009C121.473 56.1828 120.978 56.1194 120.492 56.0113C120.037 55.908 119.593 55.7591 119.167 55.5669C118.771 55.388 118.397 55.1641 118.052 54.8994C117.732 54.6554 117.446 54.3693 117.203 54.0488C116.783 53.4646 116.493 52.797 116.352 52.0911C116.198 51.3239 116.138 50.5409 116.172 49.7591C116.209 48.922 116.297 48.0879 116.435 47.2614C116.574 46.4203 116.744 45.5825 116.913 44.7717C117.082 43.9609 117.259 43.1278 117.467 42.3026C117.673 41.4776 117.926 40.6654 118.227 39.8702C118.513 39.0981 118.882 38.3594 119.328 37.6672C119.758 36.9917 120.296 36.3916 120.921 35.8911C121.278 35.605 121.664 35.3553 122.071 35.1456C122.494 34.9279 122.936 34.7493 123.391 34.612C124.339 34.3199 125.332 34.2007 126.322 34.26C126.812 34.2838 127.299 34.3505 127.777 34.4591C128.208 34.5526 128.626 34.6992 129.021 34.8956C129.4 35.0848 129.75 35.3267 130.061 35.614C130.351 35.8877 130.607 36.1952 130.824 36.5299C130.865 36.2288 130.91 35.9246 130.967 35.614C131.109 34.8286 131.286 34.0035 131.49 33.1561C131.694 32.3087 131.888 31.4756 132.102 30.7078C132.308 29.9729 132.553 29.2497 132.837 28.5414C132.931 28.312 133.032 28.0922 133.135 27.8756C133.166 27.8134 133.209 27.7163 133.269 27.6032L133.299 27.5458C133.341 27.471 133.384 27.3865 133.436 27.2973C133.55 27.0966 133.667 26.8975 133.792 26.7079C134.019 26.3686 134.275 26.0489 134.556 25.7522C135.616 24.5405 137.052 23.7194 138.634 23.4202C130.84 10.1161 116.403 1.17503 99.8704 1.15432C75.048 1.12883 54.9055 21.2251 54.88 46.0524C54.8643 53.0215 56.4761 59.898 59.5871 66.1343C60.5001 65.7173 61.267 65.0359 61.7885 64.1782L61.8188 64.1384C61.8315 64.1161 61.8474 64.0954 61.8618 64.0715C62.1305 63.6436 62.3511 63.1874 62.5196 62.7111C62.7075 62.1868 62.8618 61.651 62.9816 61.107L66.6166 41.3373H63.6411L65.1034 36.3993L67.4354 36.3897L67.6839 35.1026C67.711 34.9274 67.738 34.7538 67.7699 34.5738L67.8432 34.1596C67.9818 33.3632 68.1395 32.4679 68.2972 31.834C68.4246 31.3035 68.5473 30.8687 68.6826 30.4656C68.8585 29.9114 69.0637 29.3669 69.2975 28.8345C70.221 26.7918 71.7229 25.0645 73.6175 23.8662C74.1863 23.5011 74.7872 23.1886 75.4127 22.9327C76.0995 22.6558 76.8103 22.4425 77.5361 22.2956C78.3327 22.1362 79.1433 22.0567 79.9557 22.0582H80.0609C80.8251 22.0528 81.5876 22.1291 82.3356 22.286C82.6159 22.3433 82.8724 22.4198 83.1209 22.4947L83.1639 22.5074L81.5311 27.729L81.4626 27.6892L81.3623 27.635C81.1029 27.5166 80.8309 27.4279 80.5515 27.3706C80.2308 27.3041 79.9041 27.271 79.5766 27.2718H79.5432C79.1908 27.2716 78.8392 27.3057 78.4934 27.3738C78.1871 27.4353 77.8873 27.526 77.5982 27.6446L77.56 27.6573C77.5428 27.6602 77.5262 27.6656 77.5106 27.6733C77.2792 27.7583 77.0562 27.865 76.8448 27.9918C76.6302 28.127 76.4257 28.2777 76.2331 28.4426C75.8723 28.7489 75.5603 29.1082 75.3076 29.5083C75.045 29.9287 74.8287 30.3762 74.6625 30.8432C74.4793 31.3574 74.3282 31.8824 74.2101 32.4154C74.1942 32.4887 74.1145 32.9394 74.0508 33.3377C73.995 33.6658 73.9409 33.9637 73.9297 34.0258L73.5952 36.3849L77.157 36.3722L75.6883 41.3437L72.7749 41.3262L70.0796 56.2901L69.3851 59.9219C69.2258 60.7837 69.0809 61.5021 68.8754 62.2524C68.6474 63.1134 68.3529 63.9554 67.9945 64.7708C67.3212 66.2789 66.3308 67.6241 65.0906 68.7148C64.6206 69.1293 64.1189 69.5064 63.5901 69.8426C63.1312 70.1348 62.6521 70.3941 62.1565 70.6184C66.232 76.8856 71.8079 82.0361 78.3782 85.6025C84.9485 89.1689 92.3054 91.0383 99.7812 91.0412C124.601 91.0651 144.74 70.9704 144.765 46.1479C144.779 39.9844 143.521 33.8844 141.07 28.2292ZM95.2892 42.4317C95.2287 43.2281 95.1092 44.0835 94.9435 45.0393C94.7779 45.995 94.6042 46.8743 94.3956 47.674C94.2034 48.4259 93.952 49.1615 93.6437 49.8738C93.3616 50.5309 93.0097 51.1557 92.594 51.7375C92.1662 52.3294 91.6765 52.8741 91.1333 53.3623C90.7191 53.7353 90.2765 54.0757 89.8095 54.3802C89.293 54.7146 88.7483 55.0035 88.1816 55.2435C87.5567 55.5052 86.9095 55.7099 86.2478 55.8552C85.5105 56.0104 84.7599 56.0931 84.0065 56.1021C83.2808 56.1166 82.5557 56.0536 81.8434 55.9141C81.2439 55.7983 80.6612 55.6083 80.1087 55.3486C79.2004 54.934 78.4075 54.3035 77.7989 53.512C77.416 53.0202 77.1103 52.4729 76.8926 51.8888C76.676 51.2807 76.5416 50.6465 76.4927 50.0028C76.439 49.2599 76.4496 48.5138 76.5246 47.7727C76.5963 46.9555 76.7285 46.0715 76.9085 45.0902C77.0885 44.109 77.2892 43.2361 77.5154 42.4317C77.7233 41.6772 77.9896 40.9402 78.3119 40.2271C78.9137 38.908 79.7966 37.7364 80.8988 36.7943C81.3155 36.4361 81.7585 36.1097 82.2241 35.8179C82.7386 35.499 83.2801 35.2261 83.8425 35.0023C84.4607 34.7576 85.1007 34.572 85.754 34.4479C86.4768 34.3104 87.2117 34.2469 87.9474 34.2584C88.6555 34.2564 89.3617 34.3323 90.0533 34.4846C90.638 34.6102 91.2062 34.8031 91.7465 35.0596C92.2121 35.2832 92.6495 35.5612 93.0495 35.8879C93.4015 36.1766 93.7185 36.5054 93.9941 36.8676C94.3681 37.346 94.6688 37.8775 94.8862 38.4446C95.1013 39.0318 95.2368 39.6453 95.2892 40.2685C95.3547 40.988 95.3547 41.7121 95.2892 42.4317ZM115.233 42.4317C115.172 43.2281 115.053 44.0835 114.888 45.0393C114.724 45.995 114.549 46.8743 114.339 47.674C114.146 48.4254 113.895 49.1609 113.589 49.8738C113.014 51.205 112.157 52.3953 111.077 53.3623C110.662 53.7352 110.219 54.075 109.751 54.3786C109.236 54.7142 108.691 55.0036 108.125 55.2435C106.803 55.8021 105.383 56.0934 103.948 56.1005C103.223 56.1166 102.498 56.0536 101.787 55.9125C101.188 55.795 100.605 55.6062 100.05 55.3502C99.573 55.1283 99.1247 54.8485 98.7156 54.5171C98.354 54.2192 98.0265 53.8821 97.7391 53.512C97.357 53.0197 97.0514 52.4724 96.8327 51.8888C96.6175 51.2825 96.4831 50.6506 96.4329 50.0092C96.3785 49.2663 96.3891 48.5201 96.4648 47.7791C96.5364 46.9619 96.6687 46.0779 96.8471 45.095C97.0255 44.1122 97.2278 43.244 97.4556 42.4428C97.6644 41.6892 97.9307 40.9527 98.252 40.2398C98.9418 38.7538 99.9768 37.4542 101.271 36.4494C102.565 35.4447 104.08 34.7639 105.691 34.4639C106.414 34.3237 107.15 34.2591 107.886 34.2711C108.594 34.2691 109.3 34.3449 109.992 34.4973C110.576 34.6226 111.144 34.8156 111.684 35.0724C112.151 35.2949 112.589 35.573 112.99 35.9007C113.341 36.1894 113.658 36.5181 113.933 36.8803C114.308 37.3579 114.608 37.8896 114.823 38.4573C115.042 39.0417 115.179 39.6532 115.233 40.2748C115.296 40.9924 115.296 41.7142 115.231 42.4317H115.233Z" fill="url(#paint3_linear_2048_37912)"/>
<path d="M109.238 46.8926C109.178 47.1554 109.109 47.4087 109.039 47.6572C109.145 47.3312 109.239 46.9898 109.321 46.633C109.44 46.1312 109.542 45.6023 109.64 45.0512C109.689 44.7708 109.735 44.5 109.775 44.2324C109.727 44.5144 109.675 44.7995 109.616 45.0942C109.503 45.7202 109.378 46.3223 109.238 46.8926Z" fill="#141011"/>
<path d="M114.824 38.4493C114.609 37.8816 114.309 37.3499 113.934 36.8723C113.659 36.5101 113.342 36.1814 112.991 35.8927C112.59 35.565 112.152 35.2869 111.685 35.0644C111.145 34.8076 110.577 34.6146 109.993 34.4893C109.301 34.3369 108.595 34.2611 107.887 34.2631C107.151 34.2511 106.415 34.3157 105.692 34.4559C105.039 34.5775 104.399 34.7615 103.781 35.0054C103.219 35.2311 102.678 35.5045 102.164 35.8226C100.449 36.8704 99.0852 38.4054 98.2468 40.2318C97.9255 40.9447 97.6592 41.6812 97.4504 42.4348C97.2226 43.2313 97.0219 44.1153 96.8419 45.087C96.6619 46.0587 96.5312 46.9539 96.4596 47.7711C96.3839 48.5121 96.3733 49.2583 96.4277 50.0012C96.4779 50.6426 96.6123 51.2745 96.8275 51.8808C97.0462 52.4644 97.3518 53.0117 97.7339 53.504C98.0213 53.8741 98.3488 54.2112 98.7104 54.5091C99.1195 54.8405 99.5678 55.1203 100.045 55.3422C100.599 55.5982 101.182 55.787 101.782 55.9045C102.493 56.0456 103.218 56.1086 103.943 56.0925C105.378 56.0854 106.798 55.7941 108.12 55.2355C108.687 54.9983 109.232 54.7116 109.749 54.3785C110.217 54.075 110.66 53.7351 111.075 53.3622C112.155 52.3953 113.012 51.2049 113.587 49.8737C113.893 49.1609 114.144 48.4254 114.337 47.6739C114.547 46.8775 114.724 45.9998 114.886 45.0392C115.049 44.0787 115.17 43.2217 115.231 42.4316C115.295 41.7125 115.295 40.9891 115.231 40.27C115.179 39.6475 115.042 39.0349 114.824 38.4493ZM110.063 41.7068C110.049 42.2401 110.003 42.772 109.926 43.2998C109.884 43.6024 109.834 43.9136 109.776 44.2332C109.737 44.5008 109.69 44.7716 109.641 45.052C109.542 45.6031 109.44 46.132 109.322 46.6337C109.24 46.9906 109.146 47.332 109.04 47.658C108.956 47.9543 108.868 48.2394 108.77 48.5118C108.603 48.9959 108.389 49.4626 108.132 49.9056C107.892 50.3181 107.593 50.6937 107.245 51.0206C107.061 51.196 106.862 51.3558 106.651 51.4985C106.448 51.6377 106.23 51.7557 106.003 51.8506C105.773 51.9449 105.535 52.0169 105.292 52.0656C105.036 52.1143 104.777 52.142 104.517 52.1484C104.262 52.1516 104.007 52.1308 103.757 52.0863C103.538 52.0446 103.324 51.9783 103.12 51.8888C102.931 51.8022 102.755 51.6896 102.597 51.5543C102.436 51.4188 102.292 51.2648 102.167 51.0955C101.952 50.7581 101.803 50.383 101.727 49.99C101.641 49.5313 101.607 49.0642 101.627 48.5978C101.646 48.0521 101.696 47.508 101.778 46.9683C101.861 46.39 101.974 45.7815 102.097 45.1555C102.22 44.5295 102.344 43.9146 102.481 43.346C102.61 42.8023 102.77 42.2663 102.959 41.7403C103.127 41.26 103.343 40.7979 103.604 40.3608C103.849 39.9563 104.151 39.5898 104.502 39.2729C104.684 39.1037 104.88 38.9497 105.087 38.8125C105.286 38.6849 105.495 38.5746 105.713 38.4828C105.935 38.3945 106.166 38.3283 106.401 38.2853C106.654 38.2402 106.911 38.2184 107.169 38.2199C107.419 38.218 107.669 38.2399 107.916 38.2853C108.135 38.3258 108.349 38.3927 108.553 38.4844C108.937 38.6537 109.267 38.924 109.509 39.2665C109.728 39.5943 109.879 39.9626 109.953 40.3497C110.044 40.796 110.081 41.2517 110.063 41.7068Z" fill="white"/>
<path d="M65.0913 68.7155C66.3312 67.6252 67.3217 66.2805 67.9952 64.773C68.3535 63.9576 68.6481 63.1156 68.8761 62.2546C69.0815 61.5043 69.2233 60.7859 69.3858 59.9242L70.0803 56.2923L72.7692 41.338L75.6826 41.3555L77.1513 36.3792L73.5895 36.392L73.924 34.0328C73.9352 33.9707 73.9893 33.6728 74.0451 33.3447C74.1152 32.9465 74.1948 32.4957 74.2044 32.4224C74.3225 31.8895 74.4735 31.3644 74.6568 30.8502C74.823 30.3833 75.0393 29.9357 75.3019 29.5153C75.5546 29.1152 75.8666 28.7559 76.2274 28.4497C76.42 28.2847 76.6245 28.134 76.8391 27.9989C77.0505 27.872 77.2735 27.7654 77.5049 27.6803C77.5205 27.6726 77.5371 27.6672 77.5543 27.6643L77.5925 27.6516C77.8816 27.533 78.1814 27.4423 78.4877 27.3808C78.8335 27.3128 79.1851 27.2786 79.5375 27.2789H79.5709C79.8984 27.2781 80.2251 27.3112 80.5458 27.3776C80.8252 27.4349 81.0972 27.5236 81.3566 27.642L81.4569 27.6962L81.5254 27.736L83.155 22.5081L83.112 22.4953C82.8635 22.4205 82.607 22.336 82.3267 22.2867C81.5787 22.1298 80.8162 22.0534 80.052 22.0589H79.9468C79.1344 22.0573 78.3239 22.1369 77.5272 22.2962C76.8014 22.4431 76.0906 22.6564 75.4038 22.9334C74.7783 23.1893 74.1774 23.5017 73.6086 23.8668C71.7071 25.0571 70.2032 26.7867 69.2886 28.8351C69.0597 29.3673 68.8593 29.9113 68.6881 30.4647C68.5527 30.8677 68.43 31.3026 68.3026 31.833C68.1433 32.4702 67.984 33.367 67.8486 34.1587L67.7753 34.5728C67.7435 34.7528 67.7164 34.9265 67.6893 35.1017L67.4408 36.3888L65.1088 36.3983L63.6465 41.3364H66.6221L62.9902 61.1061C62.8704 61.6501 62.7161 62.1858 62.5283 62.7102C62.3597 63.1865 62.1391 63.6427 61.8704 64.0705C61.8561 64.0944 61.8401 64.1151 61.8274 64.1374L61.7971 64.1773C61.2756 65.0349 60.5087 65.7164 59.5957 66.1334C60.3625 67.6751 61.2177 69.1712 62.1571 70.6143C62.6528 70.39 63.1319 70.1307 63.5907 69.8385C64.1194 69.5038 64.6211 69.1283 65.0913 68.7155Z" fill="white"/>
<path d="M89.2987 46.8921C89.2366 47.1501 89.1697 47.4018 89.0996 47.6439C89.2031 47.3254 89.2987 46.9861 89.38 46.6324C89.4962 46.1307 89.5982 45.6018 89.6985 45.0523C89.7479 44.7735 89.7941 44.5011 89.8355 44.2383C89.7862 44.517 89.7352 44.8022 89.6762 45.0953C89.5552 45.7197 89.4341 46.3218 89.2987 46.8921Z" fill="#141011"/>
<path d="M94.8832 38.4492C94.6658 37.8822 94.3652 37.3507 93.9912 36.8722C93.7155 36.51 93.3985 36.1813 93.0466 35.8926C92.6466 35.5659 92.2092 35.2878 91.7436 35.0643C91.2033 34.8078 90.6351 34.6148 90.0503 34.4892C89.3588 34.3369 88.6526 34.2611 87.9445 34.263C87.2088 34.2516 86.4738 34.3151 85.751 34.4526C85.0978 34.5766 84.4577 34.7622 83.8395 35.0069C83.2793 35.2311 82.7399 35.504 82.2275 35.8225C81.7619 36.1144 81.3189 36.4408 80.9022 36.799C79.8 37.741 78.9171 38.9126 78.3153 40.2317C77.993 40.9448 77.7267 41.6819 77.5188 42.4363C77.2894 43.2328 77.0919 44.1152 76.9103 45.0885C76.7287 46.0618 76.5917 46.9538 76.5264 47.771C76.4515 48.5121 76.4408 49.2582 76.4946 50.0011C76.5438 50.6431 76.6783 51.2757 76.8944 51.8823C77.1121 52.4664 77.4178 53.0137 77.8007 53.5055C78.4093 54.297 79.2023 54.9276 80.1105 55.3421C80.663 55.6018 81.2457 55.7918 81.8452 55.9076C82.5575 56.0471 83.2827 56.1101 84.0084 56.0956C84.7617 56.0866 85.5124 56.0039 86.2496 55.8487C86.9113 55.7034 87.5585 55.4987 88.1834 55.237C88.7488 54.9984 89.2924 54.7111 89.8082 54.3784C90.2751 54.0739 90.7177 53.7336 91.1319 53.3606C91.6751 52.8724 92.1648 52.3277 92.5926 51.7358C93.0083 51.154 93.3603 50.5291 93.6423 49.8721C93.9506 49.1598 94.202 48.4242 94.3942 47.6722C94.6029 46.8758 94.7829 45.9981 94.9422 45.0375C95.1015 44.077 95.2273 43.2184 95.2894 42.4315C95.3548 41.713 95.3548 40.99 95.2894 40.2715C95.2359 39.6487 95.0993 39.0358 94.8832 38.4492ZM90.122 41.7068C90.1076 42.2401 90.0608 42.772 89.9818 43.2997C89.942 43.6055 89.891 43.9177 89.8353 44.2395C89.7938 44.5023 89.7476 44.7747 89.6983 45.0535C89.5979 45.603 89.496 46.1319 89.3797 46.6337C89.2984 46.9873 89.2029 47.3234 89.0993 47.6452C88.9958 47.9669 88.9257 48.2361 88.8238 48.5133C88.6574 48.9971 88.444 49.4634 88.1866 49.9055C87.9476 50.3186 87.6492 50.6943 87.3009 51.0206C87.1155 51.1956 86.9163 51.3554 86.7052 51.4984C86.5021 51.6357 86.286 51.7525 86.06 51.8473C85.8305 51.9415 85.5926 52.014 85.3496 52.0639C85.0934 52.1101 84.8341 52.1372 84.5738 52.1452C84.3193 52.1481 84.0649 52.1278 83.814 52.0846C83.595 52.0419 83.3813 51.9751 83.1769 51.8855C82.9866 51.7997 82.8095 51.687 82.6512 51.551C82.4918 51.4154 82.349 51.2614 82.2259 51.0922C82.0077 50.7525 81.8568 50.3739 81.7815 49.9772C81.6961 49.5194 81.6635 49.0534 81.6843 48.5882C81.7026 48.042 81.7526 47.4974 81.834 46.957C81.9184 46.382 82.03 45.7719 82.1526 45.1459C82.2753 44.5198 82.3979 43.905 82.5365 43.3363C82.6645 42.7923 82.824 42.2561 83.0144 41.7306C83.1831 41.2533 83.3998 40.7943 83.6611 40.3607C83.9066 39.9562 84.2086 39.5888 84.5579 39.2696C84.7428 39.1039 84.9392 38.9517 85.1457 38.814C85.3438 38.6846 85.5533 38.5737 85.7717 38.4827C85.9933 38.3939 86.2233 38.3277 86.4583 38.2852C86.7117 38.2402 86.9687 38.2184 87.2261 38.2198C87.477 38.2197 87.7274 38.241 87.9747 38.2836C88.1942 38.3257 88.408 38.393 88.6119 38.4843C88.9959 38.6528 89.3264 38.9233 89.5676 39.2664C89.7849 39.5947 89.9349 39.9629 90.0089 40.3496C90.1012 40.7958 90.1391 41.2515 90.122 41.7068Z" fill="white"/>
<path d="M134.554 25.7562C134.272 26.0529 134.017 26.3726 133.789 26.712C133.665 26.9015 133.547 27.1006 133.434 27.3014C133.381 27.3922 133.338 27.475 133.297 27.5499L133.266 27.6072C133.206 27.7267 133.163 27.8175 133.133 27.8796C133.029 28.0962 132.929 28.316 132.835 28.5454C132.551 29.2537 132.305 29.9769 132.099 30.7118C131.885 31.4796 131.685 32.2968 131.487 33.1601C131.29 34.0235 131.106 34.8327 130.965 35.618C130.907 35.9366 130.863 36.2329 130.821 36.5339C130.604 36.1993 130.348 35.8918 130.058 35.618C129.747 35.3307 129.397 35.0888 129.018 34.8996C128.623 34.7033 128.205 34.5567 127.774 34.4631C127.296 34.3545 126.809 34.2879 126.32 34.264C125.33 34.2047 124.337 34.324 123.389 34.616C122.933 34.7533 122.491 34.9319 122.068 35.1497C121.661 35.3593 121.276 35.609 120.918 35.8952C120.293 36.3956 119.755 36.9957 119.325 37.6713C118.881 38.3626 118.513 39.1002 118.228 39.8711C117.929 40.6669 117.677 41.4796 117.474 42.3051C117.266 43.1302 117.089 43.9681 116.92 44.7741C116.751 45.5801 116.581 46.4228 116.442 47.2638C116.302 48.0896 116.212 48.9232 116.173 49.7599C116.14 50.5386 116.201 51.3184 116.354 52.0824C116.495 52.7883 116.785 53.4559 117.205 54.0401C117.448 54.3606 117.734 54.6467 118.054 54.8907C118.399 55.1553 118.773 55.3793 119.169 55.5582C119.595 55.7504 120.039 55.8993 120.494 56.0026C120.98 56.1107 121.475 56.1741 121.973 56.1921C122.498 56.2139 123.024 56.1904 123.545 56.1221C124.523 55.9918 125.46 55.644 126.286 55.1042C126.537 54.9426 126.78 54.7682 127.013 54.5817C127.095 54.5164 127.172 54.4511 127.26 54.381C127.339 54.3173 127.419 54.2488 127.491 54.1771C127.521 54.1516 127.551 54.1229 127.583 54.0975L127.599 54.072C127.758 53.9238 127.906 53.7693 128.053 53.6021C128.37 53.235 128.651 52.8375 128.891 52.4153C129.063 53.0504 129.358 53.6456 129.759 54.1675C130.02 54.4902 130.322 54.7767 130.659 55.0198C130.896 55.1862 131.145 55.3352 131.404 55.4658C131.471 55.5056 131.537 55.5502 131.605 55.5868C131.996 55.7864 132.411 55.9367 132.84 56.0344C133.325 56.1482 133.821 56.2122 134.319 56.2256C134.468 56.2256 134.614 56.2256 134.762 56.2256L136.183 51.6698C136.15 51.6603 136.115 51.6603 136.084 51.6523C135.898 51.615 135.716 51.5546 135.544 51.4723C135.385 51.3947 135.237 51.2962 135.105 51.1792C134.972 51.0607 134.854 50.927 134.753 50.781C134.574 50.4883 134.454 50.1637 134.399 49.8252C134.352 49.5325 134.333 49.236 134.342 48.9396C134.342 48.9221 134.342 48.9061 134.331 48.8886C134.319 48.8711 134.342 48.6513 134.348 48.5318C134.348 48.4426 134.367 48.3247 134.383 48.1893C134.412 47.8898 134.448 47.5808 134.504 47.2575C134.517 47.1858 134.533 47.1093 134.546 47.0345C134.569 46.8847 134.587 46.7828 134.587 46.7828C134.587 46.7828 135.299 42.7511 135.301 42.7511C135.82 39.6545 136.468 35.8378 136.546 35.4396C136.672 34.7706 136.804 34.136 136.944 33.536C137.082 32.965 137.251 32.4018 137.449 31.8491C137.628 31.3497 137.857 30.8694 138.131 30.4155C138.388 29.9899 138.706 29.6041 139.074 29.2702C139.265 29.0942 139.469 28.9344 139.686 28.7923C139.895 28.6548 140.117 28.537 140.349 28.4403C140.581 28.3482 140.823 28.2783 141.069 28.2316C140.352 26.5826 139.538 24.9778 138.63 23.4258C137.049 23.7249 135.613 24.5454 134.554 25.7562ZM129.856 41.6854C129.84 42.2239 129.793 42.7611 129.716 43.2943C129.673 43.5985 129.623 43.9155 129.568 44.2357C129.526 44.5049 129.478 44.7805 129.429 45.064C129.329 45.6183 129.225 46.1536 129.111 46.6569C129.026 47.0185 128.931 47.3594 128.825 47.6907C128.741 47.9886 128.652 48.2801 128.551 48.5557C128.379 49.0437 128.162 49.5146 127.903 49.9622C127.66 50.3784 127.358 50.7572 127.006 51.0868C126.822 51.2634 126.622 51.4233 126.409 51.5647C126.203 51.7046 125.983 51.8236 125.753 51.9199C125.521 52.0136 125.281 52.0862 125.036 52.1366C124.777 52.1855 124.515 52.2127 124.252 52.2178C123.995 52.223 123.739 52.2027 123.486 52.1573C123.262 52.1164 123.045 52.0484 122.838 51.955C122.645 51.8706 122.467 51.7573 122.309 51.6189C122.146 51.4829 122.001 51.3272 121.877 51.1553C121.659 50.8155 121.507 50.437 121.431 50.0403C121.345 49.5767 121.311 49.1049 121.329 48.6337C121.35 48.0826 121.404 47.5332 121.488 46.9883C121.571 46.4037 121.686 45.7888 121.807 45.1548C121.928 44.5208 122.059 43.9028 122.196 43.3293C122.327 42.7799 122.49 42.2385 122.683 41.7077C122.851 41.2284 123.066 40.7668 123.325 40.3298C123.573 39.9219 123.879 39.5517 124.233 39.2307C124.417 39.0605 124.614 38.905 124.822 38.7656C125.025 38.6374 125.238 38.526 125.46 38.4327C125.684 38.3434 125.916 38.2773 126.154 38.2352C126.409 38.1886 126.669 38.1651 126.928 38.1651C127.181 38.1645 127.433 38.1879 127.682 38.2352C127.905 38.2738 128.122 38.3413 128.328 38.4359C128.521 38.521 128.702 38.6313 128.865 38.764C129.028 38.898 129.172 39.0528 129.294 39.2244C129.514 39.5566 129.666 39.9291 129.741 40.3203C129.834 40.7691 129.872 41.2274 129.856 41.6854Z" fill="white"/>
<path d="M83.501 67.4147V64.2114C83.501 63.4898 83.0438 63.2444 82.6281 63.2444C82.2123 63.2444 81.7424 63.4898 81.7424 64.2114V67.4147H80.4219V62.1183H81.7121V62.6057C81.8838 62.4293 82.0895 62.2897 82.3168 62.1952C82.5441 62.1008 82.7882 62.0534 83.0343 62.0561C83.2633 62.0467 83.4919 62.0835 83.7064 62.1642C83.921 62.2449 84.1171 62.368 84.2831 62.526C84.71 62.9498 84.8215 63.4483 84.8215 64.0282V67.4147H83.501Z" fill="white"/>
<path d="M88.466 65.1772C88.466 65.8573 88.8833 66.3559 89.6256 66.3559C89.8504 66.3705 90.0756 66.3331 90.2836 66.2466C90.4916 66.1602 90.6769 66.027 90.8251 65.8573L91.6216 66.6395C91.0816 67.1779 90.5639 67.4726 89.6081 67.4726C88.3593 67.4726 87.1582 66.9039 87.1582 64.7646C87.1582 63.0395 88.0933 62.0566 89.4663 62.0566C90.9398 62.0566 91.7729 63.1335 91.7729 64.5862V65.1788L88.466 65.1772ZM90.3504 63.7005C90.2681 63.5366 90.1419 63.3988 89.9857 63.3024C89.8296 63.2061 89.6498 63.1551 89.4663 63.1551C89.2829 63.1551 89.1031 63.2061 88.947 63.3024C88.7908 63.3988 88.6646 63.5366 88.5823 63.7005C88.5045 63.8802 88.4628 64.0734 88.4596 64.2692H90.4731C90.4699 64.0734 90.4282 63.8802 90.3504 63.7005Z" fill="white"/>
<path d="M95.849 67.4141C94.7721 67.4141 94.3134 66.6511 94.3134 65.8976V63.2757H93.7559V62.2706H94.3134V60.7031H95.6355V62.2706H96.5705V63.2757H95.6355V65.8164C95.6355 66.1206 95.7773 66.2943 96.0927 66.2943H96.5705V67.4093L95.849 67.4141Z" fill="white"/>
<path d="M104.687 67.4131H103.599L102.493 64.0951L101.378 67.4195H100.292L98.6621 62.123H100.067L100.921 65.3949L101.998 62.123H102.965L104.051 65.3949L104.905 62.123H106.299L104.687 67.4131Z" fill="white"/>
<path d="M112.061 66.8257C111.847 67.0409 111.591 67.2096 111.309 67.3212C111.027 67.4327 110.725 67.4848 110.422 67.474C110.119 67.486 109.817 67.4345 109.535 67.3229C109.253 67.2113 108.997 67.0419 108.784 66.8257C108.307 66.3255 108.186 65.725 108.186 64.7549C108.186 63.7848 108.307 63.1986 108.784 62.7032C108.997 62.4873 109.253 62.3182 109.535 62.2068C109.817 62.0954 110.119 62.0442 110.422 62.0565C110.726 62.0453 111.03 62.0974 111.313 62.2096C111.596 62.3217 111.853 62.4914 112.067 62.708C112.545 63.2034 112.668 63.8071 112.668 64.7596C112.668 65.7122 112.541 66.3271 112.061 66.8257ZM111.035 63.4805C110.954 63.4008 110.857 63.3388 110.75 63.2982C110.643 63.2577 110.53 63.2395 110.416 63.2448C110.303 63.2395 110.191 63.2577 110.086 63.2983C109.981 63.3389 109.885 63.4009 109.806 63.4805C109.528 63.7577 109.5 64.2117 109.5 64.7549C109.5 65.2981 109.528 65.7727 109.806 66.0467C109.885 66.126 109.981 66.1878 110.086 66.2281C110.191 66.2684 110.303 66.2864 110.416 66.2809C110.529 66.2864 110.643 66.2685 110.75 66.2282C110.856 66.1879 110.954 66.1261 111.035 66.0467C111.309 65.7727 111.341 65.3044 111.341 64.7549C111.341 64.2053 111.309 63.7577 111.035 63.4805Z" fill="white"/>
<path d="M117.787 63.5605C117.702 63.4578 117.595 63.3758 117.473 63.3206C117.352 63.2654 117.219 63.2385 117.086 63.2419C116.678 63.2419 116.231 63.5478 116.231 64.22V67.4058H114.91V62.1173H116.202V62.6255C116.372 62.4427 116.578 62.2976 116.807 62.1994C117.037 62.1012 117.284 62.0521 117.534 62.0552C117.766 62.0422 117.998 62.0801 118.213 62.1663C118.429 62.2524 118.623 62.3847 118.783 62.5538L117.787 63.5605Z" fill="white"/>
<path d="M124.012 67.414L122.711 65.211L122.152 65.8482V67.4252H120.831V60.1758H122.152V64.2823L123.904 62.1175H125.497L123.614 64.2552L125.648 67.4172L124.012 67.414Z" fill="white"/>
<defs>
<linearGradient id="paint0_linear_2048_37912" x1="84.3216" y1="82.9249" x2="125.256" y2="11.1161" gradientUnits="userSpaceOnUse">
<stop stop-color="#740001"/>
<stop offset="0.5" stop-color="#D20001"/>
<stop offset="1" stop-color="#FC0016"/>
</linearGradient>
<linearGradient id="paint1_linear_2048_37912" x1="69.2689" y1="74.3438" x2="110.204" y2="2.53495" gradientUnits="userSpaceOnUse">
<stop stop-color="#740001"/>
<stop offset="0.5" stop-color="#D20001"/>
<stop offset="1" stop-color="#FC0016"/>
</linearGradient>
<linearGradient id="paint2_linear_2048_37912" x1="99.2288" y1="91.4228" x2="140.164" y2="19.614" gradientUnits="userSpaceOnUse">
<stop stop-color="#740001"/>
<stop offset="0.5" stop-color="#D20001"/>
<stop offset="1" stop-color="#FC0016"/>
</linearGradient>
<linearGradient id="paint3_linear_2048_37912" x1="80.1756" y1="80.5614" x2="121.11" y2="8.75255" gradientUnits="userSpaceOnUse">
<stop stop-color="#740001"/>
<stop offset="0.5" stop-color="#D20001"/>
<stop offset="1" stop-color="#FC0016"/>
</linearGradient>
</defs>
</svg>
