<svg width="201" height="91" viewBox="0 0 201 91" fill="none" xmlns="http://www.w3.org/2000/svg">
<path d="M174.379 18.0664V59.0406H120.793V18.0664H174.379Z" fill="#003383"/>
<path opacity="0.7" d="M174.379 59.0179L165.18 18.0664H174.379V59.0179Z" fill="url(#paint0_linear_2048_37889)"/>
<path opacity="0.7" d="M157.692 18.0664L174.344 59.0179L148.585 18.0664H157.692Z" fill="url(#paint1_linear_2048_37889)"/>
<path opacity="0.7" d="M120.793 59.0179L129.992 18.0664H120.793V59.0179Z" fill="url(#paint2_linear_2048_37889)"/>
<path opacity="0.7" d="M137.479 18.0664L120.827 59.0179L146.598 18.0664H137.479Z" fill="url(#paint3_linear_2048_37889)"/>
<path d="M174.379 18.0664V59.0406H120.793V18.0664H174.379ZM172.886 19.546H122.355V57.5382H172.886V19.546Z" fill="url(#paint4_linear_2048_37889)"/>
<path d="M120.804 18.0664H27.3789V59.0179H120.804V18.0664Z" fill="url(#paint5_linear_2048_37889)"/>
<path d="M28.8721 19.5566H119.3V57.5375H28.8721V19.5566Z" fill="url(#paint6_linear_2048_37889)"/>
<path d="M42.1709 54.2481V24.9629H59.9602L60.5114 32.9756H50.5545V36.7885H58.6624V44.7785H50.4741L50.4855 54.2481H42.1709ZM110.974 54.2026L102.073 39.0079L110.158 25.0084H101.258L97.56 31.3139L93.9309 25.0084H84.709L92.9548 39.1104L84.2266 54.2253H93.1729L97.4451 46.8158L101.775 54.2025L110.974 54.2026Z" fill="#921E30"/>
<path d="M74.361 25.4082C72.4894 25.4275 70.6401 25.8126 68.9189 26.5413C67.1977 27.27 65.6385 28.3282 64.3306 29.655C63.0227 30.9819 61.9918 32.5515 61.2969 34.2738C60.602 35.9962 60.2569 37.8375 60.2811 39.6923C60.2274 41.559 60.5519 43.4175 61.2356 45.1577C61.9193 46.898 62.9482 48.4846 64.2615 49.8238C65.5748 51.1631 67.1457 52.2276 68.8815 52.9546C70.6172 53.6816 72.4824 54.0561 74.3667 54.0561C76.251 54.0561 78.1162 53.6816 79.852 52.9546C81.5877 52.2276 83.1586 51.1631 84.4719 49.8238C85.7852 48.4846 86.8141 46.898 87.4978 45.1577C88.1815 43.4175 88.5061 41.559 88.4523 39.6923C88.475 37.8369 88.1284 35.9954 87.4323 34.273C86.7361 32.5505 85.7041 30.9811 84.3953 29.6543C83.0865 28.3276 81.5265 27.2697 79.8047 26.5411C78.0829 25.8125 76.233 25.4275 74.361 25.4082ZM76.876 45.4856C76.864 46.1276 76.5965 46.7389 76.132 47.1865C75.6674 47.6341 75.0433 47.8818 74.3954 47.8757C73.7598 47.8638 73.1546 47.6035 72.7116 47.1517C72.2686 46.6998 72.0235 46.0928 72.0296 45.4628V33.7965C72.0166 33.1525 72.2557 32.5285 72.6968 32.0553C73.1378 31.5821 73.7466 31.2965 74.3954 31.2584C75.0578 31.2874 75.6838 31.5666 76.1451 32.0385C76.6063 32.5105 76.8679 33.1395 76.876 33.7965V45.4856Z" fill="#921E30"/>
<path d="M41.0566 53.1895V23.9043H58.8574L59.3972 31.9056H49.4402V35.7299H57.5597V43.7199H49.3713V53.1895H41.0566Z" fill="white"/>
<path d="M109.872 53.1453L100.971 37.9507L109.056 23.9512H100.145L96.4581 30.2566L92.8176 23.9512H83.6071L91.8529 38.0531L83.1133 53.1567H92.0711L96.3433 45.7586L100.661 53.1453H109.872Z" fill="white"/>
<path d="M73.3163 24.3379C71.4462 24.3513 69.5971 24.7296 67.8745 25.4513C66.1519 26.173 64.5896 27.2238 63.2769 28.5439C61.9641 29.864 60.9265 31.4274 60.2234 33.1449C59.5203 34.8623 59.1655 36.7003 59.1791 38.5537C59.1782 40.3867 59.5418 42.2019 60.249 43.8956C60.9562 45.5893 61.9932 47.1283 63.3007 48.4248C64.6082 49.7212 66.1606 50.7496 67.8693 51.4513C69.578 52.1529 71.4094 52.5141 73.2589 52.5141C75.1085 52.5141 76.9399 52.1529 78.6485 51.4513C80.3572 50.7496 81.9096 49.7212 83.2172 48.4248C84.5247 47.1283 85.5617 45.5893 86.2689 43.8956C86.976 42.2019 87.3396 40.3867 87.3388 38.5537C87.3695 34.8292 85.9122 31.2438 83.285 28.5804C80.6579 25.917 77.0742 24.3919 73.3163 24.3379ZM75.8084 44.4266C75.8025 44.745 75.7333 45.0591 75.6048 45.351C75.4763 45.6428 75.2911 45.9068 75.0596 46.1277C74.8282 46.3486 74.5551 46.5221 74.256 46.6384C73.9569 46.7547 73.6376 46.8114 73.3163 46.8054C72.6757 46.7994 72.0635 46.5422 71.6137 46.09C71.1639 45.6378 70.9131 45.0275 70.9161 44.3925V32.7262C70.9094 32.0793 71.1555 31.455 71.6029 30.9839C72.0504 30.5129 72.6644 30.2318 73.3163 30.1995C73.9736 30.2313 74.5939 30.5105 75.0506 30.98C75.5073 31.4495 75.766 32.0741 75.774 32.7262L75.8084 44.4266Z" fill="white"/>
<path d="M154.375 23.4922L149.694 40.3377H155.768C157.073 38.8812 159.018 38.1578 160.966 38.4049C163.77 38.4702 166.012 40.7366 166.025 43.5188C166.025 46.5254 164.186 48.6195 160.518 48.6195C159.143 48.7037 157.791 48.2318 156.771 47.3113C155.752 46.3909 155.151 45.1005 155.107 43.7336L149.017 44.6866C149.81 50.2194 154.615 54.3126 160.248 54.2568C163.307 54.4993 166.329 53.4685 168.591 51.4111C170.854 49.3537 172.149 46.4554 172.169 43.4116C172.235 40.1731 170.614 37.1297 167.879 35.358C164.954 33.2337 161.148 32.7046 157.744 33.9486L159.099 28.66H171.48L172.426 23.4922H154.375Z" fill="#003383"/>
<path d="M127.38 23.4922V29.2238H137.069L130.898 38.0693C132.096 37.2743 133.518 36.8793 134.958 36.9418C136.631 36.8505 138.27 37.438 139.497 38.5697C140.725 39.7013 141.436 41.2797 141.466 42.9417C141.465 44.5949 140.764 46.1717 139.534 47.2871C138.304 48.4026 136.658 48.9543 134.998 48.8074C131.468 48.8378 128.324 46.6024 127.218 43.2772L123.727 47.935C126.084 51.8812 130.374 54.292 134.998 54.2704C141.94 54.2704 147.528 49.1161 147.528 42.7405C147.658 38.6402 145.303 34.8606 141.547 33.1431L148.069 23.4922H127.38Z" fill="#003383"/>
<path d="M153.843 23.0215L149.162 39.867H155.236C156.541 38.4105 158.486 37.6871 160.434 37.9342C163.238 37.9995 165.48 40.2659 165.493 43.0481C165.493 46.0547 163.653 48.1488 159.986 48.1488C158.611 48.233 157.259 47.7611 156.239 46.8406C155.22 45.9202 154.618 44.6297 154.574 43.2629L148.484 44.2159C149.278 49.7487 154.083 53.8419 159.716 53.7861C162.775 54.0286 165.797 52.9978 168.059 50.9404C170.321 48.883 171.617 45.9847 171.637 42.9409C171.702 39.7024 170.082 36.659 167.347 34.8873C164.421 32.763 160.616 32.2339 157.212 33.4779L158.567 28.1893H170.948L171.894 23.0215H153.843Z" fill="white"/>
<path d="M126.847 23.0215V28.7531H136.535L130.365 37.5986C131.563 36.8036 132.985 36.4086 134.425 36.4711C136.098 36.3798 137.737 36.9673 138.964 38.099C140.192 39.2306 140.903 40.809 140.933 42.471C140.932 44.1242 140.231 45.701 139.001 46.8164C137.771 47.9319 136.125 48.4836 134.465 48.3367C130.935 48.3671 127.79 46.1317 126.685 42.8065L123.193 47.4643C125.551 51.4105 129.841 53.8213 134.465 53.7997C141.407 53.7997 146.995 48.6454 146.995 42.2698C147.125 38.1695 144.77 34.3899 141.014 32.6724L147.536 23.0215H126.847Z" fill="white"/>
<path d="M27.3789 68.3022C27.3789 71.6626 29.6342 74.0673 33.0094 74.0673C36.3845 74.0673 38.6398 71.6626 38.6398 68.3022C38.6398 64.9418 36.3845 62.5371 33.0094 62.5371C29.6342 62.5371 27.3789 64.9418 27.3789 68.3022ZM30.8007 68.3022C30.8007 65.8513 32.1383 65.2809 33.0094 65.2809C33.8804 65.2809 35.218 65.8513 35.218 68.3022C35.218 70.7532 33.8804 71.3235 33.0094 71.3235C32.1383 71.3235 30.8007 70.7532 30.8007 68.3022Z" fill="#003383"/>
<path d="M51.2363 73.8049H54.6581V69.9667H56.4779C57.8311 69.9667 57.9244 71.0611 58.0178 72.1093C58.0644 72.6797 58.1266 73.25 58.2977 73.8049H61.7195C61.4085 73.2962 61.3929 71.986 61.3462 71.4465C61.2218 70.0746 60.6463 69.0572 59.7131 68.7027C60.8485 68.2865 61.3774 67.0841 61.3774 65.9434C61.3774 63.8624 59.6976 62.7988 57.7533 62.7988H51.2363V73.8049ZM54.6581 65.4193H56.2602C57.5667 65.4193 57.9555 65.8201 57.9555 66.5138C57.9555 67.5003 57.0845 67.6082 56.4468 67.6082H54.6581V65.4193Z" fill="#003383"/>
<path d="M73.9111 73.8049H82.2479V70.984H77.333V62.7988H73.9111V73.8049Z" fill="#003383"/>
<path d="M98.5303 69.8742L99.6035 66.4829H99.6346L100.63 69.8742H98.5303ZM93.8486 73.8049H97.286L97.7837 72.2326H101.314L101.781 73.8049H105.327L101.283 62.7988H97.9393L93.8486 73.8049Z" fill="#003383"/>
<path d="M117.255 73.8049H120.49V67.7932H120.521L123.927 73.8049H127.256V62.7988H124.021V68.6872H123.99L120.754 62.7988H117.255L117.255 73.8049Z" fill="#003383"/>
<path d="M140.194 73.8049H145.14C149.013 73.8049 150.818 71.6623 150.818 68.2865C150.818 65.5118 149.511 62.7988 145.809 62.7988H140.194V73.8049ZM143.616 65.6197H144.705C147.178 65.6197 147.396 67.5466 147.396 68.2402C147.396 69.273 147.085 70.984 144.954 70.984H143.616V65.6197Z" fill="#003383"/>
<path d="M163.118 68.3022C163.118 71.6626 165.373 74.0673 168.749 74.0673C172.124 74.0673 174.379 71.6626 174.379 68.3022C174.379 64.9418 172.124 62.5371 168.749 62.5371C165.373 62.5371 163.118 64.9418 163.118 68.3022ZM166.54 68.3022C166.54 65.8513 167.878 65.2809 168.749 65.2809C169.62 65.2809 170.957 65.8513 170.957 68.3022C170.957 70.7532 169.62 71.3235 168.749 71.3235C167.878 71.3235 166.54 70.7532 166.54 68.3022Z" fill="#003383"/>
<defs>
<linearGradient id="paint0_linear_2048_37889" x1="174.252" y1="55.7968" x2="169.773" y2="17.2831" gradientUnits="userSpaceOnUse">
<stop offset="0.16" stop-color="#C1C3DE"/>
<stop offset="0.59" stop-color="#989CC8"/>
<stop offset="1" stop-color="#394B95"/>
</linearGradient>
<linearGradient id="paint1_linear_2048_37889" x1="174.344" y1="59.0179" x2="157.948" y2="17.9643" gradientUnits="userSpaceOnUse">
<stop offset="0.16" stop-color="#C1C3DE"/>
<stop offset="0.59" stop-color="#989CC8"/>
<stop offset="1" stop-color="#394B95"/>
</linearGradient>
<linearGradient id="paint2_linear_2048_37889" x1="120.919" y1="55.7968" x2="125.41" y2="17.2831" gradientUnits="userSpaceOnUse">
<stop offset="0.16" stop-color="#C1C3DE"/>
<stop offset="0.59" stop-color="#989CC8"/>
<stop offset="1" stop-color="#394B95"/>
</linearGradient>
<linearGradient id="paint3_linear_2048_37889" x1="121.413" y1="55.8537" x2="141.731" y2="17.9365" gradientUnits="userSpaceOnUse">
<stop offset="0.16" stop-color="#C1C3DE"/>
<stop offset="0.59" stop-color="#989CC8"/>
<stop offset="1" stop-color="#394B95"/>
</linearGradient>
<linearGradient id="paint4_linear_2048_37889" x1="147.586" y1="19.5688" x2="147.586" y2="57.5155" gradientUnits="userSpaceOnUse">
<stop stop-color="#4D5DA4"/>
<stop offset="1" stop-color="#1A2857"/>
</linearGradient>
<linearGradient id="paint5_linear_2048_37889" x1="74.0858" y1="19.5688" x2="74.0858" y2="57.5155" gradientUnits="userSpaceOnUse">
<stop offset="0.01" stop-color="#EA1C2D"/>
<stop offset="1" stop-color="#AB1F2D"/>
</linearGradient>
<linearGradient id="paint6_linear_2048_37889" x1="74.086" y1="57.5375" x2="74.086" y2="19.5566" gradientUnits="userSpaceOnUse">
<stop offset="0.01" stop-color="#EA1C2D"/>
<stop offset="1" stop-color="#AB1F2D"/>
</linearGradient>
</defs>
</svg>
