<svg width="201" height="91" viewBox="0 0 201 91" fill="none" xmlns="http://www.w3.org/2000/svg">
<path fill-rule="evenodd" clip-rule="evenodd" d="M37.9121 0.910156H163.848V38.1942H37.9121V0.910156Z" fill="#FF0000"/>
<path d="M37.916 39.6875V77.1866H46.9269V65.9369H53.7727C56.0742 65.9369 58.2198 65.669 60.2092 65.1334C62.2376 64.5619 63.9929 63.7225 65.4752 62.6154C66.9965 61.5083 68.1863 60.1334 69.0445 58.4906C69.9027 56.8478 70.3318 54.9372 70.3318 52.7587V52.6514C70.3318 50.7229 69.9612 48.973 69.22 47.4016C68.5179 45.7945 67.484 44.4194 66.1187 43.2765C64.7925 42.1337 63.1542 41.2589 61.2038 40.6518C59.2924 40.0089 57.1081 39.6875 54.6507 39.6875H37.916ZM46.9269 47.1336H53.8899C56.1524 47.1336 57.9273 47.6157 59.2146 48.58C60.5408 49.5442 61.2038 50.955 61.2038 52.8121V52.9194C61.2038 54.5265 60.5797 55.8834 59.3315 56.9906C58.0832 58.062 56.3279 58.5976 54.0654 58.5976H46.9269V47.1336Z" fill="#0044AA"/>
<path d="M69.9316 39.6875V77.1866H99.3631V69.6869H78.9425V39.6875H69.9316Z" fill="#0044AA"/>
<path d="M97.6768 39.6875V61.1156C97.6768 66.6512 99.2566 70.8117 102.416 73.5973C105.576 76.383 109.906 77.7758 115.406 77.7758C118.136 77.7758 120.613 77.4367 122.837 76.7581C125.06 76.0439 126.952 74.9902 128.513 73.5973C130.073 72.1688 131.263 70.401 132.082 68.2939C132.94 66.1868 133.369 63.7047 133.369 60.8476V39.6875H124.358V61.169C124.358 64.1689 123.578 66.4191 122.018 67.9191C120.457 69.419 118.293 70.169 115.523 70.169C112.753 70.169 110.588 69.4011 109.028 67.8654C107.468 66.294 106.688 63.9726 106.688 60.9012V39.6875H97.6768Z" fill="#0044AA"/>
<path d="M147.361 39.1523C145.255 39.1523 143.324 39.4202 141.569 39.9559C139.813 40.4916 138.292 41.2595 137.005 42.2595C135.757 43.2595 134.781 44.4557 134.079 45.8485C133.377 47.2056 133.026 48.7414 133.026 50.4557V50.5628C133.026 52.4199 133.338 53.9734 133.962 55.2234C134.625 56.4733 135.542 57.527 136.712 58.3841C137.883 59.2056 139.306 59.9019 140.983 60.4734C142.661 61.0448 144.533 61.5625 146.601 62.0268C148.317 62.4197 149.702 62.7946 150.755 63.1518C151.847 63.5089 152.686 63.866 153.271 64.2231C153.895 64.5802 154.305 64.9732 154.5 65.4017C154.734 65.7946 154.851 66.259 154.851 66.7947V66.9018C154.851 68.0089 154.324 68.8839 153.271 69.5268C152.257 70.1339 150.814 70.4374 148.941 70.4374C146.601 70.4374 144.436 70.0268 142.446 69.2054C140.496 68.3839 138.585 67.2767 136.712 65.8839L131.388 71.7231C133.845 73.7588 136.576 75.2766 139.579 76.2766C142.583 77.2409 145.645 77.723 148.766 77.723C150.989 77.723 153.018 77.4728 154.851 76.9729C156.684 76.4372 158.264 75.6872 159.59 74.7229C160.917 73.723 161.95 72.5088 162.691 71.0802C163.433 69.616 163.803 67.9553 163.803 66.0982V65.9912C163.803 64.3483 163.511 62.9376 162.926 61.7591C162.379 60.5805 161.541 59.5627 160.41 58.7056C159.317 57.8127 157.952 57.0627 156.314 56.4556C154.714 55.8128 152.881 55.2412 150.814 54.7412C149.058 54.3127 147.595 53.9377 146.425 53.6163C145.294 53.2948 144.397 52.9557 143.734 52.5986C143.071 52.2414 142.602 51.8485 142.329 51.4199C142.095 50.9557 141.978 50.42 141.978 49.8129V49.7056C141.978 48.777 142.407 48.0093 143.265 47.4022C144.163 46.7594 145.489 46.4379 147.244 46.4379C149 46.4379 150.755 46.7771 152.51 47.4556C154.266 48.0985 156.06 48.9914 157.893 50.1343L162.574 43.92C160.468 42.3843 158.147 41.2058 155.611 40.3844C153.115 39.563 150.365 39.1523 147.361 39.1523Z" fill="#0044AA"/>
<path d="M60.6429 90.8346L58.6067 84.0128L56.4881 90.8346H52.7322L49.0039 81.2148H51.8655L54.5482 88.5126L56.9558 81.2148H60.3264L62.6102 88.5126L65.3755 81.2148H68.2233L64.44 90.8346H60.6429Z" fill="#0044AA"/>
<path d="M78.6664 81.2891C79.8824 81.2891 80.7487 81.515 81.2655 81.9669C81.7924 82.4092 82.0559 83.1976 82.0559 84.3322C82.0559 84.7649 82.0306 85.1351 81.9799 85.4427C81.9292 85.7504 81.8279 86.0196 81.6759 86.2504C81.5239 86.4715 81.3466 86.6398 81.1439 86.7552C80.9413 86.8609 80.5157 87.0148 79.8672 87.2167C80.5765 87.3032 81.0983 87.4763 81.4327 87.7359C81.7671 87.9859 81.9343 88.4282 81.9343 89.0628V90.9088H78.8032V89.9858C78.8032 89.5146 78.7576 89.1397 78.6664 88.8608C78.5853 88.582 78.1851 88.4426 77.4656 88.4426H72.313V90.9088H69.2275V81.2891H78.6664ZM77.3745 86.1062C78.0736 86.1062 78.5093 86.0244 78.6816 85.861C78.8539 85.6975 78.94 85.3322 78.94 84.7649C78.94 84.4476 78.9045 84.212 78.8336 84.0582C78.7728 83.9043 78.636 83.7986 78.4232 83.7409C78.2206 83.6832 78.0534 83.6495 77.9216 83.6399C77.7899 83.6303 77.6328 83.6255 77.4504 83.6255H77.2073H72.313V86.1062H76.9793H77.3745Z" fill="#0044AA"/>
<path d="M93.6828 81.2148C94.6961 81.2148 95.4713 81.3975 96.0083 81.7629C96.5453 82.1283 96.8139 82.7725 96.8139 83.6955C96.8139 84.0993 96.7733 84.4455 96.6923 84.7339C96.6213 85.0127 96.4845 85.2339 96.2819 85.3973C96.0894 85.5608 95.907 85.6714 95.7347 85.7291C95.5726 85.7867 95.3395 85.854 95.0355 85.931C95.8563 86.056 96.4238 86.2531 96.7379 86.5223C97.052 86.7915 97.2091 87.3059 97.2091 88.0655C97.2091 89.1327 96.9355 89.8635 96.3883 90.2577C95.8512 90.6423 95.0001 90.8346 93.8348 90.8346H84.0615V81.2148H93.6828ZM93.698 84.1282C93.698 83.8013 93.5967 83.5849 93.394 83.4792C93.2015 83.3734 92.9127 83.3205 92.5276 83.3205H87.147V84.9935H92.4668C92.8721 84.9935 93.1761 84.9406 93.3788 84.8349C93.5916 84.7291 93.698 84.4935 93.698 84.1282ZM94.1084 87.7194C94.1084 87.4598 94.0172 87.2578 93.8348 87.1136C93.6625 86.9694 93.318 86.8973 92.8012 86.8973H87.147V88.6568H92.7556C93.1103 88.6568 93.4244 88.6232 93.698 88.5558C93.9716 88.4789 94.1084 88.2001 94.1084 87.7194Z" fill="#0044AA"/>
<path d="M109.967 90.8346L107.961 84.0128L105.874 90.8346H102.173L98.5 81.2148H101.319L103.963 88.5126L106.335 81.2148H109.656L111.906 88.5126L114.63 81.2148H117.436L113.709 90.8346H109.967Z" fill="#0044AA"/>
<path d="M129.153 90.8385V83.6273H124.624V81.2188H136.753V83.6273H132.239V90.8385H129.153Z" fill="#0044AA"/>
<path d="M142.725 90.8346L137.35 81.2148H140.74L144.741 88.4693L148.911 81.2148H152.362L146.681 90.8346H142.725Z" fill="#0044AA"/>
<path fill-rule="evenodd" clip-rule="evenodd" d="M74.3229 5.99414C66.2545 5.99414 59.7168 12.152 59.7168 19.7483C59.7168 27.3447 66.2545 33.5025 74.3229 33.5025C82.3913 33.5025 88.9363 27.3447 88.9363 19.7483C88.9363 12.152 82.3913 5.99414 74.3229 5.99414ZM74.3011 11.1885C75.7065 11.1885 76.8337 12.2655 76.8337 13.6083V25.3738C76.8337 26.7166 75.7065 27.7936 74.3011 27.7936C72.8957 27.7936 71.7612 26.7166 71.7612 25.3738V13.6083C71.7612 12.2655 72.8957 11.1885 74.3011 11.1885Z" fill="white"/>
<path fill-rule="evenodd" clip-rule="evenodd" d="M41.6904 5.95312V33.3711H50.3217V24.394H58.5526V16.9259H50.3217V13.5395H60.2265L59.7025 5.95312H41.6904Z" fill="white"/>
<path fill-rule="evenodd" clip-rule="evenodd" d="M84.8104 5.95312L93.0123 19.1441L84.1045 33.3711H93.6454L97.7573 26.7652L101.862 33.3711H111.41L102.495 19.1441L110.704 5.95312H101.28L97.7573 11.5786L94.2349 5.95312H84.8104Z" fill="white"/>
<path d="M158.687 5.95898H141.407L136.925 21.0725H142.741C143.99 19.7657 145.851 19.1167 147.716 19.3384C150.4 19.397 152.546 21.4305 152.559 23.9267C152.559 26.6242 150.798 28.5028 147.287 28.5028C145.971 28.5783 144.677 28.155 143.7 27.3292C142.725 26.5034 142.149 25.3456 142.107 24.1192L136.277 24.9744C137.037 29.9383 141.636 33.6108 147.029 33.5607C149.957 33.7783 152.85 32.8532 155.015 31.0073C157.181 29.1614 158.421 26.5612 158.44 23.8303C158.503 20.9247 156.952 18.1942 154.334 16.6047C151.533 14.6988 147.89 14.2242 144.632 15.3403L145.929 10.5955H157.78L158.687 5.95898Z" fill="white"/>
<path d="M134.853 23.2282C134.978 19.5495 132.723 16.1586 129.128 14.6176L135.371 5.95898H115.566V11.1013H124.84L118.933 19.0373C120.08 18.324 121.441 17.9696 122.819 18.0257C124.421 17.9437 125.99 18.471 127.165 19.4863C128.34 20.5015 129.021 21.9176 129.05 23.4087C129.049 24.892 128.378 26.3067 127.2 27.3074C126.023 28.3082 124.447 28.8032 122.858 28.6714C119.479 28.6987 116.469 26.6931 115.41 23.7098L112.068 27.8886C114.325 31.4291 118.432 33.5922 122.858 33.5729C129.503 33.5729 134.853 28.9483 134.853 23.2282Z" fill="white"/>
</svg>
