<svg width="202" height="91" viewBox="0 0 202 91" fill="none" xmlns="http://www.w3.org/2000/svg">
<path d="M201.131 6.07227V62.3224H128.225V6.07227H201.131Z" fill="#003383"/>
<path opacity="0.7" d="M201.131 62.2912L188.615 6.07227H201.131V62.2912Z" fill="url(#paint0_linear_2048_37900)"/>
<path opacity="0.7" d="M178.428 6.07227L201.084 62.2912L166.037 6.07227H178.428Z" fill="url(#paint1_linear_2048_37900)"/>
<path opacity="0.7" d="M128.225 62.2912L140.74 6.07227H128.225V62.2912Z" fill="url(#paint2_linear_2048_37900)"/>
<path opacity="0.7" d="M150.928 6.07227L128.271 62.2912L163.334 6.07227H150.928Z" fill="url(#paint3_linear_2048_37900)"/>
<path d="M201.131 6.07227V62.3224H128.225V6.07227H201.131ZM199.1 8.10352H130.35V60.2599H199.1V8.10352Z" fill="url(#paint4_linear_2048_37900)"/>
<path d="M128.24 6.07227H1.13086V62.2912H128.24V6.07227Z" fill="url(#paint5_linear_2048_37900)"/>
<path d="M3.16211 8.11914H126.193V60.2599H3.16211V8.11914Z" fill="url(#paint6_linear_2048_37900)"/>
<path d="M21.2559 55.7442V15.541H45.459L46.209 26.541H32.6621V31.7754H43.6934V42.7442H32.5527L32.5683 55.7442H21.2559ZM114.865 55.6818L102.756 34.8223L113.756 15.6035H101.646L96.6152 24.2598L91.6777 15.6035H79.1308L90.3496 34.9629L78.4746 55.713H90.6464L96.459 45.5411L102.35 55.6817L114.865 55.6818Z" fill="#921E30"/>
<path d="M65.0527 16.1504C62.5064 16.1769 59.9903 16.7055 57.6486 17.7059C55.3068 18.7064 53.1855 20.159 51.406 21.9805C49.6265 23.8021 48.2239 25.9568 47.2785 28.3213C46.3331 30.6858 45.8635 33.2135 45.8965 35.7598C45.8233 38.3225 46.2649 40.8738 47.1951 43.2629C48.1253 45.6519 49.5252 47.8301 51.3119 49.6686C53.0987 51.5071 55.2361 52.9686 57.5976 53.9666C59.9591 54.9646 62.4968 55.4788 65.0605 55.4788C67.6243 55.4788 70.162 54.9646 72.5235 53.9666C74.885 52.9686 77.0224 51.5071 78.8092 49.6686C80.5959 47.8301 81.9958 45.6519 82.926 43.2629C83.8562 40.8738 84.2978 38.3225 84.2246 35.7598C84.2556 33.2128 83.784 30.6847 82.8369 28.3201C81.8897 25.9555 80.4856 23.8009 78.7049 21.9796C76.9242 20.1582 74.8018 18.7059 72.4592 17.7056C70.1166 16.7054 67.5998 16.1769 65.0527 16.1504ZM68.4746 43.713C68.4582 44.5943 68.0943 45.4336 67.4623 46.0481C66.8302 46.6626 65.9811 47.0026 65.0996 46.9942C64.2348 46.9778 63.4115 46.6205 62.8087 46.0002C62.2059 45.3799 61.8725 44.5466 61.8809 43.6817V27.666C61.8632 26.7819 62.1884 25.9252 62.7885 25.2756C63.3886 24.626 64.2168 24.234 65.0996 24.1817C66.0008 24.2215 66.8525 24.6047 67.4801 25.2526C68.1077 25.9006 68.4635 26.7641 68.4746 27.666V43.713Z" fill="#921E30"/>
<path d="M19.7402 54.2911V14.0879H43.959L44.6934 25.0723H31.1465V30.3223H42.1934V41.2911H31.0527V54.2911H19.7402Z" fill="white"/>
<path d="M113.365 54.2306L101.256 33.3711L112.256 14.1523H100.131L95.1152 22.8086L90.1621 14.1523H77.6309L88.8496 33.5118L76.959 54.2462H89.1465L94.959 44.0899L100.834 54.2306H113.365Z" fill="white"/>
<path d="M63.6304 14.6836C61.086 14.702 58.5702 15.2214 56.2265 16.2121C53.8829 17.2028 51.7573 18.6455 49.9712 20.4577C48.1852 22.2699 46.7735 24.4162 45.8169 26.774C44.8603 29.1318 44.3775 31.6549 44.396 34.1993C44.3949 36.7156 44.8895 39.2076 45.8517 41.5328C46.8139 43.8579 48.2247 45.9707 50.0037 47.7505C51.7826 49.5302 53.8948 50.9421 56.2195 51.9053C58.5442 52.8686 61.0359 53.3643 63.5523 53.3643C66.0686 53.3643 68.5604 52.8686 70.8851 51.9053C73.2098 50.9421 75.322 49.5302 77.1009 47.7505C78.8798 45.9707 80.2907 43.8579 81.2529 41.5328C82.215 39.2076 82.7097 36.7156 82.7085 34.1993C82.7503 29.0862 80.7676 24.1642 77.1932 20.5079C73.6188 16.8515 68.7431 14.7577 63.6304 14.6836ZM67.021 42.2618C67.0129 42.6989 66.9187 43.1301 66.7439 43.5307C66.5691 43.9314 66.3171 44.2937 66.0022 44.597C65.6873 44.9003 65.3158 45.1385 64.9089 45.2981C64.5019 45.4578 64.0675 45.5357 63.6304 45.5274C62.7587 45.5192 61.9258 45.166 61.3138 44.5452C60.7018 43.9245 60.3606 43.0866 60.3648 42.2149V26.1992C60.3556 25.3112 60.6905 24.454 61.2992 23.8074C61.908 23.1608 62.7434 22.7748 63.6304 22.7305C64.5247 22.7742 65.3685 23.1574 65.9899 23.802C66.6113 24.4466 66.9633 25.304 66.9742 26.1992L67.021 42.2618Z" fill="white"/>
<path d="M157.509 57.4158L157.522 57.4146L157.534 57.4128C160.882 56.9139 164.043 55.4734 166.589 53.1981C170.121 50.0406 172.151 45.5909 172.19 40.9118C172.305 35.893 169.754 31.1785 165.454 28.4394C161.174 25.287 155.635 24.3108 150.524 25.7604L152.295 19.2215H170.659H171.071L171.15 18.8173L172.641 11.1837L172.757 10.5879H172.15H144.786H144.408L144.305 10.9522L137.215 36.0986L137.036 36.7342H137.696H146.904H147.124L147.273 36.5719C149.144 34.5286 151.93 33.5107 154.723 33.8565L154.748 33.8596L154.773 33.8601C158.767 33.9516 161.938 37.1273 161.947 40.9942C161.947 43.1258 161.286 44.8788 160.014 46.1006C158.741 47.324 156.793 48.074 154.104 48.074H154.092L154.08 48.0746C152.155 48.1705 150.273 47.5132 148.851 46.2521L148.851 46.2521C147.43 44.9917 146.585 43.2327 146.501 41.3665L146.476 40.8101L145.925 40.8949L136.718 42.3137L136.227 42.3893L136.299 42.8804C137.429 50.5826 143.703 56.4487 151.417 57.4144L151.427 57.4156L151.437 57.4165C153.763 57.6125 155.106 57.6528 157.509 57.4158Z" fill="white" stroke="#003383"/>
<path d="M183.13 58.0684H183.552L183.623 57.6527L184.494 52.5607L184.495 52.5562L185.82 44.3642L185.82 44.3601L191.571 10.578L191.67 9.99414H191.078H180.116H179.882L179.732 10.174L172.263 19.1353L171.58 19.9554H172.647H177.92L171.638 57.4858L171.54 58.0684H172.131H183.13Z" fill="white" stroke="#003383"/>
<path fill-rule="evenodd" clip-rule="evenodd" d="M78.1164 71.7002C77.7827 71.3984 77.3818 71.1813 76.947 71.0661C76.1847 70.8311 75.3698 70.8311 74.6078 71.0661C74.1747 71.1858 73.7749 71.4027 73.4381 71.7002C73.0486 72.0461 72.7374 72.4715 72.5263 72.9477C72.2673 73.6093 72.1459 74.3171 72.1695 75.0272C72.1575 75.7046 72.2789 76.3773 72.5263 77.0076C72.7431 77.4866 73.0531 77.9175 73.4381 78.2754C73.7795 78.566 74.1778 78.7817 74.6078 78.9091C75.3698 79.1442 76.1847 79.1442 76.947 78.9091C77.3784 78.7857 77.7776 78.5695 78.1164 78.2754C78.5014 77.9175 78.8114 77.4866 79.0283 77.0076C79.2759 76.3773 79.397 75.7046 79.385 75.0272C79.4283 74.271 79.3067 73.5139 79.0283 72.8092C78.8077 72.3612 78.4971 71.9637 78.1164 71.6406V71.7002ZM34.8039 67.4022H29.2933L27.0333 76.8891L24.8925 67.4022H19.8577L17.7169 76.7703L15.4373 67.4022H9.94629L14.8822 82.5334H20.3533L22.3354 73.3241L24.3178 82.5334H29.7689L34.8039 67.4022ZM84.9949 75.0669C85.006 73.9695 84.7828 72.8827 84.3406 71.8783C83.8721 70.9106 83.1951 70.0583 82.3585 69.3827C81.4977 68.6589 80.5094 68.1015 79.4446 67.7391C76.996 66.9472 74.3602 66.9472 71.9119 67.7391C70.8468 68.1015 69.8586 68.6589 68.998 69.3827C68.197 70.064 67.5602 70.9171 67.1347 71.8783C66.2405 73.9102 66.2405 76.2237 67.1347 78.2557C67.5986 79.2149 68.2688 80.0603 69.0972 80.7314C69.9592 81.4486 70.9474 81.9994 72.0111 82.3553C74.4594 83.1472 77.0952 83.1472 79.5438 82.3553C80.6075 81.9994 81.5954 81.4486 82.4574 80.7314C83.2903 80.0438 83.9662 79.1861 84.4398 78.2158C84.8589 77.1866 85.0484 76.0779 84.9949 74.968V75.0669ZM137.961 74.3143H130.527V77.5425H133.005C132.938 77.8226 132.802 78.0813 132.609 78.2951C132.42 78.5093 132.191 78.6843 131.935 78.81C131.65 78.9482 131.351 79.0544 131.043 79.1271C130.727 79.1573 130.408 79.1573 130.091 79.1271C129.407 79.1428 128.729 79.0006 128.109 78.7111C127.622 78.4731 127.195 78.1278 126.86 77.7009C126.566 77.3282 126.356 76.8957 126.246 76.4335C126.135 76.04 126.075 75.6339 126.067 75.2253V74.532C126.083 74.2268 126.116 73.9228 126.167 73.621C126.227 73.2782 126.333 72.9451 126.484 72.6308C126.62 72.292 126.83 71.9877 127.098 71.7395C127.402 71.4505 127.759 71.222 128.149 71.0661C128.673 70.8937 129.223 70.8134 129.774 70.8285C130.396 70.81 131.007 70.9903 131.519 71.3434C131.988 71.6643 132.315 72.1541 132.431 72.71H137.783C137.452 71.0134 136.47 69.5135 135.047 68.5312C133.367 67.4712 131.402 66.9529 129.417 67.0458C128.364 67.054 127.317 67.2073 126.305 67.5011C125.259 67.7895 124.277 68.2733 123.411 68.9273C122.523 69.587 121.798 70.4404 121.29 71.4229C120.707 72.5684 120.421 73.8416 120.458 75.1264C120.42 76.1593 120.589 77.1892 120.953 78.1566C121.341 79.0966 121.938 79.9364 122.698 80.6126C123.487 81.3472 124.417 81.9131 125.433 82.2761C126.586 82.7058 127.81 82.9141 129.041 82.8902C130.009 82.8981 130.973 82.7511 131.895 82.4542C132.777 82.1758 133.57 81.6703 134.195 80.9887L134.373 82.5334H137.921L137.961 74.3143ZM192.315 82.5334L185.832 74.6115L191.661 67.4815H185.437L182.74 71.601L180.005 67.4815H173.424L179.371 74.5719L172.81 82.6129H179.212L182.403 78.0178L185.515 82.5334H192.315Z" fill="#003383"/>
<defs>
<linearGradient id="paint0_linear_2048_37900" x1="200.959" y1="57.8693" x2="194.756" y2="5.00977" gradientUnits="userSpaceOnUse">
<stop offset="0.16" stop-color="#C1C3DE"/>
<stop offset="0.59" stop-color="#989CC8"/>
<stop offset="1" stop-color="#394B95"/>
</linearGradient>
<linearGradient id="paint1_linear_2048_37900" x1="201.084" y1="62.2912" x2="178.428" y2="6.07231" gradientUnits="userSpaceOnUse">
<stop offset="0.16" stop-color="#C1C3DE"/>
<stop offset="0.59" stop-color="#989CC8"/>
<stop offset="1" stop-color="#394B95"/>
</linearGradient>
<linearGradient id="paint2_linear_2048_37900" x1="128.397" y1="57.8693" x2="134.615" y2="5.00977" gradientUnits="userSpaceOnUse">
<stop offset="0.16" stop-color="#C1C3DE"/>
<stop offset="0.59" stop-color="#989CC8"/>
<stop offset="1" stop-color="#394B95"/>
</linearGradient>
<linearGradient id="paint3_linear_2048_37900" x1="129.068" y1="57.9474" x2="157.1" y2="6.10358" gradientUnits="userSpaceOnUse">
<stop offset="0.16" stop-color="#C1C3DE"/>
<stop offset="0.59" stop-color="#989CC8"/>
<stop offset="1" stop-color="#394B95"/>
</linearGradient>
<linearGradient id="paint4_linear_2048_37900" x1="164.678" y1="8.13477" x2="164.678" y2="60.2286" gradientUnits="userSpaceOnUse">
<stop stop-color="#4D5DA4"/>
<stop offset="1" stop-color="#1A2857"/>
</linearGradient>
<linearGradient id="paint5_linear_2048_37900" x1="64.6777" y1="8.13477" x2="64.6777" y2="60.2286" gradientUnits="userSpaceOnUse">
<stop offset="0.01" stop-color="#EA1C2D"/>
<stop offset="1" stop-color="#AB1F2D"/>
</linearGradient>
<linearGradient id="paint6_linear_2048_37900" x1="64.6777" y1="60.2599" x2="64.6777" y2="8.11914" gradientUnits="userSpaceOnUse">
<stop offset="0.01" stop-color="#EA1C2D"/>
<stop offset="1" stop-color="#AB1F2D"/>
</linearGradient>
</defs>
</svg>
