<svg width="201" height="91" viewBox="0 0 201 91" fill="none" xmlns="http://www.w3.org/2000/svg">
<path d="M28.9307 10.2324V59.3772H42.5057V43.9764H57.3129V30.1325H42.6796V23.5553H59.7802L59.6034 10.2324H28.9307Z" fill="#23428F"/>
<path d="M103.234 9.98242L117.253 33.421L102.269 59.3802H118.488L125.188 48.4785L131.94 59.3772H148.51L133.121 33.5957L147.353 9.98242H130.78L125.539 20.4444L119.555 9.98242H103.234Z" fill="#23428F"/>
<path d="M84.7356 9.80469C70.7169 9.80469 59.3574 20.9473 59.3574 34.7189C59.3574 48.4905 70.7169 59.6331 84.7356 59.6331C98.7543 59.6331 110.117 48.4905 110.117 34.7189C110.117 20.9473 98.7573 9.80469 84.7356 9.80469ZM89.1457 23.5884V44.5304C89.1457 46.9185 88.8759 48.8609 84.7356 48.8609C80.5954 48.8609 80.5984 46.3855 80.5984 46.3855V23.5884C80.5984 23.5884 80.4185 20.0528 84.9155 20.0528C89.4125 20.0528 89.1517 23.5884 89.1517 23.5884H89.1457Z" fill="#23428F"/>
<path d="M165.979 65.5267L150.746 9.98242H165.316L172.179 65.5267H165.979Z" fill="#23428F"/>
<path d="M137.108 33.2675L155.9 65.5267H163.767L147.293 16.7734L137.108 33.2675Z" fill="#23428F"/>
<path d="M151.906 65.5447H28.8799V62.3887H150.054L151.906 65.5447Z" fill="#BC212F"/>
<path d="M68.8463 79.6468C68.8745 80.9497 68.4422 82.2205 67.6261 83.2336C67.2596 83.7125 66.7862 84.0982 66.2441 84.3597C65.7021 84.6213 65.1064 84.7513 64.5052 84.7393H54.3749C53.7705 84.7546 53.1712 84.6262 52.6257 84.3645C52.0801 84.1028 51.604 83.7153 51.236 83.2336C50.4301 82.2161 50.0057 80.9466 50.0367 79.6468V68.2754H53.6134V79.6468C53.6134 80.481 53.8712 80.8936 54.3839 80.8936H64.4932C64.9879 80.8936 65.2367 80.481 65.2367 79.6468V68.2754H68.8343L68.8463 79.6468Z" fill="#23428F"/>
<path d="M89.2088 79.6627C89.2426 80.9445 88.8325 82.1983 88.0486 83.2102C87.6769 83.6943 87.1981 84.0848 86.6502 84.3508C86.1022 84.6169 85.5002 84.7512 84.8917 84.7431H71.6734V80.8944H84.8857C85.3833 80.8944 85.6322 80.4838 85.6322 79.6627C85.6322 78.8405 85.3833 78.434 84.8857 78.434H75.274C74.6649 78.4424 74.0624 78.3074 73.5146 78.0396C72.9669 77.7718 72.4893 77.3788 72.1201 76.8921C71.3119 75.9005 70.8862 74.6497 70.9209 73.3686C70.8951 72.0656 71.3283 70.7953 72.1441 69.7819C72.5117 69.3027 72.9861 68.9169 73.5292 68.6553C74.0723 68.3938 74.6689 68.264 75.271 68.2762H88.4833V72.1219H75.271C74.7764 72.1219 74.5305 72.5405 74.5305 73.3686C74.5305 74.1968 74.7764 74.5732 75.274 74.5732H84.8917C85.5005 74.565 86.1029 74.6996 86.6509 74.9662C87.1989 75.2328 87.6775 75.6242 88.0486 76.1091C88.8329 77.1185 89.2432 78.3706 89.2088 79.6506" fill="#23428F"/>
<path d="M94.9771 68.2754H91.3975V84.7423H94.9771V68.2754Z" fill="#23428F"/>
<path d="M114.014 84.7423H110.437L101.246 73.657V84.7423H97.6689V68.2754H101.237L110.434 79.2915L110.437 68.2754H114.014V84.7423Z" fill="#23428F"/>
<path d="M133.042 72.1241H120.28V74.5875H132.209V78.4332H120.28V80.8966H133.012V84.7423H116.703V68.2754H133.042V72.1241Z" fill="#23428F"/>
<path d="M153.105 79.6626C153.139 80.9444 152.729 82.1982 151.945 83.2102C151.574 83.6946 151.095 84.0853 150.547 84.3514C149.999 84.6175 149.397 84.7516 148.788 84.7431H135.57V80.8943H148.782C149.28 80.8943 149.526 80.4848 149.526 79.6626C149.526 78.8405 149.28 78.4339 148.782 78.4339H139.171C138.561 78.4424 137.959 78.3073 137.411 78.0395C136.863 77.7718 136.386 77.3788 136.017 76.892C135.208 75.9007 134.782 74.6497 134.817 73.3686C134.787 72.0664 135.217 70.7955 136.032 69.7819C136.4 69.303 136.874 68.9174 137.417 68.6559C137.96 68.3945 138.557 68.2644 139.159 68.2761H152.377V72.1218H139.171C138.673 72.1218 138.427 72.5404 138.427 73.3686C138.427 74.1967 138.673 74.5732 139.171 74.5732H148.788C149.397 74.5636 150 74.6975 150.548 74.9642C151.097 75.2309 151.575 75.623 151.945 76.109C152.729 77.1184 153.14 78.3706 153.105 79.6506" fill="#23428F"/>
<path d="M172.878 79.6626C172.912 80.9444 172.501 82.1982 171.718 83.2102C171.346 83.6942 170.867 84.0847 170.319 84.3508C169.771 84.6168 169.169 84.7511 168.561 84.743H155.327V80.8943H168.537C169.034 80.8943 169.286 80.4847 169.286 79.6626C169.286 78.8405 169.034 78.4339 168.537 78.4339H158.943C158.334 78.4424 157.731 78.3073 157.184 78.0395C156.636 77.7717 156.158 77.3787 155.789 76.892C154.981 75.9005 154.555 74.6497 154.59 73.3686C154.555 72.0683 154.98 70.7977 155.789 69.7818C156.157 69.3032 156.632 68.9177 157.175 68.6562C157.718 68.3948 158.314 68.2646 158.916 68.2761H172.131V72.1218H158.925C158.43 72.1218 158.185 72.5404 158.185 73.3686C158.185 74.1967 158.43 74.5732 158.928 74.5732H168.546C169.155 74.5649 169.757 74.6995 170.305 74.9661C170.853 75.2327 171.331 75.6241 171.703 76.109C172.495 77.1196 172.911 78.3766 172.878 79.6626Z" fill="#23428F"/>
<path d="M46.2532 76.3962C47.5004 77.2303 48.13 78.5042 48.13 80.2027C48.1615 81.3489 47.7683 82.466 47.0267 83.3377C46.6325 83.8019 46.1382 84.1698 45.5813 84.4134C45.0245 84.6571 44.4197 84.7702 43.8128 84.7441H28.9727V68.2771H43.558C44.1652 68.2509 44.7702 68.3643 45.3272 68.6085C45.8841 68.8527 46.3782 69.2214 46.7719 69.6865C47.4957 70.5651 47.8762 71.6785 47.8422 72.8185C47.8422 74.3544 47.3175 75.5439 46.2652 76.3962M43.567 74.6314C44.0797 74.6314 44.3375 74.2158 44.3375 73.3786C44.3375 72.5414 44.0797 72.1228 43.567 72.1228H32.5373V74.6465L43.567 74.6314ZM43.8398 80.8954C44.3555 80.8954 44.6163 80.4858 44.6163 79.6636C44.6163 78.8415 44.3555 78.4349 43.8398 78.4349H32.5373V80.8954H43.8398Z" fill="#23428F"/>
</svg>
