<svg width="201" height="91" viewBox="0 0 201 91" fill="none" xmlns="http://www.w3.org/2000/svg">
<path d="M200.88 24.1562H0.879883V68.442H200.88V24.1562Z" fill="white"/>
<path d="M199.17 25.8652H2.58398L2.65329 62.4171H199.17V25.8652Z" fill="#00245B"/>
<path d="M2.65234 63.4629L199.169 63.6004V66.7888H2.65234V63.4629Z" fill="#980321"/>
<path d="M29.2471 57.339V31.0977H45.756L46.263 38.2741H37.0237V41.6977H44.5523V48.8561H36.9617L36.958 57.339H29.2471Z" fill="#00245B"/>
<path d="M27.879 44.6804C26.6773 42.9404 25.2985 41.3275 23.7645 39.8671L27.8644 35.2746V29.7412H32.8032L36.2648 25.8652H26.8613L19.8945 36.7222C18.671 35.8812 17.3887 35.1277 16.0572 34.4676L20.0404 25.8797H11.6765L10.1336 32.2564C7.57456 31.5918 4.94013 31.2561 2.29492 31.2575V32.6364C4.83085 32.636 7.35627 32.9595 9.80892 33.599L2.54661 63.5933L15.4772 35.727C16.744 36.3631 17.963 37.0888 19.1248 37.8984L2.65968 63.5246L22.8563 40.9022C24.8173 42.7865 26.5074 44.9298 27.879 47.2716V44.6804Z" fill="white"/>
<path d="M31.6914 58.7012C31.8155 59.7886 31.8788 60.882 31.8811 61.9764C31.8811 62.0596 31.8811 62.1428 31.8811 62.2261V62.4251L33.2745 62.4505V62.2731C33.2745 62.1754 33.2745 62.0777 33.2745 61.9764C33.2733 60.8824 33.2148 59.7892 33.0994 58.7012H31.6914Z" fill="white"/>
<path d="M29.2471 57.339V31.0977H45.756L46.263 38.2741H37.0237V41.6977H44.5523V48.8561H36.9617L36.958 57.339H29.2471Z" fill="white"/>
<path d="M93.659 57.3021L85.4556 43.6838L92.8383 31.1367H84.354L81.177 36.5869L77.8942 31.1367H69.388L76.9896 43.7743L69.1035 57.3021L77.4492 57.2949L81.2426 50.8422L85.1273 57.3021H93.659Z" fill="white"/>
<path d="M61.7799 49.7529L61.831 38.5991C61.8107 37.9638 61.5463 37.3602 61.0919 36.912C60.6375 36.4639 60.0276 36.2052 59.3871 36.1888C58.7558 36.2086 58.1571 36.4711 57.7173 36.9209C57.2776 37.3707 57.0314 37.9725 57.0308 38.5991V49.7239C57.0738 50.3163 57.3404 50.8708 57.7774 51.2767C58.2144 51.6827 58.7896 51.9102 59.3882 51.9138C59.9868 51.9175 60.5648 51.697 61.0068 51.2965C61.4488 50.8959 61.7222 50.3447 61.7726 49.7529H61.7799ZM45.8838 44.3678C45.8838 37.061 51.9461 31.1367 59.4309 31.1367C66.9157 31.1367 72.9743 37.061 72.9743 44.3678C72.9743 51.6745 66.912 57.5952 59.4309 57.5952C51.9497 57.5952 45.8838 51.6745 45.8838 44.3678Z" fill="white"/>
<path d="M124.485 31.0098H141.673V37.1621H131.157V41.0308H139.802V46.7162H131.157V51.1857H141.804V57.338H124.485V31.0098Z" fill="white"/>
<path d="M142.967 31.0098H149.784L152.99 46.3688L156.065 31.0098H161.777L165.016 46.2168L168.325 31.0098H173.836L167.621 57.3271H161.544L158.403 42.3481L155.361 57.3271H149.149L142.967 31.0098Z" fill="white"/>
<path d="M178.962 48.1291C179.454 50.3294 180.873 51.4296 183.339 51.4296C184.955 51.4296 185.892 50.6334 185.892 49.6201C185.892 47.6876 184.276 47.7635 181.245 46.8516C176.073 45.3352 173.585 43.2108 173.585 38.8898C173.585 33.8847 177.309 30.168 183.404 30.168C187.887 30.168 191.017 32.4805 192.465 36.7654L186.629 38.6979C185.939 36.8016 184.805 36.0452 182.941 36.0452C181.555 36.0452 180.599 36.9174 180.599 37.9416C180.599 39.4941 182.084 39.5701 184.787 40.3301C187.026 40.9743 189.102 41.3905 190.882 43.0227C192.341 44.3472 193.089 46.2798 193.089 48.6357C193.109 50.7919 192.309 52.8764 190.849 54.4732C188.971 56.4853 186.333 57.5819 183.189 57.5819C177.39 57.5819 173.6 54.6252 172.513 49.5441L178.962 48.1291Z" fill="white"/>
<path d="M116.18 31.1152V44.3391L108.206 31.1261H100.521L100.455 57.3096L107.251 57.2951V42.1279L116.351 57.3096H122.782V31.1261L116.18 31.1152Z" fill="white"/>
</svg>
