<svg width="201" height="92" viewBox="0 0 201 92" fill="none" xmlns="http://www.w3.org/2000/svg">
<path d="M131.794 1.42188H70.6908C65.9682 1.42635 61.4403 3.30451 58.101 6.64407C54.7617 9.98364 52.884 14.5117 52.8799 19.2344V73.6109C52.8844 78.3333 54.7623 82.861 58.1015 86.2002C61.4408 89.5395 65.9685 91.4174 70.6908 91.4219H131.794C136.517 91.4174 141.044 89.5395 144.384 86.2002C147.723 82.861 149.601 78.3333 149.605 73.6109V19.2344C149.601 14.5117 147.723 9.98364 144.384 6.64407C141.045 3.30451 136.517 1.42635 131.794 1.42188Z" fill="white"/>
<path d="M131.795 3.13672H70.6911C66.4233 3.1416 62.3317 4.83913 59.3139 7.85691C56.2962 10.8747 54.5986 14.9663 54.5938 19.2341V73.6106C54.599 77.8781 56.2968 81.9693 59.3145 84.9867C62.3322 88.0042 66.4236 89.7015 70.6911 89.7064H131.795C136.062 89.7015 140.153 88.0042 143.171 84.9867C146.189 81.9693 147.887 77.8781 147.892 73.6106V19.2341C147.887 14.9663 146.189 10.8747 143.172 7.85691C140.154 4.83913 136.062 3.1416 131.795 3.13672ZM145.508 73.6106C145.504 77.2464 144.058 80.7322 141.487 83.3031C138.916 85.874 135.43 87.3202 131.795 87.3242H70.6665C67.0307 87.3202 63.5449 85.874 60.974 83.3031C58.4031 80.7322 56.9569 77.2464 56.9529 73.6106V19.2341C56.9569 15.5981 58.403 12.1122 60.9739 9.54101C63.5448 6.96984 67.0305 5.52337 70.6665 5.51889H131.795C135.431 5.52337 138.916 6.96984 141.487 9.54101C144.058 12.1122 145.504 15.5981 145.508 19.2341V73.6106Z" fill="url(#paint0_linear_2048_37891)"/>
<path d="M99.3152 16.9961C90.4013 16.9961 83.1641 24.1134 83.1641 32.8936C83.1641 41.6739 90.3951 48.7912 99.3152 48.7912C108.235 48.7912 115.466 41.6739 115.466 32.8936C115.466 24.1134 108.235 16.9961 99.3152 16.9961ZM102.118 39.3685C102.118 40.8977 100.82 42.098 99.266 42.098C98.5262 42.1038 97.8143 41.8157 97.2867 41.297C96.7591 40.7783 96.4589 40.0715 96.452 39.3316V25.9607C96.452 24.4239 97.7076 23.0637 99.2614 23.0637C100.815 23.0637 102.183 24.4346 102.183 25.9638L102.118 39.3685Z" fill="url(#paint1_linear_2048_37891)"/>
<path d="M139.151 16.9961H129.037L125.249 23.5463L121.331 16.9961H111.192L120.255 32.1821L110.853 48.4377L120.801 48.4285L125.325 40.678L129.956 48.4377H140.13L130.348 32.0745L139.151 16.9961Z" fill="url(#paint2_linear_2048_37891)"/>
<path d="M72.6031 25.5692H83.621L83.017 16.9473H63.3311V48.4826H72.5232L72.5278 38.2869H81.58V29.685H72.6031V25.5692Z" fill="url(#paint3_linear_2048_37891)"/>
<path d="M58.8936 57.4805V75.1547C59.3124 77.9698 60.7276 80.5411 62.8818 82.4012C65.036 84.2612 67.7862 85.2864 70.6323 85.2904H131.76C134.756 85.2874 137.64 84.1527 139.834 82.1136C142.029 80.0744 143.372 77.2814 143.594 74.294V57.4805H58.8936Z" fill="url(#paint4_linear_2048_37891)"/>
<path d="M76.459 78.3038H72.563L71.6332 73.0615C71.4518 72.0492 71.3161 71.1711 71.2259 70.4273C71.1813 70.0584 71.1429 69.7526 71.1106 69.5051C71.0784 69.2577 71.0553 69.0717 71.043 68.9426C71.0112 69.207 70.9626 69.7013 70.897 70.4257C70.8652 70.7925 70.8263 71.1798 70.7802 71.5876C70.7356 71.9949 70.6803 72.4237 70.6157 72.877L69.8473 78.3023H65.9129L62.584 63.3438H66.5799L67.2392 67.4611C67.4913 69.1004 67.6654 70.3893 67.7618 71.3279L67.8985 72.6942L68.0246 71.5215C68.1598 70.1527 68.334 68.8509 68.5471 67.6163L69.294 63.3438H72.772L73.4498 66.9385C73.7725 68.6117 74.0538 70.5917 74.2935 72.8786C74.3642 71.854 74.4416 70.9431 74.5256 70.146C74.6096 69.3489 74.7033 68.6286 74.8068 67.9851L75.543 63.3438H79.4867L76.459 78.3038Z" fill="white"/>
<path d="M80.3555 78.3038V63.3438H87.8647V66.8601H84.3959V69.041H87.5066V72.4237H84.3959V74.709H87.8647V78.3038H80.3555Z" fill="white"/>
<path d="M100.364 78.3038H96.1899L95.8825 76.4057H93.1653L92.8364 78.3038H88.6592L92.254 63.3438H97.1966L100.364 78.3038ZM95.4215 73.1983L95.1587 71.4539C95.1397 71.3678 95.1269 71.2805 95.1202 71.1926C95.108 71.0502 95.0403 70.4867 94.9174 69.5021C94.9035 69.3914 94.8882 69.2423 94.8682 69.0502C94.8482 68.8581 94.8236 68.6199 94.7914 68.3294L94.6653 66.9139C94.6515 67.0507 94.6346 67.2013 94.6115 67.375C94.5885 67.5487 94.5654 67.7269 94.5393 67.9267C94.4932 68.3279 94.4609 68.6045 94.4425 68.7597C94.424 68.915 94.4102 69.0087 94.4041 69.041L94.1228 70.853L93.7155 73.1983H95.4215Z" fill="white"/>
<path d="M105.494 78.3038H101.453V66.9293H99.2246V63.3438H107.81V66.9293H105.494V78.3038Z" fill="white"/>
<path d="M118.897 78.3038H114.857V72.2869H112.928V78.3038H108.888V63.3438H112.928V68.6337H114.857V63.3438H118.897V78.3038Z" fill="white"/>
<path d="M119.982 78.3038V63.3438H127.492V66.8601H124.023V69.041H127.132V72.4237H124.023V74.709H127.492V78.3038H119.982Z" fill="white"/>
<path d="M139.242 78.3038H134.872L132.875 72.9754C132.847 72.8537 132.814 72.7337 132.773 72.6158C132.724 72.4621 132.664 72.29 132.593 72.084L132.622 73.0722V78.2976H128.604V63.3438H132.741C134.562 63.3438 135.924 63.7024 136.829 64.4196C137.981 65.3417 138.556 66.6465 138.555 68.334C138.555 70.1434 137.783 71.3934 136.239 72.084L139.242 78.3038ZM132.644 70.272H132.921C133.142 70.2758 133.362 70.2298 133.563 70.1375C133.764 70.0452 133.942 69.9089 134.084 69.7387C134.401 69.3596 134.566 68.8757 134.545 68.3817C134.545 67.2649 133.961 66.7065 132.792 66.7065H132.647L132.644 70.272Z" fill="white"/>
<defs>
<linearGradient id="paint0_linear_2048_37891" x1="101.243" y1="89.3283" x2="101.243" y2="-17.954" gradientUnits="userSpaceOnUse">
<stop stop-color="#4999C6"/>
<stop offset="0.17" stop-color="#4999C6"/>
<stop offset="0.9" stop-color="#14167B"/>
<stop offset="1" stop-color="#13157A"/>
</linearGradient>
<linearGradient id="paint1_linear_2048_37891" x1="99.3152" y1="89.3296" x2="99.3152" y2="-17.9527" gradientUnits="userSpaceOnUse">
<stop stop-color="#4999C6"/>
<stop offset="0.17" stop-color="#4999C6"/>
<stop offset="0.9" stop-color="#14167B"/>
<stop offset="1" stop-color="#13157A"/>
</linearGradient>
<linearGradient id="paint2_linear_2048_37891" x1="125.491" y1="89.3296" x2="125.491" y2="-17.9527" gradientUnits="userSpaceOnUse">
<stop stop-color="#4999C6"/>
<stop offset="0.17" stop-color="#4999C6"/>
<stop offset="0.9" stop-color="#14167B"/>
<stop offset="1" stop-color="#13157A"/>
</linearGradient>
<linearGradient id="paint3_linear_2048_37891" x1="73.476" y1="89.3284" x2="73.476" y2="-17.9539" gradientUnits="userSpaceOnUse">
<stop stop-color="#4999C6"/>
<stop offset="0.17" stop-color="#4999C6"/>
<stop offset="0.9" stop-color="#14167B"/>
<stop offset="1" stop-color="#13157A"/>
</linearGradient>
<linearGradient id="paint4_linear_2048_37891" x1="101.242" y1="-0.764405" x2="101.242" y2="83.9333" gradientUnits="userSpaceOnUse">
<stop offset="0.67" stop-color="#FA7B20"/>
<stop offset="0.89" stop-color="#F9451B"/>
<stop offset="1" stop-color="#D51501"/>
</linearGradient>
</defs>
</svg>
