<svg width="201" height="92" viewBox="0 0 201 92" fill="none" xmlns="http://www.w3.org/2000/svg">
<path d="M145.88 91.0672V86.668C141.372 88.3364 137.102 89.7937 133.055 91.0672H145.88Z" fill="#00A7E3"/>
<path d="M98.4293 59.4756C100.479 60.8551 106.096 60.8251 112.089 59.4004C119.536 57.6298 125.221 54.3363 124.744 52.0368C124.665 51.6623 124.409 51.3228 123.993 51.0421C121.927 49.6563 116.317 49.6888 110.337 51.1129C104.344 52.5383 99.253 55.0426 97.9552 57.2132C97.6834 57.6585 97.5864 58.0962 97.6694 58.4618C97.7472 58.8453 98.0043 59.1853 98.4293 59.4756Z" fill="#00A7E3"/>
<path d="M116.784 81.6969C98.6206 86.0055 81.7873 85.7847 74.8819 81.1475C73.1987 80.0118 72.1785 78.6502 71.8461 77.0788C71.3223 74.5949 72.6251 71.7167 75.6118 68.7422C75.6532 68.7116 75.717 68.7116 75.7528 68.7422C75.7917 68.7734 75.8006 68.8615 75.77 68.8991C74.2949 70.8432 73.7232 72.6699 74.0728 74.3122C74.3497 75.6438 75.2347 76.8197 76.6932 77.7908C83.0315 82.0573 98.8426 82.1818 116.032 78.1143C128.131 75.2297 138.974 70.7424 145.88 65.774V1.06641H55.8799V91.0664H64.1597C63.5235 90.1795 63.0814 89.2308 62.8651 88.2157C62.7598 87.7046 62.7075 87.1833 62.7075 86.6646C62.7075 84.4423 63.6601 82.0631 65.5455 79.5696C65.5678 79.5384 65.6374 79.5231 65.6788 79.5633L65.7178 79.6979C64.6561 81.6516 64.3039 83.4955 64.6561 85.1869C65.1703 87.6146 67.1061 89.5836 70.1559 91.0664H116.875C117.487 90.9286 118.093 90.8016 118.708 90.6561C128.609 88.2992 137.966 85.0414 145.881 81.2056V70.2314C138.454 74.9247 128.167 78.9986 116.784 81.6969ZM110.184 50.4146C119.267 48.2593 127.186 48.995 127.841 52.0652C127.958 52.6465 127.822 53.2928 127.417 53.9493C125.726 56.7726 119.756 59.8103 112.529 61.5369C103.443 63.6819 95.5293 62.9507 94.8779 59.8901C94.2379 56.8243 101.085 52.5725 110.184 50.4146ZM88.0566 59.5647C88.1032 59.5392 88.1651 59.5392 88.1894 59.5883C88.2308 59.6342 88.2142 59.7012 88.1804 59.7325C85.835 61.7353 84.7848 63.6277 85.1191 65.2221C85.294 66.0669 85.8605 66.816 86.7914 67.4431C90.9757 70.2569 102.081 70.2881 113.8 67.5057C128.593 63.9831 139.825 57.2563 138.816 52.4761C138.467 50.888 136.748 49.6407 133.838 48.9044C133.783 48.8789 133.747 48.8342 133.761 48.7634C133.774 48.7162 133.831 48.6792 133.881 48.6836C138.655 49.4614 141.459 51.1133 141.952 53.4746C142.182 54.5242 141.92 55.6784 141.193 56.8875C138.148 61.9809 127.392 67.4744 114.429 70.5536C101.468 73.6232 89.5363 73.5287 84.7287 70.2964C83.5834 69.5187 82.8962 68.6069 82.6742 67.5376C82.1829 65.1717 84.0389 62.4173 88.0566 59.5647Z" fill="#00A7E3"/>
<path d="M145.883 86.666V81.2031L145.881 81.2044V86.6673L145.883 86.666Z" fill="white"/>
<path d="M116.875 91.0666H133.055C137.103 89.7937 141.372 88.3364 145.881 86.6673V81.2051C137.967 85.0416 128.609 88.2988 118.708 90.655C118.093 90.8018 117.486 90.9287 116.875 91.0666Z" fill="white"/>
<path d="M64.6562 85.1871C64.304 83.4963 64.6562 81.6524 65.7179 79.6981L65.679 79.5641C65.6375 79.5226 65.568 79.5386 65.5457 79.5692C63.6603 82.0633 62.707 84.4425 62.707 86.6648C62.707 87.1829 62.7593 87.7042 62.8646 88.2159C63.0816 89.231 63.5237 90.1797 64.1598 91.0666H70.1561C67.1063 89.5838 65.1705 87.6148 64.6562 85.1871Z" fill="white"/>
<path d="M84.7293 70.2968C89.5382 73.5291 101.469 73.6241 114.43 70.5539C127.393 67.4747 138.149 61.9813 141.194 56.8878C141.921 55.6787 142.183 54.5245 141.953 53.475C141.46 51.1142 138.657 49.4617 133.882 48.684C133.832 48.6795 133.776 48.7165 133.762 48.7637C133.748 48.8339 133.784 48.8792 133.839 48.9047C136.748 49.6404 138.467 50.8877 138.817 52.4764C139.826 57.2566 128.594 63.9821 113.801 67.506C102.083 70.2885 90.9763 70.2572 86.7921 67.4435C85.8612 66.8163 85.2946 66.0672 85.1204 65.2225C84.7854 63.6287 85.8357 61.7356 88.1817 59.7328C88.2149 59.7016 88.2315 59.6352 88.19 59.5886C88.1658 59.5395 88.1045 59.5395 88.0573 59.565C84.0396 62.4177 82.1842 65.1721 82.6748 67.5373C82.8969 68.6073 83.5847 69.5196 84.7293 70.2968Z" fill="white"/>
<path d="M145.883 70.2295V65.7734L145.881 65.7754V70.2314L145.883 70.2295Z" fill="white"/>
<path d="M76.6934 77.7915C75.2349 76.8211 74.3499 75.6445 74.073 74.3129C73.7233 72.6706 74.295 70.8433 75.7702 68.8999C75.8008 68.8622 75.7919 68.7742 75.7529 68.7429C75.7172 68.7129 75.6534 68.7129 75.6119 68.7429C72.6259 71.7174 71.3231 74.5956 71.8462 77.0795C72.1787 78.6509 73.1989 80.0125 74.882 81.1482C81.7875 85.7861 98.6208 86.0062 116.784 81.6976C128.168 78.9993 138.454 74.9255 145.88 70.2308V65.7754C138.974 70.7431 128.131 75.2304 116.032 78.1156C98.8428 82.1825 83.0316 82.0587 76.6934 77.7915Z" fill="white"/>
<path d="M112.529 61.5375C119.756 59.811 125.726 56.7733 127.417 53.95C127.822 53.2928 127.958 52.6471 127.841 52.0659C127.187 48.9957 119.267 48.26 110.184 50.4153C101.085 52.5731 94.2374 56.825 94.8774 59.8908C95.5294 62.9514 103.443 63.6826 112.529 61.5375ZM97.9559 57.2142C99.2537 55.0436 104.345 52.5393 110.338 51.114C116.318 49.6899 121.928 49.6573 123.993 51.0431C124.409 51.3232 124.666 51.6633 124.744 52.0378C125.222 54.3373 119.537 57.6308 112.09 59.4014C106.097 60.8261 100.479 60.8561 98.43 59.4767C98.005 59.1864 97.7479 58.8463 97.6701 58.4628C97.5871 58.0972 97.6841 57.6602 97.9559 57.2142Z" fill="white"/>
<path d="M92.9664 20.2239L94.1123 15.9305L95.3054 20.2239H92.9664ZM92.2639 12.3269L88.2136 24.3047H91.8466L92.2639 22.716H95.9415L96.3856 24.3047H100.072L96.0277 12.3269H92.2639ZM67.124 24.3047H70.8387V20.2519H74.8953V17.4478H70.8387V15.1062H75.9347V12.3109H67.124V24.3047ZM134.628 15.1062V12.3109H125.296V24.3047H134.628V21.5146H129.011V19.6988H133.665V16.9144H129.011V15.1062H134.628ZM82.9467 17.4816H80.8156V15.0794H82.9467C83.6842 15.0794 84.0498 15.482 84.0498 16.2827C84.0498 17.0732 83.6849 17.4816 82.9467 17.4816ZM87.3427 16.3682C87.3427 13.7593 85.8567 12.3269 83.1617 12.3269H77.3875V24.3047H80.8156V20.2302H81.9998C82.1568 20.5473 83.9899 24.3047 83.9899 24.3047H87.6847C87.6847 24.3047 85.599 20.1696 85.28 19.5909C86.5426 19.0397 87.3427 17.828 87.3427 16.3682ZM118.49 21.6014C116.874 21.6014 116.339 19.9316 116.339 18.3129C116.339 16.7032 116.874 15.0188 118.49 15.0188C119.928 15.0188 120.25 16.351 120.319 16.7868H123.704C123.404 13.7791 121.699 12.0487 118.588 12.043C115.106 12.043 112.848 14.539 112.848 18.3129C112.848 21.8591 114.924 24.5867 118.588 24.5867C121.894 24.5867 123.752 22.0199 123.752 19.6082H120.326C120.117 20.7311 119.666 21.6014 118.49 21.6014ZM107.891 18.7238H107.859L104.565 12.3269H100.992V24.3047H104.296V17.7553H104.321L107.797 24.3047H111.187V12.3269H107.891V18.7238Z" fill="white"/>
<path d="M93.1142 39.5719H88.1312L93.1142 33.5086V39.5719ZM99.2202 39.5719V27.5022H93.3809L84.0471 39.02V43.8723H75.1714V43.8416C79.02 41.3501 84.1199 39.6057 84.1199 34.0599C84.1199 29.459 80.7504 27.2578 75.782 27.2578C70.2917 27.2578 66.8004 30.6688 67.1239 36.6191H72.6448C72.5759 33.9738 73.3747 32.1669 75.7297 32.1669C77.0932 32.1669 78.1912 32.8534 78.1912 34.8083C78.1912 36.4021 76.48 37.2603 75.4356 37.9449C72.8151 39.6363 69.8923 41.2857 68.1753 43.8072C67.1743 45.2683 66.5924 47.0835 66.7117 49.1635H84.414V44.8542H93.1149V49.1635H99.2202V44.8542H101.983V39.5719H99.2202Z" fill="white"/>
</svg>
