<svg width="201" height="91" viewBox="0 0 201 91" fill="none" xmlns="http://www.w3.org/2000/svg">
<path d="M172.88 8.58984H28.8799V84.7233H172.88V8.58984Z" fill="#19305A"/>
<path d="M167.034 72.0296H166.532V69.8546L166.05 72H165.528L165.056 69.8546V72H164.554V69.4609H165.341L165.794 71.4883L166.256 69.4609H167.034V72.0296Z" fill="white"/>
<path d="M163.471 72.0296H162.94V69.9136H162.162V69.4609H164.248V69.9136H163.471V72.0296Z" fill="white"/>
<path d="M141.24 41.3637V72.0591H160.174V21.2871H141.722L130.936 32.0241V38.2242H144.359L141.24 41.3637Z" fill="white"/>
<path d="M58.0108 72.0592V54.8268L55.3044 52.0909H75.1743V41.1374H58.0108V32.1325H75.3613L86.177 21.2773H41.2705V72.0592H58.0108Z" fill="white"/>
<path d="M82.5753 45.7924L88.8443 52.1401H105.821L106.933 53.2424V59.5999L105.457 61.0761H89.5824L80.7842 69.8941V72.0592H116.4L123.624 64.8356V47.4162L117.355 41.1374H100.369L99.2664 39.9564V33.6087L100.674 32.1325H119.274L123.476 28.1467V21.2773H112.454H93.8733L82.5753 32.6147V45.7924Z" fill="white"/>
</svg>
