<svg width="201" height="91" viewBox="0 0 201 91" fill="none" xmlns="http://www.w3.org/2000/svg">
<path d="M172.88 10.7656H28.8799V82.8728H172.88V10.7656Z" fill="#19305A"/>
<path d="M56.7495 70.8678V54.5467L54.1863 51.9555H73.0053V41.5813H56.7495V33.0525H73.1824L83.4262 22.7715H40.8945V70.8678H56.7495Z" fill="white"/>
<path d="M80.0148 45.9901L85.9523 52.0021H102.031L103.084 53.0461V59.0674L101.686 60.4656H86.6513L78.3184 68.8172V70.8678H112.051L118.893 64.0262V47.528L112.955 41.5813H96.8671L95.8232 40.4627V34.4507L97.1561 33.0525H114.773L118.753 29.2775V22.7715H108.313H90.7153L80.0148 33.5093V45.9901Z" fill="white"/>
<path d="M154.918 53.4376H135.745L138.914 56.588V60.6893H160.911V70.8585H125.743V49.1126L131.671 43.1285H146.557L147.675 42.0753V33.3695L146.697 32.4653H140.032L139.054 33.3695V37.8249H125.808V29.5292L132.641 22.7715H153.874L160.911 29.7436V47.5094L154.918 53.4376Z" fill="white"/>
<path d="M167.409 70.7375H166.934V68.7055L166.486 70.7375H165.983L165.545 68.7055V70.7375H165.069V68.3047H165.815L166.253 70.2248L166.682 68.3047H167.418L167.409 70.7375Z" fill="white"/>
<path d="M164.044 70.7375H163.531V68.7334H162.795V68.3047H164.771V68.7334H164.044V70.7375Z" fill="white"/>
</svg>
