<svg width="201" height="91" viewBox="0 0 201 91" fill="none" xmlns="http://www.w3.org/2000/svg">
<path fill-rule="evenodd" clip-rule="evenodd" d="M134.929 78.0908H131.133L122.822 54.1406H126.721L131.714 69.3996C132.157 70.8031 132.842 72.9243 133.048 73.7809C133.252 72.9243 133.936 70.7689 134.381 69.3665L139.307 54.1406H143.136L134.929 78.0908Z" fill="black"/>
<path fill-rule="evenodd" clip-rule="evenodd" d="M53.8716 41.8304H72.1823C72.7258 39.5869 73.8781 37.6624 75.4818 36.1108V33.0273H44.8799V78.0088H53.8716V59.0521H65.3657V50.3123H53.8716V41.8304Z" fill="black"/>
<path fill-rule="evenodd" clip-rule="evenodd" d="M88.8304 78.7156C81.315 78.7156 74.7635 75.5669 71.3594 70.5548L77.8477 64.771C80.994 68.4335 85.0411 69.9126 89.3439 69.9126C94.6747 69.9126 97.1802 68.4335 97.1802 65.03C97.1802 62.136 95.6386 60.8517 87.1604 58.9251C78.8748 56.9965 73.0935 54.3605 73.0935 45.4943C73.0935 37.3324 80.288 32.3203 89.1513 32.3203C96.1521 32.3203 101.292 34.9553 105.531 39.3884L99.0438 45.6859C96.1521 42.7308 92.9416 41.0601 88.8304 41.0601C84.012 41.0601 82.4073 43.1162 82.4073 45.109C82.4073 47.9356 84.334 48.8357 91.4642 50.5064C98.5945 52.1771 106.495 54.6184 106.495 64.3857C106.495 72.9339 101.1 78.7156 88.8304 78.7156Z" fill="black"/>
<path fill-rule="evenodd" clip-rule="evenodd" d="M117.078 57.6643V78.0908H113.487V57.6643H106.51V54.1406H124.054V57.6643H117.078Z" fill="black"/>
<path fill-rule="evenodd" clip-rule="evenodd" d="M147.565 26.4748C148.045 25.8523 148.559 24.9408 149.109 23.732C149.659 22.5254 149.933 21.3539 149.933 20.2156C149.933 18.9747 149.615 18.0508 148.977 17.447C148.337 16.8431 147.539 16.5417 146.58 16.5417C145.658 16.5417 144.904 16.8079 144.318 17.3413C143.731 17.8737 143.439 18.5832 143.439 19.4709C143.439 20.2891 143.651 20.9365 144.078 21.4161C144.504 21.8946 145.089 22.1711 145.836 22.2405C146.545 22.311 146.9 22.6134 146.9 23.1458C146.9 24.6373 146.064 26.2718 144.398 28.0471H146.155C146.615 27.6203 147.085 27.0973 147.565 26.4748ZM139.778 26.4748C140.257 25.8523 140.771 24.9408 141.323 23.732C141.871 22.5254 142.147 21.3539 142.147 20.2156C142.147 18.9747 141.828 18.0508 141.189 17.447C140.55 16.8431 139.752 16.5417 138.792 16.5417C137.869 16.5417 137.116 16.8079 136.53 17.3413C135.944 17.8737 135.652 18.5832 135.652 19.4709C135.652 20.2891 135.864 20.9365 136.29 21.4161C136.718 21.8946 137.303 22.1711 138.047 22.2405C138.758 22.311 139.112 22.6134 139.112 23.1458C139.112 24.6373 138.278 26.2718 136.61 28.0471H138.367C138.828 27.6203 139.299 27.0973 139.778 26.4748ZM122.905 18.114C122.426 18.7344 121.912 19.6501 121.361 20.8557C120.81 22.0634 120.537 23.2349 120.537 24.3721C120.537 25.5799 120.857 26.4934 121.494 27.1128C122.134 27.7353 122.914 28.0471 123.837 28.0471C124.76 28.0471 125.522 27.7715 126.125 27.2216C126.729 26.6705 127.031 25.9693 127.031 25.1169C127.031 24.2996 126.809 23.644 126.364 23.1458C125.922 22.6507 125.327 22.3835 124.582 22.3472C123.908 22.2768 123.571 21.9567 123.571 21.3902C123.571 19.9328 124.404 18.3181 126.072 16.5417H124.316C123.855 16.9674 123.385 17.4915 122.905 18.114ZM114.094 19.764C113.243 21.2017 112.816 22.7398 112.816 24.3721C112.816 25.5799 113.135 26.4934 113.774 27.1128C114.413 27.7353 115.194 28.0471 116.117 28.0471C117.076 28.0471 117.847 27.7715 118.434 27.2216C119.02 26.6705 119.312 25.9693 119.312 25.1169C119.312 24.2996 119.089 23.644 118.645 23.1458C118.202 22.6507 117.608 22.3835 116.863 22.3472C116.188 22.2768 115.851 21.9567 115.851 21.3902C115.851 19.9328 116.684 18.3181 118.353 16.5417H116.596C115.779 17.2523 114.947 18.3264 114.094 19.764ZM138.226 43.3578C134.762 44.1574 131.267 44.3294 127.912 43.9586C121.952 48.0229 113.63 49.3746 104.646 47.0752C108.537 45.1104 111.673 42.147 113.71 38.3809C110.285 35.7408 107.668 32.2999 106.331 28.2749C102.5 16.7644 110.572 4.84476 124.356 1.65562C138.144 -1.52938 152.426 5.22178 156.256 16.7416C160.082 28.2563 152.011 40.1728 138.226 43.3578Z" fill="#2271C6"/>
</svg>
