<svg width="201" height="91" viewBox="0 0 201 91" fill="none" xmlns="http://www.w3.org/2000/svg">
<rect x="0.879883" y="0.414062" width="200" height="90" fill="#FC5D2D"/>
<path d="M79.9281 57.9435C79.6739 61.965 76.6382 64.983 72.3768 64.983C65.8804 64.983 65.1253 59.5566 65.1253 57.3717V34.6702H47.8484V34.6134C47.9167 29.4218 50.5501 27.5132 55.2441 27.8843V18.5576C44.1979 17.2815 38.0886 24.6656 37.8799 34.6702V73.4804H47.8484V43.6561H55.1606V57.3717C55.1606 67.5466 61.2775 74.412 70.4909 74.412C74.0481 74.4761 77.471 73.057 79.9357 70.4965L80.3835 73.5259H89.9004V34.6702H79.9281V57.9435Z" fill="white"/>
<path d="M143.587 65.5134C138.885 65.5134 134.78 62.1054 133.467 57.1069H163.353C163.421 43.0051 155.836 33.6973 143.868 33.6973C132.484 33.6973 124.17 43.0051 124.17 54.2593C124.171 55.0286 124.215 55.7972 124.303 56.5616C121.403 51.601 114.141 50.4082 108.426 49.4274L107.766 49.3138C103.869 48.6397 101.467 47.9998 101.315 46.1897C101.224 44.2509 102.074 41.7365 107.348 41.7365C111.796 41.7365 113.772 43.3004 114.592 45.9474H124.356C123.597 38.62 119.024 33.7011 107.625 33.7011C95.4824 33.7011 91.0351 39.4153 91.2211 46.6782C91.3918 55.4066 100.499 56.7169 107.769 58.0611L108.43 58.1861C112.604 58.9813 115.822 59.8674 115.586 62.3515C115.4 63.9003 113.643 66.1383 108.377 66.1383C103.633 66.1383 101.345 64.2714 100.654 61.4881H90.4621C91.1945 69.9742 96.6663 74.363 108.544 74.363C120.717 74.363 125.54 67.8271 125.578 61.7494C128.507 69.3611 135.83 74.3881 144 74.3971C153.142 74.3971 160.2 68.77 162.454 61.1436H152.538C150.554 64.1237 148.065 65.5134 143.587 65.5134ZM143.928 41.479C148.584 41.479 151.897 44.3267 153.836 49.8099H133.406C135.413 44.4554 139.204 41.4866 143.928 41.4866V41.479Z" fill="white"/>
</svg>
