<svg width="201" height="91" viewBox="0 0 201 91" fill="none" xmlns="http://www.w3.org/2000/svg">
<path d="M172.88 9.29688V68.286H152.898V39.2464C148.404 45.6111 139.174 61.8454 139.174 61.8454L116.442 26.3203L108.814 37.4252L127.425 68.286H104.237C104.237 68.286 99.4068 59.011 96.9084 54.4486C94.3437 58.9735 89.4492 68.286 89.4492 68.286H66.2508C72.4788 57.9705 85.1695 37.573 85.1695 37.573L77.3834 26.0131H49.4776V33.0108H69.616V49.1344H49.4776V68.286H28.8799V9.29688H89.2807L96.9084 22.223L104.237 9.29688H126.204C130.829 15.7836 134.65 23.0683 139.174 29.6655C143.536 22.9764 147.543 15.953 151.932 9.29688H172.88Z" fill="black"/>
<path fill-rule="evenodd" clip-rule="evenodd" d="M28.8799 71.4414V82.9175H30.2876V77.7013H35.2696V76.334H30.2876V72.7723H36.0275V71.4414H28.8799Z" fill="black"/>
<path fill-rule="evenodd" clip-rule="evenodd" d="M36.7852 82.9175L40.9004 76.946L37.2543 71.4414H38.9509L40.8642 74.3916C41.2614 74.9672 41.5503 75.4708 41.7307 75.7944C41.9471 75.3629 42.236 74.931 42.5609 74.4636L44.6908 71.4414H46.2071L42.489 76.8382L46.4958 82.9173H44.763L42.0918 78.8162C41.9473 78.5643 41.8031 78.3125 41.6224 78.0608C41.406 78.4566 41.2255 78.7447 41.1171 78.9238L38.4819 82.9173H36.7852V82.9175Z" fill="black"/>
<path fill-rule="evenodd" clip-rule="evenodd" d="M51.8027 82.9175V71.4414H53.9326L56.4233 79.5716C56.6758 80.3281 56.8204 80.8668 56.9288 81.2626C57.0731 80.8317 57.2534 80.2192 57.5064 79.4287L60.0332 71.4414H61.9467V82.9175H60.5746V73.3122L57.5064 82.9175H56.243L53.1745 73.1321V82.9175H51.8027Z" fill="black"/>
<path fill-rule="evenodd" clip-rule="evenodd" d="M65.2318 77.3411C65.2318 78.7441 65.5568 79.8227 66.2429 80.6143C66.9647 81.4062 67.7949 81.8019 68.8419 81.8019C69.8886 81.8019 70.7552 81.4061 71.441 80.6143C72.127 79.7875 72.488 78.6716 72.488 77.1608C72.488 76.2257 72.3434 75.4341 72.0547 74.7147C71.7297 74.031 71.3328 73.4915 70.7552 73.0957C70.2135 72.7358 69.5641 72.5199 68.8781 72.5199C67.8672 72.5199 67.0369 72.9158 66.3149 73.6352C65.593 74.3909 65.2318 75.6141 65.2318 77.3411ZM63.7881 77.3048C63.7881 75.3979 64.2572 73.9229 65.1958 72.8436C66.1346 71.7644 67.3619 71.2246 68.8781 71.2246C69.8528 71.2246 70.7192 71.4768 71.5133 71.9803C72.3073 72.4839 72.8851 73.2035 73.3181 74.103C73.7154 75.0026 73.9319 76.0456 73.9319 77.1971C73.9319 78.3484 73.7154 79.3919 73.282 80.3276C72.849 81.2271 72.2353 81.9098 71.4408 82.4132C70.6468 82.8817 69.7804 83.0972 68.8418 83.0972C67.867 83.0972 66.9646 82.8455 66.1704 82.3418C65.376 81.8019 64.7985 81.083 64.4015 80.1835C64.0045 79.284 63.7881 78.3119 63.7881 77.3048Z" fill="black"/>
<path fill-rule="evenodd" clip-rule="evenodd" d="M78.7695 82.9175L74.6543 71.4414H76.1705L78.9137 79.7882C79.1305 80.4359 79.3108 81.0835 79.4915 81.6585C79.6358 81.0109 79.8161 80.3996 80.033 79.7882L82.9208 71.4414H84.3285L80.1771 82.9175H78.7695Z" fill="black"/>
<path fill-rule="evenodd" clip-rule="evenodd" d="M85.8438 71.4414H87.2518V82.9175H85.8438V71.4414Z" fill="black"/>
<path fill-rule="evenodd" clip-rule="evenodd" d="M89.7432 82.9175V71.4414H97.4325V72.7723H91.151V76.2981H97.0352V77.6651H91.151V81.5508H97.6489V82.9175H89.7432Z" fill="black"/>
<path fill-rule="evenodd" clip-rule="evenodd" d="M111.294 78.8883L112.702 79.2841C112.377 80.5068 111.872 81.4788 111.114 82.1263C110.319 82.773 109.417 83.0974 108.298 83.0974C107.143 83.0974 106.24 82.8456 105.519 82.3419C104.797 81.8385 104.255 81.1182 103.858 80.1472C103.497 79.2115 103.316 78.168 103.316 77.0894C103.316 75.9019 103.533 74.8585 103.93 73.9589C104.363 73.0594 104.977 72.3762 105.735 71.9083C106.529 71.4768 107.395 71.2246 108.334 71.2246C109.381 71.2246 110.284 71.5128 111.005 72.1241C111.727 72.6996 112.233 73.5273 112.522 74.5706L111.114 74.9305C110.861 74.103 110.536 73.4915 110.067 73.0957C109.597 72.7358 108.984 72.5199 108.298 72.5199C107.467 72.5199 106.782 72.7358 106.24 73.1678C105.699 73.5992 105.302 74.1752 105.085 74.8585C104.869 75.5782 104.76 76.3333 104.76 77.0894C104.76 78.0604 104.905 78.8883 105.157 79.6437C105.41 80.3627 105.844 80.9025 106.385 81.2621C106.926 81.6218 107.54 81.802 108.19 81.802C108.984 81.802 109.634 81.5503 110.175 81.083C110.717 80.5793 111.078 79.859 111.294 78.8883Z" fill="black"/>
<path fill-rule="evenodd" clip-rule="evenodd" d="M114.471 82.9175V71.4414H115.878V76.1543H121.366V71.4414H122.773V82.9175H121.366V77.4857H115.878V82.9175H114.471Z" fill="black"/>
<path fill-rule="evenodd" clip-rule="evenodd" d="M127.034 78.205H130.607L129.488 75.0031C129.163 74.0675 128.911 73.2403 128.766 72.6285C128.622 73.384 128.441 74.1036 128.189 74.823L127.034 78.205ZM123.965 82.9175L128.044 71.4414H129.524L133.892 82.9175H132.268L131.041 79.4287H126.601L125.445 82.9175H123.965Z" fill="black"/>
<path fill-rule="evenodd" clip-rule="evenodd" d="M135.012 82.9175V71.4414H136.456L142.015 80.4359V71.4414H143.351V82.9175H141.907L136.347 73.8879V82.9175H135.012Z" fill="black"/>
<path fill-rule="evenodd" clip-rule="evenodd" d="M145.697 82.9175V71.4414H147.141L152.701 80.4359V71.4414H154.072V82.9175H152.629L147.033 73.8879V82.9175H145.697Z" fill="black"/>
<path fill-rule="evenodd" clip-rule="evenodd" d="M156.455 82.9175V71.4414H164.108V72.7723H157.863V76.2981H163.711V77.6651H157.863V81.5508H164.361V82.9175H156.455Z" fill="black"/>
<path fill-rule="evenodd" clip-rule="evenodd" d="M166.237 82.9175V71.4414H167.645V81.5508H172.88V82.9175H166.237Z" fill="black"/>
</svg>
