<svg width="201" height="90" viewBox="0 0 201 90" fill="none" xmlns="http://www.w3.org/2000/svg">
<path d="M135.256 17.9179C133.484 17.9179 131.753 17.3926 130.28 16.4083C128.807 15.4241 127.659 14.0253 126.981 12.3886C126.303 10.7519 126.125 8.95096 126.471 7.21347C126.817 5.47599 127.67 3.88001 128.922 2.62735C130.175 1.37469 131.771 0.521623 133.508 0.176016C135.246 -0.169591 137.047 0.00778693 138.684 0.68572C140.32 1.36365 141.719 2.51169 142.703 3.98466C143.687 5.45763 144.213 7.18937 144.213 8.96089C144.21 11.3357 143.266 13.6125 141.587 15.2918C139.907 16.971 137.631 17.9155 135.256 17.9179Z" fill="#174937"/>
<path d="M127.118 71.6686V36.7418H117.505L122.287 23.3652H143.733V71.6686H127.118Z" fill="#174937"/>
<path d="M156.932 81.7977V72.1796C155.161 72.1805 153.428 71.6559 151.955 70.6723C150.481 69.6886 149.332 68.29 148.654 66.6534C147.975 65.0168 147.797 63.2158 148.142 61.478C148.487 59.7402 149.34 58.1438 150.593 56.8907C151.845 55.6376 153.441 54.784 155.179 54.4381C156.916 54.0921 158.717 54.2692 160.354 54.947C161.991 55.6248 163.39 56.7728 164.375 58.2459C165.359 59.719 165.885 61.4509 165.885 63.2226C165.869 64.2094 165.716 65.1893 165.432 66.1343C165.056 67.3615 160.6 79.4294 159.726 81.7977H156.932Z" fill="#5DAF89"/>
<path d="M80.0288 89.9992L75.5685 77.4694H76.0575C79.7934 77.3607 82.7186 75.6581 84.3081 72.6558L84.4303 72.4203L66.8379 23.3652H82.5511L92.3639 50.4988L102.177 23.3652H117.89L100.451 71.9811C96.2537 84.2437 90.7337 89.3018 80.7986 90.0037L80.0288 89.9992Z" fill="#174937"/>
<path d="M56.5448 23.3694V19.1174C56.5448 14.7385 58.2384 12.5151 62.9433 12.5151H65.3025L61.3448 0.433594H58.6504C45.9214 0.433594 39.9531 6.11661 39.9531 17.4057V23.3559H32.8799V36.6736H39.9259V71.6547H56.5403V36.7143H67.1954L62.418 23.3513L56.5448 23.3694Z" fill="#174937"/>
<path d="M164.875 55.2041V54.8555H166.65V55.2041H165.971V56.9385H165.554V55.2041H164.875ZM167.592 54.8555L168.126 56.3453L168.661 54.8555H169.254V56.9385H168.869V55.2811L168.294 56.9611H167.959L167.388 55.2811V56.9611H167.003V54.8781L167.592 54.8555Z" fill="#5DAF89"/>
</svg>
