<svg width="201" height="91" viewBox="0 0 201 91" fill="none" xmlns="http://www.w3.org/2000/svg">
<path d="M169.672 28.1282C169.672 26.1321 170.262 24.1812 171.367 22.5237C172.472 20.8663 174.042 19.5773 175.877 18.8207C177.711 18.0642 179.728 17.8744 181.67 18.2754C183.613 18.6764 185.392 19.6502 186.783 21.0727C188.174 22.4952 189.113 24.3022 189.481 26.2637C189.849 28.2253 189.629 30.2526 188.848 32.0877C188.068 33.9228 186.763 35.4827 185.1 36.5689C183.437 37.6551 181.49 38.2185 179.507 38.1874C176.886 38.1426 174.386 37.0635 172.547 35.1823C170.708 33.3011 169.675 30.768 169.672 28.1282ZM181.634 30.1505H182.077C182.7 30.1505 183.324 30.1505 183.944 30.1331C184.28 30.1454 184.61 30.0367 184.874 29.8265C185.138 29.6163 185.319 29.3183 185.384 28.986C185.463 28.6326 185.493 28.2702 185.474 27.9086C185.395 26.6429 184.858 26.1652 183.594 26.1652H181.713C181.713 25.9839 181.693 25.8479 181.693 25.712C181.693 25.0878 181.693 24.4602 181.693 23.8361C181.706 23.4831 181.586 23.138 181.356 22.8708C181.127 22.6035 180.805 22.4338 180.456 22.3961C180.007 22.323 179.55 22.3125 179.099 22.3647C178.167 22.4833 177.713 23.0342 177.713 23.9756C177.713 24.6938 177.713 25.4121 177.713 26.1652C176.979 26.1652 176.328 26.1338 175.656 26.1652C175.293 26.1781 174.937 26.276 174.617 26.4511C173.658 27.0578 173.679 29.2858 174.655 29.8646C175.012 30.0428 175.404 30.1359 175.802 30.1366C176.442 30.1784 177.09 30.1366 177.772 30.1366C177.772 30.3667 177.772 30.5445 177.772 30.7258C177.772 31.3639 177.772 32.0055 177.814 32.6435C177.827 32.9402 177.94 33.2236 178.134 33.4467C178.329 33.6699 178.593 33.8195 178.884 33.8709C179.357 33.9637 179.842 33.9836 180.321 33.9301C180.506 33.9248 180.689 33.8822 180.857 33.8046C181.026 33.7271 181.177 33.6163 181.303 33.4788C181.428 33.3412 181.525 33.1798 181.587 33.004C181.649 32.8282 181.676 32.6416 181.665 32.4553C181.665 31.7196 181.623 30.9664 181.623 30.1505H181.634Z" fill="black"/>
<path d="M150.129 58.568C146.909 58.568 143.762 57.6069 141.086 55.8062C138.409 54.0055 136.323 51.4462 135.091 48.4517C133.859 45.4573 133.536 42.1623 134.164 38.9834C134.792 35.8046 136.343 32.8846 138.619 30.5928C140.895 28.3009 143.796 26.7402 146.953 26.1079C150.11 25.4755 153.383 25.8001 156.357 27.0404C159.332 28.2807 161.874 30.3812 163.662 33.0761C165.451 35.771 166.405 38.9393 166.405 42.1805V46.511H143.767C144.471 47.5569 145.419 48.4133 146.528 49.0052C147.637 49.5972 148.873 49.9068 150.129 49.907C151.784 49.907 154.09 49.907 155.424 48.9063L159.822 55.3463C157.022 57.4502 153.619 58.583 150.125 58.575M143.763 37.843H156.473C155.77 36.7975 154.823 35.9413 153.715 35.3495C152.607 34.7576 151.372 34.4482 150.118 34.4482C148.864 34.4482 147.629 34.7576 146.521 35.3495C145.413 35.9413 144.466 36.7975 143.763 37.843Z" fill="#FAAF41"/>
<path d="M43.4628 62.5539C40.5918 60.957 36.6161 60.9047 32.4083 60.835C28.8135 60.7896 23.404 60.7095 21.946 59.1125C21.435 58.5022 21.1716 57.7203 21.2084 56.9229C21.2084 55.3469 22.1434 54.1823 23.1755 53.3804C24.6542 55.0391 26.4534 56.3766 28.4632 57.3112C30.4729 58.2459 32.6509 58.7579 34.8639 58.8161C37.0769 58.8742 39.2785 58.4773 41.3339 57.6495C43.3893 56.8217 45.2555 55.5805 46.8181 54.0017C48.3808 52.423 49.6072 50.5399 50.4222 48.4677C51.2373 46.3954 51.6239 44.1776 51.5585 41.9497C51.493 39.7219 50.9769 37.5309 50.0416 35.5107C49.1064 33.4906 47.7716 31.6838 46.119 30.2008L51.1649 29.0397L49.1666 22.6172L38.6247 26.1911C37.4447 25.9169 36.2375 25.7789 35.0265 25.7796C32.4934 25.7784 29.995 26.3724 27.7301 27.5143C25.4651 28.6563 23.4962 30.3147 21.9799 32.3576C20.4636 34.4005 19.4418 36.7715 18.9958 39.282C18.5499 41.7924 18.692 44.373 19.411 46.8184C16.2941 48.4328 13.2916 51.3511 12.9279 56.1907C12.6578 59.7646 13.5513 62.7108 15.5911 64.9598C19.5391 69.3147 26.3096 69.4123 32.2802 69.4925C34.6109 69.5239 37.8213 69.0741 39.2273 70.0817C41.2671 71.5427 40.9381 74.0845 40.9381 74.0845L48.1658 74.0252C48.2662 73.1675 48.9207 65.5455 43.4628 62.5191M35.0265 34.4406C36.545 34.4399 38.0296 34.8926 39.2926 35.7414C40.5556 36.5902 41.5403 37.7971 42.122 39.2093C42.7038 40.6215 42.8565 42.1757 42.5609 43.6753C42.2654 45.1749 41.5347 46.5526 40.4614 47.6341C39.3882 48.7157 38.0204 49.4525 36.5312 49.7514C35.042 50.0504 33.4981 49.898 32.0949 49.3136C30.6917 48.7292 29.4922 47.7389 28.6479 46.4681C27.8037 45.1973 27.3527 43.703 27.352 42.1741C27.353 40.1245 28.1616 38.1591 29.6004 36.7092C31.0393 35.2593 32.9907 34.4434 35.0265 34.4406Z" fill="#FAAF41"/>
<path d="M69.0279 25.7734C66.556 25.7782 64.1176 26.3498 61.8978 27.4448C59.6779 28.5397 57.735 30.1294 56.2163 32.0931C54.6976 34.0567 53.6431 36.3429 53.1328 38.778C52.6225 41.2132 52.6698 43.7333 53.2712 46.1473C53.8725 48.5613 55.012 50.8057 56.6033 52.7102C58.1946 54.6147 60.1958 56.1293 62.4552 57.139C64.7146 58.1488 67.1727 58.6272 69.643 58.5379C72.1134 58.4486 74.5311 57.794 76.7127 56.6238V57.9836H85.3187V42.1645C85.3114 37.8205 83.5942 33.6565 80.5433 30.5849C77.4923 27.5132 73.3565 25.7843 69.0418 25.7769M69.0418 49.9015C67.5237 49.9001 66.0401 49.4456 64.7785 48.5956C63.5168 47.7455 62.5338 46.538 61.9536 45.1256C61.3735 43.7132 61.2222 42.1593 61.519 40.6604C61.8157 39.1615 62.5472 37.7847 63.6209 36.7042C64.6946 35.6237 66.0623 34.8879 67.5513 34.5898C69.0402 34.2917 70.5835 34.4447 71.9861 35.0295C73.3887 35.6142 74.5877 36.6045 75.4314 37.875C76.2752 39.1456 76.7259 40.6395 76.7266 42.1679C76.7238 44.2187 75.9132 46.1847 74.4725 47.6345C73.0318 49.0843 71.0788 49.8996 69.0418 49.9015Z" fill="#FAAF41"/>
<path d="M128.637 29.6166C127.058 27.8733 124.111 25.7812 119.141 25.7812C114.874 25.7812 112.069 27.3154 110.32 28.8426C108.609 27.3084 105.856 25.7812 101.617 25.7812C96.644 25.7812 93.6519 27.8524 91.9999 29.5957C88.3047 33.5008 88.2666 38.8703 88.3047 39.9547V58.1309H96.9107V39.8048V39.6897C96.8934 38.9505 97.0908 36.7469 98.2648 35.5301C98.528 35.2546 99.3245 34.4318 101.624 34.4318C103.809 34.4318 104.505 35.1884 104.741 35.4394C105.589 36.3529 105.828 37.9185 105.87 38.8599L105.853 39.9443V58.1309H114.438V40.0244L114.462 39.0517C114.549 38.0719 114.86 36.4924 115.789 35.5301C116.055 35.2581 116.848 34.4318 119.137 34.4318C121.33 34.4318 122.029 35.1884 122.254 35.4394C123.321 36.597 123.418 38.8215 123.376 39.4701L123.356 58.1239H131.962V40.0244C132.045 38.7204 132.121 33.4729 128.623 29.6166" fill="#FAAF41"/>
</svg>
