<svg width="201" height="91" viewBox="0 0 201 91" fill="none" xmlns="http://www.w3.org/2000/svg">
<path d="M186.232 33.858C189.982 57.9157 156.29 82.4349 109.328 88.4349C62.4821 94.4349 19.4436 78.858 16.3282 55.5503C13.0975 31.4349 42.9244 9.33879 92.5398 2.24264C107.482 0.0503304 131.597 0.915715 144.232 2.41571C171.059 5.76187 183.694 17.4734 186.232 33.858Z" fill="url(#paint0_linear_2048_37869)"/>
<path d="M115.386 0.916767C126.174 0.916767 137.02 1.55138 144.174 2.41677C171.059 5.70523 183.636 17.4745 186.232 33.8591C189.982 57.9168 156.29 82.436 109.328 88.436C102.52 89.3014 95.7126 89.7052 89.1934 89.7052C50.7703 89.7052 18.9819 75.4552 16.328 55.5514C13.0973 31.436 42.9242 9.33984 92.5396 2.24369C99.0011 1.26292 107.193 0.916767 115.386 0.916767ZM115.386 0.339844C106.328 0.339844 98.4242 0.801382 92.4819 1.66677C68.3088 5.12831 48.1742 12.2245 34.328 22.0898C27.578 26.8206 22.5588 32.1283 19.3857 37.7822C16.1549 43.5514 14.9434 49.5514 15.7511 55.6668C17.078 65.4168 25.328 74.3014 39.1165 80.6475C52.6165 86.8783 70.3857 90.3398 89.2511 90.3398C95.9434 90.3398 102.751 89.8783 109.501 89.0706C140.886 85.0898 168.059 72.3975 180.347 56.0129C185.77 48.8014 188.02 41.186 186.866 33.8591C185.54 25.2052 181.443 18.1668 174.751 12.8591C167.597 7.20523 157.386 3.51292 144.347 1.89754C136.616 0.916767 125.54 0.339844 115.386 0.339844Z" fill="url(#paint1_linear_2048_37869)"/>
<mask id="mask0_2048_37869" style="mask-type:luminance" maskUnits="userSpaceOnUse" x="15" y="0" width="173" height="91">
<path d="M115.386 0.916767C126.174 0.916767 137.02 1.55138 144.174 2.41677C171.059 5.70523 183.636 17.4745 186.232 33.8591C189.982 57.9168 156.29 82.436 109.328 88.436C102.52 89.3014 95.7126 89.7052 89.1934 89.7052C50.7703 89.7052 18.9819 75.4552 16.328 55.5514C13.0973 31.436 42.9242 9.33984 92.5396 2.24369C99.0011 1.26292 107.193 0.916767 115.386 0.916767ZM115.386 0.339844C106.328 0.339844 98.4242 0.801382 92.4819 1.66677C68.3088 5.12831 48.1742 12.2245 34.328 22.0898C27.578 26.8206 22.5588 32.1283 19.3857 37.7822C16.1549 43.5514 14.9434 49.5514 15.7511 55.6668C17.078 65.4168 25.328 74.3014 39.1165 80.6475C52.6165 86.8783 70.3857 90.3398 89.2511 90.3398C95.9434 90.3398 102.751 89.8783 109.501 89.0706C140.886 85.0898 168.059 72.3975 180.347 56.0129C185.77 48.8014 188.02 41.186 186.866 33.8591C185.54 25.2052 181.443 18.1668 174.751 12.8591C167.597 7.20523 157.386 3.51292 144.347 1.89754C136.616 0.916767 125.54 0.339844 115.386 0.339844Z" fill="white"/>
</mask>
<g mask="url(#mask0_2048_37869)">
<path d="M126.059 1.95523C132.117 1.95523 137.771 2.24369 142.155 2.82061C161.194 5.41677 180.405 17.8783 182.655 33.6283C185.944 56.2437 153.059 79.2052 110.655 84.3398C102.694 85.2629 95.0783 85.7245 87.809 85.7245C50.7129 85.7245 24.1167 73.7821 21.636 55.1475C18.5783 32.0706 47.0783 10.9552 94.559 4.08984C103.617 2.76292 115.501 1.95523 126.059 1.95523ZM126.059 1.08984C115.501 1.08984 103.674 1.89754 94.4437 3.22446C71.2514 6.57061 51.9821 13.3206 38.6552 22.7822C32.1937 27.3975 27.3475 32.4745 24.2898 37.8975C21.1744 43.4937 19.9629 49.3206 20.7706 55.2052C22.0398 64.6091 29.136 72.5706 41.3667 78.1668C53.309 83.6475 69.4052 86.5321 87.809 86.5321C95.1937 86.5321 102.924 86.0706 110.771 85.0898C125.136 83.3591 138.982 79.4937 150.809 73.9552C162.348 68.5321 171.463 61.7245 177.174 54.2245C182.367 47.4745 184.559 40.2629 183.578 33.3975C182.482 25.8398 177.405 18.3975 169.271 12.5129C161.655 6.97446 152.078 3.22446 142.328 1.89754C138.059 1.37831 132.463 1.08984 126.059 1.08984ZM153.578 75.2821C154.617 81.2245 133.674 89.8783 106.79 94.5514C79.9052 99.2822 57.2898 98.2437 56.2514 92.3014C55.2129 86.3591 76.1552 77.7052 103.04 73.0321C129.924 68.3591 152.54 69.3398 153.578 75.2821Z" fill="url(#paint2_radial_2048_37869)"/>
</g>
<path d="M182.655 33.5724C185.943 56.1878 153.059 79.1493 110.655 84.2839C62.0204 90.1109 24.5781 77.3609 21.6358 55.0916C18.5781 32.0147 47.0781 10.8993 94.5588 4.03395C108.867 1.95702 130.155 1.14933 142.155 2.76471C161.193 5.41856 180.405 17.8801 182.655 33.5724Z" fill="url(#paint3_radial_2048_37869)"/>
<path opacity="0.5" d="M141.982 4.4351C157.616 4.4351 157.328 6.10817 157.328 6.10817C157.328 6.10817 161.886 9.10817 161.309 9.10817C156.116 9.10817 138.001 7.14663 111.636 11.3582C93.9241 14.1851 77.7702 22.6659 68.3087 30.5697C68.3087 30.5697 78.5779 27.6851 93.5779 27.6851C96.8087 27.6851 100.27 27.8005 103.905 28.1466C118.27 29.4736 133.847 31.0313 146.366 39.1659C146.366 39.1659 152.193 44.2428 152.77 49.5505C152.77 49.5505 153.924 59.3582 148.674 63.1659C148.674 63.1659 144.463 70.6659 127.616 76.8966C127.616 76.8966 112.443 82.4928 89.1933 82.4928C74.7702 82.4928 57.9818 79.7236 38.4818 71.4159C38.4818 71.4159 12.2895 60.3966 27.1164 39.3389C27.1164 39.3389 41.0202 10.1466 115.732 5.1274C123.232 4.55048 132.866 4.4351 141.982 4.4351ZM141.982 3.28125C131.136 3.28125 122.251 3.51202 115.674 3.97356C98.5395 5.1274 83.1933 7.66586 70.0395 11.4736C59.4818 14.5312 50.3087 18.4543 42.8087 23.1274C30.4626 30.6851 26.5972 37.7236 26.1356 38.6466C21.8664 44.762 20.4241 50.8197 21.9241 56.5889C24.751 67.4928 36.9818 73.3774 37.501 73.6659C54.5779 80.9351 72.1164 84.6274 89.5972 84.6274C112.501 84.6274 126.982 78.3389 128.02 77.8774C143.655 72.1082 148.616 65.2428 149.482 63.8582C154.963 59.5889 153.924 49.7236 153.866 49.3197C153.232 43.6082 147.347 38.4159 147.116 38.1851L147.059 38.1274L147.001 38.0697C134.02 29.5889 117.405 28.0889 104.02 26.8774C100.559 26.5889 97.0395 26.4159 93.5779 26.4159C84.9818 26.4159 77.9433 27.3389 73.4433 28.1466C82.7318 22.1466 96.6933 17.3582 112.039 14.9351C130.501 11.9928 152.539 10.6659 164.366 10.3197L162.001 8.70433C161.943 8.70433 157.386 3.28125 141.982 3.28125Z" fill="url(#paint4_linear_2048_37869)"/>
<path d="M126.059 1.95523C132.117 1.95523 137.771 2.24369 142.155 2.82061C161.194 5.41677 180.405 17.8783 182.655 33.6283C185.944 56.2437 153.059 79.2052 110.655 84.3398C102.694 85.2629 95.0783 85.7245 87.809 85.7245C50.7129 85.7245 24.1167 73.7821 21.636 55.1475C18.5783 32.0706 47.0783 10.9552 94.559 4.08984C103.617 2.76292 115.501 1.95523 126.059 1.95523ZM126.059 1.08984C115.501 1.08984 103.674 1.89754 94.4437 3.22446C71.2514 6.57061 51.9821 13.3206 38.6552 22.7822C32.1937 27.3975 27.3475 32.4745 24.2898 37.8975C21.1744 43.4937 19.9629 49.3206 20.7706 55.2052C22.0398 64.6091 29.136 72.5706 41.3667 78.1668C53.309 83.6475 69.4052 86.5321 87.809 86.5321C95.1937 86.5321 102.924 86.0706 110.771 85.0898C125.136 83.3591 138.982 79.4937 150.809 73.9552C162.348 68.5321 171.463 61.7245 177.174 54.2245C182.367 47.4745 184.559 40.2629 183.578 33.3975C182.482 25.8398 177.405 18.3975 169.271 12.5129C161.655 6.97446 152.078 3.22446 142.328 1.89754C138.059 1.37831 132.463 1.08984 126.059 1.08984Z" fill="url(#paint5_linear_2048_37869)"/>
<path d="M143.021 3.05228C158.655 3.05228 172.848 3.51382 172.848 3.51382V8.07151C172.848 8.07151 172.559 8.07151 171.982 8.07151C166.79 8.07151 139.271 8.30228 112.905 12.4561C95.1939 15.2831 78.8093 21.2831 69.3478 29.1292C69.3478 29.1292 79.617 26.2446 94.617 26.2446C97.8478 26.2446 101.309 26.36 104.944 26.7061C119.309 28.0331 134.886 29.5907 147.405 37.7254C147.405 37.7254 153.232 42.8023 153.809 48.11C153.809 48.11 154.963 57.9177 149.713 61.7254C149.713 61.7254 145.502 69.2254 128.655 75.4561C128.655 75.4561 113.944 82.1484 90.6362 82.1484C76.2131 82.1484 58.5016 79.61 39.0016 71.3023C39.0016 71.3023 13.2708 59.0138 28.1555 37.9561C28.1555 37.9561 42.0593 8.76382 116.771 3.74459C124.271 3.16767 133.905 3.05228 143.021 3.05228ZM143.021 1.89844C132.175 1.89844 123.29 2.12921 116.713 2.59075C99.5785 3.74459 84.2324 6.28305 71.0785 10.0907C60.5208 13.0907 51.3478 17.0138 43.8478 21.6869C31.5016 29.3023 27.6362 36.3407 27.1747 37.2638C22.9055 43.3792 21.4632 49.4369 22.9632 55.2061C25.7901 66.11 38.0208 71.9946 38.5401 72.2831C55.617 79.5523 73.1555 83.2446 90.6362 83.2446C113.54 83.2446 128.021 76.9561 129.059 76.4946C144.694 70.7254 149.655 63.86 150.521 62.4754C156.002 58.2061 154.963 48.3407 154.905 47.9369C154.271 42.2254 148.386 37.0331 148.155 36.8023L148.098 36.7446L148.04 36.6869C135.059 28.2061 118.444 26.7061 105.059 25.4946C101.598 25.2061 98.0785 25.0331 94.617 25.0331C86.0208 25.0331 78.9824 25.9561 74.4824 26.7638C83.7708 20.7638 97.7324 15.9754 113.079 13.5523C139.329 9.39844 166.79 9.16767 171.982 9.16767C172.559 9.16767 172.848 9.16767 172.848 9.16767H174.002V8.01382V3.51382V2.35998L172.905 2.30228C172.732 2.35998 158.425 1.89844 143.021 1.89844Z" fill="url(#paint6_linear_2048_37869)"/>
<path d="M87.0012 32.9956C95.0204 32.9956 103.328 34.6687 111.867 37.9572C112.617 38.4187 118.905 42.1687 122.02 46.2072L122.078 46.3226L122.193 46.3803C122.482 46.611 128.943 52.1495 123.117 61.3226L115.04 67.8418C114.982 67.8995 110.943 71.1303 109.04 72.1687C108.059 72.5149 98.0781 75.688 86.8281 75.688C77.7127 75.688 70.2127 73.6687 64.5589 69.6303H64.5012H64.4435C64.3858 69.6303 60.1743 67.0341 56.8858 62.8803C52.6743 57.6303 51.9243 52.3803 54.6358 47.361C54.9243 46.8995 58.155 42.1687 62.5396 39.3418C62.7127 39.2264 71.655 32.9956 87.0012 32.9956ZM87.0012 31.8418C71.0204 31.8418 61.905 38.361 61.905 38.361C57.0589 41.4764 53.5973 46.7264 53.5973 46.7264C46.3281 59.9956 63.8089 70.5533 63.8089 70.5533C70.6166 75.3995 78.9819 76.8418 86.7704 76.8418C98.9435 76.8418 109.443 73.2072 109.443 73.2072C111.463 72.1687 115.732 68.7072 115.732 68.7072L123.924 62.0726C130.617 51.8033 122.886 45.4572 122.886 45.4572C119.367 40.9572 112.328 36.861 112.328 36.861C102.636 33.1687 94.0973 31.8418 87.0012 31.8418Z" fill="url(#paint7_linear_2048_37869)"/>
<path d="M116.77 3.68909C42.0588 8.70832 28.1549 37.9006 28.1549 37.9006C13.2703 59.016 39.0011 71.2468 39.0011 71.2468C89.9434 92.9391 128.597 75.4583 128.597 75.4583C145.443 69.2852 149.655 61.7275 149.655 61.7275C154.905 57.9199 153.751 48.1122 153.751 48.1122C153.174 42.8045 147.347 37.7276 147.347 37.7276C134.886 29.5929 119.251 28.0352 104.886 26.7083C84.4049 24.8622 69.2895 29.1314 69.2895 29.1314C78.7511 21.2276 95.078 15.2852 112.847 12.4583C142.155 7.84294 172.79 8.07371 172.79 8.07371V3.51601C172.847 3.51601 137.136 2.30448 116.77 3.68909ZM112.328 36.9199C112.328 36.9199 119.366 41.016 122.886 45.516C122.886 45.516 130.616 51.8622 123.924 62.1314L115.732 68.766C115.732 68.766 111.463 72.1699 109.443 73.266C109.443 73.266 81.2318 82.9583 63.8088 70.6122C63.8088 70.6122 46.3857 60.0545 53.5972 46.7852C53.5972 46.7852 57.0011 41.5352 61.9049 38.4199C61.9049 38.3622 81.0011 24.7468 112.328 36.9199Z" fill="url(#paint8_linear_2048_37869)"/>
<path d="M49.1553 73.4298L44.4246 51.9683C43.0977 58.6606 40.2707 72.7952 40.2707 72.9683L40.1553 73.4298H26.2515L15.3477 35.8145H29.4246L34.04 58.6029L38.7707 35.8145H52.5015L56.9438 57.0452L61.2707 35.8145H74.4246L62.8284 73.4298H49.1553Z" fill="#243C96"/>
<path d="M73.6746 36.3902L62.4246 72.8517H49.6169L44.4246 49.1402C43.6169 53.2363 39.7515 72.8517 39.7515 72.8517H26.713L16.1553 36.3902H29.0207L34.0977 61.4863L39.29 36.3902H52.04L56.9438 59.9286L61.7323 36.3902H73.6746ZM75.2323 35.2363H73.6746H61.7323H60.8092L60.6361 36.1594L56.9438 54.2171L53.1938 36.1594L53.0207 35.2363H52.0977H39.2323H38.3092L38.1361 36.1594L34.0977 55.7171L30.1169 36.1594L29.9438 35.2363H29.0207H16.1553H14.5977L15.0015 36.7363L25.5592 73.1979L25.79 74.0056H26.713H39.7515H40.6746L40.8477 73.0825C40.9053 72.9094 43.04 62.0056 44.4823 54.794L48.5207 73.0825L48.6938 74.0056H49.6169H62.3669H63.2323L63.463 73.1979L74.713 36.7363L75.2323 35.2363Z" fill="white"/>
<path d="M98.4252 73.4301L98.2521 73.1994C97.5021 72.1609 96.2906 68.4109 96.1175 67.9494C94.906 63.3917 93.8098 60.2186 90.1175 60.1609H87.6944V73.4301H74.8867V36.3917L75.406 36.334C79.0406 35.8724 83.9444 35.584 88.8483 35.584C96.0021 35.584 100.041 36.2186 103.271 37.834C107.367 39.8532 109.502 42.9109 109.502 46.6609C109.502 50.8724 107.021 54.5071 103.214 56.1224C105.291 57.3917 106.502 59.8724 107.425 62.4109C108.117 64.1994 108.694 66.1032 109.271 67.7763C109.964 69.9686 110.598 71.8148 111.002 72.5648L111.521 73.4301H98.4252ZM90.4636 51.9109C94.329 51.9109 96.6944 50.4109 96.6944 47.9878C96.6944 44.9301 93.579 44.2378 90.9252 44.2378C89.656 44.2378 88.5021 44.2955 87.6367 44.4109V51.9109H90.4636Z" fill="#243C96"/>
<path d="M88.7904 36.1597C95.3673 36.1597 99.5789 36.6789 102.983 38.352C106.963 40.3712 108.867 43.2559 108.867 46.6597C108.867 51.3328 105.694 54.852 101.887 56.0059V56.1789C104.367 57.102 105.694 59.5828 106.848 62.6405C108.406 66.6789 109.617 71.5251 110.483 72.9097H98.6558C97.9058 71.8712 96.5789 67.8328 96.5789 67.8328C95.3673 63.2751 94.1558 59.6982 90.0596 59.6405H87.002V72.9097H75.3481V36.9097C78.6366 36.4482 83.4827 36.1597 88.7904 36.1597ZM87.1173 52.4866H90.5212C94.7904 52.4866 97.3289 50.7559 97.3289 47.9866C97.3289 45.102 94.9635 43.6597 90.9827 43.6597C88.9058 43.6597 87.6943 43.7751 87.0596 43.8905V52.4866M88.7904 35.0059C83.8289 35.0059 78.8673 35.2943 75.2327 35.7559L74.252 35.8712V36.9097V72.852V74.0059H75.4058H87.0596H88.2135V72.852V60.7366H90.1173C93.1173 60.7943 94.2135 63.102 95.5404 68.0636V68.1212V68.1789C95.7712 68.8712 96.9827 72.4482 97.7327 73.5443L98.0789 74.0059H98.6558H110.483H112.56L111.463 72.2751C111.06 71.5828 110.425 69.6789 109.79 67.602C109.271 65.8712 108.637 63.9674 107.944 62.1789C107.079 59.8712 106.04 57.6789 104.31 56.2366C107.829 54.3905 110.021 50.7559 110.021 46.6597C110.021 43.8905 108.867 40.0251 103.502 37.3712C100.156 35.6405 96.0596 35.0059 88.7904 35.0059ZM88.2712 44.9289C89.0789 44.8712 90.002 44.8136 91.0404 44.8136C94.4443 44.8712 96.2327 45.9097 96.2327 47.9866C96.2327 50.0636 94.0981 51.3328 90.5789 51.3328H88.3289V44.9289H88.2712Z" fill="white"/>
<path d="M129.752 74.4683C117.694 74.4683 111.06 68.1798 111.06 56.7568V35.8145H123.579V57.3914C123.579 60.9683 124.733 65.2375 130.098 65.2375C133.56 65.2375 137.713 63.8529 137.713 57.3914V35.8145H150.175V56.8721C150.117 67.8914 142.502 74.4683 129.752 74.4683Z" fill="#243C96"/>
<path d="M149.54 36.3902V56.8709C149.54 68.1209 141.348 73.8902 129.752 73.8902C118.559 73.8902 111.636 68.3517 111.636 56.7556V36.3902H123.002V57.3902C123.002 62.0633 124.963 65.8133 130.098 65.8133C134.656 65.8133 138.29 63.5056 138.29 57.3902V36.3902H149.54ZM150.694 35.2363H149.54H138.232H137.079V36.3902V57.3902C137.079 62.1786 134.713 64.6594 130.04 64.6594C127.329 64.6594 124.098 63.3902 124.098 57.3902V36.3902V35.2363H122.944H111.579H110.425V36.3902V56.6979C110.425 68.5248 117.29 74.9863 129.694 74.9863C135.809 74.9863 141.002 73.4286 144.694 70.4286C148.617 67.2556 150.636 62.5248 150.636 56.8133V36.3902V35.2363H150.694Z" fill="white"/>
<path d="M152.655 73.4298V35.8145H182.886V45.3337H165.578V50.526H181.79V60.3337H165.578V73.4298H152.655Z" fill="#243C96"/>
<path d="M182.309 36.3902V44.7556H165.001V51.1017H181.213V59.7556H165.001V72.8517H153.232V36.3902H182.309ZM183.463 35.2363H182.309H153.232H152.078V36.3902V72.8517V74.0056H153.232H165.001H166.155V72.8517V60.9094H181.213H182.367V59.7556V51.1017V49.9479H181.213H166.155V45.9094H182.309H183.463V44.7556V36.3902V35.2363Z" fill="white"/>
<path d="M26.713 72.86L16.1553 36.3984H29.0207L34.0976 61.4946L39.2899 36.3984H52.0399L56.9437 59.9369L61.7322 36.3984H73.6168L62.3668 72.86H49.6168L44.4245 49.1484C43.6168 53.2446 39.7514 72.86 39.7514 72.86H26.713Z" fill="#243C96" stroke="#1C3584" stroke-width="0.576923" stroke-miterlimit="10"/>
<path d="M75.4053 36.918C78.6361 36.5141 83.4246 36.168 88.79 36.168C95.3669 36.168 99.5784 36.6872 102.982 38.3603C106.963 40.3795 108.867 43.2641 108.867 46.668C108.867 51.341 105.694 54.8603 101.886 56.0141V56.1872C104.367 57.1103 105.694 59.591 106.848 62.6487C108.405 66.6872 109.617 71.5334 110.482 72.918H98.6553C97.9053 71.8795 96.5784 67.841 96.5784 67.841C95.3669 63.2834 94.1553 59.7064 90.0592 59.6487H87.0015V72.918H75.3477V36.918H75.4053ZM87.1169 52.4949H90.5207C94.79 52.4949 97.3284 50.7641 97.3284 47.9949C97.3284 45.1103 94.963 43.668 90.9823 43.668C88.9053 43.668 87.6938 43.7834 87.0592 43.8987V52.4949H87.1169Z" fill="#243C96" stroke="#1C3584" stroke-width="0.576923" stroke-miterlimit="10"/>
<path d="M122.943 36.3984V57.3984C122.943 62.0715 124.905 65.8215 130.04 65.8215C134.597 65.8215 138.232 63.5138 138.232 57.3984V36.3984H149.54V56.8792C149.54 68.1292 141.347 73.8984 129.751 73.8984C118.559 73.8984 111.636 68.36 111.636 56.7638V36.3984H122.943Z" fill="#243C96" stroke="#1C3584" stroke-width="0.576923" stroke-miterlimit="10"/>
<path d="M153.232 36.3984H182.309V44.7638H165.002V51.11H181.213V59.7638H165.002V72.86H153.232V36.3984Z" fill="#243C96" stroke="#1C3584" stroke-width="0.576923" stroke-miterlimit="10"/>
<defs>
<linearGradient id="paint0_linear_2048_37869" x1="98.5725" y1="101.935" x2="104.038" y2="-11.83" gradientUnits="userSpaceOnUse">
<stop offset="0.0858923" stop-color="white"/>
<stop offset="0.1786" stop-color="#C1C1C1"/>
<stop offset="0.2276" stop-color="#C3C3C3"/>
<stop offset="0.2549" stop-color="#CBCBCB"/>
<stop offset="0.2768" stop-color="#D7D8D9"/>
<stop offset="0.2874" stop-color="#E0E1E3"/>
<stop offset="0.4454" stop-color="#B5B6B8"/>
<stop offset="0.5445" stop-color="#B3B4B6"/>
<stop offset="0.5952" stop-color="#ABACAE"/>
<stop offset="0.6349" stop-color="#9E9FA1"/>
<stop offset="0.6689" stop-color="#8C8C8E"/>
<stop offset="0.6993" stop-color="#747475"/>
<stop offset="0.7271" stop-color="#565657"/>
<stop offset="0.7524" stop-color="#333434"/>
<stop offset="0.7609" stop-color="#262626"/>
<stop offset="0.7629" stop-color="#2B2C2C"/>
<stop offset="0.7786" stop-color="#525253"/>
<stop offset="0.7959" stop-color="#757576"/>
<stop offset="0.8147" stop-color="#919293"/>
<stop offset="0.8354" stop-color="#A9AAAB"/>
<stop offset="0.8588" stop-color="#BBBCBD"/>
<stop offset="0.8865" stop-color="#C8C8CA"/>
<stop offset="0.9228" stop-color="#CFD0D2"/>
<stop offset="1" stop-color="#D1D2D4"/>
</linearGradient>
<linearGradient id="paint1_linear_2048_37869" x1="15.5157" y1="45.3143" x2="187.117" y2="45.3143" gradientUnits="userSpaceOnUse">
<stop stop-color="#999EA2"/>
<stop offset="0.0861805" stop-color="#9BA0A4"/>
<stop offset="0.1342" stop-color="#A3A8AC"/>
<stop offset="0.1729" stop-color="#B1B5B8"/>
<stop offset="0.2064" stop-color="#C5C7CA"/>
<stop offset="0.2366" stop-color="#DEDFE1"/>
<stop offset="0.2388" stop-color="#E0E1E3"/>
<stop offset="0.7533" stop-color="#D1D2D4"/>
<stop offset="1" stop-color="#959698"/>
</linearGradient>
<radialGradient id="paint2_radial_2048_37869" cx="0" cy="0" r="1" gradientUnits="userSpaceOnUse" gradientTransform="translate(104.908 86.1583) scale(40.8119 8.92149)">
<stop stop-color="#E0E1E3" stop-opacity="0"/>
<stop offset="0.1508" stop-color="#F1F1F2" stop-opacity="0.2966"/>
<stop offset="0.3165" stop-color="#FCFCFC" stop-opacity="0.6224"/>
<stop offset="0.5085" stop-color="white"/>
<stop offset="0.6438" stop-color="#F9F9FA" stop-opacity="0.7247"/>
<stop offset="0.8203" stop-color="#E9E9EA" stop-opacity="0.3657"/>
<stop offset="1" stop-color="#D1D2D4" stop-opacity="0"/>
</radialGradient>
<radialGradient id="paint3_radial_2048_37869" cx="0" cy="0" r="1" gradientUnits="userSpaceOnUse" gradientTransform="translate(100.279 41.842) rotate(-0.309497) scale(96.4988 72.239)">
<stop offset="0.000505991" stop-color="#EF8E4A"/>
<stop offset="0.344" stop-color="#EF8C49"/>
<stop offset="0.4677" stop-color="#EF8548"/>
<stop offset="0.5559" stop-color="#EE7A44"/>
<stop offset="0.6272" stop-color="#EE6940"/>
<stop offset="0.6875" stop-color="#ED5339"/>
<stop offset="0.7407" stop-color="#EC3832"/>
<stop offset="0.7465" stop-color="#EC3531"/>
<stop offset="0.8977" stop-color="#CE3232"/>
</radialGradient>
<linearGradient id="paint4_linear_2048_37869" x1="26.9812" y1="70.7472" x2="167.654" y2="19.5463" gradientUnits="userSpaceOnUse">
<stop offset="0.0214742" stop-color="#360C0F"/>
<stop offset="0.1952" stop-color="#551315"/>
<stop offset="1" stop-color="#902C12"/>
</linearGradient>
<linearGradient id="paint5_linear_2048_37869" x1="20.5231" y1="43.8162" x2="183.764" y2="43.8162" gradientUnits="userSpaceOnUse">
<stop offset="0.000485751" stop-color="#AAB4B3"/>
<stop offset="0.0960557" stop-color="#A8B2B1"/>
<stop offset="0.1493" stop-color="#A1AAAA"/>
<stop offset="0.1922" stop-color="#959C9F"/>
<stop offset="0.2294" stop-color="#84888E"/>
<stop offset="0.2388" stop-color="#7F8289"/>
<stop offset="0.7491" stop-color="#A7A5A6"/>
<stop offset="1" stop-color="#A8B1B1"/>
</linearGradient>
<linearGradient id="paint6_linear_2048_37869" x1="28.0202" y1="69.3643" x2="178.44" y2="14.6161" gradientUnits="userSpaceOnUse">
<stop stop-color="#D8DCDE"/>
<stop offset="0.113" stop-color="#808387"/>
<stop offset="0.1694" stop-color="#828589"/>
<stop offset="0.2009" stop-color="#8A8D91"/>
<stop offset="0.2262" stop-color="#989B9F"/>
<stop offset="0.2482" stop-color="#ABAFB2"/>
<stop offset="0.2681" stop-color="#C4C8CB"/>
<stop offset="0.2863" stop-color="#E2E7E9"/>
<stop offset="0.2898" stop-color="#E9EEF0"/>
<stop offset="0.7533" stop-color="#A1A2A3"/>
<stop offset="0.9376" stop-color="#5F5F61"/>
<stop offset="1" stop-color="#5E6061"/>
</linearGradient>
<linearGradient id="paint7_linear_2048_37869" x1="51.8845" y1="54.3569" x2="126.67" y2="54.3569" gradientUnits="userSpaceOnUse">
<stop offset="0.1131" stop-color="#CCCDD0"/>
<stop offset="0.2754" stop-color="#A7A5A6"/>
<stop offset="0.5595" stop-color="#7F8289"/>
<stop offset="0.9989" stop-color="#F2F2F4"/>
<stop offset="0.9996" stop-color="#F0F0F1"/>
<stop offset="1" stop-color="#E9E9EA"/>
</linearGradient>
<linearGradient id="paint8_linear_2048_37869" x1="15.4568" y1="51.4806" x2="187.697" y2="35.1334" gradientUnits="userSpaceOnUse">
<stop offset="0.000505991" stop-color="#999EA2"/>
<stop offset="0.104" stop-color="#9BA0A4"/>
<stop offset="0.1618" stop-color="#A3A8AC"/>
<stop offset="0.2082" stop-color="#B1B5B8"/>
<stop offset="0.2484" stop-color="#C5C7CA"/>
<stop offset="0.2847" stop-color="#DEDFE1"/>
<stop offset="0.2874" stop-color="#E0E1E3"/>
<stop offset="0.4454" stop-color="#B5B6B8"/>
<stop offset="0.6069" stop-color="#D1D2D4"/>
<stop offset="0.7634" stop-color="#727375"/>
<stop offset="0.7873" stop-color="#606163"/>
<stop offset="0.8237" stop-color="#4D4D4F"/>
<stop offset="0.8651" stop-color="#3F3F41"/>
<stop offset="0.9155" stop-color="#363739"/>
<stop offset="1" stop-color="#343436"/>
</linearGradient>
</defs>
</svg>
