<svg width="201" height="91" viewBox="0 0 201 91" fill="none" xmlns="http://www.w3.org/2000/svg">
<path d="M129.019 20C129.556 20 130.069 20 130.569 20C138.715 20 146.848 20 154.993 20C157.607 20 160.147 20.4518 162.504 21.6119C166.204 23.4315 168.854 26.2036 169.55 30.3678C170.148 33.9458 169.77 37.4384 167.62 40.5279C166.582 42.03 165.166 43.1168 163.578 43.9839C163.395 44.0816 163.212 44.2037 162.968 44.3624C163.859 44.6921 164.665 44.9486 165.434 45.3027C169.99 47.4154 172.42 51.0178 172.835 56.0002C173.03 58.4181 172.603 60.7506 171.54 62.9243C169.99 66.1115 167.401 68.1753 164.177 69.5186C162.308 70.3002 160.354 70.752 158.339 70.9718C157.301 71.0817 156.251 71.1672 155.201 71.1672C146.75 71.1794 138.312 71.1794 129.861 71.1794C129.605 71.1794 129.336 71.1794 129.019 71.1794C129.019 54.1196 129.019 37.1209 129.019 20ZM139.948 61.3001C140.192 61.3245 140.351 61.349 140.51 61.349C144.125 61.349 147.752 61.41 151.366 61.3245C153.345 61.2757 155.335 61.0559 157.301 60.7506C158.694 60.543 160.037 59.9935 160.794 58.6746C161.734 57.0626 161.637 55.3286 161.148 53.5945C160.855 52.5443 160.147 51.7994 159.182 51.3109C157.265 50.3462 155.164 50.1508 153.076 50.1019C148.912 50.0043 144.735 50.0287 140.571 50.0042C140.363 50.0042 140.144 50.0531 139.948 50.0775C139.948 53.8509 139.948 57.5389 139.948 61.3001ZM139.851 40.6256C140.07 40.6501 140.29 40.6867 140.51 40.6867C144.088 40.6867 147.666 40.7355 151.244 40.6623C153.381 40.6134 155.421 40.1372 157.106 38.6718C159.194 36.8766 159.255 33.3596 157.179 31.5401C155.518 30.0869 153.491 29.6351 151.354 29.6351C147.691 29.6351 144.039 29.6839 140.376 29.7205C140.217 29.7205 140.058 29.7572 139.851 29.7694C139.851 33.3841 139.851 36.9621 139.851 40.6256Z" fill="#25235B"/>
<path d="M121.044 50.3941C112.91 50.3941 104.838 50.3941 96.7419 50.3941C96.7419 53.9599 96.7419 57.4403 96.7419 61.0061C106.084 61.0061 115.365 61.0061 124.707 61.0061C124.707 64.4132 124.707 67.7348 124.707 71.1174C111.592 71.1174 98.476 71.1174 85.3115 71.1174C85.3115 54.0576 85.3115 36.9856 85.3115 19.877C98.3172 19.877 111.311 19.877 124.341 19.877C124.341 23.1985 124.341 26.5079 124.341 29.9028C115.17 29.9028 105.999 29.9028 96.7541 29.9028C96.7541 33.3587 96.7541 36.7169 96.7541 40.1851C104.814 40.1851 112.898 40.1851 121.019 40.1851C121.044 43.6288 121.044 46.9504 121.044 50.3941Z" fill="#25235B"/>
<path d="M72.8799 33.2737C66.1634 36.2168 59.5445 39.1231 52.8401 42.0662C54.1346 44.997 55.3924 47.8668 56.6625 50.7732C60.1062 49.2711 63.4645 47.7935 66.9205 46.2792C67.9097 48.514 68.8622 50.6999 69.888 53.0323C69.2652 53.8383 68.6668 54.742 67.9341 55.5113C64.991 58.5887 61.4251 60.6036 57.212 61.2142C52.0464 61.9591 47.6501 60.2983 44.1453 56.4638C40.9946 53.0323 39.2727 48.9414 39.407 44.2643C39.5658 38.5736 41.9593 34.0431 47.125 31.3198C51.509 29.0118 56.1618 28.6699 60.9244 30.0498C61.2664 30.1475 61.6205 30.2086 62.0113 30.2941C63.0249 26.7771 64.0141 23.3456 65.0032 19.8774C69.9979 19.8774 74.9926 19.8774 80.0239 19.8774C80.0239 29.6835 80.0239 39.4651 80.0239 49.2345C79.9872 49.2467 79.9506 49.2711 79.914 49.2833C77.5815 43.9712 75.249 38.6591 72.8799 33.2737ZM28.917 38.4149C31.9822 28.7798 38.6987 22.9914 48.0531 19.8774C48.0653 19.8774 48.0775 19.8652 48.1019 19.8652C41.7151 19.8652 35.3283 19.8652 28.917 19.8652C28.917 26.0932 28.917 32.2479 28.917 38.4149ZM28.8926 52.4828C28.8926 58.6864 28.8926 64.9021 28.8926 71.1423C34.8764 71.1423 40.8236 71.1423 46.7708 71.1423C37.4531 68.1138 31.8723 61.5561 28.8926 52.4828ZM80.0361 71.1423C80.0361 66.2454 80.0361 61.3852 80.0361 56.3661C75.3101 63.8397 68.7645 68.6634 60.4115 71.1423C66.9327 71.1423 73.4661 71.1423 80.0361 71.1423Z" fill="#25235B"/>
</svg>
