<svg width="201" height="91" viewBox="0 0 201 91" fill="none" xmlns="http://www.w3.org/2000/svg">
<path d="M48.761 24.1902H41.047V25.0599C43.9618 25.2999 44.1385 25.4798 44.1385 27.6391V30.2482C44.1385 31.4178 43.8146 31.8376 43.2552 32.1375C42.6663 32.4674 41.783 32.6473 40.8703 32.6473C35.335 32.6473 32.8912 27.6691 32.8912 23.2906C32.8912 17.8024 36.1594 14.4436 40.4581 14.4436C43.2846 14.4436 45.4929 15.5232 46.1995 19.122L47.0828 18.9421C46.8472 16.8728 46.7 15.2233 46.6117 14.2037C45.6401 13.9938 43.4024 13.334 40.9292 13.334C35.0995 13.334 29.623 16.7528 29.623 23.6804C29.623 29.6484 33.9512 33.727 40.517 33.727C42.843 33.727 45.3162 33.0672 47.1122 32.6173C46.9356 31.8076 46.9061 30.848 46.9061 29.7983V27.2792C46.9061 25.4798 47.0533 25.3299 48.761 25.0599V24.1902Z" fill="#004991" stroke="#004991" stroke-width="0.2"/>
<path d="M64.3297 28.3582C63.8881 29.5578 63.3581 30.5774 62.8281 31.2072C62.1804 31.957 61.3265 32.1969 59.2066 32.1969C57.7934 32.1969 56.7629 32.1969 56.2035 31.837C55.6735 31.4771 55.4968 30.7874 55.4968 29.3778V23.8297H58.1467C60.7082 23.8297 60.9438 24.0097 61.3265 26.139H62.2098V20.3509H61.3265C60.9732 22.3603 60.7671 22.6002 58.1467 22.6002H55.4968V15.8525C55.4968 14.9528 55.5851 14.8628 56.5273 14.8628H58.6178C60.6494 14.8628 61.4443 15.0728 61.886 15.7325C62.2687 16.3323 62.5926 17.0521 62.8576 18.2817L63.7703 18.1317C63.6525 16.5423 63.5053 14.503 63.5053 13.7832H50.256V14.6529C52.4936 14.8628 52.7586 14.9828 52.7586 17.6519V29.4978C52.7586 31.9569 52.4936 32.1969 49.8438 32.4068V33.2765H64.212C64.4475 32.3468 65.0658 29.5578 65.213 28.5081L64.3297 28.3582Z" fill="#004991" stroke="#004991" stroke-width="0.2"/>
<path d="M91.3117 33.2765V32.4068C88.809 32.1669 88.6912 31.9869 88.6323 28.868L88.3379 17.9818C88.2496 15.0128 88.4262 14.9228 90.9878 14.6529V13.7832H85.8058L79.1811 28.4482L72.6742 13.7832H67.61V14.6529C70.2599 14.9228 70.4365 15.1027 70.1715 18.9114L69.7299 25.0893C69.5238 28.2382 69.3177 29.5878 69.1705 30.6074C68.9644 31.837 68.3755 32.1969 66.6973 32.3768V33.2765H73.5869V32.3768C71.6143 32.1969 70.9371 31.957 70.8782 30.5474C70.8487 29.4078 70.8487 28.0583 70.9665 25.5991L71.3787 17.202H71.467L77.9445 33.0666H78.5628L85.6292 16.7822H85.7469L85.8353 28.898C85.8647 31.9869 85.7469 32.1669 83.3915 32.4068V33.2765H91.3117Z" fill="#004991" stroke="#004991" stroke-width="0.2"/>
<path d="M40.5517 44.8883C40.3162 42.999 40.1395 41.7994 40.0218 40.7198C39.0207 40.3899 37.7252 40 36.2531 40C32.396 40 30.07 42.4891 30.07 45.4281C30.07 48.727 32.8965 50.2565 34.987 51.3661C37.1952 52.5657 38.7557 53.6453 38.7557 55.7746C38.7557 57.9038 37.4602 59.2834 35.3109 59.2834C32.3077 59.2834 30.9239 56.1944 30.4528 54.3351L29.54 54.575C29.7167 56.1045 30.0995 58.6536 30.335 59.3134C30.6589 59.4633 31.1005 59.7032 31.866 59.9431C32.6021 60.1831 33.5737 60.393 34.7515 60.393C38.7557 60.393 41.4056 57.8439 41.4056 54.635C41.4056 51.3361 38.7557 49.8966 36.3119 48.637C33.9271 47.4075 32.5727 46.3878 32.5727 44.2885C32.5727 42.6391 33.6326 41.0496 35.782 41.0496C38.2846 41.0496 39.1385 43.1789 39.6685 45.0683L40.5517 44.8883Z" fill="#004991" stroke="#004991" stroke-width="0.2"/>
<path d="M63.4473 40.4492H55.5566V41.3189C57.8237 41.5288 58.0592 41.7088 58.0592 44.1979V48.9663H48.4019V44.1979C48.4019 41.6788 48.6374 41.5288 50.8457 41.3189V40.4492H42.9844V41.3189C45.3987 41.5288 45.6342 41.6788 45.6342 44.1979V56.1938C45.6342 58.7129 45.3987 58.8629 43.0727 59.0728V59.9425H50.9929V59.0728C48.6374 58.8629 48.4019 58.7129 48.4019 56.1938V50.2858H58.0592V56.1938C58.0592 58.7129 57.8237 58.8629 55.3505 59.0728V59.9425H63.4473V59.0728C61.0624 58.8629 60.8269 58.7129 60.8269 56.1938V44.1979C60.8269 41.6788 61.0624 41.5288 63.4473 41.3189V40.4492Z" fill="#004991" stroke="#004991" stroke-width="0.2"/>
<path d="M74.9714 40C68.7001 40 64.9902 45.0383 64.9902 50.3764C64.9902 56.1344 69.23 60.393 74.6476 60.393C80.0651 60.393 84.5404 56.4343 84.5404 49.9566C84.5404 43.9586 80.0651 40 74.9714 40ZM74.3826 41.1096C78.1807 41.1096 81.2428 44.4985 81.2428 50.7663C81.2428 56.4943 78.4457 59.2834 75.2659 59.2834C71.1733 59.2834 68.2879 55.1148 68.2879 49.5967C68.2879 44.0486 71.1733 41.1096 74.3826 41.1096Z" fill="#004991" stroke="#004991" stroke-width="0.2"/>
<path d="M86.3017 40.4492V41.3189C88.451 41.4989 88.716 41.6188 88.716 44.2579V56.1638C88.716 58.653 88.451 58.8929 86.125 59.0728V59.9425H94.3102V59.0728C91.6897 58.8929 91.4542 58.7129 91.4542 56.1938V51.5754L93.6035 52.1452C93.9274 52.1752 94.4574 52.1752 94.899 52.1152C97.8139 51.7253 100.67 49.866 100.67 45.9373C100.67 43.988 99.9338 42.5785 98.7266 41.6788C97.5489 40.8091 95.8706 40.4492 93.7507 40.4492H86.3017ZM91.4542 43.1183C91.4542 42.3386 91.5425 41.9787 91.7486 41.7988C91.9547 41.5888 92.5141 41.4389 93.2797 41.4389C95.6057 41.4389 97.5783 42.7884 97.5783 46.0573C97.5783 49.896 95.2523 50.8856 93.4858 50.8856C92.6025 50.8856 91.8075 50.7057 91.4542 50.5557V43.1183Z" fill="#004991" stroke="#004991" stroke-width="0.2"/>
<path d="M102.983 40.4492V41.3189C105.133 41.4989 105.398 41.6188 105.398 44.2579V56.1638C105.398 58.653 105.133 58.8929 102.807 59.0728V59.9425H110.992V59.0728C108.371 58.8929 108.136 58.7129 108.136 56.1938V51.5754L110.285 52.1452C110.609 52.1752 111.139 52.1752 111.581 52.1152C114.496 51.7253 117.352 49.866 117.352 45.9373C117.352 43.988 116.615 42.5785 115.408 41.6788C114.231 40.8091 112.552 40.4492 110.432 40.4492H102.983ZM108.136 43.1183C108.136 42.3386 108.224 41.9787 108.43 41.7988C108.636 41.5888 109.196 41.4389 109.961 41.4389C112.287 41.4389 114.26 42.7884 114.26 46.0573C114.26 49.896 111.934 50.8856 110.167 50.8856C109.284 50.8856 108.489 50.7057 108.136 50.5557V43.1183Z" fill="#004991" stroke="#004991" stroke-width="0.2"/>
<path d="M127.495 59.9425V59.0728C125.139 58.8929 124.874 58.7129 124.874 56.1638V44.2579C124.874 41.7088 125.139 41.5288 127.495 41.3189V40.4492H119.516V41.3189C121.871 41.5288 122.136 41.7088 122.136 44.2579V56.1638C122.136 58.7129 121.871 58.8929 119.516 59.0728V59.9425H127.495Z" fill="#004991" stroke="#004991" stroke-width="0.2"/>
<path d="M150.129 40.4492H143.121V41.3189C145.212 41.4389 145.889 41.8587 146.036 43.1783C146.125 44.048 146.242 45.4275 146.242 48.1566V55.1442H146.154L134.053 40.4492H129.489V41.3189C130.873 41.4389 131.491 41.6788 132.08 42.4285C132.64 43.1483 132.699 43.3582 132.699 45.4875V52.0252C132.699 54.7543 132.581 56.1938 132.492 57.1235C132.345 58.563 131.609 58.9529 129.931 59.0728V59.9425H136.938V59.0728C134.907 58.9529 134.259 58.533 134.112 57.0635C134.023 56.1938 133.935 54.7543 133.935 52.0252V44.6478H133.994L146.478 60.2124H147.479V48.1566C147.479 45.3975 147.567 44.048 147.656 43.1183C147.803 41.7988 148.48 41.4089 150.129 41.3189V40.4492Z" fill="#004991" stroke="#004991" stroke-width="0.2"/>
<path d="M170.581 50.8777H162.867V51.7475C165.782 51.9874 165.959 52.1673 165.959 54.3266V56.9357C165.959 58.1053 165.635 58.5251 165.076 58.825C164.487 59.1549 163.603 59.3348 162.691 59.3348C157.155 59.3348 154.712 54.3566 154.712 49.9781C154.712 44.4899 157.98 41.1311 162.278 41.1311C165.105 41.1311 167.313 42.2107 168.02 45.8095L168.903 45.6296C168.668 43.5603 168.52 41.9108 168.432 40.8912C167.46 40.6813 165.223 40.0215 162.75 40.0215C156.92 40.0215 151.443 43.4403 151.443 50.3679C151.443 56.3359 155.771 60.4145 162.337 60.4145C164.663 60.4145 167.136 59.7547 168.933 59.3048C168.756 58.4951 168.726 57.5355 168.726 56.4858V53.9667C168.726 52.1673 168.874 52.0174 170.581 51.7475V50.8777Z" fill="#004991" stroke="#004991" stroke-width="0.2"/>
<path d="M49.538 67.1465H42.5306V68.0162C44.621 68.1361 45.2982 68.556 45.4454 69.8755C45.5338 70.7452 45.6515 72.1248 45.6515 74.8538V81.8414H45.5632L33.4621 67.1465H28.8984V68.0162C30.2823 68.1361 30.9006 68.3761 31.4894 69.1258C32.0488 69.8456 32.1077 70.0555 32.1077 72.1848V78.7225C32.1077 81.4516 31.99 82.8911 31.9016 83.8208C31.7544 85.2603 31.0183 85.6501 29.3401 85.7701V86.6398H36.3475V85.7701C34.316 85.6501 33.6682 85.2303 33.521 83.7608C33.4327 82.8911 33.3443 81.4516 33.3443 78.7225V71.345H33.4032L45.8871 86.9097H46.8881V74.8538C46.8881 72.0948 46.9765 70.7452 47.0648 69.8156C47.212 68.496 47.8892 68.1062 49.538 68.0162V67.1465Z" fill="#004991" stroke="#004991" stroke-width="0.2"/>
<path d="M65.7633 81.7215C65.3217 82.9211 64.7917 83.9407 64.2617 84.5705C63.6139 85.3202 62.7601 85.5602 60.6402 85.5602C59.2269 85.5602 58.1964 85.5601 57.637 85.2003C57.1071 84.8404 56.9304 84.1506 56.9304 82.7411V77.193H59.5803C62.1418 77.193 62.3773 77.373 62.7601 79.5022H63.6434V73.7142H62.7601C62.4068 75.7235 62.2007 75.9635 59.5803 75.9635H56.9304V69.2158C56.9304 68.3161 57.0187 68.2261 57.9609 68.2261H60.0513C62.0829 68.2261 62.8779 68.436 63.3195 69.0958C63.7023 69.6956 64.0261 70.4154 64.2911 71.6449L65.2039 71.495C65.0861 69.9055 64.9389 67.8662 64.9389 67.1465H51.6895V68.0162C53.9272 68.2261 54.1922 68.3461 54.1922 71.0152V82.8611C54.1922 85.3202 53.9272 85.5602 51.2773 85.7701V86.6398H65.6455C65.8811 85.7101 66.4994 82.9211 66.6466 81.8714L65.7633 81.7215Z" fill="#004991" stroke="#004991" stroke-width="0.2"/>
<path d="M84.4707 71.7946C84.3235 70.0252 84.1763 67.746 84.1763 66.3965H83.5285C83.0869 66.9663 82.8219 67.1462 82.027 67.1462H70.3381C69.5137 67.1462 69.1309 67.0862 68.7187 66.3965H68.1004C68.0415 68.0159 67.8648 70.0252 67.7471 71.8846H68.6598C68.9837 70.5351 69.2781 69.6654 69.6314 69.1555C70.0142 68.4958 70.603 68.2259 73.0468 68.2259H74.7251V82.8908C74.7251 85.29 74.4895 85.5899 71.8397 85.7698V86.6395H80.4959V85.7698C77.7283 85.5899 77.4927 85.29 77.4927 82.8908V68.2259H79.436C81.5853 68.2259 82.0858 68.4658 82.5864 69.1255C82.9691 69.6354 83.2636 70.4151 83.5874 71.8846L84.4707 71.7946Z" fill="#004991" stroke="#004991" stroke-width="0.2"/>
<path d="M113.88 67.1465H107.314V68.0162C109.64 68.2861 109.758 68.646 109.346 70.4454C108.904 72.5146 107.344 78.1527 106.107 82.1113H106.048C104.311 77.0731 102.603 72.2747 100.954 67.4164H99.9828C98.5106 72.2447 96.8618 77.133 95.3308 82.0813H95.2719C94.0353 77.9728 92.9164 74.0441 91.7681 70.1155C91.3559 68.586 91.3854 68.2861 93.5642 68.0162V67.1465H86.1445V68.0162C87.9111 68.2561 88.3528 68.556 89.0888 70.9852C90.7082 76.3233 92.357 81.5415 93.888 86.9397H94.948C96.4201 82.2013 98.0395 77.4629 99.6589 72.3047H99.7178C101.249 76.7132 103.192 82.2013 104.811 86.9397H105.842C108.286 78.5726 110.023 72.9945 110.7 71.0451C111.554 68.586 111.878 68.3161 113.88 68.0162V67.1465Z" fill="#004991" stroke="#004991" stroke-width="0.2"/>
<path d="M123.797 66.6973C117.525 66.6973 113.815 71.7355 113.815 77.0737C113.815 82.8317 118.055 87.0902 123.473 87.0902C128.89 87.0902 133.366 83.1316 133.366 76.6538C133.366 70.6559 128.89 66.6973 123.797 66.6973ZM123.208 67.8069C127.006 67.8069 130.068 71.1957 130.068 77.4636C130.068 83.1916 127.271 85.9806 124.091 85.9806C119.998 85.9806 117.113 81.8121 117.113 76.294C117.113 70.7459 119.998 67.8069 123.208 67.8069Z" fill="#004991" stroke="#004991" stroke-width="0.2"/>
<path d="M152.578 86.07C151.93 85.89 151.282 85.5302 150.517 84.6904C149.84 83.9407 149.221 83.131 148.161 81.5415C147.278 80.192 146.071 78.1827 145.57 77.223C147.72 76.2633 149.31 74.7039 149.31 72.1248C149.31 70.2954 148.544 68.9759 147.337 68.1961C146.218 67.4164 144.775 67.1465 142.538 67.1465H135.059V68.0162C137.326 68.2261 137.591 68.3761 137.591 70.8952V82.8611C137.591 85.3802 137.326 85.5901 134.941 85.7701V86.6398H142.891V85.7701C140.565 85.5901 140.3 85.3802 140.3 82.8611V78.1527H141.154C142.567 78.1527 143.068 78.5126 143.598 79.3823C144.452 80.8518 145.482 82.6811 146.454 84.0907C147.779 86.04 148.956 86.7297 151.459 86.8497C151.812 86.8797 152.136 86.8797 152.46 86.8797L152.578 86.07ZM140.3 77.133V69.7556C140.3 68.9759 140.388 68.646 140.594 68.466C140.83 68.2861 141.301 68.1661 142.155 68.1661C144.275 68.1661 146.306 69.3657 146.306 72.6046C146.306 74.1941 145.835 75.3937 144.746 76.2933C144.01 76.8931 143.038 77.133 141.596 77.133H140.3Z" fill="#004991" stroke="#004991" stroke-width="0.2"/>
<path d="M172.862 86.6398V85.7701C171.478 85.5901 170.831 85.2603 169.329 83.6108C167.769 81.7815 164.706 78.1827 162.557 75.3637C164.412 73.4143 166.355 71.405 167.592 70.2654C169.447 68.526 170.212 68.2261 172.362 68.0162V67.1465H165.207V68.0162L165.825 68.1062C167.18 68.2861 167.209 68.616 166.355 69.6356C165.119 71.2551 163.264 73.2044 161.586 74.8838C160.732 75.6935 160.113 76.1134 159.495 76.2933V71.0751C159.495 68.4061 159.76 68.1961 161.998 68.0162V67.1465H154.195V68.0162C156.521 68.2261 156.786 68.3761 156.786 71.0751V82.7411C156.786 85.3502 156.521 85.5901 154.313 85.7701V86.6398H162.174V85.7701C159.76 85.5901 159.495 85.3502 159.495 82.7411V77.1031C159.966 77.0131 160.378 77.133 161.056 77.9728C163.588 81.1217 165.973 84.1806 168.092 86.6398H172.862Z" fill="#004991" stroke="#004991" stroke-width="0.2"/>
<path d="M123.332 5.10938L116.521 12.7221H130.128L123.332 5.10938Z" fill="white"/>
<path d="M116.521 12.7221L103.097 12.7222L109.883 5.10938H123.331L116.521 12.7221Z" fill="#004992"/>
<path d="M116.598 12.7227L123.331 33.5467L130.065 12.7227H116.598Z" fill="#004992"/>
<path d="M116.598 12.7227H103.097L123.331 33.5466L116.598 12.7227Z" fill="#2D8BCE"/>
<path d="M130.127 12.7221L143.566 12.7222L136.779 5.10938H123.331L130.127 12.7221Z" fill="#004992"/>
<path d="M130.065 12.7227H143.566L123.331 33.5466L130.065 12.7227Z" fill="#2D8BCE"/>
</svg>
