<svg width="201" height="91" viewBox="0 0 201 91" fill="none" xmlns="http://www.w3.org/2000/svg">
<path d="M32.699 78.832L32.6643 78.8685H32.6597L32.6258 78.9051H32.6194L32.5773 78.9507L32.5389 78.9872L32.5005 79.0146H32.495L32.4529 79.042C32.3594 79.1101 32.2573 79.1656 32.1492 79.2072L32.0998 79.2255H32.0916L32.0431 79.2437H32.0331L31.9837 79.2529H31.9736L31.9233 79.262H31.915H31.8611C31.8007 79.262 31.7394 79.2711 31.6781 79.2711C31.3259 79.2711 30.988 79.1315 30.7389 78.8829C30.4898 78.6343 30.3499 78.2971 30.3499 77.9456C30.3499 77.594 30.4898 77.2569 30.7389 77.0083C30.988 76.7597 31.3259 76.6201 31.6781 76.6201C31.7392 76.6189 31.8004 76.622 31.8611 76.6292L31.9141 76.6383H31.9224L31.9727 76.6474H31.9827L32.0321 76.6566H32.0422L32.0907 76.6748H32.0989L32.1483 76.6931C32.2567 76.7349 32.3591 76.7908 32.4529 76.8592L32.4959 76.8957H32.5005L32.5389 76.9596L32.5755 76.9962H32.5819L32.6176 77.0327H32.6231L32.6579 77.0692C32.7457 77.1696 32.8189 77.2828 32.8728 77.4051L32.8929 77.4508L32.9103 77.4964V77.5055L32.925 77.5512V77.5603C32.9298 77.5786 32.9341 77.5968 32.9378 77.6151C32.9378 77.6334 32.946 77.6516 32.9497 77.6699C32.9812 77.8348 32.9812 78.0043 32.9497 78.1692C32.9497 78.1875 32.9423 78.2057 32.9378 78.224C32.9378 78.2423 32.9295 78.2605 32.925 78.2696V78.2788C32.9201 78.297 32.9152 78.3122 32.9103 78.3244V78.3335L32.8929 78.3792V78.3883L32.8737 78.434C32.8298 78.5417 32.7713 78.643 32.7008 78.7352L32.699 78.832ZM34.4371 75.2188H32.9817V75.5465C32.5774 75.3301 32.1255 75.2178 31.6672 75.2188C30.928 75.2188 30.2191 75.5118 29.6959 76.034C29.1726 76.5562 28.8799 77.2637 28.8799 78.0013C28.8806 78.7388 29.1745 79.4459 29.6971 79.9674C30.2196 80.4889 30.9282 80.7822 31.6672 80.7829C32.077 80.7829 32.4813 80.6916 32.8518 80.52C32.624 81.055 32.0733 81.3799 31.4934 81.3206H29.6263V82.7758H31.4934C32.2883 82.8123 33.0622 82.5165 33.6238 81.9542C34.1855 81.3918 34.4819 80.6177 34.4398 79.8244V75.2197" fill="#F6AB40"/>
<path d="M37.2738 75.3219H37.9654V76.7633H37.4257C37.1 76.7633 36.9582 76.9057 36.9582 77.2298V80.6989H35.3519V77.2682C35.2769 76.7378 35.4534 76.2028 35.8303 75.8203C36.2072 75.4378 36.7405 75.2534 37.2729 75.32" fill="#F6AB40"/>
<path d="M42.2357 77.3443C42.1878 77.0901 42.0468 76.8628 41.8401 76.7067C41.6335 76.5506 41.376 76.4769 41.1178 76.4999C40.8488 76.4877 40.5831 76.5636 40.3614 76.7161C40.1396 76.8685 39.9738 77.0892 39.8893 77.3443H42.2357ZM38.3689 78.0272C38.3523 77.6584 38.4118 77.2901 38.5438 76.9452C38.6757 76.6004 38.8773 76.2862 39.1361 76.0224C39.3948 75.7585 39.7051 75.5506 40.0478 75.4115C40.3904 75.2723 40.7581 75.205 41.1279 75.2136C42.5915 75.2136 43.9271 76.2087 43.7057 78.4398H39.8701C40.0137 79.0697 40.5964 79.5006 41.2422 79.455C41.8112 79.455 42.3463 79.1838 42.6821 78.7247L43.7093 79.5791C43.4227 79.969 43.046 80.2841 42.6112 80.4975C42.1764 80.711 41.6964 80.8165 41.212 80.8052C40.4564 80.8508 39.7173 80.5751 39.1767 80.0465C38.6361 79.518 38.3452 78.7858 38.3763 78.0308" fill="#F6AB40"/>
<path d="M48.6497 78.254C48.646 78.2723 48.6421 78.2905 48.6378 78.3088C48.6335 78.3271 48.6293 78.3453 48.625 78.3636V78.3727C48.6201 78.391 48.6152 78.4062 48.6104 78.4183V78.4275C48.6036 78.4457 48.5966 78.464 48.5893 78.4822L48.5701 78.5279C48.5225 78.6338 48.4603 78.7324 48.3872 78.8218L48.3524 78.8584H48.3478L48.314 78.8949H48.3076L48.2728 78.9314H48.2655L48.2289 78.9679H48.2216L48.1832 78.9953H48.1777L48.1356 79.0318C48.042 79.0999 47.9399 79.1554 47.8319 79.197L47.7825 79.2153H47.7743L47.7258 79.2336H47.7157L47.6663 79.2427H47.6562L47.6059 79.2518H47.5977L47.5437 79.2609C47.483 79.2681 47.4219 79.2712 47.3608 79.2701C47.0085 79.2701 46.6707 79.1304 46.4216 78.8818C46.1725 78.6332 46.0325 78.2961 46.0325 77.9445C46.0325 77.593 46.1725 77.2558 46.4216 77.0072C46.6707 76.7586 47.0085 76.619 47.3608 76.619C47.4219 76.6178 47.483 76.6209 47.5437 76.6281L47.5968 76.6372H47.605L47.6553 76.6464H47.6654L47.7148 76.6555H47.7249L47.7733 76.6737H47.7816L47.831 76.692C47.9394 76.7338 48.0418 76.7897 48.1356 76.8582L48.1786 76.8947H48.1832L48.2225 76.9312H48.2289L48.2655 76.9677H48.2719L48.3076 77.0042H48.3131L48.3478 77.0407C48.4375 77.1421 48.5107 77.2571 48.5655 77.3812L48.5857 77.4269C48.5918 77.4451 48.5976 77.4604 48.603 77.4725V77.4817L48.6177 77.5273V77.5364L48.6305 77.5912C48.6305 77.6095 48.6387 77.6277 48.6424 77.646C48.6579 77.7281 48.6662 77.8112 48.6662 77.8952C48.6661 77.9791 48.6582 78.0629 48.6424 78.1453L48.6497 78.254ZM48.7073 75.3154L48.6973 75.8029C48.4899 75.607 48.2457 75.4541 47.9788 75.353C47.7119 75.2519 47.4275 75.2047 47.1422 75.2141C46.7802 75.2144 46.422 75.2876 46.089 75.4294C45.7561 75.5712 45.4553 75.7786 45.2046 76.0392C44.9539 76.2998 44.7585 76.6082 44.6301 76.9459C44.5017 77.2837 44.4429 77.6438 44.4573 78.0048C44.4425 78.366 44.501 78.7264 44.6292 79.0645C44.7575 79.4026 44.9528 79.7113 45.2036 79.9722C45.4543 80.2331 45.7553 80.4407 46.0884 80.5827C46.4215 80.7246 46.7799 80.798 47.1422 80.7983C47.4275 80.8076 47.7119 80.7604 47.9788 80.6593C48.2457 80.5583 48.4899 80.4053 48.6973 80.2095L48.7073 80.697H50.1307V75.3209H48.7082" fill="#F6AB40"/>
<path d="M51.5905 76.7519H50.9502V75.3104H51.5905V73.25H53.1978V75.3104H53.8491V76.7519H53.1978L53.1877 80.6938H51.5759L51.586 76.7519" fill="#F6AB40"/>
<path d="M62.3909 77.3522C62.2903 76.8263 61.8073 76.4612 61.2731 76.5077C61.0041 76.4955 60.7384 76.5715 60.5166 76.7239C60.2948 76.8764 60.1291 77.097 60.0446 77.3522H62.3909ZM58.5242 78.035C58.5076 77.6662 58.5671 77.2979 58.699 76.9531C58.831 76.6082 59.0326 76.2941 59.2913 76.0302C59.5501 75.7664 59.8604 75.5584 60.203 75.4193C60.5457 75.2801 60.9133 75.2128 61.2831 75.2214C62.7468 75.2214 64.0823 76.2165 63.861 78.4476H60.0244C60.1681 79.0775 60.7508 79.5084 61.3966 79.4628C61.9656 79.4628 62.5007 79.1917 62.8364 78.7325L63.8637 79.5869C63.5752 79.9745 63.1974 80.287 62.7622 80.4979C62.327 80.7088 61.8472 80.8118 61.3636 80.7984C60.6081 80.844 59.8689 80.5683 59.3283 80.0397C58.7877 79.5112 58.4968 78.779 58.5279 78.0241" fill="#F6AB40"/>
<path d="M67.1103 75.1958C67.4245 75.1716 67.7403 75.2152 68.0362 75.3237C68.3321 75.4322 68.6011 75.6029 68.8249 75.8244C69.0487 76.0459 69.2222 76.3129 69.3334 76.6072C69.4446 76.9015 69.491 77.2163 69.4695 77.5301V80.707H67.8631V77.5913C67.8631 77.0125 67.5887 76.6884 67.1103 76.6884C66.6319 76.6884 66.3583 77.0134 66.3583 77.5913V80.707H64.7511V77.5301C64.6999 76.8929 64.9331 76.2666 65.3878 75.8166C65.8424 75.3665 66.4727 75.1401 67.1103 75.1958Z" fill="#F6AB40"/>
<path d="M70.7849 76.7636H70.1445V75.3221H70.7849V73.2617H72.3921V75.3221H73.0434V76.7636H72.3921L72.382 80.7055H70.7675L70.7775 76.7636" fill="#F6AB40"/>
<path d="M77.4866 77.3552C77.4388 77.1009 77.2978 76.8736 77.0911 76.7175C76.8845 76.5614 76.6269 76.4877 76.3688 76.5107C76.0998 76.4985 75.8341 76.5745 75.6123 76.7269C75.3905 76.8793 75.2248 77.1 75.1403 77.3552H77.4866ZM73.6199 78.0389C73.6033 77.6701 73.6628 77.3018 73.7947 76.957C73.9267 76.6121 74.1283 76.298 74.387 76.0341C74.6458 75.7703 74.9561 75.5623 75.2987 75.4232C75.6414 75.2841 76.009 75.2167 76.3789 75.2253C77.8425 75.2253 79.178 76.2204 78.9567 78.4516H75.1211C75.2647 79.0815 75.8474 79.5123 76.4932 79.4667C77.0622 79.4667 77.5973 79.1956 77.933 78.7364L78.9603 79.5909C78.6737 79.9807 78.297 80.2958 77.8622 80.5093C77.4274 80.7227 76.9474 80.8282 76.463 80.8169C75.7074 80.8625 74.9683 80.5877 74.4277 80.0592C73.887 79.5306 73.5961 78.7985 73.6272 78.0435" fill="#F6AB40"/>
<path d="M81.7436 75.3219H82.4351V76.7633H81.8963C81.5707 76.7633 81.4289 76.9057 81.4289 77.2298V80.6989H79.8216V77.2682C79.7466 76.7378 79.9232 76.2028 80.3001 75.8203C80.6769 75.4378 81.2103 75.2534 81.7426 75.32" fill="#F6AB40"/>
<path d="M83.8903 76.7578H83.25V75.3163H83.8903V73.2559H85.4976V75.3163H86.1434V76.7578H85.4921L85.482 80.6997H83.8794L83.8894 76.7578" fill="#F6AB40"/>
<path d="M90.8771 78.2599C90.8771 78.2781 90.8698 78.2964 90.8652 78.3147C90.8652 78.3329 90.857 78.3512 90.8524 78.3603V78.3694C90.8475 78.3877 90.8427 78.4029 90.8378 78.4151V78.4242L90.8204 78.4698V78.479C90.8143 78.4972 90.8079 78.5124 90.8012 78.5246C90.7536 78.6296 90.6914 78.7282 90.6182 78.8177L90.5844 78.8542H90.5798L90.546 78.8907H90.5396L90.5048 78.9272H90.4975L90.4618 78.9637H90.4545L90.4161 78.9911H90.4106L90.3685 79.0185C90.2752 79.0915 90.1728 79.1417 90.0648 79.1837L90.0154 79.202H90.0072L89.9587 79.2202H89.9486L89.8992 79.2294H89.8892L89.8389 79.2385H89.8306L89.7776 79.2476C89.7172 79.2476 89.6559 79.2567 89.5946 79.2567C89.4201 79.2569 89.2473 79.2227 89.086 79.1561C88.9248 79.0896 88.7782 78.9919 88.6548 78.8688C88.5313 78.7457 88.4334 78.5996 88.3666 78.4387C88.2998 78.2778 88.2654 78.1054 88.2654 77.9312C88.2654 77.7571 88.2998 77.5846 88.3666 77.4237C88.4334 77.2628 88.5313 77.1167 88.6548 76.9936C88.7782 76.8705 88.9248 76.7729 89.086 76.7063C89.2473 76.6397 89.4201 76.6055 89.5946 76.6057C89.6559 76.6057 89.7172 76.6057 89.7776 76.6148H89.8306H89.8389L89.8892 76.6239H89.8992L89.9486 76.633H89.9587L90.0072 76.6513H90.0154L90.0648 76.6696C90.1737 76.7152 90.2752 76.7672 90.3694 76.8357L90.4124 76.8722H90.4179L90.4572 76.9087H90.4637L90.5002 76.9453H90.5067L90.5423 76.9818H90.5478L90.5826 77.0183C90.6832 77.1333 90.7637 77.2639 90.8204 77.4063L90.8378 77.4519V77.4611L90.8524 77.5067V77.5158L90.8652 77.5706C90.8652 77.5889 90.8735 77.6071 90.8762 77.6254C90.892 77.7075 90.8999 77.791 90.9 77.8746C90.9 77.9568 90.8918 78.0426 90.8762 78.1247L90.8771 78.2599ZM90.9347 75.3212L90.9247 75.8087C90.7174 75.6128 90.4732 75.4599 90.2062 75.3589C89.9393 75.2578 89.6549 75.2106 89.3696 75.2199C89.0076 75.2202 88.6494 75.2935 88.3165 75.4353C87.9835 75.5771 87.6827 75.7845 87.432 76.045C87.1813 76.3056 86.9859 76.614 86.8575 76.9518C86.7291 77.2896 86.6703 77.6497 86.6847 78.0107C86.6707 78.3712 86.7297 78.7309 86.8582 79.0683C86.9866 79.4056 87.1819 79.7136 87.4324 79.9738C87.6829 80.2341 87.9833 80.4413 88.3159 80.583C88.6484 80.7247 89.0062 80.7981 89.3677 80.7987C89.6531 80.808 89.9375 80.7608 90.2044 80.6597C90.4713 80.5586 90.7155 80.4057 90.9229 80.2098L90.9329 80.6973H92.3563V75.3212H90.9347Z" fill="#F6AB40"/>
<path d="M93.1719 72.8555H94.7791V74.4987H93.1719V72.8555Z" fill="#F6AB40"/>
<path d="M93.1719 75.3203H94.7791V80.6991H93.1719V75.3203Z" fill="#F6AB40"/>
<path d="M97.9521 75.188C98.5897 75.1332 99.2199 75.3587 99.6746 75.8088C100.129 76.2588 100.362 76.886 100.311 77.5223V80.6992H98.7049V77.5834C98.7049 77.0047 98.4305 76.6806 97.9521 76.6806C97.4737 76.6806 97.1992 77.0056 97.1992 77.5834V80.6992H95.5929V77.5223C95.5417 76.8851 95.7749 76.2588 96.2296 75.8088C96.6842 75.3587 97.3145 75.1323 97.9521 75.188Z" fill="#F6AB40"/>
<path d="M103.297 75.1927C103.906 75.1562 104.497 75.4091 104.897 75.8692C105.092 75.6399 105.338 75.459 105.615 75.341C105.892 75.2229 106.192 75.1709 106.493 75.1891C106.8 75.1745 107.106 75.2273 107.39 75.3438C107.673 75.4602 107.928 75.6375 108.136 75.8631C108.343 76.0886 108.499 76.3569 108.591 76.6491C108.683 76.9412 108.71 77.2499 108.669 77.5535V80.6994H107.064V77.4923C107.064 76.9747 106.79 76.6808 106.383 76.6808C105.975 76.6808 105.701 76.9747 105.701 77.4923V80.6994H104.095V77.4923C104.095 76.9747 103.83 76.6808 103.413 76.6808C102.996 76.6808 102.732 76.9747 102.732 77.4923V80.6994H101.125V77.5535C101.042 76.94 101.236 76.322 101.654 75.8655C102.072 75.4091 102.672 75.1608 103.292 75.1891" fill="#F6AB40"/>
<path d="M113.375 77.3463C113.327 77.0921 113.186 76.8648 112.98 76.7086C112.773 76.5525 112.516 76.4788 112.257 76.5019C111.988 76.4897 111.723 76.5656 111.501 76.718C111.279 76.8705 111.113 77.0911 111.029 77.3463H113.375ZM109.509 78.0292C109.492 77.6604 109.551 77.2921 109.683 76.9472C109.815 76.6023 110.017 76.2882 110.276 76.0243C110.534 75.7605 110.845 75.5525 111.187 75.4134C111.53 75.2743 111.898 75.2069 112.268 75.2156C113.731 75.2156 115.067 76.2106 114.845 78.4418H111.011C111.154 79.0717 111.737 79.5026 112.383 79.4569C112.952 79.4569 113.487 79.1858 113.823 78.7266L114.85 79.5811C114.563 79.971 114.187 80.286 113.752 80.4995C113.317 80.7129 112.837 80.8185 112.353 80.8071C111.597 80.8528 110.858 80.578 110.317 80.0494C109.777 79.5208 109.486 78.7887 109.517 78.0337" fill="#F6AB40"/>
<path d="M118.069 75.188C118.707 75.1332 119.337 75.3587 119.792 75.8087C120.247 76.2588 120.48 76.886 120.429 77.5223V80.6992H118.824V77.5834C118.824 77.0046 118.55 76.6806 118.071 76.6806C117.593 76.6806 117.319 77.0056 117.319 77.5834V80.6992H115.713V77.5223C115.662 76.886 115.895 76.2597 116.349 75.8097C116.803 75.3596 117.432 75.1323 118.069 75.188Z" fill="#F6AB40"/>
<path d="M121.74 76.7617H121.1V75.3202H121.74V73.2598H123.347V75.3202H123.998V76.7617H123.347L123.337 80.7036H121.728L121.738 76.7617" fill="#F6AB40"/>
<path d="M129.319 76.7617H128.679V75.3202H129.319V73.2598H130.925V75.3202H131.577V76.7617H130.925L130.915 80.7036H129.308L129.318 76.7617" fill="#F6AB40"/>
<path d="M135.998 77.3463C135.898 76.8205 135.415 76.4553 134.881 76.5019C134.611 76.4897 134.346 76.5656 134.124 76.718C133.902 76.8705 133.736 77.0911 133.652 77.3463H135.998ZM132.132 78.0292C132.115 77.6604 132.174 77.2921 132.306 76.9472C132.438 76.6023 132.64 76.2882 132.899 76.0243C133.157 75.7605 133.468 75.5525 133.81 75.4134C134.153 75.2743 134.521 75.2069 134.891 75.2156C136.354 75.2156 137.69 76.2106 137.468 78.4418H133.632C133.775 79.0717 134.358 79.5026 135.004 79.4569C135.573 79.4569 136.108 79.1858 136.444 78.7266L137.471 79.5811C137.185 79.971 136.808 80.286 136.373 80.4995C135.938 80.7129 135.458 80.8185 134.974 80.8071C134.218 80.8528 133.479 80.578 132.938 80.0494C132.398 79.5208 132.107 78.7887 132.138 78.0337" fill="#F6AB40"/>
<path d="M138.342 72.8582H139.948V80.7037H138.342V72.8555" fill="#F6AB40"/>
<path d="M144.649 77.3483C144.548 76.8224 144.065 76.4573 143.531 76.5038C143.262 76.4916 142.996 76.5676 142.774 76.72C142.553 76.8724 142.387 77.0931 142.302 77.3483H144.649ZM140.782 78.0311C140.765 77.6623 140.825 77.294 140.957 76.9492C141.089 76.6043 141.29 76.2902 141.549 76.0263C141.808 75.7624 142.118 75.5545 142.461 75.4154C142.803 75.2762 143.171 75.2089 143.541 75.2175C145.005 75.2175 146.34 76.2126 146.119 78.4437H142.282C142.426 79.0736 143.009 79.5045 143.654 79.4589C144.223 79.4589 144.759 79.1878 145.094 78.7286L146.122 79.583C145.835 79.9729 145.458 80.288 145.023 80.5014C144.589 80.7149 144.109 80.8204 143.624 80.8091C142.869 80.8547 142.129 80.5799 141.589 80.0514C141.048 79.5228 140.757 78.7906 140.788 78.0357" fill="#F6AB40"/>
<path d="M146.238 75.3203H147.976L149.064 78.5584L150.153 75.3203H151.799L149.836 80.6991H148.219L146.239 75.3203" fill="#F6AB40"/>
<path d="M152.615 72.8555H154.222V74.4987H152.615V72.8555Z" fill="#F6AB40"/>
<path d="M152.615 75.3203H154.222V80.6991H152.615V75.3203Z" fill="#F6AB40"/>
<path d="M155.096 80.7046V79.3407C155.429 79.3955 155.766 79.4229 156.103 79.432C156.52 79.432 156.693 79.3307 156.693 79.1171C156.693 78.9445 156.571 78.7921 156.225 78.5383L155.91 78.3046C155.647 78.1548 155.429 77.9393 155.275 77.6795C155.122 77.4197 155.039 77.1245 155.035 76.8229C155.035 75.8288 155.757 75.25 157.018 75.25C157.308 75.2512 157.597 75.2756 157.883 75.323V76.5719C157.664 76.5391 157.443 76.5208 157.221 76.5171C156.794 76.5171 156.591 76.6184 156.591 76.791C156.591 76.9124 156.693 77.0247 157.028 77.2575L157.313 77.4601C157.927 77.7851 158.322 78.4105 158.35 79.1034C158.35 80.1587 157.557 80.7776 156.194 80.7776C155.827 80.7776 155.461 80.7502 155.096 80.6955" fill="#F6AB40"/>
<path d="M159.164 72.8594H160.771V74.5026H159.164V72.8594Z" fill="#F6AB40"/>
<path d="M159.164 75.3242H160.771V80.7031H159.164V75.3242Z" fill="#F6AB40"/>
<path d="M164.462 79.3272C164.631 79.3292 164.799 79.2963 164.955 79.2305C165.11 79.1648 165.251 79.0676 165.367 78.9451C165.483 78.8225 165.573 78.6774 165.63 78.5186C165.687 78.3599 165.711 78.191 165.7 78.0227C165.711 77.8543 165.687 77.6855 165.63 77.5267C165.573 77.368 165.483 77.2228 165.367 77.1003C165.251 76.9778 165.11 76.8806 164.955 76.8148C164.799 76.749 164.631 76.7161 164.462 76.7181C164.293 76.716 164.125 76.7488 163.97 76.8145C163.814 76.8802 163.673 76.9774 163.557 77.0999C163.441 77.2225 163.351 77.3677 163.294 77.5265C163.236 77.6853 163.212 77.8542 163.224 78.0227C163.212 78.1912 163.236 78.3602 163.294 78.519C163.351 78.6779 163.441 78.8232 163.557 78.9457C163.674 79.0683 163.814 79.1654 163.97 79.2311C164.126 79.2967 164.294 79.3295 164.463 79.3272H164.462ZM161.658 78.0227C161.653 77.6557 161.723 77.2914 161.862 76.9518C162.002 76.6122 162.209 76.3043 162.471 76.0466C162.733 75.789 163.044 75.5869 163.386 75.4525C163.729 75.3181 164.095 75.2543 164.462 75.2648C164.83 75.2543 165.196 75.3181 165.538 75.4525C165.88 75.5869 166.192 75.789 166.454 76.0466C166.716 76.3043 166.923 76.6122 167.062 76.9518C167.202 77.2914 167.271 77.6557 167.266 78.0227C167.271 78.3897 167.202 78.754 167.062 79.0936C166.923 79.4332 166.716 79.7411 166.454 79.9987C166.192 80.2564 165.88 80.4585 165.538 80.5929C165.196 80.7272 164.83 80.7911 164.462 80.7806C164.095 80.7911 163.729 80.7272 163.386 80.5929C163.044 80.4585 162.733 80.2564 162.471 79.9987C162.209 79.7411 162.002 79.4332 161.862 79.0936C161.723 78.754 161.653 78.3897 161.658 78.0227Z" fill="#F6AB40"/>
<path d="M170.514 75.1919C171.151 75.1371 171.781 75.3626 172.236 75.8127C172.691 76.2627 172.924 76.8899 172.873 77.5262V80.7031H171.265V77.5874C171.265 77.0086 170.991 76.6845 170.513 76.6845C170.034 76.6845 169.76 77.0095 169.76 77.5874V80.7031H168.153V77.5262C168.102 76.889 168.335 76.2627 168.79 75.8127C169.245 75.3626 169.875 75.1362 170.513 75.1919" fill="#F6AB40"/>
<path d="M94.8831 26.292C95.7445 25.2396 96.8296 24.3914 98.0598 23.809C99.29 23.2265 100.635 22.9243 101.996 22.9243C103.358 22.9243 104.703 23.2265 105.933 23.809C107.163 24.3914 108.248 25.2396 109.11 26.292H94.8831ZM64.1983 41.3942C61.7449 41.3942 59.3921 40.422 57.6568 38.6902C55.9215 36.9584 54.9473 34.6104 54.9473 32.162C54.9473 29.7136 55.9215 27.3647 57.6568 25.6329C59.3921 23.9011 61.7449 22.9289 64.1983 22.9289C69.3082 22.9289 73.4502 27.0625 73.4502 32.162C73.4502 37.2615 69.3072 41.3942 64.1983 41.3942ZM130.471 46.6525C130.395 46.1132 130.354 45.5695 130.35 45.0248V36.2217H143.238V26.0812H130.35V12.7902H120.191V25.433C115.142 11.9649 96.2663 7.59576 86.513 20.5133C85.1915 22.2619 84.1772 24.2218 83.5135 26.3094V12.7902H73.3523V15.0724C70.5367 13.568 67.3908 12.7847 64.1974 12.7902C61.6481 12.7901 59.1237 13.2911 56.7685 14.2646C54.4132 15.2381 52.2732 16.6651 50.4706 18.4641C48.668 20.263 47.2381 22.3987 46.2626 24.7492C45.2871 27.0996 44.785 29.6188 44.7852 32.1629C44.785 34.707 45.2871 37.2262 46.2626 39.5767C47.2381 41.9271 48.668 44.0628 50.4706 45.8618C52.2732 47.6607 54.4132 49.0877 56.7685 50.0612C59.1237 51.0348 61.6481 51.5358 64.1974 51.5357C67.0496 51.5357 69.8671 50.914 72.4485 49.7044C71.3051 52.413 68.7373 55.2831 62.989 55.2831H49.9856V65.4228H62.989C75.4352 65.4228 83.7816 56.5073 83.5135 44.8632V38.0219C84.7244 41.8621 87.1094 45.2277 90.334 47.6467C92.3699 49.1779 94.6881 50.2938 97.1561 50.9308C99.6242 51.5679 102.194 51.7135 104.718 51.3594C107.243 51.0053 109.673 50.1584 111.869 48.8671C114.066 47.5758 115.986 45.8654 117.52 43.8335L109.405 37.7316C104.658 44.0188 96.7877 41.574 93.8211 36.4344H120.191V44.8632C119.923 56.5064 128.268 65.4228 140.716 65.4228H144.051V55.2831H140.716C134.516 55.2831 131.253 52.297 130.47 46.6534" fill="black"/>
<path d="M146.448 55.2754V65.4305H156.624V55.2754H146.448Z" fill="#F6AB40"/>
</svg>
