<svg width="201" height="91" viewBox="0 0 201 91" fill="none" xmlns="http://www.w3.org/2000/svg">
<path d="M61.5787 42.696L59.8851 50.7992C62.4061 50.7582 65.2576 50.7171 66.3745 50.7171C66.9102 50.7171 67.1176 51.0476 67.1176 51.5012C67.1176 52.3287 66.3335 53.5276 65.1345 53.6507C64.3481 53.7761 61.5787 53.8992 59.2628 53.9402C58.6018 57.2066 57.9407 60.4296 57.4028 63.2014C57.3618 63.6139 56.9469 63.778 56.4113 63.778C54.9639 63.778 52.5363 62.497 52.5363 60.1424C52.5363 58.695 55.5132 46.1697 56.7532 41.5813C56.3406 41.5403 55.9691 41.4993 55.5952 41.4993C52.9922 41.4993 50.8837 42.9854 50.8837 46.0877C50.8664 47.5447 51.4147 48.9516 52.4132 50.0128C52.6206 50.6761 51.6701 51.2961 50.5122 51.2961C48.6112 51.2961 46.0469 50.0971 46.0469 46.3772C46.0469 41.6634 50.5532 38.5224 56.3816 38.5224C59.8532 38.5224 63.368 39.596 66.3449 39.596C68.5764 39.596 69.3195 38.8939 69.609 38.4403C70.3543 38.2329 70.8489 39.0603 70.8489 40.0519C70.8489 41.5813 69.7343 43.6989 66.591 43.6989C65.1345 43.6898 63.3566 43.1929 61.5787 42.696Z" fill="#621022"/>
<path d="M89.3691 57.7022C89.3691 58.9855 86.3512 63.2434 82.9617 63.2434C80.6048 63.2434 78.7448 61.3401 78.7448 58.8602V58.614C77.5892 61.5886 75.8933 63.3255 73.288 63.3255C70.0649 63.3255 67.667 60.9276 67.667 56.7517C67.667 51.1718 71.4713 45.5508 76.3469 45.5508C78.2502 45.5508 80.2333 46.3349 81.7217 47.3743C82.5491 46.8774 83.4586 46.5469 84.2017 46.5469C85.0701 46.5469 85.5238 46.9594 85.5238 47.7048C85.5264 47.8299 85.5126 47.9548 85.4827 48.0763C85.3186 48.8627 83.6227 55.5163 83.6227 58.5342C83.6227 59.6511 83.8712 60.0637 84.5732 60.0637C85.4417 60.0637 87.0965 58.949 88.3775 56.8406C88.5018 56.817 88.6297 56.8219 88.7517 56.8549C88.8738 56.8879 88.9868 56.9481 89.0822 57.031C89.1776 57.114 89.253 57.2174 89.3027 57.3337C89.3524 57.4499 89.3751 57.5759 89.3691 57.7022ZM79.6953 49.8087C79.2007 48.8582 78.3733 48.1128 77.5459 48.1128C75.1913 48.1128 73.1649 52.5781 73.1649 57.0845C73.1649 58.9855 73.7028 59.9771 74.7354 59.9771C76.5429 59.9771 78.4029 56.4622 79.684 49.8087H79.6953Z" fill="#621022"/>
<path d="M118.169 57.7025C118.169 58.9447 115.233 63.2847 111.68 63.2847C109.694 63.2847 107.05 61.8783 107.05 58.7373C107.05 56.132 108.744 51.5869 108.744 49.6425C108.744 49.0636 108.621 48.7308 108.249 48.7308C106.843 48.7308 103.33 53.4013 101.842 62.7035C101.758 63.116 101.427 63.2824 100.93 63.2824C99.5626 63.2824 97.2832 61.9148 97.2832 60.1414C97.2832 58.2792 99.1432 52.4941 99.1432 49.9298C99.1432 49.2277 98.9768 48.7308 98.5642 48.7308C96.9527 48.7308 93.4378 53.9734 92.0748 62.7035C91.9927 63.075 91.6599 63.2414 91.2063 63.2414C89.8387 63.2414 87.4453 61.794 87.4453 60.0161C87.4453 58.3225 89.6768 47.7803 89.6768 46.3762C89.6768 45.9613 90.0073 45.7539 90.4632 45.7539C91.7853 45.7539 94.1422 47.1215 94.1422 48.4892C94.1422 48.904 93.8937 50.3127 93.5632 51.963C95.1747 48.1587 97.2421 45.8086 99.6378 45.8086C101.79 45.8086 103.939 47.9581 103.939 50.3537V50.5611C105.384 47.6276 107.162 45.8086 109.394 45.8086C111.543 45.8086 114.066 47.7096 114.066 50.1896C114.066 52.298 112.37 56.9275 112.37 58.9106C112.37 59.5306 112.619 60.0685 113.157 60.0685C113.982 60.0685 115.892 58.9539 117.166 56.8454C117.291 56.82 117.42 56.8233 117.543 56.8552C117.666 56.887 117.78 56.9465 117.877 57.0291C117.974 57.1118 118.05 57.2154 118.101 57.332C118.152 57.4487 118.175 57.5754 118.169 57.7025Z" fill="#621022"/>
<path d="M116.517 59.1897C116.517 56.8761 118.584 48.3193 118.584 46.4251C118.584 45.9282 118.915 45.7208 119.409 45.7208C120.816 45.7208 123.512 47.3756 123.512 49.2356C123.512 50.3935 121.775 57.2955 121.775 59.037C121.775 59.5316 121.983 60.1106 122.603 60.1106C123.514 60.1106 125.338 58.9549 126.612 56.8465C126.739 56.8225 126.869 56.827 126.994 56.8595C127.119 56.8921 127.235 56.952 127.334 57.0349C127.432 57.1178 127.511 57.2216 127.565 57.3388C127.619 57.456 127.646 57.5837 127.645 57.7126C127.645 58.9959 124.586 63.3359 121.278 63.3359C118.625 63.3245 116.517 61.2252 116.517 59.1897ZM119.286 41.2509C119.286 39.596 120.567 38.233 122.509 38.233C122.851 38.226 123.192 38.2869 123.511 38.4122C123.829 38.5374 124.12 38.7245 124.366 38.9627C124.612 39.2009 124.808 39.4854 124.944 39.7999C125.079 40.1144 125.151 40.4526 125.155 40.795C125.151 41.5941 124.832 42.3593 124.267 42.9243C123.702 43.4894 122.937 43.8087 122.138 43.8129C120.444 43.8129 119.286 42.7803 119.286 41.2509Z" fill="#621022"/>
<path d="M141.854 57.6603C141.854 59.2308 138.011 63.3588 133.464 63.3588C130.487 63.3588 126.313 61.6219 126.313 54.4692C126.313 47.6492 129.908 37.2734 135.119 37.2734C137.309 37.2734 140.243 39.097 140.243 42.7303C140.243 47.6903 135.075 54.6766 131.645 56.5366C131.934 59.1396 133.215 60.2976 135.242 60.2976C137.555 60.2976 139.623 58.4741 140.863 56.785C140.989 56.7587 141.119 56.7621 141.243 56.7949C141.367 56.8277 141.482 56.8891 141.578 56.974C141.674 57.059 141.749 57.1653 141.797 57.2845C141.845 57.4036 141.865 57.5323 141.854 57.6603ZM131.563 54.4373C135.21 50.8404 137.225 44.2689 137.225 41.5405C137.225 40.4236 136.853 40.011 136.4 40.011C134.501 40.011 131.811 48.8573 131.563 54.4373Z" fill="#621022"/>
<path d="M155.66 60.4739C155.455 61.6296 155.204 62.7875 154.958 63.9044C155.826 64.1939 156.239 64.7318 156.239 65.1444C156.241 65.2134 156.228 65.2819 156.201 65.3454C156.174 65.4089 156.134 65.466 156.083 65.5128C156.032 65.5596 155.972 65.5951 155.907 65.6168C155.841 65.6386 155.772 65.6462 155.703 65.639C155.292 65.59 154.878 65.5626 154.463 65.557C152.975 70.4759 150.411 74.2802 145.906 74.2802C143.219 74.2802 141.441 72.8328 141.441 70.8907C141.441 67.9138 145.533 65.1034 150.039 64.1095C150.452 62.2085 150.782 60.1434 151.072 58.076C149.585 61.2261 147.721 63.2023 145.161 63.2023C142.558 63.2023 140.201 61.3788 140.201 58.6139C140.201 56.216 142.184 48.3567 142.184 46.3348C142.184 45.9223 142.515 45.7148 143.012 45.7148C144.379 45.7148 147.103 47.3287 147.103 49.2707C147.103 50.4286 145.492 56.5465 145.492 58.5706C145.492 59.6465 145.989 59.8949 146.568 59.8949C148.847 59.8949 151.354 54.6022 152.519 48.4843C152.644 47.4928 152.767 46.7497 152.767 46.3348C152.767 45.879 153.098 45.7148 153.636 45.7148C155.165 45.7148 158.017 47.2853 157.686 49.2707L155.66 60.4739ZM149.46 66.4254C146.526 67.458 144.252 69.318 144.252 70.9728C144.252 71.7159 144.664 72.0897 145.369 72.0897C147.188 72.0897 148.51 69.7328 149.46 66.4254Z" fill="#621022"/>
<path d="M23.8799 26.0501C23.8799 21.4913 26.6288 18.2773 30.9802 18.2773C33.2733 18.2773 35.1515 19.1481 35.9629 20.632V18.5987H37.8229V24.3702H35.8832V24.2106C35.8832 22.2526 34.2625 20.3356 31.395 20.3356C28.1515 20.3356 26.2732 22.7016 26.2732 26.0888C26.2732 29.5307 28.1309 31.9241 31.5933 31.9241C34.4403 31.9241 36.339 30.2419 36.339 27.869H31.8897V26.0455H38.158V33.6199H36.3345V31.5685C35.4843 32.9361 33.6653 33.9413 31.272 33.9413C26.8659 33.9413 23.8799 30.7365 23.8799 26.0501Z" fill="#620F22"/>
<path d="M47.3934 23.7747V25.6939C47.0912 25.6074 46.7776 25.5675 46.4634 25.5754C44.7242 25.5754 43.4181 26.5646 43.4181 28.5226V31.8642H45.4946V33.6239H39.9785V31.8642H41.3234V25.5366H39.9785V23.7747H43.2996V25.5161C43.7555 24.2693 45.0593 23.6174 46.4246 23.6174C46.7542 23.6135 47.082 23.6667 47.3934 23.7747Z" fill="#620F22"/>
<path d="M47.9092 28.6807C47.9092 25.4577 49.8877 23.4609 52.9238 23.4609C55.7731 23.4609 57.5123 25.2206 57.5123 28.2477C57.5152 28.5859 57.4885 28.9238 57.4325 29.2574H50.086C50.3139 30.9373 51.4696 32.0839 53.5256 32.0839C54.8112 32.0839 55.7207 31.6098 56.2609 30.9761L57.4462 32.3209C56.6347 33.2714 55.1531 33.9439 53.3319 33.9439C49.9059 33.9416 47.9092 31.767 47.9092 28.6807ZM50.1042 27.6527H55.4243C55.2671 26.2486 54.4168 25.2594 52.8942 25.2594C51.3716 25.2594 50.3413 26.2281 50.1042 27.6527Z" fill="#620F22"/>
<path d="M58.6885 28.6996C58.6885 25.6339 60.667 23.457 63.5345 23.457C65.13 23.457 66.3609 24.1408 66.9946 25.3147V23.7739H70.4365V25.5358H69.0825V31.8634H70.4273V33.6231H67.0926V32.0025C66.4088 33.247 65.1551 33.94 63.514 33.94C60.667 33.94 58.6885 31.8042 58.6885 28.6996ZM67.0926 28.6996C67.0926 26.6619 65.8663 25.3763 63.9675 25.3763C62.0688 25.3763 60.8448 26.6619 60.8448 28.6996C60.8448 30.7374 62.0893 32.0207 63.9675 32.0207C65.8458 32.0207 67.0926 30.7351 67.0926 28.6996Z" fill="#620F22"/>
<path d="M78.5835 33.0499C77.9013 33.5635 77.0642 33.8289 76.2107 33.8021C74.0156 33.8021 72.7711 32.5963 72.7711 30.1551V25.537H71.1094V23.7751H72.7711V21.3042L74.8658 20.7891V23.7751H77.7926V25.537H74.8658V30.0252C74.8658 31.3107 75.4197 31.9444 76.548 31.9444C77.0378 31.9436 77.5155 31.7916 77.9156 31.509L78.5835 33.0499Z" fill="#620F22"/>
<path d="M82.6973 33.6234V31.7839H84.0831L89.0454 18.5977H91.8536L96.8682 31.7885H98.2359V33.628H92.3095V31.7885H94.427L93.3375 28.8412H87.4042L86.3169 31.7885H88.3137V33.628L82.6973 33.6234ZM88.0174 27.1363H92.6856L90.3515 20.877L88.0174 27.1363Z" fill="#620F22"/>
<path d="M116.141 31.8638H117.486V33.6234H112.504V31.8638H114.044V27.9272C114.044 26.2268 113.294 25.3766 111.765 25.3766C110.124 25.3766 109.153 26.4046 109.153 28.0868V31.8638H110.696V33.6234H105.522V31.8638H107.065V27.9272C107.065 26.2268 106.313 25.3766 104.786 25.3766C103.124 25.3766 102.176 26.3864 102.176 28.1255V31.8638H103.73V33.6234H98.7383V31.8638H100.083V25.5362H98.7383V23.7742H102.062V25.2079C102.634 24.1001 103.86 23.4688 105.424 23.4688C107.044 23.4688 108.132 24.1001 108.667 25.3857C109.299 24.1799 110.625 23.4688 112.314 23.4688C114.865 23.4688 116.151 24.8523 116.151 27.64L116.141 31.8638Z" fill="#620F22"/>
<path d="M118.16 28.6807C118.16 25.4577 120.136 23.4609 123.163 23.4609C126.01 23.4609 127.752 25.2206 127.752 28.2477C127.755 28.5859 127.728 28.9238 127.672 29.2574H120.335C120.563 30.9373 121.718 32.0839 123.777 32.0839C125.062 32.0839 125.972 31.6098 126.512 30.9761L127.699 32.3209C126.888 33.2714 125.404 33.9439 123.585 33.9439C120.157 33.9416 118.16 31.767 118.16 28.6807ZM120.355 27.6527H125.675C125.516 26.2486 124.666 25.2594 123.143 25.2594C121.62 25.2594 120.597 26.2281 120.355 27.6527Z" fill="#620F22"/>
<path d="M136.257 23.7746V25.6939C135.955 25.6077 135.641 25.5678 135.327 25.5753C133.586 25.5753 132.282 26.5646 132.282 28.5226V31.8642H134.358V33.6239H128.84V31.8642H130.185V25.5366H128.84V23.7746H132.163V25.5161C132.619 24.2693 133.923 23.6173 135.288 23.6173C135.618 23.6139 135.945 23.6671 136.257 23.7746Z" fill="#620F22"/>
<path d="M136.888 33.624V31.8643H138.233V25.5367H136.888V23.7747H140.33V31.8643H141.674V33.624H136.888ZM137.501 20.2348C137.501 19.4257 138.016 18.8125 138.985 18.8125C139.953 18.8125 140.469 19.4257 140.469 20.2348C140.469 21.044 139.953 21.6595 138.985 21.6595C138.016 21.6595 137.501 21.0463 137.501 20.2348Z" fill="#620F22"/>
<path d="M142.566 28.642C142.566 25.5967 144.326 23.4609 147.096 23.4609C148.538 23.4609 149.603 24.1448 150.1 24.9425V23.7755H151.695V28.0083H150.015V27.7166C150.015 26.3489 149.124 25.3619 147.563 25.3619C145.739 25.3619 144.714 26.7068 144.714 28.626C144.714 30.6638 145.999 32.0269 147.998 32.0269C149.343 32.0269 150.134 31.4548 150.629 30.8416L151.873 32.1454C151.062 33.235 149.58 33.9461 147.839 33.9461C144.563 33.9416 142.566 31.8445 142.566 28.642Z" fill="#620F22"/>
<path d="M153.008 28.6996C153.008 25.6339 154.986 23.457 157.854 23.457C159.449 23.457 160.68 24.1408 161.314 25.3147V23.7739H164.756V25.5358H163.411V31.8634H164.756V33.6231H161.412V32.0025C160.728 33.247 159.474 33.94 157.833 33.94C154.986 33.94 153.008 31.8042 153.008 28.6996ZM161.412 28.6996C161.412 26.6619 160.186 25.3763 158.287 25.3763C156.388 25.3763 155.164 26.6619 155.164 28.6996C155.164 30.7374 156.409 32.0207 158.287 32.0207C160.165 32.0207 161.412 30.7351 161.412 28.6996Z" fill="#620F22"/>
<path d="M176.382 31.8638H177.727V33.6234H172.646V31.8638H174.288V27.9272C174.288 26.2268 173.497 25.3766 171.894 25.3766C170.135 25.3766 169.159 26.3271 169.159 28.1255V31.8638H170.8V33.6234H165.729V31.8638H167.073V25.5362H165.729V23.7742H169.052V25.2079C169.665 24.1001 170.85 23.4688 172.512 23.4688C175.101 23.4688 176.387 24.8136 176.387 27.5215L176.382 31.8638Z" fill="#620F22"/>
</svg>
