<svg width="201" height="91" viewBox="0 0 201 91" fill="none" xmlns="http://www.w3.org/2000/svg">
<path d="M23.8799 26.0844C23.8799 21.6229 26.5568 18.4844 30.8338 18.4844C33.08 18.4844 34.9261 19.3459 35.6954 20.7921V18.7921H37.5108V24.4537H35.6031V24.2998C35.6031 22.3921 34.003 20.5152 31.203 20.5152C28.0338 20.5152 26.1876 22.8229 26.1876 26.146C26.1876 29.4998 28.003 31.8383 31.3876 31.8383C34.1877 31.8383 36.0338 30.2075 36.0338 27.8691H31.7261V26.0844H37.8492V33.4999H36.0646V31.4999C35.2338 32.8229 33.4492 33.8076 31.1107 33.8076C26.803 33.8076 23.8799 30.6691 23.8799 26.0844Z" fill="#005F6B"/>
<path d="M47.2954 23.869V25.746C47.0801 25.6537 46.7108 25.6229 46.3724 25.6229C44.68 25.6229 43.3877 26.5767 43.3877 28.5152V31.7768H45.4185V33.4999H40.0339V31.7768H41.3569V25.5921H40.0339V23.869H43.2646V25.5614C43.6954 24.3306 44.9877 23.7152 46.3108 23.7152C46.7108 23.7152 47.0185 23.7767 47.2954 23.869Z" fill="#005F6B"/>
<path d="M48.2493 28.6691C48.2493 25.5306 50.1878 23.5613 53.1416 23.5613C55.9417 23.5613 57.634 25.2844 57.634 28.2383C57.634 28.4845 57.6032 28.9768 57.5417 29.2229H50.3724C50.5878 30.8537 51.7262 31.9922 53.7263 31.9922C54.9878 31.9922 55.8801 31.5306 56.4032 30.9152L57.5724 32.2383C56.7724 33.1614 55.3263 33.8383 53.5416 33.8383C50.1878 33.8076 48.2493 31.6845 48.2493 28.6691ZM50.4032 27.6537H55.6032C55.4493 26.2691 54.6186 25.3152 53.1416 25.3152C51.6647 25.3152 50.6185 26.2691 50.4032 27.6537Z" fill="#005F6B"/>
<path d="M58.7725 28.669C58.7725 25.6844 60.7109 23.5305 63.511 23.5305C65.0802 23.5305 66.2802 24.1767 66.8956 25.3459V23.8382H70.2495V25.5613H68.9264V31.746H70.2495V33.4691H66.9879V31.8691C66.311 33.0998 65.0802 33.7768 63.4802 33.7768C60.7109 33.8075 58.7725 31.7152 58.7725 28.669ZM66.9879 28.669C66.9879 26.669 65.7879 25.4075 63.9417 25.4075C62.0956 25.4075 60.8956 26.669 60.8956 28.669C60.8956 30.6691 62.1263 31.9306 63.9417 31.9306C65.7879 31.9306 66.9879 30.6691 66.9879 28.669Z" fill="#005F6B"/>
<path d="M78.5265 32.946C78.0342 33.346 77.2034 33.6845 76.2188 33.6845C74.0649 33.6845 72.8649 32.5153 72.8649 30.1152V25.5921H71.2341V23.869H72.8649V21.4382L74.9264 20.9459V23.869H77.788V25.5921H74.9264V29.9922C74.9264 31.2537 75.4803 31.8691 76.5572 31.8691C77.0803 31.8691 77.5726 31.6845 77.8803 31.4383L78.5265 32.946Z" fill="#005F6B"/>
<path d="M83.3573 33.4999V31.7152H84.7111L89.5727 18.7921H92.3112L97.2035 31.6845H98.5266V33.4691H92.7112V31.6845H94.7728L93.6958 28.7921H87.9112L86.8342 31.6845H88.7727V33.4691H83.3573V33.4999ZM88.5573 27.1614H93.1112L90.8343 21.0382L88.5573 27.1614Z" fill="#005F6B"/>
<path d="M116.496 31.7768H117.819V33.4999H112.958V31.7768H114.465V27.9306C114.465 26.2691 113.727 25.4383 112.25 25.4383C110.65 25.4383 109.696 26.4537 109.696 28.0844V31.7768H111.204V33.4999H106.127V31.7768H107.634V27.9306C107.634 26.2691 106.896 25.4383 105.419 25.4383C103.788 25.4383 102.865 26.4229 102.865 28.1152V31.7768H104.373V33.4999H99.5113V31.7768H100.834V25.5921H99.5113V23.869H102.773V25.2537C103.327 24.1767 104.527 23.5613 106.065 23.5613C107.665 23.5613 108.711 24.1767 109.234 25.4383C109.85 24.269 111.142 23.5613 112.804 23.5613C115.296 23.5613 116.558 24.9152 116.558 27.6537V31.7768H116.496Z" fill="#005F6B"/>
<path d="M118.404 28.6691C118.404 25.5306 120.342 23.5613 123.296 23.5613C126.096 23.5613 127.788 25.2844 127.788 28.2383C127.788 28.4845 127.758 28.9768 127.696 29.2229H120.527C120.742 30.8537 121.881 31.9922 123.881 31.9922C125.142 31.9922 126.035 31.5306 126.558 30.9152L127.727 32.2383C126.927 33.1614 125.481 33.8383 123.696 33.8383C120.373 33.8076 118.404 31.6845 118.404 28.6691ZM120.558 27.6537H125.758C125.604 26.2691 124.773 25.3152 123.296 25.3152C121.819 25.3152 120.804 26.2691 120.558 27.6537Z" fill="#005F6B"/>
<path d="M136.527 23.869V25.746C136.312 25.6537 135.942 25.6229 135.604 25.6229C133.912 25.6229 132.619 26.5767 132.619 28.5152V31.7768H134.65V33.4999H129.265V31.7768H130.588V25.5921H129.265V23.869H132.496V25.5614C132.927 24.3306 134.219 23.7152 135.542 23.7152C135.942 23.7152 136.25 23.7767 136.527 23.869Z" fill="#005F6B"/>
<path d="M137.542 33.4999V31.7768H138.865V25.5922H137.542V23.8691H140.896V31.7768H142.219V33.4999H137.542ZM138.127 20.3921C138.127 19.5921 138.619 19.0075 139.573 19.0075C140.527 19.0075 141.019 19.5921 141.019 20.3921C141.019 21.1921 140.527 21.7768 139.573 21.7768C138.65 21.7768 138.127 21.1921 138.127 20.3921Z" fill="#005F6B"/>
<path d="M143.081 28.6075C143.081 25.6229 144.804 23.5305 147.512 23.5305C148.927 23.5305 149.973 24.1767 150.465 24.9767V23.8382H152.035V27.9921H150.404V27.7152C150.404 26.3921 149.542 25.4075 148.004 25.4075C146.219 25.4075 145.204 26.7306 145.204 28.6075C145.204 30.6075 146.465 31.9306 148.404 31.9306C149.727 31.9306 150.496 31.3768 150.989 30.7614L152.219 32.0229C151.419 33.0998 149.973 33.7768 148.281 33.7768C145.019 33.8075 143.081 31.746 143.081 28.6075Z" fill="#005F6B"/>
<path d="M153.142 28.669C153.142 25.6844 155.081 23.5305 157.881 23.5305C159.45 23.5305 160.65 24.1767 161.266 25.3459V23.8382H164.619V25.5613H163.296V31.746H164.619V33.4691H161.358V31.8691C160.681 33.0998 159.45 33.7768 157.85 33.7768C155.081 33.8075 153.142 31.7152 153.142 28.669ZM161.358 28.669C161.358 26.669 160.158 25.4075 158.312 25.4075C156.466 25.4075 155.266 26.669 155.266 28.669C155.266 30.6691 156.496 31.9306 158.312 31.9306C160.158 31.9306 161.358 30.6691 161.358 28.669Z" fill="#005F6B"/>
<path d="M177.727 31.7768V33.4999H172.743V31.7768H174.343V27.9306C174.343 26.2691 173.573 25.4383 172.004 25.4383C170.281 25.4383 169.327 26.3614 169.327 28.1152V31.7768H170.927V33.4999H165.943V31.7768H167.266V25.5921H165.943V23.869H169.204V25.2537C169.789 24.1767 170.958 23.5613 172.589 23.5613C175.112 23.5613 176.373 24.8844 176.373 27.5306V31.7768H177.727Z" fill="#005F6B"/>
<path d="M83.0184 42.3005C83.5415 42.7621 84.2184 43.0082 85.08 43.0082C85.9415 43.0082 86.6492 42.7005 87.2031 42.1159C87.7877 41.5005 88.0646 40.8236 88.0646 40.0236C88.0646 39.3467 87.8185 38.7313 87.3261 38.239C86.8338 37.7467 86.2185 37.4697 85.4492 37.4697C84.4954 37.4697 83.7261 37.7467 83.1415 38.3313C82.5569 38.9159 82.2492 39.6236 82.2492 40.4544C82.2492 41.2236 82.4953 41.839 83.0184 42.3005Z" fill="#005F6B"/>
<path d="M109.788 42.3005C110.311 42.7621 110.988 43.0082 111.849 43.0082C112.711 43.0082 113.419 42.7005 113.972 42.1159C114.557 41.5005 114.834 40.8236 114.834 40.0236C114.834 39.3467 114.588 38.7313 114.096 38.239C113.603 37.7467 112.988 37.4697 112.219 37.4697C111.265 37.4697 110.496 37.7467 109.911 38.3313C109.326 38.9159 109.019 39.6236 109.019 40.4544C108.988 41.2236 109.265 41.839 109.788 42.3005Z" fill="#005F6B"/>
<path d="M68.4952 53.6237C69.8491 53.3775 71.1414 52.916 72.3414 52.3006C74.3414 51.2544 75.9415 49.9006 77.1107 48.2082C78.2799 46.5467 78.8646 44.7928 78.8646 43.0082C78.8646 41.4697 78.3107 40.2082 77.1722 39.2236C76.0645 38.2389 74.6491 37.7466 72.9876 37.7466C70.8645 37.7466 69.0183 38.5774 67.4798 40.2389C65.9414 41.9005 64.926 44.2082 64.4029 47.1621L63.6029 51.6544C62.9875 51.439 62.4337 51.1006 61.9721 50.6698C61.049 49.7775 60.5875 48.639 60.5875 47.1929C60.5875 46.4236 60.7106 45.7159 60.9875 45.039C61.2336 44.3621 61.6337 43.8697 62.1567 43.5313C62.2183 43.2236 62.0952 42.9774 61.7875 42.762C61.4798 42.5467 61.049 42.4236 60.5259 42.4236C59.3259 42.4236 58.3413 42.8851 57.5413 43.8082C56.7721 44.7313 56.3721 45.839 56.3721 47.1005C56.3721 48.3929 56.7721 49.5313 57.5413 50.5775C58.3105 51.5929 59.4182 52.4237 60.8336 53.0083C61.5721 53.316 62.3721 53.5314 63.2337 53.6852C63.1106 54.3314 62.9875 54.8852 62.8644 55.2852C62.7106 55.8698 62.4952 56.3314 62.249 56.7314C62.1875 56.8237 62.1567 56.8852 62.0952 56.9775C61.6644 56.8852 61.2336 56.8545 60.8336 56.8545C59.6952 56.8545 58.7721 57.1314 58.0952 57.716C57.4182 58.3006 57.0798 58.9468 57.0798 59.6853C57.0798 60.3006 57.3259 60.793 57.849 61.2237C58.3413 61.6545 59.1106 61.8699 60.0952 61.8699C61.5106 61.8699 62.8337 61.4699 64.0029 60.6699C64.126 60.6083 64.2183 60.516 64.3106 60.4545C64.5567 60.6391 64.8644 60.8545 65.2029 61.1007C66.5568 62.1776 67.7875 63.0084 68.926 63.6545C70.0645 64.2699 71.3568 64.6084 72.7414 64.6084C73.7568 64.6084 74.6491 64.4238 75.3876 64.0238C76.1261 63.6545 76.7107 63.1314 77.1415 62.5161C77.5415 61.9007 77.7569 61.2545 77.7569 60.5776C77.7569 60.0853 77.6338 59.6853 77.4184 59.3776C77.1722 59.0699 76.9261 58.9468 76.6492 59.0391C76.3722 59.4083 75.9415 59.716 75.3261 59.9622C74.7107 60.2083 74.003 60.3006 73.1414 60.3006C71.9722 60.3006 70.8337 60.1468 69.7568 59.8083C68.7414 59.5006 67.5722 59.0699 66.2491 58.516C66.4952 58.1776 66.7414 57.8391 66.9568 57.4699C67.6029 56.2698 68.126 55.0083 68.4952 53.6237ZM69.8799 46.8236C70.2799 44.7621 70.7722 43.1313 71.3568 41.9313C71.9414 40.7313 72.6799 40.1159 73.5722 40.1159C74.0645 40.1159 74.4337 40.3005 74.7107 40.7005C74.9876 41.1005 75.1107 41.6851 75.1107 42.4544C75.1107 44.1159 74.7107 45.6851 73.8799 47.1621C73.0491 48.639 71.9414 49.8083 70.526 50.6698C70.0029 51.0083 69.4491 51.2544 68.8952 51.4698L69.6645 47.5313L69.8799 46.8236Z" fill="#005F6B"/>
<path d="M102.865 45.0082C102.157 44.6698 101.542 44.5159 100.988 44.5159C100.711 44.5159 100.495 44.5774 100.342 44.6698C100.188 44.7621 100.126 44.8851 100.157 45.0698C100.28 45.5928 100.372 46.2698 100.372 47.0698C100.372 48.6698 100.126 50.4544 99.6032 52.3929C99.0801 54.3314 98.4032 55.9929 97.6032 57.316C96.7724 58.6699 95.9724 59.316 95.1416 59.316C94.8031 59.316 94.557 59.1929 94.4031 58.9776C94.2493 58.7314 94.157 58.3929 94.157 57.9314C94.157 57.4391 94.2493 56.6698 94.4339 55.6237C94.6185 54.5775 94.8339 53.5314 95.0801 52.516C95.5416 50.239 95.7878 48.8544 95.7878 48.3313C95.7878 47.7775 95.5724 47.2544 95.1416 46.7005C94.7108 46.1775 94.157 45.7159 93.5416 45.3775C92.9262 45.039 92.3108 44.8544 91.7877 44.8544C91.1723 44.8544 90.8954 45.1005 90.8954 45.5928C90.9262 45.9621 90.8339 46.7313 90.6185 47.8698C90.4031 49.0082 90.1877 50.1775 89.9723 51.3775C89.7262 52.639 89.48 53.8698 89.2646 55.1006C89.1723 55.6852 89.08 56.1775 89.0185 56.6083C88.5262 57.2545 88.0031 57.8083 87.4185 58.2391C86.6492 58.8237 86.0031 59.1314 85.5108 59.1314C85.2031 59.1314 84.9877 59.0391 84.8646 58.8237C84.7415 58.6083 84.68 58.3622 84.68 58.0545C84.68 57.4083 85.0184 55.5006 85.6646 52.3621C85.8492 51.4698 86.0338 50.6083 86.1877 49.839C86.3415 49.0698 86.4031 48.5467 86.4031 48.3313C86.4031 47.7467 86.1569 47.1929 85.6954 46.6698C85.2338 46.1467 84.68 45.6851 84.0338 45.3467C83.3877 45.0082 82.8338 44.8236 82.3415 44.8236C82.0953 44.8236 81.9107 44.8851 81.7569 44.9774C81.603 45.1005 81.5415 45.2544 81.5415 45.5005C81.5415 45.8698 81.4492 46.639 81.2338 47.8082C81.0184 48.9467 80.803 50.1467 80.5569 51.3775C80.2799 52.7314 80.0338 54.0852 79.8184 55.4083C79.603 56.7314 79.4799 57.6545 79.4799 58.1776C79.4799 58.8237 79.6953 59.4699 80.1261 60.116C80.5569 60.7622 81.1107 61.2853 81.8492 61.6853C82.5877 62.0853 83.3569 62.2699 84.2184 62.2699C85.2031 62.2699 86.1877 61.9007 87.1723 61.193C87.9723 60.6083 88.68 59.9622 89.2339 59.2237C89.3262 59.4699 89.4492 59.716 89.6031 59.9314C90.0646 60.6699 90.68 61.2237 91.4493 61.6237C92.2185 62.0237 93.08 62.2391 94.0031 62.2391C95.8493 62.2391 97.6339 61.4699 99.3878 59.9006C101.142 58.3314 102.588 56.4852 103.726 54.3314C104.834 52.1775 105.419 50.2698 105.419 48.6698C105.419 47.8082 105.172 47.039 104.649 46.3621C104.157 45.839 103.572 45.3467 102.865 45.0082Z" fill="#005F6B"/>
<path d="M152.588 46.0236C152.342 45.839 152.034 45.7467 151.634 45.7467C151.019 45.7467 150.311 45.9313 149.542 46.2698C149.419 46.3313 149.265 46.3929 149.142 46.4852C148.619 46.1159 148.004 45.7775 147.357 45.4698C146.188 44.9775 145.019 44.7006 143.85 44.7006C142.311 44.7006 140.896 45.2236 139.573 46.3006C138.25 47.3775 137.203 48.7621 136.403 50.4852C135.634 52.2083 135.234 53.9929 135.234 55.8083C135.234 56.1776 135.265 56.5468 135.296 56.8853C134.865 57.4083 134.403 57.8699 133.942 58.2391C133.173 58.8237 132.557 59.1007 132.065 59.1007C131.511 59.1007 131.234 58.7314 131.234 57.993C131.234 57.5314 131.296 56.9468 131.45 56.2083C131.603 55.4699 131.819 54.6699 132.096 53.716C132.342 52.8237 132.557 51.9929 132.711 51.2237C132.865 50.4544 132.957 49.8391 132.957 49.3467C132.957 48.5467 132.711 47.8083 132.219 47.1313C131.726 46.4544 131.111 45.9006 130.342 45.5313C129.603 45.1621 128.834 44.9467 128.065 44.9467C126.803 44.9467 125.603 45.5313 124.465 46.7006C123.357 47.8083 122.403 49.3467 121.542 51.2545C121.973 49.2852 122.188 48.0852 122.188 47.6237C122.188 47.1929 121.973 46.7621 121.542 46.3621C121.111 45.9621 120.619 45.6236 120.034 45.3467C119.449 45.0698 118.926 44.9467 118.496 44.9467C117.942 44.9467 117.665 45.1621 117.665 45.5621C117.665 45.8698 117.542 46.639 117.326 47.8698C117.111 49.1006 116.865 50.4237 116.588 51.8083C116.28 53.3775 116.003 54.8852 115.757 56.3314C115.726 56.4853 115.696 56.6391 115.696 56.7622C115.234 57.3776 114.742 57.8699 114.188 58.3007C113.419 58.8853 112.772 59.193 112.28 59.193C111.972 59.193 111.757 59.1007 111.634 58.8853C111.511 58.6699 111.449 58.4237 111.449 58.116C111.449 57.4699 111.788 55.5622 112.434 52.4237C112.619 51.5314 112.803 50.6698 112.957 49.9006C113.111 49.1314 113.173 48.6083 113.173 48.3929C113.173 47.8083 112.926 47.2544 112.465 46.7313C112.003 46.2083 111.449 45.7467 110.803 45.4083C110.157 45.0698 109.603 44.8852 109.111 44.8852C108.865 44.8852 108.68 44.9467 108.526 45.039C108.372 45.1621 108.311 45.3159 108.311 45.5621C108.311 45.9313 108.219 46.7006 108.003 47.8698C107.788 49.0083 107.572 50.2083 107.326 51.4391C107.049 52.7929 106.803 54.1468 106.588 55.4699C106.372 56.793 106.249 57.716 106.249 58.2391C106.249 58.8853 106.465 59.5314 106.896 60.1776C107.326 60.8238 107.88 61.3468 108.619 61.7468C109.357 62.1468 110.126 62.3315 110.988 62.3315C111.972 62.3315 112.957 61.9622 113.942 61.2545C114.557 60.8238 115.08 60.3314 115.573 59.8084C115.665 60.0853 115.819 60.3314 116.034 60.5776C116.434 61.0699 116.957 61.4699 117.542 61.7776C118.126 62.0853 118.68 62.2392 119.173 62.2392C119.665 62.2392 119.942 62.0545 120.003 61.7161C120.496 58.9161 121.173 56.4853 122.065 54.3929C122.926 52.3006 123.85 50.6698 124.773 49.5621C125.696 48.4237 126.465 47.8698 127.08 47.8698C127.45 47.8698 127.665 48.1775 127.665 48.8237C127.665 49.2237 127.603 49.7775 127.45 50.4544C127.296 51.1314 127.111 51.8698 126.896 52.7006C126.588 53.9006 126.373 54.916 126.188 55.6853C126.034 56.4853 125.942 57.193 125.942 57.8699C125.942 58.8545 126.188 59.6853 126.65 60.3622C127.111 61.0391 127.696 61.5315 128.403 61.8699C129.111 62.2084 129.85 62.3622 130.588 62.3622C131.665 62.3622 132.68 62.0238 133.696 61.3161C134.588 60.7007 135.357 59.9622 135.942 59.1622C136.157 59.6853 136.465 60.1468 136.803 60.5468C137.788 61.7161 139.111 62.3007 140.773 62.3007C142.127 62.3007 143.296 61.8084 144.219 60.8238C145.05 59.9314 145.727 58.7622 146.28 57.316C146.034 59.4391 145.727 61.4084 145.327 63.2238C144.742 63.3469 144.188 63.5007 143.604 63.7161C141.603 64.3622 139.942 65.2238 138.588 66.3315C137.234 67.4392 136.588 68.6084 136.588 69.87C136.588 70.8546 137.019 71.6854 137.85 72.3315C138.68 72.9777 139.788 73.3162 141.142 73.3162C143.019 73.3162 144.65 72.67 146.034 71.3777C147.419 70.0854 148.496 68.4238 149.327 66.3623C149.542 65.8084 149.727 65.2546 149.911 64.6699C149.942 64.6699 149.973 64.6699 150.004 64.6699C150.373 64.6699 150.804 64.6699 151.357 64.7007C151.511 64.7007 151.665 64.6392 151.757 64.5469C151.85 64.4238 151.911 64.3007 151.911 64.1776C151.911 63.8084 151.696 63.5007 151.265 63.2238C151.05 63.0699 150.773 62.9776 150.434 62.8853C150.68 61.8392 150.896 60.7315 151.019 59.593C151.388 56.8237 151.696 54.4852 152.004 52.5775C152.311 50.6698 152.619 48.8852 152.988 47.2544C153.05 47.1313 153.081 47.0083 153.081 46.8852C152.957 46.4544 152.834 46.2083 152.588 46.0236ZM144.034 57.9622C143.45 58.7314 142.865 59.1314 142.25 59.1314C141.727 59.1314 141.327 58.8853 141.08 58.3622C140.834 57.8699 140.68 57.0699 140.68 56.0545C140.68 54.6699 140.865 53.2852 141.265 51.9006C141.665 50.5468 142.188 49.4083 142.865 48.5467C143.542 47.6852 144.219 47.2544 144.927 47.2544C145.357 47.2544 145.788 47.4083 146.188 47.716C146.588 48.0237 146.927 48.4237 147.204 48.916C146.773 51.1314 146.28 53.0083 145.727 54.4852C145.204 56.0545 144.619 57.193 144.034 57.9622ZM140.496 71.07C139.788 71.07 139.419 70.7008 139.419 69.9931C139.419 69.1315 139.942 68.27 140.988 67.4084C141.973 66.6392 143.173 65.993 144.65 65.4699C144.25 66.793 143.788 67.9623 143.265 68.8854C142.465 70.3623 141.542 71.07 140.496 71.07Z" fill="#005F6B"/>
</svg>
