<svg width="201" height="90" viewBox="0 0 201 90" fill="none" xmlns="http://www.w3.org/2000/svg">
<path d="M152.472 34.9333C158.659 32.061 162.063 26.9021 158.853 19.9417C155.418 12.49 149.809 11.2491 143.007 14.4049L141.852 14.9403L151.317 35.4688L152.472 34.9333Z" fill="#808391"/>
<path d="M74.4162 47.5365L62.037 60.1912C59.374 58.1818 56.0704 58.0054 53.0745 59.3975C46.4107 62.4903 45.4624 70.0995 48.408 76.4992C51.1024 82.3321 57.1695 86.1745 63.224 83.3652C66.1445 82.0109 69.2409 78.8677 68.6317 75.2269L60.1968 79.1385L54.4249 66.6224L76.0554 56.5881C75.0191 53.5331 74.4853 50.497 74.4162 47.5365Z" fill="#808391"/>
<path d="M140.005 60.0031L136.582 52.5766C134.604 61.8235 127.896 69.5776 118.318 74.0184C108.08 78.7678 97.0892 78.5726 88.5161 73.1113C88.3905 74.9254 88.0639 76.8025 87.4547 78.7867C86.1985 82.9315 83.9626 86.736 81.0986 89.9863H163.262V49.2193L140.005 60.0031Z" fill="#808391"/>
<path d="M74.5477 44.0848C75.584 33.4521 82.5555 24.2052 93.0882 19.3172C102.635 14.889 113.004 15.0213 121.376 19.6133L115.554 6.99007L130.634 -0.00810906H38.8799V47.0391C40.7327 45.7289 42.755 44.551 44.9407 43.5368C53.2123 39.7007 66.1756 38.4724 74.5477 44.0848Z" fill="#808391"/>
<path d="M110.077 56.1605C115.102 53.8299 116.917 48.5073 114.436 43.1216C112.125 38.1139 106.918 35.4369 101.649 37.8872C96.3793 40.3249 95.0415 46.0381 97.3528 51.0458C99.8337 56.4314 105.053 58.4912 110.077 56.1605Z" fill="#808391"/>
<path d="M60.1964 79.139L68.6313 75.2273C69.2406 78.8745 66.1442 82.0114 63.2174 83.3719C57.1629 86.175 51.0958 82.3389 48.4076 76.4997C45.4557 70.1 46.4041 62.4908 53.0742 59.398C56.07 58.0059 59.3674 58.1886 62.0304 60.198L74.4158 47.537C74.4849 50.4975 75.0188 53.5336 76.0488 56.5949L54.4245 66.6229L60.1964 79.139ZM101.649 37.8869C106.918 35.4429 112.125 38.12 114.43 43.1277C116.917 48.507 115.102 53.8297 110.077 56.1603C105.047 58.4972 99.8336 56.4312 97.3527 51.0518C95.0415 46.0441 96.3792 40.3309 101.649 37.8869ZM143.007 14.4043C149.809 11.2485 155.417 12.4894 158.853 19.9411C162.062 26.9015 158.658 32.0604 152.472 34.9327L151.316 35.4681L141.851 14.9397L143.007 14.4043ZM88.5096 73.1109C97.089 78.5721 108.08 78.7674 118.311 74.0242C127.889 69.5835 134.603 61.8231 136.575 52.5762L139.998 60.009L163.256 49.2188V-0.00151758H130.634L115.554 6.99037L121.376 19.6198C113.004 15.0279 102.635 14.8956 93.0882 19.3238C82.5493 24.2118 75.584 33.4587 74.5477 44.0914C66.1756 38.479 53.2123 39.7073 44.9407 43.5434C42.755 44.5576 40.7327 45.7355 38.8799 47.0457V89.9922H81.0984C83.9561 86.7419 86.192 82.931 87.4544 78.7863C88.0637 76.8084 88.3903 74.9313 88.5096 73.1109Z" fill="white"/>
</svg>
