<svg width="201" height="92" viewBox="0 0 201 92" fill="none" xmlns="http://www.w3.org/2000/svg">
<path d="M151.969 39.6309H49.8799V79.3952H151.969V39.6309Z" fill="#3EBBC4"/>
<path d="M74.529 1.6875H49.8799V39.8686H74.529V1.6875Z" fill="#E8652E"/>
<path d="M151.969 79.1562H49.8799V91.6867H151.969V79.1562Z" fill="#1E305A"/>
<path d="M127.933 1.6875H98.46V39.8686H127.933V1.6875Z" fill="#ED3F28"/>
<path d="M98.6998 1.6875H74.29V39.8686H98.6998V1.6875Z" fill="#9E2C21"/>
<path d="M151.97 1.6875H127.693V39.8686H151.97V1.6875Z" fill="#B51F31"/>
<path d="M52.6543 29.5922V12.7476C52.6543 7.27193 56.8557 4.20898 62.2245 4.20898C67.2197 4.20898 71.4678 6.94691 71.4678 12.0514V15.5316H65.4455V12.562C65.4455 10.7986 64.0919 9.77788 62.3179 9.77788C60.3572 9.77788 59.3301 11.0306 59.3301 12.887V29.4533C59.3301 31.4022 60.3572 32.6552 62.3179 32.6552C64.3253 32.6552 65.119 31.5416 65.119 29.8245V25.2304H61.7111V20.2651H71.5145V30.1492C71.5145 35.3465 67.9199 38.3162 62.3179 38.3162C56.8093 38.3162 52.6543 35.3462 52.6543 29.5922Z" fill="#FFF7E7"/>
<path d="M82.1527 4.67188H91.1159L97.605 37.8045H90.9292L89.5753 30.3799H82.8064L81.4525 37.8045H75.3838L82.1527 4.67188ZM88.5017 25.0899L86.3077 12.0503H86.1674L83.88 25.0899H88.5017Z" fill="#FFF7E7"/>
<path d="M101.235 4.71875H109.638L113.232 17.8975H113.372L117.107 4.71875H125.137V37.8049H119.301V14.5565H119.208L115.473 28.6634H110.945L107.117 14.6028H107.023V37.8049H101.234L101.235 4.71875Z" fill="#FFF7E7"/>
<path d="M131.697 4.71875H147.71V10.241H138.233V18.0367H145.749V23.6054H138.233V32.1901H147.756V37.8049H131.697V4.71875Z" fill="#FFF7E7"/>
<path d="M53.3408 66.9988L59.5032 66.8132C59.6899 68.8549 60.1566 71.2214 62.491 71.2214C64.3581 71.2214 64.9184 69.6437 64.9184 68.1587C64.9184 66.3492 63.7515 65.0032 61.8373 63.1935L58.6627 60.0844C55.6749 57.3 53.8543 54.5623 53.8543 50.9429C53.8543 46.3488 56.7487 42.4043 62.6777 42.4043C66.8324 42.4043 70.7073 44.5391 70.9874 51.778L65.1985 51.9638C64.9651 49.5507 64.4047 47.6482 62.3507 47.6482C60.7168 47.6482 59.9697 48.9009 59.9697 50.4323C59.9697 52.1956 61.7903 53.8661 63.3776 55.3511L66.3187 58.2282C69.5399 61.2909 71.3606 64.1217 71.3606 67.8339C71.3606 72.7062 67.9996 76.5579 62.4441 76.5579C56.8888 76.5579 53.6676 72.892 53.3408 66.9988Z" fill="#FFF7E7"/>
<path d="M74.582 42.9609H81.1645V56.3717H86.9534V42.9609H93.5358V76.0471H86.9534V62.3116H81.1645V76.0471H74.582V42.9609Z" fill="#FFF7E7"/>
<path d="M96.4902 67.5094V51.4537C96.4902 45.5603 100.645 42.4512 106.154 42.4512C111.522 42.4512 115.771 45.2355 115.771 51.3607V67.4166C115.771 73.5882 111.476 76.5581 106.107 76.5581C100.412 76.5581 96.4902 73.681 96.4902 67.5094ZM109.142 67.6486V51.1751C109.142 49.2726 107.928 48.1588 106.107 48.1588C104.146 48.1588 103.166 49.3651 103.166 51.2215V67.6022C103.166 69.4583 104.193 70.8041 106.154 70.8041C108.114 70.8041 109.142 69.4583 109.142 67.6486Z" fill="#FFF7E7"/>
<path d="M118.277 42.9609H124.766L127.427 62.7291H127.568L130.509 42.9609H136.811L139.612 62.6363H139.705L142.366 42.9609H148.155L142.786 76.1866H136.671L133.45 55.119H133.263L129.949 76.1866H123.74L118.277 42.9609Z" fill="#FFF7E7"/>
<path d="M55.4053 81.3457H57.7762L60.472 84.6709V81.3457H62.984V88.8785H60.732L57.917 85.4027V88.8785H55.4053V81.3457Z" fill="#3EBBC4"/>
<path d="M69.2598 81.3457H75.723V83.4119H71.7497V84.1759H75.4525V85.9947H71.7497V86.8125H75.7771V88.8788H69.2598V81.3457Z" fill="#3EBBC4"/>
<path d="M83.8064 83.4764H81.5762V81.3457H88.5701V83.4764H86.3399V88.8785H83.8064V83.4764Z" fill="#3EBBC4"/>
<path d="M94.1211 81.3459H96.7738L97.8455 84.9615L99.0691 81.3242H101.256L102.479 84.9615L103.551 81.3459H106.16L103.681 88.9325H101.472L100.141 85.1876L98.8092 88.9325H96.6005L94.1211 81.3459Z" fill="#3EBBC4"/>
<path d="M111.396 85.1331V85.1114C111.396 82.9267 113.204 81.1836 115.543 81.1836C117.881 81.1836 119.668 82.9053 119.668 85.0898V85.1114C119.668 87.2959 117.859 89.0393 115.521 89.0393C113.183 89.0393 111.396 87.3176 111.396 85.1331ZM117.113 85.1331V85.1114C117.113 84.2182 116.496 83.4112 115.521 83.4112C114.558 83.4112 113.952 84.2075 113.952 85.0898V85.1114C113.952 86.0047 114.569 86.8117 115.543 86.8117C116.506 86.8117 117.113 86.0154 117.113 85.1331Z" fill="#3EBBC4"/>
<path d="M125.77 81.3457H129.472C130.814 81.3457 131.67 81.6793 132.2 82.2066C132.655 82.6586 132.893 83.218 132.893 83.993V84.0144C132.893 85.1122 132.319 85.8762 131.399 86.3174L133.164 88.8785H130.273L128.844 86.7264H128.303V88.8785H125.77V81.3457ZM129.396 84.9293C130.003 84.9293 130.371 84.6601 130.371 84.1974V84.1757C130.371 83.6915 129.992 83.4548 129.407 83.4548H128.303V84.929H129.396V84.9293Z" fill="#3EBBC4"/>
<path d="M138.92 81.3457H141.453V84.165L143.608 81.3457H146.552L143.911 84.6171L146.607 88.8785H143.586L142.103 86.4896L141.454 87.2751V88.8785H138.92V81.3457Z" fill="#3EBBC4"/>
</svg>
