<svg width="201" height="90" viewBox="0 0 201 90" fill="none" xmlns="http://www.w3.org/2000/svg">
<path fill-rule="evenodd" clip-rule="evenodd" d="M83.5114 55.2637H140.354C142.097 55.2637 143.511 56.6775 143.511 58.4216V67.8953C143.511 69.6393 142.097 71.0531 140.354 71.0531H83.5114C81.7674 71.0531 80.3535 69.6393 80.3535 67.8953V58.4216C80.3535 56.6775 81.7674 55.2637 83.5114 55.2637ZM84.3009 58.4216H139.564C140 58.4216 140.354 58.775 140.354 59.211V67.1058C140.354 67.5418 140 67.8953 139.564 67.8953H84.3009C83.8649 67.8953 83.5114 67.5418 83.5114 67.1058V59.211C83.5114 58.775 83.8649 58.4216 84.3009 58.4216Z" fill="black"/>
<path fill-rule="evenodd" clip-rule="evenodd" d="M62.9849 55.2637H72.4586C75.0747 55.2637 77.1954 57.3844 77.1954 60.0005V66.3163C77.1954 68.9324 75.0747 71.0531 72.4586 71.0531H62.9849C60.3688 71.0531 58.248 68.9324 58.248 66.3163V60.0005C58.248 57.3844 60.3688 55.2637 62.9849 55.2637ZM62.9849 58.4216H72.4586C73.3306 58.4216 74.0375 59.1285 74.0375 60.0005V66.3163C74.0375 67.1884 73.3306 67.8953 72.4586 67.8953H62.9849C62.1128 67.8953 61.4059 67.1884 61.4059 66.3163V60.0005C61.4059 59.1285 62.1128 58.4216 62.9849 58.4216Z" fill="black"/>
<path d="M72.4586 74.2109H62.9849C60.3688 74.2109 58.248 76.3315 58.248 78.9478V85.2636C58.248 87.8799 60.3688 90.0004 62.9849 90.0004H72.4586C75.0747 90.0004 77.1954 87.8799 77.1954 85.2636V78.9478C77.1954 76.3315 75.0747 74.2109 72.4586 74.2109Z" fill="#1F2025"/>
<path d="M72.4586 36.3164H62.9849C60.3688 36.3164 58.248 38.4372 58.248 41.0532V47.369C58.248 49.9851 60.3688 52.1059 62.9849 52.1059H72.4586C75.0747 52.1059 77.1954 49.9851 77.1954 47.369V41.0532C77.1954 38.4372 75.0747 36.3164 72.4586 36.3164Z" fill="#1F2025"/>
<path d="M113.511 36.3164H83.5114C81.7674 36.3164 80.3535 37.7303 80.3535 39.4743V48.948C80.3535 50.692 81.7674 52.1059 83.5114 52.1059H113.511C115.255 52.1059 116.669 50.692 116.669 48.948V39.4743C116.669 37.7303 115.255 36.3164 113.511 36.3164Z" fill="#1F2025"/>
<path d="M140.353 36.3164H122.985C121.241 36.3164 119.827 37.7303 119.827 39.4743V48.948C119.827 50.692 121.241 52.1059 122.985 52.1059H140.353C142.097 52.1059 143.511 50.692 143.511 48.948V39.4743C143.511 37.7303 142.097 36.3164 140.353 36.3164Z" fill="#1F2025"/>
<path d="M129.301 74.2109H83.5114C81.7674 74.2109 80.3535 75.6249 80.3535 77.3688V86.8425C80.3535 88.5865 81.7674 90.0004 83.5114 90.0004H129.301C131.045 90.0004 132.459 88.5865 132.459 86.8425V77.3688C132.459 75.6249 131.045 74.2109 129.301 74.2109Z" fill="#1F2025"/>
<path d="M130.09 14.4406L122.196 9.70377C121.957 9.56585 121.686 9.4929 121.41 9.49219C121.135 9.4914 120.864 9.56285 120.624 9.69935C120.385 9.83585 120.185 10.0327 120.045 10.2704C119.905 10.508 119.83 10.7781 119.827 11.0538V20.5275C119.827 20.9462 119.993 21.3478 120.29 21.6439C120.586 21.9401 120.987 22.1064 121.406 22.1064C121.685 22.1011 121.957 22.0221 122.196 21.8775L130.09 17.1406C130.446 16.9284 130.703 16.5855 130.808 16.1854C130.913 15.7853 130.856 15.3601 130.651 15.0011C130.519 14.7662 130.326 14.5722 130.09 14.4406Z" fill="black"/>
<path d="M144.301 0H57.4588C57.0401 0 56.6385 0.16635 56.3423 0.462466C56.0462 0.758574 55.8799 1.16019 55.8799 1.57895V30.7895C55.8799 31.2082 56.0462 31.6098 56.3423 31.9059C56.6385 32.2021 57.0401 32.3684 57.4588 32.3684H144.301C144.719 32.3684 145.121 32.2021 145.417 31.9059C145.713 31.6098 145.88 31.2082 145.88 30.7895V1.57895C145.88 1.16019 145.713 0.758574 145.417 0.462466C145.121 0.16635 144.719 0 144.301 0ZM92.9851 21.45C92.9851 21.8331 92.8329 22.2006 92.562 22.4716C92.291 22.7425 91.9235 22.8947 91.5404 22.8947H61.272C60.8889 22.8947 60.5214 22.7425 60.2504 22.4716C59.9795 22.2006 59.8273 21.8331 59.8273 21.45V18.0237C59.8273 17.6406 59.9795 17.2731 60.2504 17.0021C60.5214 16.7312 60.8889 16.5789 61.272 16.5789H91.5404C91.9235 16.5789 92.291 16.7312 92.562 17.0021C92.8329 17.2731 92.9851 17.6406 92.9851 18.0237V21.45ZM99.3009 11.0526C99.3009 11.4714 99.1346 11.873 98.8385 12.1691C98.5423 12.4652 98.1407 12.6316 97.722 12.6316H61.4062C60.9875 12.6316 60.5859 12.4652 60.2897 12.1691C59.9936 11.873 59.8273 11.4714 59.8273 11.0526V7.89474C59.8273 7.476 59.9936 7.07439 60.2897 6.77826C60.5859 6.48213 60.9875 6.31579 61.4062 6.31579H97.722C98.1407 6.31579 98.5423 6.48213 98.8385 6.77826C99.1346 7.07439 99.3009 7.476 99.3009 7.89474V11.0526ZM142.722 26.8421C142.722 27.2608 142.555 27.6624 142.259 27.9586C141.963 28.2547 141.561 28.4211 141.143 28.4211H106.406C105.987 28.4211 105.586 28.2547 105.29 27.9586C104.994 27.6624 104.827 27.2608 104.827 26.8421V4.73684C104.827 4.31811 104.994 3.9165 105.29 3.62037C105.586 3.32424 105.987 3.15789 106.406 3.15789H141.143C141.561 3.15789 141.963 3.32424 142.259 3.62037C142.555 3.9165 142.722 4.31811 142.722 4.73684V26.8421Z" fill="black"/>
<path d="M144.301 0H57.4588C57.0401 0 56.6385 0.16635 56.3423 0.462466C56.0462 0.758574 55.8799 1.16019 55.8799 1.57895V30.7895C55.8799 31.2082 56.0462 31.6098 56.3423 31.9059C56.6385 32.2021 57.0401 32.3684 57.4588 32.3684H144.301C144.719 32.3684 145.121 32.2021 145.417 31.9059C145.713 31.6098 145.88 31.2082 145.88 30.7895V1.57895C145.88 1.16019 145.713 0.758574 145.417 0.462466C145.121 0.16635 144.719 0 144.301 0ZM92.9851 21.45C92.9851 21.8331 92.8329 22.2006 92.562 22.4716C92.291 22.7425 91.9235 22.8947 91.5404 22.8947H61.272C60.8889 22.8947 60.5214 22.7425 60.2504 22.4716C59.9795 22.2006 59.8273 21.8331 59.8273 21.45V18.0237C59.8273 17.6406 59.9795 17.2731 60.2504 17.0021C60.5214 16.7312 60.8889 16.5789 61.272 16.5789H91.5404C91.9235 16.5789 92.291 16.7312 92.562 17.0021C92.8329 17.2731 92.9851 17.6406 92.9851 18.0237V21.45ZM99.3009 11.0526C99.3009 11.4714 99.1346 11.873 98.8385 12.1691C98.5423 12.4652 98.1407 12.6316 97.722 12.6316H61.4062C60.9875 12.6316 60.5859 12.4652 60.2897 12.1691C59.9936 11.873 59.8273 11.4714 59.8273 11.0526V7.89474C59.8273 7.476 59.9936 7.07439 60.2897 6.77826C60.5859 6.48213 60.9875 6.31579 61.4062 6.31579H97.722C98.1407 6.31579 98.5423 6.48213 98.8385 6.77826C99.1346 7.07439 99.3009 7.476 99.3009 7.89474V11.0526ZM142.722 26.8421C142.722 27.2608 142.555 27.6624 142.259 27.9586C141.963 28.2547 141.561 28.4211 141.143 28.4211H106.406C105.987 28.4211 105.586 28.2547 105.29 27.9586C104.994 27.6624 104.827 27.2608 104.827 26.8421V4.73684C104.827 4.31811 104.994 3.9165 105.29 3.62037C105.586 3.32424 105.987 3.15789 106.406 3.15789H141.143C141.561 3.15789 141.963 3.32424 142.259 3.62037C142.555 3.9165 142.722 4.31811 142.722 4.73684V26.8421Z" fill="black"/>
</svg>
