<svg width="201" height="91" viewBox="0 0 201 91" fill="none" xmlns="http://www.w3.org/2000/svg">
<path d="M63.2289 72.284C61.6887 71.181 59.5233 70.6074 56.9793 70.6074H49.9209V72.905H51.7591V85.8268H49.9209V88.1246H57.4647C60.3469 88.1246 62.6813 87.2054 64.4091 85.3896C65.9017 83.7462 66.7163 81.5984 66.6883 79.3786C66.6883 76.4378 65.4309 73.8644 63.2327 72.2872M54.5971 72.909H56.5565C58.5013 72.909 59.9311 73.2394 61.0599 73.9492C62.7841 75.0298 63.7765 77.0262 63.7765 79.4302C63.8331 81.3576 63.0091 83.2058 61.5377 84.452C60.2915 85.4558 58.9643 85.8308 56.6411 85.8308H54.6009V72.905L54.5971 72.909Z" fill="black"/>
<path d="M81.3753 82.8629C84.8311 82.2857 87.0039 79.9879 87.0039 76.7713C87.0331 74.6049 85.8693 72.5981 83.9745 71.5475C82.8275 70.8855 81.5005 70.5879 79.6807 70.5879H71.3945V72.8857H73.2325V85.8075H71.3945V88.1049H77.8867V85.8075H76.0669V82.9731H77.4343L83.5773 88.1197H87.0551V85.8221H84.8899L81.3753 82.8629ZM76.0669 72.9041H79.2099C80.1981 72.8549 81.1833 73.0505 82.0775 73.4741C83.3103 74.0933 84.0727 75.3705 84.0331 76.7495C84.0621 78.0373 83.4347 79.2517 82.3679 79.9735C81.5515 80.4773 80.5921 80.7089 79.1549 80.7089H76.0669V72.9041Z" fill="black"/>
<path d="M101.848 70.6074H99.2049L92.9259 85.8234H91.3047V88.121H97.1867V85.8234H95.7713L96.9219 82.9154H103.859L105.054 85.8234H103.477V88.121H109.914V85.8234H108.101L101.848 70.6074ZM102.874 80.5332H97.8961L100.33 74.453L102.874 80.5332Z" fill="black"/>
<path d="M133.207 72.9052H135.335V70.6074H130.156L125.483 82.7134L120.862 70.6074H115.624V72.9052H117.836L115.991 85.8234H114.219V88.1212H120.355V85.8234H118.774L120.108 76.2138L124.56 88.1212H126.314L130.85 76.1624L132.214 85.8234H130.634V88.1212H136.769V85.8234H135.052L133.207 72.9052Z" fill="black"/>
<path d="M157.767 85.8234L151.518 70.6074H148.878L142.607 85.8234H140.985V88.121H146.867V85.8234H145.437L146.588 82.9154H153.525L154.72 85.8234H153.143V88.121H159.58V85.8234H157.764H157.767ZM152.951 80.5186H147.973L150.418 74.449L152.951 80.5186Z" fill="black"/>
<path d="M176.795 46.0313C175.674 46.0313 174.273 47.1563 173.615 47.9943C172.579 49.2147 171.457 50.6189 171.266 52.0381C171.265 52.3547 171.52 52.6127 171.837 52.6143C171.866 52.6143 171.895 52.6123 171.924 52.6079C173.336 52.6079 175.108 51.5713 176.336 50.3583C177.365 49.4245 177.931 48.2995 177.931 47.2627C177.931 46.5275 177.564 46.0459 176.803 46.0459M174.372 27.8745C173.527 27.8745 172.961 28.9993 172.501 30.6793C171.564 34.4291 171.277 41.8293 171.277 46.0461C173.056 42.4875 175.589 34.7123 175.589 30.6059C175.589 28.9183 175.119 27.8891 174.373 27.8891M118.92 10.8901C117.95 10.8597 117.172 10.0807 117.141 9.11094C117.14 8.12834 117.935 7.33074 118.918 7.32954C119.901 7.32834 120.698 8.12394 120.699 9.10654C120.699 9.10794 120.699 9.10954 120.699 9.11094C120.669 10.0805 119.89 10.8595 118.92 10.8901ZM111.145 10.2359C110.175 10.2053 109.396 9.42634 109.365 8.45674C109.365 7.47314 110.163 6.67554 111.147 6.67554C112.131 6.67554 112.928 7.47294 112.928 8.45674C112.897 9.42634 112.118 10.2053 111.149 10.2359M100.936 3.76934C99.9549 3.76934 99.1591 2.97494 99.1569 1.99394C99.1569 1.00914 99.9551 0.210938 100.94 0.210938C101.925 0.210938 102.723 1.00914 102.723 1.99394C102.721 2.97654 101.923 3.77154 100.94 3.76934C100.938 3.76934 100.937 3.76934 100.936 3.76934ZM100.936 28.4001C96.8153 28.4001 92.1133 29.1537 92.1133 30.0911C92.1133 30.9293 96.7967 31.6829 100.936 31.6829C105.076 31.6829 109.759 30.9293 109.759 30.0911C109.759 29.1575 105.064 28.4001 100.936 28.4001ZM100.936 33.0909C96.8153 33.0909 90.2751 32.4329 90.2751 30.0911C90.2751 27.7495 96.8299 27.0877 100.936 27.0877C105.042 27.0877 111.619 27.7421 111.619 30.0911C111.619 32.4403 105.054 33.0909 100.936 33.0909ZM90.7235 10.2285C89.7537 10.1979 88.9747 9.41894 88.9443 8.44914C88.9431 7.46634 89.7387 6.66894 90.7213 6.66754C91.7039 6.66634 92.5015 7.46194 92.5027 8.44454C92.5027 8.44614 92.5027 8.44754 92.5027 8.44894C92.4723 9.41894 91.6933 10.1979 90.7235 10.2285ZM117.332 13.5077C116.119 16.1289 113.399 22.9703 112.278 26.1539C112.178 26.4371 111.99 26.4371 111.707 26.2495C109.27 24.9333 104.962 24.4665 100.936 24.4665C96.9109 24.4665 92.6021 24.9331 90.1649 26.2495C89.8817 26.4371 89.6981 26.4371 89.5987 26.1539C88.4775 22.9703 85.7571 16.1289 84.5403 13.5077C84.4519 13.3619 84.3873 13.2031 84.3491 13.0371C84.3275 12.8089 84.4897 12.6045 84.7167 12.5739C84.9231 12.6089 85.0967 12.7479 85.1763 12.9415C86.3967 14.9083 87.7129 17.1581 88.9261 18.6543C89.2937 19.0219 89.6613 19.4961 90.3305 19.4961C90.8967 19.4961 91.4555 19.0293 91.6465 18.1801C91.7813 16.4323 91.7173 14.6747 91.4555 12.9415C91.3739 12.7249 91.4833 12.4833 91.6999 12.4015C91.7395 12.3867 91.7809 12.3777 91.8231 12.3753C92.0453 12.3719 92.2391 12.5257 92.2863 12.7429C92.9481 14.3345 93.6061 15.9263 94.6317 17.2389C95.0213 17.7927 95.6433 18.1367 96.3193 18.1727C97.0647 18.1197 97.7501 17.7453 98.1979 17.1469C99.7895 14.9889 100.069 9.27994 100.444 6.55934C100.421 6.30054 100.612 6.07194 100.871 6.04914C101.13 6.02614 101.358 6.21734 101.381 6.47634C101.384 6.50394 101.384 6.53174 101.381 6.55954C101.749 9.27614 102.036 14.9891 103.627 17.1471C104.073 17.7437 104.756 18.1179 105.499 18.1729C106.175 18.1369 106.796 17.7929 107.186 17.2391C108.219 15.9265 108.874 14.3349 109.531 12.7431C109.582 12.5261 109.776 12.3731 109.999 12.3755C110.228 12.3861 110.405 12.5805 110.394 12.8097C110.392 12.8549 110.382 12.8995 110.366 12.9417C110.108 14.6753 110.045 16.4327 110.179 18.1803C110.366 19.0257 110.932 19.4963 111.491 19.4963C112.146 19.4963 112.521 19.0295 112.896 18.6545C114.112 17.1583 115.425 14.9085 116.645 12.9417C116.726 12.7465 116.903 12.6075 117.112 12.5741C117.34 12.6029 117.503 12.8087 117.48 13.0373C117.445 13.2033 117.383 13.3623 117.296 13.5079M85.8527 32.7271C83.5109 32.7271 82.7609 39.0061 82.7609 42.8477C82.7609 45.5679 82.9447 48.8437 83.7901 51.2811C85.6613 48.7553 87.8303 42.8477 87.8303 38.1643C87.8303 35.8227 87.7385 32.7309 85.8673 32.7309M82.9447 10.8901C81.9749 10.8597 81.1959 10.0807 81.1653 9.11094C81.1653 8.12614 81.9637 7.32794 82.9483 7.32794C83.9331 7.32794 84.7313 8.12614 84.7313 9.11094C84.7005 10.0833 83.9173 10.8635 82.9447 10.8901ZM71.0483 32.7271C68.6109 32.7271 67.9567 38.7229 67.9567 42.8477C67.9567 46.1267 68.4273 49.1195 69.2693 51.0897C70.9567 48.7479 73.0115 42.8477 73.0115 38.1641C73.0115 35.8225 72.9197 32.7307 71.0485 32.7307M200.69 55.3063C197.316 60.7437 191.79 65.2321 185.044 65.2321C177.736 65.3203 172.77 59.3281 171.27 54.7329C171.27 56.4203 171.27 58.1077 171.182 59.7951C171.182 61.1993 170.711 62.6037 169.307 62.6037C167.987 62.6037 167.428 61.2951 167.428 59.7951V54.9315C166.693 56.0565 164.616 59.1481 161.524 59.1481C155.62 59.1481 155.528 52.2185 155.433 47.9981C155.433 46.8769 155.065 46.2225 154.216 46.2225C153.565 46.2225 153.282 46.4065 152.815 46.4065C152.249 49.9649 149.911 59.1481 144.382 59.1481C141.569 59.1481 139.79 56.7107 138.868 54.0015C138.856 53.9299 138.822 53.8637 138.768 53.8139C138.667 53.8207 138.586 53.9003 138.577 54.0015C137.665 55.1405 136.663 56.2053 135.581 57.1851C134.272 58.3065 132.953 59.1519 131.273 59.1519C129.119 59.1519 127.71 57.9315 127.339 55.9685C126.785 56.7179 126.122 57.3807 125.372 57.9351C124.632 58.6943 123.624 59.1327 122.563 59.1559C119.939 59.1559 118.906 57.4683 118.068 55.4059C117.504 53.9903 117.125 52.5075 116.943 50.9943C116.847 50.8069 116.847 50.7113 116.663 50.7113C116.484 50.7361 116.358 50.8997 116.38 51.0789C116.013 52.0127 115.443 53.6081 114.877 55.0127C113.943 57.1705 112.73 59.1335 110.95 59.1335C108.796 59.1335 108.043 57.1669 107.576 55.4757C107.049 53.8863 106.643 52.2589 106.363 50.6083C106.352 50.4573 106.231 50.3377 106.08 50.3289C105.941 50.4103 105.839 50.5419 105.797 50.6965C105.39 52.1975 104.889 53.6711 104.297 55.1083C103.451 57.1671 102.326 59.1337 100.547 59.1337C98.2087 59.1337 97.4623 56.9795 96.8963 55.2921C96.4115 53.6305 96.0393 51.9379 95.7823 50.2263C95.6831 50.1383 95.6831 49.8585 95.5911 49.7593C95.4577 49.8865 95.3621 50.0481 95.3153 50.2263C94.4955 52.5363 93.2899 54.6905 91.7493 56.5971C90.4407 58.1011 89.0363 59.1303 86.6945 59.1303C84.3529 59.1303 82.6507 57.9097 81.1801 56.2261C79.3337 58.0551 76.8495 59.0965 74.2505 59.1303C70.8757 59.1303 69.1037 58.2845 66.8503 56.0423C64.9791 57.8179 63.0085 59.1303 59.9169 59.1303C56.2627 59.1303 54.0351 56.5053 53.1711 53.9835C53.1351 53.9005 53.0695 53.8337 52.9873 53.7959L52.7961 53.9835C51.9729 55.1685 50.9963 56.2387 49.8919 57.1673C48.5833 58.2883 47.1751 59.1339 45.5835 59.1339C42.5873 59.1339 41.2749 56.8877 41.2749 54.4543C41.2749 50.1419 46.1421 43.5835 54.2005 43.5835C54.8549 43.5835 57.2921 43.7711 57.2921 44.8003C57.3069 45.0435 57.1217 45.2525 56.8787 45.2675C56.8597 45.2685 56.8407 45.2685 56.8217 45.2673H56.6379C55.8627 45.1495 55.0801 45.0881 54.2961 45.0833C50.1789 45.0833 46.5247 50.3291 46.5247 53.5129C46.5247 54.7259 46.8923 55.7589 48.3003 55.7589C50.4545 55.7589 53.7337 50.8917 55.3329 47.1455C55.6085 46.6787 55.7005 46.4875 56.0681 46.4875C56.3927 46.4487 56.6873 46.6803 56.7263 47.0049C56.7319 47.0513 56.7319 47.0991 56.7263 47.1455C57.0937 50.7959 58.6929 56.6009 62.2405 56.6009C63.8361 56.6009 64.6779 56.0457 65.8947 54.8251C64.4023 52.5791 63.4573 49.1049 63.4573 45.1751C63.5491 37.7747 66.5527 31.4995 70.8575 31.4003C74.1405 31.4003 74.7029 34.4957 74.7029 38.1497C74.7029 43.2121 72.3649 49.1049 69.9237 52.6671C70.8611 54.7259 72.9233 56.7111 76.0151 56.6009C77.9857 56.6009 79.2943 56.0457 80.4267 54.9171C79.0149 52.5791 78.0813 49.4875 78.1769 45.1751C78.3607 37.8705 81.3677 31.5731 85.5771 31.4995C88.8563 31.4995 89.5107 34.5911 89.5107 38.1497C89.5107 43.3957 87.1725 49.1049 84.4521 52.9501C85.1875 54.7259 86.4153 56.1301 88.2901 56.1301C91.3817 56.1301 94.0067 49.9505 95.1315 46.8589C95.4991 45.7339 96.2565 44.4251 97.4769 44.4251C98.7819 44.3295 99.4401 45.6381 99.8151 46.8589C100.377 48.5463 101.12 52.3731 101.778 54.1671C102.065 54.6379 102.245 54.9025 102.535 54.9025C102.726 54.9025 102.903 54.6267 103.094 54.1671C103.94 52.4797 104.873 48.9213 105.532 46.7669C105.815 45.7375 106.561 44.4251 107.782 44.4251C109.189 44.3295 109.939 45.7339 110.406 47.1419C110.972 48.6381 111.811 52.8547 112.377 54.3583C112.426 54.6443 112.649 54.8683 112.936 54.9171C113.215 54.9171 113.303 54.7259 113.502 54.3583C114.527 52.2005 115.465 48.8441 116.215 46.6751C116.582 45.7339 117.152 44.4251 118.373 44.4251C119.961 44.4251 120.711 46.2081 121.086 47.7005C121.644 49.5719 122.306 56.2259 124.552 56.2259C125.868 56.2259 126.798 54.8217 127.074 54.1671C127.074 50.2297 131.853 43.5795 139.912 43.5795C140.569 43.5795 143.095 43.6751 143.095 44.7961C143.098 45.0563 142.889 45.2687 142.629 45.2713C142.598 45.2717 142.567 45.2691 142.537 45.2631H142.444C141.678 45.0687 140.89 44.9747 140.099 44.9839C135.989 45.0025 132.313 50.3441 132.313 53.4317C132.313 54.7405 132.596 55.7735 134.004 55.7735C136.154 55.7735 139.441 50.8107 141.025 47.1603C141.308 46.6933 141.496 46.5021 141.76 46.5021C142.066 46.4441 142.36 46.6439 142.418 46.9493C142.432 47.0189 142.432 47.0905 142.418 47.1603C142.885 50.9981 144.198 55.7735 146.161 55.7735C149.069 55.7735 151.307 47.7191 151.307 46.6933C151.317 46.4703 151.213 46.2573 151.032 46.1271C150.442 45.9217 150.06 45.3503 150.094 44.7267C150.094 43.9693 150.462 43.5061 151.311 43.5061C151.857 43.4935 152.349 43.8331 152.532 44.3479C152.812 44.7347 153.272 44.9487 153.749 44.9139C154.686 44.9139 155.344 44.7265 156.278 44.7265C158.06 44.7265 159.649 45.0023 160.028 46.7815C160.594 49.3107 160.594 56.5195 163.498 56.5195C165.186 56.5195 166.957 53.6191 167.432 52.6819C167.432 50.7149 167.531 47.8107 167.714 45.5645C168.273 38.4437 169.115 33.5689 170.432 30.2015C171.266 27.9517 172.578 26.6393 174.273 26.6393C176.611 26.6393 177.082 28.7017 177.082 30.5765C177.082 36.0909 173.803 44.1565 171.567 48.1891C173.909 45.5681 176.622 44.2557 178.872 44.2557C180.75 44.2557 182.717 45.2849 182.717 47.3511C182.717 51.1855 175.688 53.8139 172.689 53.8139C175.118 58.5931 180.368 60.3687 184.964 60.3687C190.673 60.3687 195.735 58.4973 200.231 54.9389C200.343 54.7861 200.506 54.6789 200.69 54.6375C200.814 54.6585 200.898 54.7763 200.877 54.9003C200.876 54.9045 200.875 54.9087 200.874 54.9131C200.849 55.0507 200.786 55.1779 200.69 55.2805M34.6905 54.9133V75.1325C34.6905 77.6691 34.4073 78.5035 33.6503 78.5035C32.8929 78.5035 31.9737 77.5697 31.9737 75.8825C31.9737 68.2949 32.0657 62.7695 32.2495 55.0897C31.3159 55.1817 30.0953 55.1817 28.8785 55.1817C27.2829 55.1817 25.6949 55.0897 24.6619 55.0897C24.5627 61.8355 24.4781 65.9567 24.2943 70.0741C24.1987 71.1071 24.1987 72.5115 23.4489 72.5115C22.7945 72.5115 22.7945 71.1073 22.7945 70.0741C22.7027 67.9199 22.7027 65.7655 22.7027 63.2399V55.0233C16.7141 54.9315 12.2145 54.5565 7.52346 54.0823C6.68186 53.9943 5.18546 53.8065 4.71506 53.1485C4.15626 52.4943 4.24826 51.9355 3.68946 51.2773C3.49826 50.9943 2.84386 50.9943 2.28526 50.9097C1.55006 50.8105 0.880859 50.7185 0.880859 50.1747C0.880859 49.7039 1.53526 49.6085 2.37706 49.5201C7.99806 49.1525 17.2733 48.4909 22.7031 48.2077C22.7949 42.4949 22.9863 37.0615 23.1737 32.6573C23.1737 31.3485 23.2655 30.2237 24.1111 30.2237C24.8463 30.2237 24.8463 31.3447 24.8463 32.6573L24.9383 36.7013C25.0301 40.1641 24.8463 44.1897 24.8463 48.1305L32.4303 47.7627C32.6215 41.4875 32.9009 32.3227 33.2721 26.5951C33.2721 25.8599 33.3677 24.9997 34.1177 24.9997C34.7683 24.9997 34.7683 25.8453 34.7683 26.5951V47.7627H37.2975C38.8893 47.9503 40.5805 48.7003 40.5805 50.4797C40.5805 53.7623 36.1691 54.6999 34.6987 54.9755" fill="black"/>
</svg>
