<svg width="201" height="91" viewBox="0 0 201 91" fill="none" xmlns="http://www.w3.org/2000/svg">
<path d="M67.5323 25.293V41.3115H59.9342V25.293H47.8799V68.3581H59.9342V51.6438H67.5323V68.3581H79.2281V25.293H67.5323Z" fill="black"/>
<path d="M132.843 55.3532C137.602 55.3532 141.461 51.4944 141.461 46.736C141.461 41.9775 137.602 38.1187 132.843 38.1187C128.085 38.1187 124.226 41.9775 124.226 46.736C124.226 51.4944 128.085 55.3532 132.843 55.3532ZM121.878 46.736C121.878 40.6842 126.785 35.7711 132.843 35.7711C138.895 35.7711 143.808 40.6772 143.808 46.736C143.808 52.7877 138.902 57.7008 132.843 57.7008C126.792 57.6938 121.878 52.7877 121.878 46.736ZM106.619 46.736C107.976 46.5673 110.239 45.0139 111.033 44.0229C110.752 45.2529 110.731 48.8024 111.061 50.0325C110.148 48.6267 107.997 46.9047 106.619 46.736ZM98.7398 35.1245C100.462 35.1245 101.818 36.8254 101.818 38.7654C101.818 40.7053 100.462 42.4063 98.7398 42.4063H92.8216V35.1245H98.7398ZM98.7117 51.2976C100.434 51.2976 101.79 52.9986 101.79 54.9385C101.79 56.8785 100.434 58.5794 98.7117 58.5794H92.7935V51.2976H98.7117ZM132.836 68.8203C144.898 68.8133 154.717 58.7903 154.717 46.7219C154.717 34.4005 144.905 24.8273 132.836 24.8203C120.789 24.8133 114.625 33.6836 113.107 37.2612C113.121 31.8842 107.821 25.5443 101.629 25.5372H81.667V68.6024H100.279C107.786 68.6024 113.128 62.1008 113.135 56.527C114.843 60.0414 120.789 68.8203 132.836 68.8203Z" fill="black"/>
<path d="M151.462 28.0046V27.0557H152.095C152.418 27.0557 152.762 27.126 152.762 27.5055C152.762 27.9765 152.411 28.0046 152.017 28.0046H151.462ZM151.462 28.3982H151.996L152.805 29.7266H153.325L152.453 28.3771C152.903 28.3209 153.247 28.0819 153.247 27.5337C153.247 26.9292 152.889 26.6621 152.165 26.6621H150.998V29.7337H151.462V28.3982ZM152.024 30.8512C153.472 30.8512 154.709 29.7266 154.709 28.1803C154.709 26.6551 153.472 25.5234 152.024 25.5234C150.562 25.5234 149.318 26.648 149.318 28.1803C149.318 29.7266 150.562 30.8512 152.024 30.8512ZM149.86 28.1873C149.86 26.9292 150.808 25.9733 152.031 25.9733C153.233 25.9733 154.182 26.9222 154.182 28.1873C154.182 29.4666 153.233 30.4084 152.031 30.4084C150.808 30.4084 149.86 29.4666 149.86 28.1873Z" fill="black"/>
</svg>
