<svg width="201" height="90" viewBox="0 0 201 90" fill="none" xmlns="http://www.w3.org/2000/svg">
<path d="M147.623 55.488L158.982 46.1754C163.226 42.6606 164.884 40.8133 164.884 37.9806C164.884 35.1006 162.98 33.5469 160.299 33.5469C157.665 33.5469 155.865 35.0059 153.326 38.1322L148.059 33.8975C151.422 29.3122 154.69 26.8301 160.782 26.8301C167.849 26.8301 172.529 30.9796 172.529 37.3554V37.4501C172.529 43.1533 169.602 45.9859 163.558 50.6659L158.006 54.9575H172.88V61.4375H147.623V55.488Z" fill="black"/>
<path d="M48.6515 22.3652V38.6032H40.9967V22.3652H28.8799V65.8969H40.9967V49.0242H48.6515V65.8969H60.4842V22.3652H48.6515Z" fill="black"/>
<path d="M114.72 35.4297C109.87 35.4297 105.995 39.2571 105.995 44.1076C105.995 48.9581 109.87 52.8329 114.72 52.8329C119.429 52.8329 123.398 48.9581 123.398 44.1076C123.398 39.2571 119.419 35.4297 114.72 35.4297Z" fill="black"/>
<path d="M114.721 55.2109C108.62 55.2109 103.675 50.2656 103.675 44.1172C103.675 38.0067 108.62 33.0614 114.721 33.0614C120.831 33.0614 125.777 38.0067 125.777 44.1172C125.767 50.2656 120.822 55.2109 114.721 55.2109ZM88.1566 43.7477C89.4545 43.6625 91.5008 42.2793 92.4861 41.313C92.5429 41.2467 92.5998 41.1898 92.6661 41.133C92.5335 42.1182 92.4577 43.1225 92.4577 44.1456C92.4577 45.1214 92.524 46.0782 92.6471 47.0161C91.6524 45.614 89.5398 43.9846 88.1566 43.7477ZM80.2082 39.333H74.1924V32.0572H80.2082C81.9513 32.0572 83.3629 33.753 83.3629 35.6951C83.3629 37.6372 81.9513 39.333 80.2082 39.333ZM80.2082 55.7604H74.1924V48.3993H80.2082C81.9513 48.3993 83.3629 50.0951 83.3629 52.0372C83.3629 54.0646 81.9513 55.7604 80.2082 55.7604ZM114.598 21.9961C105.891 21.9961 98.3693 27.0172 94.7503 34.3214V34.1888C94.7503 28.8077 89.3692 22.3561 83.1166 22.3561H62.9092V65.8878H81.7145C89.2461 65.8878 94.5703 59.5593 94.7408 53.9035C98.3503 61.2172 105.891 66.2572 114.598 66.2572C126.819 66.2572 136.728 56.3477 136.728 44.1267C136.728 31.9056 126.809 21.9961 114.598 21.9961Z" fill="black"/>
<path d="M133.544 24.6216V23.6552H134.189C134.52 23.6552 134.871 23.7216 134.871 24.11C134.871 24.5931 134.511 24.6216 134.113 24.6216H133.544ZM133.544 25.0195H134.084L134.909 26.3742H135.439L134.549 25.0005C135.003 24.9437 135.354 24.6974 135.354 24.1384C135.354 23.5226 134.984 23.2479 134.255 23.2479H133.071V26.3647H133.544V25.0195ZM134.122 27.511C135.591 27.511 136.851 26.3647 136.851 24.8016C136.851 23.2479 135.591 22.1016 134.122 22.1016C132.635 22.1016 131.375 23.2479 131.375 24.8016C131.375 26.3742 132.626 27.511 134.122 27.511ZM131.915 24.8016C131.915 23.5226 132.881 22.5563 134.122 22.5563C135.344 22.5563 136.311 23.5226 136.311 24.8016C136.311 26.0995 135.344 27.0658 134.122 27.0658C132.881 27.0658 131.915 26.1089 131.915 24.8016Z" fill="black"/>
</svg>
