<svg width="201" height="91" viewBox="0 0 201 91" fill="none" xmlns="http://www.w3.org/2000/svg">
<path d="M146.1 72.8186C146.144 72.8186 146.181 72.8186 146.219 72.8123C146.256 72.8123 146.287 72.7998 146.319 72.7873C146.35 72.7749 146.368 72.7499 146.387 72.7249C146.406 72.6999 146.412 72.6625 146.412 72.6125C146.412 72.5688 146.406 72.5376 146.387 72.5126C146.368 72.4876 146.344 72.4689 146.319 72.4564C146.294 72.4439 146.262 72.4376 146.225 72.4314C146.187 72.4251 146.156 72.4251 146.125 72.4251H145.863V72.8186H146.1ZM145.856 73.5804H145.638V72.2441H146.144C146.306 72.2441 146.425 72.2753 146.512 72.3315C146.593 72.3939 146.637 72.4876 146.637 72.625C146.637 72.7436 146.606 72.8311 146.537 72.8873C146.468 72.9435 146.387 72.9747 146.287 72.9872L146.662 73.5742H146.412L146.069 72.9997H145.863V73.5804H145.856ZM147.018 72.8873C147.018 72.7436 146.993 72.6062 146.949 72.4814C146.899 72.3565 146.837 72.2503 146.749 72.1629C146.662 72.0754 146.568 72.0068 146.456 71.9568C146.344 71.9068 146.225 71.8819 146.094 71.8819C145.963 71.8819 145.838 71.9068 145.725 71.9568C145.613 72.0068 145.513 72.0754 145.432 72.1629C145.344 72.2503 145.282 72.3565 145.232 72.4814C145.182 72.6062 145.163 72.7374 145.163 72.8873C145.163 73.0246 145.182 73.1558 145.226 73.2744C145.269 73.3931 145.332 73.4992 145.413 73.5929C145.494 73.6866 145.588 73.7553 145.707 73.8115C145.819 73.8614 145.95 73.8927 146.094 73.8927C146.225 73.8927 146.344 73.8677 146.456 73.8177C146.568 73.7678 146.668 73.6991 146.749 73.6116C146.831 73.5242 146.899 73.4181 146.949 73.2994C146.993 73.1745 147.018 73.0371 147.018 72.8873ZM147.28 72.8873C147.28 73.0684 147.249 73.2307 147.187 73.3806C147.124 73.5305 147.037 73.6554 146.924 73.7615C146.818 73.8677 146.693 73.9489 146.543 74.0051C146.4 74.0613 146.25 74.0925 146.094 74.0925C145.919 74.0925 145.757 74.0613 145.613 73.9988C145.469 73.9364 145.344 73.8552 145.238 73.7428C145.132 73.6366 145.051 73.5055 144.995 73.3619C144.938 73.212 144.907 73.0559 144.907 72.881C144.907 72.6999 144.938 72.5376 145.001 72.3877C145.063 72.2378 145.151 72.1129 145.257 72.0068C145.363 71.9006 145.494 71.8194 145.638 71.7632C145.781 71.707 145.931 71.6758 146.094 71.6758C146.25 71.6758 146.4 71.707 146.543 71.7632C146.687 71.8194 146.812 71.9068 146.924 72.0068C147.037 72.1129 147.118 72.2378 147.187 72.3877C147.243 72.5438 147.28 72.7062 147.28 72.8873Z" fill="black"/>
<path d="M75.2471 18.623V30.7816H69.5144V18.623H60.4346V51.2207H69.5144V38.5875H75.2471V51.2207H84.1022V18.623H75.2471Z" fill="black"/>
<path d="M124.718 28.4102C121.089 28.4102 118.186 31.2765 118.186 34.9047C118.186 38.5391 121.089 41.4367 124.718 41.4367C128.24 41.4367 131.218 38.5329 131.218 34.9047C131.218 31.2765 128.246 28.4102 124.718 28.4102Z" fill="black"/>
<path d="M124.719 43.2164C120.147 43.2164 116.444 39.5133 116.444 34.9046C116.444 30.1961 120.372 26.4055 125.131 26.6366C129.452 26.8427 132.924 30.4334 132.999 34.761C133.074 39.4383 129.346 43.2164 124.719 43.2164ZM104.829 34.6299C105.803 34.5612 107.333 33.5308 108.076 32.8064C108.12 32.7627 108.164 32.7127 108.207 32.669C108.108 33.4059 108.051 34.1553 108.051 34.9234C108.051 35.654 108.108 36.3722 108.195 37.0716C107.452 36.0349 105.866 34.811 104.829 34.6299ZM98.8778 31.3326H94.3753V25.8872H98.8778C100.183 25.8872 101.238 27.1612 101.238 28.6099C101.238 30.0587 100.183 31.3326 98.8778 31.3326ZM98.8778 43.6348H94.3753V38.1207H98.8778C100.183 38.1207 101.238 39.3946 101.238 40.8434C101.238 42.3609 100.183 43.6348 98.8778 43.6348ZM129.102 18.9368C120.772 16.7574 113.078 20.8914 109.769 27.5796V27.4796C109.769 23.4518 105.741 18.6246 101.057 18.6246H85.9199V51.2222H100.002C105.641 51.2222 109.625 46.4824 109.756 42.2485C112.46 47.7251 118.105 51.497 124.625 51.497C135.353 51.497 143.709 41.2993 140.512 30.065C138.957 24.607 134.592 20.3731 129.102 18.9368Z" fill="black"/>
<path d="M53.4531 66.5586V66.5149C53.4531 62.206 56.7004 58.6777 61.3527 58.6777C64.2128 58.6777 65.9177 59.6269 67.329 61.0133L65.2058 63.4612C64.038 62.3996 62.8452 61.7502 61.3278 61.7502C58.7737 61.7502 56.9315 63.8734 56.9315 66.4712V66.5149C56.9315 69.1127 58.7299 71.2796 61.3278 71.2796C63.0576 71.2796 64.1192 70.5865 65.3119 69.5061L67.4351 71.6481C65.8739 73.3154 64.1441 74.3521 61.2216 74.3521C56.7691 74.3521 53.4531 70.9112 53.4531 66.5586Z" fill="black"/>
<path d="M80.9546 66.5586V66.5149C80.9546 63.9171 79.05 61.7502 76.3647 61.7502C73.6795 61.7502 71.8186 63.8734 71.8186 66.4712V66.5149C71.8186 69.1127 73.7232 71.2796 76.4085 71.2796C79.0937 71.2796 80.9546 69.1564 80.9546 66.5586ZM68.334 66.5586V66.5149C68.334 62.206 71.7311 58.6777 76.4085 58.6777C81.0858 58.6777 84.4392 62.1623 84.4392 66.4712V66.5149C84.4392 70.8238 81.0421 74.3521 76.3647 74.3521C71.6874 74.3521 68.334 70.8675 68.334 66.5586Z" fill="black"/>
<path d="M98.5086 58.9395L94.5182 65.3466L90.5341 58.9395H86.9434V74.0955H90.2094V64.2662L94.4308 70.6733H94.5182L98.7897 64.1975V74.0955H102.099V58.9395H98.5086Z" fill="black"/>
<path d="M105.416 58.9395V74.0955H116.956V71.1292H108.726V67.9444H115.876V64.9781H108.726V61.9057H116.85V58.9395H105.416Z" fill="black"/>
<path d="M123.019 61.9533V71.0894H125.598C128.327 71.0894 130.17 69.2472 130.17 66.562V66.5182C130.17 63.833 128.327 61.9533 125.598 61.9533H123.019ZM119.685 58.9434H125.592C130.357 58.9434 133.648 62.2094 133.648 66.4745V66.5182C133.648 70.7834 130.357 74.0931 125.592 74.0931H119.685V58.9434Z" fill="black"/>
<path d="M144.532 58.9395L140.854 65.0218L137.239 58.9395H133.342L139.162 68.1192V74.0955H142.503V68.0505L148.323 58.9395H144.532Z" fill="black"/>
</svg>
