<svg width="201" height="91" viewBox="0 0 201 91" fill="none" xmlns="http://www.w3.org/2000/svg">
<path d="M137.989 72.3495V71.6221H138.466C138.706 71.6221 138.968 71.6744 138.968 71.9675C138.968 72.3286 138.706 72.3495 138.408 72.3495H137.989ZM137.989 72.6478H138.392L138.999 73.6631H139.392L138.738 72.6321C139.078 72.5903 139.334 72.4071 139.334 71.9884C139.334 71.5279 139.067 71.3238 138.523 71.3238H137.649V73.6683H138V72.6478H137.989ZM138.408 74.5266C139.491 74.5266 140.423 73.6631 140.423 72.4856C140.423 71.3186 139.497 70.4551 138.408 70.4551C137.309 70.4551 136.383 71.3186 136.383 72.4856C136.383 73.6631 137.314 74.5266 138.408 74.5266ZM136.786 72.4856C136.786 71.5227 137.498 70.7952 138.408 70.7952C139.308 70.7952 140.02 71.5227 140.02 72.4856C140.02 73.4642 139.308 74.1864 138.408 74.1864C137.498 74.1864 136.786 73.4642 136.786 72.4856Z" fill="black"/>
<path d="M75.4569 18.8066V31.0212H69.8154V18.8066H60.877V51.5514H69.8154V38.8607H75.4569V51.5514H84.1809V18.8066H75.4569Z" fill="black"/>
<path d="M124.169 28.6348C120.595 28.6348 117.737 31.5131 117.737 35.1607C117.737 38.8083 120.595 41.7233 124.169 41.7233C127.639 41.7233 130.569 38.8083 130.569 35.1607C130.569 31.5131 127.639 28.6348 124.169 28.6348Z" fill="black"/>
<path d="M124.169 43.5123C119.668 43.5123 116.02 39.7915 116.02 35.16C116.02 30.4291 119.888 26.6245 124.572 26.8547C128.826 27.0641 132.244 30.6646 132.317 35.0135C132.395 39.713 128.722 43.5123 124.169 43.5123ZM104.586 34.8879C105.543 34.8198 107.05 33.7889 107.783 33.0562C107.825 33.0091 107.872 32.962 107.914 32.9149C107.815 33.6528 107.762 34.4116 107.762 35.1757C107.762 35.9084 107.815 36.6306 107.903 37.337C107.166 36.2956 105.606 35.0658 104.586 34.8879ZM98.7243 31.5699H94.2917V26.0959H98.7243C100.012 26.0959 101.048 27.3728 101.048 28.8329C101.048 30.293 100.012 31.5699 98.7243 31.5699ZM98.7243 43.931H94.2917V38.3889H98.7243C100.012 38.3889 101.048 39.6659 101.048 41.1207C101.048 42.6489 100.012 43.931 98.7243 43.931ZM128.486 19.1147C120.285 16.9272 112.713 21.0772 109.453 27.7967V27.6973C109.453 23.652 105.486 18.8007 100.875 18.8007H85.9707V51.5455H99.839C105.392 51.5455 109.316 46.7832 109.442 42.5337C112.106 48.0392 117.658 51.8228 124.08 51.8228C134.646 51.8228 142.867 41.576 139.722 30.293C138.189 24.8137 133.887 20.5591 128.486 19.1147Z" fill="black"/>
<path d="M60.877 59.2949V74.5238H64.1582V68.6259H71.286V65.5801H64.1582V62.3407H72.2437V59.2949H60.877Z" fill="black"/>
<path d="M79.8162 63.2139L81.7996 68.1541H77.8328L79.8162 63.2139ZM78.3456 59.1895L71.9453 74.5283H75.2946L76.6605 71.1109H82.9719L84.3378 74.5283H87.7708L81.3705 59.1895H78.3456Z" fill="black"/>
<path d="M100.928 59.2949L97.0027 65.7319L93.083 59.2949H89.54V74.5238H92.7638V64.6434L96.919 71.0856H97.0027L101.21 64.5806V74.5238H104.471V59.2949H100.928Z" fill="black"/>
<path d="M111.127 59.2949H107.846V74.5238H111.127V59.2949Z" fill="black"/>
<path d="M114.472 59.2949V74.5238H125.2V71.4781H117.753V59.2949H114.472Z" fill="black"/>
<path d="M134.384 59.2949L130.757 65.4074L127.199 59.2949H123.357L129.093 68.516V74.5238H132.38V68.4532L138.115 59.2949H134.384Z" fill="black"/>
</svg>
