<svg width="201" height="91" viewBox="0 0 201 91" fill="none" xmlns="http://www.w3.org/2000/svg">
<path d="M70.2404 18.4395V30.4946H64.5584V18.4395H55.5635V50.7438H64.5584V38.225H70.2404V50.7438H79.0161V18.4395H70.2404Z" fill="black"/>
<path d="M119.271 28.1328C115.672 28.1328 112.797 30.9738 112.797 34.5734C112.797 38.1731 115.672 41.0478 119.271 41.0478C122.761 41.0478 125.712 38.1731 125.712 34.5734C125.712 30.9738 122.761 28.1328 119.271 28.1328Z" fill="black"/>
<path d="M119.27 42.8107C114.743 42.8107 111.068 39.1436 111.068 34.5745C111.068 29.9042 114.963 26.1527 119.675 26.3804C123.958 26.5827 127.397 30.1402 127.473 34.4312C127.549 39.0677 123.848 42.8107 119.27 42.8107ZM99.5608 34.3047C100.522 34.2373 102.039 33.2172 102.773 32.5006C102.815 32.4585 102.857 32.4079 102.908 32.3658C102.806 33.0992 102.747 33.841 102.747 34.5998C102.747 35.3247 102.798 36.0329 102.891 36.7326C102.157 35.6957 100.581 34.4817 99.5608 34.3047ZM93.6597 31.0338H89.2001V25.6385H93.6597C94.9579 25.6385 95.9948 26.8946 95.9948 28.3362C96.0032 29.7693 94.9579 31.0338 93.6597 31.0338ZM93.6597 43.2238H89.2001V37.7611H93.6597C94.9579 37.7611 95.9948 39.0172 95.9948 40.4587C96.0032 41.9677 94.9579 43.2238 93.6597 43.2238ZM123.612 18.7511C115.359 16.593 107.738 20.69 104.45 27.3161V27.2234C104.45 23.2275 100.454 18.4476 95.8178 18.4476H80.8205V50.7435H94.7724C100.362 50.7435 104.307 46.0479 104.442 41.8497C107.123 47.2787 112.712 51.0132 119.178 51.0132C129.808 51.0132 138.087 40.9055 134.917 29.7777C133.382 24.374 129.049 20.1758 123.612 18.7511ZM34.6992 71.2203L36.655 68.8852C38.0038 69.9979 39.4201 70.7061 41.1398 70.7061C42.4887 70.7061 43.3064 70.1665 43.3064 69.2898V69.2477C43.3064 68.4131 42.7922 67.9831 40.28 67.3424C37.2536 66.5669 35.3062 65.7323 35.3062 62.748V62.7059C35.3062 59.9829 37.498 58.1789 40.5582 58.1789C42.75 58.1789 44.6131 58.8617 46.1389 60.0841L44.4192 62.571C43.0872 61.6521 41.7805 61.0873 40.516 61.0873C39.2515 61.0873 38.5855 61.6689 38.5855 62.3939V62.4361C38.5855 63.4224 39.2262 63.7428 41.8227 64.4087C44.866 65.2012 46.5857 66.2971 46.5857 68.9104V68.9526C46.5857 71.9369 44.3096 73.606 41.0724 73.606C38.7963 73.6229 36.5033 72.8305 34.6992 71.2203Z" fill="black"/>
<path d="M49.1318 58.3887H52.4365V73.4028H49.1318V58.3887Z" fill="black"/>
<path d="M55.0156 65.943V65.9009C55.0156 61.6268 58.3455 58.1367 62.8894 58.1367C65.5955 58.1367 67.2225 58.8617 68.7905 60.1937L66.7082 62.7059C65.5533 61.7448 64.5164 61.18 62.7798 61.18C60.3772 61.18 58.4636 63.3044 58.4636 65.8587V65.9009C58.4636 68.6491 60.3519 70.6639 63.0158 70.6639C64.2129 70.6639 65.292 70.3604 66.1266 69.7619V67.6122H62.7967V64.7544H69.3216V71.2793C67.7789 72.586 65.6545 73.665 62.9062 73.665C58.2359 73.665 55.0156 70.3857 55.0156 65.943Z" fill="black"/>
<path d="M82.3295 58.3883V67.6361L75.2904 58.3883H72.2471V73.4108H75.5011V63.8594L82.7763 73.4108H85.5836V58.3883H82.3295ZM95.2276 62.2577L97.2256 67.1303H93.2381L95.2276 62.2577ZM93.7439 58.2871L87.3117 73.4108H90.6838L92.0579 70.0387H98.4058L99.7799 73.4108H103.236L96.8041 58.2871H93.7439ZM101.297 58.3883V61.44H105.866V73.4108H109.18V61.44H113.749V58.3883H101.297Z" fill="black"/>
<path d="M115.84 66.9712V58.3893H119.144V66.8869C119.144 69.3316 120.367 70.5961 122.382 70.5961C124.396 70.5961 125.619 69.3738 125.619 66.988V58.3809H128.923V66.8532C128.923 71.4054 126.369 73.631 122.339 73.631C118.31 73.6478 115.84 71.397 115.84 66.9712ZM138.365 65.6898C139.975 65.6898 140.894 64.8299 140.894 63.5654V63.5232C140.894 62.107 139.908 61.3736 138.298 61.3736H135.018V65.6814H138.365V65.6898ZM131.714 58.3893H138.576C140.481 58.3893 141.965 58.9288 142.951 59.9151C143.786 60.7497 144.241 61.9299 144.241 63.3462V63.3884C144.241 65.8162 142.934 67.3337 141.021 68.0418L144.688 73.4034H140.827L137.606 68.5982H135.018V73.4034H131.714V58.3893Z" fill="black"/>
<path d="M146.837 58.3887V73.4112H158.268V70.4691H150.116V67.3162H157.198V64.3741H150.116V61.3308H158.159V58.3887H146.837Z" fill="black"/>
<path d="M162.302 74.6239V71.479H163.896C164.024 71.479 164.163 71.516 164.314 71.5898C164.464 71.6609 164.592 71.7717 164.697 71.9222C164.805 72.07 164.859 72.2575 164.859 72.4847C164.859 72.7148 164.804 72.9109 164.693 73.0728C164.582 73.2319 164.447 73.3526 164.288 73.435C164.132 73.5174 163.984 73.5586 163.845 73.5586H162.694V73.0472H163.632C163.725 73.0472 163.826 73.0004 163.934 72.9066C164.045 72.8129 164.1 72.6722 164.1 72.4847C164.1 72.2915 164.045 72.1609 163.934 72.0927C163.826 72.0245 163.731 71.9904 163.649 71.9904H162.993V74.6239H162.302ZM164.203 73.141L164.987 74.6239H164.228L163.461 73.141H164.203ZM163.495 76.4989C163.024 76.4989 162.582 76.4109 162.17 76.2347C161.758 76.0586 161.396 75.8143 161.083 75.5018C160.771 75.1893 160.527 74.8271 160.35 74.4151C160.174 74.0032 160.086 73.5614 160.086 73.0898C160.086 72.6183 160.174 72.1765 160.35 71.7646C160.527 71.3526 160.771 70.9904 161.083 70.6779C161.396 70.3654 161.758 70.1211 162.17 69.945C162.582 69.7688 163.024 69.6808 163.495 69.6808C163.967 69.6808 164.409 69.7688 164.821 69.945C165.233 70.1211 165.595 70.3654 165.907 70.6779C166.22 70.9904 166.464 71.3526 166.64 71.7646C166.816 72.1765 166.904 72.6183 166.904 73.0898C166.904 73.5614 166.816 74.0032 166.64 74.4151C166.464 74.8271 166.22 75.1893 165.907 75.5018C165.595 75.8143 165.233 76.0586 164.821 76.2347C164.409 76.4109 163.967 76.4989 163.495 76.4989ZM163.495 75.6808C163.973 75.6808 164.407 75.5643 164.799 75.3313C165.191 75.0984 165.504 74.7859 165.737 74.3938C165.97 74.0018 166.086 73.5671 166.086 73.0898C166.086 72.6126 165.97 72.1779 165.737 71.7859C165.504 71.3938 165.191 71.0813 164.799 70.8484C164.407 70.6154 163.973 70.4989 163.495 70.4989C163.018 70.4989 162.583 70.6154 162.191 70.8484C161.799 71.0813 161.487 71.3938 161.254 71.7859C161.021 72.1779 160.904 72.6126 160.904 73.0898C160.904 73.5671 161.021 74.0018 161.254 74.3938C161.487 74.7859 161.799 75.0984 162.191 75.3313C162.583 75.5643 163.018 75.6808 163.495 75.6808Z" fill="black"/>
</svg>
