<svg width="201" height="91" viewBox="0 0 201 91" fill="none" xmlns="http://www.w3.org/2000/svg">
<path d="M134.913 73.2199C134.956 73.2199 134.994 73.22 135.031 73.2146C135.068 73.2093 135.1 73.2039 135.132 73.1879C135.159 73.1719 135.18 73.1506 135.202 73.1239C135.218 73.0972 135.228 73.0598 135.228 73.0064C135.228 72.9637 135.218 72.9317 135.202 72.9103C135.186 72.889 135.159 72.8676 135.132 72.857C135.106 72.8463 135.074 72.8356 135.036 72.8356C135.004 72.8303 134.967 72.8303 134.935 72.8303H134.668V73.2199H134.913ZM134.668 73.978H134.449V72.6381H134.956C135.116 72.6381 135.239 72.6701 135.319 72.7288C135.399 72.7876 135.442 72.889 135.442 73.0224C135.442 73.1452 135.41 73.2306 135.34 73.2893C135.271 73.3481 135.191 73.3801 135.09 73.3908L135.463 73.978H135.212L134.865 73.4068H134.657V73.978H134.668ZM135.832 73.284C135.832 73.1345 135.81 73.0011 135.762 72.8783C135.714 72.7555 135.65 72.6488 135.565 72.5634C135.479 72.478 135.383 72.4086 135.271 72.3605C135.159 72.3125 135.036 72.2858 134.908 72.2858C134.775 72.2858 134.657 72.3125 134.54 72.3605C134.428 72.4086 134.326 72.478 134.246 72.5634C134.161 72.6541 134.097 72.7555 134.049 72.8783C134.001 73.0011 133.979 73.1345 133.979 73.284C133.979 73.4228 134.001 73.5509 134.043 73.6737C134.086 73.7965 134.15 73.8979 134.23 73.9886C134.31 74.0794 134.412 74.1488 134.524 74.2022C134.636 74.2555 134.769 74.2822 134.913 74.2822C135.042 74.2822 135.164 74.2555 135.276 74.2128C135.389 74.1648 135.485 74.0954 135.57 74.01C135.655 73.9192 135.719 73.8178 135.768 73.695C135.81 73.5723 135.832 73.4335 135.832 73.284ZM136.088 73.284C136.088 73.4655 136.056 73.631 135.992 73.7804C135.928 73.9299 135.842 74.058 135.73 74.1595C135.623 74.2662 135.495 74.3463 135.351 74.405C135.207 74.4637 135.058 74.4904 134.897 74.4904C134.721 74.4904 134.561 74.4584 134.417 74.3997C134.273 74.3356 134.145 74.2555 134.043 74.1434C133.937 74.0367 133.856 73.9086 133.798 73.7591C133.739 73.6096 133.707 73.4495 133.707 73.2787C133.707 73.0972 133.739 72.9317 133.803 72.7822C133.867 72.6328 133.953 72.5046 134.065 72.4032C134.171 72.2965 134.3 72.2164 134.444 72.1577C134.588 72.099 134.743 72.0723 134.897 72.0723C135.058 72.0723 135.207 72.099 135.351 72.1577C135.495 72.2164 135.623 72.2965 135.73 72.4032C135.837 72.51 135.928 72.6381 135.992 72.7822C136.056 72.9424 136.088 73.1025 136.088 73.284Z" fill="black"/>
<path d="M75.7356 18.9805V31.1406H70.0025V18.9805H60.9277V51.5748H70.0025V38.9449H75.7356V51.5748H84.5914V18.9805H75.7356Z" fill="black"/>
<path d="M125.204 28.7598C121.574 28.7598 118.67 31.6263 118.67 35.2562C118.67 38.8861 121.574 41.79 125.204 41.79C128.727 41.79 131.7 38.8861 131.7 35.2562C131.7 31.6263 128.727 28.7598 125.204 28.7598Z" fill="black"/>
<path d="M125.203 43.5708C120.634 43.5708 116.929 39.8715 116.929 35.2594C116.929 30.5513 120.858 26.7612 125.614 26.9908C129.938 27.1989 133.408 30.7861 133.477 35.11C133.557 39.7915 129.826 43.5708 125.203 43.5708ZM105.319 34.9872C106.29 34.9231 107.822 33.8929 108.564 33.1616C108.607 33.1135 108.655 33.0708 108.698 33.0228C108.596 33.7594 108.543 34.5121 108.543 35.2754C108.543 36.0068 108.596 36.7221 108.687 37.4267C107.934 36.3858 106.349 35.1633 105.319 34.9872ZM99.3666 31.6829H94.8666V26.2381H99.3666C100.674 26.2381 101.726 27.5085 101.726 28.9605C101.726 30.4125 100.669 31.6829 99.3666 31.6829ZM99.3666 43.9819H94.8666V38.4676H99.3666C100.674 38.4676 101.726 39.7381 101.726 41.19C101.726 42.7114 100.669 43.9819 99.3666 43.9819ZM129.586 19.2879C121.258 17.11 113.566 21.2416 110.256 27.9303V27.8342C110.256 23.8039 106.226 18.9783 101.545 18.9783H86.4111V51.5726H100.493C106.13 51.5726 110.118 46.8324 110.246 42.5993C112.952 48.0762 118.589 51.8448 125.112 51.8448C135.842 51.8448 144.19 41.6491 140.993 30.4125C139.44 24.9623 135.073 20.7238 129.586 19.2879Z" fill="black"/>
<path d="M70.7498 59.2871V62.207H78.821L70.4883 71.9063V74.4366H83.1075V71.5166H74.7748L83.1075 61.8174V59.2871H70.7498Z" fill="black"/>
<path d="M97.1837 66.9103V66.8676C97.1837 64.2732 95.278 62.106 92.5929 62.106C89.9079 62.106 88.0449 64.2252 88.0449 66.8248V66.8676C88.0449 69.4672 89.9506 71.6291 92.6356 71.6291C95.326 71.6291 97.1837 69.5099 97.1837 66.9103ZM84.5645 66.9103V66.8676C84.5645 62.5597 87.9648 59.0312 92.6356 59.0312C97.3064 59.0312 100.669 62.517 100.669 66.8248V66.8676C100.669 71.1754 97.2691 74.7038 92.5929 74.7038C87.9168 74.7038 84.5645 71.2181 84.5645 66.9103Z" fill="black"/>
<path d="M113.348 59.2871V68.6127L106.249 59.2871H103.174V74.4366H106.467V64.8067L113.802 74.4366H116.636V59.2871H113.348Z" fill="black"/>
<path d="M119.939 59.2871V74.4366H131.48V71.4739H123.254V68.2924H130.397V65.3245H123.254V62.2497H131.368V59.2871H119.939Z" fill="black"/>
</svg>
