<svg width="201" height="91" viewBox="0 0 201 91" fill="none" xmlns="http://www.w3.org/2000/svg">
<path d="M128.525 42.1407L78.7022 9.79883L28.8799 42.1407H128.525Z" fill="#6EC8D1"/>
<path d="M28.8955 44.7168H41.5261V58.0499H53.3915V44.7168H66.0244V82.5234H53.3915V68.9502H41.5261V82.5234H28.8955V44.7168Z" fill="#6EC8D1"/>
<path d="M67.6543 63.7162V63.6085C67.6543 52.3267 76.5595 43.9062 88.4921 43.9062C94.9668 43.9062 100.562 46.0652 104.664 49.6268L97.5926 58.155C95.1104 56.0521 92.359 55.2285 89.2283 55.2285C84.3156 55.2285 81.1108 58.6487 81.1108 63.7768V63.8846C81.1108 69.2326 85.0629 72.5429 89.7669 72.5429C91.9259 72.5429 93.1131 72.0357 94.0848 71.4993V68.9543H87.6079V60.1524H105.908V77.6418C101.805 80.9902 95.7231 83.3085 88.8692 83.3085C77.1003 83.3085 67.6543 75.429 67.6543 63.7162Z" fill="#6EC8D1"/>
<path d="M158.961 44.7168L151.62 65.9564L144.281 44.7168H105.97V55.3141H116.01V82.5189H128.637V55.3141H134.449L145.471 82.5189H157.556L172.88 44.7168H158.961Z" fill="#6EC8D1"/>
<path d="M161.962 81.169C161.954 80.9302 161.993 80.692 162.079 80.4688C162.164 80.2456 162.294 80.042 162.46 79.87C162.626 79.698 162.825 79.5612 163.045 79.4678C163.265 79.3743 163.502 79.3262 163.741 79.3262C163.98 79.3262 164.216 79.3743 164.436 79.4678C164.656 79.5612 164.855 79.698 165.021 79.87C165.187 80.042 165.317 80.2456 165.402 80.4688C165.488 80.692 165.528 80.9302 165.519 81.169C165.528 81.4079 165.488 81.6461 165.402 81.8693C165.317 82.0925 165.187 82.2961 165.021 82.4681C164.855 82.6401 164.656 82.7769 164.436 82.8703C164.216 82.9638 163.98 83.0119 163.741 83.0119C163.502 83.0119 163.265 82.9638 163.045 82.8703C162.825 82.7769 162.626 82.6401 162.46 82.4681C162.294 82.2961 162.164 82.0925 162.079 81.8693C161.993 81.6461 161.954 81.4079 161.962 81.169ZM165.245 81.169C165.248 80.9703 165.211 80.773 165.137 80.5888C165.062 80.4045 164.952 80.2369 164.812 80.0959C164.672 79.9548 164.505 79.8431 164.321 79.7672C164.137 79.6914 163.94 79.653 163.742 79.6542C163.543 79.6548 163.346 79.6947 163.162 79.7717C162.978 79.8487 162.812 79.9613 162.672 80.1029C162.532 80.2445 162.421 80.4124 162.347 80.5969C162.272 80.7814 162.234 80.9789 162.236 81.178C162.233 81.377 162.27 81.5744 162.345 81.7588C162.419 81.9433 162.53 82.1109 162.67 82.252C162.811 82.3931 162.978 82.5048 163.162 82.5805C163.346 82.6562 163.543 82.6944 163.742 82.6929C163.941 82.692 164.139 82.6516 164.323 82.5739C164.507 82.4962 164.674 82.3828 164.813 82.2402C164.953 82.0977 165.063 81.9288 165.138 81.7434C165.212 81.558 165.248 81.3597 165.245 81.1601V81.169ZM163.046 80.2287H163.863C164.262 80.2287 164.559 80.424 164.559 80.801C164.563 80.9273 164.524 81.0513 164.447 81.1519C164.371 81.2526 164.262 81.3236 164.139 81.3531L164.619 82.0376H164.2L163.773 81.4137H163.394V82.0376H163.053L163.046 80.2287ZM163.834 81.1264C164.058 81.1264 164.2 81.003 164.2 80.8302C164.2 80.6574 164.067 80.5339 163.834 80.5339H163.385V81.1264H163.834Z" fill="#6EC8D1"/>
</svg>
