<svg width="201" height="91" viewBox="0 0 201 91" fill="none" xmlns="http://www.w3.org/2000/svg">
<path d="M119.597 81.4016H160.277L162.552 67.0741H155.764L162.928 22.4864H169.715L171.88 8.77344H131.237L129.686 17.4507H139.079C140.35 17.4292 141.566 17.9776 142.39 18.9458C143.204 19.9326 143.54 21.2286 143.308 22.4864L135.731 69.2663C135.24 71.7717 133.019 73.5605 130.466 73.504H120.707L119.597 81.4016Z" fill="black"/>
<path d="M76.6048 81.4016H114.047L115.313 73.4031H100.857C99.5947 73.4237 98.3883 72.8827 97.564 71.9264C96.7492 70.9401 96.4133 69.6436 96.6468 68.3858L104.177 21.8535C104.602 19.3296 106.782 17.4783 109.342 17.469H124.018L125.678 8.77344H88.2631L85.6764 24.8804H90.4828L88.3915 37.8779H69.4961L71.5415 24.8804H76.2929L78.8979 8.77344H41.4281L38.8323 24.8804H44.5559L38.0343 65.2396H32.4574L29.8799 81.4016H67.258L69.8446 65.2946H65.1116L67.3222 51.4441H86.2543L83.9979 65.2855H79.1823L76.6048 81.4016Z" fill="black"/>
<path d="M112.837 50.1966C111.464 51.6296 110.598 53.4721 110.369 55.4433C109.972 57.3044 110.582 59.2374 111.975 60.534C113.249 61.7037 114.913 62.3575 116.643 62.3686C118.534 62.3991 120.394 61.8934 122.009 60.9101C123.404 60.0659 124.645 58.9894 125.678 57.7273L118.23 46.0781C116.297 47.2639 114.49 48.6439 112.837 50.1966Z" fill="#980748"/>
<path d="M120.945 39.5461C122.31 38.6573 123.585 37.6374 124.751 36.5008C125.924 35.3394 126.69 33.8306 126.935 32.1989C127.117 31.1015 126.856 29.9766 126.21 29.0711C125.534 28.187 124.458 27.7039 123.348 27.7869C121.628 27.6693 119.973 28.459 118.982 29.8691C118.494 30.5678 118.18 31.3728 118.065 32.2172C117.913 33.3468 118.078 34.4965 118.542 35.5377C119.219 36.9443 120.023 38.286 120.945 39.5461Z" fill="#980748"/>
<path d="M139.144 22.1847C138.415 21.3434 137.35 20.8696 136.236 20.8913L111.076 20.7813C108.716 20.7795 106.7 22.4815 106.306 24.808L99.5645 65.479C99.2769 66.6493 99.4825 67.8862 100.133 68.9004C100.988 69.648 102.113 70.0097 103.243 69.9002H128.302C129.679 69.9087 131.001 69.3633 131.971 68.3867L127.449 61.1404C126.157 62.4789 124.71 63.6583 123.138 64.6535C120.82 66.0014 118.178 66.6927 115.497 66.6531C111.397 66.6531 108.526 65.4607 106.958 63.0942C105.401 60.7549 104.77 57.9203 105.187 55.1416C105.519 52.1502 106.84 49.355 108.939 47.1982C110.941 45.3863 113.145 43.8106 115.506 42.5018C114.398 41.0013 113.531 39.3361 112.938 37.567C112.566 36.2876 112.45 34.947 112.599 33.6228C112.895 31.0311 114.128 28.6369 116.066 26.8902C118.064 25.0966 120.674 24.1379 123.358 24.2118C126.11 24.2118 128.192 25.0557 129.54 26.7251C130.879 28.4067 131.445 30.5751 131.1 32.6964C130.767 35.3324 129.607 37.7953 127.788 39.7317C126.303 41.2351 124.647 42.5589 122.854 43.6759L128.476 52.1972C129.063 50.8764 129.485 49.849 129.742 49.1794C130.106 48.1705 130.413 47.1414 130.659 46.0975V45.9507H135.613L135.558 46.1984C134.93 48.8375 134.006 51.3974 132.806 53.8299C132.338 54.8476 131.804 55.8342 131.21 56.7835L133.962 61.067L139.951 25.3675C140.176 24.2391 139.879 23.0696 139.144 22.1847Z" fill="#980748"/>
</svg>
