<svg width="201" height="91" viewBox="0 0 201 91" fill="none" xmlns="http://www.w3.org/2000/svg">
<path d="M69.0325 66.5344V65.3554H69.5303H69.6089C70.6307 65.3554 71.6132 64.9493 72.4647 64.4253C73.5652 63.7441 74.1678 62.5651 74.3512 61.3074C74.4036 61.0192 74.4167 60.7179 74.4167 60.4297V59.4472V6.44339C74.3905 5.80148 74.1809 3.65303 72.4254 2.6312C71.1023 1.79278 69.9364 1.72728 69.6089 1.72728C69.5827 1.72728 69.5565 1.72728 69.5434 1.72728L68.9932 1.71418V0.548256H94.6042V1.71418L94.2505 1.72728H94.185C93.8575 1.72728 92.6916 1.79278 91.3685 2.6443C89.6261 3.65303 89.4165 5.81458 89.3903 6.44339L89.3772 7.34731V8.15953L89.4034 23.9847H112.08L112.106 8.17263V7.36041V6.46959C112.08 5.82768 111.87 3.66613 110.115 2.6443C108.792 1.80588 107.626 1.74038 107.298 1.74038C107.272 1.74038 107.246 1.74038 107.233 1.74038L106.879 1.72728V0.535156H132.503V1.72728L131.953 1.74038C131.94 1.74038 131.914 1.74038 131.888 1.74038C131.56 1.74038 130.394 1.80588 129.071 2.6574C127.329 3.66613 127.106 5.81458 127.08 6.45649V59.4472V60.4297C127.08 60.5345 127.001 63.2594 129.084 64.4515C130.407 65.2899 131.573 65.3554 131.901 65.3554H131.966H132.517V66.5344H106.866L106.879 65.3423H107.22H107.285C107.613 65.3423 108.766 65.303 110.115 64.4515C111.739 63.5083 112.041 61.5956 112.093 60.8096V60.7965L112.106 38.2902H89.3117L89.2724 60.4559L89.2986 61.0847C89.351 61.8707 89.744 63.6524 91.3816 64.5956C92.1938 65.1327 93.1632 65.4078 94.1326 65.3685C94.1588 65.3685 94.185 65.3685 94.2112 65.3685H94.5256V66.5476L69.0325 66.5344ZM81.1371 60.5083H82.3162V31.6877H119.128V60.5214H120.307V5.55257H119.128V30.5479H82.3162V5.55257H81.1371V60.5083Z" fill="url(#paint0_linear_2048_37947)" fill-opacity="0.3"/>
<path d="M69.0325 66.5344V65.3554H69.5303H69.6089C70.6307 65.3554 71.6132 64.9493 72.4647 64.4253C73.5652 63.7441 74.1678 62.5651 74.3512 61.3074C74.4036 61.0192 74.4167 60.7179 74.4167 60.4297V59.4472V6.44339C74.3905 5.80148 74.1809 3.65303 72.4254 2.6312C71.1023 1.79278 69.9364 1.72728 69.6089 1.72728C69.5827 1.72728 69.5565 1.72728 69.5434 1.72728L68.9932 1.71418V0.548256H94.6042V1.71418L94.2505 1.72728H94.185C93.8575 1.72728 92.6916 1.79278 91.3685 2.6443C89.6261 3.65303 89.4165 5.81458 89.3903 6.44339L89.3772 7.34731V8.15953L89.4034 23.9847H112.08L112.106 8.17263V7.36041V6.46959C112.08 5.82768 111.87 3.66613 110.115 2.6443C108.792 1.80588 107.626 1.74038 107.298 1.74038C107.272 1.74038 107.246 1.74038 107.233 1.74038L106.879 1.72728V0.535156H132.503V1.72728L131.953 1.74038C131.94 1.74038 131.914 1.74038 131.888 1.74038C131.56 1.74038 130.394 1.80588 129.071 2.6574C127.329 3.66613 127.106 5.81458 127.08 6.45649V59.4472V60.4297C127.08 60.5345 127.001 63.2594 129.084 64.4515C130.407 65.2899 131.573 65.3554 131.901 65.3554H131.966H132.517V66.5344H106.866L106.879 65.3423H107.22H107.285C107.613 65.3423 108.766 65.303 110.115 64.4515C111.739 63.5083 112.041 61.5956 112.093 60.8096V60.7965L112.106 38.2902H89.3117L89.2724 60.4559L89.2986 61.0847C89.351 61.8707 89.744 63.6524 91.3816 64.5956C92.1938 65.1327 93.1632 65.4078 94.1326 65.3685C94.1588 65.3685 94.185 65.3685 94.2112 65.3685H94.5256V66.5476L69.0325 66.5344ZM81.1371 60.5083H82.3162V31.6877H119.128V60.5214H120.307V5.55257H119.128V30.5479H82.3162V5.55257H81.1371V60.5083Z" fill="url(#paint1_linear_2048_37947)" fill-opacity="0.6"/>
<path d="M139.604 70.9492H61.8799V72.351H139.617V70.9492H139.604Z" fill="#EE2D2B"/>
<path d="M69.3205 66.234V65.6445H69.8315H69.9101C70.2376 65.6445 71.4035 65.579 72.7266 64.7275C74.7965 63.5353 74.7179 60.8105 74.7179 60.6926V59.71V6.12984C74.6917 5.48792 74.4821 3.33948 72.7266 2.31765C71.4035 1.47923 70.2376 1.41373 69.9101 1.41373H69.8315L69.2812 1.40063V0.824219H94.3159V1.40063L93.9622 1.41373H93.8967C93.5692 1.41373 92.4033 1.47923 91.0801 2.33075C89.3247 3.33947 89.1282 5.48792 89.102 6.12984L89.0889 7.03376V7.84598L89.1151 24.2475H112.368L112.394 7.84598V7.03376V6.16914C112.368 5.52722 112.159 3.36568 110.403 2.34385C109.08 1.50543 107.914 1.43993 107.587 1.43993H107.521L107.167 1.42683V0.837319H132.202V1.42683L131.652 1.43993H131.586C131.259 1.43993 130.093 1.50543 128.77 2.35695C127.027 3.36568 126.805 5.51412 126.778 6.15604V59.7362V60.7188C126.778 60.8236 126.7 63.5484 128.77 64.7406C130.093 65.579 131.259 65.6445 131.586 65.6445H131.652H132.202V66.234H107.167V65.6576H107.508C107.521 65.6576 107.534 65.6576 107.573 65.6576C107.901 65.6576 109.067 65.5921 110.403 64.7406C112.028 63.7973 112.329 61.8847 112.381 61.0987V61.0856L112.394 37.9898H89.0234L89.0365 61.0987V61.1118C89.0889 61.8978 89.3902 63.8104 91.0277 64.7537C92.3509 65.5921 93.5168 65.6576 93.8443 65.6576H93.9098H94.2635V66.2471L69.3205 66.234ZM80.8488 60.7974H82.6173V31.9767H118.84V60.8105H120.608V5.26522H118.84V30.2606H82.6042V5.26522H80.8488V60.7974Z" fill="url(#paint2_linear_2048_37947)"/>
<path d="M69.3205 66.234V65.6445H69.8315H69.9101C70.2376 65.6445 71.4035 65.579 72.7266 64.7275C74.7965 63.5353 74.7179 60.8105 74.7179 60.6926V59.7101V6.12984C74.6917 5.48792 74.4821 3.33948 72.7266 2.31765C71.4035 1.47923 70.2376 1.41373 69.9101 1.41373H69.8315L69.2812 1.40063V0.837319H94.3159V1.41373L93.9622 1.42683H93.8967C93.5692 1.42683 92.4033 1.49233 91.0801 2.34385C89.3247 3.35258 89.1282 5.51413 89.102 6.14294L89.0889 7.04686V7.85908L89.1151 24.2606H112.381L112.407 7.85908V7.04686V6.16914C112.381 5.52722 112.172 3.36568 110.416 2.34385C109.093 1.50543 107.927 1.43993 107.6 1.43993H107.534L107.18 1.42683V0.824219H132.215V1.42683L131.665 1.43993H131.599C131.272 1.43993 130.106 1.50543 128.783 2.35695C127.04 3.36568 126.818 5.51412 126.792 6.15604V59.7363V60.7188C126.792 60.8236 126.713 63.5484 128.783 64.7406C130.106 65.579 131.272 65.6445 131.599 65.6445C131.626 65.6445 131.652 65.6445 131.665 65.6445H132.215V66.2209H107.167L107.18 65.6183H107.521H107.587C107.914 65.6183 109.067 65.579 110.416 64.7275C112.041 63.7842 112.342 61.8716 112.394 61.0856V61.0725L112.407 37.9767H89.0234L89.0365 61.0856V61.0987C89.0889 61.8847 89.3902 63.7973 91.0277 64.7406C92.3509 65.579 93.5168 65.6445 93.8443 65.6445C93.8705 65.6445 93.8967 65.6445 93.9098 65.6445H94.2635V66.234H69.3205ZM80.8488 60.7974H82.6173V31.9767H118.84V60.8105H120.608V5.26522H118.84V30.2606H82.6042V5.26522H80.8488V60.7974Z" fill="url(#paint3_linear_2048_37947)"/>
<path d="M69.3207 66.234V65.6445H69.8316H69.9102C70.9321 65.6445 71.9146 65.2384 72.7661 64.7013C73.8665 64.02 74.4691 62.841 74.6525 61.5834C74.7049 61.2952 74.718 60.9939 74.718 60.7057V59.7231V6.14294C74.6918 5.50102 74.4822 3.35258 72.7268 2.33075C71.4037 1.49233 70.2377 1.42683 69.9102 1.42683H69.8447L69.3076 1.41373V0.837319H94.3423V1.41373L93.9886 1.42683H93.9231C93.5956 1.42683 92.4296 1.49233 91.1065 2.34385C89.3511 3.35258 89.1546 5.51413 89.1284 6.14294V7.04686V7.29576V7.85908L89.1546 24.2606H112.408L112.434 7.85908V7.04686V6.16914C112.408 5.52722 112.198 3.36568 110.443 2.34385C109.119 1.50543 107.953 1.43993 107.626 1.43993H107.56L107.207 1.42683V0.824219H132.241V1.42683L131.691 1.43993H131.626C131.298 1.43993 130.132 1.50543 128.809 2.35695C127.067 3.36568 126.844 5.51412 126.818 6.15604V59.7363V60.7188C126.818 60.8236 126.739 63.5484 128.822 64.7406C130.145 65.579 131.311 65.6445 131.639 65.6445C131.665 65.6445 131.691 65.6445 131.704 65.6445H132.255V66.2209H107.167L107.181 65.6183H107.521C107.534 65.6183 107.547 65.6183 107.587 65.6183C107.914 65.6183 109.067 65.579 110.416 64.7275C112.041 63.7842 112.342 61.8716 112.394 61.0856V61.0725L112.408 37.9767H89.0236L88.9712 60.745L88.9974 61.3738C89.0498 62.1598 89.4428 63.9414 91.0803 64.8847C91.8925 65.4218 92.8619 65.6969 93.8314 65.6576C93.8576 65.6576 93.8838 65.6576 93.8969 65.6576H94.2113V66.234H69.3207ZM80.849 60.7974H82.6175V31.9767H118.84V60.8105H120.608V5.26522H118.84V30.2606H82.6044V5.26522H80.849V60.7974Z" fill="url(#paint4_linear_2048_37947)"/>
<path d="M69.3211 66.234V65.6445H69.832H69.9106C70.9325 65.6445 71.915 65.2384 72.7665 64.7013C73.8669 64.02 74.4695 62.841 74.6529 61.5834C74.7053 61.2952 74.7184 60.9939 74.7184 60.7057V59.7231V6.14294C74.6922 5.50102 74.4826 3.35258 72.7272 2.33075C71.4041 1.49233 70.2381 1.42683 69.9106 1.42683H69.8451L69.2949 1.41373V0.837319H94.3296V1.41373L93.9759 1.42683H93.9104C93.5829 1.42683 92.4169 1.49233 91.0938 2.34385C89.3384 3.35258 89.1419 5.51413 89.1157 6.14294V7.04686V7.29576V7.85908L89.1419 24.2606H112.395L112.421 7.85908V7.04686V6.16914C112.395 5.52722 112.185 3.36568 110.43 2.34385C109.107 1.50543 107.941 1.43993 107.613 1.43993H107.548L107.194 1.42683V0.824219H132.229V1.42683L131.679 1.43993H131.613C131.286 1.43993 130.12 1.50543 128.796 2.35695C127.054 3.36568 126.831 5.51412 126.805 6.15604V59.7363V60.7188C126.805 60.8236 126.727 63.5484 128.81 64.7406C130.133 65.579 131.299 65.6445 131.626 65.6445C131.652 65.6445 131.679 65.6445 131.692 65.6445H132.242V66.2209H107.168L107.181 65.6183H107.522H107.587C107.915 65.6183 109.067 65.579 110.417 64.7275C112.041 63.7842 112.342 61.8716 112.395 61.0856V61.0725L112.408 37.9767H89.024L88.9716 60.745L88.9978 61.3738C89.0502 62.1598 89.4432 63.9414 91.0807 64.8847C91.8929 65.4218 92.8624 65.6969 93.8318 65.6576C93.858 65.6576 93.8842 65.6576 93.9104 65.6576H94.2117V66.234H69.3211ZM80.8494 60.7974H82.6048V31.9767H118.827V60.8105H120.596V5.26522H118.827V30.2606H82.6048V5.26522H80.8494V60.7974Z" fill="url(#paint5_linear_2048_37947)"/>
<path d="M65.1811 82.1504H70.4736V77.002H73.3294V90.2857H70.4736V84.8752H65.1811V90.2857H62.3252V77.002H65.1811V82.1504Z" fill="black"/>
<path d="M78.6742 90.2857H75.8184V77.002H78.6742V90.2857Z" fill="black"/>
<path d="M85.3824 81.8883L87.0985 82.5433C89.2208 83.3424 90.2426 84.5476 90.2426 86.3424C90.2426 89.0017 88.0286 90.5345 85.5789 90.5345C83.3911 90.5345 81.4654 89.3817 80.627 87.2725L83.0636 85.9625C83.5221 87.1022 84.4653 87.862 85.6182 87.862C86.5483 87.862 87.3212 87.3904 87.3212 86.5389C87.3212 85.897 86.8889 85.4516 85.9457 85.111L84.3605 84.5476C82.4348 83.8402 81.2034 82.6743 81.2034 80.7486C81.2034 78.3381 83.0374 76.7661 85.5265 76.7661C87.4653 76.7399 89.2338 77.8665 90.033 79.635L87.6749 80.9975C87.2819 80.1066 86.5745 79.3992 85.592 79.3992C84.7273 79.3992 84.1247 79.8708 84.1247 80.5783C84.0985 81.194 84.5701 81.5739 85.3824 81.8883Z" fill="black"/>
<path d="M94.8669 79.6613H91.3691V77.002H101.194V79.6613H97.7228V90.2857H94.8669V79.6613Z" fill="black"/>
<path d="M101.849 83.6444C101.836 79.8191 104.914 76.7143 108.739 76.7012C112.565 76.6881 115.669 79.7667 115.683 83.592C115.696 87.4173 112.617 90.522 108.792 90.5351C108.779 90.5351 108.779 90.5351 108.766 90.5351C104.967 90.5613 101.875 87.4959 101.849 83.6968C101.849 83.6837 101.849 83.6706 101.849 83.6444ZM104.757 83.6444C104.757 85.9369 106.512 87.7579 108.766 87.7579C111.019 87.7579 112.774 85.9369 112.774 83.6444C112.774 81.3518 111.006 79.5309 108.766 79.5309C106.512 79.5309 104.757 81.3518 104.757 83.6444Z" fill="black"/>
<path d="M121.958 77.002C124.814 77.002 126.792 78.5347 126.792 81.2464C126.792 83.146 125.653 84.4691 124.067 85.0848L127.709 90.2857H124.369L121.133 85.4254H120.373V90.2857H117.557V77.002H121.958ZM120.373 83.0805H121.985C123.111 83.0805 123.95 82.4124 123.95 81.3119C123.95 80.2115 123.124 79.5696 121.985 79.5696H120.373V83.0805Z" fill="black"/>
<path d="M133.486 81.8622L136.407 77.002H139.604L134.888 84.5215V90.2857H132.032V84.5215L127.303 77.002H130.552L133.486 81.8622Z" fill="black"/>
<path d="M137.351 88.3477H135.91V88.7669H136.421V90.2865H136.84V88.7669H137.351V88.3477Z" fill="black"/>
<path d="M137.586 88.373H138.084L138.673 89.6962L139.276 88.373H139.761V90.2988H139.341V89.146L138.817 90.2988H138.542L138.018 89.146V90.2988H137.599L137.586 88.373Z" fill="black"/>
<defs>
<linearGradient id="paint0_linear_2048_37947" x1="74.6434" y1="50.0395" x2="126.699" y2="17.1473" gradientUnits="userSpaceOnUse">
<stop stop-color="#DD972C"/>
<stop offset="0.26" stop-color="#F8CB45"/>
<stop offset="0.65" stop-color="#F2AC2F"/>
<stop offset="1" stop-color="#FDDB50"/>
</linearGradient>
<linearGradient id="paint1_linear_2048_37947" x1="76.7849" y1="25.3243" x2="129.211" y2="43.2717" gradientUnits="userSpaceOnUse">
<stop stop-color="#DD972C"/>
<stop offset="0.26" stop-color="#B55727"/>
<stop offset="0.49" stop-color="#F2AC2F"/>
<stop offset="0.83" stop-color="#E5B544"/>
<stop offset="1" stop-color="#FDDB50"/>
</linearGradient>
<linearGradient id="paint2_linear_2048_37947" x1="69.2826" y1="33.5357" x2="132.206" y2="33.5357" gradientUnits="userSpaceOnUse">
<stop offset="0.21" stop-color="#EE9322"/>
<stop offset="0.4" stop-color="#F2AC2F"/>
<stop offset="0.67" stop-color="#F8CB45"/>
<stop offset="0.87" stop-color="#FCDE54"/>
<stop offset="1" stop-color="#FEE55A"/>
</linearGradient>
<linearGradient id="paint3_linear_2048_37947" x1="117.187" y1="60.6287" x2="100.585" y2="33.236" gradientUnits="userSpaceOnUse">
<stop offset="0.43" stop-color="#B55727"/>
<stop offset="0.46" stop-color="#BD6829" stop-opacity="0.96"/>
<stop offset="0.51" stop-color="#CB8331" stop-opacity="0.88"/>
<stop offset="0.57" stop-color="#D89D3A" stop-opacity="0.8"/>
<stop offset="0.63" stop-color="#E4B442" stop-opacity="0.71"/>
<stop offset="0.7" stop-color="#EEC749" stop-opacity="0.62"/>
<stop offset="0.77" stop-color="#F6D54E" stop-opacity="0.51"/>
<stop offset="0.86" stop-color="#FCDE52" stop-opacity="0.39"/>
<stop offset="0.99" stop-color="#FEE153" stop-opacity="0.2"/>
</linearGradient>
<linearGradient id="paint4_linear_2048_37947" x1="100.75" y1="56.9406" x2="100.75" y2="33.2763" gradientUnits="userSpaceOnUse">
<stop stop-color="#B55727" stop-opacity="0.7"/>
<stop offset="0.14" stop-color="#BF6C2A" stop-opacity="0.64"/>
<stop offset="0.55" stop-color="#DCA43C" stop-opacity="0.48"/>
<stop offset="0.85" stop-color="#F2CE4C" stop-opacity="0.36"/>
<stop offset="0.99" stop-color="#FEE153" stop-opacity="0.3"/>
</linearGradient>
<linearGradient id="paint5_linear_2048_37947" x1="91.8532" y1="69.4074" x2="107.406" y2="6.72121" gradientUnits="userSpaceOnUse">
<stop stop-color="#B55727" stop-opacity="0.7"/>
<stop offset="0.42" stop-color="#BF6C2A" stop-opacity="0.64"/>
<stop offset="0.85" stop-color="#F2CE4C" stop-opacity="0.36"/>
<stop offset="0.99" stop-color="#FEE153" stop-opacity="0.3"/>
</linearGradient>
</defs>
</svg>
