<svg width="201" height="92" viewBox="0 0 201 92" fill="none" xmlns="http://www.w3.org/2000/svg">
<path fill-rule="evenodd" clip-rule="evenodd" d="M56.683 1.625H139.077C140.084 1.6283 141.05 2.03004 141.762 2.74255C142.475 3.45506 142.877 4.42049 142.88 5.42812V87.8219C142.877 88.8295 142.475 89.7949 141.762 90.5074C141.05 91.22 140.084 91.6217 139.077 91.625H56.683C55.6754 91.6217 54.7099 91.22 53.9974 90.5074C53.2849 89.7949 52.8832 88.8295 52.8799 87.8219V5.42812C52.8832 4.42049 53.2849 3.45506 53.9974 2.74255C54.7099 2.03004 55.6754 1.6283 56.683 1.625ZM85.5207 60.1227H78.577V50.1227H70.602V60.1227H63.6582V33.1289H70.602V43.2727H78.577V33.1289H85.5207V60.1227ZM106.58 60.1227H93.7176C90.5926 60.032 89.5457 58.7695 89.5457 55.6664V33.1289H96.4894V52.7383C96.4894 53.3633 96.7363 53.6758 97.4801 53.6758H106.58V60.1227ZM126.805 60.1227H132.102L132.105 33.1289H125.693V48.6039H125.608L117.333 34.3227C116.671 33.3727 116.011 33.1289 114.686 33.1289H110.593V60.1227H117.052V46.0758H117.133L124.902 59.0445C125.103 59.3697 125.383 59.6389 125.715 59.8273C126.048 60.0157 126.423 60.1173 126.805 60.1227Z" fill="#1E4AD5"/>
<path d="M144.461 89.7492V89.5117H146.155V89.7492H145.448V91.6242H145.167V89.7492H144.461Z" fill="#1E4AD5"/>
<path d="M146.78 89.5059L147.448 91.2871L148.12 89.5059H148.505V91.6246H148.239V89.8621L147.567 91.6246H147.327L146.664 89.8621V91.6246H146.395V89.5059H146.78Z" fill="#1E4AD5"/>
</svg>
