<svg width="201" height="91" viewBox="0 0 201 91" fill="none" xmlns="http://www.w3.org/2000/svg">
<path fill-rule="evenodd" clip-rule="evenodd" d="M47.7614 15.8447C47.1095 15.8447 46.581 16.3732 46.581 17.0251V66.7313C46.581 67.3832 47.1095 67.9117 47.7614 67.9117H78.2843C79.7315 67.9117 81.1283 68.4435 82.2092 69.4058L80.6392 71.169L82.2092 69.4059L100.095 85.3314C100.542 85.7298 101.217 85.7298 101.665 85.3314L119.55 69.4059C120.631 68.4435 122.028 67.9117 123.475 67.9117H153.998C154.65 67.9117 155.179 67.3832 155.179 66.7313V17.0251C155.179 16.3732 154.65 15.8447 153.998 15.8447H119.711C118.407 15.8447 117.35 14.7877 117.35 13.4839C117.35 12.18 118.407 11.123 119.711 11.123H153.998C157.258 11.123 159.9 13.7655 159.9 17.0251V66.7313C159.9 69.9909 157.258 72.6334 153.998 72.6334H123.475C123.186 72.6334 122.906 72.7397 122.69 72.9322L104.805 88.8577C102.567 90.8499 99.1923 90.8499 96.9549 88.8577L79.0693 72.9322C78.8531 72.7397 78.5738 72.6334 78.2843 72.6334H47.7614C44.5018 72.6334 41.8594 69.9909 41.8594 66.7313V17.0251C41.8594 13.7655 44.5018 11.123 47.7614 11.123H81.8824C83.1863 11.123 84.2432 12.18 84.2432 13.4839C84.2432 14.7877 83.1863 15.8447 81.8824 15.8447H47.7614Z" fill="#1F2025"/>
<path fill-rule="evenodd" clip-rule="evenodd" d="M100.88 28.6814C108.703 28.6814 115.045 22.3395 115.045 14.5165C115.045 6.6934 108.703 0.351562 100.88 0.351562C93.0567 0.351562 86.7148 6.6934 86.7148 14.5165C86.7148 22.3395 93.0567 28.6814 100.88 28.6814ZM99.6126 7.76037L99.6212 7.76941L99.6302 7.778C99.9779 8.10827 100.402 8.28146 100.88 8.28146C101.358 8.28146 101.781 8.10748 102.119 7.7693C102.465 7.42348 102.65 6.99676 102.65 6.51085C102.65 6.02819 102.467 5.60644 102.119 5.27177C101.784 4.92388 101.362 4.74023 100.88 4.74023C100.394 4.74023 99.9671 4.92603 99.6213 5.27185C99.2831 5.61003 99.1091 6.03231 99.1091 6.51085C99.1091 6.98875 99.2823 7.41272 99.6126 7.76037ZM100.88 10.1258C99.9019 10.1258 99.1091 10.9186 99.1091 11.8965V22.5201C99.1091 23.498 99.9019 24.2907 100.88 24.2907C101.858 24.2907 102.65 23.498 102.65 22.5201V11.8965C102.65 10.9186 101.858 10.1258 100.88 10.1258Z" fill="black"/>
<path d="M54.1022 37.0159C54.4327 36.6735 54.8104 36.402 55.2236 36.2132C56.0971 35.8118 57.2303 35.8709 57.7969 36.1187C58.1156 36.2486 58.4343 36.4493 58.753 36.7326C59.0363 36.945 59.355 37.0513 59.6973 37.0395C60.0042 37.004 60.2757 36.886 60.4882 36.6853C60.7361 36.4493 60.8777 36.1424 60.8777 35.8C60.8777 35.6584 60.8541 35.5285 60.8423 35.5049C60.8187 35.3279 60.7361 35.1626 60.6889 35.1154C60.6062 34.9856 60.5 34.8557 60.382 34.7731C59.8036 34.3009 59.2134 33.9468 58.6232 33.7343C57.4073 33.2976 55.5777 33.274 54.1612 33.9114C53.4294 34.2301 52.7801 34.6904 52.2372 35.257C51.6942 35.8236 51.2692 36.4847 50.9505 37.2401C50.6554 37.9838 50.502 38.8101 50.502 39.6718C50.502 40.5335 50.6554 41.3716 50.9623 42.1388C51.2692 42.8943 51.706 43.5671 52.249 44.1455C52.8037 44.7121 53.453 45.1489 54.1848 45.4794C54.9285 45.7981 55.7312 45.9515 56.5693 45.9515C57.2775 45.9515 57.9621 45.8335 58.5996 45.6092C59.2488 45.3849 59.8508 45.0426 60.4646 44.5469C60.5944 44.417 60.6889 44.2754 60.7715 44.1101C60.8423 43.9448 60.8659 43.7796 60.8659 43.6025C60.8659 43.1422 60.6771 42.8589 60.5354 42.7172C60.3229 42.4811 60.0396 42.3513 59.7209 42.3277C59.5085 42.3041 59.178 42.3277 58.8238 42.5992C58.4697 42.8589 58.092 43.0713 57.7142 43.213C56.947 43.5081 55.9909 43.4727 55.2354 43.1422C54.8104 42.9533 54.4327 42.6818 54.114 42.3395C53.7953 41.9972 53.5474 41.5958 53.3703 41.1473C53.1933 40.6869 53.0989 40.1912 53.0989 39.66C53.0989 39.1288 53.1933 38.6566 53.3703 38.2081C53.5474 37.7477 53.8071 37.3464 54.114 37.0159H54.1022Z" fill="black"/>
<path d="M72.1974 35.1877C71.6426 34.6211 70.9698 34.1843 70.2143 33.8774C68.7152 33.2518 66.7321 33.2518 65.2212 33.8774C64.4539 34.1843 63.7929 34.6211 63.2263 35.1877C62.6833 35.7425 62.2466 36.4035 61.9515 37.1708C61.6564 37.9262 61.5029 38.7643 61.5029 39.6732C61.5029 40.5821 61.6564 41.4202 61.9515 42.1875C62.2466 42.9429 62.6833 43.6158 63.2263 44.1824C63.7811 44.7372 64.4421 45.1739 65.2094 45.4926C65.9649 45.7877 66.803 45.9412 67.7119 45.9412C68.6208 45.9412 69.4589 45.7877 70.2025 45.4808C70.958 45.1739 71.6308 44.7254 72.1856 44.1706C72.7404 43.604 73.1772 42.9311 73.4723 42.1757C73.7674 41.4084 73.9208 40.5703 73.9208 39.6614C73.9208 38.7525 73.7674 37.9144 73.4723 37.1589C73.1654 36.4035 72.7404 35.7307 72.1856 35.1759L72.1974 35.1877ZM71.3475 39.6732C71.3475 40.2044 71.2531 40.712 71.076 41.1723C70.9108 41.6327 70.6629 42.034 70.3442 42.3645C70.0255 42.6951 69.6359 42.9666 69.1874 43.1554C68.3139 43.5213 67.1335 43.5213 66.2718 43.1554C65.835 42.9548 65.4455 42.6951 65.1268 42.3764C64.8081 42.034 64.5602 41.6327 64.3831 41.1723C64.2061 40.712 64.1116 40.2162 64.1116 39.6732C64.1116 39.1302 64.2061 38.6345 64.3831 38.1741C64.5602 37.7137 64.8081 37.3242 65.1268 36.9937C65.4455 36.6632 65.8232 36.3917 66.26 36.2146C66.7085 36.0258 67.2043 35.9313 67.7355 35.9313C68.2667 35.9313 68.7624 36.0258 69.1992 36.2146C69.6477 36.4035 70.0255 36.6632 70.356 37.0055C70.6747 37.336 70.9226 37.7255 71.0878 38.1859C71.2649 38.6463 71.3593 39.1538 71.3593 39.685L71.3475 39.6732Z" fill="black"/>
<path d="M84.8284 34.2924L81.2517 41.6345L77.5689 34.257C77.3092 33.8084 76.896 33.5605 76.4003 33.5605C76.0343 33.5605 75.7156 33.6904 75.4677 33.9265C75.2081 34.1744 75.0664 34.5049 75.0664 34.8826V44.4675C75.0664 44.8334 75.1963 45.1522 75.4559 45.4118C75.9635 45.9194 76.837 45.9194 77.3446 45.4118C77.5925 45.164 77.7341 44.8334 77.7341 44.4675V40.0646L80.0005 44.5974C80.4491 45.5181 81.7239 45.6951 82.3849 44.6682L84.6985 39.9584V44.4557C84.6985 44.8216 84.8284 45.1403 85.0881 45.4C85.336 45.6479 85.6665 45.7896 86.0324 45.7896C86.3983 45.7896 86.7052 45.6597 86.9413 45.4236C87.2128 45.1758 87.3545 44.8452 87.3545 44.4675V34.8826C87.3545 34.5049 87.2128 34.1744 86.9649 33.9383C86.3747 33.3481 85.3123 33.4425 84.8402 34.2806L84.8284 34.2924Z" fill="black"/>
<path d="M98.7571 34.2924L95.1805 41.6345L91.4976 34.257C91.2379 33.8084 90.8248 33.5605 90.329 33.5605C89.9631 33.5605 89.6325 33.6904 89.3965 33.9265C89.1368 34.1744 88.9951 34.5049 88.9951 34.8826V44.4675C88.9951 44.8334 89.125 45.1522 89.3847 45.4118C89.8922 45.9194 90.7657 45.9194 91.2733 45.4118C91.5212 45.164 91.6628 44.8334 91.6628 44.4675V40.0646L93.9292 44.5974C94.3778 45.5181 95.6526 45.6951 96.3136 44.6682L98.6272 39.9584V44.4557C98.6272 44.8216 98.7571 45.1403 99.0168 45.4C99.2647 45.6479 99.5952 45.7896 99.9611 45.7896C100.327 45.7896 100.634 45.6597 100.87 45.4236C101.142 45.164 101.283 44.8334 101.283 44.4675V34.8826C101.283 34.5049 101.142 34.1744 100.894 33.9383C100.303 33.3481 99.2411 33.4425 98.7689 34.2806L98.7571 34.2924Z" fill="black"/>
<path d="M111.01 33.9251C110.75 34.173 110.608 34.5035 110.608 34.8812V41.4915C110.608 41.8811 110.514 42.2234 110.313 42.5303C110.112 42.8254 109.841 43.0615 109.475 43.2385C108.72 43.6045 107.527 43.5809 106.772 43.2385C106.394 43.0497 106.099 42.8136 105.887 42.5185C105.686 42.2234 105.591 41.8811 105.591 41.4915V34.8812C105.591 34.5035 105.45 34.173 105.226 33.9487C104.753 33.4411 103.833 33.4293 103.337 33.9251C103.077 34.173 102.936 34.5035 102.936 34.8812V41.4915C102.936 42.365 103.16 43.1677 103.62 43.8642C104.069 44.5488 104.706 45.08 105.497 45.4695C106.276 45.8354 107.173 46.0243 108.165 46.0243C109.156 46.0243 110.006 45.8354 110.773 45.4695C111.553 45.08 112.155 44.537 112.591 43.8642C113.04 43.1795 113.264 42.3768 113.264 41.5033V34.8812C113.264 34.5035 113.134 34.1848 112.91 33.9487C112.426 33.4411 111.517 33.4293 111.021 33.9251H111.01Z" fill="black"/>
<path d="M122.767 33.9237C122.507 34.1716 122.365 34.5021 122.365 34.8799V40.8645L117.231 34.03C116.723 33.4279 115.802 33.4043 115.271 33.9355C115.023 34.1834 114.905 34.5021 114.905 34.8799V44.4648C114.905 44.8189 115.023 45.1376 115.283 45.4091C115.802 45.9285 116.711 45.8931 117.16 45.4091C117.408 45.1612 117.549 44.8307 117.549 44.4648V38.4919L122.672 45.3029C122.802 45.4681 122.956 45.5862 123.204 45.7042C123.381 45.7632 123.546 45.7868 123.699 45.7868C124.077 45.7868 124.408 45.6452 124.655 45.3855C124.892 45.1376 125.01 44.8189 125.01 44.453V34.8799C125.01 34.5021 124.88 34.1834 124.655 33.9473C124.183 33.4398 123.263 33.4279 122.767 33.9237Z" fill="black"/>
<path d="M127.063 33.9251C126.804 34.173 126.662 34.5035 126.662 34.8812V44.4662C126.662 44.8321 126.792 45.1508 127.052 45.4105C127.3 45.6584 127.63 45.8 127.996 45.8C128.362 45.8 128.704 45.6584 128.94 45.4105C129.188 45.1626 129.33 44.8321 129.33 44.4662V34.8812C129.33 34.5035 129.188 34.173 128.964 33.9487C128.48 33.4411 127.571 33.4293 127.075 33.9251H127.063Z" fill="black"/>
<path d="M138.62 33.5605H131.041C130.687 33.5605 130.369 33.6904 130.132 33.9265C129.896 34.1626 129.778 34.4695 129.778 34.8236C129.778 35.1777 129.896 35.4846 130.156 35.7561C130.392 35.9804 130.711 36.0984 131.053 36.0984H133.52V44.4793C133.52 44.8452 133.65 45.164 133.91 45.4236C134.158 45.6715 134.488 45.8132 134.854 45.8132C135.22 45.8132 135.539 45.6833 135.798 45.4236C136.046 45.1758 136.188 44.8452 136.188 44.4793V36.0984H138.643C138.997 36.0984 139.316 35.9804 139.54 35.7443C139.788 35.4964 139.918 35.1895 139.918 34.8354C139.918 34.4813 139.788 34.1508 139.564 33.9501C139.328 33.6904 139.009 33.5605 138.643 33.5605H138.62Z" fill="black"/>
<path d="M150.873 33.9266C150.471 33.5017 149.739 33.4899 149.362 33.7378C149.173 33.844 149.007 33.9975 148.878 34.1981L146.009 38.7309L143.188 34.2572C143.058 34.0565 142.917 33.903 142.787 33.8204C142.374 33.4899 141.665 33.5017 141.193 33.8794C140.945 34.0801 140.78 34.3516 140.733 34.6703C140.686 34.989 140.756 35.3077 140.957 35.6382L144.652 41.375V44.5031C144.652 44.869 144.782 45.1877 145.041 45.4474C145.289 45.6953 145.62 45.837 145.974 45.837C146.328 45.837 146.658 45.7071 146.918 45.4474C147.166 45.1995 147.308 44.869 147.308 44.5031V41.375L151.026 35.6382C151.215 35.3431 151.286 35.0362 151.25 34.7411C151.215 34.4342 151.097 34.1627 150.896 33.9502L150.873 33.9266Z" fill="black"/>
<path d="M83.1853 50.0859C82.8312 50.0859 82.5007 50.2158 82.2528 50.4637C81.9813 50.7234 81.8633 51.0539 81.8633 51.408V60.9929C81.8633 61.347 81.9931 61.6775 82.2528 61.9372C82.5125 62.1969 82.8312 62.3268 83.1971 62.3268C83.5631 62.3268 83.8936 62.2087 84.1415 61.9372C84.3894 61.6775 84.5192 61.3588 84.5192 61.0047V51.4198C84.5192 51.0657 84.4012 50.7352 84.1297 50.4755C83.87 50.204 83.5395 50.0859 83.1853 50.0859Z" fill="black"/>
<path d="M94.9657 50.0859C94.6116 50.0859 94.2811 50.2158 94.0332 50.4637C93.7617 50.7234 93.6437 51.0539 93.6437 51.408V57.3927L88.5207 50.5817C88.261 50.263 87.9069 50.0859 87.5056 50.0859C87.1514 50.0859 86.8209 50.2158 86.5612 50.4755C86.3015 50.7352 86.1953 51.0657 86.1953 51.4198V61.0047C86.1953 61.347 86.3134 61.6775 86.5494 61.9372V61.949C86.8091 62.2087 87.1278 62.3386 87.4938 62.3386C87.8597 62.3386 88.1902 62.2205 88.4381 61.949C88.686 61.6893 88.8158 61.3706 88.8158 61.0165V55.0555L93.9388 61.8546C94.0686 62.0317 94.2339 62.1497 94.411 62.2323H94.4346L94.4582 62.2559C94.6116 62.3032 94.7887 62.3386 94.9539 62.3386C95.3081 62.3386 95.6504 62.2205 95.9101 61.9372C96.158 61.6775 96.2642 61.3588 96.2642 61.0047V51.4198C96.2642 51.0775 96.158 50.747 95.8983 50.4873C95.6386 50.2158 95.3081 50.0977 94.9539 50.0977L94.9657 50.0859Z" fill="black"/>
<path d="M119.448 53.6991C119.141 52.9436 118.716 52.2708 118.161 51.716C117.606 51.1494 116.934 50.7127 116.178 50.4058C115.423 50.087 114.585 49.9336 113.687 49.9336C112.79 49.9336 111.952 50.087 111.185 50.4058C110.418 50.7127 109.757 51.1494 109.202 51.716C108.647 52.2708 108.222 52.9436 107.927 53.6991C107.62 54.4664 107.479 55.3044 107.479 56.2016C107.479 57.0987 107.632 57.9368 107.927 58.7158C108.222 59.4713 108.647 60.1441 109.202 60.7107C109.757 61.2773 110.418 61.7141 111.185 62.021C111.952 62.3279 112.79 62.4813 113.687 62.4813C114.585 62.4813 115.423 62.3279 116.178 62.0328C116.934 61.7141 117.595 61.2891 118.161 60.7225C118.716 60.1559 119.153 59.4831 119.448 58.7276C119.755 57.9486 119.896 57.1105 119.896 56.2134C119.896 55.3163 119.743 54.4782 119.448 53.7109V53.6991ZM117.028 57.7007C116.863 58.161 116.615 58.5624 116.296 58.8929C115.977 59.2234 115.588 59.4831 115.139 59.6838C114.714 59.8608 114.23 59.9671 113.687 59.9671C113.144 59.9671 112.661 59.8726 112.224 59.6838C111.787 59.4831 111.409 59.2234 111.091 58.8929C110.772 58.5506 110.524 58.161 110.347 57.7007C110.17 57.2403 110.075 56.7445 110.075 56.2016C110.075 55.6586 110.17 55.1628 110.347 54.7024C110.524 54.2421 110.772 53.8525 111.091 53.522C111.409 53.1797 111.787 52.92 112.224 52.743C112.661 52.5541 113.156 52.4597 113.699 52.4597C114.242 52.4597 114.726 52.5541 115.151 52.743C115.6 52.9318 115.977 53.1915 116.296 53.522C116.615 53.8525 116.863 54.2421 117.028 54.6906C117.205 55.151 117.3 55.6468 117.3 56.2016C117.3 56.7564 117.205 57.2403 117.028 57.7007Z" fill="black"/>
<path d="M105.955 50.088H99.5457C99.1916 50.088 98.8611 50.2178 98.6132 50.4657C98.3417 50.7254 98.2236 51.0559 98.2236 51.41V60.9949C98.2236 61.3491 98.3535 61.6796 98.6132 61.9393C98.8729 62.199 99.1916 62.3288 99.5575 62.3288C99.9234 62.3288 100.242 62.199 100.502 61.9393C100.762 61.6796 100.891 61.3609 100.891 60.9949V57.4183H104.374C104.704 57.4183 105.035 57.3239 105.294 57.076V57.0642C105.542 56.8163 105.66 56.4976 105.66 56.1553C105.66 55.813 105.542 55.4942 105.282 55.2464C105.023 54.9867 104.692 54.8804 104.35 54.8804H100.868V52.614H105.943C106.274 52.614 106.605 52.5196 106.864 52.2717C107.124 52.0238 107.254 51.7051 107.254 51.3628C107.254 51.0205 107.136 50.69 106.876 50.4421C106.616 50.1824 106.286 50.0762 105.943 50.0762L105.955 50.088Z" fill="black"/>
</svg>
