<svg width="201" height="91" viewBox="0 0 201 91" fill="none" xmlns="http://www.w3.org/2000/svg">
<path d="M100.873 90.9227C125.723 90.9227 145.867 70.7784 145.867 45.9291C145.867 21.0799 125.723 0.935547 100.873 0.935547C76.0242 0.935547 55.8799 21.0799 55.8799 45.9291C55.8799 70.7784 76.0242 90.9227 100.873 90.9227Z" fill="#6B8987"/>
<path d="M68.6874 46.6228H60.7148V44.8354H68.6874V46.6228ZM141.019 44.8354H133.059V46.6228H141.019V44.8354ZM74.1525 26.087C75.1434 26.0059 76.0648 25.5452 76.7243 24.8012C76.9542 24.5817 77.1385 24.3192 77.2668 24.0285C77.3951 23.7378 77.4649 23.4246 77.472 23.1069C77.4792 22.7892 77.4236 22.4732 77.3086 22.177C77.1935 21.8808 77.0212 21.6102 76.8014 21.3807L76.6471 21.2392C74.7954 19.619 72.7895 22.2551 71.9922 21.6121C71.9288 21.5488 71.8785 21.4737 71.8442 21.3909C71.8099 21.3082 71.7923 21.2195 71.7923 21.1299C71.7923 21.0403 71.8099 20.9516 71.8442 20.8689C71.8785 20.7862 71.9288 20.711 71.9922 20.6477C72.4187 20.2099 72.9806 19.929 73.5867 19.8504L73.0595 18.2816C72.6203 18.3384 72.1967 18.4812 71.8127 18.7019C71.4288 18.9225 71.0922 19.2167 70.822 19.5675C70.3517 20.0077 70.0753 20.6165 70.0536 21.2603C70.0319 21.904 70.2667 22.5301 70.7063 23.0009L70.822 23.1166C72.5966 24.6854 74.7955 22.1522 75.4898 22.7566C75.6194 22.8888 75.692 23.0665 75.692 23.2516C75.692 23.4368 75.6194 23.6145 75.4898 23.7467C75.0008 24.2081 74.3718 24.4932 73.7024 24.5568L74.1525 26.087ZM81.7007 19.8762L83.2695 18.9503L81.7007 16.3785L84.0282 14.9898L85.5841 17.5615L87.1401 16.6228L83.1795 9.96189L81.6107 10.8877L83.1924 13.5495L80.8777 14.9383L79.2832 12.2765L77.7273 13.2023L81.7007 19.8762ZM90.4062 11.1578C90.4957 11.6622 90.6848 12.1438 90.9625 12.5743C91.2401 13.0049 91.6007 13.3759 92.0233 13.6656C92.4459 13.9552 92.9219 14.1579 93.4236 14.2616C93.9253 14.3653 94.4427 14.368 94.9454 14.2696C95.4499 14.1801 95.9315 13.991 96.362 13.7134C96.7926 13.4358 97.1635 13.0751 97.4532 12.6526C97.7429 12.23 97.9455 11.754 98.0493 11.2523C98.153 10.7506 98.1557 10.2332 98.0573 9.73043C97.9726 9.2199 97.786 8.73164 97.5086 8.29473C97.2313 7.85781 96.8688 7.48117 96.4429 7.18722C96.017 6.89327 95.5363 6.68802 95.0294 6.5837C94.5225 6.47937 93.9998 6.47811 93.4924 6.57998C92.9819 6.66473 92.4936 6.85133 92.0567 7.12869C91.6198 7.40604 91.2431 7.76847 90.9492 8.1944C90.6552 8.62032 90.45 9.10105 90.3457 9.60794C90.2414 10.1148 90.2401 10.6375 90.3419 11.1449L90.4062 11.1578ZM92.2579 10.8106C92.173 10.5524 92.1411 10.2797 92.1642 10.0089C92.1872 9.73805 92.2647 9.47466 92.3919 9.2345C92.5192 8.99434 92.6937 8.78237 92.9049 8.61127C93.1161 8.44017 93.3596 8.31348 93.621 8.23879C93.8743 8.16173 94.1403 8.13557 94.4037 8.16181C94.6672 8.18806 94.9228 8.26619 95.1559 8.39171C95.389 8.51722 95.595 8.68763 95.7619 8.89312C95.9288 9.09861 96.0534 9.3351 96.1285 9.58898C96.1666 9.72789 96.1924 9.86989 96.2056 10.0133C96.3363 10.5534 96.2525 11.123 95.972 11.6026C95.6914 12.0822 95.2359 12.4343 94.7011 12.5851C94.4174 12.6173 94.1301 12.5933 93.8557 12.5144C93.5813 12.4356 93.3251 12.3034 93.1018 12.1254C92.8785 11.9475 92.6924 11.7273 92.5542 11.4774C92.4161 11.2275 92.3285 10.9529 92.2965 10.6691L92.2579 10.8106ZM103.098 13.7424L104.898 13.9996L105.245 11.6207L106.531 11.8007C107.169 11.8887 107.816 11.7201 108.329 11.332C108.843 10.9439 109.181 10.3679 109.27 9.73043C109.277 9.6534 109.277 9.57599 109.27 9.49896C109.345 9.18486 109.357 8.85914 109.305 8.54045C109.254 8.22175 109.14 7.91633 108.971 7.64164C108.801 7.36695 108.579 7.12839 108.317 6.9396C108.055 6.75081 107.759 6.61549 107.444 6.54139H107.251L104.243 6.10419L103.098 13.7424ZM105.528 10.0262L105.786 7.96874L106.711 8.11019C107.303 8.18735 107.547 8.65027 107.47 9.2675C107.463 9.51539 107.36 9.75086 107.182 9.92379C107.005 10.0967 106.767 10.1934 106.519 10.1933H106.377L105.528 10.0262ZM112.588 15.7741L114.208 16.5971L115.584 13.8839L117.989 15.1698L116.613 17.8573L118.246 18.6803L121.731 11.775L120.11 10.952L118.709 13.7296L116.304 12.4437L117.693 9.66613L116.073 8.85601L112.588 15.7741ZM124.624 18.436C124.236 18.7625 123.917 19.1623 123.683 19.6125C123.45 20.0627 123.308 20.5545 123.265 21.0597C123.222 21.5649 123.279 22.0735 123.433 22.5567C123.587 23.0398 123.834 23.4879 124.161 23.8753L124.315 24.0425C124.826 24.6094 125.5 25.0046 126.244 25.1741V26.2414H127.826V25.1998C128.637 25.0832 129.395 24.7247 129.999 24.1711C130.376 23.8241 130.681 23.4054 130.895 22.9394C131.109 22.4734 131.227 21.9694 131.244 21.457C131.261 20.9446 131.175 20.434 130.992 19.955C130.81 19.476 130.533 19.0383 130.179 18.6674C129.832 18.2919 129.414 17.989 128.949 17.7764C128.485 17.5638 127.982 17.4457 127.471 17.4289C126.96 17.4122 126.451 17.4971 125.974 17.6788C125.496 17.8605 125.059 18.1354 124.688 18.4874L124.624 18.436ZM125.91 19.8119C126.276 19.4225 126.782 19.1933 127.316 19.1741C127.851 19.1548 128.371 19.347 128.765 19.709C128.958 19.8905 129.114 20.1083 129.223 20.35C129.332 20.5917 129.393 20.8526 129.401 21.1177C129.409 21.3828 129.365 21.647 129.272 21.8951C129.178 22.1432 129.036 22.3704 128.855 22.5637C128.801 22.6299 128.741 22.6903 128.675 22.7437C128.431 22.985 128.136 23.1695 127.813 23.2838V22.2294L126.244 22.3065V23.3995C125.985 23.2923 125.753 23.13 125.563 22.9237C125.198 22.487 125.022 21.9235 125.073 21.357C125.123 20.7904 125.397 20.2671 125.833 19.9019L125.91 19.8119ZM132.738 77.7673C136.918 73.588 140.233 68.6263 142.495 63.1656C144.757 57.7049 145.922 51.852 145.922 45.9413C145.922 40.0306 144.757 34.1778 142.495 28.717C140.233 23.2563 136.918 18.2946 132.738 14.1153C128.559 9.93562 123.597 6.62006 118.136 4.35799C112.676 2.09592 106.823 0.931641 100.912 0.931641C95.0013 0.931641 89.1485 2.09592 83.6878 4.35799C78.227 6.62006 73.2653 9.93562 69.0861 14.1153C64.9063 18.2946 61.5908 23.2563 59.3287 28.717C57.0666 34.1778 55.9023 40.0306 55.9023 45.9413C55.9023 51.852 57.0666 57.7049 59.3287 63.1656C61.5908 68.6263 64.9063 73.588 69.0861 77.7673C77.525 86.1968 88.9649 90.9317 100.893 90.9317C112.821 90.9317 124.261 86.1968 132.699 77.7673H132.738ZM131.452 15.3755C135.467 19.389 138.652 24.1541 140.825 29.3986C142.998 34.6432 144.116 40.2644 144.116 45.9413C144.116 51.6182 142.998 57.2394 140.825 62.484C138.652 67.7286 135.467 72.4937 131.452 76.5071C127.438 80.5224 122.671 83.7075 117.426 85.8805C112.18 88.0536 106.558 89.1721 100.88 89.1721C95.202 89.1721 89.5796 88.0536 84.334 85.8805C79.0884 83.7075 74.3222 80.5224 70.3076 76.5071C66.2928 72.4937 63.108 67.7286 60.9351 62.484C58.7622 57.2394 57.6438 51.6182 57.6438 45.9413C57.6438 40.2644 58.7622 34.6432 60.9351 29.3986C63.108 24.1541 66.2928 19.389 70.3076 15.3755C78.4171 7.26949 89.4138 2.71585 100.88 2.71585C112.346 2.71585 123.343 7.26949 131.452 15.3755ZM100.873 16.8672C97.0538 16.8672 93.2717 17.6201 89.7433 19.083C86.2149 20.5459 83.0094 22.69 80.3103 25.3927C77.6113 28.0953 75.4714 31.3036 74.0132 34.8339C72.555 38.3642 71.8071 42.1474 71.8122 45.967C71.8138 49.7851 72.5675 53.5655 74.0302 57.0922C75.4929 60.619 77.6359 63.8232 80.3369 66.5218C83.0379 69.2204 86.2439 71.3606 89.772 72.8201C93.3001 74.2797 97.0811 75.03 100.899 75.0283C108.606 75.0249 115.996 71.962 121.445 66.5127C126.894 61.0634 129.957 53.6735 129.96 45.967C129.96 38.2595 126.899 30.8676 121.449 25.4176C115.999 19.9675 108.607 16.9057 100.899 16.9057L100.873 16.8672ZM69.3818 70.7463L70.6677 72.1608L72.8794 70.0905L74.8469 72.1865L72.6351 74.2568L73.921 75.6713L79.579 70.3734L78.2931 68.9589L76.0299 71.0806L74.0753 68.9846L76.3385 66.8629L75.0526 65.4484L69.3818 70.7463ZM80.3634 80.3005L84.954 82.6666L85.7127 81.2264L82.8966 79.7604L83.5781 78.4745L85.7127 79.5804L86.4714 78.1402L84.324 77.0343L84.9797 75.7484L87.5515 77.1501L88.3102 75.7099L83.9125 73.421L80.3634 80.3005ZM96.2442 85.6498L98.2116 85.9713L96.7714 77.8959L94.7654 77.5744L90.9077 84.8011L92.8752 85.1098L93.5953 83.5795L96.0256 83.9782L96.2442 85.6498ZM95.4984 79.4775C95.4976 79.9339 95.532 80.3896 95.6013 80.8406L95.807 82.3965L94.2639 82.1522L94.9454 80.7377C95.164 80.2876 95.4727 79.4518 95.4727 79.4518L95.4984 79.4775ZM105.001 85.727L110.145 84.9297L109.888 83.3224L106.699 83.8239L105.747 77.7801L103.844 78.0759L105.001 85.727ZM117.474 82.3065L119.21 81.4578L116.523 75.9542L118.683 74.8997L117.976 73.4338L111.958 76.3785L112.665 77.8444L114.825 76.79L117.474 82.3065ZM127.054 76.3014L128.417 74.9126L126.244 72.7909L128.25 70.7334L130.423 72.8552L131.709 71.4664L126.18 66.0528L124.817 67.4415L127.029 69.6018L125.023 71.685L122.811 69.5247L121.461 70.9135L127.054 76.3014ZM123.917 52.3965V58.0802C121.504 58.1009 119.137 57.422 117.101 56.1256C115.086 57.4226 112.741 58.1122 110.344 58.1122C107.948 58.1122 105.602 57.4226 103.587 56.1256C101.3 54.6171 99.567 52.4054 98.6488 49.8247V57.6558H92.6694V48.1402H83.8353V57.6558H77.8945V33.6867H83.8353V43.2023H92.6694V33.6867H98.6231V41.4021C99.182 39.8586 100.039 38.4402 101.146 37.2281C102.253 36.016 103.588 35.0338 105.075 34.3376C106.562 33.6414 108.171 33.245 109.811 33.1708C111.451 33.0966 113.089 33.3462 114.633 33.9053C117.046 34.7793 119.131 36.3748 120.606 38.4753C122.08 40.5757 122.873 43.0791 122.875 45.6456H117.101C117.105 47.4372 117.819 49.1543 119.087 50.42C120.355 51.6857 122.074 52.3965 123.865 52.3965H123.917ZM117.101 45.6584C117.103 44.7697 116.929 43.8894 116.59 43.068C116.251 42.2466 115.753 41.5003 115.124 40.8719C114.496 40.2435 113.749 39.7453 112.928 39.406C112.107 39.0667 111.226 38.8929 110.338 38.8946C109.449 38.8929 108.569 39.0667 107.747 39.406C106.926 39.7453 106.18 40.2435 105.551 40.8719C104.923 41.5003 104.425 42.2466 104.085 43.068C103.746 43.8894 103.572 44.7697 103.574 45.6584C103.581 47.4478 104.296 49.1616 105.564 50.4245C106.832 51.6875 108.548 52.3965 110.338 52.3965C111.262 52.3945 112.176 52.2065 113.025 51.8436C111.946 49.9561 111.379 47.8196 111.379 45.6456H117.101V45.6584Z" fill="white"/>
</svg>
