<svg width="201" height="91" viewBox="0 0 201 91" fill="none" xmlns="http://www.w3.org/2000/svg">
<path d="M145.88 45.2871C145.88 57.2218 141.139 68.6678 132.7 77.1069C124.261 85.546 112.815 90.2871 100.88 90.2871C88.9451 90.2871 77.4992 85.546 69.0601 77.1069C60.6209 68.6678 55.8799 57.2218 55.8799 45.2871C55.8799 33.3524 60.6209 21.9064 69.0601 13.4673C77.4992 5.02817 88.9451 0.287109 100.88 0.287109C112.815 0.287109 124.261 5.02817 132.7 13.4673C141.139 21.9064 145.88 33.3524 145.88 45.2871Z" fill="url(#paint0_linear_2048_37924)"/>
<path d="M64.6729 34.3234H69.6571V43.3823H81.9806V34.4126H86.7863V58.2499H81.9806V48.342H69.6571V58.2499H64.6729V34.3234ZM88.4011 53.1192L92.0191 49.5396C94.1453 52.6873 98.2163 54.0966 101.03 54.0966C103.057 54.0966 106.437 53.3519 106.437 51.6071C106.437 48.8441 101.94 49.1877 97.8095 48.5642C93.6169 47.9313 89.4043 46.1472 89.4043 41.3371C89.4043 36.2015 94.5801 34.1879 100.034 34.0865C104.594 34.0017 109.348 35.1184 111.436 38.1445L108.48 41.425C106.144 38.9204 94.8893 37.2171 94.8893 40.7986C94.8893 45.4753 112.183 40.1171 112.183 51.3209C112.183 57.4027 106.999 59.212 100.923 59.212C95.624 59.212 90.8301 56.8405 88.4011 53.1192ZM114.43 34.502H119.609L132.34 49.2794V34.502H137.257V58.2484H132.562L119.258 42.025V58.2484H114.43V34.502Z" fill="white"/>
<defs>
<linearGradient id="paint0_linear_2048_37924" x1="101.413" y1="2.39554" x2="101.413" y2="88.6291" gradientUnits="userSpaceOnUse">
<stop stop-color="#284998"/>
<stop offset="1" stop-color="#06B0EE"/>
</linearGradient>
</defs>
</svg>
