<svg width="201" height="91" viewBox="0 0 201 91" fill="none" xmlns="http://www.w3.org/2000/svg">
<path fill-rule="evenodd" clip-rule="evenodd" d="M84.8998 0.464844C109.763 0.464844 129.914 20.6055 129.914 45.4627C129.914 70.3158 109.763 90.4648 84.8998 90.4648C60.0326 90.4648 39.8799 70.3158 39.8799 45.4627C39.8799 20.6055 60.0326 0.464844 84.8998 0.464844Z" fill="#0178C8"/>
<path fill-rule="evenodd" clip-rule="evenodd" d="M47.3516 35.0176V57.5249H51.9552V47.9685H65.8575V57.5249H70.4654V35.0176H69.98H65.8575V43.6445H51.9552V35.0176H47.3516Z" fill="#FEFEFE"/>
<path fill-rule="evenodd" clip-rule="evenodd" d="M96.4228 51.1056C96.7974 44.6856 88.7851 43.9341 84.5096 43.6074C80.0238 43.2667 78.1989 42.5432 78.3616 40.7878C78.5425 38.8656 82.0395 38.0188 84.5237 38.1449C87.684 38.3034 89.7698 38.5628 93.212 40.8383C93.212 40.8383 94.3735 39.3311 95.6093 37.8295C91.3703 34.6762 87.0233 34.3187 84.4914 34.278C82.5964 34.2584 73.8743 34.6061 73.7803 41.0851C73.6906 47.0004 81.5948 47.6383 84.4605 48.0113C86.5492 48.2805 91.763 48.4137 91.763 50.807C91.763 53.0251 87.5647 54.0051 84.5293 53.8004C79.9046 53.4863 78.1021 52.01 75.8086 49.6952C74.6416 50.9374 72.9219 52.6717 72.9219 52.6717C75.4986 55.6217 80.0729 57.9099 84.4605 58.0753C86.9602 58.1636 96.0525 57.6098 96.4228 51.1056Z" fill="#FEFEFE"/>
<path fill-rule="evenodd" clip-rule="evenodd" d="M118.511 57.4487H122.495V35.0605H122.014H117.93V50.0332C116.441 48.3844 104.377 35.0605 104.377 35.0605H99.3516V57.4487H103.815V41.074C105.33 42.7579 118.511 57.4487 118.511 57.4487Z" fill="#FEFEFE"/>
<path d="M146.658 58.3297C150.647 54.5866 153.578 51.6571 155.396 49.5143C158.625 45.6085 160.227 41.9738 160.227 38.6105C160.227 35.2742 159.087 32.5889 156.807 30.5004C154.528 28.4389 151.543 27.4082 147.879 27.4082C142.371 27.4082 137.893 29.4696 134.393 33.5654V34.2164L138.436 38.4477H139.06C141.258 35.6268 143.809 34.2164 146.713 34.2164C149.833 34.2164 151.95 36.115 151.95 39.0173C151.95 41.1059 150.376 43.764 147.228 46.9918C146.17 48.1039 144.243 50.0297 141.421 52.7421C138.572 55.4816 136.319 57.6787 134.664 59.3333V65.3819H161.502V58.3297H146.658Z" fill="#0178C8"/>
</svg>
