<svg width="201" height="91" viewBox="0 0 201 91" fill="none" xmlns="http://www.w3.org/2000/svg">
<path d="M53.1281 41.9971C53.1281 42.0754 53.0654 42.1459 52.9793 42.1381C52.7443 42.1224 52.5328 42.1146 52.3527 42.0441C51.7261 41.8013 51.2327 41.958 50.7001 42.3652C49.1729 43.5166 47.9197 44.9342 46.7606 46.4223C44.8574 48.8502 42.9698 51.3095 41.2233 53.8549C39.1399 56.8938 37.1271 59.9953 35.4275 63.2848C35.404 63.3318 35.3805 63.3709 35.357 63.4258C35.3022 63.5433 35.4197 63.6607 35.5372 63.6059C35.9758 63.3944 36.3674 63.2221 36.7355 63.0028C39.9388 61.1153 42.8915 58.8988 45.6876 56.4474C49.635 52.9856 53.6058 49.5473 57.561 46.0933C58.2581 45.4824 58.9552 44.8793 59.6131 44.2293C60.2318 43.6105 60.9602 43.5714 61.6729 43.8612C63.02 44.4094 63.9285 45.4119 64.375 46.8217C64.4141 46.947 64.422 47.0802 64.4376 47.2055C64.4376 47.229 64.4376 47.2603 64.4298 47.2838C64.422 47.3386 64.3671 47.3621 64.3201 47.3856C64.2418 47.4326 64.1635 47.4169 64.1009 47.3934C63.3568 47.1585 62.8634 47.5736 62.4326 48.0592C61.0072 49.6648 59.5582 51.2547 58.2111 52.9307C56.817 54.6695 55.5247 56.4944 54.1932 58.2801C54.1071 58.3897 54.0366 58.515 53.9896 58.656C54.4752 58.2018 54.9608 57.7553 55.4542 57.3011C59.0335 54.0272 62.7381 50.8944 66.6541 48.0278C68.385 46.759 70.2021 45.4667 72.0504 44.4877C72.2306 44.3703 72.4499 44.2919 72.6457 44.1979C73.4759 43.8142 74.2278 43.9473 74.87 44.5896C75.4574 45.177 75.896 45.874 76.1231 46.6807C76.2484 47.1272 76.1545 47.4639 75.8333 47.8477C74.6429 49.2575 73.4994 50.7143 72.3559 52.171C70.3195 54.7556 68.4242 57.442 66.7246 60.2616C66.2547 61.037 65.8944 61.8828 65.5028 62.7052C65.4793 62.7522 65.4558 62.8149 65.4323 62.8854C65.3697 63.0733 65.5733 63.2456 65.7456 63.1516C66.4113 62.7914 67.1397 62.4311 67.7506 62.0395C70.2647 60.4261 72.4029 58.3427 74.6429 56.4004C75.896 55.3195 77.1335 54.223 78.3788 53.1266C78.4101 53.0952 78.4336 53.0482 78.4258 53.0012C78.3709 52.7114 78.3083 52.4295 78.2926 52.1475C78.2456 51.1137 78.7312 50.2522 79.303 49.4533C80.5091 47.7459 82.1695 46.5476 83.9552 45.5216C86.1874 44.2449 88.5605 43.3286 91.1216 42.9605C91.4976 42.9056 91.8735 42.8978 92.2494 42.8743C93.0561 42.8195 93.6279 43.2033 94.0117 43.8847C94.5208 44.7854 94.6774 45.7644 94.6696 46.7825C94.6696 47.2995 94.3876 47.6676 94.0587 48.0122C92.9622 49.1948 91.7247 50.2052 90.3149 51.004C90.033 51.1607 89.7275 51.3017 89.3594 51.2625C89.2497 51.2468 89.1949 51.1137 89.2732 51.0354C90.7065 49.5394 92.179 48.1218 93.1971 46.3596C93.0718 46.1873 93.0561 46.1716 92.9308 45.9993C92.3278 46.1403 91.7169 46.2578 91.1529 46.4849C88.584 47.5109 86.2109 48.905 84.0649 50.6438C83.2034 51.3408 82.475 52.218 81.7779 53.0874C81.1905 53.8158 81.3002 54.3954 81.9659 55.0611C82.2792 55.3822 82.6159 55.6798 82.9527 56.0009C82.9919 56.0401 83.0545 56.0479 83.1094 56.0244C84.2999 55.4057 85.4668 54.7791 86.6573 54.1917C89.3046 52.8759 92.085 51.9047 94.8732 50.9649C95.6094 50.7143 96.3848 50.5655 97.1288 50.3305C97.3403 50.26 97.5753 50.119 97.7084 49.9389C99.2122 47.9339 100.841 46.0385 102.674 44.3233C103.05 43.9708 103.496 43.8768 103.974 44.0961C105.212 44.6835 106.081 45.6077 106.512 46.9157C106.535 46.9783 106.543 47.041 106.551 47.1037C106.551 47.1115 106.551 47.1272 106.551 47.135C106.559 47.229 106.457 47.2995 106.363 47.2681C105.807 47.0488 105.392 47.3778 105.039 47.7302C104.209 48.5918 103.379 49.4611 102.635 50.401C101.75 51.5131 100.904 52.6566 100.089 53.8236C99.9954 53.9568 100.183 54.1134 100.293 53.9959L100.301 53.9881C103.128 51.1059 106.332 48.6779 109.707 46.4928C111.148 45.5607 112.644 44.6992 114.359 44.3154C115.002 44.1745 115.589 44.2528 116.051 44.7462C116.552 45.2788 117.03 45.827 117.508 46.3753C117.923 46.8609 117.97 47.4248 117.853 48.0278C117.594 49.3828 117.015 50.6046 116.341 51.7873C114.79 54.505 112.832 56.9095 110.6 59.079C108.579 61.037 106.394 62.7992 103.716 63.8095C101.922 64.4909 100.121 64.6319 98.3506 63.7156C97.5439 63.3005 96.9017 62.7052 96.5884 61.8124C96.4709 61.4991 96.5179 61.2484 96.7137 61.0057C96.7764 60.9273 96.9017 60.9508 96.9409 61.0448C97.309 61.9377 97.9669 62.4937 98.9459 62.4076C99.6743 62.3449 100.426 62.0943 101.084 61.7575C102.932 60.8177 104.374 59.3531 105.807 57.8806C107.459 56.1811 108.885 54.2935 110.287 52.406C111.556 50.7064 112.723 48.9207 113.537 46.9392C113.576 46.8374 113.615 46.7355 113.655 46.6024C113.694 46.4928 113.576 46.3909 113.474 46.4379C113.067 46.6181 112.707 46.7669 112.362 46.9392C108.744 48.8111 105.486 51.2312 102.384 53.8471C101.053 54.9749 99.7918 56.1811 98.5073 57.3637C97.8181 57.9981 97.1367 58.656 96.4788 59.3217C96.1342 59.6742 95.8052 60.0501 95.5311 60.4574C94.6539 61.7575 91.8265 65.6344 89.3202 69.8011C87.1586 73.396 83.3913 80.4528 82.6394 83.6248V83.6326C82.2635 84.7448 82.0755 86.2329 81.9189 87.3999C81.8092 88.1752 82.146 88.4964 82.8352 88.7548C82.9214 88.7861 82.9527 88.888 82.8979 88.9663C82.7413 89.1699 82.4985 89.3266 82.2243 89.4127C80.0235 90.0706 78.4023 88.0578 78.3396 86.1154C78.2926 84.6664 78.7077 83.3037 79.0993 81.9409C79.906 79.1213 81.2218 76.5054 82.4515 73.8581C84.1354 70.224 86.3832 66.9189 88.3647 63.4571C90.3854 59.9092 92.9543 56.7372 95.257 53.385C95.6329 52.8368 96.0245 52.2963 96.424 51.7403C96.4944 51.6384 96.4005 51.4975 96.283 51.5288C93.8472 52.1397 85.4747 55.6093 83.7516 56.7215C83.6811 56.7685 83.6733 56.8546 83.7203 56.9173C84.0492 57.3167 84.4017 57.7083 84.6993 58.1313C85.7566 59.635 85.7331 60.5984 84.3703 62.1648C83.3365 63.3553 82.0442 64.2481 80.6501 64.9844C79.0288 65.8381 77.3371 66.5116 75.5436 66.8954C74.7055 67.0755 73.844 67.1617 72.9903 67.2322C72.7162 67.2557 72.3951 67.146 72.1366 67.0129C71.0088 66.4098 70.672 64.8199 71.4317 63.8095C72.3011 62.6426 73.4524 61.781 74.6115 60.9352C76.7497 59.3766 79.0367 58.0686 81.4176 56.8311C81.496 56.792 81.5116 56.6823 81.449 56.6197C80.6266 55.766 79.8042 54.9201 78.9662 54.0586C78.9114 54.0037 78.8252 54.0037 78.7704 54.0586C78.4023 54.4502 78.0263 54.8809 77.6112 55.2725C75.802 56.9878 74.032 58.7422 72.1601 60.3791C70.343 61.969 65.3148 66.3863 63.2863 66.543H63.2785C62.8555 66.6291 62.5031 66.5351 62.182 66.3002C61.1795 65.5718 60.6234 64.5301 60.2553 63.3788C60.1848 63.1516 60.2553 62.854 60.3258 62.6112C60.8505 60.8333 61.7121 59.2121 62.6754 57.6378C64.6099 54.4658 66.8029 51.4896 69.2544 48.7014C69.4267 48.5056 69.6147 48.3255 69.8809 48.0513C69.7008 48.1453 69.6147 48.1845 69.5363 48.2315C67.9229 49.2653 66.2468 50.2208 64.7039 51.3487C62.6832 52.8289 60.7487 54.4188 58.822 56.0166C55.9241 58.4132 53.1594 60.9508 50.8254 63.9192C50.3477 64.5223 49.9874 65.235 49.6663 65.9399C49.494 66.3237 49.4 66.8014 49.8229 67.1382C49.8542 67.1617 49.8464 67.2087 49.8151 67.2243C48.7813 67.6786 48.0764 67.5063 47.3636 66.6448C47.1522 66.3863 46.925 66.12 46.7449 65.8381C46.0322 64.7494 46.0478 63.6372 46.5648 62.4546C47.8806 59.1651 51.4912 53.9959 51.4912 53.9959C51.4912 53.9959 51.2875 54.1212 51.1857 54.2152C49.3843 55.86 47.5908 57.5047 45.7816 59.1416C44.3013 60.4809 42.8602 61.8594 41.3016 63.1047C39.1399 64.8277 36.9783 66.5743 34.4485 67.7334C33.5948 68.125 32.6706 68.407 31.7543 68.6263C30.9162 68.8299 30.1408 68.5715 29.4751 67.9841C28.8172 67.3967 28.2533 66.7544 27.799 65.9869C27.3918 65.2976 27.2586 64.5849 27.5249 63.8565C27.9165 62.7835 28.3395 61.7105 28.8407 60.6924C30.6969 56.9408 33.0544 53.5103 35.4667 50.0955C37.9025 46.6651 40.4949 43.3677 43.2831 40.2271C44.3091 39.0679 45.4996 38.0497 46.6509 37.0159C47.3871 36.358 48.2957 36.5381 49.0632 36.8749C51.0996 37.7678 52.4937 39.2872 53.1046 41.4645C53.1202 41.6368 53.1202 41.8092 53.1281 41.9971ZM81.6761 58.2253C81.5351 58.1156 81.5351 58.1078 81.3941 57.9981C78.3083 59.8308 75.3164 61.7967 72.5752 64.1385C72.6535 64.162 72.7162 64.1542 72.7788 64.1307C74.8387 63.3318 76.7967 62.3293 78.6451 61.131C79.6632 60.4731 80.6658 59.7682 81.4098 58.797C81.5351 58.6404 81.6056 58.4367 81.6761 58.2253Z" fill="black"/>
<path d="M142.312 47.5005C142.124 47.5005 141.999 47.5397 141.92 47.4927C141.372 47.1872 140.965 47.5162 140.652 47.8608C139.688 48.9024 138.701 49.9363 137.856 51.0641C136.602 52.7323 135.459 54.4789 134.268 56.1863C134.237 56.2333 134.214 56.2881 134.159 56.4056C134.911 55.6694 135.623 54.988 136.313 54.2909C139.602 50.9545 143.275 48.0879 147.05 45.331C147.881 44.7279 148.86 44.305 149.807 43.8742C150.591 43.5218 151.358 43.6001 151.993 44.2658C152.462 44.7593 152.932 45.237 153.387 45.7461C153.543 45.9262 153.629 46.169 153.763 46.404C150.951 49.4429 147.99 52.3407 146.275 56.3508C146.902 56.1471 147.434 56.0062 147.943 55.8104C149.463 55.2151 150.841 54.3693 152.118 53.3667C153.371 52.3721 154.601 51.3382 155.76 50.2339C158.634 47.4848 161.916 45.4093 165.707 44.2267C166.811 43.8821 168.495 43.3573 169.842 43.8272C170.578 44.0935 171.189 44.4773 171.769 44.9159C172.975 45.8244 173.147 46.8504 172.419 48.1819C171.479 49.8971 170.108 51.2207 168.659 52.4895C166.701 54.1969 164.54 55.6067 162.237 56.7815C160.31 57.7684 158.29 58.4811 156.089 58.6064C155.141 59.8674 154.373 61.1988 154.06 62.7574C153.911 63.4937 154.045 63.8461 154.601 64.1516C154.757 64.2377 154.977 64.2769 155.157 64.2455C157.357 63.8853 159.3 62.8906 161.187 61.7549C165.769 58.998 169.74 55.4422 173.915 52.1449C174.204 51.9178 174.478 51.6828 174.768 51.4557C175.121 51.1816 175.794 51.2599 176.123 51.628C176.068 51.6985 176.014 51.7847 175.943 51.8551C174.737 53.03 173.578 54.2518 172.309 55.3639C170.053 57.3455 167.735 59.2408 165.464 61.1988C163.38 62.9924 161.093 64.4492 158.611 65.6083C157.068 66.3289 155.462 66.8693 153.731 66.9006C152.831 66.9163 151.985 66.7126 151.248 66.2036C150.692 65.8198 150.144 65.4047 149.666 64.9348C148.797 64.0811 148.601 62.9767 148.727 61.8254C148.946 59.8752 149.674 58.0973 150.7 56.4369C150.849 56.1941 150.99 55.9435 151.178 55.6146C151.029 55.7007 150.943 55.7399 150.873 55.7947C149.565 56.7267 148.194 57.5334 146.667 58.0817C144.983 58.6926 143.777 58.0895 142.633 56.8834C141.748 55.9513 141.85 54.9802 142.21 53.9228C142.743 52.3799 143.51 50.9701 144.435 49.6152C144.395 49.6073 144.356 49.5917 144.333 49.6073C141.819 51.1581 139.422 52.8733 137.346 54.988C135.193 57.181 133 59.3583 131.292 61.9351C130.431 63.2352 129.695 64.6215 128.935 65.9843C128.512 66.838 128.794 67.4645 128.95 67.6133C128.34 67.8326 127.65 67.5898 127.157 67.2296C126.28 66.5873 125.583 65.7963 125.285 64.6998C125.05 63.8383 125.332 63.0707 125.653 62.311C126.522 60.212 127.462 58.1443 128.731 56.2568C128.739 56.2411 128.731 56.2098 128.739 56.108C128.52 56.3429 128.347 56.5466 128.167 56.7345C126.914 57.972 125.661 59.2095 124.392 60.4313C122.732 62.0291 121.087 63.666 119.192 64.9896C118.33 65.5848 117.414 66.1252 116.458 66.5717C115.424 67.0573 114.469 66.791 113.639 65.9843C112.801 65.1776 112.26 64.269 112.542 63.0629C112.855 61.7236 115.323 57.0792 116.568 55.1133C117.649 53.1944 121.862 47.1089 123.773 45.3232C124.369 44.7671 125.011 44.6496 125.708 44.9942C126.953 45.613 127.885 46.5528 128.465 47.8216C128.567 48.0409 128.59 48.2915 128.653 48.55C128.559 48.5578 128.504 48.5892 128.465 48.5735C127.682 48.1741 127.11 48.5813 126.577 49.0826C125.191 50.3827 124.102 51.9335 123.037 53.4921C121.189 56.202 119.568 59.045 118.04 61.9351C117.805 62.3815 117.617 62.8514 117.343 63.4388C117.86 63.1882 118.283 63.0237 118.659 62.7966C120.617 61.6061 122.418 60.2198 124.102 58.6612C126.217 56.7032 128.3 54.7139 130.454 52.795C131.378 51.9648 131.997 50.931 132.686 49.9441C134.01 48.0487 135.443 46.2474 137.041 44.5713C138.075 43.4905 139.015 43.6158 140.009 44.2737C140.988 44.9237 141.803 45.7461 142.21 46.8896C142.257 47.0776 142.265 47.2734 142.312 47.5005ZM170.249 45.5111C164.555 48.1349 160.357 52.2781 156.762 57.228C159.621 57.1418 169.38 48.691 170.249 45.5111Z" fill="black"/>
<path d="M61.9159 29.0897C60.6236 28.7685 59.6837 29.2385 58.7909 29.912C57.0051 31.2513 55.2351 32.6219 53.8018 34.345C52.8933 35.4337 51.0214 34.6975 50.6141 33.5383C50.2617 32.528 50.4418 31.5568 50.8413 30.6404C51.7263 28.6354 52.8541 26.787 54.4754 25.2676C55.3917 24.4061 56.3864 23.9988 57.5925 24.5627C58.18 24.8368 58.783 25.1109 59.2999 25.4947C60.2633 26.1996 61.1013 27.0376 61.6261 28.142C61.7592 28.4083 61.8062 28.7137 61.9159 29.0897Z" fill="black"/>
<path d="M134.05 39.4905C133.807 39.4905 133.603 39.467 133.407 39.4983C133.086 39.5453 132.718 39.5375 132.46 39.702C131.089 40.587 129.883 41.6835 128.833 42.9366C128.442 43.3987 128.042 43.6494 127.463 43.477C126.883 43.3126 126.539 42.8661 126.452 42.2944C126.39 41.8715 126.398 41.3937 126.523 40.9864C126.993 39.4278 127.784 38.0494 128.943 36.8824C129.593 36.2245 130.337 36.0444 131.191 36.4203C132.35 36.9294 133.227 37.7596 133.869 38.8404C133.932 38.9423 133.971 39.0519 134.01 39.1616C134.026 39.2399 134.026 39.3025 134.05 39.4905Z" fill="black"/>
<path d="M97.9492 7.07031H120.559V32.8141H97.9492V7.07031Z" fill="#EA1B22"/>
<path d="M122.425 7.07031H145.035V32.8141H122.425V7.07031Z" fill="#024698"/>
<path d="M73.4746 7.07031H96.0747V32.8141H73.4746V7.07031Z" fill="#024698"/>
<path d="M75.2109 15.9556H76.1733C76.3022 15.1462 76.4312 14.317 76.9372 13.6161C77.6118 12.6883 78.8619 12.0861 80.2111 12.0861H82.2648V27.1099C82.2648 28.9558 80.7865 28.9262 78.9908 28.9262V29.6862H90.6976V28.9262C88.4456 28.9262 87.4535 28.9558 87.4535 26.8829V12.0861H89.8246C91.1739 12.0861 92.2949 12.5303 93.1283 13.4088C93.9021 14.238 94.0013 14.9191 94.0311 15.9556H94.9934V10.9707H75.2109V15.9556Z" fill="#FFFEFF"/>
<path fill-rule="evenodd" clip-rule="evenodd" d="M99.9141 29.4459H111.264C113.278 29.4459 114.756 29.3669 116.482 28.4884C118.248 27.5803 119.24 26.2576 119.24 24.54C119.24 23.4838 118.794 22.3684 117.931 21.5589C116.71 20.4435 115.044 20.0783 113.307 19.713C115.044 19.407 116.393 19.0714 117.544 17.9264C118.248 17.1959 118.665 16.2878 118.665 15.3599C118.665 12.7638 116.036 10.8686 112.93 10.76C112.097 10.7402 111.293 10.7402 110.46 10.7402H99.9141V11.4904C102.186 11.4904 102.672 11.6484 102.672 13.5634V26.2279C102.672 26.3563 102.702 26.5142 102.702 26.6425C102.831 28.4391 101.839 28.6957 99.9141 28.6957V29.4459ZM107.861 11.8754C108.178 11.8557 108.535 11.826 108.853 11.826C111.611 11.826 113.119 13.3857 113.119 15.5376C113.119 16.9096 112.385 18.4199 110.718 18.9628C109.885 19.2195 108.952 19.2195 108.049 19.2195H107.861V11.8754ZM108.565 20.3942C109.428 20.3942 110.103 20.4139 110.907 20.6508C112.762 21.1937 113.466 22.6744 113.466 24.1846C113.466 26.3069 112.474 28.3107 109.468 28.3107C108.406 28.3107 107.96 27.9159 107.93 27.0867C107.891 26.7017 107.861 26.3069 107.861 25.9219V20.3942H108.565Z" fill="#FFFEFF"/>
<path d="M123.823 11.6518C125.182 11.7308 125.47 12.3823 126.323 13.32V27.3172C126.323 28.9163 125.411 29.0446 124.061 29.0446V29.8047H130.113V29.0446C129.458 29.0446 128.308 29.094 127.792 28.6004C127.345 28.176 127.345 27.5541 127.345 26.9816V14.5243L140.044 29.8047H140.669V13.8234C140.669 13.5076 140.649 13.1621 140.729 12.8561C140.987 11.7308 141.999 11.7308 142.941 11.7308V10.9707H137.078V11.7308C138.219 11.7308 139.657 11.7308 139.657 13.241V22.9542L129.766 10.9707H123.823V11.6518Z" fill="#FFFEFF"/>
</svg>
