<svg width="201" height="91" viewBox="0 0 201 91" fill="none" xmlns="http://www.w3.org/2000/svg">
<path d="M43.4005 90.3253V79.1285H39.4082V77.3848H49.5954V79.1285H45.6031V90.3253H43.4005Z" fill="black"/>
<path d="M53.2676 90.3253V77.3848H62.7664V79.1285H55.4702V82.616H62.2617V84.4057H55.4702V88.5815H62.9959V90.3253H53.2676Z" fill="black"/>
<path d="M67.3086 90.3253V77.4766H69.5112V88.5815H76.3027V90.3253H67.3086Z" fill="black"/>
<path d="M78.8721 90.3253V77.3848H88.3709V79.1285H81.1206V82.616H87.8662V84.4057H81.1206V88.5815H88.6463V90.3253H78.8721Z" fill="black"/>
<path d="M96.8603 90.3253L92.2256 77.3848H94.6118L98.2369 87.8473L101.679 77.3848H104.065L99.3842 90.3253H96.8603Z" fill="black"/>
<path d="M110.214 77.3848H108.012V90.3711H110.214V77.3848Z" fill="black"/>
<path d="M119.024 90.5546C117.464 90.5546 116.225 90.1875 115.353 89.4533C114.757 88.9485 114.252 88.352 114.022 88.0308L115.353 87.0212C115.583 87.3425 116.087 87.8931 116.684 88.3061C117.418 88.765 118.29 88.8109 119.07 88.8109C120.08 88.8109 121.456 88.4897 121.869 87.4342C122.053 86.9295 122.053 86.287 121.732 85.8281C121.089 84.9104 119.391 84.7268 118.382 84.4515C117.051 84.0844 116.133 83.6714 115.583 83.1666C114.848 82.4783 114.481 81.6064 114.481 80.6428C114.481 80.0003 114.665 79.4038 114.986 78.8531C115.307 78.3025 115.812 77.8895 116.455 77.5683C117.097 77.2929 117.923 77.1094 118.841 77.1094C120.309 77.1094 121.456 77.4765 122.282 78.1648C122.741 78.5778 122.971 78.8072 123.108 78.9449L121.869 80.0462C121.64 79.6791 121.273 79.2661 120.768 78.9908C119.3 78.1648 116.409 78.3943 116.409 80.4133C116.409 80.8263 116.546 81.1475 116.868 81.4229C117.235 81.7441 117.831 82.1112 119.162 82.4324C120.401 82.7536 121.273 83.0749 121.869 83.3961C122.42 83.7173 123.062 84.0844 123.338 84.635C123.659 85.1857 123.797 85.874 123.797 86.6541C123.797 87.3883 123.613 88.0767 123.246 88.6732C122.879 89.3157 122.328 89.7745 121.64 90.0958C120.997 90.417 120.08 90.5546 119.024 90.5546Z" fill="black"/>
<path d="M129.762 77.3848H127.56V90.3711H129.762V77.3848Z" fill="black"/>
<path d="M159.957 90.3253L153.67 80.964V90.3253H151.422V77.3848H153.9L160.324 86.9295V77.3848H162.573V90.3253H159.957Z" fill="black"/>
<path d="M140.409 90.5537C136.692 90.5537 133.663 87.525 133.663 83.8081C133.663 80.0911 136.692 77.0625 140.409 77.0625C144.126 77.0625 147.154 80.0911 147.154 83.8081C147.154 87.525 144.126 90.5537 140.409 90.5537ZM140.409 79.2193C137.839 79.2193 135.774 81.2842 135.774 83.854C135.774 86.4237 137.839 88.4887 140.409 88.4887C142.978 88.4887 145.043 86.4237 145.043 83.854C145.043 81.2842 142.978 79.2193 140.409 79.2193Z" fill="black"/>
<path d="M44.8686 0.659591C46.2453 0.430149 47.7137 0.56781 48.9986 1.16436C50.6047 1.85268 51.8895 3.18344 52.5779 4.78953C53.358 6.67095 53.3121 8.87359 52.3943 10.6632C51.6601 12.1317 50.3752 13.3247 48.9068 13.9672C47.3007 14.6555 45.4193 14.7014 43.7673 14.1048C42.1612 13.5083 40.8305 12.3152 40.0045 10.8468C39.1326 9.1948 38.9491 7.22161 39.4997 5.47785C40.188 2.99989 42.3907 1.07258 44.8686 0.659591Z" fill="#FF6600"/>
<path d="M130.45 23.0076C134.213 21.172 138.481 20.4378 142.611 20.8967C146.465 21.3097 150.228 22.7781 153.348 25.0725C157.616 28.1929 160.736 32.9194 161.838 38.1048C162.297 40.1698 162.388 42.2806 162.342 44.3456C162.342 52.5137 162.342 60.7277 162.342 68.8958C157.983 68.8958 153.67 68.8958 149.31 68.8958C149.31 60.4065 149.31 51.9171 149.31 43.4278C149.31 42.3265 149.264 41.2252 148.943 40.1698C148.163 37.4165 145.96 35.1221 143.299 34.2043C141.188 33.4242 138.802 33.4701 136.737 34.2961C135.085 34.9844 133.616 36.1316 132.607 37.6C131.597 39.0684 131.047 40.8581 131.001 42.6477C131.001 51.3665 131.001 60.1311 131.001 68.8499C126.687 68.8499 122.374 68.8499 118.06 68.8499C118.06 62.7468 118.06 56.6436 118.06 50.5405C118.06 47.6495 118.014 44.7586 118.106 41.8676C118.244 37.6918 119.621 33.6077 121.961 30.212C124.118 27.1834 127.054 24.6595 130.45 23.0076Z" fill="#FF6600"/>
<path d="M83.5986 20.8961C88.2333 20.529 92.9598 21.5386 97.0438 23.7412C100.531 25.6226 103.56 28.3759 105.808 31.6799C108.149 35.1215 109.571 39.2055 109.893 43.3814C110.306 48.1079 109.296 52.9261 107.002 57.0561C105.166 60.4518 102.55 63.3886 99.3841 65.5913C96.3096 67.748 92.7303 69.1705 89.0593 69.7212C84.1492 70.4554 79.0098 69.6753 74.5586 67.4727C71.3464 65.8666 68.4555 63.5722 66.2069 60.773C63.3619 57.1937 61.5263 52.8343 60.9757 48.2914C60.4709 44.0697 61.1133 39.7562 62.7653 35.8557C64.142 32.6894 66.1611 29.7526 68.7308 27.4123C72.769 23.6035 78.092 21.3091 83.5986 20.8961ZM84.0575 32.9189C81.5795 33.1942 79.1933 34.2037 77.3119 35.8098C74.9257 37.8289 73.3196 40.7657 72.9525 43.8861C72.6772 46.1347 73.0443 48.4291 73.9621 50.494C74.8339 52.4672 76.2565 54.1651 77.9543 55.45C80.8912 57.6526 84.7458 58.4327 88.3251 57.5608C90.6195 57.0102 92.7762 55.7712 94.4282 54.0733C97.0438 51.4118 98.3746 47.5572 97.8698 43.8402C97.4568 40.0774 95.1624 36.544 91.9044 34.6167C89.5641 33.2401 86.7649 32.6435 84.0575 32.9189Z" fill="#FF6600"/>
<path d="M39.4531 21.8594C43.9043 21.8594 48.4013 21.8594 52.8525 21.8594C52.8525 37.5532 52.8525 53.2469 52.8525 68.9407C48.4013 68.9407 43.9043 68.9407 39.4531 68.9407C39.4531 53.2469 39.4531 37.5532 39.4531 21.8594Z" fill="#FF6600"/>
</svg>
