<svg width="201" height="91" viewBox="0 0 201 91" fill="none" xmlns="http://www.w3.org/2000/svg">
<path d="M84.6039 37.5875H77.1748C77.7678 34.9719 78.3353 32.4515 78.9255 29.8416H86.284C87.1622 25.4649 88.0263 21.1632 88.8988 16.8096H100.329L97.7539 29.7666H118.965C119.835 39.9664 120.694 50.0219 121.549 60.0803L121.789 60.1294L136.515 29.8676H148.614C140.975 44.1334 133.375 58.3308 125.813 72.4599H112.694C111.197 60.8425 109.707 49.2627 108.207 37.6395H96.0653C95.7829 38.9733 95.5006 40.3158 95.2182 41.6611C94.0002 47.6912 92.7851 53.7241 91.5728 59.7599C91.4977 60.1256 91.4561 60.4977 91.4486 60.8714C91.4203 62.8923 92.4425 63.9692 94.4445 63.9923C96.0709 64.0125 97.6974 63.9923 99.3916 63.9923C98.7873 66.8042 98.1567 69.7326 97.4997 72.7775L92.7785 73.1037C90.2372 73.2798 87.6959 73.2105 85.228 72.5263C83.7734 72.1715 82.4379 71.426 81.3595 70.3668C80.608 69.6145 80.0438 68.6889 79.7141 67.6677C79.3845 66.6465 79.299 65.5594 79.4648 64.4975C79.9307 61.0533 80.6225 57.6408 81.2974 54.2312C82.345 48.9278 83.4632 43.6358 84.5446 38.3526C84.5798 38.099 84.5996 37.8435 84.6039 37.5875Z" fill="#14259B"/>
<path d="M44.5078 90.5186C45.1431 87.5132 45.7615 84.5944 46.3969 81.6064C47.7494 81.6064 49.0737 81.5515 50.3896 81.6064C53.1709 81.7507 54.7013 79.9001 55.1672 77.9543C55.6134 76.0835 55.9607 74.1867 56.3278 72.2986C58.0032 63.7183 59.6729 55.1381 61.337 46.5579C62.3799 41.1938 63.42 35.8297 64.4572 30.4656C64.4967 30.2692 64.5588 30.0816 64.6181 29.8535H75.9552C75.687 31.2133 75.4413 32.5009 75.1816 33.7885C72.7137 46.018 70.2439 58.2494 67.7722 70.4827C67.2075 73.3004 66.75 76.147 66.078 78.933C65.2845 82.1693 63.819 85.0679 61.3314 87.34C59.2117 89.2882 56.4805 90.3972 53.6312 90.4667C50.7312 90.5879 47.8228 90.5475 44.9201 90.5764C44.7815 90.5671 44.6437 90.5478 44.5078 90.5186Z" fill="#14259B"/>
<path d="M72.7252 0.576172L80.7699 13.7814L70.4832 24.6771L62.4385 12.0492C65.8297 8.27587 69.2238 4.48521 72.7252 0.576172Z" fill="#14259B"/>
<path fill-rule="evenodd" clip-rule="evenodd" d="M153.191 30.1897C151.261 30.1897 149.696 31.7899 149.696 33.7638C149.696 35.7378 151.261 37.338 153.191 37.338C155.122 37.338 156.687 35.7378 156.687 33.7638C156.687 31.7899 155.122 30.1897 153.191 30.1897ZM149.131 33.7638C149.131 31.471 150.949 29.6123 153.191 29.6123C155.434 29.6123 157.252 31.471 157.252 33.7638C157.252 36.0567 155.434 37.9154 153.191 37.9154C150.949 37.9154 149.131 36.0567 149.131 33.7638Z" fill="#14259B"/>
<path d="M152.96 33.414C153.141 33.4298 153.321 33.3797 153.468 33.2725C153.525 33.2151 153.569 33.1454 153.597 33.0685C153.624 32.9916 153.634 32.9094 153.627 32.8279C153.633 32.747 153.622 32.6656 153.595 32.5893C153.568 32.513 153.525 32.4437 153.468 32.3862C153.318 32.286 153.139 32.2402 152.96 32.2563H152.483V33.4111H152.96M152.483 34.2079V35.9113H151.354V31.4162H153.087C153.531 31.3778 153.975 31.4785 154.361 31.7049C154.501 31.8147 154.611 31.9587 154.682 32.1237C154.753 32.2887 154.783 32.4693 154.767 32.6489C154.779 32.9103 154.706 33.1682 154.558 33.3822C154.395 33.5883 154.171 33.7351 153.92 33.8009C154.08 33.8425 154.225 33.9296 154.338 34.052C154.493 34.222 154.619 34.4172 154.711 34.6294L155.329 35.9026H154.121L153.584 34.7853C153.511 34.6077 153.398 34.4504 153.254 34.3263C153.123 34.2376 152.968 34.1931 152.811 34.1993H152.491" fill="#14259B"/>
</svg>
