<svg width="201" height="91" viewBox="0 0 201 91" fill="none" xmlns="http://www.w3.org/2000/svg">
<path d="M56.839 13.7375C56.5394 13.9295 56.3897 14.3068 56.3897 14.8693V31.0939C56.3953 32.0077 56.2287 32.9144 55.8986 33.7665C55.5708 34.6024 55.1257 35.3874 54.5767 36.0979C54.0166 36.8195 53.3656 37.4656 52.6399 38.0203C51.9126 38.5759 51.1322 39.0583 50.31 39.4603C50.2592 39.4949 50.1986 39.5122 50.1372 39.5099C50.0758 39.5076 50.0168 39.4857 49.9687 39.4474C49.9223 39.4175 49.8894 39.3707 49.8767 39.317C49.8641 39.2633 49.8728 39.2068 49.901 39.1594C49.937 39.0154 50.0868 38.7994 50.3503 38.5186C50.6138 38.2378 50.9004 37.9224 51.2143 37.5782C51.4332 37.3406 51.6463 37.0915 51.8695 36.828C52.0927 36.5645 52.2511 36.36 52.3605 36.2146C52.5535 35.8498 52.7084 35.4662 52.8228 35.0697C52.9728 34.5766 53.0959 34.0757 53.1914 33.5693C53.2874 33.0422 53.3647 32.5334 53.4233 32.0429C53.4726 31.6357 53.5 31.2261 53.5054 30.816V14.8996C53.5151 14.6416 53.4825 14.3838 53.4089 14.1364C53.3631 13.9848 53.2844 13.8451 53.1785 13.7274C53.0941 13.6405 52.9841 13.583 52.8646 13.5633C52.7425 13.5452 52.6193 13.5361 52.4959 13.5359C52.2804 13.5386 52.0653 13.5159 51.8551 13.4682C51.7551 13.4416 51.6614 13.3953 51.5796 13.332C51.4977 13.2687 51.4293 13.1897 51.3785 13.0996C51.3521 13.0623 51.3368 13.0183 51.3343 12.9728C51.3317 12.9272 51.342 12.8818 51.3641 12.8418C51.3959 12.7966 51.4397 12.7611 51.4906 12.7392C51.5414 12.7173 51.5973 12.71 51.6521 12.718H52.9279C53.765 12.718 54.6055 12.7319 55.4494 12.7597C56.2932 12.7876 57.1342 12.8193 57.9723 12.8548L57.9996 13.3185C57.59 13.3845 57.1963 13.5266 56.839 13.7375Z" fill="url(#paint0_linear_2048_37948)"/>
<path d="M78.5961 13.756C78.2784 13.9557 78.119 14.319 78.118 14.8461V25.1522C78.1263 26.2481 77.9421 27.337 77.5737 28.3692C77.2285 29.3366 76.6956 30.2263 76.0055 30.9871C75.3131 31.74 74.4735 32.3428 73.5388 32.7583C72.5164 33.207 71.4094 33.4304 70.293 33.4135C69.4078 33.4173 68.528 33.2742 67.6895 32.9902C66.0509 32.4401 64.6189 31.4039 63.584 30.0194C63.0592 29.3245 62.6368 28.5578 62.3298 27.7428C62.2786 27.6203 62.2418 27.4922 62.2204 27.3612C62.1844 27.1797 62.1527 26.9882 62.1253 26.7852C62.098 26.5821 62.0706 26.3993 62.0432 26.2265C62.0213 26.1047 62.0078 25.9815 62.0029 25.8578V15.0347C62.0044 14.7583 61.9675 14.4831 61.8935 14.2168C61.8645 14.0991 61.807 13.9903 61.7262 13.8999C61.6453 13.8095 61.5436 13.7403 61.4298 13.6984C61.3775 13.6806 61.3216 13.6762 61.2671 13.6854C61.1847 13.6931 61.1017 13.6882 61.0208 13.671C60.7535 13.6514 60.4887 13.6056 60.2303 13.5342C59.9581 13.4622 59.7983 13.3254 59.7666 13.1253C59.7577 13.0908 59.761 13.0544 59.776 13.0221C59.791 12.9898 59.8166 12.9637 59.8487 12.9482C59.9222 12.9029 60.0071 12.8794 60.0935 12.8805L61.1303 12.9078C62.0207 12.9441 62.9125 12.9306 63.8015 12.8675C64.701 12.8033 65.6043 12.8168 66.5015 12.9078C66.6829 12.9266 66.7737 13.0072 66.7737 13.1526C66.7737 13.2981 66.6829 13.3802 66.5015 13.3989C66.0957 13.4285 65.7018 13.5496 65.3495 13.7531C65.0615 13.9346 64.9276 14.2989 64.9276 14.8432V17.7707C64.9276 18.7307 64.9185 19.7032 64.9002 20.6882C64.882 21.6732 64.8772 22.6456 64.8858 23.6056C64.8944 24.5656 64.8993 25.5381 64.9002 26.5231C64.8899 27.2766 65.0299 28.0246 65.3121 28.7234C65.5706 29.3576 65.9551 29.9328 66.4425 30.414C66.933 30.893 67.5181 31.2643 68.1604 31.5041C69.57 32.0192 71.1171 32.0146 72.5236 31.4911C73.1809 31.243 73.7828 30.8677 74.2948 30.3866C74.8025 29.9032 75.2019 29.3177 75.467 28.6687C75.7565 27.9597 75.9005 27.1996 75.8903 26.4338V23.5437C75.8903 22.5991 75.8812 21.6448 75.863 20.681V19.3173C75.863 18.8277 75.8582 18.3323 75.8486 17.8312C75.839 17.3301 75.8308 16.8352 75.8241 16.3466V14.9555C75.8255 14.6791 75.7887 14.4039 75.7147 14.1376C75.6859 14.0198 75.6285 13.9108 75.5476 13.8204C75.4668 13.73 75.3649 13.6609 75.251 13.6192C75.1985 13.6021 75.1428 13.5976 75.0883 13.6062C75.0059 13.6139 74.9229 13.609 74.842 13.5918C74.5756 13.5722 74.3113 13.5313 74.0515 13.4694C73.7793 13.4061 73.6194 13.275 73.5878 13.0749C73.5788 13.0402 73.5821 13.0035 73.597 12.971C73.612 12.9385 73.6377 12.9121 73.6699 12.8963C73.7439 12.8509 73.8293 12.8274 73.9161 12.8286C74.8972 12.8286 75.8692 12.8152 76.8321 12.7883C77.8051 12.7614 78.7789 12.784 79.7496 12.856L79.7769 13.347C79.3594 13.4009 78.9575 13.5401 78.5961 13.756Z" fill="url(#paint1_linear_2048_37948)"/>
<path d="M91.2471 29.9765C90.7796 30.69 90.1827 31.3098 89.4874 31.8039C88.7712 32.3165 87.9805 32.7162 87.1431 32.989C86.3549 33.2598 85.5284 33.4027 84.6951 33.4124C84.2922 33.4098 83.8906 33.3688 83.4955 33.29C83.0925 33.2147 82.7038 33.0767 82.3435 32.881C81.999 32.6925 81.7032 32.4262 81.4795 32.1034C81.245 31.7483 81.1263 31.3292 81.1397 30.9039C81.1381 30.6291 81.1656 30.3549 81.2218 30.0859C81.2765 29.8311 81.3399 29.5776 81.4119 29.3227C81.4479 29.1226 81.4839 28.9368 81.5213 28.764C81.5587 28.5912 81.5933 28.4328 81.6307 28.2859C81.638 28.2539 81.653 28.224 81.6743 28.199C81.6956 28.1739 81.7227 28.1543 81.7531 28.1419C81.8178 28.1145 81.8874 28.1008 81.9576 28.1016C82.0339 28.0981 82.1095 28.1171 82.1751 28.1563C82.2018 28.1739 82.2234 28.1982 82.2378 28.2267C82.2522 28.2553 82.2589 28.2871 82.2571 28.3191L82.2298 28.7511C82.1873 29.2045 82.2674 29.6611 82.4616 30.073C82.651 30.4618 82.9263 30.8026 83.2666 31.0695C83.6177 31.3451 84.0144 31.5571 84.4387 31.6959C84.8781 31.8416 85.3381 31.915 85.801 31.9133C86.6927 31.9028 87.5576 31.6071 88.2692 31.0695C88.6196 30.8003 88.9158 30.4671 89.1418 30.0874C89.3699 29.6992 89.4874 29.256 89.4816 28.8058C89.4775 28.3323 89.3657 27.866 89.1548 27.4421C88.9181 26.9614 88.6283 26.5088 88.2908 26.0928C87.9118 25.6206 87.5065 25.1701 87.0768 24.7435L85.6872 23.3525V23.3856C85.1583 22.8778 84.6355 22.369 84.1191 21.8592C83.6227 21.3758 83.1625 20.8564 82.7424 20.3054C82.3617 19.8111 82.0372 19.276 81.7747 18.7099C81.5355 18.1893 81.4136 17.6225 81.4176 17.0496C81.3964 16.2673 81.6513 15.5026 82.1376 14.8896C82.6295 14.2818 83.2362 13.7768 83.9232 13.4035C84.6411 13.0073 85.4122 12.7164 86.2128 12.5395C86.9552 12.3665 87.7143 12.2747 88.4765 12.2659C89.3881 12.2594 90.2963 12.3791 91.1751 12.6216C91.2356 12.6277 91.2915 12.6562 91.332 12.7015C91.3726 12.7468 91.3946 12.8056 91.394 12.8664V13.8484C91.394 14.338 91.3753 14.8435 91.3393 15.3604C91.3222 15.8249 91.1723 16.2747 90.9073 16.6565C90.8614 16.7013 90.8041 16.7326 90.7416 16.7471C90.6792 16.7616 90.6139 16.7586 90.553 16.7385C90.409 16.7011 90.3341 16.6205 90.3341 16.4923C90.3403 16.0719 90.2614 15.6546 90.1023 15.2654C89.9532 14.9098 89.7252 14.5927 89.4356 14.338C89.1424 14.0837 88.8051 13.8851 88.4405 13.752C88.051 13.6133 87.6401 13.5441 87.2266 13.5475C86.8208 13.5453 86.4183 13.6196 86.04 13.7664C85.6744 13.9071 85.3408 14.1202 85.0594 14.3928C84.7619 14.6807 84.5271 15.0269 84.3695 15.4097C84.2119 15.7925 84.135 16.2037 84.1435 16.6176C84.1416 17.08 84.2445 17.5369 84.4445 17.9539C84.6573 18.392 84.9275 18.7997 85.248 19.1664C85.6001 19.5724 85.9829 19.9508 86.3928 20.2982C86.821 20.6621 87.253 21.0346 87.6888 21.4157C88.2159 21.8525 88.7338 22.2979 89.2426 22.752C89.7359 23.1907 90.192 23.6695 90.6063 24.1834C90.9973 24.67 91.3226 25.206 91.574 25.7774C91.8214 26.3546 91.9464 26.9769 91.9412 27.6048C91.95 28.4467 91.7084 29.2722 91.2471 29.9765Z" fill="url(#paint2_linear_2048_37948)"/>
<path d="M110.194 14.9954C110.15 15.4863 110.073 15.9737 109.962 16.4541C109.926 16.5823 109.818 16.6456 109.635 16.6456C109.571 16.6556 109.505 16.6416 109.45 16.6063C109.394 16.5711 109.354 16.517 109.336 16.4541C109.172 15.6189 108.822 15.0645 108.286 14.7909C107.678 14.5029 107.009 14.3627 106.336 14.382C106.136 14.382 105.955 14.382 105.791 14.3964C105.626 14.4108 105.455 14.4194 105.274 14.4367C105.092 14.454 104.922 14.4684 104.713 14.4784C104.505 14.4885 104.328 14.4914 104.182 14.4914H103.718C103.582 14.4922 103.445 14.483 103.309 14.464V29.9499C103.309 30.0046 103.324 30.1371 103.351 30.3459C103.379 30.5547 103.406 30.7678 103.433 30.9867C103.461 31.2055 103.491 31.4043 103.528 31.5857C103.543 31.6884 103.572 31.7884 103.616 31.8823C103.761 32.0428 103.951 32.1565 104.161 32.2092C104.342 32.2457 104.515 32.2731 104.679 32.2913C104.898 32.3044 105.117 32.3313 105.333 32.3719C105.422 32.3903 105.505 32.4294 105.576 32.4862C105.648 32.5431 105.704 32.6159 105.742 32.6988C105.768 32.7315 105.783 32.7725 105.783 32.8148C105.783 32.857 105.768 32.898 105.742 32.9307C105.706 32.966 105.664 32.993 105.616 33.0097C105.569 33.0264 105.519 33.0323 105.469 33.0272C104.361 33.0272 103.257 33.0363 102.157 33.0545C101.058 33.0728 99.9543 33.0636 98.8455 33.0272C98.664 33.0084 98.5575 32.9364 98.5459 32.8083C98.5344 32.6801 98.6093 32.5995 98.7907 32.5635C99.0966 32.5113 99.3977 32.4337 99.6907 32.3316C99.8897 32.2646 100.062 32.1353 100.182 31.963C100.3 31.7739 100.37 31.5589 100.386 31.3366C100.417 30.9919 100.431 30.6458 100.427 30.2998V14.4093H96.1944C95.6754 14.4062 95.176 14.6068 94.8034 14.968C94.4144 15.3263 94.0993 15.7573 93.876 16.2367C93.8463 16.2911 93.7999 16.3345 93.7436 16.3605C93.6873 16.3864 93.6242 16.3935 93.5635 16.3807C93.4993 16.385 93.4356 16.367 93.3831 16.3297C93.3306 16.2925 93.2926 16.2382 93.2755 16.1762C93.2568 16.1042 93.2438 16.0322 93.2338 15.9717C93.2243 15.8948 93.22 15.8174 93.2208 15.7399C93.2265 15.3751 93.2818 15.0127 93.385 14.6628C93.493 14.2725 93.611 13.8765 93.7392 13.4776C93.7904 13.326 93.8313 13.1711 93.8616 13.0139C93.8885 12.869 93.9202 12.725 93.9566 12.5819C93.9736 12.5379 94.0011 12.4988 94.0368 12.4679C94.0724 12.437 94.1151 12.4153 94.1611 12.4048C94.2559 12.3768 94.3573 12.3814 94.4491 12.4178C94.5936 12.5069 94.7496 12.5757 94.9128 12.6223C95.113 12.6856 95.3261 12.7447 95.5536 12.7994C95.7692 12.8518 95.9874 12.8927 96.2074 12.9218C96.3658 12.9452 96.5254 12.9591 96.6854 12.9635H108.349C108.493 12.9582 108.635 12.935 108.773 12.8944L109.25 12.772C109.35 12.7337 109.455 12.7108 109.562 12.7043C109.667 12.6969 109.772 12.6835 109.876 12.664C109.963 12.6446 110.054 12.6542 110.135 12.6914C110.173 12.706 110.205 12.7323 110.227 12.7664C110.249 12.8006 110.26 12.8409 110.258 12.8815V13.4819C110.26 13.9908 110.239 14.4952 110.194 14.9954Z" fill="url(#paint3_linear_2048_37948)"/>
<path d="M118.891 32.8531C118.859 32.8978 118.815 32.9328 118.764 32.9544C118.714 32.976 118.658 32.9833 118.603 32.9755C118.129 32.9567 117.703 32.9395 117.322 32.9207C116.94 32.902 116.512 32.8891 116.04 32.8804C115.568 32.8718 115.087 32.866 114.6 32.866C113.799 32.866 113.076 32.8799 112.431 32.9078C111.786 32.9337 111.4 32.9207 111.279 32.866C111.247 32.8529 111.219 32.8302 111.199 32.8009C111.18 32.7716 111.169 32.7371 111.17 32.7019C111.17 32.626 111.189 32.5515 111.225 32.4844C111.262 32.4112 111.319 32.3498 111.389 32.3073C111.42 32.2853 111.457 32.2725 111.496 32.2702C111.534 32.2679 111.572 32.2763 111.606 32.2943C111.775 32.3263 111.949 32.3118 112.11 32.2526C112.258 32.2086 112.408 32.1769 112.561 32.1575C112.659 32.1576 112.755 32.1326 112.841 32.085C112.927 32.0374 112.999 31.9686 113.051 31.8854C113.188 31.6841 113.294 31.4632 113.365 31.2302C113.446 30.9775 113.501 30.7168 113.529 30.4526C113.553 30.2311 113.567 30.0086 113.569 29.7858V14.8991C113.569 14.3533 113.396 13.9775 113.051 13.7672C112.675 13.5484 112.256 13.4137 111.824 13.3727C111.661 13.3539 111.579 13.2733 111.579 13.1264C111.579 12.9795 111.661 12.9003 111.824 12.8816C112.351 12.8456 112.873 12.8312 113.392 12.8413C113.91 12.8514 114.433 12.8542 114.96 12.8542C115.487 12.8542 115.978 12.8456 116.486 12.8269C117.004 12.8095 117.523 12.8187 118.04 12.8542C118.222 12.873 118.328 12.9493 118.341 13.0861C118.354 13.2229 118.276 13.3093 118.095 13.3453C117.675 13.4115 117.269 13.5499 116.895 13.7543C116.585 13.9357 116.431 14.3082 116.432 14.8717V29.8938C116.439 30.0452 116.457 30.1959 116.486 30.3446C116.522 30.5534 116.569 30.7766 116.623 31.0127C116.678 31.2489 116.736 31.4721 116.8 31.6809C116.837 31.8298 116.897 31.9721 116.977 32.1028C117.093 32.1471 117.211 32.1836 117.332 32.2123C117.447 32.2441 117.566 32.2625 117.686 32.267C117.887 32.2668 118.087 32.2803 118.286 32.3073C118.495 32.3395 118.687 32.4409 118.831 32.5953C118.916 32.6855 118.936 32.7715 118.891 32.8531Z" fill="url(#paint4_linear_2048_37948)"/>
<path d="M137.6 30.7671C137.461 31.3569 137.243 31.9254 136.953 32.4576C136.929 32.5007 136.893 32.5363 136.85 32.5604C136.807 32.5846 136.758 32.5963 136.709 32.5944C135.562 32.7759 134.413 32.9256 133.26 33.0437C132.096 33.1623 130.926 33.2214 129.756 33.2208C128.347 33.2356 126.946 32.9916 125.625 32.5008C124.413 32.0546 123.307 31.3611 122.378 30.4644C121.448 29.5677 120.716 28.4875 120.226 27.2923C119.696 25.9999 119.432 24.6139 119.45 23.2171C119.453 20.0125 120.716 16.9375 122.967 14.6563C123.42 14.1949 123.958 13.8244 124.551 13.5648C125.2 13.2698 125.875 13.0327 126.567 12.8563C127.27 12.6762 127.986 12.5486 128.708 12.4747C129.425 12.4027 130.074 12.3662 130.656 12.3652C131.322 12.3653 131.987 12.4062 132.648 12.4876C133.301 12.5692 133.947 12.6556 134.583 12.7468C135.055 12.8198 135.528 12.888 136 12.9513C136.472 13.0161 136.936 13.0651 137.391 13.0953C137.573 13.0953 137.663 13.1774 137.663 13.3416C137.646 14.1787 137.592 15.01 137.501 15.8357C137.409 16.6613 137.291 17.484 137.146 18.3038C137.129 18.375 137.086 18.437 137.025 18.4774C136.964 18.5178 136.89 18.5335 136.818 18.5213C136.75 18.5291 136.681 18.5111 136.626 18.4709C136.57 18.4306 136.532 18.371 136.518 18.3038C136.41 17.5758 136.16 16.8762 135.783 16.2446C135.433 15.6706 134.98 15.1666 134.446 14.7585C133.906 14.3533 133.296 14.0489 132.648 13.86C131.946 13.6553 131.219 13.5539 130.488 13.559C129.329 13.5456 128.179 13.7528 127.098 14.1696C126.128 14.5438 125.245 15.1144 124.506 15.8457C123.771 16.5897 123.204 17.4823 122.843 18.4637C122.44 19.5587 122.241 20.7184 122.257 21.8851C122.257 24.4727 123.196 26.9722 124.9 28.9195C125.73 29.8591 126.735 30.6276 127.86 31.1818C129.024 31.7523 130.307 32.0418 131.604 32.0271C132.28 32.0403 132.955 31.9579 133.608 31.7823C134.139 31.6305 134.635 31.3756 135.067 31.032C135.503 30.6749 135.876 30.2465 136.17 29.7648C136.525 29.1916 136.851 28.6004 137.145 27.9936L137.744 28.0483C137.799 28.3636 137.827 28.683 137.826 29.0031C137.82 29.5979 137.744 30.19 137.6 30.7671Z" fill="url(#paint5_linear_2048_37948)"/>
<path d="M151.173 30.7305C151.108 31.1625 151.049 31.5945 150.996 32.0265L150.914 32.6817C150.899 32.7408 150.863 32.7926 150.813 32.8275C150.763 32.8624 150.702 32.8781 150.641 32.8718L150.15 33.0158H146.694C146.277 33.0158 145.858 33.0158 145.44 33.0287C145.022 33.0417 144.605 33.0431 144.186 33.0431C143.423 33.0431 142.669 33.034 141.924 33.0158C141.179 32.9975 140.479 32.9495 139.824 32.8718C139.643 32.8718 139.556 32.7955 139.565 32.6399C139.573 32.4844 139.67 32.4081 139.853 32.4081C140.143 32.405 140.429 32.3304 140.684 32.1907C140.89 32.0674 141.056 31.8874 141.162 31.6722C141.276 31.4361 141.349 31.1825 141.379 30.922C141.416 30.6283 141.435 30.3325 141.434 30.0364V14.8458C141.441 14.6504 141.413 14.4554 141.352 14.2698C141.306 14.1376 141.226 14.0198 141.12 13.9285C141.024 13.8483 140.913 13.7881 140.793 13.7514L140.426 13.6419C140.229 13.6073 140.036 13.5528 139.85 13.4792C139.657 13.4002 139.474 13.2992 139.304 13.1782C139.16 13.1062 139.114 13.0155 139.169 12.9061C139.196 12.8517 139.24 12.807 139.293 12.7777C139.347 12.7484 139.408 12.7359 139.468 12.7419H149.937C150.114 12.718 150.282 12.6529 150.428 12.5518C150.54 12.5152 150.661 12.5198 150.77 12.5648C150.812 12.5776 150.848 12.6056 150.87 12.6434C150.893 12.6812 150.901 12.7261 150.892 12.7693C150.837 13.279 150.76 13.7883 150.66 14.2971C150.56 14.8059 150.456 15.2965 150.346 15.7688C150.327 15.8423 150.31 15.9056 150.291 15.9589C150.269 16.0308 150.252 16.1039 150.238 16.1778C150.221 16.2489 150.178 16.311 150.117 16.3514C150.056 16.3918 149.982 16.4074 149.91 16.3952C149.728 16.3952 149.622 16.3232 149.61 16.1778C149.537 15.3411 149.26 14.7925 148.779 14.5275C148.298 14.2626 147.684 14.133 146.939 14.133H146.475C146.311 14.1327 146.147 14.1418 145.984 14.1603C145.793 14.1793 145.601 14.1885 145.408 14.1877H144.832C144.736 14.1815 144.638 14.1907 144.544 14.215C144.448 14.2297 144.349 14.2203 144.256 14.1877V21.4712H148.264C148.404 21.4605 148.542 21.4285 148.673 21.3762C148.86 21.3106 149.042 21.2332 149.219 21.1444C149.419 21.0536 149.596 20.9759 149.75 20.9125C149.872 20.8609 149.999 20.8214 150.129 20.7944C150.232 20.7749 150.339 20.7944 150.428 20.8492C150.468 20.8677 150.501 20.8993 150.521 20.9388C150.541 20.9783 150.547 21.0233 150.538 21.0666C150.5 21.3388 150.464 21.6167 150.428 21.8975C150.392 22.1783 150.355 22.4576 150.319 22.7298C150.211 23.4018 150.13 24.0925 150.074 24.802C150.074 24.9114 150.009 24.9834 149.882 25.0194C149.822 25.038 149.757 25.0403 149.695 25.0262C149.632 25.012 149.575 24.9819 149.528 24.9388C149.418 24.8288 149.33 24.6988 149.269 24.5557C149.206 24.4117 149.155 24.2836 149.125 24.1741C149.07 24.0114 149.02 23.8473 148.981 23.6845C148.951 23.5477 148.88 23.4235 148.777 23.3289C148.667 23.2213 148.44 23.1354 148.095 23.0711C147.721 23.0033 147.343 22.9576 146.964 22.9343C146.555 22.9064 146.15 22.893 145.751 22.894H144.311V30.2538C144.638 30.8184 145.155 31.2486 145.77 31.4678C146.366 31.7039 147.001 31.8288 147.642 31.8364C148.369 31.8537 149.082 31.6333 149.672 31.2086C150.248 30.791 150.635 30.1732 150.831 29.3553C150.838 29.3216 150.855 29.2907 150.879 29.2664C150.904 29.242 150.935 29.2254 150.968 29.2185C151.039 29.2006 151.113 29.1962 151.186 29.2055C151.259 29.2149 151.33 29.2427 151.39 29.2862C151.419 29.3042 151.442 29.3313 151.454 29.3632C151.467 29.3951 151.468 29.4303 151.459 29.4633C151.341 29.8802 151.245 30.3032 151.173 30.7305Z" fill="url(#paint6_linear_2048_37948)"/>
<path d="M61.3725 50.1512C61.2963 50.4825 61.1752 50.8018 61.0125 51.1002C60.9993 51.1262 60.9784 51.1476 60.9526 51.1615C60.9269 51.1754 60.8976 51.1811 60.8685 51.178C60.2253 51.2807 59.5792 51.3647 58.9303 51.43C58.2757 51.4965 57.6183 51.5296 56.9603 51.5293C56.1682 51.5374 55.3814 51.3997 54.6391 51.1232C53.9576 50.873 53.3358 50.4836 52.8132 49.9798C52.2906 49.476 51.8786 48.8689 51.6035 48.1971C51.3069 47.4698 51.16 46.6901 51.1715 45.9047C51.1759 44.1051 51.8864 42.3791 53.1501 41.0979C53.4049 40.8393 53.7064 40.6311 54.0386 40.4845C54.4045 40.319 54.7842 40.186 55.1733 40.087C55.5681 39.9852 55.9701 39.9135 56.3757 39.8725C56.7402 39.8331 57.1064 39.8125 57.473 39.8105C57.8465 39.8103 58.2198 39.8334 58.5904 39.8797C58.9591 39.9258 59.322 39.9738 59.6791 40.0237C59.9455 40.0654 60.2104 40.1029 60.4768 40.1389C60.7432 40.1749 61.0024 40.2022 61.2573 40.2238C61.3596 40.2238 61.4114 40.2699 61.4114 40.3678C61.4013 40.8387 61.3696 41.3053 61.3192 41.7704C61.2688 42.2355 61.2012 42.6978 61.1205 43.1571C61.1106 43.1969 61.0863 43.2316 61.0522 43.2545C61.0181 43.2774 60.9768 43.2868 60.9362 43.281C60.8977 43.2853 60.859 43.2749 60.8277 43.252C60.7965 43.229 60.7751 43.1952 60.7677 43.1571C60.706 42.7497 60.5651 42.3584 60.353 42.0051C60.1575 41.6821 59.903 41.3988 59.6028 41.1699C59.3001 40.9419 58.9585 40.7707 58.5948 40.6645C58.2019 40.5495 57.7945 40.4922 57.3852 40.4946C56.733 40.4854 56.085 40.6002 55.4757 40.833C54.9308 41.0434 54.4352 41.364 54.0199 41.7747C53.6075 42.1935 53.289 42.6951 53.0853 43.2464C52.8585 43.8621 52.7467 44.5142 52.7555 45.1703C52.7542 45.8945 52.8855 46.6129 53.1429 47.2899C53.3939 47.9598 53.7652 48.5782 54.2387 49.1144C54.7045 49.6425 55.269 50.0745 55.9005 50.386C56.5566 50.7066 57.2785 50.8693 58.0087 50.8612C58.389 50.8669 58.7681 50.8184 59.1348 50.7172C59.4335 50.6327 59.7125 50.4897 59.9556 50.2967C60.2012 50.093 60.4109 49.8496 60.5762 49.5767C60.7747 49.2541 60.9564 48.9215 61.1205 48.5802L61.4575 48.6104C61.4883 48.7878 61.5037 48.9675 61.5036 49.1476C61.4998 49.4861 61.4558 49.823 61.3725 50.1512Z" fill="url(#paint7_linear_2048_37948)"/>
<path d="M69.0052 50.128C68.9692 50.367 68.9361 50.6104 68.9058 50.848L68.8597 51.2166C68.851 51.2498 68.8306 51.2788 68.8024 51.2984C68.7741 51.3179 68.7398 51.3267 68.7057 51.3232L68.4306 51.3995H66.4837C66.249 51.3995 66.0128 51.3995 65.7781 51.4081C65.5434 51.4168 65.3087 51.4153 65.074 51.4153C64.642 51.4153 64.22 51.4153 63.801 51.3995C63.382 51.3836 62.9888 51.3649 62.6216 51.3232C62.5194 51.3232 62.4776 51.28 62.4776 51.1936C62.4776 51.1072 62.5352 51.0625 62.6375 51.0625C62.8012 51.061 62.962 51.0189 63.1055 50.9401C63.2206 50.8719 63.3136 50.7719 63.3733 50.6521C63.4378 50.5195 63.4792 50.3768 63.4957 50.2302C63.5168 50.0649 63.5274 49.8985 63.5274 49.7319V41.1999C63.5307 41.0905 63.5151 40.9814 63.4813 40.8773C63.4548 40.8033 63.4097 40.7374 63.3503 40.6858C63.2965 40.6409 63.2343 40.6071 63.1674 40.5865L62.96 40.5245C62.8498 40.505 62.7417 40.4746 62.6375 40.4338C62.5294 40.3889 62.4266 40.3324 62.3307 40.2653C62.2501 40.2236 62.2242 40.1732 62.2544 40.1113C62.2702 40.081 62.2947 40.056 62.3247 40.0396C62.3547 40.0232 62.3889 40.0161 62.4229 40.0191H68.3068C68.406 40.0056 68.5006 39.9691 68.5833 39.9125C68.6458 39.8915 68.7139 39.8941 68.7748 39.9197C68.7986 39.9268 68.819 39.9426 68.8318 39.9639C68.8446 39.9852 68.8489 40.0106 68.8439 40.0349C68.8137 40.3229 68.769 40.6109 68.7143 40.8989C68.6596 41.1869 68.5991 41.4606 68.5372 41.727C68.5271 41.7673 68.517 41.8033 68.5069 41.8335C68.4938 41.8735 68.4837 41.9144 68.4767 41.9559C68.4665 41.9955 68.442 42.0298 68.408 42.0524C68.374 42.075 68.3328 42.0842 68.2924 42.0783C68.1901 42.0783 68.134 42.038 68.1239 41.9559C68.0826 41.4865 67.9266 41.1773 67.6559 41.0285C67.3349 40.8701 66.9797 40.7939 66.622 40.8068H66.3613C66.2689 40.807 66.1766 40.8123 66.0848 40.8226C65.9826 40.8327 65.876 40.837 65.7637 40.837H65.4412C65.3869 40.834 65.3325 40.8394 65.2799 40.8529C65.2261 40.8617 65.171 40.8562 65.12 40.837V44.9295H67.3722C67.4513 44.9238 67.529 44.9058 67.6026 44.8762C67.7076 44.8393 67.8101 44.7955 67.9093 44.7452C68.0217 44.6943 68.121 44.6511 68.2074 44.6156C68.2742 44.586 68.3436 44.5629 68.4148 44.5465C68.4727 44.5358 68.5326 44.5466 68.5833 44.5767C68.6059 44.5875 68.6243 44.6055 68.6356 44.628C68.6468 44.6504 68.6502 44.676 68.6452 44.7006C68.6236 44.8532 68.6034 45.0087 68.5833 45.1671C68.5631 45.3255 68.5429 45.481 68.5213 45.6351C68.4609 46.0124 68.4129 46.4007 68.3773 46.8001C68.3769 46.83 68.3658 46.8588 68.346 46.8813C68.3262 46.9038 68.299 46.9184 68.2693 46.9225C68.235 46.9326 68.1987 46.9337 68.1639 46.9256C68.1291 46.9175 68.097 46.9006 68.0706 46.8764C68.0091 46.815 67.9601 46.7421 67.9266 46.6619C67.8906 46.5798 67.8618 46.5078 67.8417 46.4473C67.8114 46.3551 67.7826 46.263 67.7581 46.1708C67.7413 46.0942 67.7011 46.0247 67.6429 45.9721C67.5305 45.8905 67.3982 45.8408 67.2599 45.8281C67.0495 45.7899 66.8369 45.7644 66.6234 45.7518C66.393 45.7359 66.1655 45.7287 65.9408 45.7287H65.1287V49.8659C65.3134 50.1829 65.604 50.4247 65.9495 50.5484C66.2838 50.6812 66.6396 50.7515 66.9992 50.7558C67.4081 50.765 67.8088 50.6412 68.1412 50.403C68.4769 50.1454 68.7081 49.7751 68.7921 49.3604C68.7961 49.3417 68.8054 49.3245 68.8189 49.311C68.8325 49.2975 68.8497 49.2881 68.8684 49.2841C68.9088 49.2763 68.9504 49.2763 68.9908 49.2841C69.0326 49.2889 69.0724 49.3048 69.106 49.3302C69.1226 49.34 69.1355 49.3551 69.1426 49.3731C69.1496 49.3912 69.1504 49.411 69.1449 49.4295C69.0859 49.6597 69.0392 49.8928 69.0052 50.128Z" fill="url(#paint8_linear_2048_37948)"/>
<path d="M81.7725 40.5864C81.7434 40.6129 81.7097 40.6339 81.6731 40.6483C81.5089 40.6992 81.3477 40.7554 81.1893 40.8168C81.1163 40.8406 81.0533 40.8881 81.0102 40.9517C80.9672 41.0154 80.9466 41.0915 80.9517 41.1682C80.9517 42.876 80.9593 44.5824 80.9747 46.2874C80.9901 47.9923 80.9315 49.694 80.799 51.3922C80.7951 51.4221 80.7818 51.45 80.7611 51.472C80.7405 51.4939 80.7134 51.5088 80.6838 51.5146C80.6517 51.5246 80.6177 51.5271 80.5845 51.5218C80.5513 51.5166 80.5198 51.5038 80.4923 51.4844C79.8385 50.9314 79.1925 50.3439 78.5541 49.7218C77.9157 49.0997 77.2868 48.4584 76.6676 47.7979C76.0494 47.1384 75.4388 46.4741 74.836 45.805C74.2331 45.1359 73.6408 44.4787 73.059 43.8336C72.8847 43.6306 72.7364 43.4606 72.614 43.3282C72.4916 43.1957 72.339 43.0272 72.1547 42.8227C72.1251 43.1026 72.1097 43.3837 72.1086 43.6651C72.1086 44.1763 72.1187 44.6832 72.1388 45.1829C72.159 45.6826 72.1791 46.1909 72.2007 46.6848C72.2223 47.1787 72.2411 47.7202 72.2612 48.2256C72.2814 48.7311 72.2929 49.2336 72.2929 49.7506C72.2879 49.9444 72.3082 50.1381 72.3534 50.3266C72.3835 50.4488 72.4384 50.5635 72.5147 50.6636C72.5768 50.7426 72.6588 50.8037 72.7523 50.8407C72.8421 50.8757 72.9345 50.9037 73.0288 50.9242C73.1349 50.9467 73.2397 50.9751 73.3427 51.0092C73.4586 51.0496 73.5693 51.1037 73.6724 51.1704C73.743 51.2108 73.7632 51.2597 73.7329 51.3144C73.7159 51.3431 73.6909 51.3663 73.661 51.3811C73.6311 51.3959 73.5976 51.4018 73.5644 51.398L71.6175 51.3519C71.3462 51.3421 71.0745 51.3551 70.8054 51.3908C70.5453 51.4275 70.2809 51.4197 70.0235 51.3677C69.9327 51.3476 69.8939 51.3015 69.9097 51.2237C69.9179 51.186 69.9378 51.1518 69.9664 51.126C69.9951 51.1001 70.0312 51.084 70.0695 51.0797L70.2841 51.0336C70.5045 50.9925 70.7061 50.8826 70.8601 50.7197C71.0136 50.5505 71.0939 50.3273 71.0833 50.0991V40.451C71.0808 40.3772 71.102 40.3046 71.1438 40.2437C71.1904 40.1811 71.2419 40.1224 71.2979 40.068C71.3316 40.038 71.3751 40.0215 71.4203 40.0215C71.4654 40.0215 71.5089 40.038 71.5427 40.068C74.3728 42.9595 77.1366 45.8919 79.8342 48.865C79.8342 48.7834 79.8371 48.7042 79.8429 48.6274C79.8429 48.5511 79.8501 48.4719 79.8501 48.3898C79.8501 47.2666 79.8323 46.1477 79.7968 45.0331C79.7613 43.9186 79.743 42.7997 79.7421 41.6765C79.7497 41.4896 79.7239 41.3028 79.6657 41.125C79.6273 41.0114 79.5615 40.909 79.4742 40.8269C79.4025 40.7628 79.3158 40.7178 79.2222 40.6958L78.9457 40.6354C78.8334 40.6138 78.7341 40.5936 78.6462 40.5734C78.5659 40.5566 78.4935 40.5135 78.4403 40.451C78.3784 40.4107 78.3611 40.3646 78.3856 40.307C78.4022 40.2801 78.4263 40.2586 78.4549 40.245C78.4836 40.2315 78.5155 40.2265 78.5469 40.2307H79.6513C80.0085 40.2307 80.3709 40.2283 80.7385 40.2235C81.1072 40.2235 81.4744 40.2235 81.843 40.2466L81.8718 40.5216C81.8353 40.5375 81.8017 40.5594 81.7725 40.5864Z" fill="url(#paint9_linear_2048_37948)"/>
<path d="M92.5162 41.2839C92.4909 41.5607 92.4466 41.8354 92.3837 42.1061C92.3636 42.1767 92.3017 42.2127 92.2009 42.2127C92.1645 42.2178 92.1275 42.21 92.0964 42.1905C92.0653 42.171 92.0421 42.1411 92.0309 42.1061C91.9402 41.6353 91.7429 41.3242 91.442 41.1701C91.0998 41.0087 90.7243 40.9303 90.3461 40.9412C90.2338 40.9412 90.1316 40.9412 90.0394 40.9484C89.9473 40.9556 89.8493 40.9613 89.7514 40.9714C89.6535 40.9815 89.5541 40.9901 89.4361 40.9944C89.318 40.9988 89.2201 41.0016 89.138 41.0016H88.8773C88.8003 41.0022 88.7233 40.9974 88.6469 40.9873V49.6921C88.6469 49.7238 88.6556 49.7972 88.67 49.9153C88.6844 50.0334 88.7016 50.1529 88.716 50.2753C88.7304 50.3977 88.7492 50.51 88.7693 50.6123C88.7771 50.6702 88.7926 50.7269 88.8154 50.7807C88.8976 50.8707 89.0041 50.9347 89.1221 50.9651C89.2244 50.9852 89.3223 51.0011 89.4101 51.0111C89.5338 51.0185 89.6569 51.0334 89.7788 51.0558C89.829 51.0662 89.876 51.0883 89.9161 51.1203C89.9561 51.1524 89.988 51.1934 90.0092 51.2401C90.024 51.2587 90.0321 51.2818 90.0321 51.3056C90.0321 51.3294 90.024 51.3525 90.0092 51.3711C89.9889 51.3906 89.9646 51.4055 89.938 51.4147C89.9114 51.4239 89.8831 51.4272 89.8551 51.4244C89.2321 51.4244 88.6114 51.4297 87.9932 51.4403C87.3749 51.4508 86.7543 51.4455 86.1312 51.4244C86.029 51.4143 85.9728 51.374 85.9628 51.302C85.9527 51.23 85.9973 51.1839 86.0996 51.158C86.2718 51.1287 86.4413 51.0853 86.6064 51.0284C86.7181 50.9907 86.8145 50.918 86.8815 50.8211C86.9479 50.7145 86.9874 50.5934 86.9967 50.4683C87.0143 50.2768 87.022 50.0845 87.0197 49.8922V40.9541H84.6437C84.3517 40.9522 84.0707 41.0655 83.8618 41.2695C83.6431 41.4704 83.4664 41.7127 83.3419 41.9823C83.3248 42.0129 83.2985 42.0375 83.2668 42.0524C83.235 42.0674 83.1994 42.0721 83.1648 42.0658C83.1289 42.0678 83.0933 42.0575 83.0639 42.0366C83.0346 42.0156 83.0133 41.9853 83.0035 41.9506C82.9935 41.9103 82.9863 41.8714 82.9805 41.8354C82.9779 41.7923 82.9779 41.749 82.9805 41.7058C82.9833 41.5009 83.0143 41.2974 83.0727 41.101C83.1351 40.8812 83.2013 40.6589 83.2714 40.4343C83.3012 40.3494 83.3243 40.2622 83.3405 40.1736C83.3563 40.0916 83.3736 40.0095 83.3952 39.9274C83.4047 39.9029 83.4201 39.881 83.4399 39.8637C83.4597 39.8464 83.4834 39.8342 83.509 39.828C83.5621 39.813 83.6187 39.8155 83.6703 39.8352C83.7512 39.8859 83.839 39.9247 83.9309 39.9504C84.0432 39.9864 84.1627 40.0196 84.2909 40.0512C84.4125 40.0806 84.5355 40.1032 84.6595 40.1189C84.7483 40.1323 84.8377 40.14 84.9274 40.142H91.4866C91.5671 40.1397 91.6469 40.1271 91.7242 40.1045L91.9935 40.0354C92.0499 40.014 92.109 40.0009 92.1692 39.9965C92.2282 39.9927 92.2869 39.985 92.3449 39.9735C92.3933 39.9636 92.4437 39.9692 92.4889 39.9893C92.5102 39.9975 92.5283 40.0122 92.5407 40.0314C92.5532 40.0505 92.5592 40.0731 92.558 40.0959V40.4343C92.5551 40.7194 92.5412 41.0026 92.5162 41.2839Z" fill="url(#paint10_linear_2048_37948)"/>
<path d="M103.988 51.6379C103.733 51.6996 103.471 51.7305 103.208 51.73C102.811 51.7353 102.418 51.6542 102.056 51.4924C101.71 51.3313 101.389 51.1197 101.105 50.8646C100.807 50.5966 100.536 50.301 100.293 49.9819C100.043 49.655 99.8007 49.3238 99.5645 48.9868C99.3284 48.6499 99.098 48.3403 98.8676 48.0278C98.6572 47.7391 98.4158 47.4745 98.1476 47.2387C97.9552 47.0724 97.7185 46.9658 97.4665 46.9319C97.2254 46.8941 96.9818 46.8739 96.7378 46.8714H96.4613C96.3743 46.8717 96.2873 46.8765 96.2007 46.8858V49.7385C96.2007 49.7903 96.2093 49.8825 96.2237 49.9991C96.2381 50.1158 96.2626 50.2526 96.2929 50.3894C96.3231 50.5262 96.3548 50.6529 96.385 50.7652C96.3968 50.8391 96.4287 50.9084 96.4772 50.9654C96.544 50.9896 96.6137 51.0051 96.6845 51.0115C96.7709 51.0215 96.8401 51.0316 96.8905 51.0417C97.0028 51.0518 97.118 51.0676 97.2361 51.0878C97.3529 51.1084 97.4616 51.1613 97.55 51.2404C97.6119 51.2923 97.6263 51.3427 97.5961 51.3945C97.5768 51.421 97.5506 51.4416 97.5204 51.4543C97.4902 51.467 97.4571 51.4712 97.4247 51.4665H95.5527C94.9287 51.4665 94.3047 51.4511 93.6807 51.4204C93.5784 51.4103 93.5252 51.3672 93.5194 51.2908C93.5136 51.2145 93.5626 51.1656 93.6634 51.1468C93.8413 51.1189 94.016 51.0731 94.1847 51.01C94.2946 50.9689 94.3884 50.8937 94.4525 50.7955C94.515 50.6798 94.5496 50.5511 94.5533 50.4196C94.5634 50.2612 94.5677 50.0596 94.5677 49.8134V41.3173C94.5728 41.1766 94.5523 41.0361 94.5072 40.9026C94.4816 40.8237 94.4353 40.7531 94.3733 40.6979C94.3114 40.6427 94.2358 40.605 94.1544 40.5887C94.0824 40.5743 94.0104 40.5613 93.9399 40.5513C93.8151 40.544 93.6915 40.5232 93.5712 40.4893C93.5234 40.4769 93.4798 40.4519 93.4449 40.4169C93.41 40.382 93.385 40.3384 93.3725 40.2906C93.3577 40.272 93.3496 40.2489 93.3496 40.2251C93.3496 40.2013 93.3577 40.1782 93.3725 40.1596C93.3929 40.1402 93.4172 40.1255 93.4438 40.1163C93.4704 40.1071 93.4986 40.1037 93.5266 40.1063H94.814C94.9868 40.1164 95.1509 40.1193 95.3036 40.1135C95.4562 40.1077 95.6146 40.1063 95.7788 40.1063C95.8709 40.1063 95.9602 40.1063 96.0466 40.1063C96.133 40.1063 96.2237 40.0977 96.3159 40.0977H97.1367C97.5596 40.0975 97.982 40.1259 98.401 40.1826C98.8003 40.2341 99.189 40.3478 99.553 40.5196C99.9066 40.6889 100.218 40.9348 100.465 41.2396C100.745 41.6026 100.939 42.0246 101.032 42.4737C101.055 42.5381 101.068 42.6056 101.071 42.6738C101.071 42.7545 101.078 42.8322 101.078 42.9028C101.077 43.2233 101.025 43.5415 100.925 43.846C100.821 44.1615 100.687 44.4666 100.526 44.7575C100.364 45.0516 100.177 45.3311 99.9663 45.5927C99.7654 45.8445 99.5479 46.0826 99.3154 46.3055C99.4992 46.5043 99.6709 46.714 99.8295 46.9334C100.008 47.1801 100.189 47.4254 100.372 47.6692C100.679 48.0782 100.998 48.4996 101.331 48.9335C101.646 49.3495 101.994 49.7391 102.373 50.0985C102.705 50.4184 103.079 50.6921 103.484 50.9121C103.835 51.1067 104.24 51.1792 104.636 51.118L104.728 51.3787C104.492 51.4909 104.243 51.5778 103.988 51.6379ZM99.2607 42.6105C99.172 42.2691 99.0259 41.9453 98.8287 41.6529C98.6398 41.3749 98.3945 41.1399 98.1087 40.9631C97.8007 40.7799 97.4474 40.6871 97.0892 40.6953C96.7956 40.6934 96.5038 40.7396 96.2252 40.8321V45.8721C96.6461 45.9347 97.0711 45.9655 97.4967 45.9642C97.6709 45.9642 97.8697 45.9542 98.0957 45.934C98.295 45.9219 98.4866 45.8523 98.6473 45.7338C98.7903 45.6208 98.9121 45.4833 99.0073 45.3278C99.1051 45.1662 99.1848 44.9942 99.2449 44.8151C99.3062 44.6306 99.3496 44.4406 99.3745 44.2478C99.4 44.0597 99.413 43.8702 99.4134 43.6804C99.4099 43.3186 99.3585 42.9588 99.2607 42.6105Z" fill="url(#paint11_linear_2048_37948)"/>
<path d="M115.391 51.4287C115.095 51.4287 114.793 51.4287 114.487 51.4287C114.262 51.4287 113.991 51.4287 113.675 51.4446C113.409 51.4556 113.143 51.4503 112.878 51.4287C112.847 51.4279 112.815 51.4208 112.786 51.4077C112.757 51.3945 112.731 51.3758 112.71 51.3524C112.678 51.3121 112.694 51.266 112.755 51.2084L113.292 50.9319C113.047 50.2887 112.799 49.6451 112.549 49.0009C112.298 48.3567 112.057 47.7126 111.824 47.0684H108.8C108.718 47.2527 108.615 47.5206 108.486 47.8734C108.358 48.2262 108.234 48.5934 108.111 48.962C107.987 49.3307 107.883 49.682 107.797 50.019C107.728 50.246 107.685 50.4796 107.667 50.7159C107.661 50.792 107.682 50.8678 107.725 50.9307C107.768 50.9935 107.831 51.0397 107.905 51.0615C108.056 51.1161 108.212 51.1547 108.371 51.1767C108.473 51.1969 108.522 51.2459 108.515 51.3207C108.508 51.3956 108.458 51.4359 108.355 51.4359L105.167 51.4201C105.137 51.3934 105.111 51.3624 105.091 51.3279C105.085 51.3085 105.084 51.2879 105.088 51.2681C105.092 51.2482 105.101 51.2296 105.114 51.2138C105.127 51.198 105.143 51.1854 105.161 51.1773C105.18 51.1691 105.2 51.1654 105.22 51.1667L105.305 51.1753C105.444 51.1734 105.579 51.1335 105.696 51.0601C105.829 50.9796 105.953 50.8829 106.063 50.7721C106.179 50.656 106.282 50.527 106.37 50.3876C106.45 50.2637 106.519 50.1331 106.577 49.9974C106.843 49.3254 107.096 48.6332 107.336 47.9209C107.576 47.2086 107.819 46.5178 108.066 45.8487C108.423 44.858 108.785 43.8716 109.153 42.8895C109.521 41.9074 109.894 40.9215 110.272 39.9317C110.297 39.8864 110.334 39.8494 110.38 39.8252C110.391 39.8178 110.403 39.8128 110.416 39.8103C110.429 39.8078 110.442 39.808 110.455 39.8109C110.468 39.8137 110.48 39.8191 110.49 39.8268C110.501 39.8344 110.51 39.8442 110.517 39.8554C110.724 40.1064 110.885 40.3921 110.992 40.6993C111.136 41.0665 111.263 41.4092 111.376 41.726C111.415 41.7816 111.443 41.8435 111.46 41.9089C111.473 41.9619 111.49 42.0135 111.513 42.0629C111.636 42.3898 111.771 42.721 111.919 43.0594C112.068 43.3978 112.207 43.7434 112.341 44.1006L112.917 45.6342C113.117 46.165 113.324 46.7012 113.538 47.2426C113.752 47.7841 113.969 48.3121 114.19 48.8267C114.409 49.3422 114.626 49.8299 114.841 50.2897C114.962 50.5643 115.176 50.7873 115.446 50.919C115.708 51.042 115.992 51.1148 116.281 51.1335V51.4086C115.985 51.4287 115.689 51.4355 115.391 51.4287ZM110.258 42.5626C110.054 43.2068 109.856 43.8222 109.664 44.4087C109.472 44.9953 109.265 45.6106 109.044 46.2548H111.51L110.258 42.5626Z" fill="url(#paint12_linear_2048_37948)"/>
<path d="M124.365 49.3831C124.359 49.4309 124.357 49.479 124.357 49.5271C124.316 49.9053 124.285 50.2452 124.265 50.5466C124.245 50.8481 124.225 51.1317 124.203 51.3977C123.897 51.366 123.593 51.3482 123.292 51.3444C122.989 51.3444 122.691 51.3357 122.395 51.3357H121.583C121.306 51.3357 121.031 51.3357 120.755 51.3516C120.478 51.3674 120.189 51.3617 119.912 51.3516C119.636 51.3415 119.355 51.3357 119.068 51.3357C118.78 51.3353 118.491 51.3507 118.204 51.3818C117.93 51.4123 117.653 51.4176 117.378 51.3977C117.276 51.3876 117.227 51.3386 117.234 51.2537C117.241 51.1687 117.291 51.1226 117.394 51.1226C117.551 51.1207 117.705 51.0759 117.839 50.993C117.95 50.9173 118.04 50.8141 118.099 50.6935C118.163 50.563 118.207 50.4237 118.229 50.2802C118.255 50.1179 118.268 49.9536 118.268 49.7892V41.3219C118.273 41.181 118.252 41.0404 118.206 40.9072C118.176 40.8207 118.123 40.744 118.053 40.6854C117.992 40.6395 117.921 40.608 117.846 40.5933C117.769 40.5789 117.702 40.5659 117.624 40.5558C117.505 40.5476 117.386 40.5269 117.271 40.4939C117.222 40.4804 117.177 40.4552 117.14 40.4207C117.102 40.3861 117.074 40.3431 117.057 40.2952C117.04 40.2744 117.032 40.2481 117.033 40.2216C117.035 40.195 117.046 40.1699 117.065 40.1512C117.086 40.1298 117.111 40.1131 117.138 40.1024C117.166 40.0917 117.196 40.0872 117.225 40.0893H119.325C119.601 40.0893 119.879 40.0821 120.161 40.0662C120.433 40.0505 120.705 40.0846 120.965 40.167C120.983 40.1696 121 40.1759 121.015 40.1857C121.03 40.1955 121.043 40.2084 121.052 40.2236C121.062 40.2388 121.068 40.2559 121.07 40.2738C121.073 40.2916 121.071 40.3097 121.066 40.3269C121.064 40.3458 121.059 40.3642 121.05 40.3808C121.04 40.3973 121.028 40.4116 121.012 40.4226C120.997 40.4337 120.979 40.4411 120.96 40.4445C120.942 40.4478 120.923 40.447 120.904 40.4421L120.69 40.4277C120.585 40.4135 120.479 40.4226 120.378 40.4542C120.277 40.4858 120.184 40.5392 120.107 40.6106C120.028 40.6883 119.968 40.7818 119.928 40.8848C119.889 40.9878 119.871 41.098 119.878 41.2082V48.9943C119.865 49.2318 119.905 49.4692 119.995 49.6894C120.085 49.9095 120.223 50.1069 120.399 50.2672C120.754 50.5768 121.214 50.7409 121.685 50.7266C122.179 50.7285 122.661 50.5776 123.066 50.2946C123.483 50.0095 123.816 49.6176 124.031 49.1599C124.042 49.1437 124.057 49.1301 124.074 49.1197C124.091 49.1093 124.11 49.1024 124.13 49.0994C124.17 49.0918 124.212 49.0918 124.252 49.0994C124.289 49.1048 124.324 49.1202 124.353 49.144C124.368 49.1559 124.378 49.1718 124.384 49.1898C124.389 49.2078 124.389 49.2269 124.383 49.2448C124.378 49.2967 124.369 49.3428 124.365 49.3831Z" fill="url(#paint13_linear_2048_37948)"/>
<path d="M128.226 51.0726C128.169 51.1658 128.097 51.2486 128.012 51.3174C127.926 51.3894 127.828 51.4464 127.724 51.4859C127.624 51.5259 127.517 51.5469 127.41 51.5478C127.3 51.5515 127.192 51.5256 127.096 51.4729C127.001 51.4202 126.921 51.3426 126.865 51.2483C126.745 51.0744 126.679 50.8692 126.674 50.6579C126.672 50.4594 126.746 50.2676 126.881 50.1222C126.954 50.044 127.044 49.9828 127.144 49.9429C127.243 49.9031 127.35 49.8857 127.457 49.8918C127.573 49.8922 127.687 49.9183 127.792 49.9681C127.896 50.0179 127.989 50.0902 128.062 50.1798C128.218 50.3377 128.308 50.5485 128.315 50.7702C128.314 50.8774 128.284 50.9821 128.226 51.0726Z" fill="url(#paint14_linear_2048_37948)"/>
<path d="M137.76 41.2839C137.735 41.56 137.692 41.8342 137.63 42.1047C137.609 42.1753 137.548 42.2113 137.446 42.2113C137.41 42.2166 137.373 42.2088 137.342 42.1893C137.311 42.1697 137.288 42.1397 137.278 42.1047C137.185 41.6338 136.99 41.3228 136.687 41.1687C136.345 41.0071 135.97 40.9287 135.591 40.9397C135.479 40.9397 135.377 40.9397 135.285 40.9469C135.192 40.9541 135.096 40.9599 134.997 40.97C134.897 40.98 134.799 40.9887 134.683 40.993C134.566 40.9973 134.465 41.0002 134.383 41.0002H134.123C134.046 41.0008 133.969 40.996 133.894 40.9858V49.6906C133.894 49.7223 133.894 49.7958 133.915 49.9138C133.937 50.0319 133.947 50.1514 133.961 50.2738C133.976 50.3962 133.994 50.5086 134.016 50.6108C134.022 50.6691 134.038 50.726 134.062 50.7793C134.144 50.8689 134.25 50.9329 134.367 50.9636C134.47 50.9838 134.567 50.9996 134.655 51.0097C134.779 51.0171 134.901 51.032 135.023 51.0543C135.073 51.0647 135.12 51.0869 135.16 51.1189C135.2 51.1509 135.232 51.1919 135.253 51.2387C135.268 51.2573 135.276 51.2804 135.276 51.3042C135.276 51.328 135.268 51.3511 135.253 51.3697C135.233 51.3894 135.208 51.4043 135.182 51.4135C135.155 51.4228 135.127 51.426 135.099 51.423C134.475 51.423 133.854 51.4283 133.237 51.4388C132.62 51.4494 131.999 51.4441 131.375 51.423C131.273 51.4129 131.217 51.3726 131.207 51.3006C131.196 51.2286 131.243 51.1825 131.351 51.1566C131.522 51.1275 131.691 51.0841 131.856 51.027C131.968 50.9889 132.065 50.9163 132.132 50.8196C132.198 50.713 132.237 50.5919 132.246 50.4668C132.264 50.2753 132.271 50.0831 132.269 49.8908V40.9541H129.89C129.598 40.9522 129.317 41.0655 129.108 41.2695C128.889 41.4704 128.712 41.7126 128.587 41.9823C128.57 42.0132 128.544 42.038 128.512 42.053C128.48 42.0681 128.445 42.0725 128.41 42.0658C128.374 42.068 128.339 42.0578 128.31 42.0368C128.28 42.0158 128.259 41.9853 128.25 41.9506C128.24 41.9127 128.232 41.8742 128.227 41.8354C128.224 41.7923 128.224 41.7489 128.227 41.7058C128.23 41.5011 128.261 41.2976 128.318 41.101C128.379 40.8812 128.446 40.6589 128.518 40.4343C128.547 40.3489 128.57 40.2619 128.587 40.1736C128.602 40.0916 128.62 40.0095 128.64 39.9274C128.65 39.9028 128.666 39.8809 128.686 39.8636C128.706 39.8463 128.73 39.8341 128.756 39.828C128.809 39.813 128.865 39.8155 128.917 39.8352C128.997 39.8862 129.084 39.9251 129.176 39.9504C129.288 39.9864 129.409 40.0196 129.536 40.0512C129.658 40.0806 129.781 40.1032 129.905 40.1189C129.993 40.1322 130.083 40.1399 130.173 40.142H136.733C136.814 40.1395 136.894 40.1269 136.971 40.1045L137.239 40.0354C137.295 40.014 137.354 40.0009 137.414 39.9965C137.474 39.9926 137.533 39.9849 137.592 39.9735C137.64 39.9637 137.69 39.9693 137.736 39.9893C137.757 39.9975 137.775 40.0122 137.787 40.0314C137.8 40.0505 137.806 40.0731 137.805 40.0959V40.4343C137.801 40.7194 137.786 41.0026 137.76 41.2839Z" fill="url(#paint15_linear_2048_37948)"/>
<path d="M150.229 40.4348C150.111 40.4533 149.996 40.4812 149.883 40.5183C149.779 40.5519 149.687 40.6131 149.615 40.6954C149.504 40.8465 149.407 41.0081 149.327 41.1778C149.231 41.3765 149.129 41.5935 149.021 41.8287C148.912 42.0639 148.81 42.3039 148.714 42.5487C148.617 42.7949 148.522 43.0239 148.426 43.2384C148.365 43.3824 148.306 43.5264 148.25 43.6604C148.194 43.7943 148.139 43.9181 148.089 44.0204L147.369 45.7225C146.97 46.6709 146.564 47.6415 146.151 48.6342C145.737 49.6268 145.305 50.5921 144.855 51.53C144.848 51.5476 144.836 51.5631 144.822 51.5752C144.807 51.5872 144.79 51.5955 144.771 51.5991C144.725 51.6146 144.676 51.6224 144.627 51.6222C144.579 51.6225 144.53 51.6177 144.483 51.6078C144.443 51.6008 144.407 51.5786 144.382 51.5458C143.953 50.6473 143.545 49.7074 143.157 48.7263C142.769 47.7452 142.391 46.7593 142.022 45.7685C141.725 44.941 141.412 44.1159 141.08 43.2932C140.749 42.4704 140.401 41.6909 140.036 40.9546H140.051C139.978 40.8202 139.866 40.7108 139.73 40.6407C139.598 40.5752 139.459 40.5268 139.315 40.4967C139.203 40.4664 139.099 40.4376 139.001 40.4132C138.887 40.379 138.781 40.3243 138.687 40.2519C138.605 40.2116 138.579 40.1597 138.611 40.0978C138.629 40.0665 138.656 40.0412 138.689 40.0251C138.721 40.0089 138.758 40.0027 138.794 40.0071C138.998 40.0172 139.203 40.0186 139.407 40.0071C139.612 39.9956 139.822 40.0071 140.036 40.0071H142.628C142.731 40.0071 142.772 40.0532 142.772 40.1439C142.773 40.165 142.768 40.186 142.76 40.2053C142.751 40.2246 142.738 40.2417 142.722 40.2554C142.706 40.2692 142.687 40.2792 142.667 40.2848C142.646 40.2904 142.625 40.2915 142.604 40.2879L142.329 40.334C142.293 40.3305 142.257 40.3341 142.223 40.3448C142.188 40.3554 142.156 40.3728 142.129 40.3959C142.088 40.4362 142.032 40.4981 141.96 40.5788C142.219 41.6729 142.552 42.7482 142.957 43.7972C143.355 44.8301 143.759 45.8621 144.168 46.8932C144.248 47.0991 144.323 47.2849 144.39 47.4533C144.456 47.6218 144.521 47.7831 144.581 47.9357C144.641 48.0884 144.703 48.2482 144.765 48.411C144.827 48.5737 144.898 48.7594 144.98 48.9625C145.04 48.8185 145.108 48.6745 145.179 48.5031L145.409 47.9818C145.664 47.4001 145.945 46.7487 146.251 46.0277C146.558 45.3068 146.846 44.5992 147.115 43.9052C147.382 43.2111 147.605 42.565 147.782 41.9669C147.935 41.5137 148.025 41.0419 148.051 40.5644C148.051 40.5125 147.994 40.4765 147.882 40.4564L147.545 40.3959C147.455 40.3714 147.362 40.356 147.27 40.3498C147.253 40.3481 147.236 40.3429 147.222 40.3346C147.207 40.3263 147.194 40.315 147.184 40.3015C147.174 40.2879 147.167 40.2724 147.163 40.256C147.159 40.2395 147.158 40.2224 147.162 40.2058C147.172 40.128 147.223 40.0848 147.316 40.0748C147.846 40.045 148.378 40.0296 148.91 40.0287C149.442 40.0277 149.983 40.0431 150.534 40.0748L150.564 40.3512L150.229 40.4348Z" fill="url(#paint16_linear_2048_37948)"/>
<path d="M34.0451 16.0865C34.3777 14.0936 34.5851 15.5883 34.7968 16.2118C35.0085 16.8353 35.2086 16.4998 35.1669 16.7878C35.1251 17.0758 35.0013 17.6604 34.8357 18.4496C34.6701 19.2387 35.0848 20.9897 35.5038 21.6579C35.9229 22.3261 36.0021 21.5744 36.1691 21.2417C36.3362 20.9091 37.0835 19.7038 36.8344 20.6182C36.6559 21.3142 36.5308 22.0229 36.46 22.7379C36.4182 23.0691 36.5018 23.2361 37.4147 23.0691C38.3277 22.9021 41.0709 18.8326 41.6527 16.0894C42.2344 13.3462 40.7397 10.315 40.6562 10.5223C40.5727 10.7297 39.3602 10.7297 38.7453 11.6441C38.1304 12.5585 37.8726 12.7241 37.5818 12.4332C38.2398 6.53784 35.9157 2.45974 35.5038 1.71094C34.7836 2.28915 34.1289 2.94441 33.5512 3.66503C32.7621 4.70327 31.8894 7.19592 31.7656 8.19241C31.6417 9.18889 31.8059 10.7686 32.4712 15.09C33.1365 19.4115 33.7139 18.0809 34.0451 16.0865Z" fill="url(#paint17_linear_2048_37948)"/>
<path d="M33.1321 30.6286C34.2121 31.3342 33.8795 30.9166 34.1286 30.5451C34.3777 30.1736 34.1286 29.9691 33.1724 27.5211C32.2163 25.0731 33.5886 27.3382 33.963 28.0453C34.3374 28.7523 34.539 29.2491 34.876 29.5818C35.2129 29.9144 35.583 29.1253 35.7068 30.4962C35.8307 31.8671 36.0395 31.7835 36.4139 32.3682C36.7883 32.9528 37.0792 31.5373 37.0792 32.0802C37.0792 32.6231 37.3283 32.0399 37.2865 32.9528C37.2448 33.8658 38.0339 34.0343 38.4501 33.7016C38.8662 33.369 42.148 28.8056 42.3554 28.2166C42.521 23.3206 41.3171 21.1952 41.3171 21.1952C38.7409 22.1096 36.2065 27.3022 35.9574 27.9632C35.9574 27.9632 35.7486 26.6341 35.6248 25.7197C35.5009 24.8053 35.0848 22.2291 34.876 21.6876C34.6672 21.1462 32.7995 19.2094 32.0478 17.8731C31.2961 16.5367 29.4759 15.2134 29.1433 16.5022C28.6451 18.4131 28.9763 23.3984 29.1433 25.0198C29.3103 26.6413 32.0478 29.9216 33.1321 30.6286Z" fill="url(#paint18_linear_2048_37948)"/>
<path d="M42.896 57.3504C43.2704 57.2741 43.184 56.845 42.8125 55.8903C42.5475 55.2106 40.9175 53.5243 40.0765 52.6963C40.7965 53.3299 42.0579 54.3999 42.3805 54.7685C42.8125 55.2668 43.9011 55.9738 43.7773 55.225C43.6535 54.4762 44.1517 53.4797 44.2093 53.9794C44.2669 54.4791 46.3549 56.0559 47.2333 56.8868C48.1117 57.7176 48.3551 56.9703 48.2298 55.932C48.1045 54.8938 46.5263 51.2362 46.9828 51.985C47.4392 52.7338 48.7698 56.1394 49.186 56.845C49.6021 57.5506 50.05 57.3864 50.1825 57.133C50.3149 56.8796 50.0169 53.0621 49.8498 50.7768C49.6828 48.4915 46.3045 44.2147 45.3887 43.7582C44.8132 43.4743 44.2155 43.2379 43.6016 43.0512C43.7687 42.3038 44.4743 38.7729 44.434 37.9003C44.3936 37.0276 43.3525 33.5371 43.1034 32.915C42.8543 32.2929 41.7743 31.2518 41.4416 31.5844C41.109 31.9171 39.9469 33.1223 39.4054 34.6588C38.864 36.1953 38.7416 37.5676 38.2016 38.3568C38.2016 38.3568 37.3707 37.402 37.1216 36.7728C36.8725 36.1435 29.4766 29.59 29.2275 30.3388C28.9784 31.0876 28.9769 34.5767 29.7257 37.0276C30.4745 39.4785 33.3401 41.9237 34.0875 42.8438C34.8349 43.764 37.411 45.7066 37.6645 45.7526C37.9179 45.7987 37.9957 45.3782 37.6645 44.4393C37.3333 43.5005 35.1704 39.6038 35.6283 40.2633C36.0862 40.9229 36.4592 41.4269 37.4139 42.6739C38.3686 43.9209 38.661 44.0448 39.1174 44.6683C39.5739 45.2918 40.2392 46.0392 40.3645 45.4992C40.4898 44.9592 40.448 42.0504 40.4898 41.7552C40.5315 41.46 40.6971 42.5025 40.8138 44.124C40.9304 45.7454 41.1119 45.5784 41.3207 46.117C41.5295 46.6555 42.1515 46.2422 42.3747 45.7858C42.5979 45.3293 42.9824 44.4307 42.9824 44.4307C43.1192 44.9699 43.2026 45.5212 43.2315 46.0766C43.2315 46.7405 43.4389 52.1419 43.4389 52.1419C43.4389 52.1419 43.1509 51.6855 42.7333 51.1037C42.3157 50.5219 37.6227 46.8658 36.7083 46.117C35.7939 45.3682 31.556 43.9569 31.556 44.4307C31.556 44.9045 30.8504 46.5749 32.7613 49.691C34.6721 52.8072 38.2866 55.1328 39.5754 56.0472C40.8642 56.9616 42.5216 57.4268 42.896 57.3504Z" fill="url(#paint19_linear_2048_37948)"/>
<path d="M53.2406 66.942C53.4897 66.5676 53.157 65.8188 52.617 65.4459C52.077 65.0729 48.67 63.5739 48.297 63.2441C47.924 62.9143 51.9949 64.448 52.4097 64.6985C52.8244 64.9491 53.6567 65.0297 53.9937 65.155C54.3306 65.2803 56.7729 68.3144 57.3129 68.3144C57.8529 68.3144 58.3094 68.7291 58.3511 68.3144C58.3929 67.8996 57.8111 67.2747 57.6441 66.7304C57.4771 66.186 56.482 62.2015 56.482 61.8703C56.482 61.5391 57.778 65.5265 58.354 66.4395C58.93 67.3524 59.5996 68.2683 59.807 67.9774C60.0143 67.6865 60.5543 63.8633 60.347 62.2851C60.1396 60.7068 60.0547 59.3863 59.5521 58.3783C59.0495 57.3703 55.1471 52.8113 53.3601 51.6103C52.6948 51.1538 52.1965 53.3556 52.1548 54.3938C52.113 55.4321 52.2383 59.7953 52.4428 60.7918C52.5589 61.297 52.6283 61.8118 52.6502 62.3297C51.5701 61.4153 45.3796 56.5538 37.0707 57.5935C36.8216 57.6353 39.3143 63.7855 44.1743 65.5294C49.0343 67.2732 52.9914 67.315 53.2406 66.942Z" fill="url(#paint20_linear_2048_37948)"/>
<path d="M71.7698 76.3314C72.1442 76.2479 72.1024 75.9988 71.5624 75.5006C71.0224 75.0023 68.488 71.5953 68.0316 70.6809C67.5751 69.7665 70.7676 73.7135 71.5207 74.337C72.2738 74.9606 73.7642 75.957 73.7642 75.5423C73.7642 75.1276 72.8916 72.5917 72.4351 71.7609C71.9786 70.93 70.0663 67.4408 69.3189 66.7756C68.5716 66.1103 64.2501 63.2029 62.7539 62.8285C61.2578 62.4541 61.1699 62.8285 61.1699 62.8285C61.1699 62.8285 61.5846 69.4756 64.4099 72.3009C67.2352 75.1262 70.0634 76.667 71.7698 76.3314Z" fill="url(#paint21_linear_2048_37948)"/>
<path d="M91.298 79.2804C90.7667 79.5684 90.758 79.7786 90.758 79.7786C90.7134 79.9572 90.6443 82.2353 90.604 84.5148C90.3293 84.4379 90.041 84.4237 89.7601 84.473C87.7657 84.7222 84.4839 85.049 84.193 84.8892C83.9022 84.7294 89.6363 84.2239 89.9689 83.8495C90.3016 83.4751 90.3001 82.4786 88.2236 82.1877C86.1471 81.8969 85.6057 81.4404 84.4004 81.4821C83.1951 81.5239 83.3204 80.693 83.1548 80.4021C82.9892 80.1113 81.4095 78.1169 80.9113 77.5769C80.413 77.0368 82.8222 79.4489 83.4874 79.9039C84.1527 80.3589 84.9822 80.6095 85.3148 80.3186C85.6474 80.0277 84.6913 76.9116 82.5788 74.7026C80.4663 72.4936 77.6756 69.2594 73.6508 69.5503C73.2764 70.1738 73.4016 72.1264 74.5234 73.9956C75.6452 75.8647 77.929 78.857 79.0508 79.8132C80.1725 80.7693 81.627 80.9767 81.627 81.3972C81.627 81.8177 80.7126 81.8551 80.0905 81.8954C79.4684 81.9357 77.389 82.686 77.0578 82.4714C76.7266 82.2569 76.7698 81.6823 76.309 81.5167C75.8482 81.3511 71.413 80.7679 70.7002 80.7679C69.9874 80.7679 74.3564 80.6441 75.5199 80.4367C76.6834 80.2293 76.7252 80.0623 75.6034 79.2732C74.4816 78.484 72.1546 77.1132 70.7419 77.07C69.3293 77.0268 65.5378 77.4098 65.1677 77.2413C64.7976 77.0728 64.6277 76.6178 64.5442 76.2434C64.4606 75.869 63.215 75.5378 62.4662 75.2052C61.7174 74.8725 59.0592 73.9999 58.7697 73.876C58.4803 73.7522 61.968 74.249 63.0062 74.6234C63.5752 74.8433 64.184 74.9415 64.7933 74.9114C65.0424 74.6623 65.0813 74.0805 64.4189 73.5823C63.7565 73.084 60.5971 69.5099 56.7336 69.137C52.87 68.764 46.4289 68.6387 46.2633 69.137C46.0977 69.6352 49.7193 74.9532 53.5756 76.2405C57.432 77.5279 62.7571 77.2384 63.6715 77.2802C64.5859 77.322 58.476 78.8253 58.8907 79.5295C59.3054 80.2337 63.4987 84.3895 65.3707 84.473C67.2427 84.5566 74.2613 83.897 75.2175 83.6422C76.1737 83.3873 73.3455 84.7639 73.0157 85.2262C72.686 85.6884 77.5517 89.3374 81.4095 89.0494C85.2673 88.7614 88.0163 86.8894 89.3036 86.515C89.7471 86.4025 90.1759 86.2382 90.5809 86.0254C90.5636 87.4092 90.5636 88.6015 90.591 89.0652C90.6745 90.4203 93.1254 90.0041 93.2507 89.5476C93.376 89.0911 93.5833 80.7391 93.5387 80.3316C93.494 79.9241 92.2945 78.8253 91.298 79.2804Z" fill="url(#paint22_linear_2048_37948)"/>
<path d="M95.287 79.6916C94.4561 79.7751 94.2891 80.2676 94.2891 80.2676C94.2891 80.6837 94.2473 89.2835 94.2891 89.4505C94.3308 89.6175 94.7052 90.5708 95.2035 90.4887C95.7017 90.4067 96.8235 90.7767 96.907 90.3217C96.9905 89.8667 97.0308 80.8076 96.907 80.5585C96.7832 80.3093 96.1179 79.6138 95.287 79.6916Z" fill="url(#paint23_linear_2048_37948)"/>
<path d="M99.1521 79.6903C98.4105 79.7897 97.7812 79.9452 97.7812 80.4852V89.6264C97.7812 89.6264 98.3213 90.5883 98.9851 90.5638C99.6489 90.5393 100.398 90.1664 100.398 89.792C100.398 89.4176 100.19 80.4852 100.19 80.4852C100.19 80.4852 99.8347 79.5981 99.1521 79.6903Z" fill="url(#paint24_linear_2048_37948)"/>
<path d="M164.35 23.0662C165.263 23.2333 165.346 23.0662 165.305 22.735C165.234 22.02 165.109 21.3114 164.93 20.6153C164.681 19.7009 165.43 20.9033 165.596 21.2389C165.761 21.5744 165.845 22.3189 166.261 21.655C166.677 20.9912 167.092 19.2445 166.925 18.4553C166.758 17.6662 166.637 17.0844 166.592 16.7936C166.547 16.5027 166.75 16.8353 166.962 16.2176C167.174 15.5998 167.383 14.0993 167.715 16.0923C168.048 18.0852 168.628 19.4173 169.299 15.0958C169.97 10.7743 170.13 9.19177 170.005 8.19817C169.88 7.20456 169.008 4.70903 168.219 3.67079C167.639 2.94761 166.981 2.29038 166.257 1.71094C165.84 2.45974 163.521 6.53064 164.179 12.4303C163.891 12.7183 163.639 12.5556 163.015 11.6412C162.392 10.7268 161.188 10.7268 161.104 10.5195C161.021 10.3121 159.52 13.3447 160.108 16.0865C160.695 18.8283 163.436 22.9006 164.35 23.0662Z" fill="url(#paint25_linear_2048_37948)"/>
<path d="M163.31 33.7043C163.726 34.0369 164.515 33.8699 164.473 32.9555C164.431 32.0411 164.68 32.6243 164.68 32.0828C164.68 31.5414 164.968 32.9555 165.346 32.3708C165.723 31.7862 165.922 31.8726 166.053 30.4988C166.184 29.125 166.551 29.9228 166.884 29.5844C167.216 29.246 167.424 28.7535 167.797 28.0479C168.17 27.3423 169.542 25.0887 168.586 27.5238C167.63 29.9588 167.382 30.1662 167.631 30.5478C167.88 30.9294 167.548 31.3369 168.628 30.6313C169.708 29.9257 172.451 26.6425 172.616 25.0225C172.782 23.4024 173.115 18.4157 172.616 16.5048C172.284 15.216 170.456 16.5466 169.708 17.8757C168.959 19.2048 167.091 21.1575 166.884 21.6975C166.676 22.2375 166.257 24.8137 166.133 25.7295C166.01 26.6453 165.802 27.973 165.802 27.973C165.553 27.3077 163.019 22.1151 160.443 21.205C160.443 21.205 159.239 23.3247 159.404 28.2265C159.612 28.801 162.895 33.3716 163.31 33.7043Z" fill="url(#paint26_linear_2048_37948)"/>
<path d="M164.64 36.7781C164.39 37.4016 163.559 38.3621 163.559 38.3621C163.019 37.573 162.895 36.2021 162.355 34.6642C161.815 33.1263 160.651 31.9282 160.319 31.5898C159.986 31.2514 158.906 32.2968 158.657 32.9203C158.408 33.5439 157.361 37.033 157.327 37.9056C157.292 38.7783 157.992 42.3092 158.157 43.0566C157.544 43.2434 156.947 43.4798 156.372 43.7636C155.457 44.2201 152.092 48.4998 151.926 50.7851C151.761 53.0704 151.469 56.8921 151.594 57.1412C151.719 57.3904 152.17 57.5574 152.59 56.8532C153.011 56.1491 154.336 52.7406 154.792 51.9932C155.249 51.2459 153.67 54.9006 153.546 55.9403C153.423 56.98 153.67 57.7259 154.543 56.895C155.416 56.0641 157.505 54.4859 157.567 53.9876C157.629 53.4894 158.123 54.4859 157.999 55.2332C157.875 55.9806 158.965 55.275 159.396 54.7768C159.714 54.4081 160.98 53.3368 161.7 52.7032C160.855 53.5326 159.224 55.2188 158.964 55.8985C158.589 56.8533 158.506 57.2824 158.88 57.3587C159.255 57.435 160.916 56.9785 162.204 56.0627C163.491 55.1468 167.1 52.8227 169.018 49.7065C170.936 46.5903 170.223 44.9199 170.223 44.4462C170.223 43.9724 165.985 45.385 165.071 46.1324C164.156 46.8798 159.462 50.5374 159.046 51.1192C158.63 51.7009 158.34 52.1574 158.34 52.1574C158.34 52.1574 158.548 46.7559 158.548 46.0921C158.577 45.5366 158.66 44.9853 158.797 44.4462C158.797 44.4462 159.181 45.3433 159.404 45.8012C159.628 46.2591 160.251 46.6738 160.459 46.1324C160.666 45.591 160.847 45.7594 160.965 44.1394C161.083 42.5194 161.253 41.4797 161.289 41.7706C161.325 42.0615 161.289 44.9703 161.415 45.5146C161.54 46.059 162.204 45.3058 162.662 44.6838C163.12 44.0617 163.409 43.935 164.365 42.6893C165.321 41.4437 165.692 40.9441 166.149 40.2788C166.607 39.6135 164.447 43.5116 164.115 44.4548C163.782 45.398 163.866 45.8098 164.115 45.7681C164.364 45.7263 166.94 43.7737 167.689 42.8593C168.438 41.9449 171.303 39.494 172.051 37.0431C172.798 34.5922 172.799 31.1016 172.549 30.3543C172.298 29.6069 164.889 36.1546 164.64 36.7781Z" fill="url(#paint27_linear_2048_37948)"/>
<path d="M149.102 62.3297C149.124 61.8118 149.193 61.297 149.309 60.7918C149.517 59.7953 149.642 55.4321 149.597 54.3938C149.553 53.3556 149.06 51.1538 148.401 51.6103C146.614 52.8156 142.708 57.3862 142.209 58.3783C141.709 59.3705 141.633 60.7054 141.42 62.2836C141.206 63.8619 141.752 67.6851 141.96 67.976C142.167 68.2668 142.832 67.3524 143.413 66.438C143.993 65.5236 145.285 61.542 145.285 61.8689C145.285 62.1958 144.288 66.1889 144.121 66.7289C143.954 67.2689 143.374 67.8924 143.415 68.3129C143.457 68.7334 143.914 68.3129 144.454 68.3129C144.994 68.3129 147.446 65.2788 147.779 65.155C148.111 65.0312 148.941 64.9476 149.363 64.6985C149.785 64.4494 153.85 62.9115 153.475 63.2441C153.101 63.5767 149.695 65.0715 149.155 65.4459C148.615 65.8203 148.283 66.5676 148.532 66.942C148.781 67.3164 152.728 67.2732 157.589 65.5294C162.451 63.7855 164.942 57.6353 164.693 57.5935C156.373 56.5538 150.182 61.4153 149.102 62.3297Z" fill="url(#paint28_linear_2048_37948)"/>
<path d="M145.029 69.1441C141.166 69.5171 138.008 73.0912 137.343 73.5894C136.677 74.0877 136.72 74.6694 136.97 74.9185C137.579 74.9486 138.188 74.8505 138.757 74.6305C139.795 74.2561 143.284 73.7579 142.995 73.8832C142.705 74.0085 140.044 74.8797 139.297 75.2123C138.549 75.545 137.302 75.8776 137.219 76.2506C137.135 76.6235 136.97 77.0814 136.595 77.2485C136.221 77.4155 132.441 77.0411 131.028 77.0814C129.615 77.1218 127.284 78.4941 126.167 79.2846C125.049 80.0752 125.087 80.2394 126.25 80.4482C127.414 80.657 131.775 80.7794 131.07 80.7794C130.364 80.7794 125.917 81.3554 125.461 81.5282C125.005 81.701 125.045 82.2755 124.712 82.4829C124.38 82.6903 122.303 81.9429 121.68 81.9069C121.056 81.8709 120.143 81.8248 120.143 81.4087C120.143 80.9925 121.596 80.7851 122.719 79.8246C123.842 78.8642 126.126 75.8776 127.248 74.007C128.37 72.1365 128.494 70.1852 128.112 69.5617C124.08 69.2737 121.299 72.5123 119.184 74.7141C117.069 76.9158 116.11 80.032 116.448 80.3301C116.786 80.6282 117.612 80.3719 118.275 79.9154C118.939 79.4589 121.35 77.0483 120.852 77.5883C120.353 78.1283 118.775 80.1227 118.608 80.4136C118.441 80.7045 118.566 81.5354 117.361 81.4936C116.156 81.4519 115.617 81.9083 113.539 82.1992C111.461 82.4901 111.463 83.488 111.794 83.861C112.125 84.234 117.861 84.7336 117.57 84.9007C117.279 85.0677 113.997 84.7336 112.003 84.4845C111.722 84.4351 111.434 84.4493 111.16 84.5263C111.119 82.2467 111.049 79.9686 111.005 79.7901C111.005 79.7901 110.996 79.5813 110.465 79.2918C109.468 78.8339 108.263 79.9154 108.221 80.3301C108.179 80.7448 108.388 89.0968 108.509 89.5461C108.63 89.9954 111.085 90.4188 111.169 89.0637C111.196 88.6 111.196 87.4077 111.179 86.0239C111.584 86.2364 112.013 86.4007 112.456 86.5135C113.744 86.8864 116.488 88.757 120.35 89.0479C124.213 89.3388 129.075 85.6826 128.743 85.2261C128.41 84.7696 125.585 83.3973 126.541 83.6421C127.497 83.8869 134.519 84.5565 136.388 84.473C138.257 84.3895 142.453 80.2351 142.868 79.5294C143.283 78.8238 137.175 77.3262 138.09 77.2859C139.004 77.2456 144.322 77.535 148.186 76.2462C152.049 74.9574 155.664 69.6409 155.498 69.1427C155.332 68.6444 148.894 68.7697 145.029 69.1441Z" fill="url(#paint29_linear_2048_37948)"/>
<path d="M130.24 74.3365C130.987 73.713 134.187 69.7659 133.729 70.6803C133.271 71.5948 130.738 75.0004 130.198 75.5001C129.658 75.9997 129.622 76.2474 129.99 76.3309C131.694 76.6636 134.519 75.1256 137.343 72.2989C140.167 69.4722 140.585 62.8266 140.585 62.8266C140.585 62.8266 140.501 62.4522 139.001 62.8266C137.5 63.201 133.183 66.1098 132.436 66.7736C131.688 67.4375 129.776 70.928 129.319 71.7589C128.863 72.5898 127.99 75.1242 127.99 75.5404C127.99 75.9565 129.491 74.96 130.24 74.3365Z" fill="url(#paint30_linear_2048_37948)"/>
<path d="M106.473 79.6904C105.643 79.6069 104.979 80.3139 104.853 80.5631C104.728 80.8122 104.77 89.8698 104.853 90.3263C104.937 90.7828 106.059 90.4098 106.557 90.4933C107.055 90.5769 107.43 89.6207 107.471 89.4551C107.513 89.2895 107.471 80.6883 107.471 80.2722C107.471 80.2779 107.304 79.7797 106.473 79.6904Z" fill="url(#paint31_linear_2048_37948)"/>
<path d="M102.608 79.6903C101.924 79.5981 101.57 80.4852 101.57 80.4852C101.57 80.4852 101.362 89.4132 101.362 89.792C101.362 90.1707 102.11 90.5408 102.775 90.5638C103.44 90.5868 103.979 89.6264 103.979 89.6264V80.4852C103.98 79.9452 103.351 79.7897 102.608 79.6903Z" fill="url(#paint32_linear_2048_37948)"/>
<defs>
<linearGradient id="paint0_linear_2048_37948" x1="53.9345" y1="39.5165" x2="53.9345" y2="12.718" gradientUnits="userSpaceOnUse">
<stop stop-color="#825B2C"/>
<stop offset="0.13" stop-color="#A48538"/>
<stop offset="0.33" stop-color="#BAA252"/>
<stop offset="0.51" stop-color="#C9B764"/>
<stop offset="0.63" stop-color="#CFBE6B"/>
<stop offset="0.94" stop-color="#A48538"/>
<stop offset="1" stop-color="#825B2C"/>
</linearGradient>
<linearGradient id="paint1_linear_2048_37948" x1="69.7732" y1="33.4135" x2="69.7732" y2="12.7768" gradientUnits="userSpaceOnUse">
<stop stop-color="#825B2C"/>
<stop offset="0.13" stop-color="#A48538"/>
<stop offset="0.33" stop-color="#BAA252"/>
<stop offset="0.51" stop-color="#C9B764"/>
<stop offset="0.63" stop-color="#CFBE6B"/>
<stop offset="0.94" stop-color="#A48538"/>
<stop offset="1" stop-color="#825B2C"/>
</linearGradient>
<linearGradient id="paint2_linear_2048_37948" x1="86.544" y1="33.4124" x2="86.544" y2="12.2817" gradientUnits="userSpaceOnUse">
<stop stop-color="#825B2C"/>
<stop offset="0.13" stop-color="#A48538"/>
<stop offset="0.33" stop-color="#BAA252"/>
<stop offset="0.51" stop-color="#C9B764"/>
<stop offset="0.63" stop-color="#CFBE6B"/>
<stop offset="0.94" stop-color="#A48538"/>
<stop offset="1" stop-color="#825B2C"/>
</linearGradient>
<linearGradient id="paint3_linear_2048_37948" x1="101.743" y1="33.0675" x2="101.743" y2="12.389" gradientUnits="userSpaceOnUse">
<stop stop-color="#825B2C"/>
<stop offset="0.13" stop-color="#A48538"/>
<stop offset="0.33" stop-color="#BAA252"/>
<stop offset="0.51" stop-color="#C9B764"/>
<stop offset="0.63" stop-color="#CFBE6B"/>
<stop offset="0.94" stop-color="#A48538"/>
<stop offset="1" stop-color="#825B2C"/>
</linearGradient>
<linearGradient id="paint4_linear_2048_37948" x1="115.038" y1="32.9755" x2="115.038" y2="12.8182" gradientUnits="userSpaceOnUse">
<stop stop-color="#825B2C"/>
<stop offset="0.13" stop-color="#A48538"/>
<stop offset="0.33" stop-color="#BAA252"/>
<stop offset="0.51" stop-color="#C9B764"/>
<stop offset="0.63" stop-color="#CFBE6B"/>
<stop offset="0.94" stop-color="#A48538"/>
<stop offset="1" stop-color="#825B2C"/>
</linearGradient>
<linearGradient id="paint5_linear_2048_37948" x1="128.637" y1="33.2208" x2="128.637" y2="12.3638" gradientUnits="userSpaceOnUse">
<stop stop-color="#825B2C"/>
<stop offset="0.13" stop-color="#A48538"/>
<stop offset="0.33" stop-color="#BAA252"/>
<stop offset="0.51" stop-color="#C9B764"/>
<stop offset="0.63" stop-color="#CFBE6B"/>
<stop offset="0.94" stop-color="#A48538"/>
<stop offset="1" stop-color="#825B2C"/>
</linearGradient>
<linearGradient id="paint6_linear_2048_37948" x1="145.289" y1="33.0316" x2="145.289" y2="12.5317" gradientUnits="userSpaceOnUse">
<stop stop-color="#825B2C"/>
<stop offset="0.13" stop-color="#A48538"/>
<stop offset="0.33" stop-color="#BAA252"/>
<stop offset="0.51" stop-color="#C9B764"/>
<stop offset="0.63" stop-color="#CFBE6B"/>
<stop offset="0.94" stop-color="#A48538"/>
<stop offset="1" stop-color="#825B2C"/>
</linearGradient>
<linearGradient id="paint7_linear_2048_37948" x1="56.3383" y1="51.5293" x2="56.3383" y2="39.8048" gradientUnits="userSpaceOnUse">
<stop stop-color="#825B2C"/>
<stop offset="0.13" stop-color="#A48538"/>
<stop offset="0.33" stop-color="#BAA252"/>
<stop offset="0.51" stop-color="#C9B764"/>
<stop offset="0.63" stop-color="#CFBE6B"/>
<stop offset="0.94" stop-color="#A48538"/>
<stop offset="1" stop-color="#825B2C"/>
</linearGradient>
<linearGradient id="paint8_linear_2048_37948" x1="65.6975" y1="51.4225" x2="65.6975" y2="39.8981" gradientUnits="userSpaceOnUse">
<stop stop-color="#825B2C"/>
<stop offset="0.13" stop-color="#A48538"/>
<stop offset="0.33" stop-color="#BAA252"/>
<stop offset="0.51" stop-color="#C9B764"/>
<stop offset="0.63" stop-color="#CFBE6B"/>
<stop offset="0.94" stop-color="#A48538"/>
<stop offset="1" stop-color="#825B2C"/>
</linearGradient>
<linearGradient id="paint9_linear_2048_37948" x1="75.8886" y1="51.5247" x2="75.8886" y2="40.0349" gradientUnits="userSpaceOnUse">
<stop stop-color="#825B2C"/>
<stop offset="0.13" stop-color="#A48538"/>
<stop offset="0.33" stop-color="#BAA252"/>
<stop offset="0.51" stop-color="#C9B764"/>
<stop offset="0.63" stop-color="#CFBE6B"/>
<stop offset="0.94" stop-color="#A48538"/>
<stop offset="1" stop-color="#825B2C"/>
</linearGradient>
<linearGradient id="paint10_linear_2048_37948" x1="87.7642" y1="51.4431" x2="87.7642" y2="39.818" gradientUnits="userSpaceOnUse">
<stop stop-color="#825B2C"/>
<stop offset="0.13" stop-color="#A48538"/>
<stop offset="0.33" stop-color="#BAA252"/>
<stop offset="0.51" stop-color="#C9B764"/>
<stop offset="0.63" stop-color="#CFBE6B"/>
<stop offset="0.94" stop-color="#A48538"/>
<stop offset="1" stop-color="#825B2C"/>
</linearGradient>
<linearGradient id="paint11_linear_2048_37948" x1="99.0418" y1="51.73" x2="99.0418" y2="40.0962" gradientUnits="userSpaceOnUse">
<stop stop-color="#825B2C"/>
<stop offset="0.13" stop-color="#A48538"/>
<stop offset="0.33" stop-color="#BAA252"/>
<stop offset="0.51" stop-color="#C9B764"/>
<stop offset="0.63" stop-color="#CFBE6B"/>
<stop offset="0.94" stop-color="#A48538"/>
<stop offset="1" stop-color="#825B2C"/>
</linearGradient>
<linearGradient id="paint12_linear_2048_37948" x1="110.681" y1="51.4417" x2="110.681" y2="39.8021" gradientUnits="userSpaceOnUse">
<stop stop-color="#825B2C"/>
<stop offset="0.13" stop-color="#A48538"/>
<stop offset="0.33" stop-color="#BAA252"/>
<stop offset="0.51" stop-color="#C9B764"/>
<stop offset="0.63" stop-color="#CFBE6B"/>
<stop offset="0.94" stop-color="#A48538"/>
<stop offset="1" stop-color="#825B2C"/>
</linearGradient>
<linearGradient id="paint13_linear_2048_37948" x1="120.716" y1="51.4034" x2="120.716" y2="40.0691" gradientUnits="userSpaceOnUse">
<stop stop-color="#825B2C"/>
<stop offset="0.13" stop-color="#A48538"/>
<stop offset="0.33" stop-color="#BAA252"/>
<stop offset="0.51" stop-color="#C9B764"/>
<stop offset="0.63" stop-color="#CFBE6B"/>
<stop offset="0.94" stop-color="#A48538"/>
<stop offset="1" stop-color="#825B2C"/>
</linearGradient>
<linearGradient id="paint14_linear_2048_37948" x1="127.49" y1="51.5478" x2="127.49" y2="49.8918" gradientUnits="userSpaceOnUse">
<stop stop-color="#825B2C"/>
<stop offset="0.13" stop-color="#A48538"/>
<stop offset="0.33" stop-color="#BAA252"/>
<stop offset="0.51" stop-color="#C9B764"/>
<stop offset="0.63" stop-color="#CFBE6B"/>
<stop offset="0.94" stop-color="#A48538"/>
<stop offset="1" stop-color="#825B2C"/>
</linearGradient>
<linearGradient id="paint15_linear_2048_37948" x1="133.009" y1="51.4431" x2="133.009" y2="39.818" gradientUnits="userSpaceOnUse">
<stop stop-color="#825B2C"/>
<stop offset="0.13" stop-color="#A48538"/>
<stop offset="0.33" stop-color="#BAA252"/>
<stop offset="0.51" stop-color="#C9B764"/>
<stop offset="0.63" stop-color="#CFBE6B"/>
<stop offset="0.94" stop-color="#A48538"/>
<stop offset="1" stop-color="#825B2C"/>
</linearGradient>
<linearGradient id="paint16_linear_2048_37948" x1="144.574" y1="51.6222" x2="144.574" y2="40.0056" gradientUnits="userSpaceOnUse">
<stop stop-color="#825B2C"/>
<stop offset="0.13" stop-color="#A48538"/>
<stop offset="0.33" stop-color="#BAA252"/>
<stop offset="0.51" stop-color="#C9B764"/>
<stop offset="0.63" stop-color="#CFBE6B"/>
<stop offset="0.94" stop-color="#A48538"/>
<stop offset="1" stop-color="#825B2C"/>
</linearGradient>
<linearGradient id="paint17_linear_2048_37948" x1="38.6114" y1="2.31574" x2="34.6442" y2="22.7235" gradientUnits="userSpaceOnUse">
<stop stop-color="#825B2C"/>
<stop offset="0.13" stop-color="#A48538"/>
<stop offset="0.33" stop-color="#BAA252"/>
<stop offset="0.51" stop-color="#C9B764"/>
<stop offset="0.63" stop-color="#CFBE6B"/>
<stop offset="0.94" stop-color="#A48538"/>
<stop offset="1" stop-color="#825B2C"/>
</linearGradient>
<linearGradient id="paint18_linear_2048_37948" x1="36.7249" y1="17.3201" x2="33.6707" y2="33.0335" gradientUnits="userSpaceOnUse">
<stop stop-color="#825B2C"/>
<stop offset="0.13" stop-color="#A48538"/>
<stop offset="0.33" stop-color="#BAA252"/>
<stop offset="0.51" stop-color="#C9B764"/>
<stop offset="0.63" stop-color="#CFBE6B"/>
<stop offset="0.94" stop-color="#A48538"/>
<stop offset="1" stop-color="#825B2C"/>
</linearGradient>
<linearGradient id="paint19_linear_2048_37948" x1="42.0522" y1="31.6003" x2="37.2498" y2="56.3079" gradientUnits="userSpaceOnUse">
<stop stop-color="#825B2C"/>
<stop offset="0.13" stop-color="#A48538"/>
<stop offset="0.33" stop-color="#BAA252"/>
<stop offset="0.51" stop-color="#C9B764"/>
<stop offset="0.63" stop-color="#CFBE6B"/>
<stop offset="0.94" stop-color="#A48538"/>
<stop offset="1" stop-color="#825B2C"/>
</linearGradient>
<linearGradient id="paint20_linear_2048_37948" x1="50.7393" y1="51.0674" x2="47.7239" y2="66.5763" gradientUnits="userSpaceOnUse">
<stop stop-color="#825B2C"/>
<stop offset="0.13" stop-color="#A48538"/>
<stop offset="0.33" stop-color="#BAA252"/>
<stop offset="0.51" stop-color="#C9B764"/>
<stop offset="0.63" stop-color="#CFBE6B"/>
<stop offset="0.94" stop-color="#A48538"/>
<stop offset="1" stop-color="#825B2C"/>
</linearGradient>
<linearGradient id="paint21_linear_2048_37948" x1="68.4924" y1="63.933" x2="66.2517" y2="75.4617" gradientUnits="userSpaceOnUse">
<stop stop-color="#825B2C"/>
<stop offset="0.13" stop-color="#A48538"/>
<stop offset="0.33" stop-color="#BAA252"/>
<stop offset="0.51" stop-color="#C9B764"/>
<stop offset="0.63" stop-color="#CFBE6B"/>
<stop offset="0.94" stop-color="#A48538"/>
<stop offset="1" stop-color="#825B2C"/>
</linearGradient>
<linearGradient id="paint22_linear_2048_37948" x1="71.7759" y1="68.9498" x2="68.3184" y2="86.7353" gradientUnits="userSpaceOnUse">
<stop stop-color="#825B2C"/>
<stop offset="0.13" stop-color="#A48538"/>
<stop offset="0.33" stop-color="#BAA252"/>
<stop offset="0.51" stop-color="#C9B764"/>
<stop offset="0.63" stop-color="#CFBE6B"/>
<stop offset="0.94" stop-color="#A48538"/>
<stop offset="1" stop-color="#825B2C"/>
</linearGradient>
<linearGradient id="paint23_linear_2048_37948" x1="96.6478" y1="79.9033" x2="94.6059" y2="90.4081" gradientUnits="userSpaceOnUse">
<stop stop-color="#825B2C"/>
<stop offset="0.13" stop-color="#A48538"/>
<stop offset="0.33" stop-color="#BAA252"/>
<stop offset="0.51" stop-color="#C9B764"/>
<stop offset="0.63" stop-color="#CFBE6B"/>
<stop offset="0.94" stop-color="#A48538"/>
<stop offset="1" stop-color="#825B2C"/>
</linearGradient>
<linearGradient id="paint24_linear_2048_37948" x1="100.115" y1="79.8386" x2="98.062" y2="90.4025" gradientUnits="userSpaceOnUse">
<stop stop-color="#825B2C"/>
<stop offset="0.13" stop-color="#A48538"/>
<stop offset="0.33" stop-color="#BAA252"/>
<stop offset="0.51" stop-color="#C9B764"/>
<stop offset="0.63" stop-color="#CFBE6B"/>
<stop offset="0.94" stop-color="#A48538"/>
<stop offset="1" stop-color="#825B2C"/>
</linearGradient>
<linearGradient id="paint25_linear_2048_37948" x1="167.105" y1="1.8751" x2="163.035" y2="22.8113" gradientUnits="userSpaceOnUse">
<stop stop-color="#825B2C"/>
<stop offset="0.13" stop-color="#A48538"/>
<stop offset="0.33" stop-color="#BAA252"/>
<stop offset="0.51" stop-color="#C9B764"/>
<stop offset="0.63" stop-color="#CFBE6B"/>
<stop offset="0.94" stop-color="#A48538"/>
<stop offset="1" stop-color="#825B2C"/>
</linearGradient>
<linearGradient id="paint26_linear_2048_37948" x1="167.941" y1="15.1728" x2="164.284" y2="33.9764" gradientUnits="userSpaceOnUse">
<stop stop-color="#825B2C"/>
<stop offset="0.13" stop-color="#A48538"/>
<stop offset="0.33" stop-color="#BAA252"/>
<stop offset="0.51" stop-color="#C9B764"/>
<stop offset="0.63" stop-color="#CFBE6B"/>
<stop offset="0.94" stop-color="#A48538"/>
<stop offset="1" stop-color="#825B2C"/>
</linearGradient>
<linearGradient id="paint27_linear_2048_37948" x1="164.946" y1="28.8192" x2="159.127" y2="58.7541" gradientUnits="userSpaceOnUse">
<stop stop-color="#825B2C"/>
<stop offset="0.13" stop-color="#A48538"/>
<stop offset="0.33" stop-color="#BAA252"/>
<stop offset="0.51" stop-color="#C9B764"/>
<stop offset="0.63" stop-color="#CFBE6B"/>
<stop offset="0.94" stop-color="#A48538"/>
<stop offset="1" stop-color="#825B2C"/>
</linearGradient>
<linearGradient id="paint28_linear_2048_37948" x1="154.406" y1="52.6773" x2="151.047" y2="69.9531" gradientUnits="userSpaceOnUse">
<stop stop-color="#825B2C"/>
<stop offset="0.13" stop-color="#A48538"/>
<stop offset="0.33" stop-color="#BAA252"/>
<stop offset="0.51" stop-color="#C9B764"/>
<stop offset="0.63" stop-color="#CFBE6B"/>
<stop offset="0.94" stop-color="#A48538"/>
<stop offset="1" stop-color="#825B2C"/>
</linearGradient>
<linearGradient id="paint29_linear_2048_37948" x1="133.791" y1="64.8313" x2="128.198" y2="93.6084" gradientUnits="userSpaceOnUse">
<stop stop-color="#825B2C"/>
<stop offset="0.13" stop-color="#A48538"/>
<stop offset="0.33" stop-color="#BAA252"/>
<stop offset="0.51" stop-color="#C9B764"/>
<stop offset="0.63" stop-color="#CFBE6B"/>
<stop offset="0.94" stop-color="#A48538"/>
<stop offset="1" stop-color="#825B2C"/>
</linearGradient>
<linearGradient id="paint30_linear_2048_37948" x1="135.802" y1="61.8027" x2="132.869" y2="76.8911" gradientUnits="userSpaceOnUse">
<stop stop-color="#825B2C"/>
<stop offset="0.13" stop-color="#A48538"/>
<stop offset="0.33" stop-color="#BAA252"/>
<stop offset="0.51" stop-color="#C9B764"/>
<stop offset="0.63" stop-color="#CFBE6B"/>
<stop offset="0.94" stop-color="#A48538"/>
<stop offset="1" stop-color="#825B2C"/>
</linearGradient>
<linearGradient id="paint31_linear_2048_37948" x1="107.17" y1="79.8229" x2="105.087" y2="90.5409" gradientUnits="userSpaceOnUse">
<stop stop-color="#825B2C"/>
<stop offset="0.13" stop-color="#A48538"/>
<stop offset="0.33" stop-color="#BAA252"/>
<stop offset="0.51" stop-color="#C9B764"/>
<stop offset="0.63" stop-color="#CFBE6B"/>
<stop offset="0.94" stop-color="#A48538"/>
<stop offset="1" stop-color="#825B2C"/>
</linearGradient>
<linearGradient id="paint32_linear_2048_37948" x1="103.777" y1="79.9034" x2="101.74" y2="90.3881" gradientUnits="userSpaceOnUse">
<stop stop-color="#825B2C"/>
<stop offset="0.13" stop-color="#A48538"/>
<stop offset="0.33" stop-color="#BAA252"/>
<stop offset="0.51" stop-color="#C9B764"/>
<stop offset="0.63" stop-color="#CFBE6B"/>
<stop offset="0.94" stop-color="#A48538"/>
<stop offset="1" stop-color="#825B2C"/>
</linearGradient>
</defs>
</svg>
