<svg width="201" height="91" viewBox="0 0 201 91" fill="none" xmlns="http://www.w3.org/2000/svg">
<path d="M148.069 90.2244L143.767 51.6917L132.997 52.9358L131.255 37.473L142.026 36.2288L140.995 27.1289C140.462 22.5078 141.137 18.9531 142.914 16.4648C144.727 13.9765 147.713 12.4836 151.872 12.0215L168.757 10.0664L170.214 22.9699L162.358 23.8586C160.617 24.0718 159.443 24.4628 158.839 25.0671C158.235 25.6714 157.986 26.6668 158.164 28.0175L158.875 34.2738L171.138 32.8519L172.88 48.3503L160.617 49.7722L164.918 88.3049L148.069 90.2244Z" fill="#B50000"/>
<path d="M104.061 81.4437L106.087 42.6266L95.21 42.0579L96.0275 26.4884L106.905 27.0571L107.367 17.8861C107.616 13.2294 108.824 9.85248 111.028 7.68413C113.232 5.51578 116.431 4.55602 120.626 4.76929L137.688 5.69351L136.977 18.7036L129.05 18.2771C127.273 18.1704 126.065 18.3837 125.354 18.8814C124.643 19.379 124.252 20.3388 124.181 21.6896L123.861 27.9813L136.231 28.6567L135.413 44.2262L123.043 43.5508L121.017 82.3679L104.061 81.4437Z" fill="#B50000"/>
<path d="M87.532 66.5498C87.4253 69.0381 86.5367 71.2064 84.8304 73.0549C83.1242 74.8677 80.8492 76.0763 78.0765 76.6451C73.9886 77.4626 70.7894 76.8584 68.5144 74.7967C66.2394 72.7349 64.5332 68.7892 63.3957 62.9596C62.2582 57.0588 62.0449 52.9709 62.827 50.7315C63.609 48.4565 66.2039 45.4706 70.6117 41.7381C71.3582 41.0983 72.4246 40.2096 73.7754 39.0721C78.6808 35.0198 80.8492 31.4651 80.2804 28.4792C79.9961 26.9507 79.4629 25.8843 78.7875 25.2089C78.0765 24.569 77.1879 24.3558 76.0504 24.5691C74.9484 24.7823 74.2019 25.3511 73.8109 26.2753C73.4199 27.1995 73.3844 28.4792 73.7043 30.0788L74.984 36.5839L58.8813 39.8186L57.4239 32.3183C56.4996 27.6616 57.5305 23.7159 60.4809 20.4812C63.4313 17.2109 68.0168 14.9714 74.2375 13.7273C80.6359 12.4476 85.6835 12.8386 89.3448 14.9714C93.0062 17.1042 95.3878 21.0144 96.5253 26.7018L103.919 64.5236C104.026 65.1635 104.239 65.8744 104.488 66.7275C104.737 67.5451 105.057 68.6115 105.483 69.8556L89.6292 73.0548L87.8519 66.5498L87.532 66.5498ZM85.6124 56.2412L83.1597 43.6577C82.6265 44.262 81.9511 45.0796 81.1335 46.0749C78.7519 48.9186 77.7566 51.2291 78.1121 52.9709L79.0007 57.5565C79.3562 59.3338 79.8539 60.5424 80.4937 61.1822C81.1335 61.8221 82.0578 61.9998 83.2308 61.751C84.4038 61.5021 85.1859 60.9689 85.5769 60.1158C85.9324 59.2983 85.9324 58.0186 85.6124 56.2412Z" fill="#B50000"/>
<path d="M64.6755 85.4607L28.8799 77.5338L45.1248 2.10352L62.6138 5.97811L50.0302 64.3815L68.3723 68.4338L64.6755 85.4607Z" fill="#B50000"/>
</svg>
