<svg width="201" height="91" viewBox="0 0 201 91" fill="none" xmlns="http://www.w3.org/2000/svg">
<path d="M73.0067 70.4881C73.0067 70.9015 72.9707 71.3329 72.8629 71.7283C72.4135 73.4179 70.8677 74.6042 69.1063 74.6402C68.9984 74.6402 68.8726 74.6402 68.7647 74.6402H33.1398C32.7623 74.6402 32.3849 74.6222 32.0254 74.5503C30.228 74.1728 28.9338 72.5911 28.8799 70.7757C28.8799 70.6319 28.8799 70.4881 28.8799 70.3443V23.108C28.8799 22.6586 28.8979 22.1733 29.0057 21.7419C29.3113 20.4837 30.1201 19.6569 31.3424 19.2076C32.4208 18.8301 33.6071 18.8661 34.6316 19.3334C36.0336 19.9625 36.7167 21.0949 36.8065 22.6406C36.8065 22.7844 36.8065 22.9282 36.8065 23.072V66.6057H64.9902V23.09C64.9902 22.4609 65.098 21.8498 65.3496 21.2746C66.0147 19.7468 67.201 18.92 68.8366 18.7942C69.6814 18.7223 70.4543 19.0098 71.1373 19.4952C71.6946 19.8726 72.1259 20.3579 72.5393 20.8971L108.811 68.4031C109.207 68.9244 109.494 69.4636 109.566 70.1107C109.62 70.6139 109.566 71.0992 109.423 71.5666C108.937 73.1303 107.985 74.2088 106.349 74.5683C105.504 74.748 104.695 74.6042 103.922 74.2267C103.185 73.8493 102.592 73.2921 102.089 72.627L72.9707 34.5216C73.0067 34.4857 73.0067 58.697 73.0067 70.4881Z" fill="black"/>
<path d="M135.863 26.7564H122.005V70.5057C122.005 70.8292 122.005 71.1348 121.933 71.4583C121.627 73.058 120.441 74.1904 118.823 74.442C118.212 74.5319 117.601 74.5319 116.99 74.3881C115.211 73.9567 114.132 72.6266 114.078 70.7933C114.078 70.6315 114.078 70.4697 114.078 70.3259V26.7384L99.591 26.7204C99.2854 26.7204 98.9798 26.7204 98.6923 26.6665C97.0925 26.3789 95.9602 25.1926 95.6726 23.5749C95.5647 22.9638 95.5647 22.3706 95.7085 21.7775C96.1219 19.9441 97.47 18.8297 99.3573 18.7758C99.4472 18.7758 99.537 18.7758 99.6089 18.7758C99.8965 18.7758 140.177 18.7578 137.031 18.7578C136.654 18.7578 138.649 18.7938 139.008 18.8836C139.745 19.0454 140.393 19.4588 140.896 20.034C141.129 20.3036 141.345 20.5912 141.543 20.8968L164.927 57.0969L164.945 22.8919C164.945 22.2448 165.035 21.6337 165.305 21.0405C165.808 19.9801 166.671 19.351 167.785 19.0634C168.954 18.7758 170.068 18.8836 171.111 19.4948C172.189 20.1239 172.746 21.1124 172.872 22.3527C172.89 22.5684 172.872 70.4158 172.872 70.4158C172.872 70.7393 172.872 71.0809 172.818 71.4044C172.477 73.3456 170.877 74.4241 169.241 74.5139C167.57 74.6038 166.293 73.9208 165.395 72.5188L136.133 27.1518C136.043 27.026 135.953 26.8822 135.863 26.7564Z" fill="black"/>
</svg>
