<svg width="201" height="91" viewBox="0 0 201 91" fill="none" xmlns="http://www.w3.org/2000/svg">
<path d="M90.5728 37.4323V47.4747C90.5728 48.7404 89.5368 49.7764 88.2711 49.7764H29.7793C28.5135 49.7764 27.4775 48.7404 27.4775 47.4747V37.2571C29.8163 35.6817 32.5133 34.1277 34.5931 33.4247C39.6853 31.8493 45.0891 31.972 50.2982 32.8853C52.339 33.2904 59.1625 35.0527 57.0652 38.1217C57.0107 38.1859 56.962 38.2521 56.9211 38.3203C56.7108 38.665 57.1664 39.3894 57.5695 39.3894C57.8052 39.3894 58.0135 39.2764 58.1479 39.1012H58.1498C61.7446 34.3516 69.6079 31.5008 76.3612 31.6702C78.6785 31.7286 80.8673 32.2115 82.7056 33.0002C85.1476 34.0128 87.8777 35.5492 90.5709 37.4323H90.5728ZM34.1393 32.1005C41.3269 29.9565 53.4432 29.5651 58.9853 35.3935C64.4475 31.2807 70.2272 29.5671 75.4109 29.5846C80.7466 29.6041 85.5331 31.4852 90.5728 35.0975V21.2695C90.5728 20.0038 89.5368 18.9678 88.2711 18.9678H29.7793C28.5135 18.9678 27.4775 20.0038 27.4775 21.2695V35.485C28.9458 34.4101 30.8445 33.3332 34.1374 32.0986L34.1393 32.1005ZM96.8432 19.2832L91.9184 46.279C91.5874 48.0998 92.9836 49.7745 94.8336 49.7745L105.129 49.7822C105.324 49.7822 105.489 49.6381 105.515 49.4434L106.383 44.8205C106.445 44.3473 106.072 43.9305 105.594 43.9403L101.97 44.0143C101.721 44.0201 101.53 43.7923 101.581 43.5469L106.445 19.5773C106.543 19.0944 106.175 18.6426 105.682 18.6426H97.6065C97.2307 18.6426 96.9074 18.9113 96.8393 19.2813L96.8432 19.2832ZM133.309 19.589L132.189 24.7435C132.111 25.1019 131.794 25.357 131.428 25.357H120.624L119.419 31.2924H130.103C130.6 31.2924 130.97 31.752 130.865 32.2369L129.745 37.3914C129.667 37.7497 129.35 38.0048 128.984 38.0048H118.057L115.828 48.9877C115.754 49.3499 115.434 49.6109 115.064 49.6109H107.127C106.884 49.6109 106.701 49.3908 106.743 49.1513L111.627 22.3795C111.997 20.3543 113.67 18.849 115.685 18.6621C115.74 18.6504 115.798 18.6426 115.857 18.6426H132.549C133.046 18.6426 133.416 19.1021 133.311 19.587L133.309 19.589ZM159.029 19.589L157.909 24.7435C157.831 25.1019 157.514 25.357 157.148 25.357H149.431L144.634 48.9897C144.56 49.3519 144.241 49.6128 143.871 49.6128H136.401C135.914 49.6128 135.548 49.1727 135.634 48.6937L139.891 25.357H134.775C134.279 25.357 133.909 24.8974 134.014 24.4125L135.133 19.2579C135.211 18.8996 135.529 18.6445 135.895 18.6445H158.268C158.764 18.6445 159.134 19.1041 159.029 19.589ZM172.277 30.5699L164.343 44.4115C161.866 50.125 158.963 49.6128 158.963 49.6128H154.061C151.51 49.6245 151.51 45.465 151.51 45.465L150.206 33.5902C150.138 32.9145 150.657 32.3225 151.337 32.305L158.065 32.3615C158.714 32.344 159.251 32.8561 159.265 33.5046L159.409 41.6288L166.226 29.7949C166.365 29.5534 166.624 29.4054 166.902 29.4054H171.603C172.201 29.4054 172.577 30.052 172.279 30.5719L172.277 30.5699Z" fill="#B3923B"/>
<path d="M28.3379 63.6195C28.7293 63.6039 29.0078 63.5494 29.1772 63.452C29.4615 63.2904 29.6037 62.9808 29.6037 62.5232V54.9773C29.6037 54.5236 29.4693 54.2198 29.1986 54.064C29.0409 53.9686 28.7546 53.9082 28.3398 53.8829V53.4876H33.3425V53.8829C32.7603 53.9024 32.3727 53.9919 32.18 54.1477C31.9872 54.3035 31.8898 54.6891 31.8898 55.3044V62.6673C31.8898 63.0119 31.9716 63.2417 32.1371 63.3527C32.3026 63.4637 32.6259 63.5202 33.1049 63.5202C33.9676 63.5202 34.6901 63.3138 35.2743 62.9009C35.8585 62.4881 36.3628 61.6819 36.7873 60.4863H37.206L36.6257 64.0148H28.3379V63.6195ZM38.0687 63.6429C38.3199 63.5981 38.4932 63.528 38.5867 63.4384C38.7269 63.3021 38.797 63.0548 38.797 62.7004V58.1203C38.797 57.8029 38.7483 57.5867 38.6509 57.4718C38.5536 57.3569 38.3588 57.2712 38.0706 57.2148V56.8428H40.8163V62.7607C40.8163 63.1015 40.8631 63.3196 40.9566 63.415C41.05 63.5124 41.2253 63.5883 41.4804 63.6429V64.0148H38.0706V63.6429H38.0687ZM39.0229 53.6064C39.239 53.3707 39.5019 53.252 39.8096 53.252C40.1173 53.252 40.3724 53.3707 40.5885 53.6064C40.8047 53.842 40.9137 54.1282 40.9137 54.4612C40.9137 54.7942 40.8047 55.0805 40.5885 55.3161C40.3724 55.5517 40.1114 55.6705 39.8096 55.6705C39.5077 55.6705 39.241 55.5517 39.0229 55.3161C38.8048 55.0805 38.6977 54.7942 38.6977 54.4612C38.6977 54.1282 38.8067 53.842 39.0229 53.6064ZM45.8385 56.8428V57.2148C45.5853 57.2245 45.3945 57.2557 45.266 57.3063C45.1375 57.3569 45.0732 57.466 45.0732 57.6334C45.0732 57.6743 45.0907 57.7483 45.1258 57.8574C45.1608 57.9664 45.1881 58.0463 45.2056 58.0969L46.3175 61.0899H46.3643L47.3594 58.424C47.4061 58.2975 47.445 58.167 47.4743 58.0365C47.5035 57.9061 47.519 57.8009 47.519 57.725C47.519 57.5069 47.4509 57.3686 47.3165 57.3102C47.1822 57.2518 46.9855 57.2206 46.7304 57.2148V56.8428H48.8938V57.2148C48.703 57.2303 48.5472 57.2965 48.4265 57.4173C48.3058 57.5361 48.187 57.7503 48.0701 58.0599L45.7645 64.2349H45.4003L43.6809 59.6119C43.5601 59.2867 43.4413 58.9829 43.3284 58.6986C43.2135 58.4143 43.0947 58.1378 42.9681 57.8691C42.8377 57.5945 42.7345 57.4231 42.6605 57.3511C42.5865 57.279 42.4502 57.2342 42.2554 57.2148V56.8428H45.8346H45.8385ZM49.628 63.6429C49.8792 63.5981 50.0525 63.528 50.146 63.4384C50.2862 63.3021 50.3563 63.0548 50.3563 62.7004V58.1203C50.3563 57.8029 50.3076 57.5867 50.2102 57.4718C50.1129 57.3569 49.9181 57.2712 49.6299 57.2148V56.8428H52.3757V62.7607C52.3757 63.1015 52.4224 63.3196 52.5159 63.415C52.6093 63.5124 52.7846 63.5883 53.0397 63.6429V64.0148H49.6299V63.6429H49.628ZM50.5822 53.6064C50.7983 53.3707 51.0612 53.252 51.3689 53.252C51.6766 53.252 51.9317 53.3707 52.1478 53.6064C52.364 53.842 52.473 54.1282 52.473 54.4612C52.473 54.7942 52.364 55.0805 52.1478 55.3161C51.9317 55.5517 51.6707 55.6705 51.3689 55.6705C51.0671 55.6705 50.8003 55.5517 50.5822 55.3161C50.3641 55.0805 50.257 54.7942 50.257 54.4612C50.257 54.1282 50.366 53.842 50.5822 53.6064ZM53.6181 63.6429C53.879 63.6078 54.0718 63.5299 54.1945 63.4111C54.3171 63.2924 54.3795 63.0548 54.3795 62.7004V58.1203C54.3795 57.8029 54.3288 57.5828 54.2295 57.4601C54.1302 57.3374 53.9257 57.2557 53.6181 57.2148V56.8428H56.3287V57.9606C56.5566 57.5847 56.8467 57.2751 57.1992 57.0278C57.5517 56.7824 57.9411 56.6598 58.3695 56.6598C58.9849 56.6598 59.46 56.8331 59.7989 57.1778C60.1358 57.5224 60.3052 58.1281 60.3052 58.9966V62.7627C60.3052 63.1132 60.3597 63.3391 60.4687 63.4404C60.5778 63.5416 60.7608 63.6098 61.0179 63.6448V64.0168H57.6568V63.6448C57.9119 63.5884 58.0872 63.5124 58.1806 63.417C58.2741 63.3216 58.3208 63.1035 58.3208 62.7627V58.9888C58.3208 58.6344 58.2877 58.3676 58.2235 58.1904C58.1125 57.871 57.8905 57.7113 57.5594 57.7113C57.3121 57.7113 57.0862 57.8087 56.8779 58.0034C56.6715 58.1982 56.5118 58.3948 56.3988 58.5935V62.7627C56.3988 63.1035 56.4456 63.3216 56.539 63.417C56.6325 63.5144 56.8078 63.5903 57.0629 63.6448V64.0168H53.6181V63.6448V63.6429ZM61.9584 65.1306C62.1279 64.895 62.4239 64.7412 62.8425 64.6711V64.564C62.5621 64.4471 62.3596 64.3283 62.235 64.2057C62.011 63.9876 61.9 63.6955 61.9 63.3313C61.9 62.8951 62.0753 62.5232 62.4278 62.2135C62.7802 61.9039 63.123 61.6878 63.4579 61.567V61.4599C62.973 61.2477 62.5816 60.9419 62.2837 60.5466C61.9857 60.1513 61.8358 59.6723 61.8358 59.1095C61.8358 58.3987 62.0967 57.8145 62.6186 57.353C63.1405 56.8915 63.8454 56.6617 64.7353 56.6617C65.0703 56.6617 65.378 56.6968 65.6584 56.7688C65.9388 56.8409 66.1549 56.9129 66.3088 56.9889H68.1957V57.8184H67.0351C67.2221 58.0171 67.3642 58.2468 67.4655 58.5097C67.5648 58.7726 67.6154 59.0608 67.6154 59.3685C67.6154 60.3422 67.189 61.0081 66.336 61.3684C65.8882 61.5612 65.3312 61.6566 64.6652 61.6566C64.5211 61.6566 64.4257 61.6547 64.3829 61.6488C64.3381 61.643 64.2719 61.641 64.1842 61.641C64.044 61.6663 63.898 61.7481 63.7441 61.8844C63.5864 62.0266 63.5066 62.196 63.5066 62.3946C63.5066 62.5524 63.5455 62.6731 63.6254 62.7607C63.7052 62.8464 63.8142 62.9009 63.9545 62.9204C64.0246 62.9302 64.1726 62.9399 64.4023 62.9477C64.6302 62.9555 64.8074 62.9594 64.934 62.9594L65.8628 62.9749C66.3886 62.9847 66.8326 63.0684 67.1909 63.2261C67.8764 63.5299 68.2172 64.0752 68.2172 64.8619C68.2172 65.8765 67.705 66.5736 66.6807 66.9533C66.1394 67.152 65.4597 67.2493 64.6399 67.2493C63.97 67.2493 63.3917 67.1773 62.9068 67.0371C62.1064 66.7995 61.7053 66.3925 61.7053 65.82C61.7053 65.596 61.791 65.3682 61.9604 65.1306H61.9584ZM63.4326 66.4723C63.7461 66.6554 64.2018 66.7469 64.7976 66.7469C65.3293 66.7469 65.7674 66.7002 66.1121 66.6087C66.7586 66.4353 67.0838 66.1179 67.0838 65.6545C67.0838 65.3838 66.9923 65.1832 66.8073 65.0469C66.6223 64.9125 66.2893 64.8444 65.8044 64.8444H63.4559C63.306 64.9768 63.1989 65.0878 63.1346 65.1813C63.0178 65.3487 62.9594 65.5279 62.9594 65.7148C62.9594 66.0361 63.1171 66.2873 63.4306 66.4704L63.4326 66.4723ZM63.933 60.5018C64.0732 60.9575 64.34 61.1873 64.7373 61.1873C65.0956 61.1873 65.3429 61.0159 65.4773 60.6732C65.6116 60.3305 65.6798 59.83 65.6798 59.1718C65.6798 58.4727 65.6097 57.9625 65.4675 57.6432C65.3254 57.3238 65.082 57.1641 64.7373 57.1641C64.3595 57.1641 64.1083 57.3355 63.9817 57.6782C63.8551 58.021 63.7928 58.5195 63.7928 59.1738C63.7928 59.7716 63.8396 60.2156 63.933 60.5057V60.5018ZM72.7135 63.6215C73.1225 63.6059 73.4146 63.5455 73.5879 63.4384C73.8527 63.2768 73.9851 62.971 73.9851 62.5251V54.987C73.9851 54.5352 73.8547 54.2315 73.5937 54.0737C73.436 53.9783 73.1419 53.914 72.7135 53.8829V53.4876H80.8261V56.6286H80.4775C80.3003 55.6608 80.0024 54.9812 79.5837 54.5937C79.165 54.2061 78.3919 54.0114 77.2644 54.0114C76.8457 54.0114 76.579 54.064 76.4641 54.1672C76.3492 54.2704 76.2927 54.4651 76.2927 54.7494V58.3559C77.0658 58.3715 77.5896 58.1943 77.8623 57.8243C78.1349 57.4543 78.3413 56.8642 78.4815 56.0522H78.8456V61.3158H78.4815C78.3841 60.4746 78.1875 59.8612 77.8915 59.4756C77.5955 59.09 77.0638 58.8972 76.2947 58.8972V62.5251C76.2947 63.0061 76.4232 63.3118 76.6822 63.4423C76.9412 63.5728 77.3345 63.6312 77.8661 63.6215V64.0168H72.7174V63.6215H72.7135ZM82.8104 60.8933C83.4297 60.4824 84.4014 60.0676 85.7236 59.6509V58.5175C85.7236 58.056 85.634 57.7152 85.4549 57.4952C85.2757 57.2751 84.9583 57.1641 84.5007 57.1641C84.2436 57.1641 84.0333 57.2167 83.8678 57.3199C83.7023 57.4231 83.6205 57.5555 83.6205 57.7113C83.6205 57.7717 83.6302 57.8223 83.6478 57.8632C83.6672 57.9041 83.6945 57.947 83.7315 57.9917L83.8152 58.0988C83.8795 58.1845 83.9321 58.2799 83.973 58.3832C84.0119 58.4864 84.0333 58.5974 84.0333 58.7142C84.0333 59.0082 83.9437 59.2361 83.7646 59.3958C83.5854 59.5554 83.3771 59.6353 83.1395 59.6353C82.8649 59.6353 82.6312 59.5477 82.4365 59.3704C82.2437 59.1932 82.1464 58.9381 82.1464 58.6032C82.1464 58.0054 82.4054 57.5341 82.9214 57.1836C83.4374 56.8331 84.0742 56.6598 84.8298 56.6598C85.6399 56.6598 86.3175 56.8292 86.8628 57.17C87.4022 57.5146 87.6729 58.1495 87.6729 59.0725V62.8464C87.6729 62.9574 87.7001 63.0528 87.7527 63.1307C87.8053 63.2086 87.8657 63.2495 87.9319 63.2495C87.9883 63.2495 88.037 63.2378 88.0818 63.2145C88.1266 63.1911 88.1948 63.1288 88.2882 63.0275L88.5044 63.3547C88.224 63.7091 87.9143 63.9583 87.5755 64.1005C87.3613 64.192 87.1354 64.2368 86.8978 64.2368C86.4733 64.2368 86.1637 64.1024 85.969 63.8337C85.858 63.6818 85.7762 63.4559 85.7236 63.156C85.3283 63.5883 84.8804 63.8921 84.3819 64.0713C84.0781 64.1823 83.7802 64.2388 83.4881 64.2388C83.0967 64.2388 82.7306 64.1024 82.3917 63.8318C82.0509 63.5591 81.8815 63.1366 81.8815 62.5641C81.8815 61.863 82.1912 61.3061 82.8104 60.8952V60.8933ZM85.3049 62.899C85.4159 62.8075 85.5503 62.6653 85.7041 62.4725V60.1922C85.3224 60.2935 84.9875 60.4532 84.6974 60.6732C84.2086 61.0451 83.9632 61.5164 83.9632 62.0928C83.9632 62.4336 84.0333 62.6906 84.1755 62.8678C84.3176 63.0431 84.4773 63.1307 84.6545 63.1307C84.8882 63.1307 85.1044 63.0548 85.3049 62.9029V62.899ZM89.2249 63.6448C89.4761 63.6 89.6494 63.5299 89.7429 63.4404C89.8831 63.304 89.9532 63.0567 89.9532 62.7023V58.1222C89.9532 57.8048 89.9045 57.5886 89.8071 57.4738C89.7098 57.3589 89.515 57.2732 89.2268 57.2167V56.8448H91.9726V62.7627C91.9726 63.1035 92.0193 63.3216 92.1128 63.417C92.2062 63.5144 92.3815 63.5903 92.6366 63.6448V64.0168H89.2268V63.6448H89.2249ZM90.1791 53.6083C90.3952 53.3727 90.6581 53.2539 90.9658 53.2539C91.2735 53.2539 91.5286 53.3727 91.7447 53.6083C91.9609 53.8439 92.0699 54.1302 92.0699 54.4632C92.0699 54.7962 91.9609 55.0824 91.7447 55.3181C91.5286 55.5537 91.2676 55.6725 90.9658 55.6725C90.664 55.6725 90.3972 55.5537 90.1791 55.3181C89.961 55.0824 89.8539 54.7962 89.8539 54.4632C89.8539 54.1302 89.9629 53.8439 90.1791 53.6083ZM92.9832 57.5302V57.096C93.1098 56.9694 93.2656 56.8195 93.4506 56.6481C93.6979 56.3988 93.9296 56.1437 94.1497 55.8789C94.582 55.3609 94.9773 54.8059 95.3297 54.2139H95.6939V56.8467H97.057V57.5322H95.6939V62.2174C95.6939 62.4355 95.7251 62.6186 95.7854 62.7646C95.8789 62.9925 96.0327 63.1074 96.2469 63.1074C96.4339 63.1074 96.5897 63.0353 96.7143 62.8912C96.8409 62.7471 96.9655 62.5485 97.0921 62.2934L97.4348 62.4764C97.2673 62.9029 97.0668 63.2495 96.835 63.5182C96.4261 63.9895 95.9256 64.2251 95.3336 64.2251C94.9987 64.2251 94.7047 64.157 94.4535 64.0207C93.9686 63.7578 93.7271 63.2787 93.7232 62.5835V57.5322H92.9832V57.5302ZM97.4348 63.6468C97.6957 63.6117 97.8885 63.5338 98.0112 63.415C98.1339 63.2963 98.1962 63.0587 98.1962 62.7043V54.7709C98.1962 54.4593 98.1456 54.2412 98.0424 54.1146C97.9392 53.99 97.7366 53.9063 97.4348 53.8654V53.4934H100.202V57.8749C100.496 57.4893 100.804 57.1914 101.127 56.9811C101.45 56.7708 101.814 56.6656 102.221 56.6656C102.77 56.6656 103.226 56.8389 103.584 57.1875C103.943 57.5341 104.122 58.1261 104.122 58.9635V62.7062C104.122 63.0567 104.176 63.2865 104.285 63.3956C104.395 63.5046 104.578 63.5903 104.835 63.6507V64.0226H101.474V63.6507C101.731 63.5942 101.904 63.5183 101.997 63.4228C102.091 63.3274 102.138 63.1093 102.138 62.7685V58.9946C102.138 58.6402 102.104 58.3734 102.04 58.1962C101.929 57.8768 101.707 57.7172 101.376 57.7172C101.129 57.7172 100.874 57.8418 100.611 58.0891C100.348 58.3384 100.216 58.5078 100.216 58.5993V62.7685C100.216 63.1093 100.262 63.3274 100.356 63.4228C100.449 63.5202 100.625 63.5961 100.88 63.6507V64.0226H97.4348V63.6507V63.6468ZM109.738 53.4915H118.353L118.367 56.6325H117.954C117.819 55.5089 117.432 54.7475 116.793 54.3522C116.435 54.1341 115.899 54.0134 115.187 53.9939V62.1999C115.187 62.7744 115.278 63.1541 115.463 63.341C115.646 63.528 116.03 63.6234 116.612 63.6234V64.0187H111.512V63.6234C112.071 63.6234 112.443 63.528 112.626 63.3371C112.809 63.1463 112.902 62.7666 112.902 62.1999V53.9939C112.203 54.0153 111.668 54.1341 111.296 54.3522C110.61 54.7592 110.225 55.5186 110.135 56.6325H109.722L109.736 53.4915H109.738ZM120.285 57.6568C120.871 56.9947 121.576 56.6637 122.401 56.6637C122.873 56.6637 123.315 56.798 123.731 57.0668C124.146 57.3355 124.466 57.7074 124.69 58.1845C124.857 58.5448 124.974 59.0121 125.04 59.5847C125.073 59.8534 125.089 60.0598 125.089 60.2H121.434C121.467 60.8231 121.56 61.3645 121.714 61.8202C121.994 62.677 122.487 63.1054 123.192 63.1054C123.529 63.1054 123.846 62.9905 124.144 62.7627C124.325 62.6264 124.553 62.3946 124.824 62.0714L125.153 62.2914C124.709 63.0821 124.197 63.6331 123.615 63.9428C123.237 64.1414 122.803 64.2388 122.314 64.2388C121.609 64.2388 120.951 63.9369 120.333 63.3333C119.718 62.7296 119.41 61.7657 119.41 60.4434C119.41 59.2458 119.702 58.3169 120.289 57.6549L120.285 57.6568ZM123.326 59.6236C123.317 58.7064 123.252 58.0638 123.13 57.6996C123.009 57.3335 122.766 57.1524 122.4 57.1524C122.033 57.1524 121.771 57.3628 121.632 57.7834C121.494 58.204 121.416 58.8174 121.397 59.6236H123.324H123.326ZM125.975 63.6468C126.226 63.5806 126.405 63.4929 126.508 63.3839C126.614 63.2748 126.666 63.0489 126.666 62.7023V54.7689C126.666 54.4359 126.617 54.2178 126.52 54.1166C126.423 54.0134 126.242 53.9296 125.975 53.8634V53.4915H128.685V62.7023C128.685 63.047 128.736 63.2729 128.839 63.38C128.943 63.4871 129.124 63.5747 129.385 63.6468V64.0187H125.975V63.6468ZM131.024 57.6568C131.61 56.9947 132.315 56.6637 133.141 56.6637C133.612 56.6637 134.054 56.798 134.471 57.0668C134.886 57.3355 135.205 57.7074 135.429 58.1845C135.597 58.5448 135.713 59.0121 135.78 59.5847C135.813 59.8534 135.828 60.0598 135.828 60.2H132.173C132.206 60.8231 132.3 61.3645 132.454 61.8202C132.734 62.677 133.227 63.1054 133.932 63.1054C134.268 63.1054 134.586 62.9905 134.884 62.7627C135.065 62.6264 135.293 62.3946 135.563 62.0714L135.893 62.2914C135.449 63.0821 134.936 63.6331 134.354 63.9428C133.976 64.1414 133.542 64.2388 133.053 64.2388C132.348 64.2388 131.69 63.9369 131.073 63.3333C130.458 62.7296 130.15 61.7657 130.15 60.4434C130.15 59.2458 130.442 58.3169 131.028 57.6549L131.024 57.6568ZM134.066 59.6236C134.056 58.7064 133.992 58.0638 133.869 57.6996C133.749 57.3335 133.505 57.1524 133.139 57.1524C132.773 57.1524 132.51 57.3628 132.372 57.7834C132.233 58.204 132.156 58.8174 132.136 59.6236H134.064H134.066ZM139.709 56.8467V57.2187C139.456 57.2284 139.265 57.2595 139.137 57.3102C139.008 57.3608 138.944 57.4699 138.944 57.6373C138.944 57.6782 138.961 57.7522 138.997 57.8613C139.032 57.9703 139.059 58.0502 139.076 58.1008L140.188 61.0938H140.235L141.23 58.4279C141.277 58.3014 141.316 58.1709 141.345 58.0404C141.374 57.91 141.39 57.8048 141.39 57.7289C141.39 57.5108 141.322 57.3725 141.187 57.3141C141.053 57.2556 140.856 57.2245 140.601 57.2187V56.8467H142.765V57.2187C142.574 57.2342 142.418 57.3004 142.297 57.4212C142.177 57.54 142.058 57.7542 141.941 58.0638L139.635 64.2388H139.271L137.552 59.6158C137.431 59.2906 137.312 58.9868 137.199 58.7025C137.084 58.4182 136.965 58.1417 136.839 57.873C136.708 57.5984 136.605 57.427 136.531 57.355C136.457 57.2829 136.321 57.2381 136.126 57.2187V56.8467H139.705H139.709ZM143.499 63.6468C143.75 63.602 143.923 63.5319 144.015 63.4423C144.155 63.306 144.225 63.0587 144.225 62.7043V58.1242C144.225 57.8067 144.176 57.5906 144.079 57.4757C143.982 57.3608 143.787 57.2751 143.499 57.2187V56.8467H146.244V62.7646C146.244 63.1054 146.291 63.3235 146.385 63.4189C146.478 63.5163 146.653 63.5922 146.909 63.6468V64.0187H143.499V63.6468ZM144.453 53.6103C144.669 53.3746 144.932 53.2558 145.24 53.2558C145.547 53.2558 145.802 53.3746 146.019 53.6103C146.235 53.8459 146.344 54.1321 146.344 54.4651C146.344 54.7981 146.235 55.0844 146.019 55.32C145.802 55.5556 145.542 55.6744 145.24 55.6744C144.938 55.6744 144.671 55.5556 144.453 55.32C144.235 55.0844 144.128 54.7981 144.128 54.4651C144.128 54.1321 144.237 53.8459 144.453 53.6103ZM147.822 61.6624H148.219C148.359 62.4083 148.62 62.934 149.002 63.2417C149.384 63.5494 149.775 63.7013 150.176 63.7013C150.544 63.7013 150.815 63.6117 150.986 63.4306C151.158 63.2515 151.245 63.0139 151.245 62.7198C151.245 62.4414 151.152 62.2019 150.965 62.0052C150.862 61.8981 150.696 61.7851 150.468 61.6624L149.407 61.0997C148.848 60.7998 148.447 60.4765 148.205 60.126C147.958 59.7755 147.835 59.3627 147.835 58.8856C147.835 58.2819 148.028 57.762 148.416 57.3219C148.803 56.8837 149.343 56.6637 150.036 56.6637C150.338 56.6637 150.661 56.7182 151 56.8272C151.341 56.9363 151.551 56.9908 151.635 56.9908C151.752 56.9908 151.833 56.9636 151.882 56.911C151.931 56.8584 151.972 56.7824 152.005 56.687H152.318V58.9381H151.954C151.82 58.4104 151.598 57.9878 151.29 57.6685C150.982 57.3491 150.624 57.1894 150.213 57.1894C149.896 57.1894 149.66 57.2868 149.504 57.4776C149.349 57.6704 149.271 57.8788 149.271 58.1008C149.271 58.2838 149.341 58.4669 149.481 58.648C149.615 58.8349 149.872 59.0277 150.25 59.2263L151.033 59.6372C151.518 59.8904 151.872 60.1377 152.094 60.3753C152.466 60.7803 152.653 61.2808 152.653 61.8747C152.653 62.4686 152.46 62.9925 152.077 63.491C151.693 63.9914 151.117 64.2407 150.348 64.2407C150.157 64.2407 149.964 64.2193 149.771 64.1764C149.578 64.1336 149.339 64.0577 149.054 63.9525L148.809 63.861C148.721 63.8259 148.665 63.8045 148.646 63.8006C148.624 63.7948 148.597 63.7928 148.566 63.7928C148.486 63.7928 148.418 63.8279 148.359 63.896C148.301 63.9642 148.235 64.0791 148.161 64.2427H147.818V61.6644L147.822 61.6624ZM153.317 63.6487C153.568 63.6039 153.742 63.5338 153.833 63.4442C153.973 63.3079 154.044 63.0606 154.044 62.7062V58.1261C154.044 57.8087 153.995 57.5925 153.897 57.4776C153.8 57.3628 153.605 57.2771 153.317 57.2206V56.8487H156.063V62.7666C156.063 63.1074 156.11 63.3255 156.203 63.4209C156.297 63.5182 156.472 63.5942 156.727 63.6487V64.0207H153.317V63.6487ZM154.271 53.6122C154.488 53.3766 154.75 53.2578 155.058 53.2578C155.366 53.2578 155.621 53.3766 155.837 53.6122C156.053 53.8478 156.162 54.1341 156.162 54.4671C156.162 54.8001 156.053 55.0863 155.837 55.322C155.621 55.5576 155.36 55.6764 155.058 55.6764C154.756 55.6764 154.489 55.5576 154.271 55.322C154.053 55.0863 153.946 54.8001 153.946 54.4671C153.946 54.1341 154.055 53.8478 154.271 53.6122ZM158.569 57.7386C159.183 57.0142 159.952 56.65 160.879 56.65C161.806 56.65 162.598 57.02 163.202 57.76C163.805 58.5 164.107 59.3977 164.107 60.4532C164.107 61.5086 163.809 62.3869 163.213 63.1346C162.618 63.8824 161.839 64.2563 160.881 64.2563C159.922 64.2563 159.179 63.8921 158.567 63.1638C157.958 62.4355 157.652 61.532 157.652 60.4512C157.652 59.3704 157.958 58.461 158.571 57.7347L158.569 57.7386ZM159.907 62.7432C160.07 63.417 160.394 63.7558 160.879 63.7558C161.364 63.7558 161.642 63.4968 161.786 62.9808C161.93 62.4647 162.002 61.6216 162.002 60.4551C162.002 59.2887 161.926 58.4533 161.774 57.9333C161.623 57.4134 161.327 57.1544 160.883 57.1544C160.398 57.1544 160.074 57.4913 159.911 58.167C159.804 58.6188 159.749 59.3821 159.749 60.4571C159.749 61.532 159.8 62.3109 159.903 62.7471L159.907 62.7432ZM164.432 63.6487C164.693 63.6137 164.886 63.5358 165.009 63.417C165.132 63.2982 165.194 63.0606 165.194 62.7062V58.1261C165.194 57.8087 165.143 57.5886 165.044 57.466C164.943 57.3433 164.74 57.2615 164.432 57.2206V56.8487H167.143V57.9664C167.371 57.5906 167.661 57.281 168.014 57.0337C168.366 56.7883 168.756 56.6656 169.184 56.6656C169.799 56.6656 170.274 56.8389 170.613 57.1836C170.95 57.5283 171.12 58.1339 171.12 59.0024V62.7685C171.12 63.119 171.174 63.3449 171.283 63.4462C171.392 63.5475 171.575 63.6156 171.832 63.6507V64.0226H168.471V63.6507C168.728 63.5942 168.902 63.5183 168.995 63.4228C169.089 63.3274 169.135 63.1093 169.135 62.7685V58.9946C169.135 58.6402 169.102 58.3734 169.038 58.1962C168.927 57.8768 168.705 57.7172 168.374 57.7172C168.127 57.7172 167.901 57.8145 167.692 58.0093C167.486 58.204 167.326 58.4007 167.213 58.5993V62.7685C167.213 63.1093 167.26 63.3274 167.353 63.4228C167.447 63.5202 167.622 63.5961 167.877 63.6507V64.0226H164.432V63.6507V63.6487Z" fill="#B3923B"/>
<mask id="mask0_2048_38020" style="mask-type:alpha" maskUnits="userSpaceOnUse" x="27" y="18" width="146" height="50">
<path d="M90.5728 37.4323V47.4747C90.5728 48.7404 89.5368 49.7764 88.2711 49.7764H29.7793C28.5135 49.7764 27.4775 48.7404 27.4775 47.4747V37.2571C29.8163 35.6817 32.5133 34.1277 34.5931 33.4247C39.6853 31.8493 45.0891 31.972 50.2982 32.8853C52.339 33.2904 59.1625 35.0527 57.0652 38.1217C57.0107 38.1859 56.962 38.2521 56.9211 38.3203C56.7108 38.665 57.1664 39.3894 57.5695 39.3894C57.8052 39.3894 58.0135 39.2764 58.1479 39.1012H58.1498C61.7446 34.3516 69.6079 31.5008 76.3612 31.6702C78.6785 31.7286 80.8673 32.2115 82.7056 33.0002C85.1476 34.0128 87.8777 35.5493 90.5709 37.4323H90.5728ZM34.1393 32.1005C41.3269 29.9565 53.4432 29.5651 58.9853 35.3935C64.4475 31.2807 70.2272 29.5671 75.4109 29.5846C80.7466 29.6041 85.5331 31.4852 90.5728 35.0975V21.2695C90.5728 20.0038 89.5368 18.9678 88.2711 18.9678H29.7793C28.5135 18.9678 27.4775 20.0038 27.4775 21.2695V35.485C28.9458 34.4101 30.8445 33.3332 34.1374 32.0986L34.1393 32.1005ZM96.8432 19.2832L91.9184 46.279C91.5874 48.0998 92.9836 49.7745 94.8336 49.7745L105.129 49.7823C105.324 49.7823 105.489 49.6382 105.515 49.4434L106.383 44.8205C106.445 44.3473 106.072 43.9305 105.594 43.9403L101.97 44.0143C101.721 44.0201 101.53 43.7923 101.581 43.5469L106.445 19.5773C106.543 19.0944 106.175 18.6426 105.682 18.6426H97.6065C97.2307 18.6426 96.9074 18.9113 96.8393 19.2813L96.8432 19.2832ZM133.309 19.589L132.189 24.7435C132.111 25.1019 131.794 25.357 131.428 25.357H120.624L119.419 31.2924H130.103C130.6 31.2924 130.97 31.752 130.865 32.2369L129.745 37.3914C129.667 37.7497 129.35 38.0048 128.984 38.0048H118.057L115.828 48.9877C115.754 49.3499 115.434 49.6109 115.064 49.6109H107.127C106.884 49.6109 106.701 49.3908 106.743 49.1513L111.627 22.3795C111.997 20.3543 113.67 18.849 115.685 18.6621C115.74 18.6504 115.798 18.6426 115.857 18.6426H132.549C133.046 18.6426 133.416 19.1021 133.311 19.587L133.309 19.589ZM159.029 19.589L157.909 24.7435C157.831 25.1019 157.514 25.357 157.148 25.357H149.431L144.634 48.9897C144.56 49.3519 144.241 49.6128 143.871 49.6128H136.401C135.914 49.6128 135.548 49.1727 135.634 48.6937L139.891 25.357H134.775C134.279 25.357 133.909 24.8974 134.014 24.4125L135.133 19.2579C135.211 18.8996 135.529 18.6445 135.895 18.6445H158.268C158.764 18.6445 159.134 19.1041 159.029 19.589ZM172.277 30.5699L164.343 44.4115C161.866 50.125 158.963 49.6128 158.963 49.6128H154.061C151.51 49.6245 151.51 45.465 151.51 45.465L150.206 33.5902C150.138 32.9145 150.657 32.3225 151.337 32.305L158.065 32.3615C158.714 32.344 159.251 32.8561 159.265 33.5046L159.409 41.6288L166.226 29.7949C166.365 29.5534 166.624 29.4054 166.902 29.4054H171.603C172.201 29.4054 172.577 30.052 172.279 30.5719L172.277 30.5699ZM28.3383 63.6199C28.7297 63.6044 29.0081 63.5498 29.1776 63.4525C29.4619 63.2908 29.604 62.9812 29.604 62.5236V54.9777C29.604 54.524 29.4697 54.2202 29.199 54.0644C29.0412 53.969 28.755 53.9086 28.3402 53.8833V53.488H33.3429V53.8833C32.7606 53.9028 32.3731 53.9924 32.1803 54.1482C31.9875 54.3039 31.8902 54.6895 31.8902 55.3049V62.6677C31.8902 63.0124 31.972 63.2422 32.1375 63.3532C32.303 63.4642 32.6263 63.5206 33.1053 63.5206C33.968 63.5206 34.6904 63.3142 35.2746 62.9014C35.8588 62.4885 36.3632 61.6824 36.7877 60.4867H37.2064L36.6261 64.0152H28.3383V63.6199ZM38.069 63.6433C38.3202 63.5985 38.4936 63.5284 38.587 63.4388C38.7272 63.3025 38.7973 63.0552 38.7973 62.7008V58.1207C38.7973 57.8033 38.7487 57.5871 38.6513 57.4722C38.5539 57.3573 38.3592 57.2717 38.071 57.2152V56.8433H40.8167V62.7612C40.8167 63.102 40.8634 63.3201 40.9569 63.4155C41.0504 63.5128 41.2256 63.5888 41.4807 63.6433V64.0152H38.071V63.6433H38.069ZM39.0232 53.6068C39.2394 53.3712 39.5023 53.2524 39.8099 53.2524C40.1176 53.2524 40.3727 53.3712 40.5889 53.6068C40.805 53.8424 40.9141 54.1287 40.9141 54.4617C40.9141 54.7947 40.805 55.0809 40.5889 55.3166C40.3727 55.5522 40.1118 55.671 39.8099 55.671C39.5081 55.671 39.2413 55.5522 39.0232 55.3166C38.8051 55.0809 38.698 54.7947 38.698 54.4617C38.698 54.1287 38.8071 53.8424 39.0232 53.6068ZM45.8389 56.8433V57.2152C45.5857 57.2249 45.3949 57.2561 45.2663 57.3067C45.1378 57.3573 45.0736 57.4664 45.0736 57.6339C45.0736 57.6748 45.0911 57.7488 45.1261 57.8578C45.1612 57.9669 45.1885 58.0467 45.206 58.0973L46.3179 61.0904H46.3646L47.3597 58.4245C47.4065 58.2979 47.4454 58.1674 47.4746 58.037C47.5038 57.9065 47.5194 57.8013 47.5194 57.7254C47.5194 57.5073 47.4512 57.369 47.3169 57.3106C47.1825 57.2522 46.9858 57.221 46.7307 57.2152V56.8433H48.8942V57.2152C48.7034 57.2308 48.5476 57.297 48.4269 57.4177C48.3061 57.5365 48.1873 57.7507 48.0705 58.0603L45.7649 64.2353H45.4007L43.6812 59.6123C43.5605 59.2871 43.4417 58.9834 43.3288 58.6991C43.2139 58.4147 43.0951 58.1382 42.9685 57.8695C42.838 57.5949 42.7348 57.4236 42.6608 57.3515C42.5868 57.2795 42.4505 57.2347 42.2558 57.2152V56.8433H45.835H45.8389ZM49.6284 63.6433C49.8796 63.5985 50.0529 63.5284 50.1463 63.4388C50.2866 63.3025 50.3567 63.0552 50.3567 62.7008V58.1207C50.3567 57.8033 50.308 57.5871 50.2106 57.4722C50.1132 57.3573 49.9185 57.2717 49.6303 57.2152V56.8433H52.376V62.7612C52.376 63.102 52.4228 63.3201 52.5162 63.4155C52.6097 63.5128 52.785 63.5888 53.0401 63.6433V64.0152H49.6303V63.6433H49.6284ZM50.5825 53.6068C50.7987 53.3712 51.0616 53.2524 51.3693 53.2524C51.6769 53.2524 51.932 53.3712 52.1482 53.6068C52.3643 53.8424 52.4734 54.1287 52.4734 54.4617C52.4734 54.7947 52.3643 55.0809 52.1482 55.3166C51.932 55.5522 51.6711 55.671 51.3693 55.671C51.0674 55.671 50.8006 55.5522 50.5825 55.3166C50.3644 55.0809 50.2573 54.7947 50.2573 54.4617C50.2573 54.1287 50.3664 53.8424 50.5825 53.6068ZM53.6184 63.6433C53.8794 63.6083 54.0722 63.5304 54.1948 63.4116C54.3175 63.2928 54.3798 63.0552 54.3798 62.7008V58.1207C54.3798 57.8033 54.3292 57.5832 54.2299 57.4606C54.1306 57.3379 53.9261 57.2561 53.6184 57.2152V56.8433H56.3291V57.961C56.5569 57.5852 56.8471 57.2756 57.1996 57.0282C57.552 56.7829 57.9415 56.6602 58.3699 56.6602C58.9853 56.6602 59.4604 56.8335 59.7992 57.1782C60.1361 57.5229 60.3055 58.1285 60.3055 58.997V62.7631C60.3055 63.1136 60.3601 63.3395 60.4691 63.4408C60.5782 63.5421 60.7612 63.6102 61.0183 63.6453V64.0172H57.6572V63.6453C57.9123 63.5888 58.0875 63.5128 58.181 63.4174C58.2745 63.322 58.3212 63.1039 58.3212 62.7631V58.9892C58.3212 58.6348 58.2881 58.368 58.2238 58.1908C58.1128 57.8714 57.8909 57.7118 57.5598 57.7118C57.3125 57.7118 57.0866 57.8091 56.8782 58.0039C56.6718 58.1986 56.5121 58.3953 56.3992 58.5939V62.7631C56.3992 63.1039 56.4459 63.322 56.5394 63.4174C56.6329 63.5148 56.8081 63.5907 57.0632 63.6453V64.0172H53.6184V63.6453V63.6433ZM61.9588 65.1311C62.1282 64.8954 62.4242 64.7416 62.8429 64.6715V64.5644C62.5625 64.4476 62.36 64.3288 62.2353 64.2061C62.0114 63.988 61.9004 63.6959 61.9004 63.3317C61.9004 62.8955 62.0757 62.5236 62.4281 62.214C62.7806 61.9043 63.1233 61.6882 63.4583 61.5675V61.4604C62.9734 61.2481 62.582 60.9424 62.284 60.5471C61.9861 60.1518 61.8361 59.6727 61.8361 59.1099C61.8361 58.3992 62.0971 57.815 62.619 57.3535C63.1408 56.8919 63.8458 56.6622 64.7357 56.6622C65.0706 56.6622 65.3783 56.6972 65.6587 56.7693C65.9391 56.8413 66.1553 56.9134 66.3091 56.9893H68.1961V57.8189H67.0355C67.2224 58.0175 67.3646 58.2473 67.4659 58.5102C67.5652 58.7731 67.6158 59.0613 67.6158 59.3689C67.6158 60.3426 67.1893 61.0086 66.3364 61.3688C65.8885 61.5616 65.3316 61.657 64.6656 61.657C64.5215 61.657 64.4261 61.6551 64.3832 61.6492C64.3384 61.6434 64.2722 61.6415 64.1846 61.6415C64.0444 61.6668 63.8984 61.7486 63.7445 61.8849C63.5868 62.027 63.5069 62.1965 63.5069 62.3951C63.5069 62.5528 63.5459 62.6735 63.6257 62.7612C63.7056 62.8469 63.8146 62.9014 63.9548 62.9209C64.0249 62.9306 64.1729 62.9403 64.4027 62.9481C64.6305 62.9559 64.8078 62.9598 64.9343 62.9598L65.8632 62.9754C66.389 62.9851 66.833 63.0689 67.1913 63.2266C67.8767 63.5304 68.2175 64.0756 68.2175 64.8623C68.2175 65.8769 67.7054 66.574 66.6811 66.9538C66.1397 67.1524 65.4601 67.2498 64.6403 67.2498C63.9704 67.2498 63.392 67.1777 62.9072 67.0375C62.1068 66.7999 61.7057 66.3929 61.7057 65.8204C61.7057 65.5965 61.7913 65.3686 61.9608 65.1311H61.9588ZM63.4329 66.4728C63.7465 66.6558 64.2021 66.7473 64.798 66.7473C65.3296 66.7473 65.7678 66.7006 66.1125 66.6091C66.759 66.4358 67.0842 66.1184 67.0842 65.6549C67.0842 65.3842 66.9926 65.1836 66.8077 65.0473C66.6227 64.913 66.2897 64.8448 65.8048 64.8448H63.4563C63.3064 64.9772 63.1993 65.0882 63.135 65.1817C63.0182 65.3492 62.9597 65.5283 62.9597 65.7153C62.9597 66.0366 63.1175 66.2878 63.431 66.4708L63.4329 66.4728ZM63.9334 60.5023C64.0736 60.958 64.3404 61.1877 64.7376 61.1877C65.096 61.1877 65.3433 61.0164 65.4776 60.6736C65.612 60.3309 65.6802 59.8304 65.6802 59.1723C65.6802 58.4732 65.61 57.963 65.4679 57.6436C65.3257 57.3242 65.0823 57.1646 64.7376 57.1646C64.3599 57.1646 64.1087 57.3359 63.9821 57.6787C63.8555 58.0214 63.7932 58.5199 63.7932 59.1742C63.7932 59.772 63.8399 60.216 63.9334 60.5062V60.5023ZM72.7139 63.6219C73.1228 63.6063 73.4149 63.5459 73.5882 63.4388C73.8531 63.2772 73.9855 62.9715 73.9855 62.5255V54.9875C73.9855 54.5357 73.855 54.2319 73.5941 54.0742C73.4363 53.9787 73.1423 53.9145 72.7139 53.8833V53.488H80.8264V56.629H80.4779C80.3007 55.6612 80.0027 54.9816 79.5841 54.5941C79.1654 54.2066 78.3923 54.0118 77.2648 54.0118C76.8461 54.0118 76.5793 54.0644 76.4644 54.1676C76.3495 54.2708 76.2931 54.4656 76.2931 54.7499V58.3563C77.0662 58.3719 77.59 58.1947 77.8626 57.8247C78.1352 57.4547 78.3417 56.8647 78.4819 56.0526H78.846V61.3163H78.4819C78.3845 60.475 78.1878 59.8616 77.8918 59.476C77.5958 59.0905 77.0642 58.8977 76.295 58.8977V62.5255C76.295 63.0065 76.4235 63.3123 76.6825 63.4427C76.9415 63.5732 77.3349 63.6316 77.8665 63.6219V64.0172H72.7178V63.6219H72.7139ZM82.8108 60.8937C83.43 60.4828 84.4017 60.068 85.724 59.6513V58.518C85.724 58.0564 85.6344 57.7157 85.4552 57.4956C85.2761 57.2756 84.9587 57.1646 84.501 57.1646C84.244 57.1646 84.0337 57.2171 83.8682 57.3203C83.7026 57.4236 83.6209 57.556 83.6209 57.7118C83.6209 57.7721 83.6306 57.8228 83.6481 57.8636C83.6676 57.9045 83.6949 57.9474 83.7319 57.9922L83.8156 58.0993C83.8798 58.185 83.9324 58.2804 83.9733 58.3836C84.0123 58.4868 84.0337 58.5978 84.0337 58.7146C84.0337 59.0087 83.9441 59.2365 83.765 59.3962C83.5858 59.5559 83.3774 59.6357 83.1399 59.6357C82.8653 59.6357 82.6316 59.5481 82.4369 59.3709C82.2441 59.1937 82.1467 58.9386 82.1467 58.6036C82.1467 58.0058 82.4057 57.5346 82.9218 57.184C83.4378 56.8335 84.0746 56.6602 84.8301 56.6602C85.6402 56.6602 86.3179 56.8296 86.8632 57.1704C87.4026 57.5151 87.6732 58.1499 87.6732 59.0729V62.8469C87.6732 62.9579 87.7005 63.0533 87.7531 63.1312C87.8057 63.2091 87.866 63.25 87.9322 63.25C87.9887 63.25 88.0374 63.2383 88.0822 63.2149C88.127 63.1915 88.1951 63.1292 88.2886 63.028L88.5047 63.3551C88.2243 63.7095 87.9147 63.9588 87.5759 64.1009C87.3617 64.1925 87.1358 64.2372 86.8982 64.2372C86.4737 64.2372 86.1641 64.1029 85.9693 63.8341C85.8583 63.6823 85.7765 63.4564 85.724 63.1565C85.3287 63.5888 84.8808 63.8926 84.3823 64.0717C84.0785 64.1827 83.7805 64.2392 83.4884 64.2392C83.097 64.2392 82.7309 64.1029 82.3921 63.8322C82.0513 63.5596 81.8819 63.137 81.8819 62.5645C81.8819 61.8635 82.1915 61.3065 82.8108 60.8956V60.8937ZM85.3053 62.8994C85.4163 62.8079 85.5507 62.6658 85.7045 62.473V60.1926C85.3228 60.2939 84.9879 60.4536 84.6977 60.6736C84.209 61.0456 83.9636 61.5168 83.9636 62.0932C83.9636 62.434 84.0337 62.6911 84.1758 62.8683C84.318 63.0435 84.4777 63.1312 84.6549 63.1312C84.8886 63.1312 85.1047 63.0552 85.3053 62.9033V62.8994ZM89.2253 63.6453C89.4765 63.6005 89.6498 63.5304 89.7432 63.4408C89.8834 63.3045 89.9536 63.0572 89.9536 62.7028V58.1226C89.9536 57.8052 89.9049 57.5891 89.8075 57.4742C89.7101 57.3593 89.5154 57.2736 89.2272 57.2171V56.8452H91.9729V62.7631C91.9729 63.1039 92.0197 63.322 92.1131 63.4174C92.2066 63.5148 92.3819 63.5907 92.637 63.6453V64.0172H89.2272V63.6453H89.2253ZM90.1794 53.6087C90.3956 53.3731 90.6585 53.2543 90.9662 53.2543C91.2738 53.2543 91.5289 53.3731 91.7451 53.6087C91.9613 53.8444 92.0703 54.1306 92.0703 54.4636C92.0703 54.7966 91.9613 55.0829 91.7451 55.3185C91.5289 55.5541 91.268 55.6729 90.9662 55.6729C90.6643 55.6729 90.3975 55.5541 90.1794 55.3185C89.9613 55.0829 89.8542 54.7966 89.8542 54.4636C89.8542 54.1306 89.9633 53.8444 90.1794 53.6087ZM92.9836 57.5307V57.0964C93.1102 56.9698 93.2659 56.8199 93.4509 56.6485C93.6983 56.3993 93.93 56.1442 94.15 55.8793C94.5823 55.3613 94.9777 54.8064 95.3301 54.2144H95.6943V56.8471H97.0574V57.5326H95.6943V62.2179C95.6943 62.436 95.7254 62.619 95.7858 62.7651C95.8793 62.9929 96.0331 63.1078 96.2473 63.1078C96.4343 63.1078 96.59 63.0357 96.7147 62.8916C96.8412 62.7475 96.9659 62.5489 97.0924 62.2938L97.4352 62.4769C97.2677 62.9033 97.0671 63.25 96.8354 63.5187C96.4265 63.9899 95.926 64.2256 95.334 64.2256C94.9991 64.2256 94.705 64.1574 94.4538 64.0211C93.9689 63.7582 93.7275 63.2792 93.7236 62.584V57.5326H92.9836V57.5307ZM97.4352 63.6472C97.6961 63.6122 97.8889 63.5343 98.0116 63.4155C98.1343 63.2967 98.1966 63.0591 98.1966 62.7047V54.7713C98.1966 54.4597 98.1459 54.2416 98.0427 54.115C97.9395 53.9904 97.737 53.9067 97.4352 53.8658V53.4939H100.202V57.8753C100.496 57.4898 100.804 57.1918 101.127 56.9815C101.451 56.7712 101.815 56.666 102.222 56.666C102.771 56.666 103.227 56.8394 103.585 57.1879C103.943 57.5346 104.122 58.1265 104.122 58.9639V62.7066C104.122 63.0572 104.177 63.2869 104.286 63.396C104.395 63.505 104.578 63.5907 104.835 63.6511V64.023H101.474V63.6511C101.731 63.5946 101.904 63.5187 101.998 63.4233C102.091 63.3278 102.138 63.1097 102.138 62.769V58.995C102.138 58.6406 102.105 58.3738 102.041 58.1966C101.93 57.8773 101.708 57.7176 101.377 57.7176C101.129 57.7176 100.874 57.8422 100.611 58.0895C100.348 58.3388 100.216 58.5082 100.216 58.5997V62.769C100.216 63.1097 100.263 63.3278 100.356 63.4233C100.45 63.5206 100.625 63.5966 100.88 63.6511V64.023H97.4352V63.6511V63.6472ZM109.738 53.4919H118.353L118.367 56.6329H117.954C117.82 55.5093 117.432 54.7479 116.794 54.3526C116.435 54.1345 115.9 54.0138 115.187 53.9943V62.2003C115.187 62.7748 115.279 63.1545 115.464 63.3415C115.647 63.5284 116.03 63.6238 116.612 63.6238V64.0191H111.512V63.6238C112.071 63.6238 112.443 63.5284 112.626 63.3376C112.809 63.1467 112.903 62.767 112.903 62.2003V53.9943C112.204 54.0157 111.668 54.1345 111.296 54.3526C110.611 54.7596 110.225 55.5191 110.136 56.6329H109.723L109.736 53.4919H109.738ZM120.285 57.6572C120.871 56.9951 121.576 56.6641 122.402 56.6641C122.873 56.6641 123.315 56.7985 123.732 57.0672C124.147 57.3359 124.466 57.7079 124.69 58.185C124.857 58.5452 124.974 59.0126 125.04 59.5851C125.074 59.8538 125.089 60.0602 125.089 60.2004H121.434C121.467 60.8236 121.561 61.3649 121.714 61.8206C121.995 62.6774 122.488 63.1059 123.192 63.1059C123.529 63.1059 123.847 62.991 124.145 62.7631C124.326 62.6268 124.554 62.3951 124.824 62.0718L125.153 62.2919C124.709 63.0825 124.197 63.6336 123.615 63.9432C123.237 64.1418 122.803 64.2392 122.314 64.2392C121.609 64.2392 120.951 63.9374 120.334 63.3337C119.718 62.73 119.411 61.7661 119.411 60.4439C119.411 59.2462 119.703 58.3174 120.289 57.6553L120.285 57.6572ZM123.327 59.624C123.317 58.7068 123.253 58.0642 123.13 57.7001C123.009 57.334 122.766 57.1529 122.4 57.1529C122.034 57.1529 121.771 57.3632 121.633 57.7838C121.494 58.2044 121.416 58.8178 121.397 59.624H123.325H123.327ZM125.975 63.6472C126.226 63.581 126.406 63.4934 126.509 63.3843C126.614 63.2753 126.666 63.0494 126.666 62.7028V54.7694C126.666 54.4364 126.618 54.2183 126.52 54.117C126.423 54.0138 126.242 53.9301 125.975 53.8638V53.4919H128.686V62.7028C128.686 63.0474 128.736 63.2733 128.84 63.3804C128.943 63.4875 129.124 63.5752 129.385 63.6472V64.0191H125.975V63.6472ZM131.025 57.6572C131.611 56.9951 132.316 56.6641 133.141 56.6641C133.613 56.6641 134.055 56.7985 134.471 57.0672C134.886 57.3359 135.205 57.7079 135.429 58.185C135.597 58.5452 135.714 59.0126 135.78 59.5851C135.813 59.8538 135.829 60.0602 135.829 60.2004H132.174C132.207 60.8236 132.3 61.3649 132.454 61.8206C132.734 62.6774 133.227 63.1059 133.932 63.1059C134.269 63.1059 134.586 62.991 134.884 62.7631C135.065 62.6268 135.293 62.3951 135.564 62.0718L135.893 62.2919C135.449 63.0825 134.937 63.6336 134.355 63.9432C133.977 64.1418 133.542 64.2392 133.054 64.2392C132.349 64.2392 131.691 63.9374 131.073 63.3337C130.458 62.73 130.15 61.7661 130.15 60.4439C130.15 59.2462 130.442 58.3174 131.028 57.6553L131.025 57.6572ZM134.066 59.624C134.057 58.7068 133.992 58.0642 133.87 57.7001C133.749 57.334 133.505 57.1529 133.139 57.1529C132.773 57.1529 132.51 57.3632 132.372 57.7838C132.234 58.2044 132.156 58.8178 132.137 59.624H134.064H134.066ZM139.71 56.8471V57.2191C139.456 57.2288 139.266 57.26 139.137 57.3106C139.009 57.3612 138.944 57.4703 138.944 57.6378C138.944 57.6787 138.962 57.7527 138.997 57.8617C139.032 57.9708 139.059 58.0506 139.077 58.1012L140.189 61.0943H140.235L141.231 58.4284C141.277 58.3018 141.316 58.1713 141.345 58.0409C141.375 57.9104 141.39 57.8052 141.39 57.7293C141.39 57.5112 141.322 57.3729 141.188 57.3145C141.053 57.2561 140.857 57.2249 140.602 57.2191V56.8471H142.765V57.2191C142.574 57.2347 142.418 57.3009 142.298 57.4216C142.177 57.5404 142.058 57.7546 141.941 58.0642L139.636 64.2392H139.272L137.552 59.6162C137.431 59.291 137.312 58.9873 137.2 58.7029C137.085 58.4186 136.966 58.1421 136.839 57.8734C136.709 57.5988 136.606 57.4275 136.532 57.3554C136.458 57.2833 136.321 57.2386 136.127 57.2191V56.8471H139.706H139.71ZM143.499 63.6472C143.75 63.6024 143.924 63.5323 144.015 63.4427C144.155 63.3064 144.225 63.0591 144.225 62.7047V58.1246C144.225 57.8072 144.177 57.591 144.079 57.4761C143.982 57.3612 143.787 57.2756 143.499 57.2191V56.8471H146.245V62.7651C146.245 63.1059 146.292 63.3239 146.385 63.4194C146.479 63.5167 146.654 63.5927 146.909 63.6472V64.0191H143.499V63.6472ZM144.453 53.6107C144.669 53.3751 144.932 53.2563 145.24 53.2563C145.548 53.2563 145.803 53.3751 146.019 53.6107C146.235 53.8463 146.344 54.1326 146.344 54.4656C146.344 54.7986 146.235 55.0848 146.019 55.3204C145.803 55.5561 145.542 55.6749 145.24 55.6749C144.938 55.6749 144.671 55.5561 144.453 55.3204C144.235 55.0848 144.128 54.7986 144.128 54.4656C144.128 54.1326 144.237 53.8463 144.453 53.6107ZM147.822 61.6629H148.219C148.36 62.4087 148.621 62.9345 149.002 63.2422C149.384 63.5498 149.775 63.7017 150.177 63.7017C150.545 63.7017 150.815 63.6122 150.987 63.4311C151.158 63.2519 151.246 63.0143 151.246 62.7203C151.246 62.4418 151.152 62.2023 150.965 62.0056C150.862 61.8985 150.696 61.7856 150.469 61.6629L149.407 61.1001C148.848 60.8002 148.447 60.477 148.206 60.1264C147.959 59.7759 147.836 59.3631 147.836 58.886C147.836 58.2823 148.029 57.7624 148.416 57.3223C148.804 56.8841 149.343 56.6641 150.036 56.6641C150.338 56.6641 150.661 56.7186 151 56.8277C151.341 56.9367 151.551 56.9913 151.635 56.9913C151.752 56.9913 151.834 56.964 151.882 56.9114C151.931 56.8588 151.972 56.7829 152.005 56.6875H152.319V58.9386H151.954C151.82 58.4109 151.598 57.9883 151.29 57.6689C150.983 57.3496 150.624 57.1899 150.214 57.1899C149.896 57.1899 149.66 57.2872 149.505 57.4781C149.349 57.6709 149.271 57.8792 149.271 58.1012C149.271 58.2843 149.341 58.4673 149.481 58.6484C149.616 58.8354 149.873 59.0281 150.251 59.2268L151.033 59.6377C151.518 59.8908 151.873 60.1381 152.095 60.3757C152.467 60.7807 152.654 61.2812 152.654 61.8751C152.654 62.4691 152.461 62.9929 152.077 63.4914C151.693 63.9919 151.117 64.2411 150.348 64.2411C150.157 64.2411 149.964 64.2197 149.771 64.1769C149.579 64.134 149.339 64.0581 149.055 63.9529L148.809 63.8614C148.722 63.8264 148.665 63.8049 148.646 63.801C148.625 63.7952 148.597 63.7933 148.566 63.7933C148.486 63.7933 148.418 63.8283 148.36 63.8965C148.301 63.9646 148.235 64.0795 148.161 64.2431H147.818V61.6648L147.822 61.6629ZM153.318 63.6491C153.569 63.6044 153.742 63.5343 153.834 63.4447C153.974 63.3084 154.044 63.0611 154.044 62.7066V58.1265C154.044 57.8091 153.995 57.593 153.898 57.4781C153.8 57.3632 153.606 57.2775 153.318 57.221V56.8491H156.063V62.767C156.063 63.1078 156.11 63.3259 156.203 63.4213C156.297 63.5187 156.472 63.5946 156.727 63.6491V64.0211H153.318V63.6491ZM154.272 53.6126C154.488 53.377 154.751 53.2582 155.058 53.2582C155.366 53.2582 155.621 53.377 155.837 53.6126C156.054 53.8483 156.163 54.1345 156.163 54.4675C156.163 54.8005 156.054 55.0868 155.837 55.3224C155.621 55.558 155.36 55.6768 155.058 55.6768C154.757 55.6768 154.49 55.558 154.272 55.3224C154.054 55.0868 153.947 54.8005 153.947 54.4675C153.947 54.1345 154.056 53.8483 154.272 53.6126ZM158.569 57.739C159.183 57.0146 159.952 56.6505 160.879 56.6505C161.806 56.6505 162.599 57.0205 163.202 57.7604C163.806 58.5004 164.108 59.3981 164.108 60.4536C164.108 61.509 163.81 62.3873 163.214 63.1351C162.618 63.8828 161.839 64.2567 160.881 64.2567C159.923 64.2567 159.179 63.8926 158.568 63.1643C157.958 62.436 157.652 61.5324 157.652 60.4516C157.652 59.3709 157.958 58.4615 158.571 57.7351L158.569 57.739ZM159.907 62.7436C160.071 63.4174 160.394 63.7563 160.879 63.7563C161.364 63.7563 161.642 63.4973 161.786 62.9812C161.931 62.4652 162.003 61.622 162.003 60.4555C162.003 59.2891 161.927 58.4537 161.775 57.9338C161.623 57.4138 161.327 57.1548 160.883 57.1548C160.398 57.1548 160.075 57.4917 159.911 58.1674C159.804 58.6192 159.75 59.3826 159.75 60.4575C159.75 61.5324 159.8 62.3113 159.903 62.7475L159.907 62.7436ZM164.433 63.6491C164.694 63.6141 164.887 63.5362 165.009 63.4174C165.132 63.2986 165.194 63.0611 165.194 62.7066V58.1265C165.194 57.8091 165.144 57.5891 165.044 57.4664C164.943 57.3437 164.741 57.2619 164.433 57.221V56.8491H167.144V57.9669C167.371 57.591 167.662 57.2814 168.014 57.0341C168.366 56.7887 168.756 56.666 169.184 56.666C169.8 56.666 170.275 56.8394 170.614 57.184C170.951 57.5287 171.12 58.1343 171.12 59.0028V62.769C171.12 63.1195 171.175 63.3454 171.284 63.4466C171.393 63.5479 171.576 63.616 171.833 63.6511V64.023H168.472V63.6511C168.729 63.5946 168.902 63.5187 168.995 63.4233C169.089 63.3278 169.136 63.1097 169.136 62.769V58.995C169.136 58.6406 169.103 58.3738 169.038 58.1966C168.927 57.8773 168.705 57.7176 168.374 57.7176C168.127 57.7176 167.901 57.815 167.693 58.0097C167.486 58.2044 167.327 58.4011 167.214 58.5997V62.769C167.214 63.1097 167.26 63.3278 167.354 63.4233C167.447 63.5206 167.623 63.5966 167.878 63.6511V64.023H164.433V63.6511V63.6491Z" fill="#C8B15D"/>
</mask>
<g mask="url(#mask0_2048_38020)">
<g opacity="0.8">
<path d="M73.2743 77.6259L88.4985 1.84961H86.7225L72.2539 77.6259H73.2743Z" fill="#CAB14C"/>
<path d="M110.614 77.6259L131.538 1.84961H130.119L110.036 77.6259H110.614Z" fill="#CAB14C"/>
<path d="M150.444 77.6259L133.829 1.84961H132.184L149.62 77.6259H150.444Z" fill="#CAB14C"/>
<path d="M60.9992 77.6259L82.303 1.84961H80.6263L60.082 77.6259H60.9992Z" fill="#CAB14C"/>
<path d="M92.477 77.6259L128.436 1.84961H122.933L89.6592 77.6259H92.477Z" fill="#CAB14C"/>
<path d="M164.875 77.6259H167.868L141.141 1.84961H135.93L164.875 77.6259Z" fill="#CAB14C"/>
<path d="M167.71 77.6259H171.928L147.127 1.84961H141.205L167.71 77.6259Z" fill="#B29A3E"/>
<path d="M41.6677 77.6259L77.629 1.84961H71.9097L38.6377 77.6259H41.6677Z" fill="#CAB14C"/>
<path d="M22.8799 39.2324V43.0297L60.3445 1.84961H54.4168L22.8799 39.2324Z" fill="#CAB14C"/>
</g>
</g>
</svg>
