<svg width="201" height="91" viewBox="0 0 201 91" fill="none" xmlns="http://www.w3.org/2000/svg">
<path d="M0.84375 20.6079H37.7252V73.625H0.84375V20.6079Z" fill="#BF5700"/>
<path d="M37.7617 20.6079H74.9725V73.625H37.7617V20.6079Z" fill="black"/>
<path d="M73.3253 30.1571C70.7172 29.4458 67.5626 29.976 65.027 30.7564C60.1863 32.3107 56.0371 35.5971 51.5257 37.9681C49.1515 38.9757 45.8618 39.1832 43.6884 37.8074C43.1648 37.4353 42.2066 37.7036 42.2066 37.7036C41.9023 37.4761 41.5611 37.3829 41.1495 37.5363C40.0464 38.3332 38.9037 37.1017 37.7248 37.7369C36.5558 37.1013 35.4131 38.3329 34.333 37.5363C33.9115 37.3829 33.5724 37.4761 33.2628 37.7036C33.2628 37.7036 32.3144 37.4362 31.7843 37.8074C29.5911 39.1838 26.3179 38.9764 23.947 37.9681C19.4356 35.6103 15.2864 32.3041 10.4457 30.7564C7.90024 29.9793 4.74886 29.4491 2.1474 30.1571C1.80164 30.3879 1.41636 30.7992 1.51185 31.2965C1.69033 31.6007 1.87079 32.011 2.25936 32.0769C11.6114 30.6774 16.6497 39.9471 24.4541 42.4169C24.4703 42.5153 24.0095 42.8977 23.5156 43.1644C22.4091 43.7736 20.7659 43.5398 20.6507 45.048C20.9526 45.9865 22.093 46.3322 22.9196 46.6978C24.8657 47.7943 27.2004 46.8828 28.9786 45.9865C29.1792 45.779 29.5286 45.8962 29.6899 46.1007C29.5506 50.3487 32.782 53.1477 33.3781 57.0993C33.7238 58.9302 32.5779 60.2803 32.4396 62.0059C32.42 62.6381 32.9203 62.2199 33.1904 64.3208C33.2987 64.7028 34.2507 65.7697 35.1201 66.2176C35.9137 66.5331 36.8357 66.6226 37.7742 66.6029C38.7127 66.622 39.6314 66.5331 40.4251 66.2176C41.2911 65.7697 42.2428 64.7028 42.358 64.3208C42.6228 62.2199 43.1253 62.6381 43.1088 62.0059C42.9679 60.2902 41.8279 58.9401 42.1703 57.0993C42.7598 53.1477 45.9902 50.3487 45.8585 46.1007C46.0192 45.8962 46.3623 45.779 46.5665 45.9865C48.3249 46.8822 50.6498 47.7943 52.5926 46.6978C53.4159 46.3322 54.5586 45.9865 54.8648 45.048C54.7472 43.5398 53.1063 43.7736 51.9999 43.1644C51.5027 42.898 51.0416 42.5157 51.0581 42.4169C58.8954 39.9636 63.9337 30.6938 73.2858 32.0769C73.6743 32.011 73.8587 31.5994 74.0431 31.2965C74.1311 30.7992 73.7389 30.3876 73.3977 30.1571" fill="white"/>
<path d="M84.8516 20.6068V40.1342H88.7044V45.0078H78.4961V20.6068H84.8516Z" fill="#BF5700"/>
<path d="M97.6946 26.8634C97.6946 25.7274 97.6311 24.9996 97.5063 24.6835C97.3811 24.3667 97.121 24.2093 96.7291 24.2093C96.3965 24.2093 96.143 24.3367 95.9684 24.5946C95.7909 24.8514 95.7053 25.6055 95.7053 26.8634V38.2572C95.7053 39.6764 95.7626 40.5491 95.8779 40.8817C95.9921 41.211 96.2632 41.3789 96.6847 41.3789C97.116 41.3789 97.3927 41.1879 97.5145 40.8059C97.6353 40.4239 97.6946 39.5151 97.6946 38.076V26.847V26.8634ZM104.05 34.8983C104.05 37.3516 103.993 39.0804 103.879 40.1012C103.762 41.1221 103.398 42.054 102.792 42.897C102.183 43.74 101.363 44.3887 100.329 44.8431C99.2947 45.2943 98.0862 45.5215 96.7064 45.5215C95.3991 45.5215 94.2268 45.3088 93.1829 44.8826C92.139 44.4546 91.3059 43.8157 90.6704 42.9628C90.0381 42.1067 89.6594 41.178 89.5376 40.1704C89.4161 39.166 89.3564 37.4076 89.3564 34.9016V30.7195C89.3564 28.2662 89.4141 26.5374 89.5297 25.5166C89.6466 24.4958 90.0071 23.5672 90.6163 22.7209C91.2223 21.8779 92.0455 21.2291 93.0795 20.778C94.1168 20.3269 95.322 20.0996 96.7018 20.0996C98.0091 20.0996 99.1814 20.3124 100.225 20.7385C101.266 21.1666 102.102 21.8087 102.735 22.6616C103.367 23.5145 103.745 24.4464 103.867 25.4507C103.988 26.4551 104.047 28.2136 104.047 30.7195V34.9016" fill="#BF5700"/>
<path d="M119.428 20.6068V45.0078H113.863L110.57 33.9104V45.0078H105.269V20.6068H110.57L114.127 31.6054V20.6068H119.428Z" fill="#BF5700"/>
<path d="M135.893 29.4982H129.537V27.282C129.537 25.8858 129.477 25.0132 129.354 24.6575C129.234 24.3052 128.949 24.1307 128.498 24.1307C128.103 24.1307 127.839 24.2808 127.698 24.5818C127.556 24.8834 127.487 25.6586 127.487 26.9034V38.6264C127.487 39.7229 127.556 40.4441 127.698 40.7899C127.839 41.1356 128.119 41.3102 128.541 41.3102C129.002 41.3102 129.318 41.1132 129.483 40.7207C129.65 40.3288 129.729 39.5649 129.729 38.4288V35.5343H128.451V31.8132H135.893V44.9193H131.909L131.323 43.1707C130.888 43.9215 130.345 44.4912 129.686 44.8666C129.028 45.242 128.25 45.4297 127.355 45.4297C126.288 45.4297 125.29 45.1718 124.358 44.6525C123.426 44.1355 122.721 43.4934 122.237 42.7294C121.753 41.9655 121.454 41.1653 121.335 40.3223C121.213 39.4826 121.153 38.2246 121.153 36.5353V29.2908C121.153 26.9593 121.28 25.2733 121.532 24.2196C121.783 23.1625 122.503 22.1977 123.696 21.3152C124.884 20.4359 126.425 19.9947 128.306 19.9947C130.166 19.9947 131.697 20.3767 132.949 21.1406C134.177 21.9046 134.974 22.8102 135.346 23.8606C135.718 24.9111 135.903 26.4357 135.903 28.4379V29.4949" fill="#BF5700"/>
<path d="M152.358 20.6068V45.0078H146.003V34.7666H144.103V45.0078H137.747V20.6068H144.103V29.3332H146.003V20.6068H152.358Z" fill="#BF5700"/>
<path d="M162.566 26.8634C162.566 25.7274 162.501 24.9996 162.377 24.6835C162.251 24.3667 161.992 24.2093 161.6 24.2093C161.271 24.2093 161.017 24.3367 160.839 24.5946C160.663 24.8514 160.576 25.6055 160.576 26.8634V38.2572C160.576 39.6764 160.632 40.5491 160.748 40.8817C160.865 41.211 161.134 41.3789 161.555 41.3789C161.986 41.3789 162.263 41.1879 162.385 40.8059C162.506 40.4239 162.567 39.5151 162.567 38.076V26.847L162.566 26.8634ZM168.921 34.8983C168.921 37.3516 168.866 39.0804 168.75 40.1012C168.633 41.1221 168.272 42.054 167.663 42.897C167.054 43.74 166.234 44.3887 165.2 44.8431C164.163 45.2943 162.961 45.5215 161.578 45.5215C160.27 45.5215 159.098 45.3088 158.054 44.8826C157.01 44.4546 156.177 43.8157 155.542 42.9628C154.909 42.1067 154.531 41.178 154.412 40.1704C154.29 39.166 154.23 37.4076 154.23 34.9016V30.7195C154.23 28.2662 154.288 26.5374 154.403 25.5166C154.52 24.4958 154.881 23.5672 155.49 22.7209C156.099 21.8779 156.919 21.2291 157.953 20.778C158.987 20.3269 160.196 20.0996 161.575 20.0996C162.883 20.0996 164.055 20.3124 165.099 20.7385C166.14 21.1666 166.976 21.8087 167.608 22.6616C168.24 23.5145 168.619 24.4464 168.741 25.4507C168.863 26.4551 168.921 28.2136 168.921 30.7195V34.9016" fill="#BF5700"/>
<path d="M177.055 24.8882V30.3216C177.769 30.3216 178.267 30.2225 178.553 30.0265C178.84 29.8313 178.985 29.1967 178.985 28.1199V26.7764C178.985 26.0025 178.845 25.4954 178.57 25.255C178.294 25.014 177.789 24.8928 177.055 24.8928V24.8882ZM170.699 20.7061H175.178C178.171 20.7061 180.216 20.8213 181.27 21.0518C182.33 21.2837 183.193 21.8751 183.865 22.8235C184.533 23.7718 184.866 25.2899 184.866 27.3678C184.866 29.2678 184.63 30.5455 184.155 31.1876C183.687 31.8396 182.752 32.2348 181.365 32.3632C182.62 32.6741 183.466 33.091 183.898 33.6146C184.332 34.1382 184.599 34.6189 184.704 35.0569C184.812 35.4949 184.865 36.6968 184.865 38.6792V45.1334H178.97V37.0327C178.97 35.7254 178.866 34.9186 178.661 34.6058C178.453 34.2936 177.914 34.1381 177.041 34.1381V45.1367H170.686V20.7357" fill="#BF5700"/>
<path d="M200.764 20.6068V45.0078H195.199L191.906 33.9104V45.0078H186.604V20.6068H191.906L195.463 31.6054V20.6068H200.764Z" fill="#BF5700"/>
<path d="M93.413 47.9386V73.7227H87.5515L84.061 61.9996V73.7227H78.4629V47.9386H84.061L87.815 59.5299V47.9386H93.413Z" fill="black"/>
<path d="M95.3884 47.9386H106.552V53.1086H102.073V57.9822H106.255V62.8887H102.073V68.5527H106.98V73.7227H95.3555V47.9386" fill="black"/>
<path d="M122.72 47.9386V53.1086H118.736V73.7227H112.051V53.1086H108.1V47.9386H122.753" fill="black"/>
<path d="M150.381 47.9386L147.398 73.7227H139.033C138.266 69.7711 137.591 65.2597 137.005 60.2214C136.738 62.3882 136.116 66.9062 135.138 73.7227H126.807L123.807 47.9386H130.327L131.716 65.6219C131.966 61.1105 132.582 55.2161 133.574 47.9386H140.522C140.615 48.6927 140.858 51.5279 141.253 56.4345L141.994 66.2476C142.372 60.0238 142.998 53.8989 143.861 47.9386H150.381Z" fill="black"/>
<path d="M174.421 52.2203V57.9501C175.178 57.9501 175.705 57.8477 176.008 57.6412C176.309 57.4338 176.459 56.762 176.459 55.6259V54.2099C176.459 53.39 176.315 52.8565 176.025 52.603C175.731 52.3494 175.198 52.221 174.421 52.221V52.2203ZM167.736 47.8077H172.478C175.639 47.8077 177.78 47.9292 178.9 48.1732C180.016 48.4173 180.928 49.0393 181.636 50.0437C182.344 51.048 182.696 52.6484 182.696 54.8514C182.696 56.8536 182.449 58.2103 181.946 58.9018C181.448 59.59 180.467 60.0049 179.005 60.1432C180.332 60.4719 181.221 60.9138 181.679 61.4637C182.133 62.0137 182.416 62.5208 182.532 62.9818C182.64 63.4428 182.698 64.7139 182.698 66.8017V73.5852H176.474V65.0235C176.474 63.647 176.365 62.7941 176.149 62.4615C175.929 62.1332 175.362 61.9676 174.437 61.9676V73.5918H167.752V47.8077" fill="black"/>
<path d="M200.435 47.9383L196.583 59.5625L200.798 73.6895H193.882L191.169 62.658V73.6895H184.451V47.9054H191.169V57.916L194.152 47.9054H200.442" fill="black"/>
<path d="M159.602 54.525C159.602 53.3296 159.538 52.5624 159.407 52.2298C159.272 51.8939 159.002 51.7325 158.59 51.7325C158.238 51.7325 157.971 51.8633 157.787 52.1343C157.598 52.4059 157.508 53.2012 157.508 54.525V66.5444C157.508 68.0361 157.567 68.9614 157.688 69.3105C157.811 69.6595 158.094 69.8374 158.541 69.8374C158.996 69.8374 159.286 69.6322 159.414 69.2314C159.542 68.8297 159.604 67.8714 159.604 66.3534V54.5316L159.602 54.525ZM166.287 62.988C166.287 65.5729 166.229 67.4005 166.107 68.4872C165.983 69.564 165.603 70.5486 164.961 71.4345C164.319 72.3236 163.456 73.0118 162.363 73.4827C161.273 73.9569 160.005 74.1973 158.543 74.1973C157.163 74.1973 155.928 73.9747 154.822 73.5189C153.729 73.0678 152.84 72.396 152.178 71.4937C151.509 70.6013 151.111 69.62 150.986 68.5597C150.86 67.4993 150.794 65.6454 150.794 62.9945V58.5819C150.794 55.9969 150.855 54.1693 150.982 53.0826C151.1 52.0058 151.482 51.0245 152.121 50.1387C152.763 49.2463 153.629 48.5614 154.722 48.0872C155.812 47.6064 157.08 47.3726 158.542 47.3726C159.919 47.3726 161.154 47.5959 162.263 48.0477C163.36 48.4988 164.242 49.1706 164.908 50.0761C165.576 50.9784 165.971 51.9532 166.1 53.0135C166.223 54.0738 166.288 55.9245 166.288 58.5786V62.9912" fill="black"/>
</svg>
