<svg width="201" height="91" viewBox="0 0 201 91" fill="none" xmlns="http://www.w3.org/2000/svg">
<path d="M15.0882 64.1984H16.6452C23.7484 64.1984 28.2369 60.3972 34.6548 51.1112H34.7795L30.1068 65.7016H0.879883V65.5768C3.68278 63.9565 4.37006 62.461 5.36643 58.3488L12.5944 29.4329C13.0302 27.6264 13.2798 26.3171 13.2798 25.3207C13.2798 23.95 12.9074 23.0764 11.7229 22.2049V22.0801H28.2331V22.2049C25.4282 23.8252 24.7429 25.3207 23.7465 29.4329L15.0882 64.1984Z" fill="#F51A51"/>
<path d="M45.569 60.03C45.5002 60.4215 45.4585 60.8173 45.4442 61.2145C45.4442 62.2743 45.9434 62.9596 46.9397 62.9596C47.5151 62.9435 48.0753 62.7709 48.56 62.4605V62.5853C46.6287 65.273 44.1983 66.325 41.5182 66.325C37.4675 66.325 35.7224 63.8946 35.7224 60.5906C35.7058 59.6847 35.8111 58.7807 36.0353 57.9029L40.0227 41.6365C40.5219 39.6438 40.8329 38.4593 40.8329 37.5877C40.8329 36.4646 40.4585 35.7178 39.5236 34.9691V34.8443H51.864L45.569 60.03ZM48.9958 19.9064C52.175 19.9064 54.4173 22.2101 54.4173 25.2031C54.4214 25.9898 54.2694 26.7695 53.9702 27.4971C53.6711 28.2248 53.2306 28.8858 52.6743 29.4421C52.118 29.9984 51.4569 30.4389 50.7293 30.7381C50.0017 31.0373 49.222 31.1892 48.4352 31.1852C45.258 31.1852 43.0138 28.8814 43.0138 25.8885C43.0014 25.0994 43.1473 24.3159 43.4429 23.5841C43.7384 22.8524 44.1777 22.1874 44.7346 21.6283C45.2916 21.0692 45.9549 20.6274 46.6855 20.329C47.4161 20.0306 48.199 19.8817 48.9881 19.891L48.9958 19.9064Z" fill="#F51A51"/>
<path d="M67.2472 34.8466H71.9219L71.1732 36.4055H66.9362L59.9559 64.6975C57.4006 75.1046 52.9141 79.403 43.6914 79.5278V79.403C46.9954 77.1607 48.4275 71.7392 51.2938 59.276L56.5905 36.4055H53.7242L53.9162 35.7201L57.0877 34.3494L57.6483 32.6043C59.8925 23.6926 66.6233 18.5898 73.7265 18.5898C77.6525 18.5898 80.8298 20.5211 80.8298 23.7618C80.8298 27.4401 78.1421 29.4962 75.0339 29.4962C72.9759 29.4962 71.5437 28.3731 71.2327 27.0657C73.1007 26.7528 75.1587 25.1325 75.1587 21.5809C75.1587 20.3964 74.5348 19.5881 73.4136 19.5881C71.1694 19.5881 69.2995 22.704 68.1169 29.9934L67.2472 34.8466Z" fill="#F51A51"/>
<path d="M67.3721 54.9156C67.3721 45.0054 75.5353 34.1621 86.1866 34.1621C91.2972 34.1621 93.8525 36.7808 93.8525 40.4573C93.8525 47.4359 86.3114 50.427 77.5876 50.8014C77.3954 51.9759 77.2908 53.1631 77.2746 54.3531C77.2746 59.3447 79.6437 61.7695 82.9459 61.7695C85.7508 61.7695 87.6821 60.3987 90.0493 57.2828H90.4217C87.805 63.3284 83.3183 66.3195 77.8967 66.3195C71.734 66.3195 67.3721 62.3934 67.3721 54.9156ZM77.7796 49.8665C83.015 48.2461 86.9411 42.2024 86.9411 37.278C86.9411 36.032 86.5033 35.2852 85.6932 35.2852C82.8902 35.2852 79.0889 42.9454 77.7796 49.8665Z" fill="#F51A51"/>
<path d="M103.391 58.2165C103.266 58.6418 103.201 59.0825 103.199 59.5258C103.199 61.3323 104.382 62.392 105.877 62.392C106.875 62.392 108.181 61.8315 109.367 60.7084L109.431 60.8332C107.127 64.5096 104.071 66.318 100.145 66.318C95.6581 66.318 93.2891 63.6994 93.2891 59.6506C93.3208 58.6193 93.4676 57.5949 93.7268 56.5962L98.7739 36.4058H96.5354L96.7274 35.5956C103.209 33.9119 107.382 30.2989 111.372 24.0039H111.932L109.244 34.8469H115.104L114.416 36.4058H108.809L103.391 58.2165Z" fill="#F51A51"/>
<path d="M121.837 60.0301C121.768 60.4216 121.726 60.8174 121.712 61.2146C121.712 62.2744 122.211 62.9597 123.207 62.9597C123.783 62.9436 124.343 62.771 124.828 62.4606V62.5854C122.896 65.2731 120.466 66.3251 117.786 66.3251C113.735 66.3251 111.99 63.8947 111.99 60.5907C111.973 59.6848 112.079 58.7808 112.303 57.903L116.29 41.6366C116.789 39.6439 117.1 38.4593 117.1 37.5878C117.1 36.4647 116.726 35.7179 115.791 34.9692V34.8444H128.132L121.837 60.0301ZM125.263 19.9065C128.443 19.9065 130.685 22.2102 130.685 25.2032C130.689 25.9899 130.537 26.7696 130.238 27.4972C129.939 28.2249 129.498 28.8859 128.942 29.4422C128.386 29.9985 127.724 30.439 126.997 30.7382C126.269 31.0374 125.49 31.1893 124.703 31.1853C121.526 31.1853 119.281 28.8815 119.281 25.8886C119.269 25.0988 119.415 24.3147 119.711 23.5824C120.007 22.8502 120.447 22.1848 121.005 21.6256C121.563 21.0664 122.227 20.6248 122.958 20.3268C123.69 20.0289 124.474 19.8808 125.263 19.8911V19.9065Z" fill="#F51A51"/>
<path d="M168.201 60.0304C168.081 60.4141 168.016 60.813 168.009 61.2149C168.009 62.2747 168.508 62.96 169.568 62.96C170.123 62.9421 170.663 62.7692 171.125 62.4609V62.5857C169.255 65.2734 166.824 66.3254 164.146 66.3254C160.032 66.3254 158.226 63.895 158.226 60.591C158.226 59.7194 158.418 58.8478 158.61 57.9033L162.161 43.6316C162.396 42.8853 162.525 42.1099 162.545 41.3278C162.545 40.3315 162.161 39.7075 161.175 39.7075C159.241 39.7075 157.247 42.2628 155.876 47.498L151.389 65.6938H141.357L146.841 43.6335C147.07 42.9284 147.196 42.1938 147.214 41.4526C147.214 40.3929 146.778 39.7075 145.718 39.7075C143.787 39.7075 141.856 42.2628 140.485 47.6843L135.991 65.6938H125.895L131.877 41.6388C132.312 39.6461 132.625 38.4616 132.625 37.59C132.625 36.4669 132.241 35.7201 131.377 34.9714V34.8466H143.664L141.858 42.0132C144.161 37.0909 147.03 34.2246 151.33 34.2246C155.442 34.2246 157.249 37.0275 157.249 40.6425C157.238 41.0812 157.197 41.5187 157.126 41.9518C159.493 37.0275 162.484 34.2246 166.725 34.2246C170.9 34.2246 172.645 36.9123 172.645 40.4563C172.62 41.6308 172.473 42.7997 172.209 43.9445L168.201 60.0304Z" fill="#F51A51"/>
<path d="M173.427 54.9156C173.427 45.0054 181.592 34.1621 192.241 34.1621C197.352 34.1621 199.907 36.7808 199.907 40.4573C199.907 47.4359 192.366 50.427 183.642 50.8014C183.451 51.976 183.347 53.1632 183.331 54.3531C183.331 59.3447 185.698 61.7695 189.001 61.7695C191.805 61.7695 193.737 60.3987 196.104 57.2828H196.488C193.869 63.3284 189.385 66.3195 183.961 66.3195C177.798 66.3195 173.427 62.3934 173.427 54.9156ZM183.834 49.8665C189.07 48.2461 192.996 42.2024 192.996 37.278C192.996 36.032 192.56 35.2852 191.75 35.2852C188.953 35.2852 185.151 42.9454 183.842 49.8665H183.834Z" fill="#F51A51"/>
<path d="M200.88 64.1101C200.876 64.5423 200.743 64.9635 200.5 65.3205C200.256 65.6775 199.912 65.9545 199.511 66.1164C199.111 66.2783 198.671 66.3179 198.248 66.2302C197.824 66.1426 197.437 65.9315 197.133 65.6238C196.83 65.3161 196.624 64.9253 196.542 64.5009C196.461 64.0765 196.506 63.6374 196.674 63.239C196.841 62.8405 197.123 62.5006 197.484 62.262C197.844 62.0235 198.267 61.897 198.699 61.8985C199.281 61.905 199.836 62.1411 200.245 62.5554C200.653 62.9696 200.882 63.5284 200.88 64.1101ZM200.63 64.1101C200.626 63.7276 200.508 63.355 200.293 63.0392C200.077 62.7234 199.772 62.4784 199.418 62.3352C199.063 62.1919 198.674 62.1568 198.299 62.2342C197.925 62.3116 197.581 62.4981 197.312 62.7702C197.044 63.0422 196.861 63.3878 196.788 63.7633C196.715 64.1388 196.755 64.5274 196.902 64.8804C197.05 65.2334 197.298 65.5349 197.617 65.7469C197.935 65.959 198.309 66.0722 198.691 66.0722C198.947 66.0704 199.2 66.0183 199.436 65.9187C199.671 65.8191 199.885 65.674 200.064 65.4917C200.243 65.3095 200.385 65.0936 200.481 64.8566C200.577 64.6195 200.625 64.3658 200.623 64.1101H200.63ZM198.937 64.3021L199.661 65.3158H199.379L198.67 64.3155H198.192V65.3158H197.96V62.8757H198.784C199.319 62.8757 199.552 63.1848 199.552 63.5879C199.558 63.6756 199.547 63.7636 199.519 63.847C199.491 63.9303 199.447 64.0073 199.389 64.0734C199.331 64.1395 199.261 64.1934 199.182 64.232C199.103 64.2706 199.017 64.2932 198.929 64.2983L198.937 64.3021ZM198.2 64.0948H198.728C199.183 64.0948 199.323 63.849 199.323 63.5879C199.323 63.2846 199.11 63.1041 198.784 63.1041H198.208L198.2 64.0948Z" fill="#F51A51"/>
</svg>
