<svg width="201" height="91" viewBox="0 0 201 91" fill="none" xmlns="http://www.w3.org/2000/svg">
<path d="M91.5071 27.9108L89.4746 24.5098V52.5503L91.5071 55.7626V27.9108Z" fill="#EE2153"/>
<path d="M94.6888 33.2294L92.6562 29.8301V57.5774L94.6888 60.7896V33.2294Z" fill="#EE2153"/>
<path d="M86.293 47.5216L88.3255 50.7338V22.5888L86.293 19.1895V47.5216Z" fill="#EE2153"/>
<path d="M129.689 15.7656H127.656V77.7639H129.689V15.7656Z" fill="#EE2153"/>
<path d="M123.325 15.7656H121.292V77.7639H123.325V15.7656Z" fill="#EE2153"/>
<path d="M116.962 15.7656H114.928V77.7639H116.962V15.7656Z" fill="#EE2153"/>
<path d="M120.142 15.7656H118.109V77.7639H120.142V15.7656Z" fill="#EE2153"/>
<path d="M126.506 15.7656H124.474V77.7639H126.506V15.7656Z" fill="#EE2153"/>
<path d="M97.8704 38.5533L95.8379 35.1523V62.6081L97.8704 65.822V38.5533Z" fill="#EE2153"/>
<path d="M81.9612 15.7656H79.9287V77.7639H81.9612V15.7656Z" fill="#EE2153"/>
<path d="M72.4173 15.7656H70.3848V77.7639H72.4173V15.7656Z" fill="#EE2153"/>
<path d="M75.5989 15.7656H73.5664V77.7639H75.5989V15.7656Z" fill="#EE2153"/>
<path d="M101.053 35.1523L99.0205 38.55V65.822L101.053 62.5558V35.1523Z" fill="#EE2153"/>
<path d="M78.7815 15.7656H76.749V77.7639H78.7815V15.7656Z" fill="#EE2153"/>
<path d="M69.2347 15.7656H67.2021V77.7639H69.2347V15.7656Z" fill="#EE2153"/>
<path d="M104.236 29.8301L102.203 33.2159V60.7896L104.236 57.5353V29.8301Z" fill="#EE2153"/>
<path d="M107.416 24.5098L105.382 27.9209V55.7238L107.416 52.5166V24.5098Z" fill="#EE2153"/>
<path d="M83.1104 15.7656V42.4899L85.1445 45.7039V17.2673L84.2463 15.7656H83.1104Z" fill="#EE2153"/>
<path d="M110.599 19.1895L108.564 22.5787V50.7052L110.599 47.498V19.1895Z" fill="#EE2153"/>
<path d="M131.057 15.7656V77.7656H132.273V43.7539L158.052 77.7656H172.575V15.7656H156.075V48.5352L131.057 15.7656Z" fill="#030606"/>
<mask id="mask0_2048_37938" style="mask-type:luminance" maskUnits="userSpaceOnUse" x="28" y="15" width="145" height="63">
<path d="M28.8799 15.7656V77.7639H172.575V15.7656" fill="white"/>
</mask>
<g mask="url(#mask0_2048_37938)">
<path d="M45.5512 62.7072V15.7656H28.8799V69.1805C29.249 71.9007 30.9023 76.7864 37.8728 77.7639H65.9302V62.7072H45.5512Z" fill="#030606"/>
</g>
<path d="M173.612 76.1704H173.017V75.7676H174.661V76.1704H174.065V77.763H173.612V76.1704ZM175.083 75.7676H175.561L176.087 76.6102L176.611 75.7676H177.078V77.763H176.65V76.4147L176.099 77.2878H176.06L175.511 76.4147V77.763H175.083V75.7676Z" fill="black"/>
<path d="M113.779 15.7656V42.4899L111.746 45.7039V17.2673L112.643 15.7656H113.779Z" fill="#EE2153"/>
</svg>
