<svg width="201" height="91" viewBox="0 0 201 91" fill="none" xmlns="http://www.w3.org/2000/svg">
<path d="M65.1096 61.5705H43.2384V22.6725C43.2355 22.0192 43.1035 21.3729 42.8498 20.7708C42.5961 20.1687 42.2259 19.6227 41.7604 19.1643C41.2949 18.7059 40.7433 18.3441 40.1373 18.0998C39.5314 17.8554 38.8831 17.7333 38.2298 17.7405H28.8799V63.4624C28.8799 72.2109 33.4619 75.4915 41.8386 75.4915H70.0525V66.5243C70.0496 65.2133 69.5283 63.9566 68.6022 63.0285C67.6762 62.1004 66.4206 61.5763 65.1096 61.5705Z" fill="#27AAE1"/>
<path d="M167.959 17.8376H164.744C163.357 17.8888 162.024 18.3872 160.944 19.2584C159.864 20.1296 159.095 21.3268 158.751 22.6712L152.485 51.6178L151.446 56.4294L148.461 40.4525L146.394 29.3091L145.497 24.4646C145.221 22.658 144.569 20.9293 143.583 19.3905C143.147 18.6802 142.57 18.067 141.887 17.5892C141.204 17.1114 140.431 16.779 139.614 16.6128L139.286 16.5472C139.095 16.5029 138.901 16.4701 138.706 16.4488C138.315 16.3913 137.92 16.362 137.525 16.3613C137.119 16.3617 136.713 16.3909 136.311 16.4488L135.841 16.5254C135.66 16.5538 135.481 16.594 135.305 16.6457C135.075 16.6457 134.857 16.7659 134.66 16.8316H134.562C133.201 17.2964 132.043 18.2155 131.281 19.4342C130.281 20.9897 129.604 22.7301 129.291 24.5521L128.328 29.3966L124.402 48.9495L124.063 50.6554L123.09 55.4999L120.323 43.7988L115.315 22.6493C114.944 21.3054 114.155 20.1144 113.062 19.2493C111.968 18.3841 110.628 17.8897 109.235 17.8376H101.656L103.012 22.5837L108.95 43.4707L114.877 64.3687L116.233 69.1257C116.553 70.3175 116.989 71.4749 117.535 72.5813C118.009 73.7355 118.822 74.719 119.867 75.4022C120.911 76.0854 122.138 76.4363 123.385 76.4088C127.825 76.4088 129.192 73.4671 129.345 73.1281C130.208 71.6922 130.797 70.109 131.084 68.4586L134.255 52.8644L137.427 37.2702L140.095 51.8912L141.899 61.602L142.785 66.4137C143.089 68.2715 143.668 70.0737 144.502 71.7612C145.26 73.4609 146.581 74.8475 148.242 75.6871C148.495 75.8096 148.754 75.919 149.018 76.0151H149.204C149.369 76.0704 149.537 76.1142 149.707 76.1464C149.927 76.2016 150.15 76.2454 150.374 76.2776H150.484C150.796 76.3127 151.11 76.3309 151.424 76.3323C151.712 76.3492 152 76.3492 152.288 76.3323L152.955 76.2448C154.143 76.0729 155.263 75.5827 156.194 74.826C157.126 74.0693 157.836 73.0745 158.248 71.9471C158.434 71.3347 158.642 70.6129 158.86 69.8474C159.079 69.0819 159.407 68.0977 159.648 67.212L160.884 62.6081L167.314 38.5497L172.88 17.772L167.959 17.8376Z" fill="#662D91"/>
<path d="M98.0254 17.4217L97.074 17.3014H95.9805C94.1958 17.2899 92.4137 17.4363 90.6548 17.7388C90.283 17.7935 89.9221 17.881 89.5613 17.9685C78.6256 20.3524 73.2891 29.1228 73.2891 41.5894V75.4898H81.5783C82.8883 75.487 84.1439 74.9653 85.0702 74.0389C85.9966 73.1126 86.5183 71.857 86.5212 70.5469V45.2419C86.5212 35.892 88.1396 31.6052 96.8881 30.4788C97.6208 30.3804 98.3863 30.3039 99.2065 30.2601V17.5639L98.0254 17.4217Z" fill="#2B3990"/>
<path d="M160.829 72.5386V72.1777H163.421V72.5386H162.327V75.4475H161.901V72.5386H160.829Z" fill="#662D91"/>
<path d="M164.492 72.1777L165.487 74.9007L166.537 72.1777H167.128V75.4475H166.723V72.7245L165.684 75.4475H165.312L164.295 72.7245V75.4475H163.891V72.1777H164.492Z" fill="#662D91"/>
</svg>
