<svg width="201" height="91" viewBox="0 0 201 91" fill="none" xmlns="http://www.w3.org/2000/svg">
<path d="M100.881 4.85547C94.3302 4.85507 87.9266 6.79719 82.4798 10.4362C77.033 14.0752 72.7876 19.2477 70.2805 25.2996C67.7734 31.3514 67.1172 38.0108 68.395 44.4356C69.6727 50.8604 72.8269 56.762 77.4587 61.3941C82.0905 66.0262 87.992 69.1808 94.4167 70.4589C100.841 71.737 107.501 71.0812 113.553 68.5745C119.605 66.0678 124.778 61.8227 128.417 56.3761C132.056 50.9295 133.999 44.526 133.999 37.9754C133.999 29.1918 130.51 20.7679 124.299 14.5568C118.088 8.34565 109.664 4.856 100.881 4.85547ZM121.678 50.9017C121.678 51.0941 121.601 51.2785 121.465 51.4146C121.329 51.5506 121.145 51.6273 120.952 51.6278H120.114C119.786 51.6278 119.471 51.4989 119.237 51.2688L102.132 34.4911V50.9017C102.132 51.0941 102.055 51.2785 101.919 51.4146C101.783 51.5506 101.599 51.6273 101.406 51.6278H100.353C100.161 51.6273 99.9764 51.5506 99.8404 51.4146C99.7043 51.2785 99.6276 51.0941 99.6271 50.9017V32.409C99.6268 32.2937 99.6034 32.1796 99.5583 32.0735C99.5131 31.9673 99.4472 31.8713 99.3643 31.7912L92.4338 25.1716C92.2749 25.0202 92.0636 24.9361 91.8441 24.9369H90.3697C90.1502 24.9361 89.9389 25.0202 89.7799 25.1716L82.8494 31.7912C82.7666 31.8713 82.7006 31.9673 82.6555 32.0735C82.6103 32.1796 82.5869 32.2937 82.5867 32.409V50.9017C82.5861 51.0945 82.5092 51.2792 82.3727 51.4153C82.2362 51.5514 82.0513 51.6278 81.8585 51.6278H80.8074C80.615 51.6273 80.4306 51.5506 80.2945 51.4146C80.1585 51.2785 80.0818 51.0941 80.0813 50.9017V31.9556C80.0818 31.6442 80.1452 31.3361 80.2675 31.0496C80.3899 30.7632 80.5687 30.5044 80.7934 30.2887L88.0508 23.3642C88.6746 22.7664 89.5057 22.4335 90.3697 22.4355H91.8441C92.708 22.4335 93.5392 22.7664 94.1629 23.3642L100.881 29.7832L107.597 23.3642C108.22 22.7664 109.052 22.4335 109.916 22.4355H111.392C112.255 22.4334 113.086 22.7663 113.709 23.3642L120.972 30.2887C121.197 30.5044 121.376 30.7632 121.498 31.0496C121.62 31.3361 121.684 31.6442 121.684 31.9556L121.678 50.9017Z" fill="#E9E5D5"/>
<path d="M111.979 25.1761C111.821 25.0247 111.61 24.9405 111.391 24.9414H109.915C109.699 24.9429 109.493 25.0269 109.337 25.1761L102.691 31.5209L119.166 47.6987V32.4095C119.166 32.2941 119.143 32.1799 119.098 32.0737C119.053 31.9675 118.987 31.8716 118.903 31.7917L111.979 25.1761Z" fill="#E9E5D5"/>
<path d="M73.897 78.6738C73.0639 78.6738 72.2495 78.9209 71.5567 79.3838C70.864 79.8466 70.3241 80.5045 70.0052 81.2743C69.6864 82.044 69.603 82.891 69.7655 83.7081C69.9281 84.5252 70.3293 85.2758 70.9184 85.865C71.5075 86.4541 72.2581 86.8553 73.0752 87.0178C73.8924 87.1804 74.7393 87.0969 75.5091 86.7781C76.2788 86.4593 76.9367 85.9193 77.3996 85.2266C77.8624 84.5339 78.1095 83.7194 78.1095 82.8863C78.1095 81.7691 77.6657 80.6976 76.8757 79.9076C76.0857 79.1176 75.0142 78.6738 73.897 78.6738ZM73.897 85.3596C72.4929 85.3596 71.6043 84.2543 71.6043 82.8783C71.6043 81.5022 72.5009 80.3949 73.897 80.3949C75.2932 80.3949 76.1918 81.5002 76.1918 82.8783C76.1918 84.2563 75.2952 85.3496 73.897 85.3496V85.3596Z" fill="#E9E5D5"/>
<path d="M149.266 78.6738C148.433 78.6738 147.619 78.9209 146.926 79.3838C146.233 79.8466 145.693 80.5045 145.374 81.2743C145.056 82.044 144.972 82.891 145.135 83.7081C145.297 84.5252 145.698 85.2758 146.288 85.865C146.877 86.4541 147.627 86.8553 148.444 87.0178C149.262 87.1804 150.108 87.0969 150.878 86.7781C151.648 86.4593 152.306 85.9193 152.769 85.2266C153.232 84.5339 153.479 83.7194 153.479 82.8863C153.479 81.7691 153.035 80.6976 152.245 79.9076C151.455 79.1176 150.383 78.6738 149.266 78.6738ZM149.266 85.3596C147.862 85.3596 146.973 84.2543 146.973 82.8783C146.973 81.5022 147.87 80.3949 149.266 80.3949C150.662 80.3949 151.561 81.5002 151.561 82.8783C151.561 84.2563 150.66 85.3496 149.266 85.3496V85.3596Z" fill="#E9E5D5"/>
<path d="M65.1234 83.7454L61.258 78.9492H59.6191V86.7984H61.4726V82.0023L65.3361 86.7984H66.9769V78.9492H65.1234V83.7454Z" fill="#E9E5D5"/>
<path d="M111.95 83.7715L108.034 78.9492H106.445V86.7984H108.299V81.9762L112.216 86.7984H113.803V78.9492H111.95V83.7715Z" fill="#E9E5D5"/>
<path d="M124.57 80.566H126.945V86.7984H128.799V80.566H131.174V78.9492H124.57V80.566Z" fill="#E9E5D5"/>
<path d="M90.039 78.9492H88.1855V86.7984H90.039V78.9492Z" fill="#E9E5D5"/>
<path d="M82.6729 78.9492H80.8174V86.7984H86.3497V85.1817H82.6729V78.9492Z" fill="#E9E5D5"/>
<path d="M118.607 83.6612H122.152V82.0845H118.607V80.5259H122.601V78.9492H116.752V86.7984H122.641V85.2198H118.607V83.6612Z" fill="#E9E5D5"/>
<path d="M32.976 82.1306L31.0503 78.9492H28.8799V86.7984H30.7334V81.6312L32.976 85.3381L35.2166 81.6312V86.7984H37.0721V78.9492H34.8997L32.976 82.1306Z" fill="#E9E5D5"/>
<path d="M169.528 82.2791L172.28 78.9492H170.218L167.721 81.9782V78.9492H165.865V86.7984H167.721V84.608L168.447 83.6732L170.698 86.7984H172.88L169.528 82.2791Z" fill="#E9E5D5"/>
<path d="M163.057 81.7614C163.057 80.0062 161.653 78.9531 159.861 78.9531H156.188V86.7983H158.042V84.5738H159.733L161.31 86.7983H163.498L161.568 84.1906C162.025 83.9737 162.409 83.6286 162.674 83.1972C162.938 82.7659 163.071 82.2671 163.057 81.7614ZM159.887 82.9971H158.042V80.5258H159.887C160.947 80.5258 161.229 81.3021 161.229 81.7614C161.229 82.2208 160.947 82.9971 159.887 82.9971Z" fill="#E9E5D5"/>
<path d="M53.0879 83.6372H55.0938C55.0938 83.6372 55.1299 85.3763 53.14 85.3763C51.6717 85.3763 50.8192 84.261 50.8192 82.8689C50.8192 81.4146 51.7339 80.3595 53.14 80.3595C54.3075 80.3595 54.809 81.0816 54.809 81.0816L56.0326 79.8901C56.0326 79.8901 55.0577 78.6865 53.14 78.6865C52.5837 78.6744 52.0306 78.7734 51.5131 78.9779C50.9957 79.1823 50.5242 79.4881 50.1265 79.8772C49.7287 80.2663 49.4127 80.7309 49.197 81.2438C48.9813 81.7567 48.8701 82.3075 48.8701 82.8639C48.8701 83.4203 48.9813 83.9711 49.197 84.484C49.4127 84.9969 49.7287 85.4615 50.1265 85.8506C50.5242 86.2398 50.9957 86.5455 51.5131 86.75C52.0306 86.9544 52.5837 87.0535 53.14 87.0413C55.2182 87.0413 56.8931 85.6933 56.8931 83.3283V82.1067H53.0819L53.0879 83.6372Z" fill="#E9E5D5"/>
<path d="M140.323 83.7855L138.841 78.9492H137.254L135.772 83.7855L134.414 78.9492H132.566L134.903 86.7984H136.492L138.047 81.8618L139.603 86.7984H141.19L143.529 78.9492H141.679L140.323 83.7855Z" fill="#E9E5D5"/>
<path d="M42.7192 78.9492L39.3652 86.7984H41.3371L41.9088 85.3381H45.1062L45.6719 86.7984H47.6477L44.3139 78.9492H42.7192ZM42.5065 83.8116L43.5095 81.236L44.5125 83.8116H42.5065Z" fill="#E9E5D5"/>
<path d="M95.5414 78.9492L92.1875 86.7984H94.1633L94.733 85.3381H97.9305L98.5062 86.7984H100.482L97.1482 78.9492H95.5414ZM95.3308 83.8116L96.3338 81.236L97.3367 83.8116H95.3308Z" fill="#E9E5D5"/>
</svg>
