<svg width="201" height="91" viewBox="0 0 201 91" fill="none" xmlns="http://www.w3.org/2000/svg">
<path d="M131.88 35.0099L134.347 30.3099L150.013 25.9766L167.313 28.3432L194.58 26.4766L195.813 30.3099L193.213 35.0099L176.813 54.6432L173.713 55.7432L161.113 55.5099L139.013 55.2432L131.88 35.0099Z" fill="white"/>
<path d="M75.2132 22.9082L52.9799 58.8415H64.2132L67.5465 53.1749H89.7799L92.9799 58.8415H105.813L84.8132 22.9082H75.2132ZM79.0132 34.0082L85.6799 45.6082H71.9799L79.0132 34.0082ZM57.1799 22.9082H41.1465L29.0465 44.6415L16.8132 22.9082H0.879883V58.8415H11.6132V33.4082L26.5465 58.8415H31.4799L46.2799 33.4082V58.8415H50.1132L57.1465 47.7415V22.9082H57.1799ZM123.713 22.9082L112.613 44.2749L100.013 22.9082H87.5465L108.647 58.8415H115.68L135.547 22.9082H123.713Z" fill="black"/>
<path d="M195.813 30.3082L200.013 22.9082H138.547L134.347 30.3082H161.88L170.247 44.3749L177.68 30.3082H195.813Z" fill="#003DA6"/>
<path d="M167.68 54.1411L156.447 35.0078H149.28V53.7745H142.114V35.0078H131.88L118.547 58.8411H179.88L193.214 35.0078H182.847L172.247 54.1411H167.68Z" fill="#003DA6"/>
<path d="M1.01321 61.6749H5.07988L7.04655 67.2415L8.91322 61.6749H12.9799V70.0749H10.3799V63.7749H10.2465L8.01322 70.0749H5.67988L3.57988 63.7749V70.0749H0.879883V61.6749H1.01321ZM19.5132 61.4082C22.4799 61.4082 24.9465 62.4082 24.9465 65.8415C24.9465 69.2749 22.4799 70.2749 19.5132 70.2749C16.5466 70.2749 14.0799 69.1749 14.0799 65.8415C14.0799 62.5415 16.6799 61.4082 19.5132 61.4082ZM19.5132 68.3415C20.8799 68.3415 21.9799 67.2415 21.9799 65.8749C21.9799 64.5082 20.8799 63.4082 19.5132 63.4082C18.2799 63.2749 17.1799 64.1415 17.0465 65.3749C17.0465 65.5082 17.0465 65.7415 17.0465 65.8749C16.9132 67.2415 17.9132 68.3415 19.2799 68.3415C19.4132 68.4749 19.4132 68.4749 19.5132 68.3415ZM25.4465 61.6749H34.3466V63.6415H31.2465V70.0749H28.5466V63.6415H25.4465V61.6749ZM40.1466 61.4082C43.1132 61.4082 45.5799 62.4082 45.5799 65.8415C45.5799 69.2749 43.1132 70.2749 40.1466 70.2749C37.1799 70.2749 34.7132 69.1749 34.7132 65.8415C34.7132 62.5415 37.1799 61.4082 40.1466 61.4082ZM40.1466 68.3415C41.5132 68.3415 42.6132 67.2415 42.6132 65.8749C42.6132 64.5082 41.5132 63.4082 40.1466 63.4082C38.7799 63.4082 37.6799 64.5082 37.6799 65.8749C37.6799 67.2415 38.7799 68.3415 40.1466 68.3415ZM46.8132 61.6749H53.4799C55.4466 61.6749 56.3132 62.5415 56.3132 64.0082C56.4466 64.8749 55.8132 65.7415 54.9466 65.9749V66.1082C55.5799 66.3415 55.9466 66.9749 55.9466 67.5749C55.9466 68.4415 56.0799 69.4415 56.4466 70.1749H53.3465C53.2132 69.8082 53.1132 69.4415 53.1132 68.9415C53.1132 67.5749 52.7465 67.4749 52.0132 67.4749H49.5466V70.3082H46.6799V61.6749H46.8132ZM49.5132 65.3749H52.2132C52.7132 65.5082 53.2132 65.1415 53.2132 64.6415C53.2132 64.5082 53.2132 64.5082 53.2132 64.4082C53.2132 63.9082 52.8466 63.4082 52.2132 63.5415H52.0799H49.4799L49.5132 65.3749ZM63.4799 64.1415C63.3466 63.6415 62.9799 63.1415 61.6132 63.1415C60.7466 63.1415 60.2466 63.3749 60.2466 64.0082C60.2466 64.2415 60.4799 64.3749 60.8799 64.5082C61.6132 64.6415 63.7132 64.8749 64.4466 65.0082C65.9132 65.2415 66.9132 65.8749 66.9132 67.3415C66.9132 70.1749 63.3466 70.1749 62.1132 70.1749C59.2799 70.1749 57.3132 69.6749 57.0466 67.3415H60.2466C60.3799 67.9749 60.6132 68.3415 62.2132 68.3415C62.9466 68.3415 63.6799 68.1082 63.6799 67.4749C63.6799 67.1082 63.3132 66.8415 62.3132 66.7415L59.4799 66.3749C57.7466 66.1415 57.1466 65.2749 57.1466 64.0415C57.1466 62.8082 57.8799 61.4415 61.4799 61.4415C64.5799 61.4415 66.2799 62.1749 66.5466 64.1415C66.6799 64.0082 63.4799 64.1415 63.4799 64.1415ZM68.0466 61.6749H74.2132C76.4466 61.6749 77.4132 62.9082 77.4132 64.5082C77.5466 65.9749 76.4132 67.2082 75.0799 67.3415C74.9466 67.3415 74.7132 67.3415 74.5799 67.3415H71.1132V70.1749H68.2799L68.0466 61.6749ZM70.8799 65.5082H73.3465C74.2132 65.5082 74.4466 65.2749 74.4466 64.4082C74.4466 63.5415 74.2132 63.4082 73.3465 63.4082H70.8799V65.5082ZM83.4799 61.4082C86.4466 61.4082 88.9132 62.4082 88.9132 65.8415C88.9132 69.2749 86.4466 70.2749 83.4799 70.2749C80.5132 70.2749 78.0466 69.1749 78.0466 65.8415C78.0466 62.5415 80.5132 61.4082 83.4799 61.4082ZM83.4799 68.3415C84.8466 68.3415 86.0799 67.2415 86.0799 65.8749C86.0799 64.5082 84.9799 63.2749 83.6132 63.2749C82.2466 63.2749 81.0132 64.3749 81.0132 65.7415C80.8799 66.9749 81.7466 68.0749 82.9799 68.2082C83.1132 68.4749 83.2132 68.4749 83.4799 68.3415ZM90.1465 61.6749H96.8132C98.7799 61.6749 99.6465 62.5415 99.6465 64.0082C99.7799 64.8749 99.1466 65.7415 98.2799 65.9749V66.1082C98.9132 66.3415 99.2799 66.9749 99.2799 67.5749C99.2799 68.4415 99.4132 69.4415 99.7799 70.1749H96.6799C96.5466 69.8082 96.4466 69.4415 96.4466 68.9415C96.4466 67.5749 96.0799 67.4749 95.3466 67.4749H92.8799V70.3082H90.0466L90.1465 61.6749ZM92.9799 65.3749H95.5799C96.0799 65.5082 96.5799 65.1415 96.5799 64.6415C96.5799 64.5082 96.5799 64.5082 96.5799 64.4082C96.5799 63.9082 96.2132 63.4082 95.5799 63.5415H95.4466H92.8466V65.4082H92.9799V65.3749ZM100.147 61.6749H109.047V63.6415H105.847V70.0749H103.013V63.6415H99.8132L100.147 61.6749ZM115.58 64.1415C115.447 63.6415 115.08 63.1415 113.713 63.1415C112.847 63.1415 112.347 63.3749 112.347 64.0082C112.347 64.2415 112.58 64.3749 112.98 64.5082C113.713 64.6415 115.813 64.8749 116.547 65.0082C118.013 65.2415 119.013 65.8749 119.013 67.3415C119.013 70.1749 115.447 70.1749 114.213 70.1749C111.38 70.1749 109.413 69.6749 109.147 67.3415H112.347C112.48 67.9749 112.713 68.3415 114.313 68.3415C115.047 68.3415 115.78 68.1082 115.78 67.4749C115.78 67.1082 115.413 66.8415 114.413 66.7415L111.58 66.3749C109.847 66.1415 109.247 65.2749 109.247 64.0415C109.247 62.8082 109.98 61.4415 113.58 61.4415C116.68 61.4415 118.38 62.1749 118.647 64.1415H115.58ZM124.713 61.6749H127.913L131.747 66.8749H131.88V61.6749H134.58V70.0749H131.38L127.413 64.8749H127.28V70.0749H124.58L124.713 61.6749ZM136.18 61.6749H144.58V63.5415H139.013V65.0082H144.213V66.7415H139.013V68.2082H144.58V70.0749H136.18V61.6749ZM144.947 61.6749H153.847V63.6415H150.647V70.0749H147.813V63.6415H144.613L144.947 61.6749ZM153.847 61.6749H156.547L157.913 67.3415H158.047L159.513 61.6749H161.847L163.313 67.3415H163.447L164.813 61.6749H167.513L165.047 69.9415H162.213L160.847 64.6415H160.613L159.247 69.9415H156.547L153.847 61.6749ZM172.98 61.4082C175.947 61.4082 178.413 62.4082 178.413 65.8415C178.413 69.2749 175.947 70.2749 172.98 70.2749C170.013 70.2749 167.547 69.1749 167.547 65.8415C167.547 62.5415 170.013 61.4082 172.98 61.4082ZM172.98 68.3415C174.347 68.3415 175.447 67.2415 175.447 65.8749C175.447 64.5082 174.347 63.4082 172.98 63.4082C171.613 63.4082 170.513 64.5082 170.513 65.8749C170.38 67.1082 171.247 68.2082 172.48 68.3415C172.613 68.4749 172.847 68.4749 172.98 68.3415ZM179.647 61.6749H186.313C188.28 61.6749 189.147 62.5415 189.147 64.0082C189.28 64.8749 188.647 65.7415 187.78 65.9749V66.1082C188.413 66.3415 188.78 66.9749 188.88 67.5749C188.88 68.4415 189.013 69.4415 189.38 70.1749H186.28C186.147 69.8082 186.047 69.4415 186.047 68.9415C186.047 67.5749 185.68 67.4749 184.947 67.4749H182.48V70.3082H179.647V61.6749ZM182.48 65.3749H185.08C185.58 65.5082 186.08 65.1415 186.08 64.6415C186.08 64.5082 186.08 64.5082 186.08 64.4082C186.08 63.9082 185.713 63.4082 185.08 63.5415H184.947H182.347V65.4082H182.48V65.3749ZM190.513 61.6749H193.347V64.8749L196.913 61.6749H200.613L196.913 64.8749L200.88 70.0749H197.18L194.58 66.7415L193.347 67.8415V70.0749H190.513V61.6749Z" fill="black"/>
</svg>
