<svg width="201" height="91" viewBox="0 0 201 91" fill="none" xmlns="http://www.w3.org/2000/svg">
<path d="M19.3466 18.1895H182.378C185.921 18.1895 188.793 21.0766 188.793 24.638V67.6625C188.793 71.2239 185.921 74.111 182.378 74.111H19.3466C15.8037 74.111 12.9316 71.2239 12.9316 67.6625V24.638C12.9316 21.0766 15.8037 18.1895 19.3466 18.1895Z" fill="#FED96C"/>
<path d="M76.6447 66.7933H54.1738V64.5062C54.8359 64.4485 55.6499 64.3499 56.6158 64.2106C57.5817 64.0712 58.2379 63.9264 58.5845 63.776C59.3096 63.4789 59.824 63.0815 60.1387 62.5713C60.4533 62.0611 60.6079 61.4175 60.6079 60.6459V29.5695L46.3647 66.1345H42.6886C42.5135 65.4928 42.0807 64.2138 41.3903 62.2976C40.6998 60.3814 40.1394 58.8453 39.7089 57.6892L29.243 29.1006V54.3954C29.243 56.8159 29.3989 58.6587 29.7218 59.9212C30.0447 61.1837 30.5604 62.0996 31.2801 62.6868C31.7616 63.0994 32.6317 63.4872 33.8794 63.8613C35.1271 64.2353 36.0068 64.4471 36.513 64.5049V66.7933H18.6484V64.5062C19.1368 64.4485 19.9317 64.3137 21.033 64.1088C22.1343 63.9039 23.0359 63.5463 23.7391 63.0375C24.5217 62.4938 25.0479 61.5719 25.3179 60.2719C25.5879 58.9718 25.7247 57.1198 25.7283 54.7159V34.112C25.7283 32.8605 25.5737 31.8222 25.2604 30.9902C24.9847 30.2125 24.498 29.528 23.8554 29.0139C23.1564 28.4442 22.3377 28.0416 21.4612 27.8367C20.6419 27.6645 19.8118 27.5487 18.9768 27.4902V25.2031H38.1301L48.2855 52.5911L56.9496 30.3493C57.2837 29.3909 57.5655 28.4148 57.7937 27.4255C58.0674 26.2992 58.2138 25.5579 58.2329 25.2073H76.5791V27.4943C75.9241 27.5356 75.2719 27.6132 74.6254 27.7267C73.9616 27.8362 73.3064 27.9934 72.6649 28.197C71.9084 28.4487 71.4049 28.8517 71.16 29.4004C70.9116 29.972 70.7884 30.5906 70.7989 31.2143V60.6666C70.78 61.2786 70.9037 61.8866 71.16 62.442C71.4008 62.9247 71.9043 63.3345 72.6649 63.6894C73.0562 63.8654 73.6938 64.029 74.5803 64.1844C75.4668 64.3398 76.1495 64.4512 76.6324 64.509L76.6447 66.7933Z" fill="#020305"/>
<path d="M103.531 59.7808C102.831 60.919 102.005 61.9737 101.069 62.9246C100.097 63.9169 98.9917 64.7678 97.7854 65.4523C96.5398 66.1702 95.2134 66.7357 93.8343 67.137C92.5009 67.5138 90.9691 67.7022 89.2389 67.7022C86.3631 67.7022 83.8787 67.2897 81.7855 66.4645C79.6923 65.6394 77.9667 64.5355 76.6086 63.1529C75.2442 61.762 74.2029 60.085 73.5591 58.2419C72.8736 56.267 72.5334 54.1876 72.5536 52.096C72.5466 50.1308 72.9182 48.1829 73.6481 46.3598C74.368 44.5501 75.4228 42.8939 76.7564 41.4791C78.0761 40.091 79.7429 38.9674 81.7568 38.1083C83.7706 37.2493 86.0229 36.8193 88.5138 36.8184C91.2336 36.8184 93.4718 37.1512 95.2284 37.8168C96.9755 38.481 98.427 39.3983 99.5694 40.5742C100.673 41.6771 101.504 43.0259 101.992 44.5115C102.503 46.047 102.759 47.6564 102.75 49.2753V51.1773H83.0099C83.0099 55.1848 83.7793 58.2318 85.3179 60.3185C86.8566 62.4052 89.2995 63.4518 92.6468 63.4582C94.4072 63.4789 96.1313 62.9551 97.5856 61.9578C99.0592 60.9418 100.328 59.6543 101.325 58.1635L103.531 59.7808ZM92.4265 48.5877C92.4265 47.4132 92.3668 46.2099 92.2473 44.9777C92.131 43.7468 91.9231 42.7415 91.6344 41.9604C91.3006 41.039 90.8477 40.3459 90.2663 39.8796C89.6849 39.4134 88.957 39.1714 88.0773 39.1714C86.5724 39.1714 85.3713 39.9347 84.4738 41.4612C83.5763 42.9877 83.0884 45.4026 83.0099 48.706L92.4265 48.5877Z" fill="#020305"/>
<path d="M110.875 23.2012H178.875C181.237 23.2012 183.152 25.1259 183.152 27.5002V64.6029C183.152 66.9772 181.237 68.9019 178.875 68.9019H110.875C108.513 68.9019 106.599 66.9772 106.599 64.6029V27.5002C106.599 25.1259 108.513 23.2012 110.875 23.2012Z" fill="#020305"/>
<path d="M111.688 29.3027V37.2792H121.707V61.4532H132.473V37.2805H142.262V29.3041L111.688 29.3027Z" fill="white"/>
<path d="M155.011 29.3027H143.268L155.704 61.4546H167.115L179.433 29.3027H167.666L161.559 50.1831L155.011 29.3027Z" fill="white"/>
<g opacity="0.5">
<path d="M186.614 19.774C185.346 18.6963 183.737 18.107 182.076 18.1114H19.2949C15.752 18.1114 12.8799 20.9984 12.8799 24.5598V62.727C83.5037 30.1158 188.742 46.2585 188.742 46.2585V24.5598C188.742 22.7329 187.969 20.9923 186.614 19.774Z" fill="url(#paint0_linear_2048_37878)"/>
</g>
<path d="M188.88 25.1241H188.598C188.598 21.3683 185.249 19.3302 181.456 19.3302L19.1195 19.2106C15.4995 19.2106 13.3434 22.8948 13.3434 24.299H12.9863C12.9863 22.0037 15.1041 18.1406 19.2385 18.1406H182.254C185.925 18.1406 188.88 20.5418 188.88 25.1241Z" fill="url(#paint1_linear_2048_37878)"/>
<defs>
<linearGradient id="paint0_linear_2048_37878" x1="100.909" y1="47.9843" x2="100.82" y2="43.6975" gradientUnits="userSpaceOnUse">
<stop stop-color="#F7FBFF" stop-opacity="0.4"/>
<stop offset="1" stop-color="white" stop-opacity="0.1"/>
</linearGradient>
<linearGradient id="paint1_linear_2048_37878" x1="100.941" y1="18.1485" x2="100.941" y2="25.1321" gradientUnits="userSpaceOnUse">
<stop stop-color="#F7FBFF" stop-opacity="0.6"/>
<stop offset="0.67" stop-color="white" stop-opacity="0.03"/>
<stop offset="1" stop-color="white" stop-opacity="0"/>
</linearGradient>
</defs>
</svg>
