<svg width="201" height="92" viewBox="0 0 201 92" fill="none" xmlns="http://www.w3.org/2000/svg">
<path d="M83.7392 5.88696L70.9892 1.35742L77.3591 7.92879V52.6965L70.9092 59.313H97.0673L83.7383 53.1006L83.7392 5.88696Z" fill="#EB7C00"/>
<path d="M124.888 7.9288L131.257 1.35742L118.508 5.88696L124.888 7.9288Z" fill="#EB7C00"/>
<path d="M105.179 59.3128H131.338L118.509 53.1003L118.508 5.88672L101.124 29.5882L83.7393 5.88672L90.66 26.9393L101.124 41.2066L111.587 26.9393V52.6979L105.179 59.3128Z" fill="#EB7C00"/>
<path d="M118.509 53.1003L131.338 59.3128L124.888 52.6962V7.92855L118.508 5.88672L118.509 53.1003Z" fill="#EC9700"/>
<path d="M101.124 29.5884L118.508 5.88696L131.257 1.35742H113.305L101.124 17.9657L88.9417 1.35742H70.9893L83.7392 5.88696L101.124 29.5884Z" fill="#EC9700"/>
<path d="M83.7383 53.1003L97.0672 59.3128L90.6599 52.6979V26.9393L83.7391 5.88672L83.7383 53.1003Z" fill="#EC9700"/>
<path d="M63.9736 68.0078H67.3421L69.4128 71.4086L71.4853 68.0078H74.8537V77.685H71.6369V72.8877L69.4128 76.3312H69.3583L67.1352 72.8877V77.685H63.9736V68.0078Z" fill="black"/>
<path d="M77.0566 68.0078H80.2871V77.685H77.0566V68.0078Z" fill="black"/>
<path d="M82.3691 68.0078H85.5996V74.9202H90.1431V77.685H82.3691V68.0078Z" fill="black"/>
<path d="M91.9297 68.0078H95.1602V77.685H91.9297V68.0078Z" fill="black"/>
<path d="M99.6377 70.7445H96.793V68.0078H105.713V70.7445H102.868V77.685H99.6377V70.7445Z" fill="black"/>
<path d="M109.425 67.9375H112.629L116.702 77.6846H113.194L112.684 76.3845H109.301L108.803 77.6846H105.352L109.425 67.9375ZM111.887 74.0903L111.004 71.7398L110.12 74.0903H111.887Z" fill="black"/>
<path d="M117.951 68.0078H122.673C124.386 68.0078 125.476 68.4341 126.153 69.1161C126.733 69.6967 127.037 70.4154 127.037 71.4111V71.4393C127.037 72.8494 126.305 73.8264 125.132 74.3976L127.385 77.685H123.698L121.876 74.9193H121.184V77.685H117.951V68.0078ZM122.577 72.6115C123.35 72.6115 123.82 72.2705 123.82 71.6737V71.6464C123.82 71.0241 123.337 70.7197 122.591 70.7197H121.182V72.6141L122.577 72.6115Z" fill="black"/>
<path d="M131.381 74.2561L127.736 68.0078H131.354L133.011 71.1869L134.682 68.0078H138.258L134.612 74.2152V77.685H131.376L131.381 74.2561Z" fill="black"/>
<path d="M136.949 65.113H65.3389L68.3786 62.0098H133.923L136.949 65.113Z" fill="#CF0025"/>
<path d="M63.8799 79.8457H67.3224V84.1357H70.7325V79.8457H74.175V91.1461H70.7325V86.6473H67.3224V91.1461H63.8799V79.8457Z" fill="black"/>
<path d="M76.5166 79.8457H79.9574V91.1461H76.5166V79.8457Z" fill="black"/>
<path d="M89.3928 82.9708C88.7235 82.2538 87.9266 81.969 86.875 81.969C86.0141 81.969 85.4275 82.2538 85.4275 82.7772C85.4275 84.6008 92.0409 82.9861 92.0409 87.5907C92.0409 89.4586 90.4469 91.3572 86.9261 91.3572C84.7744 91.3572 82.8782 90.8781 81.6035 89.1602L83.6752 87.6495C84.0479 88.0864 84.512 88.436 85.0347 88.6735C85.5573 88.911 86.1257 89.0306 86.6996 89.0238C88.0543 89.0238 88.5958 88.5293 88.5958 88.0357C88.5958 86.317 82.0786 87.6324 82.0786 83.357C82.0786 81.1404 84.037 79.6348 86.9235 79.6348C88.612 79.6348 90.3337 80.1139 91.4014 81.4132L89.3928 82.9708Z" fill="black"/>
<path d="M95.7826 82.2661H92.4678V79.8457H102.539V82.2661H99.2242V91.1461H95.7826V82.2661Z" fill="black"/>
<path d="M108.689 91.3566C105.104 91.3566 102.937 89.0991 102.937 85.4971C102.937 81.8951 105.104 79.6367 108.689 79.6367C112.274 79.6367 114.442 81.8942 114.442 85.4971C114.442 89.0999 112.275 91.3566 108.689 91.3566ZM106.571 85.4971C106.571 88.5313 107.507 89.1152 108.689 89.1152C109.853 89.1152 110.808 88.5313 110.808 85.4971C110.808 82.6266 110.028 81.8797 108.689 81.8797C107.303 81.8797 106.571 82.7613 106.571 85.4971Z" fill="black"/>
<path d="M115.861 79.8457H121.63C125.646 79.8457 126.427 81.636 126.427 83.1041C126.427 84.5091 125.491 85.4512 124.149 85.9448L126.395 91.1453H122.571L120.868 86.5117H119.304V91.1453H115.861V79.8457ZM119.304 84.3642H121.092C122.08 84.3642 122.795 83.9601 122.795 83.2286C122.795 82.5107 122.3 82.0018 121.232 82.0018H119.304V84.3642Z" fill="black"/>
<path d="M130.682 86.3472L126.314 79.8457H130.219L132.737 83.6872L135.143 79.8457H138.267L134.122 86.0795V91.1461H130.682V86.3472Z" fill="black"/>
<path d="M137.062 90.4835C137.062 90.6384 137.009 90.7886 136.912 90.9087C136.814 91.0287 136.678 91.1112 136.527 91.1419C136.375 91.1726 136.217 91.1497 136.081 91.077C135.944 91.0044 135.837 90.8866 135.778 90.7437C135.718 90.6007 135.71 90.4416 135.755 90.2934C135.8 90.1452 135.895 90.0172 136.023 89.9311C136.152 89.8451 136.306 89.8064 136.46 89.8216C136.614 89.8368 136.757 89.9051 136.867 90.0147C136.929 90.0754 136.979 90.1483 137.013 90.2289C137.046 90.3096 137.063 90.3962 137.062 90.4835ZM136.967 90.4835C136.968 90.3508 136.923 90.2217 136.84 90.1183C136.757 90.015 136.64 89.9438 136.51 89.9168C136.381 89.8899 136.245 89.9089 136.128 89.9706C136.01 90.0323 135.918 90.1329 135.866 90.2552C135.815 90.3775 135.807 90.514 135.845 90.6413C135.882 90.7687 135.963 90.879 136.073 90.9535C136.182 91.0281 136.315 91.0621 136.447 91.05C136.579 91.0378 136.703 90.9801 136.797 90.8868C136.851 90.8349 136.895 90.7723 136.924 90.7029C136.953 90.6336 136.968 90.5589 136.967 90.4835ZM136.712 90.8706H136.586L136.437 90.5407H136.224V90.8706H136.111V90.0973H136.437C136.473 90.0944 136.509 90.099 136.543 90.1107C136.577 90.1225 136.608 90.1411 136.635 90.1656C136.655 90.1851 136.672 90.2085 136.683 90.2344C136.694 90.2603 136.7 90.2882 136.701 90.3165C136.7 90.3586 136.687 90.3998 136.664 90.435C136.637 90.4743 136.598 90.5028 136.552 90.5151L136.712 90.8706ZM136.224 90.4503H136.425C136.446 90.452 136.467 90.4495 136.487 90.4427C136.507 90.436 136.526 90.4252 136.541 90.4111C136.554 90.3984 136.564 90.3832 136.571 90.3665C136.577 90.3498 136.58 90.3319 136.58 90.3139C136.58 90.2975 136.577 90.2812 136.569 90.2664C136.562 90.2516 136.552 90.2387 136.539 90.2286C136.509 90.2074 136.473 90.1966 136.437 90.198H136.224V90.4503Z" fill="black"/>
</svg>
