<svg width="201" height="91" viewBox="0 0 201 91" fill="none" xmlns="http://www.w3.org/2000/svg">
<path d="M144.123 46.8113L100.005 90.1875L56.8799 46.8113V0.1875H144.123V46.8113Z" fill="#C11E24"/>
<path d="M142.428 46.5091L100.021 88.2051L58.5791 46.5091V1.69727H142.428V46.5091Z" fill="white"/>
<path d="M140.232 45.9467L100.044 85.4583L60.7705 45.9467V3.48242H140.232V45.9467Z" fill="#191C40"/>
<path d="M114.358 68.7773L99.9389 82.9593L85.8457 68.7773H114.358Z" fill="white"/>
<path d="M111.766 69.7891L100.047 81.3092L88.5996 69.7891H111.766Z" fill="#C11E24"/>
<path d="M91.5102 28.4032H82.3553L82.3863 16.8249L77.8089 25.5086L73.274 16.8249L73.2547 28.4032H64.1152L64.1308 6.75977H73.2779L77.8205 15.4668L82.3863 6.75977H91.5141L91.5102 28.4032Z" fill="white"/>
<path d="M112.989 28.4032H93.3024L93.2559 6.78693L102.465 6.75977L102.457 23.7703H113.005L112.989 28.4032Z" fill="white"/>
<path d="M128.25 13.453L128.172 12.8788C127.916 11.901 126.943 11.416 125.263 11.416H123.944L123.928 15.494H125.247C127.241 15.494 128.238 14.8111 128.25 13.453ZM128.231 21.1241L128.126 20.22C127.815 19.0637 126.857 18.4817 125.247 18.4817H123.928L123.936 23.7704H125.247C127.245 23.7704 128.238 22.8896 128.231 21.1241ZM137.397 22.6917C137.385 26.502 135.384 28.4071 131.392 28.4071H114.781L114.801 6.76367H131.411C134.658 6.76367 136.582 7.89667 137.18 10.1627C137.316 10.6787 137.382 11.2452 137.378 11.8699C137.378 15.2767 135.915 16.9801 132.986 16.9801C135.17 16.9801 136.536 18.0316 137.094 20.1385C137.288 20.8641 137.385 21.7139 137.397 22.6917Z" fill="white"/>
<path d="M72.8813 36.5915H70.2783L67.4271 33.8754C67.0586 33.5301 66.6901 33.1071 66.3177 32.6066C66.4845 33.0024 66.5698 33.3399 66.5698 33.6154V36.5915H63.9746V30.4492H66.9965L69.4249 32.6997C69.9098 33.1459 70.2745 33.5378 70.5227 33.8793C70.3598 33.3516 70.2783 32.8161 70.2783 32.2651V30.4492H72.8813V36.5915Z" fill="white"/>
<path d="M82.5372 35.1209V36.5915H74.7012V30.4492H82.5372V31.8655H77.8356V32.7579H81.6372V34.1198H77.8356V35.1209H82.5372Z" fill="white"/>
<path d="M89.0185 31.9198V36.5915H85.9928V31.9198H83.832V30.4492H91.1832V31.9198H89.0185Z" fill="white"/>
<path d="M106.142 30.4453L103.38 36.5876H100.691L99.2329 33.2002L97.8596 36.5876H95.0588L92.2891 30.4453H95.2993L96.754 33.9801L98.1777 30.4453H100.688L102.235 33.9879L103.694 30.4453H106.142Z" fill="white"/>
<path d="M111.394 35.291C111.933 35.291 112.321 35.1513 112.558 34.8719C112.795 34.5964 112.915 34.0881 112.915 33.347C112.915 32.2839 112.426 31.7484 111.456 31.7484C110.409 31.7484 109.885 32.3576 109.885 33.576C109.885 34.7167 110.386 35.291 111.394 35.291ZM111.41 36.6878C109.943 36.6878 108.749 36.4007 107.825 35.8264C106.902 35.2522 106.44 34.4878 106.44 33.5255C106.44 32.6059 106.883 31.8493 107.767 31.2518C108.648 30.6542 109.874 30.3516 111.441 30.3516C112.892 30.3516 114.071 30.6348 114.986 31.2013C115.898 31.7639 116.356 32.5167 116.356 33.4596C116.356 34.4335 115.894 35.2173 114.975 35.8032C114.051 36.393 112.864 36.6878 111.41 36.6878Z" fill="white"/>
<path d="M120.903 32.9286H122.272C122.671 32.9286 122.993 32.8782 123.242 32.7773L123.602 32.3427C123.602 31.9508 123.195 31.7529 122.377 31.7529H120.903V32.9286ZM126.981 36.5915H123.436L121.915 34.244H120.903V36.5915H117.71V30.4492H123.145C124.351 30.4492 125.278 30.6161 125.946 30.9459C126.613 31.2757 126.942 31.7141 126.942 32.2574C126.942 32.6066 126.822 32.9248 126.574 33.1964C126.333 33.468 125.837 33.7085 125.092 33.9103L126.981 36.5915Z" fill="white"/>
<path d="M137.886 36.5915H134.387L132.587 34.2712L131.508 35.1752V36.5915H128.49V30.4492H131.508V32.9868L134.379 30.4492H137.253L134.619 32.6958L137.886 36.5915Z" fill="white"/>
<path d="M84.5036 66.3593L83.5299 65.5018L82.1567 63.8217L80.6787 41.6738L97.9878 39.1168V38.4766L102.899 38.4804L121.286 41.1345L121.624 61.5828L115.894 67.2478L87.0057 67.2789L84.5036 66.3593Z" fill="white"/>
<path d="M140.213 45.9071L140.244 38.4805H102.81L110.871 51.9601L111.608 52.0532L112.034 52.6624V53.2444L112.558 53.3375L113.016 53.9778V54.5288L113.536 54.6219L114.055 55.2V56.4572C114.055 56.4572 115.188 57.4971 116.193 57.8928C116.903 58.1683 116.988 59.3013 117.392 59.9105C117.942 60.768 118.676 61.1328 118.524 61.6217C118.156 62.9409 116.814 65.141 115.557 65.2651C115.557 65.2651 112.442 65.269 110.603 65.269L110.626 67.2789L118.427 67.3255L140.213 45.9071Z" fill="#C21E24"/>
<path d="M97.9882 38.4375H78.9179L78.7744 62.5643L82.7739 67.267H87.0565C86.5484 66.4173 85.9742 65.455 85.7958 65.164L83.379 65.1678C83.3752 59.1691 85.4273 55.8322 87.844 55.1881C88.1815 55.1299 88.0263 53.4731 87.5958 52.9842L86.1876 52.957L86.0984 52.5612L87.2311 50.109L87.0721 49.4338L82.8825 49.4377L86.3389 47.0204C86.5173 40.6569 93.0383 40.1642 96.9796 42.791C99.3032 44.3508 99.4933 47.4084 99.3071 49.5541L98.6981 49.5813C98.6981 49.5813 98.2985 51.9132 99.342 51.9094H103.927C105.797 51.8434 107.601 53.0967 107.601 53.0967L108.059 51.5097L97.9882 38.4375Z" fill="#191C41"/>
<path d="M125.441 68.5868H124.867V70.4337H124.328V68.5868H123.746V68.1289H125.441V68.5868Z" fill="#191C41"/>
<path d="M127.113 70.4337H126.745L126.186 68.5558H126.178V70.4337H125.721V68.1328H126.566L126.97 69.5103L127.393 68.1328H128.234V70.4337H127.699V68.5558H127.684L127.113 70.4337Z" fill="#191C41"/>
</svg>
