<svg width="201" height="91" viewBox="0 0 201 91" fill="none" xmlns="http://www.w3.org/2000/svg">
<path d="M151.713 7.26075H152.457C153.776 7.26075 154.306 7.41867 154.306 8.47823C154.306 8.52917 154.255 9.10989 154.097 10.1185L153.313 15.4622C152.997 17.5762 152.89 18.32 150.985 18.32C150.72 18.32 150.475 18.2639 150.083 18.2639L151.713 7.26075ZM143.777 0.327734L137.379 43.291H146.319L148.866 26.2565H149.502C150.827 26.2565 151.408 26.5723 151.408 27.5759C151.416 27.8942 151.399 28.2128 151.357 28.5285L149.131 43.3012H158.076L160.113 29.3333C160.253 28.4761 160.323 27.609 160.322 26.7404C160.322 24.3615 159.421 23.088 157.042 22.3494C161.275 20.9179 161.805 18.3811 162.492 13.6895L163.129 9.24234C163.367 7.89578 163.509 6.53387 163.552 5.16709C163.552 0.933926 160.587 0.34811 154.082 0.34811L143.777 0.327734ZM130.181 9.21687L126.426 34.351C126.212 35.7773 125.948 36.5159 124.735 36.5159C123.884 36.5159 123.569 36.1492 123.569 35.2475C123.563 34.9478 123.58 34.6481 123.62 34.351L127.379 9.21687C127.588 7.89751 127.802 7.10283 128.968 7.10283C129.916 7.10283 130.288 7.46961 130.288 8.37126C130.28 8.65597 130.244 8.93924 130.181 9.21687ZM139.177 8.96217C139.414 7.56406 139.555 6.15142 139.6 4.7341C139.6 0.337922 136.543 0.078125 130.181 0.078125C125.525 0.078125 122.54 0.129065 120.767 2.03424C119.285 3.56246 118.969 5.8446 118.49 8.96217L114.68 34.621C114.42 36.1787 114.278 37.7539 114.257 39.333C114.257 43.1433 117.537 43.6171 123.676 43.6171C128.332 43.6171 131.189 43.4591 132.932 41.7119C134.572 40.0716 134.837 37.7996 135.316 34.621L139.177 8.96217ZM99.545 0.337922L98.4855 7.43395H103.141L97.7876 43.291H106.728L112.082 7.43395H116.737L117.797 0.343016L99.545 0.337922ZM87.1818 9.21687L83.4223 34.351C83.2135 35.7773 82.9486 36.5159 81.7311 36.5159C80.8855 36.5159 80.5646 36.1492 80.5646 35.2475C80.5583 34.9476 80.577 34.6477 80.6206 34.351L84.3749 9.21687C84.5889 7.89751 84.7977 7.10283 85.9643 7.10283C86.9169 7.10283 87.2836 7.46961 87.2836 8.37126C87.2764 8.65571 87.2423 8.93885 87.1818 9.21687ZM96.1728 8.96217C96.4096 7.56406 96.5509 6.15142 96.5956 4.7341C96.5956 0.337922 93.5391 0.078125 87.1818 0.078125C82.5258 0.078125 79.5407 0.129065 77.7628 2.03424C76.2805 3.56246 75.9646 5.8446 75.4858 8.96217L71.6805 34.6108C71.4169 36.1681 71.2739 37.7434 71.2526 39.3228C71.2526 43.1331 74.5332 43.6069 80.6716 43.6069C85.3275 43.6069 88.1853 43.449 89.9326 41.7017C91.5728 40.0614 91.8377 37.7895 92.3115 34.6108L96.1728 8.96217ZM45.278 0.327734L38.8799 43.291H46.9743L50.6777 18.5288H50.9936L50.5147 43.291H55.5426L62.4195 18.5288H62.7914L59.0727 43.291H67.1315L73.5857 0.327734H62.6386L56.3372 22.0743H55.9654L56.2303 0.327734H45.278Z" fill="#EE2E24"/>
<path d="M142.411 53.9875C142.732 53.9875 142.997 53.9315 143.262 53.9315C144.53 53.9315 145.004 54.2473 145.004 55.256C144.961 55.7535 144.892 56.2484 144.795 56.7383L141.229 80.5429C140.964 82.5041 140.858 83.1918 138.952 83.1918C138.693 83.1918 138.443 83.1358 138.056 83.1358L142.411 53.9875ZM134.49 47.1055L128.077 90.0688H138.448C143.033 90.0688 145.906 89.9618 147.704 88.1636C149.293 86.6354 149.609 84.4042 150.088 81.1796L153.847 55.9437C154.09 54.5806 154.232 53.2014 154.27 51.8175C154.27 47.4773 151.148 47.1055 144.8 47.1055H134.49ZM110.629 47.1055L104.216 90.0688H111.939L115.061 69.0099H115.433L116.595 90.0688H124.903L131.306 47.1055H123.634L120.298 69.1169H119.931L118.979 47.1055H110.629ZM93.819 47.1055L87.4208 90.0688H101.761L102.779 83.0848H97.4205L99.3766 69.9625H104.72L105.78 62.9786H100.385L101.705 54.0385H107.104L108.159 47.1055H93.819ZM78.1089 54.0385H78.8526C80.172 54.0385 80.7018 54.1964 80.7018 55.256C80.7018 55.3069 80.6508 55.8876 80.4929 56.8963L79.6982 62.2399C79.3824 64.354 79.2754 65.0977 77.3702 65.0977C77.1053 65.0977 76.8608 65.0417 76.4686 65.0417L78.1089 54.0385ZM70.1723 47.1055L63.7742 90.0688H72.7143L75.2613 73.0342H75.9082C77.2327 73.0342 77.8134 73.3501 77.8134 74.3536C77.822 74.672 77.805 74.9905 77.7625 75.3062L75.5364 90.079H84.4815L86.5192 76.111C86.6589 75.2538 86.7287 74.3867 86.728 73.5182C86.728 71.1392 85.8315 69.8657 83.4474 69.1271C87.6806 67.6957 88.2104 65.1588 88.8981 60.4672L89.5349 56.0201C89.7756 54.6739 89.9169 53.3118 89.9577 51.9448C89.9577 47.7117 86.9929 47.1258 80.4878 47.1258L70.1723 47.1055ZM49.7961 47.1055L48.7365 54.2117H53.3925L48.0488 90.0688H56.9889L62.3326 54.2117H66.9885L68.0481 47.1208L49.7961 47.1055Z" fill="#EE2E24"/>
</svg>
