<svg width="201" height="91" viewBox="0 0 201 91" fill="none" xmlns="http://www.w3.org/2000/svg">
<path d="M18.6473 61.8973L16.5055 34.5871L9.69248 52.7408C9.19208 53.8823 8.87408 55.098 8.75068 56.3426C8.75068 58.1806 9.77868 59.0998 11.8347 59.0998H12.3249L11.5121 61.8441H0.879883L1.70568 59.0998C3.50348 59.0032 5.08628 57.1031 6.45408 53.4005L13.0477 35.827C13.3401 35.1668 13.5275 34.463 13.6025 33.7425C13.6025 32.1769 12.4025 31.3941 10.0025 31.3941L10.8283 28.6895H23.6411L25.4217 52.4371L41.0217 28.6895H53.5507L52.7377 31.3941C51.6059 31.2696 50.4675 31.5595 49.5247 32.2121C48.6991 33.2567 48.1523 34.5022 47.9377 35.8272L43.3055 54.0998C43.0501 54.9606 42.8729 55.8438 42.7765 56.7382C42.7765 58.3082 43.8605 59.0998 46.0409 59.0998H46.4927L45.6795 61.8443H29.5505L30.3763 59.1C31.6401 59.1865 32.8891 58.7812 33.8731 57.9654C34.6627 56.9564 35.1987 55.7651 35.4343 54.4953L40.4537 34.508L22.5829 61.8973H18.6473Z" fill="#4AC5F2"/>
<path d="M85.486 45.2486C85.5102 48.2451 84.7816 51.198 83.37 53.8241C81.922 56.5047 79.7554 58.7063 77.1248 60.1702C74.1268 61.8334 70.754 62.6612 67.3442 62.5714C64.5666 62.6291 61.8062 62.1129 59.228 61.0541C57.0448 60.1434 55.0876 58.7461 53.499 56.9642C52.065 55.3323 50.9522 53.4329 50.2216 51.3702C49.5198 49.4134 49.1574 47.3461 49.1506 45.2617C49.1354 42.3123 49.8406 39.4054 51.2024 36.805C52.6114 34.1196 54.7484 31.9067 57.357 30.4327C60.3634 28.7536 63.752 27.9205 67.1764 28.0182C70.2202 27.9305 73.2458 28.525 76.0408 29.7597C78.245 30.747 80.1902 32.2523 81.7182 34.1531C83.0176 35.8044 84.0064 37.6876 84.6344 39.7076C85.1882 41.5004 85.4756 43.3683 85.486 45.2486ZM77.7442 45.1562C77.745 43.385 77.5808 41.618 77.2538 39.879C76.9656 38.2837 76.4066 36.752 75.6022 35.3537C74.8284 34.0091 73.7198 32.8983 72.3894 32.1345C70.8376 31.2957 69.0984 30.8863 67.3442 30.9472C65.0134 30.8022 62.7134 31.5501 60.8928 33.0449C59.3474 34.4396 58.25 36.2788 57.7444 38.3221C57.1738 40.5706 56.896 42.8863 56.9186 45.2089C56.9238 46.6425 57.0144 48.0743 57.1894 49.4968C57.3974 51.0792 57.832 52.6217 58.4798 54.0748C59.1802 55.6713 60.2962 57.0404 61.7056 58.0326C63.3974 59.1715 65.398 59.7349 67.4218 59.6422C69.4342 59.7484 71.4236 59.1629 73.0734 57.9797C74.466 56.947 75.5586 55.547 76.2348 53.9294C76.8776 52.4749 77.3122 50.933 77.5252 49.3514C77.6866 47.9723 77.7686 46.5846 77.7702 45.1957L77.7442 45.1562Z" fill="black"/>
<path d="M118.066 30.8814C117.383 30.8795 116.704 30.9863 116.053 31.1979C115.514 31.3752 115.029 31.6936 114.647 32.1214C114.214 32.6402 113.846 33.212 113.551 33.8234C113.176 34.5357 112.673 35.6707 112.015 37.214L101.409 62.4923H99.1892L88.0926 35.9345C87.632 34.759 87.093 33.6173 86.4798 32.5173C86.1298 31.9116 85.5882 31.446 84.9442 31.1979C84.0216 30.9077 83.0568 30.7828 82.0928 30.8286V28.6387H98.6604V30.8947C97.5608 30.8969 96.4654 31.0298 95.3958 31.2906C94.791 31.4728 94.4036 32.0754 94.4796 32.7155C94.4966 33.5556 94.6998 34.3811 95.0732 35.1298L102.57 52.9274L109.486 36.3173C109.938 35.379 110.239 34.3721 110.376 33.3355C110.376 32.2668 110.015 31.6073 109.292 31.3564C108.24 31.0472 107.148 30.9006 106.054 30.9212V28.6389H118.105V30.8816H118.066V30.8814Z" fill="black"/>
<path d="M136.182 61.8984H119.691V59.6422C120.747 59.6903 121.802 59.5566 122.814 59.2463C123.423 59.0625 123.925 58.6204 124.195 58.0325C124.451 57.292 124.565 56.5084 124.53 55.7237V34.7993C124.641 33.7051 124.326 32.61 123.653 31.7517C123.059 31.1581 121.756 30.8677 119.704 30.8677V28.625H136.195V30.881C135.139 30.8331 134.082 30.9714 133.072 31.29C132.468 31.4828 131.968 31.9219 131.691 32.5037C131.446 33.2421 131.337 34.0204 131.369 34.7993V55.737C131.34 56.4932 131.445 57.2488 131.679 57.9666C131.912 58.5695 132.379 59.0474 132.969 59.2858C133.997 59.6271 135.076 59.7748 136.156 59.7212V61.9643L136.182 61.8984Z" fill="black"/>
<path d="M167.615 50.9475L167.357 61.8982H138.363V59.642C140.363 59.642 141.641 59.3388 142.234 58.7582C142.906 57.9044 143.217 56.8124 143.099 55.7237V34.7991C143.127 34.0458 143.035 33.2928 142.828 32.5697C142.589 31.9851 142.121 31.5303 141.538 31.3164C140.526 30.9632 139.457 30.8111 138.389 30.8677V28.625H165.395L165.821 37.2664H163.602C163.309 35.7879 162.73 34.3838 161.898 33.137C161.36 32.3855 160.586 31.8456 159.705 31.6068C158.504 31.3892 157.285 31.2959 156.066 31.3297H149.95V43.0847H153.266C154.137 43.1256 155.008 43.0233 155.847 42.7814C156.386 42.5904 156.816 42.1655 157.021 41.6205C157.294 40.7675 157.447 39.879 157.473 38.9819H159.782V49.9983H157.524C157.516 49.0504 157.341 48.112 157.008 47.2277C156.789 46.675 156.347 46.2468 155.795 46.0533C154.956 45.8182 154.085 45.7198 153.215 45.7634H149.847V53.5869C149.847 54.9061 149.847 55.8562 149.937 56.463C149.981 56.9971 150.158 57.5108 150.454 57.9539C150.798 58.3963 151.281 58.704 151.821 58.8245C152.704 59.0376 153.611 59.1308 154.518 59.1014H157.099C158.167 59.104 159.23 58.9578 160.26 58.666C161.48 58.2779 162.55 57.5071 163.318 56.463C164.461 54.8119 165.159 52.8831 165.344 50.8692H167.602L167.615 50.9475Z" fill="black"/>
<path d="M193.008 52.3594C192.988 53.4819 192.765 54.5915 192.35 55.6313C191.893 56.843 191.238 57.9671 190.415 58.9558C189.507 60.0634 188.382 60.9625 187.112 61.5946C185.67 62.2805 184.094 62.619 182.505 62.584C180.725 62.5787 178.966 62.1873 177.344 61.4361C175.646 60.6726 174.157 59.4947 173.008 58.0062C172.544 59.08 172.219 60.2106 172.041 61.3703H169.834V49.8658H172.041C172.427 51.4633 172.985 53.0118 173.705 54.4835C174.416 55.935 175.434 57.206 176.685 58.2039C178.045 59.2683 179.723 59.8186 181.434 59.7607C182.841 59.8354 184.223 59.3644 185.305 58.4415C186.269 57.5628 186.803 56.2917 186.763 54.9714C186.779 54.2582 186.624 53.5514 186.311 52.9136C185.994 52.2991 185.554 51.7596 185.021 51.3304C184.28 50.7603 183.49 50.2613 182.659 49.8394C181.653 49.2983 180.517 48.7443 179.227 48.1638C177.52 47.3722 175.895 46.409 174.376 45.2878C173.289 44.5029 172.323 43.5557 171.511 42.4778C170.941 41.6772 170.505 40.7856 170.221 39.8392C169.973 39.0367 169.847 38.2004 169.847 37.3589C169.863 35.8114 170.267 34.2943 171.021 32.9524C171.844 31.4725 173.038 30.243 174.479 29.3903C176.075 28.4717 177.886 28.0157 179.717 28.0709C181.223 28.0656 182.708 28.4226 184.053 29.1132C185.424 29.8003 186.641 30.7706 187.627 31.9631C187.986 31.0299 188.249 30.0619 188.414 29.0737H190.672V38.3089H188.363C186.771 33.2516 183.988 30.723 180.014 30.723C178.758 30.6645 177.523 31.0774 176.543 31.8839C175.691 32.636 175.217 33.7413 175.253 34.8918C175.232 35.8027 175.52 36.6926 176.066 37.4118C176.656 38.1652 177.389 38.7889 178.221 39.2457C179.081 39.756 180.517 40.4815 182.53 41.4228C184.457 42.3263 186.335 43.335 188.156 44.4438C189.49 45.2788 190.655 46.3671 191.588 47.6497C192.556 49.0167 193.055 50.6725 193.008 52.3594Z" fill="black"/>
<path d="M200.878 58.8766C200.898 59.9015 200.495 60.8876 199.769 61.5943C198.295 63.0673 195.94 63.0673 194.466 61.5943C193.739 60.8876 193.336 59.9015 193.356 58.8766C193.331 57.8441 193.723 56.8468 194.44 56.1194C195.134 55.3732 196.104 54.9609 197.111 54.9844C198.118 54.9666 199.088 55.3722 199.795 56.1059C200.51 56.8396 200.902 57.8406 200.878 58.8766ZM200.311 31.3951C200.332 31.8345 200.332 32.2748 200.311 32.7145C200.311 33.1104 200.208 33.7699 200.117 34.6539L198.246 50.7232H196.092L194.221 34.6539C194.086 33.5549 194.008 32.4496 193.989 31.3423C193.902 30.3229 194.256 29.316 194.956 28.5851C196.23 27.4039 198.173 27.4039 199.446 28.5851C200.102 29.3593 200.415 30.3765 200.311 31.3951Z" fill="#4AC5F2"/>
</svg>
