<svg width="201" height="91" viewBox="0 0 201 91" fill="none" xmlns="http://www.w3.org/2000/svg">
<path d="M58.6752 40.7166L47.8741 38.2204L48.5702 35.1961C48.9062 33.7799 48.9783 32.8678 48.7862 32.4118C48.5942 31.9557 48.1862 31.6677 47.5381 31.5237C46.842 31.3557 46.242 31.4997 45.7619 31.9317C45.2819 32.3638 44.9218 33.1079 44.6818 34.164C44.3698 35.5081 44.3218 36.5882 44.5618 37.3803C44.7778 38.1484 45.6899 39.2285 47.2741 40.6206C51.8105 44.605 54.5228 47.6533 55.4589 49.7655C56.395 51.8778 56.395 54.9021 55.4589 58.9105C54.7868 61.8148 53.9228 63.855 52.8666 65.0551C51.8105 66.2552 50.1064 67.0713 47.7301 67.5033C45.3779 67.9354 42.7856 67.8154 39.9533 67.1673C36.833 66.4472 34.3128 65.2951 32.3686 63.711C30.4244 62.1268 29.2963 60.4226 29.0082 58.6224C28.7202 56.7983 28.9122 54.374 29.6323 51.3257L30.2564 48.6614L41.0574 51.1577L39.9053 56.1022C39.5453 57.6383 39.4733 58.6464 39.6893 59.1505C39.8813 59.6545 40.3854 59.9906 41.1535 60.1826C41.9215 60.3746 42.5696 60.2306 43.0737 59.7506C43.5777 59.2945 43.9617 58.5024 44.2018 57.4223C44.7538 55.0221 44.7538 53.3899 44.2258 52.4778C43.6497 51.5657 42.1376 49.9096 39.6413 47.5333C37.1451 45.1091 35.5369 43.4049 34.7688 42.3968C34.0247 41.3887 33.4727 40.1166 33.1847 38.5804C32.8966 37.0443 32.9926 35.1961 33.4967 33.0358C34.2168 29.9155 35.1769 27.7313 36.401 26.5072C37.6011 25.2591 39.2813 24.467 41.4175 24.1069C43.5537 23.7469 46.002 23.8909 48.7622 24.539C51.7865 25.2351 54.2588 26.2912 56.179 27.6593C58.0992 29.0514 59.2513 30.4916 59.6353 32.0037C60.0194 33.5159 59.8274 35.8921 59.0833 39.1085L58.6752 40.7166Z" fill="#FBC124"/>
<path d="M72.6446 29.2429L72.4285 32.8913C73.4126 31.4512 74.6128 30.3471 75.9809 29.627C77.349 28.9069 78.9332 28.5469 80.6854 28.5469C84.1177 28.5469 86.806 29.987 88.7982 32.8913C89.8783 31.4512 91.1024 30.3471 92.4466 29.627C93.7907 28.9069 95.3028 28.5469 96.959 28.5469C99.1432 28.5469 100.943 29.0269 102.384 29.987C103.824 30.9471 104.736 32.1232 105.144 33.5394C105.552 34.9315 105.744 37.2118 105.744 40.3561V67.6228H93.2626V42.6123C93.2626 39.348 93.1426 37.3078 92.9026 36.5397C92.6626 35.7476 92.0865 35.3636 91.1984 35.3636C90.2863 35.3636 89.7103 35.7476 89.4463 36.5157C89.1822 37.2838 89.0382 39.324 89.0382 42.6123V67.6228H76.581V43.2364C76.581 39.492 76.4849 37.2358 76.2689 36.4677C76.0769 35.7236 75.5008 35.3396 74.6128 35.3396C74.0367 35.3396 73.5566 35.5316 73.1486 35.9396C72.7406 36.3477 72.5245 36.8277 72.4765 37.3798C72.4285 37.9558 72.4045 39.1559 72.4045 41.0041V67.5988H59.9473V29.2429H72.6446Z" fill="#333E99"/>
<path d="M122.041 18.7539L109.368 22.1382L113.137 33.8514L125.81 30.4911L122.041 18.7539Z" fill="#713C97"/>
<path d="M122.33 33.9004H109.104V67.6238H122.33V33.9004Z" fill="#713C97"/>
<path d="M139.132 18.7539H125.906V67.5989H139.132V18.7539Z" fill="#00A055"/>
<path d="M156.342 42.277L155.574 39.5887C155.021 37.6685 154.565 36.4684 154.181 35.9883C153.797 35.5083 153.269 35.3403 152.573 35.5563C151.709 35.7963 151.253 36.1804 151.181 36.7084C151.109 37.2365 151.373 38.5326 151.973 40.6208L152.741 43.3091L156.342 42.277ZM170.383 44.7492L154.445 49.3097L156.726 57.2785C157.206 58.9347 157.638 59.9908 158.046 60.3988C158.454 60.8069 159.03 60.9029 159.774 60.6869C160.71 60.4228 161.238 59.9188 161.382 59.1987C161.526 58.4786 161.334 57.1825 160.806 55.3583L159.414 50.4858L171.079 47.1495L171.847 49.8618C172.495 52.142 172.831 53.9422 172.879 55.2383C172.903 56.5584 172.543 58.0706 171.775 59.7988C171.007 61.5269 169.831 62.9911 168.247 64.1912C166.663 65.3913 164.526 66.3754 161.862 67.1435C159.27 67.8876 156.87 68.1996 154.685 68.0796C152.501 67.9596 150.677 67.4795 149.237 66.5915C147.797 65.7034 146.645 64.6233 145.805 63.3031C144.964 61.983 144.172 59.9668 143.38 57.2065L140.308 46.4774C139.396 43.2611 139.132 40.5728 139.564 38.4366C139.996 36.3004 141.148 34.4282 143.044 32.82C144.94 31.2119 147.293 29.9877 150.125 29.1957C153.581 28.2116 156.606 27.9955 159.198 28.5476C161.79 29.0996 163.806 30.2278 165.271 31.9559C166.735 33.6601 167.983 36.3244 168.991 39.9007L170.383 44.7492Z" fill="#DC1F26"/>
</svg>
