<svg width="201" height="90" viewBox="0 0 201 90" fill="none" xmlns="http://www.w3.org/2000/svg">
<path d="M78.49 40.3711H78.3527L71.7543 59.9065H67.0242L60.4258 40.3711H60.2542V59.9065H53.1826V32.2592H64.7713L69.454 46.8278H69.5913L74.416 32.2592H85.721V59.9065H78.484L78.49 40.3711ZM101.502 31.668C107.438 31.668 111.884 34.435 113.09 39.0232L106.681 40.4425C105.972 38.3613 104.245 37.1316 101.644 37.1316C99.2313 37.1316 97.5993 38.1476 97.5993 39.9222C97.5993 45.4328 113.705 39.4022 113.705 51.2507C113.705 56.6903 108.952 60.4981 102.259 60.4981C94.7377 60.4981 90.0313 57.2106 88.5649 51.2743L95.1398 50.2103C96.0855 53.2612 98.4508 55.0349 101.738 55.0349C104.624 55.0349 106.421 53.6397 106.421 51.8658C106.421 46.3553 90.2915 52.3858 90.2915 40.5607C90.2915 35.3573 94.6667 31.668 101.502 31.668ZM124.088 43.3984H123.916V59.9065H116.774V32.2592H125.241L135.008 48.7671H135.145V32.2592H142.288V59.9065H133.845L124.088 43.3984ZM170.726 52.1314C170.726 57.6182 166.8 59.9123 160.817 59.9123H146.626V32.2592H160.131C166.138 32.2592 170.064 34.5533 170.064 39.9692C170.064 42.6654 168.432 44.8647 165.665 45.7783C168.385 46.3601 170.726 48.3473 170.726 52.1314ZM153.864 43.0673H158.664C161.432 43.0673 162.59 42.3345 162.59 40.6078C162.59 38.8339 161.408 38.0299 158.664 38.0299H153.864V43.0673ZM153.864 48.365V54.1356H158.83C161.905 54.1356 163.276 53.2844 163.276 51.2503C163.276 49.2164 161.951 48.365 158.83 48.365H153.864ZM187.116 31.668C193.809 31.668 198.775 35.1208 200.88 41.2227L194.093 42.618C192.862 39.6145 190.356 37.8642 187.329 37.8642C183.024 37.8642 180.233 41.0808 180.233 46.0946C180.233 51.0612 183.048 54.3013 187.329 54.3013C190.403 54.3013 192.815 52.5988 194.093 49.5712L200.88 50.9424C198.775 57.1389 194.022 60.497 187.258 60.497C178.696 60.497 172.689 54.5609 172.689 46.0943C172.689 37.6277 178.649 31.668 187.116 31.668Z" fill="black"/>
<path d="M19.3111 31.5057C18.8891 31.5097 18.4405 31.5751 18.0514 31.6689C17.0925 31.8895 16.1856 32.3948 15.5041 33.0965C13.9866 34.6194 13.3498 36.8444 14.0298 38.975C14.1222 39.1846 14.213 39.3951 14.3051 39.6048C12.7289 38.0652 10.3668 37.5457 8.22598 38.3264C6.60857 38.9307 5.24671 40.4644 4.81087 42.1008C4.228 44.2843 4.79908 46.6676 6.51839 48.1052C6.66509 48.2068 6.81446 48.3068 6.96158 48.4085C5.99098 48.2997 4.98745 48.4443 4.15767 48.8657C2.97029 49.3574 1.84887 50.6005 1.33035 51.8422C0.522214 53.6513 0.837347 56.1367 1.98815 57.6784C3.1321 59.1571 4.67203 59.904 6.45299 59.904H43.2958H43.6272C45.2745 59.8532 46.6882 59.0646 47.7607 57.6784C48.9116 56.1366 49.2266 53.6513 48.4185 51.8422C47.9 50.6005 46.7785 49.3574 45.591 48.8657C44.7615 48.4443 43.7578 48.2997 42.7871 48.4085C42.9342 48.3069 43.0836 48.2068 43.2303 48.1052C44.9498 46.6675 45.5205 44.2843 44.9376 42.1008C44.502 40.4643 43.1399 38.9307 41.5225 38.3264C39.3818 37.5457 37.0195 38.0652 35.4435 39.6048C35.5356 39.3951 35.6264 39.1846 35.7188 38.975C36.3988 36.8444 35.762 34.6194 34.2444 33.0965C33.5635 32.3835 32.6825 31.9385 31.7487 31.6782C31.2952 31.5683 30.8855 31.516 30.4377 31.5055C30.1707 31.4998 29.8889 31.5132 29.6446 31.5428C29.136 31.6057 28.6392 31.7409 28.1703 31.944C27.1028 32.4071 26.0946 33.2704 25.4598 34.3234C25.211 34.8037 25.0035 35.3007 24.8719 35.7931C24.7309 35.27 24.5266 34.7756 24.2887 34.3234C23.6538 33.2704 22.6455 32.4072 21.5781 31.944C20.9529 31.6732 20.274 31.5269 19.5906 31.5054C19.4971 31.5029 19.4052 31.504 19.3111 31.5057Z" fill="white"/>
<path d="M19.7052 32.4555C18.4194 32.4152 17.1132 32.8844 16.2108 33.8179C14.913 35.1202 14.3695 37.0205 14.951 38.8426C17.2207 43.9948 19.4114 49.1868 21.8186 54.2759C22.8927 48.9458 23.3502 43.4187 24.3333 38.0448C24.5111 36.87 24.2152 35.7981 23.7221 34.863C23.1791 33.9625 22.3163 33.2249 21.4034 32.8289C20.8686 32.5971 20.2895 32.4738 19.7052 32.4555Z" fill="#CC004C"/>
<path d="M21.5063 56.7618C16.7124 53.7037 11.8036 50.5158 7.16045 47.3122C5.72236 46.114 5.24405 44.1276 5.73149 42.3078C6.09595 40.9437 7.23739 39.6692 8.59013 39.1656C10.8116 38.3582 13.317 39.215 14.4998 41.2998L21.5063 56.7618Z" fill="#F37021"/>
<path d="M2.73238 57.0685C3.77039 58.2907 5.15729 58.953 6.78164 58.9105L22.4162 58.9228L9.31934 50.0821C8.04185 49.2818 6.0955 49.1359 4.69739 49.7827C3.61989 50.1891 2.6057 51.2177 2.13522 52.2443C1.40193 53.7397 1.68816 55.7936 2.73238 57.0685Z" fill="#FCB711"/>
<path d="M30.0572 32.4555C29.4728 32.4739 28.8889 32.5972 28.3543 32.8288C27.4412 33.2248 26.5785 33.9624 26.0355 34.8629C25.6443 35.6045 25.3776 36.4304 25.373 37.3263H25.9749H27.8224C28.1581 37.3263 28.4868 37.5431 28.3724 37.7299C28.2579 37.9166 28.0394 37.9773 27.8457 38.0493C26.8076 38.452 26.0839 39.2652 25.7976 39.8594C25.7715 39.9052 25.7678 39.9611 25.7603 40.004C25.7636 40.3207 25.8272 40.6094 25.877 40.9371L27.9442 54.2755C27.9456 54.2722 27.9475 54.2693 27.9488 54.2663C30.3552 49.1813 32.5433 43.9909 34.8117 38.8423C35.3932 37.0203 34.85 35.1153 33.552 33.813C32.649 32.8798 31.3428 32.4153 30.0572 32.4555Z" fill="#6460AA"/>
<path d="M28.252 56.7881C32.9713 53.7302 37.7699 50.3574 42.4923 47.1275C43.9304 45.9293 44.5142 44.1276 44.0268 42.3078C43.6623 40.9437 42.5209 39.6692 41.1681 39.1656C38.9466 38.3582 36.4412 39.215 35.2584 41.2998L28.252 56.7881Z" fill="#0089D0"/>
<path d="M47.0256 57.0686C45.9875 58.2908 44.6007 58.9531 42.9763 58.9106L27.3418 58.9229L40.4388 50.0821C41.7162 49.2819 43.6625 49.1359 45.0607 49.7827C46.138 50.1892 47.1523 51.2178 47.6227 52.2444C48.356 53.7398 48.0698 55.7937 47.0256 57.0686Z" fill="#0DB14B"/>
</svg>
