<svg width="201" height="91" viewBox="0 0 201 91" fill="none" xmlns="http://www.w3.org/2000/svg">
<path d="M131.975 0.515625H120.423H112.894H94.3555V17.2054V28.3229V45.0126H112.894H131.975H150.513V28.3229V20.9837V17.2054C150.513 7.99069 142.223 0.515625 131.975 0.515625Z" fill="#414141"/>
<path d="M132.003 90.5165H120.45H112.921H94.3828V73.8268V62.7093V46.0195H112.921H132.003H150.541V62.7093V70.0485V73.8268C150.541 83.0415 142.25 90.5165 132.003 90.5165Z" fill="#84CDE1"/>
<path d="M55.5401 90.5165H68.4515H74.7578H93.2959V73.8268V62.7093V46.0195H74.7578H55.5401H37.002V62.7093V70.0485V73.8268C37.002 83.0415 45.2925 90.5165 55.5401 90.5165Z" fill="#A7A6A6"/>
<path d="M55.5127 0.515625H68.4242H74.7304H93.2686V17.2054V28.3229V45.0126H74.7304H55.5127H36.9746V28.3229V20.9837V17.2054C36.9746 7.99069 45.2651 0.515625 55.5127 0.515625Z" fill="#2D8EBF"/>
<path d="M136.597 90.4895H144.561L164.785 46.0469H154.619L140.538 79.8613L126.485 46.0469H93.6221V54.0384H103.217V90.4895H112.921V54.0384H119.961L136.597 90.4895Z" fill="#010101"/>
<path d="M71.4688 16.3906C68.4244 16.3906 65.1897 17.5051 63.2054 19.8699C62.9608 20.0874 62.689 20.3592 62.4987 20.7398C62.3084 20.4408 62.091 20.1417 61.8463 19.8699C60.0523 17.6138 57.1982 16.3906 54.2897 16.3906C51.6259 16.3906 48.1738 17.342 46.8419 19.8699V17.3148H40.6172V45.1764H47.3855V31.9116C47.3855 27.9974 47.4942 22.9687 52.8763 22.9687C54.6159 22.9687 56.3556 23.7841 57.3069 25.2248C58.367 26.8285 58.367 28.541 58.367 30.3622V45.2036H65.1354V31.9388C65.1354 29.9273 65.0266 27.2091 66.1955 25.4151C67.2284 23.8113 68.9952 22.9959 70.8979 22.9959C72.5289 22.9959 74.2685 23.757 75.1383 25.0617C76.1169 26.4752 76.1713 28.7856 76.1713 30.3894V45.2308H82.9396V29.6011C82.9396 25.9859 82.6406 22.724 80.0311 19.9515C77.8294 17.342 74.7578 16.3906 71.4688 16.3906ZM101.94 17.2876L95.1715 35.1191L88.7022 17.2876H81.0097L91.366 42.5126L86.1742 54.4183H93.459L109.659 17.2604L101.94 17.2876Z" fill="white"/>
</svg>
