<svg width="201" height="91" viewBox="0 0 201 91" fill="none" xmlns="http://www.w3.org/2000/svg">
<path d="M42.5984 40.2754L36.6309 66.6811V73.7558H41.2256V50.0737L45.1449 73.7558H50.116L53.7586 49.7416V73.7558H58.7297V40.2754H51.4114L47.8242 64.046L43.9492 40.2754H42.5984Z" fill="black"/>
<path d="M61.3096 40.2754L67.9636 62.6621V73.7558H73.2226V62.6621L79.8766 40.2754H74.8501L70.8311 55.532L66.8121 40.2754H61.3096Z" fill="black"/>
<path d="M86.719 47.9709C86.719 45.5795 87.6712 44.6716 89.354 44.6716C91.0258 44.6716 91.9891 45.5795 91.9891 47.9709V50.0745H96.9602V48.3031C96.9602 42.9444 94.3252 39.8887 89.2101 39.8887C84.095 39.8887 81.46 42.9555 81.46 48.3031C81.46 57.8689 91.7455 59.1642 91.7455 66.0508C91.7455 68.4422 90.6937 69.3058 89.0219 69.3058C87.3501 69.3058 86.2983 68.4422 86.2983 66.0508V62.4636H81.3271V65.7186C81.3271 71.0772 84.0065 74.133 89.1769 74.133C94.3473 74.133 97.0266 71.0662 97.0266 65.7186C96.9934 56.1528 86.719 54.8574 86.719 47.9709Z" fill="black"/>
<path d="M104.555 73.7558H109.814V45.0583H115.317V40.2754H99.0527V45.0583H104.555V73.7558Z" fill="black"/>
<path d="M132.544 68.9729H123.454V59.1635H130.673V54.3806H123.454V45.0583H132.544V40.2754H118.195V73.7558H132.544V68.9729Z" fill="black"/>
<path d="M152.052 69.6932V64.5228C152.052 61.0352 151.189 58.4998 148.565 57.3927C150.912 56.2966 152.008 54.0491 152.008 50.5947V47.9597C152.008 42.7893 149.661 40.2539 144.214 40.2539H136.275V73.7343H141.534V60.1273H143.35C145.742 60.1273 146.793 61.2788 146.793 64.3899V69.6489C146.793 72.3725 146.982 72.9039 147.269 73.7675H152.628C152.108 72.5164 152.052 71.3207 152.052 69.6932ZM146.749 51.8015C146.749 54.4809 145.553 55.3444 143.594 55.3444H141.534V45.059H144.07C145.941 45.059 146.749 46.1108 146.749 48.5022V51.8015Z" fill="black"/>
<path d="M160.433 73.7558H165.692V62.6621L172.335 40.2754H167.32L163.301 55.532L159.282 40.2754H153.779L160.433 62.6621V73.7558Z" fill="black"/>
<path d="M41.2261 23.502H42.9201L31.1178 73.6118H29.4238L41.2261 23.502Z" fill="black"/>
<path d="M58.4191 23.6016C54.5994 23.6016 51.4883 26.7127 51.4883 30.5324C51.4883 34.352 54.5994 37.4632 58.4191 37.4632C62.2388 37.4632 65.3499 34.352 65.3499 30.5324C65.3499 26.7127 62.2388 23.6016 58.4191 23.6016ZM58.4191 33.9313C56.548 33.9313 55.0312 32.4145 55.0312 30.5434C55.0312 28.6723 56.548 27.1555 58.4191 27.1555C60.2902 27.1555 61.807 28.6723 61.807 30.5434C61.807 32.4145 60.2902 33.9313 58.4191 33.9313Z" fill="#FF6600"/>
<path d="M49.3296 23.8008H46.5506C46.2628 23.8008 46.0303 24.0333 46.0303 24.3101V36.7434C46.0303 37.0313 46.2628 37.2527 46.5506 37.2527H49.3296C49.6175 37.2527 49.85 37.0202 49.85 36.7434V24.3101C49.85 24.0333 49.6175 23.8008 49.3296 23.8008Z" fill="#FF6600"/>
<path d="M49.3296 18.1328H46.5396C46.2517 18.1328 46.0303 18.3653 46.0303 18.6532V21.4432C46.0303 21.7311 46.2628 21.9525 46.5506 21.9525H49.3407C49.6285 21.9525 49.861 21.72 49.861 21.4432V18.6532C49.8389 18.3653 49.6064 18.1439 49.3296 18.1328Z" fill="#FF6600"/>
<path d="M73.4209 23.6016C69.878 23.6016 66.9883 26.4027 66.9883 29.8348V36.7435C66.9883 37.0314 67.2208 37.2528 67.5086 37.2528H70.3097C70.5865 37.2528 70.808 37.0424 70.8301 36.7767V30.0563C70.8301 28.6723 71.9926 27.5541 73.4209 27.5541C74.8491 27.5541 76.0116 28.6723 76.0116 30.0563V36.7656C76.0227 37.0314 76.2552 37.2528 76.532 37.2528H79.3552C79.6431 37.2528 79.8645 37.0203 79.8756 36.7435V29.8348C79.8756 26.4027 76.9748 23.6016 73.4209 23.6016Z" fill="#FF6600"/>
</svg>
