<svg width="201" height="92" viewBox="0 0 201 92" fill="none" xmlns="http://www.w3.org/2000/svg">
<path d="M96.6625 1.17969C71.9758 1.17969 51.6592 21.4963 51.6592 46.1764C51.6592 70.8565 71.9758 91.1797 96.6625 91.1797C121.349 91.1797 141.659 70.8631 141.659 46.1764C141.659 21.4897 121.343 1.17969 96.6625 1.17969ZM96.6625 2.26148C120.739 2.26148 140.581 22.0867 140.581 46.1764C140.581 70.2661 120.749 90.1012 96.6625 90.1012C72.5761 90.1012 52.7377 70.2727 52.7377 46.1764C52.7377 22.0801 72.5629 2.26148 96.6625 2.26148Z" fill="black"/>
<path d="M97.2751 5.76125C97.2758 5.83393 97.2548 5.90517 97.2148 5.96588C97.1749 6.02658 97.1177 6.07401 97.0507 6.10213C96.9836 6.13024 96.9098 6.13778 96.8385 6.12376C96.7671 6.10974 96.7016 6.0748 96.6502 6.0234C96.5988 5.972 96.5639 5.90647 96.5498 5.83515C96.5358 5.76383 96.5433 5.68994 96.5715 5.62292C96.5996 5.55589 96.647 5.49875 96.7077 5.45877C96.7684 5.4188 96.8397 5.3978 96.9124 5.39845C97.0083 5.39931 97.1001 5.43781 97.1679 5.50567C97.2358 5.57352 97.2743 5.6653 97.2751 5.76125Z" fill="black"/>
<path d="M99.7819 11.2493C99.7819 11.338 99.7556 11.4248 99.7063 11.4985C99.657 11.5723 99.5869 11.6298 99.505 11.6637C99.423 11.6977 99.3328 11.7066 99.2458 11.6893C99.1588 11.672 99.0789 11.6292 99.0161 11.5665C98.9534 11.5038 98.9107 11.4239 98.8934 11.3368C98.8761 11.2498 98.885 11.1596 98.9189 11.0777C98.9529 10.9957 99.0104 10.9257 99.0841 10.8764C99.1579 10.8271 99.2446 10.8008 99.3333 10.8008C99.452 10.8016 99.5656 10.8492 99.6495 10.9331C99.7335 11.017 99.781 11.1306 99.7819 11.2493Z" fill="black"/>
<path d="M106.297 20.2109C106.297 20.329 106.25 20.4422 106.166 20.5257C106.083 20.6092 105.97 20.6561 105.851 20.6561C105.733 20.6561 105.62 20.6092 105.537 20.5257C105.453 20.4422 105.406 20.329 105.406 20.2109C105.406 20.0928 105.453 19.9795 105.537 19.896C105.62 19.8125 105.733 19.7656 105.851 19.7656C105.97 19.7656 106.083 19.8125 106.166 19.896C106.25 19.9795 106.297 20.0928 106.297 20.2109Z" fill="black"/>
<path d="M95.8216 14.3388C95.8264 14.3891 95.8207 14.4399 95.8047 14.4878C95.7887 14.5358 95.7629 14.5799 95.7289 14.6173C95.6949 14.6547 95.6535 14.6846 95.6072 14.7051C95.561 14.7255 95.511 14.7361 95.4604 14.7361C95.4099 14.7361 95.3599 14.7255 95.3137 14.7051C95.2674 14.6846 95.226 14.6547 95.192 14.6173C95.158 14.5799 95.1322 14.5358 95.1162 14.4878C95.1002 14.4399 95.0945 14.3891 95.0993 14.3388C95.0945 14.2884 95.1002 14.2377 95.1162 14.1897C95.1322 14.1417 95.158 14.0976 95.192 14.0602C95.226 14.0228 95.2674 13.9929 95.3137 13.9724C95.3599 13.952 95.4099 13.9414 95.4604 13.9414C95.511 13.9414 95.561 13.952 95.6072 13.9724C95.6535 13.9929 95.6949 14.0228 95.7289 14.0602C95.7629 14.0976 95.7887 14.1417 95.8047 14.1897C95.8207 14.2377 95.8264 14.2884 95.8216 14.3388Z" fill="black"/>
<path d="M99.7229 16.4044C99.7229 16.4998 99.685 16.5912 99.6176 16.6586C99.5502 16.726 99.4588 16.7639 99.3634 16.7639C99.2681 16.7639 99.1766 16.726 99.1092 16.6586C99.0418 16.5912 99.0039 16.4998 99.0039 16.4044C99.0039 16.3572 99.0132 16.3105 99.0313 16.2668C99.0493 16.2232 99.0758 16.1836 99.1092 16.1502C99.1426 16.1168 99.1822 16.0904 99.2258 16.0723C99.2695 16.0542 99.3162 16.0449 99.3634 16.0449C99.4106 16.0449 99.4574 16.0542 99.501 16.0723C99.5446 16.0904 99.5842 16.1168 99.6176 16.1502C99.651 16.1836 99.6775 16.2232 99.6955 16.2668C99.7136 16.3105 99.7229 16.3572 99.7229 16.4044Z" fill="black"/>
<path d="M94.66 10.6445C94.66 10.7327 94.6338 10.8189 94.5848 10.8922C94.5357 10.9655 94.466 11.0225 94.3844 11.0561C94.3029 11.0897 94.2132 11.0984 94.1267 11.0809C94.0402 11.0635 93.9609 11.0207 93.8988 10.9581C93.8366 10.8955 93.7945 10.8159 93.7777 10.7293C93.7609 10.6427 93.7702 10.5531 93.8044 10.4718C93.8386 10.3905 93.8962 10.3212 93.9698 10.2727C94.0435 10.2241 94.1299 10.1986 94.2181 10.1992C94.3353 10.201 94.4473 10.2485 94.5299 10.3317C94.6125 10.415 94.6592 10.5272 94.66 10.6445Z" fill="black"/>
<path d="M88.7471 14.2267C88.7477 14.2987 88.7269 14.3693 88.6873 14.4295C88.6477 14.4897 88.5911 14.5367 88.5246 14.5645C88.4582 14.5924 88.385 14.5999 88.3143 14.586C88.2436 14.5721 88.1787 14.5375 88.1277 14.4865C88.0768 14.4356 88.0422 14.3706 88.0283 14.3C88.0144 14.2293 88.0219 14.1561 88.0497 14.0896C88.0776 14.0232 88.1246 13.9666 88.1848 13.927C88.2449 13.8874 88.3155 13.8666 88.3876 13.8672C88.4829 13.8672 88.5743 13.9051 88.6418 13.9725C88.7092 14.0399 88.7471 14.1314 88.7471 14.2267Z" fill="black"/>
<path d="M89.8086 14.9526C89.8086 15.0244 89.7873 15.0945 89.7475 15.1542C89.7076 15.2139 89.6509 15.2604 89.5846 15.2878C89.5184 15.3153 89.4454 15.3225 89.375 15.3085C89.3047 15.2945 89.24 15.2599 89.1893 15.2092C89.1385 15.1584 89.104 15.0938 89.09 15.0234C89.076 14.953 89.0832 14.8801 89.1106 14.8138C89.1381 14.7475 89.1846 14.6909 89.2442 14.651C89.3039 14.6111 89.3741 14.5898 89.4458 14.5898C89.5418 14.5907 89.6335 14.6292 89.7014 14.6971C89.7692 14.7649 89.8077 14.8567 89.8086 14.9526Z" fill="black"/>
<path d="M90.8643 15.6792C90.8643 15.751 90.843 15.8211 90.8031 15.8808C90.7633 15.9404 90.7066 15.9869 90.6403 16.0144C90.574 16.0418 90.5011 16.049 90.4307 16.035C90.3603 16.021 90.2957 15.9865 90.2449 15.9357C90.1942 15.885 90.1596 15.8204 90.1456 15.75C90.1316 15.6796 90.1388 15.6067 90.1663 15.5404C90.1937 15.4741 90.2402 15.4174 90.2999 15.3776C90.3596 15.3377 90.4297 15.3164 90.5015 15.3164C90.5974 15.3173 90.6892 15.3558 90.757 15.4236C90.8249 15.4915 90.8634 15.5833 90.8643 15.6792Z" fill="black"/>
<path d="M89.248 17.0704C89.2487 17.1425 89.2279 17.2131 89.1883 17.2732C89.1487 17.3334 89.092 17.3804 89.0256 17.4083C88.9592 17.4361 88.886 17.4436 88.8153 17.4297C88.7446 17.4158 88.6797 17.3812 88.6287 17.3303C88.5778 17.2793 88.5432 17.2144 88.5293 17.1437C88.5154 17.073 88.5228 16.9998 88.5507 16.9334C88.5786 16.867 88.6256 16.8103 88.6857 16.7707C88.7459 16.7311 88.8165 16.7103 88.8885 16.711C88.9836 16.7118 89.0746 16.75 89.1418 16.8172C89.209 16.8844 89.2472 16.9754 89.248 17.0704Z" fill="black"/>
<path d="M80.8379 22.9761C80.8379 23.0723 80.7997 23.1646 80.7316 23.2326C80.6636 23.3006 80.5713 23.3389 80.4751 23.3389C80.3789 23.3389 80.2866 23.3006 80.2186 23.2326C80.1505 23.1646 80.1123 23.0723 80.1123 22.9761C80.1123 22.8799 80.1505 22.7876 80.2186 22.7195C80.2866 22.6515 80.3789 22.6133 80.4751 22.6133C80.5713 22.6133 80.6636 22.6515 80.7316 22.7195C80.7997 22.7876 80.8379 22.8799 80.8379 22.9761Z" fill="black"/>
<path d="M82.3975 24.8706C82.3975 24.9424 82.3762 25.0125 82.3363 25.0722C82.2965 25.1318 82.2398 25.1783 82.1735 25.2058C82.1072 25.2333 82.0343 25.2404 81.9639 25.2264C81.8935 25.2124 81.8289 25.1779 81.7781 25.1271C81.7274 25.0764 81.6928 25.0118 81.6788 24.9414C81.6648 24.871 81.672 24.7981 81.6995 24.7318C81.727 24.6655 81.7735 24.6088 81.8331 24.569C81.8928 24.5291 81.9629 24.5078 82.0347 24.5078C82.1309 24.5078 82.2232 24.546 82.2912 24.6141C82.3592 24.6821 82.3975 24.7744 82.3975 24.8706Z" fill="black"/>
<path d="M81.1709 55.4565C81.1709 55.5283 81.1496 55.5984 81.1098 55.6581C81.0699 55.7178 81.0132 55.7643 80.9469 55.7917C80.8807 55.8192 80.8077 55.8264 80.7373 55.8124C80.667 55.7984 80.6023 55.7638 80.5516 55.7131C80.5008 55.6623 80.4663 55.5977 80.4523 55.5273C80.4383 55.4569 80.4455 55.384 80.4729 55.3177C80.5004 55.2514 80.5469 55.1948 80.6065 55.1549C80.6662 55.115 80.7364 55.0938 80.8081 55.0938C80.9043 55.0938 80.9966 55.132 81.0647 55.2C81.1327 55.268 81.1709 55.3603 81.1709 55.4565Z" fill="black"/>
<path d="M81.3951 63.8951C81.3964 63.9841 81.3712 64.0714 81.3227 64.1461C81.2743 64.2207 81.2047 64.2792 81.1228 64.3142C81.041 64.3491 80.9506 64.359 80.8632 64.3424C80.7757 64.3258 80.6952 64.2837 80.6318 64.2212C80.5684 64.1587 80.525 64.0788 80.5072 63.9916C80.4893 63.9044 80.4978 63.8139 80.5316 63.7316C80.5653 63.6492 80.6228 63.5788 80.6967 63.5292C80.7706 63.4796 80.8575 63.4531 80.9465 63.4531C81.0641 63.454 81.1767 63.5006 81.2605 63.5831C81.3442 63.6656 81.3925 63.7775 81.3951 63.8951Z" fill="black"/>
<path d="M76.6025 68.2144C76.6025 68.286 76.5813 68.356 76.5416 68.4156C76.5019 68.4752 76.4454 68.5216 76.3793 68.5492C76.3132 68.5768 76.2404 68.5841 76.1702 68.5704C76.0999 68.5567 76.0352 68.5224 75.9844 68.472C75.9335 68.4216 75.8987 68.3573 75.8843 68.2871C75.87 68.217 75.8767 68.1441 75.9036 68.0778C75.9306 68.0114 75.9766 67.9545 76.0358 67.9143C76.095 67.874 76.1648 67.8522 76.2364 67.8516C76.333 67.8516 76.4256 67.8897 76.4942 67.9576C76.5627 68.0256 76.6017 68.1178 76.6025 68.2144Z" fill="black"/>
<path d="M70.8612 69.9687C70.8612 70.0569 70.835 70.1431 70.7859 70.2164C70.7369 70.2897 70.6671 70.3468 70.5856 70.3804C70.504 70.414 70.4143 70.4226 70.3279 70.4051C70.2414 70.3877 70.1621 70.3449 70.0999 70.2823C70.0378 70.2197 69.9957 70.1401 69.9789 70.0535C69.9621 69.9669 69.9713 69.8773 70.0056 69.796C70.0398 69.7147 70.0973 69.6454 70.171 69.5969C70.2446 69.5483 70.3311 69.5228 70.4193 69.5234C70.5368 69.5243 70.6492 69.5716 70.732 69.655C70.8147 69.7384 70.8612 69.8512 70.8612 69.9687Z" fill="black"/>
<path d="M69.69 66.0542C69.6932 66.1437 69.6694 66.2321 69.6216 66.3079C69.5738 66.3836 69.5043 66.4432 69.4221 66.4788C69.3399 66.5144 69.2488 66.5244 69.1609 66.5075C69.0729 66.4905 68.9921 66.4475 68.929 66.3839C68.8659 66.3203 68.8235 66.2391 68.8072 66.1511C68.7909 66.063 68.8016 65.972 68.8379 65.8901C68.8741 65.8082 68.9342 65.7391 69.0104 65.6919C69.0865 65.6447 69.1751 65.6215 69.2646 65.6254C69.3818 65.6254 69.4942 65.672 69.5771 65.7549C69.6599 65.8377 69.7065 65.9502 69.7065 66.0674" fill="black"/>
<path d="M69.0264 68.547C69.027 68.6189 69.0063 68.6894 68.9668 68.7495C68.9274 68.8096 68.8709 68.8566 68.8047 68.8845C68.7385 68.9125 68.6654 68.9202 68.5948 68.9065C68.5242 68.8929 68.4593 68.8586 68.4082 68.808C68.3571 68.7574 68.3223 68.6928 68.308 68.6223C68.2937 68.5519 68.3007 68.4787 68.3281 68.4122C68.3554 68.3458 68.4019 68.2889 68.4617 68.2489C68.5214 68.2089 68.5917 68.1875 68.6636 68.1875C68.7592 68.1875 68.851 68.2253 68.9189 68.2926C68.9869 68.3599 69.0255 68.4514 69.0264 68.547Z" fill="black"/>
<path d="M64.7361 66.4898C64.7367 66.5623 64.7158 66.6334 64.676 66.694C64.6362 66.7547 64.5792 66.8021 64.5124 66.8303C64.4455 66.8585 64.3718 66.8663 64.3006 66.8525C64.2294 66.8388 64.1638 66.8042 64.1123 66.7531C64.0608 66.702 64.0256 66.6368 64.0112 66.5657C63.9968 66.4946 64.0038 66.4208 64.0314 66.3537C64.0591 66.2867 64.106 66.2293 64.1663 66.1889C64.2265 66.1485 64.2974 66.127 64.37 66.127C64.4665 66.1269 64.5591 66.1651 64.6277 66.233C64.6962 66.301 64.7352 66.3932 64.7361 66.4898Z" fill="black"/>
<path d="M79.7236 73.4559C79.723 73.5277 79.701 73.5976 79.6606 73.6569C79.6202 73.7162 79.5632 73.7622 79.4966 73.7891C79.4301 73.8159 79.3571 73.8224 79.2868 73.8078C79.2166 73.7932 79.1523 73.758 79.102 73.7068C79.0517 73.6556 79.0177 73.5907 79.0044 73.5202C78.991 73.4497 78.9989 73.3768 79.0269 73.3108C79.055 73.2447 79.102 73.1885 79.162 73.1492C79.222 73.1098 79.2924 73.0892 79.3641 73.0899C79.4601 73.0916 79.5515 73.1309 79.6187 73.1994C79.686 73.2679 79.7236 73.36 79.7236 73.4559Z" fill="black"/>
<path d="M84.2322 70.1387C84.2302 70.2259 84.2027 70.3106 84.153 70.3823C84.1034 70.454 84.0337 70.5095 83.9528 70.542C83.8719 70.5744 83.7832 70.5824 83.6977 70.5649C83.6123 70.5474 83.5339 70.5052 83.4722 70.4436C83.4105 70.3819 83.3683 70.3035 83.3508 70.2181C83.3333 70.1326 83.3413 70.0439 83.3738 69.963C83.4063 69.882 83.4618 69.8124 83.5335 69.7627C83.6052 69.7131 83.6899 69.6856 83.777 69.6836C83.8358 69.6836 83.894 69.6952 83.9482 69.7178C84.0024 69.7404 84.0517 69.7735 84.093 69.8152C84.1344 69.8569 84.1672 69.9063 84.1894 69.9607C84.2115 70.0151 84.2227 70.0734 84.2223 70.1321" fill="black"/>
<path d="M84.7353 74.3979C84.7353 74.4697 84.7141 74.5398 84.6742 74.5995C84.6343 74.6592 84.5777 74.7057 84.5114 74.7331C84.4451 74.7606 84.3722 74.7678 84.3018 74.7538C84.2314 74.7398 84.1668 74.7052 84.116 74.6545C84.0653 74.6037 84.0307 74.5391 84.0167 74.4687C84.0027 74.3983 84.0099 74.3254 84.0374 74.2591C84.0648 74.1928 84.1113 74.1362 84.171 74.0963C84.2307 74.0564 84.3008 74.0352 84.3726 74.0352C84.4688 74.0352 84.5611 74.0734 84.6291 74.1414C84.6971 74.2094 84.7353 74.3017 84.7353 74.3979Z" fill="black"/>
<path d="M103.292 70.3433C103.292 70.415 103.271 70.4852 103.231 70.5448C103.191 70.6045 103.134 70.651 103.068 70.6784C103.002 70.7059 102.929 70.7131 102.858 70.6991C102.788 70.6851 102.723 70.6505 102.673 70.5998C102.622 70.5491 102.587 70.4844 102.573 70.414C102.559 70.3437 102.567 70.2707 102.594 70.2044C102.621 70.1381 102.668 70.0815 102.728 70.0416C102.787 70.0017 102.857 69.9805 102.929 69.9805C102.977 69.9805 103.024 69.9898 103.068 70.0081C103.112 70.0263 103.152 70.053 103.186 70.0867C103.219 70.1204 103.246 70.1604 103.264 70.2044C103.283 70.2484 103.292 70.2956 103.292 70.3433Z" fill="black"/>
<path d="M94.6602 73.396C94.6602 73.4678 94.6389 73.5379 94.599 73.5976C94.5592 73.6572 94.5025 73.7037 94.4362 73.7312C94.3699 73.7586 94.297 73.7658 94.2266 73.7518C94.1562 73.7378 94.0916 73.7033 94.0408 73.6526C93.9901 73.6018 93.9555 73.5372 93.9415 73.4668C93.9275 73.3964 93.9347 73.3235 93.9622 73.2572C93.9897 73.1909 94.0362 73.1342 94.0958 73.0944C94.1555 73.0545 94.2256 73.0332 94.2974 73.0332C94.3933 73.0341 94.4851 73.0726 94.553 73.1404C94.6208 73.2083 94.6593 73.3001 94.6602 73.396Z" fill="black"/>
<path d="M117.886 77.7964C117.886 77.8926 117.848 77.9849 117.78 78.0529C117.711 78.121 117.619 78.1592 117.523 78.1592C117.427 78.1592 117.334 78.121 117.266 78.0529C117.198 77.9849 117.16 77.8926 117.16 77.7964C117.16 77.7002 117.198 77.6079 117.266 77.5399C117.334 77.4718 117.427 77.4336 117.523 77.4336C117.619 77.4336 117.711 77.4718 117.78 77.5399C117.848 77.6079 117.886 77.7002 117.886 77.7964Z" fill="black"/>
<path d="M119.782 60.664C119.782 60.7528 119.757 60.8399 119.708 60.9141C119.659 60.9883 119.589 61.0463 119.507 61.0808C119.425 61.1152 119.335 61.1246 119.248 61.1076C119.161 61.0907 119.08 61.0482 119.017 60.9856C118.954 60.923 118.911 60.8431 118.894 60.756C118.876 60.6689 118.885 60.5786 118.919 60.4964C118.952 60.4143 119.01 60.344 119.084 60.2946C119.158 60.2451 119.244 60.2188 119.333 60.2188C119.452 60.2187 119.565 60.2655 119.649 60.349C119.733 60.4324 119.781 60.5456 119.782 60.664Z" fill="black"/>
<path d="M116.214 63.0855C116.214 63.1574 116.193 63.2276 116.152 63.2874C116.112 63.3471 116.056 63.3936 115.989 63.421C115.923 63.4483 115.85 63.4553 115.779 63.441C115.709 63.4268 115.644 63.3919 115.593 63.3408C115.543 63.2897 115.508 63.2248 115.495 63.1542C115.481 63.0836 115.489 63.0106 115.517 62.9443C115.545 62.8781 115.592 62.8217 115.652 62.7822C115.712 62.7427 115.782 62.722 115.854 62.7227C115.95 62.7235 116.041 62.7621 116.109 62.8301C116.176 62.898 116.214 62.9898 116.214 63.0855Z" fill="black"/>
<path d="M119.726 63.7857C119.727 63.8739 119.702 63.9603 119.653 64.034C119.604 64.1076 119.535 64.1652 119.454 64.1994C119.373 64.2336 119.283 64.2429 119.196 64.2261C119.11 64.2093 119.03 64.1671 118.968 64.105C118.905 64.0429 118.862 63.9635 118.845 63.8771C118.827 63.7906 118.836 63.7009 118.87 63.6194C118.903 63.5378 118.96 63.4681 119.033 63.419C119.107 63.3699 119.193 63.3438 119.281 63.3438C119.399 63.3437 119.511 63.3902 119.595 63.473C119.678 63.5558 119.726 63.6682 119.726 63.7857Z" fill="black"/>
<path d="M116.214 68.1017C116.214 68.1737 116.194 68.2443 116.154 68.3045C116.114 68.3647 116.058 68.4117 115.991 68.4395C115.925 68.4674 115.852 68.4749 115.781 68.461C115.71 68.4471 115.645 68.4125 115.595 68.3615C115.544 68.3106 115.509 68.2456 115.495 68.175C115.481 68.1043 115.489 68.0311 115.517 67.9646C115.544 67.8982 115.591 67.8416 115.652 67.802C115.712 67.7624 115.782 67.7416 115.854 67.7422C115.949 67.7431 116.04 67.7812 116.108 67.8485C116.175 67.9157 116.213 68.0066 116.214 68.1017Z" fill="black"/>
<path d="M125.294 58.2411C125.286 58.3309 125.244 58.4143 125.177 58.475C125.11 58.5357 125.023 58.5693 124.933 58.5693C124.843 58.5693 124.756 58.5357 124.689 58.475C124.622 58.4143 124.581 58.3309 124.572 58.2411C124.567 58.1908 124.573 58.14 124.589 58.092C124.605 58.0441 124.631 58 124.665 57.9625C124.699 57.9251 124.74 57.8952 124.786 57.8748C124.833 57.8543 124.883 57.8438 124.933 57.8438C124.984 57.8438 125.034 57.8543 125.08 57.8748C125.126 57.8952 125.168 57.9251 125.202 57.9625C125.236 58 125.261 58.0441 125.277 58.092C125.293 58.14 125.299 58.1908 125.294 58.2411Z" fill="black"/>
<path d="M126.188 60.4485C126.188 60.5373 126.162 60.624 126.113 60.6977C126.063 60.7715 125.993 60.829 125.911 60.8629C125.829 60.8969 125.739 60.9058 125.652 60.8885C125.565 60.8712 125.485 60.8284 125.422 60.7657C125.36 60.703 125.317 60.6231 125.3 60.5361C125.282 60.449 125.291 60.3589 125.325 60.2769C125.359 60.1949 125.417 60.1249 125.49 60.0756C125.564 60.0263 125.651 60 125.74 60C125.859 60 125.973 60.0473 126.057 60.1314C126.141 60.2155 126.188 60.3296 126.188 60.4485Z" fill="black"/>
<path d="M132.428 63.0618C132.427 63.1496 132.4 63.2352 132.351 63.3079C132.302 63.3807 132.232 63.4372 132.151 63.4705C132.07 63.5038 131.981 63.5123 131.895 63.4951C131.809 63.4778 131.73 63.4354 131.668 63.3734C131.605 63.3113 131.563 63.2323 131.546 63.1462C131.529 63.0601 131.537 62.9709 131.57 62.8897C131.604 62.8084 131.66 62.7389 131.733 62.6897C131.806 62.6405 131.891 62.6139 131.979 62.6133C132.098 62.6141 132.211 62.6617 132.295 62.7456C132.379 62.8296 132.427 62.9431 132.428 63.0618Z" fill="black"/>
<path d="M126.075 67.7026C126.075 67.7744 126.054 67.8445 126.014 67.9042C125.974 67.9639 125.918 68.0104 125.851 68.0378C125.785 68.0653 125.712 68.0725 125.642 68.0585C125.571 68.0445 125.507 68.0099 125.456 67.9592C125.405 67.9084 125.371 67.8438 125.357 67.7734C125.343 67.703 125.35 67.6301 125.377 67.5638C125.405 67.4975 125.451 67.4408 125.511 67.401C125.571 67.3611 125.641 67.3398 125.712 67.3398C125.808 67.3407 125.9 67.3792 125.968 67.447C126.036 67.5149 126.074 67.6067 126.075 67.7026Z" fill="black"/>
<path d="M130.085 63.9267C130.084 63.9984 130.062 64.0684 130.022 64.1277C129.982 64.1869 129.924 64.2329 129.858 64.2598C129.791 64.2866 129.718 64.2931 129.648 64.2785C129.578 64.2639 129.514 64.2287 129.463 64.1775C129.413 64.1263 129.379 64.0614 129.366 63.9909C129.352 63.9204 129.36 63.8475 129.388 63.7815C129.416 63.7154 129.463 63.6592 129.523 63.6199C129.583 63.5805 129.654 63.5599 129.725 63.5606C129.821 63.5623 129.913 63.6016 129.98 63.6701C130.047 63.7386 130.085 63.8307 130.085 63.9267Z" fill="black"/>
<path d="M129.363 69.7716C129.364 69.8435 129.343 69.914 129.304 69.9741C129.264 70.0342 129.208 70.0812 129.142 70.1091C129.075 70.1371 129.002 70.1447 128.932 70.1311C128.861 70.1175 128.796 70.0832 128.745 70.0326C128.694 69.982 128.659 69.9174 128.645 69.8469C128.631 69.7764 128.638 69.7033 128.665 69.6368C128.692 69.5704 128.739 69.5135 128.799 69.4735C128.858 69.4335 128.929 69.4121 129 69.4121C129.096 69.413 129.187 69.451 129.255 69.5181C129.323 69.5853 129.362 69.6762 129.363 69.7716Z" fill="black"/>
<path d="M105.075 10.2169C105.105 10.1051 105.164 10.0034 105.247 9.92317C105.33 9.84289 105.434 9.78705 105.547 9.76176L105.676 8.80859L105.867 9.76836C105.976 9.80176 106.075 9.86312 106.154 9.9464C106.233 10.0297 106.288 10.132 106.315 10.2433L107.275 10.3818L106.306 10.5533C106.275 10.6626 106.216 10.7618 106.134 10.8406C106.052 10.9194 105.951 10.9751 105.841 11.0019L105.676 11.9913L105.514 11.0019C105.406 10.9712 105.308 10.9127 105.23 10.8322C105.152 10.7518 105.096 10.6522 105.069 10.5434L104.139 10.3917L105.075 10.2268" fill="black"/>
<path d="M80.0923 78.5567C80.125 78.4455 80.1864 78.3449 80.2704 78.265C80.3544 78.1851 80.4579 78.1288 80.5706 78.1016L80.6992 77.1484L80.8872 78.1115C80.9971 78.1436 81.0964 78.2046 81.1747 78.2881C81.253 78.3716 81.3075 78.4747 81.3324 78.5864L82.2988 78.7216L81.3093 78.8965C81.2793 79.0047 81.221 79.1029 81.1404 79.1812C81.0599 79.2594 80.9599 79.3148 80.8509 79.3417L80.686 80.3311L80.5211 79.3417C80.4147 79.3088 80.3184 79.2495 80.2411 79.1693C80.1639 79.0892 80.1081 78.9908 80.0791 78.8833L79.1523 78.7282L80.0791 78.5633" fill="black"/>
<path d="M126.032 69.7449C126.065 69.6343 126.127 69.5344 126.211 69.4551C126.295 69.3758 126.398 69.3199 126.511 69.293L126.633 68.3398L126.821 69.2996C126.931 69.3333 127.03 69.3951 127.108 69.479C127.187 69.5629 127.242 69.6659 127.269 69.7778L128.235 69.9131L127.246 70.0846C127.214 70.1922 127.155 70.2898 127.075 70.3683C126.995 70.4468 126.896 70.5035 126.788 70.5331L126.619 71.5226L126.458 70.5331C126.35 70.5025 126.253 70.444 126.175 70.3635C126.097 70.283 126.042 70.1833 126.016 70.0747L125.079 69.923L126.019 69.7547" fill="black"/>
<path d="M129.673 59.92C129.703 59.8082 129.762 59.7066 129.845 59.6263C129.929 59.546 130.032 59.4902 130.145 59.4649L130.274 58.5117L130.458 59.4748C130.569 59.5068 130.669 59.5682 130.747 59.6524C130.826 59.7366 130.88 59.8405 130.904 59.953L131.873 60.0882L130.884 60.2597C130.853 60.3682 130.794 60.4666 130.713 60.5448C130.632 60.623 130.532 60.6783 130.422 60.705L130.261 61.6944L130.092 60.705C129.985 60.6753 129.888 60.6169 129.811 60.5362C129.734 60.4554 129.681 60.3553 129.657 60.2466L128.724 60.0948L129.66 59.9266" fill="black"/>
<path d="M84.5548 23.6271C84.5841 23.5152 84.6436 23.4136 84.7268 23.3333C84.81 23.253 84.9137 23.1972 85.0265 23.1719L85.1551 22.2188L85.3464 23.1785C85.4557 23.2111 85.5543 23.2723 85.632 23.3558C85.7097 23.4393 85.7637 23.5421 85.7883 23.6534L86.7547 23.792L85.7851 23.9635C85.7535 24.0726 85.6935 24.1713 85.6112 24.2496C85.5289 24.3278 85.4273 24.3828 85.3167 24.4087L85.1551 25.3982L84.9869 24.4087C84.8802 24.3771 84.7837 24.3181 84.7067 24.2377C84.6298 24.1573 84.5752 24.0582 84.5482 23.9503L83.6182 23.7986L84.5548 23.6337" fill="black"/>
<path d="M81.61 44.3086C84.9081 50.0474 88.7208 54.2492 91.8046 58.24C94.542 61.7789 99.8718 63.5533 97.9985 65.2354C95.8811 67.1285 90.7425 58.771 90.7425 58.771C87.0187 54.346 83.6809 49.6101 80.7656 44.6153L81.61 44.3185" fill="black"/>
<path d="M121.375 36.0701C96.1972 47.5938 65.4254 49.1704 48.0243 59.7673L46.8799 59.3682C62.7506 48.9461 90.4485 42.2178 113.259 33.1611C115.709 32.1717 118.12 31.1822 120.472 30.1367" fill="black"/>
<path d="M83.7768 38.1621H91.7287L97.4213 52.5124L99.3243 54.4187H88.978L90.8778 52.5124L90.2181 50.7644H84.4925L83.9022 52.763L85.2643 54.4121H79.8652L81.765 52.5058L85.4259 39.8244L83.7768 38.1621ZM89.1858 48.2446L86.8771 42.4167L85.2016 48.2446H89.1858Z" fill="black"/>
<path d="M120.716 38.1621H128.961L134.657 52.5124L136.557 54.4187H126.201L128.1 52.5124L127.441 50.7644H121.705L121.115 52.763L122.474 54.4121H117.088L118.988 52.5058L122.652 39.8178L120.716 38.1621ZM126.412 48.2446L124.103 42.4167L122.428 48.2446H126.412Z" fill="black"/>
<path d="M72.9954 48.2879V39.8249L71.3464 38.1758H76.851L75.2019 39.8249V52.5129L77.1016 54.4192H69.8787L63.6584 43.8915V52.5129L65.258 54.4192H59.4961L61.3958 52.5129V39.8249L59.7468 38.1758H66.9565L73.0119 48.3011" fill="black"/>
<path d="M114.624 42.3309L114.449 37.2715L112.751 38.4456C110.343 37.6079 107.553 37.6409 105.597 38.5677C103.77 39.4318 101.801 41.2524 102.045 43.8447C102.289 46.437 104.291 47.4364 106.098 48.2576C108.43 49.313 110.963 49.6692 110.924 51.0611C110.901 51.9516 109.426 52.5848 108.285 52.5485C107.24 52.5155 103.843 52.2616 102.068 50.1508L102.398 55.4773L104.294 54.0855C106.603 54.9001 109.39 55.2398 111.979 54.3988C114.568 53.5578 117.256 51.4305 115.746 47.6574C115.086 46.038 113.325 45.0419 112.266 44.6099C111.296 44.2141 108.341 43.0498 107.513 42.631C106.544 42.1264 106.653 40.5301 108.978 40.2068C111.082 39.9133 113.994 41.5987 114.618 42.3407" fill="black"/>
<path d="M59.1717 84.3266C91.0319 51.7969 138.548 36.7705 154.287 5.74805C144.812 35.9064 94.0464 52.5323 59.0859 85.8437L59.1717 84.3166" fill="black"/>
<path d="M80.7652 44.6166C80.3859 43.9768 80.0132 43.3204 79.6372 42.6377C71.1445 27.3475 72.3813 11.7505 87.7441 18.5612C100.795 24.3297 113.262 40.5137 118.272 52.0012C120.58 57.3277 126.824 78.2248 106.771 69.7584L106.732 69.6364C125.673 77.4365 122.398 57.6707 112.256 42.519C106.52 33.9438 99.0402 26.8 94.3206 23.3534C78.6115 11.8725 69.0237 18.8943 80.056 41.4009C80.5541 42.42 81.0752 43.3798 81.6095 44.3231L80.7619 44.6199" fill="black"/>
<path d="M120.475 30.1368C134.805 23.7747 147.19 15.9547 154.287 5.73047C146.932 20.7206 134.97 29.8334 121.378 36.0537" fill="black"/>
</svg>
