<svg width="201" height="91" viewBox="0 0 201 91" fill="none" xmlns="http://www.w3.org/2000/svg">
<path d="M96.6625 1.00391C71.9758 1.00391 51.6592 21.3205 51.6592 46.0006C51.6592 70.6807 71.9758 91.0039 96.6625 91.0039C121.349 91.0039 141.659 70.6873 141.659 46.0006C141.659 21.3139 121.343 1.00391 96.6625 1.00391ZM96.6625 2.0857C120.739 2.0857 140.581 21.9109 140.581 46.0006C140.581 70.0903 120.749 89.9254 96.6625 89.9254C72.5761 89.9254 52.7377 70.0969 52.7377 46.0006C52.7377 21.9043 72.5629 2.0857 96.6625 2.0857Z" fill="black"/>
<path d="M97.2751 5.58547C97.2758 5.65815 97.2548 5.72939 97.2148 5.79009C97.1749 5.8508 97.1177 5.89823 97.0507 5.92635C96.9836 5.95446 96.9098 5.962 96.8385 5.94798C96.7671 5.93396 96.7016 5.89901 96.6502 5.84762C96.5988 5.79622 96.5639 5.73069 96.5498 5.65937C96.5358 5.58805 96.5433 5.51416 96.5715 5.44713C96.5996 5.38011 96.647 5.32297 96.7077 5.28299C96.7684 5.24302 96.8397 5.22202 96.9124 5.22267C97.0083 5.22353 97.1001 5.26203 97.1679 5.32989C97.2358 5.39774 97.2743 5.48952 97.2751 5.58547Z" fill="black"/>
<path d="M99.7819 11.0735C99.7819 11.1623 99.7556 11.249 99.7063 11.3227C99.657 11.3965 99.5869 11.454 99.505 11.488C99.423 11.5219 99.3328 11.5308 99.2458 11.5135C99.1588 11.4962 99.0789 11.4534 99.0161 11.3907C98.9534 11.328 98.9107 11.2481 98.8934 11.1611C98.8761 11.0741 98.885 10.9839 98.9189 10.9019C98.9529 10.8199 99.0104 10.7499 99.0841 10.7006C99.1579 10.6513 99.2446 10.625 99.3333 10.625C99.452 10.6259 99.5656 10.6734 99.6495 10.7573C99.7335 10.8413 99.781 10.9548 99.7819 11.0735Z" fill="black"/>
<path d="M106.297 20.0351C106.297 20.1532 106.25 20.2664 106.166 20.3499C106.083 20.4334 105.97 20.4803 105.851 20.4803C105.733 20.4803 105.62 20.4334 105.537 20.3499C105.453 20.2664 105.406 20.1532 105.406 20.0351C105.406 19.917 105.453 19.8038 105.537 19.7203C105.62 19.6368 105.733 19.5898 105.851 19.5898C105.97 19.5898 106.083 19.6368 106.166 19.7203C106.25 19.8038 106.297 19.917 106.297 20.0351Z" fill="black"/>
<path d="M95.8216 14.163C95.8264 14.2133 95.8207 14.2641 95.8047 14.3121C95.7887 14.36 95.7629 14.4041 95.7289 14.4415C95.6949 14.479 95.6535 14.5088 95.6072 14.5293C95.561 14.5498 95.511 14.5603 95.4604 14.5603C95.4099 14.5603 95.3599 14.5498 95.3137 14.5293C95.2674 14.5088 95.226 14.479 95.192 14.4415C95.158 14.4041 95.1322 14.36 95.1162 14.3121C95.1002 14.2641 95.0945 14.2133 95.0993 14.163C95.0945 14.1127 95.1002 14.0619 95.1162 14.0139C95.1322 13.9659 95.158 13.9218 95.192 13.8844C95.226 13.847 95.2674 13.8171 95.3137 13.7966C95.3599 13.7762 95.4099 13.7656 95.4604 13.7656C95.511 13.7656 95.561 13.7762 95.6072 13.7966C95.6535 13.8171 95.6949 13.847 95.7289 13.8844C95.7629 13.9218 95.7887 13.9659 95.8047 14.0139C95.8207 14.0619 95.8264 14.1127 95.8216 14.163Z" fill="black"/>
<path d="M99.7229 16.2286C99.7229 16.324 99.685 16.4154 99.6176 16.4828C99.5502 16.5503 99.4588 16.5881 99.3634 16.5881C99.2681 16.5881 99.1766 16.5503 99.1092 16.4828C99.0418 16.4154 99.0039 16.324 99.0039 16.2286C99.0039 16.1814 99.0132 16.1347 99.0313 16.0911C99.0493 16.0475 99.0758 16.0078 99.1092 15.9744C99.1426 15.941 99.1822 15.9146 99.2258 15.8965C99.2695 15.8784 99.3162 15.8691 99.3634 15.8691C99.4106 15.8691 99.4574 15.8784 99.501 15.8965C99.5446 15.9146 99.5842 15.941 99.6176 15.9744C99.651 16.0078 99.6775 16.0475 99.6955 16.0911C99.7136 16.1347 99.7229 16.1814 99.7229 16.2286Z" fill="black"/>
<path d="M94.66 10.4687C94.66 10.5569 94.6338 10.6431 94.5848 10.7164C94.5357 10.7897 94.466 10.8468 94.3844 10.8804C94.3029 10.914 94.2132 10.9226 94.1267 10.9051C94.0402 10.8877 93.9609 10.845 93.8988 10.7824C93.8366 10.7198 93.7945 10.6401 93.7777 10.5535C93.7609 10.4669 93.7702 10.3773 93.8044 10.296C93.8386 10.2147 93.8962 10.1454 93.9698 10.0969C94.0435 10.0484 94.1299 10.0228 94.2181 10.0234C94.3353 10.0252 94.4473 10.0727 94.5299 10.156C94.6125 10.2392 94.6592 10.3514 94.66 10.4687Z" fill="black"/>
<path d="M88.7471 14.0509C88.7477 14.1229 88.7269 14.1935 88.6873 14.2537C88.6477 14.3139 88.5911 14.3609 88.5246 14.3888C88.4582 14.4166 88.385 14.4241 88.3143 14.4102C88.2436 14.3963 88.1787 14.3617 88.1277 14.3107C88.0768 14.2598 88.0422 14.1949 88.0283 14.1242C88.0144 14.0535 88.0219 13.9803 88.0497 13.9139C88.0776 13.8474 88.1246 13.7908 88.1848 13.7512C88.2449 13.7116 88.3155 13.6908 88.3876 13.6914C88.4829 13.6914 88.5743 13.7293 88.6418 13.7967C88.7092 13.8641 88.7471 13.9556 88.7471 14.0509Z" fill="black"/>
<path d="M89.8086 14.7769C89.8086 14.8486 89.7873 14.9188 89.7475 14.9784C89.7076 15.0381 89.6509 15.0846 89.5846 15.112C89.5184 15.1395 89.4454 15.1467 89.375 15.1327C89.3047 15.1187 89.24 15.0841 89.1893 15.0334C89.1385 14.9827 89.104 14.918 89.09 14.8476C89.076 14.7773 89.0832 14.7043 89.1106 14.638C89.1381 14.5717 89.1846 14.5151 89.2442 14.4752C89.3039 14.4353 89.3741 14.4141 89.4458 14.4141C89.5418 14.4149 89.6335 14.4534 89.7014 14.5213C89.7692 14.5891 89.8077 14.6809 89.8086 14.7769Z" fill="black"/>
<path d="M90.8643 15.5034C90.8643 15.5752 90.843 15.6453 90.8031 15.705C90.7633 15.7646 90.7066 15.8111 90.6403 15.8386C90.574 15.8661 90.5011 15.8732 90.4307 15.8592C90.3603 15.8452 90.2957 15.8107 90.2449 15.76C90.1942 15.7092 90.1596 15.6446 90.1456 15.5742C90.1316 15.5038 90.1388 15.4309 90.1663 15.3646C90.1937 15.2983 90.2402 15.2416 90.2999 15.2018C90.3596 15.1619 90.4297 15.1406 90.5015 15.1406C90.5974 15.1415 90.6892 15.18 90.757 15.2478C90.8249 15.3157 90.8634 15.4075 90.8643 15.5034Z" fill="black"/>
<path d="M89.248 16.8947C89.2487 16.9667 89.2279 17.0373 89.1883 17.0975C89.1487 17.1576 89.092 17.2046 89.0256 17.2325C88.9592 17.2604 88.886 17.2678 88.8153 17.2539C88.7446 17.24 88.6797 17.2054 88.6287 17.1545C88.5778 17.1035 88.5432 17.0386 88.5293 16.9679C88.5154 16.8972 88.5228 16.824 88.5507 16.7576C88.5786 16.6912 88.6256 16.6345 88.6857 16.5949C88.7459 16.5553 88.8165 16.5345 88.8885 16.5352C88.9836 16.536 89.0746 16.5742 89.1418 16.6414C89.209 16.7086 89.2472 16.7996 89.248 16.8947Z" fill="black"/>
<path d="M80.8379 22.8003C80.8379 22.8965 80.7997 22.9888 80.7316 23.0568C80.6636 23.1249 80.5713 23.1631 80.4751 23.1631C80.3789 23.1631 80.2866 23.1249 80.2186 23.0568C80.1505 22.9888 80.1123 22.8965 80.1123 22.8003C80.1123 22.7041 80.1505 22.6118 80.2186 22.5438C80.2866 22.4757 80.3789 22.4375 80.4751 22.4375C80.5713 22.4375 80.6636 22.4757 80.7316 22.5438C80.7997 22.6118 80.8379 22.7041 80.8379 22.8003Z" fill="black"/>
<path d="M82.3975 24.6948C82.3975 24.7666 82.3762 24.8367 82.3363 24.8964C82.2965 24.956 82.2398 25.0026 82.1735 25.03C82.1072 25.0575 82.0343 25.0647 81.9639 25.0507C81.8935 25.0367 81.8289 25.0021 81.7781 24.9514C81.7274 24.9006 81.6928 24.836 81.6788 24.7656C81.6648 24.6952 81.672 24.6223 81.6995 24.556C81.727 24.4897 81.7735 24.433 81.8331 24.3932C81.8928 24.3533 81.9629 24.332 82.0347 24.332C82.1309 24.332 82.2232 24.3703 82.2912 24.4383C82.3592 24.5063 82.3975 24.5986 82.3975 24.6948Z" fill="black"/>
<path d="M81.1709 55.2808C81.1709 55.3525 81.1496 55.4227 81.1098 55.4823C81.0699 55.542 81.0132 55.5885 80.9469 55.6159C80.8807 55.6434 80.8077 55.6506 80.7373 55.6366C80.667 55.6226 80.6023 55.588 80.5516 55.5373C80.5008 55.4866 80.4663 55.4219 80.4523 55.3515C80.4383 55.2812 80.4455 55.2082 80.4729 55.1419C80.5004 55.0756 80.5469 55.019 80.6065 54.9791C80.6662 54.9392 80.7364 54.918 80.8081 54.918C80.9043 54.918 80.9966 54.9562 81.0647 55.0242C81.1327 55.0923 81.1709 55.1845 81.1709 55.2808Z" fill="black"/>
<path d="M81.3951 63.7193C81.3964 63.8083 81.3712 63.8956 81.3227 63.9703C81.2743 64.0449 81.2047 64.1034 81.1228 64.1384C81.041 64.1733 80.9506 64.1832 80.8632 64.1666C80.7757 64.1501 80.6952 64.1079 80.6318 64.0454C80.5684 63.983 80.525 63.903 80.5072 63.8159C80.4893 63.7287 80.4978 63.6382 80.5316 63.5558C80.5653 63.4735 80.6228 63.403 80.6967 63.3534C80.7706 63.3038 80.8575 63.2774 80.9465 63.2773C81.0641 63.2782 81.1767 63.3248 81.2605 63.4073C81.3442 63.4898 81.3925 63.6018 81.3951 63.7193Z" fill="black"/>
<path d="M76.6025 68.0386C76.6025 68.1102 76.5813 68.1802 76.5416 68.2398C76.5019 68.2994 76.4454 68.3459 76.3793 68.3734C76.3132 68.401 76.2404 68.4083 76.1702 68.3946C76.0999 68.3809 76.0352 68.3467 75.9844 68.2963C75.9335 68.2458 75.8987 68.1815 75.8843 68.1114C75.87 68.0412 75.8767 67.9684 75.9036 67.902C75.9306 67.8357 75.9766 67.7788 76.0358 67.7385C76.095 67.6982 76.1648 67.6764 76.2364 67.6758C76.333 67.6758 76.4256 67.7139 76.4942 67.7818C76.5627 67.8498 76.6017 67.942 76.6025 68.0386Z" fill="black"/>
<path d="M70.8612 69.7929C70.8612 69.8811 70.835 69.9673 70.7859 70.0406C70.7369 70.1139 70.6671 70.171 70.5856 70.2046C70.504 70.2382 70.4143 70.2468 70.3279 70.2294C70.2414 70.2119 70.1621 70.1692 70.0999 70.1066C70.0378 70.044 69.9957 69.9643 69.9789 69.8777C69.9621 69.7912 69.9713 69.7015 70.0056 69.6202C70.0398 69.5389 70.0973 69.4696 70.171 69.4211C70.2446 69.3726 70.3311 69.347 70.4193 69.3477C70.5368 69.3485 70.6492 69.3958 70.732 69.4792C70.8147 69.5626 70.8612 69.6754 70.8612 69.7929Z" fill="black"/>
<path d="M69.69 65.8784C69.6932 65.9679 69.6694 66.0563 69.6216 66.1321C69.5738 66.2078 69.5043 66.2674 69.4221 66.303C69.3399 66.3386 69.2488 66.3486 69.1609 66.3317C69.0729 66.3147 68.9921 66.2717 68.929 66.2081C68.8659 66.1445 68.8235 66.0634 68.8072 65.9753C68.7909 65.8872 68.8016 65.7962 68.8379 65.7143C68.8741 65.6324 68.9342 65.5633 69.0104 65.5161C69.0865 65.4689 69.1751 65.4457 69.2646 65.4496C69.3818 65.4496 69.4942 65.4962 69.5771 65.5791C69.6599 65.662 69.7065 65.7744 69.7065 65.8916" fill="black"/>
<path d="M69.0264 68.3712C69.027 68.4431 69.0063 68.5136 68.9668 68.5737C68.9274 68.6338 68.8709 68.6808 68.8047 68.7088C68.7385 68.7367 68.6654 68.7444 68.5948 68.7308C68.5242 68.7171 68.4593 68.6828 68.4082 68.6322C68.3571 68.5816 68.3223 68.517 68.308 68.4465C68.2937 68.3761 68.3007 68.3029 68.3281 68.2365C68.3554 68.17 68.4019 68.1131 68.4617 68.0731C68.5214 68.0331 68.5917 68.0117 68.6636 68.0117C68.7592 68.0117 68.851 68.0495 68.9189 68.1168C68.9869 68.1841 69.0255 68.2756 69.0264 68.3712Z" fill="black"/>
<path d="M64.7361 66.314C64.7367 66.3865 64.7158 66.4576 64.676 66.5183C64.6362 66.5789 64.5792 66.6263 64.5124 66.6545C64.4455 66.6828 64.3718 66.6905 64.3006 66.6767C64.2294 66.663 64.1638 66.6284 64.1123 66.5773C64.0608 66.5262 64.0256 66.461 64.0112 66.3899C63.9968 66.3188 64.0038 66.245 64.0314 66.178C64.0591 66.1109 64.106 66.0535 64.1663 66.0131C64.2265 65.9727 64.2974 65.9512 64.37 65.9512C64.4665 65.9512 64.5591 65.9893 64.6277 66.0572C64.6962 66.1252 64.7352 66.2175 64.7361 66.314Z" fill="black"/>
<path d="M79.7236 73.2802C79.723 73.3519 79.701 73.4219 79.6606 73.4811C79.6202 73.5404 79.5632 73.5864 79.4966 73.6133C79.4301 73.6401 79.3571 73.6467 79.2868 73.632C79.2166 73.6174 79.1523 73.5822 79.102 73.5311C79.0517 73.4799 79.0177 73.4149 79.0044 73.3444C78.991 73.2739 78.9989 73.201 79.0269 73.135C79.055 73.0689 79.102 73.0127 79.162 72.9734C79.222 72.9341 79.2924 72.9134 79.3641 72.9141C79.4601 72.9158 79.5515 72.9551 79.6187 73.0236C79.686 73.0921 79.7236 73.1842 79.7236 73.2802Z" fill="black"/>
<path d="M84.2322 69.963C84.2302 70.0501 84.2027 70.1348 84.153 70.2065C84.1034 70.2782 84.0337 70.3337 83.9528 70.3662C83.8719 70.3987 83.7832 70.4067 83.6977 70.3892C83.6123 70.3717 83.5339 70.3295 83.4722 70.2678C83.4105 70.2061 83.3683 70.1277 83.3508 70.0423C83.3333 69.9568 83.3413 69.8681 83.3738 69.7872C83.4063 69.7063 83.4618 69.6366 83.5335 69.587C83.6052 69.5373 83.6899 69.5098 83.777 69.5078C83.8358 69.5078 83.894 69.5194 83.9482 69.542C84.0024 69.5646 84.0517 69.5977 84.093 69.6394C84.1344 69.6811 84.1672 69.7306 84.1894 69.785C84.2115 69.8394 84.2227 69.8976 84.2223 69.9564" fill="black"/>
<path d="M84.7353 74.2222C84.7353 74.2939 84.7141 74.3641 84.6742 74.4237C84.6343 74.4834 84.5777 74.5299 84.5114 74.5574C84.4451 74.5848 84.3722 74.592 84.3018 74.578C84.2314 74.564 84.1668 74.5294 84.116 74.4787C84.0653 74.428 84.0307 74.3633 84.0167 74.2929C84.0027 74.2226 84.0099 74.1496 84.0374 74.0833C84.0648 74.017 84.1113 73.9604 84.171 73.9205C84.2307 73.8806 84.3008 73.8594 84.3726 73.8594C84.4688 73.8594 84.5611 73.8976 84.6291 73.9656C84.6971 74.0337 84.7353 74.1259 84.7353 74.2222Z" fill="black"/>
<path d="M103.292 70.1675C103.292 70.2392 103.271 70.3094 103.231 70.369C103.191 70.4287 103.134 70.4752 103.068 70.5027C103.002 70.5301 102.929 70.5373 102.858 70.5233C102.788 70.5093 102.723 70.4748 102.673 70.424C102.622 70.3733 102.587 70.3086 102.573 70.2383C102.559 70.1679 102.567 70.0949 102.594 70.0286C102.621 69.9623 102.668 69.9057 102.728 69.8658C102.787 69.826 102.857 69.8047 102.929 69.8047C102.977 69.8047 103.024 69.8141 103.068 69.8323C103.112 69.8505 103.152 69.8772 103.186 69.9109C103.219 69.9446 103.246 69.9846 103.264 70.0286C103.283 70.0727 103.292 70.1198 103.292 70.1675Z" fill="black"/>
<path d="M94.6602 73.2202C94.6602 73.292 94.6389 73.3621 94.599 73.4218C94.5592 73.4815 94.5025 73.5279 94.4362 73.5554C94.3699 73.5829 94.297 73.5901 94.2266 73.5761C94.1562 73.5621 94.0916 73.5275 94.0408 73.4768C93.9901 73.426 93.9555 73.3614 93.9415 73.291C93.9275 73.2206 93.9347 73.1477 93.9622 73.0814C93.9897 73.0151 94.0362 72.9584 94.0958 72.9186C94.1555 72.8787 94.2256 72.8574 94.2974 72.8574C94.3933 72.8583 94.4851 72.8968 94.553 72.9646C94.6208 73.0325 94.6593 73.1243 94.6602 73.2202Z" fill="black"/>
<path d="M117.886 77.6206C117.886 77.7168 117.848 77.8091 117.78 77.8771C117.711 77.9452 117.619 77.9834 117.523 77.9834C117.427 77.9834 117.334 77.9452 117.266 77.8771C117.198 77.8091 117.16 77.7168 117.16 77.6206C117.16 77.5244 117.198 77.4321 117.266 77.3641C117.334 77.296 117.427 77.2578 117.523 77.2578C117.619 77.2578 117.711 77.296 117.78 77.3641C117.848 77.4321 117.886 77.5244 117.886 77.6206Z" fill="black"/>
<path d="M119.782 60.4882C119.782 60.5771 119.757 60.6641 119.708 60.7383C119.659 60.8125 119.589 60.8705 119.507 60.905C119.425 60.9394 119.335 60.9488 119.248 60.9318C119.161 60.9149 119.08 60.8725 119.017 60.8099C118.954 60.7473 118.911 60.6673 118.894 60.5802C118.876 60.4931 118.885 60.4028 118.919 60.3206C118.952 60.2385 119.01 60.1682 119.084 60.1188C119.158 60.0694 119.244 60.043 119.333 60.043C119.452 60.043 119.565 60.0898 119.649 60.1732C119.733 60.2566 119.781 60.3698 119.782 60.4882Z" fill="black"/>
<path d="M116.214 62.9097C116.214 62.9816 116.193 63.0519 116.152 63.1116C116.112 63.1713 116.056 63.2178 115.989 63.2452C115.923 63.2725 115.85 63.2795 115.779 63.2652C115.709 63.251 115.644 63.2161 115.593 63.165C115.543 63.114 115.508 63.049 115.495 62.9784C115.481 62.9078 115.489 62.8348 115.517 62.7685C115.545 62.7023 115.592 62.6459 115.652 62.6064C115.712 62.567 115.782 62.5462 115.854 62.5469C115.95 62.5478 116.041 62.5864 116.109 62.6543C116.176 62.7222 116.214 62.814 116.214 62.9097Z" fill="black"/>
<path d="M119.726 63.6099C119.727 63.6981 119.702 63.7845 119.653 63.8582C119.604 63.9318 119.535 63.9894 119.454 64.0236C119.373 64.0578 119.283 64.0671 119.196 64.0503C119.11 64.0335 119.03 63.9914 118.968 63.9292C118.905 63.8671 118.862 63.7878 118.845 63.7013C118.827 63.6148 118.836 63.5251 118.87 63.4436C118.903 63.362 118.96 63.2923 119.033 63.2432C119.107 63.1942 119.193 63.168 119.281 63.168C119.399 63.168 119.511 63.2144 119.595 63.2972C119.678 63.38 119.726 63.4924 119.726 63.6099Z" fill="black"/>
<path d="M116.214 67.9259C116.214 67.998 116.194 68.0686 116.154 68.1287C116.114 68.1889 116.058 68.2359 115.991 68.2638C115.925 68.2916 115.852 68.2991 115.781 68.2852C115.71 68.2713 115.645 68.2367 115.595 68.1858C115.544 68.1348 115.509 68.0699 115.495 67.9992C115.481 67.9285 115.489 67.8553 115.517 67.7889C115.544 67.7224 115.591 67.6658 115.652 67.6262C115.712 67.5866 115.782 67.5658 115.854 67.5664C115.949 67.5673 116.04 67.6054 116.108 67.6727C116.175 67.7399 116.213 67.8309 116.214 67.9259Z" fill="black"/>
<path d="M125.294 58.0653C125.286 58.1551 125.244 58.2385 125.177 58.2992C125.11 58.3599 125.023 58.3936 124.933 58.3936C124.843 58.3936 124.756 58.3599 124.689 58.2992C124.622 58.2385 124.581 58.1551 124.572 58.0653C124.567 58.015 124.573 57.9642 124.589 57.9163C124.605 57.8683 124.631 57.8242 124.665 57.7868C124.699 57.7493 124.74 57.7194 124.786 57.699C124.833 57.6785 124.883 57.668 124.933 57.668C124.984 57.668 125.034 57.6785 125.08 57.699C125.126 57.7194 125.168 57.7493 125.202 57.7868C125.236 57.8242 125.261 57.8683 125.277 57.9163C125.293 57.9642 125.299 58.015 125.294 58.0653Z" fill="black"/>
<path d="M126.188 60.2728C126.188 60.3615 126.162 60.4482 126.113 60.522C126.063 60.5957 125.993 60.6532 125.911 60.6872C125.829 60.7211 125.739 60.73 125.652 60.7127C125.565 60.6954 125.485 60.6527 125.422 60.5899C125.36 60.5272 125.317 60.4473 125.3 60.3603C125.282 60.2733 125.291 60.1831 125.325 60.1011C125.359 60.0191 125.417 59.9491 125.49 59.8998C125.564 59.8505 125.651 59.8242 125.74 59.8242C125.859 59.8242 125.973 59.8715 126.057 59.9556C126.141 60.0397 126.188 60.1538 126.188 60.2728Z" fill="black"/>
<path d="M132.428 62.886C132.427 62.9738 132.4 63.0594 132.351 63.1322C132.302 63.2049 132.232 63.2614 132.151 63.2947C132.07 63.328 131.981 63.3366 131.895 63.3193C131.809 63.302 131.73 63.2597 131.668 63.1976C131.605 63.1355 131.563 63.0565 131.546 62.9704C131.529 62.8843 131.537 62.7951 131.57 62.7139C131.604 62.6326 131.66 62.5631 131.733 62.5139C131.806 62.4647 131.891 62.4382 131.979 62.4375C132.098 62.4384 132.211 62.4859 132.295 62.5698C132.379 62.6538 132.427 62.7673 132.428 62.886Z" fill="black"/>
<path d="M126.075 67.5269C126.075 67.5986 126.054 67.6688 126.014 67.7284C125.974 67.7881 125.918 67.8346 125.851 67.862C125.785 67.8895 125.712 67.8967 125.642 67.8827C125.571 67.8687 125.507 67.8341 125.456 67.7834C125.405 67.7327 125.371 67.668 125.357 67.5976C125.343 67.5273 125.35 67.4543 125.377 67.388C125.405 67.3217 125.451 67.2651 125.511 67.2252C125.571 67.1853 125.641 67.1641 125.712 67.1641C125.808 67.1649 125.9 67.2034 125.968 67.2713C126.036 67.3391 126.074 67.4309 126.075 67.5269Z" fill="black"/>
<path d="M130.085 63.7509C130.084 63.8226 130.062 63.8926 130.022 63.9519C129.982 64.0112 129.924 64.0571 129.858 64.084C129.791 64.1108 129.718 64.1174 129.648 64.1027C129.578 64.0881 129.514 64.053 129.463 64.0018C129.413 63.9506 129.379 63.8856 129.366 63.8151C129.352 63.7446 129.36 63.6717 129.388 63.6057C129.416 63.5397 129.463 63.4834 129.523 63.4441C129.583 63.4048 129.654 63.3841 129.725 63.3848C129.821 63.3865 129.913 63.4258 129.98 63.4943C130.047 63.5628 130.085 63.6549 130.085 63.7509Z" fill="black"/>
<path d="M129.363 69.5958C129.364 69.6677 129.343 69.7382 129.304 69.7983C129.264 69.8584 129.208 69.9054 129.142 69.9334C129.075 69.9613 129.002 69.969 128.932 69.9553C128.861 69.9417 128.796 69.9074 128.745 69.8568C128.694 69.8062 128.659 69.7416 128.645 69.6711C128.631 69.6007 128.638 69.5275 128.665 69.4611C128.692 69.3946 128.739 69.3377 128.799 69.2977C128.858 69.2577 128.929 69.2363 129 69.2363C129.096 69.2372 129.187 69.2752 129.255 69.3424C129.323 69.4095 129.362 69.5005 129.363 69.5958Z" fill="black"/>
<path d="M105.075 10.0411C105.105 9.92929 105.164 9.82767 105.247 9.74739C105.33 9.66711 105.434 9.61127 105.547 9.58598L105.676 8.63281L105.867 9.59258C105.976 9.62598 106.075 9.68734 106.154 9.77062C106.233 9.8539 106.288 9.95622 106.315 10.0675L107.275 10.206L106.306 10.3775C106.275 10.4868 106.216 10.586 106.134 10.6648C106.052 10.7436 105.951 10.7993 105.841 10.8261L105.676 11.8155L105.514 10.8261C105.406 10.7954 105.308 10.7369 105.23 10.6564C105.152 10.576 105.096 10.4764 105.069 10.3676L104.139 10.2159L105.075 10.051" fill="black"/>
<path d="M80.0923 78.381C80.125 78.2698 80.1864 78.1692 80.2704 78.0893C80.3544 78.0094 80.4579 77.953 80.5706 77.9258L80.6992 76.9727L80.8872 77.9357C80.9971 77.9678 81.0964 78.0288 81.1747 78.1123C81.253 78.1959 81.3075 78.2989 81.3324 78.4106L82.2988 78.5459L81.3093 78.7207C81.2793 78.8289 81.221 78.9271 81.1404 79.0054C81.0599 79.0836 80.9599 79.139 80.8509 79.1659L80.686 80.1554L80.5211 79.1659C80.4147 79.133 80.3184 79.0737 80.2411 78.9936C80.1639 78.9134 80.1081 78.815 80.0791 78.7075L79.1523 78.5525L80.0791 78.3876" fill="black"/>
<path d="M126.032 69.5691C126.065 69.4585 126.127 69.3586 126.211 69.2793C126.295 69.2 126.398 69.1441 126.511 69.1172L126.633 68.1641L126.821 69.1238C126.931 69.1575 127.03 69.2194 127.108 69.3033C127.187 69.3871 127.242 69.4902 127.269 69.6021L128.235 69.7373L127.246 69.9088C127.214 70.0164 127.155 70.114 127.075 70.1925C126.995 70.271 126.896 70.3278 126.788 70.3573L126.619 71.3468L126.458 70.3573C126.35 70.3268 126.253 70.2682 126.175 70.1877C126.097 70.1072 126.042 70.0075 126.016 69.8989L125.079 69.7472L126.019 69.579" fill="black"/>
<path d="M129.673 59.7443C129.703 59.6324 129.762 59.5308 129.845 59.4505C129.929 59.3702 130.032 59.3144 130.145 59.2891L130.274 58.3359L130.458 59.299C130.569 59.331 130.669 59.3924 130.747 59.4766C130.826 59.5608 130.88 59.6647 130.904 59.7772L131.873 59.9124L130.884 60.084C130.853 60.1924 130.794 60.2908 130.713 60.369C130.632 60.4472 130.532 60.5025 130.422 60.5292L130.261 61.5187L130.092 60.5292C129.985 60.4995 129.888 60.4411 129.811 60.3604C129.734 60.2796 129.681 60.1795 129.657 60.0708L128.724 59.919L129.66 59.7508" fill="black"/>
<path d="M84.5548 23.4513C84.5841 23.3394 84.6436 23.2378 84.7268 23.1575C84.81 23.0773 84.9137 23.0214 85.0265 22.9961L85.1551 22.043L85.3464 23.0027C85.4557 23.0353 85.5543 23.0965 85.632 23.18C85.7097 23.2635 85.7637 23.3663 85.7883 23.4777L86.7547 23.6162L85.7851 23.7877C85.7535 23.8968 85.6935 23.9955 85.6112 24.0738C85.5289 24.152 85.4273 24.207 85.3167 24.2329L85.1551 25.2224L84.9869 24.2329C84.8802 24.2013 84.7837 24.1423 84.7067 24.0619C84.6298 23.9815 84.5752 23.8825 84.5482 23.7745L83.6182 23.6228L84.5548 23.4579" fill="black"/>
<path d="M81.61 44.1328C84.9081 49.8716 88.7208 54.0734 91.8046 58.0642C94.542 61.6031 99.8718 63.3775 97.9985 65.0596C95.8811 66.9527 90.7425 58.5952 90.7425 58.5952C87.0187 54.1702 83.6809 49.4344 80.7656 44.4395L81.61 44.1427" fill="black"/>
<path d="M121.375 35.8943C96.1972 47.4181 65.4254 48.9946 48.0243 59.5915L46.8799 59.1925C62.7506 48.7703 90.4485 42.0421 113.259 32.9853C115.709 31.9959 118.12 31.0065 120.472 29.9609" fill="black"/>
<path d="M83.7768 37.9863H91.7287L97.4213 52.3366L99.3243 54.2429H88.978L90.8778 52.3366L90.2181 50.5886H84.4925L83.9022 52.5873L85.2643 54.2363H79.8652L81.765 52.33L85.4259 39.6486L83.7768 37.9863ZM89.1858 48.0688L86.8771 42.241L85.2016 48.0688H89.1858Z" fill="black"/>
<path d="M120.716 37.9863H128.961L134.657 52.3366L136.557 54.2429H126.201L128.1 52.3366L127.441 50.5886H121.705L121.115 52.5873L122.474 54.2363H117.088L118.988 52.33L122.652 39.642L120.716 37.9863ZM126.412 48.0688L124.103 42.241L122.428 48.0688H126.412Z" fill="black"/>
<path d="M72.9954 48.1121V39.6491L71.3464 38H76.851L75.2019 39.6491V52.3371L77.1016 54.2434H69.8787L63.6584 43.7157V52.3371L65.258 54.2434H59.4961L61.3958 52.3371V39.6491L59.7468 38H66.9565L73.0119 48.1253" fill="black"/>
<path d="M114.624 42.1551L114.449 37.0957L112.751 38.2698C110.343 37.4321 107.553 37.4651 105.597 38.3919C103.77 39.256 101.801 41.0766 102.045 43.6689C102.289 46.2613 104.291 47.2606 106.098 48.0818C108.43 49.1373 110.963 49.4935 110.924 50.8853C110.901 51.7758 109.426 52.409 108.285 52.3728C107.24 52.3398 103.843 52.0858 102.068 49.975L102.398 55.3015L104.294 53.9097C106.603 54.7243 109.39 55.064 111.979 54.223C114.568 53.382 117.256 51.2547 115.746 47.4816C115.086 45.8622 113.325 44.8662 112.266 44.4341C111.296 44.0383 108.341 42.8741 107.513 42.4552C106.544 41.9506 106.653 40.3543 108.978 40.0311C111.082 39.7375 113.994 41.4229 114.618 42.165" fill="black"/>
<path d="M59.1717 84.1508C91.0319 51.6211 138.548 36.5947 154.287 5.57227C144.812 35.7306 94.0464 52.3566 59.0859 85.6679L59.1717 84.1409" fill="black"/>
<path d="M80.7652 44.4408C80.3859 43.801 80.0132 43.1447 79.6372 42.4619C71.1445 27.1717 72.3813 11.5747 87.7441 18.3854C100.795 24.1539 113.262 40.3379 118.272 51.8254C120.58 57.1519 126.824 78.049 106.771 69.5826L106.732 69.4606C125.673 77.2607 122.398 57.4949 112.256 42.3432C106.52 33.768 99.0402 26.6242 94.3206 23.1776C78.6115 11.6968 69.0237 18.7185 80.056 41.2251C80.5541 42.2443 81.0752 43.204 81.6095 44.1473L80.7619 44.4441" fill="black"/>
<path d="M120.475 29.961C134.805 23.5989 147.19 15.779 154.287 5.55469C146.932 20.5448 134.97 29.6576 121.378 35.8779" fill="black"/>
</svg>
