<svg width="201" height="92" viewBox="0 0 201 92" fill="none" xmlns="http://www.w3.org/2000/svg">
<path d="M55.6625 1.35938C30.9758 1.35938 10.6592 21.676 10.6592 46.3561C10.6592 71.0362 30.9758 91.3594 55.6625 91.3594C80.3492 91.3594 100.659 71.0427 100.659 46.3561C100.659 21.6694 80.3426 1.35938 55.6625 1.35938ZM55.6625 2.44117C79.739 2.44117 99.5807 22.2664 99.5807 46.3561C99.5807 70.4458 79.7489 90.2809 55.6625 90.2809C31.5761 90.2809 11.7377 70.4524 11.7377 46.3561C11.7377 22.2598 31.5629 2.44117 55.6625 2.44117Z" fill="black"/>
<path d="M56.2751 5.94094C56.2758 6.01362 56.2548 6.08486 56.2148 6.14556C56.1749 6.20627 56.1177 6.2537 56.0507 6.28182C55.9836 6.30993 55.9098 6.31747 55.8385 6.30345C55.7671 6.28942 55.7016 6.25448 55.6502 6.20309C55.5988 6.15169 55.5639 6.08616 55.5498 6.01484C55.5358 5.94352 55.5433 5.86963 55.5715 5.8026C55.5996 5.73557 55.647 5.67844 55.7077 5.63846C55.7684 5.59849 55.8397 5.57749 55.9124 5.57814C56.0083 5.579 56.1001 5.6175 56.1679 5.68535C56.2358 5.75321 56.2743 5.84499 56.2751 5.94094Z" fill="black"/>
<path d="M58.7819 11.429C58.7819 11.5177 58.7556 11.6045 58.7063 11.6782C58.657 11.752 58.5869 11.8095 58.505 11.8434C58.423 11.8774 58.3328 11.8863 58.2458 11.869C58.1588 11.8516 58.0789 11.8089 58.0161 11.7462C57.9534 11.6835 57.9107 11.6035 57.8934 11.5165C57.8761 11.4295 57.885 11.3393 57.9189 11.2574C57.9529 11.1754 58.0104 11.1053 58.0841 11.0561C58.1579 11.0068 58.2446 10.9805 58.3333 10.9805C58.452 10.9813 58.5656 11.0289 58.6495 11.1128C58.7335 11.1967 58.781 11.3103 58.7819 11.429Z" fill="black"/>
<path d="M65.2968 20.3906C65.2968 20.5087 65.2498 20.6219 65.1663 20.7054C65.0828 20.7889 64.9696 20.8358 64.8515 20.8358C64.7334 20.8358 64.6202 20.7889 64.5367 20.7054C64.4532 20.6219 64.4062 20.5087 64.4062 20.3906C64.4062 20.2725 64.4532 20.1592 64.5367 20.0757C64.6202 19.9922 64.7334 19.9453 64.8515 19.9453C64.9696 19.9453 65.0828 19.9922 65.1663 20.0757C65.2498 20.1592 65.2968 20.2725 65.2968 20.3906Z" fill="black"/>
<path d="M54.8216 14.5184C54.8264 14.5688 54.8207 14.6195 54.8047 14.6675C54.7887 14.7155 54.7629 14.7596 54.7289 14.797C54.6949 14.8344 54.6535 14.8643 54.6072 14.8848C54.561 14.9052 54.511 14.9158 54.4604 14.9158C54.4099 14.9158 54.3599 14.9052 54.3137 14.8848C54.2674 14.8643 54.226 14.8344 54.192 14.797C54.158 14.7596 54.1322 14.7155 54.1162 14.6675C54.1002 14.6195 54.0945 14.5688 54.0993 14.5184C54.0945 14.4681 54.1002 14.4173 54.1162 14.3694C54.1322 14.3214 54.158 14.2773 54.192 14.2399C54.226 14.2025 54.2674 14.1726 54.3137 14.1521C54.3599 14.1317 54.4099 14.1211 54.4604 14.1211C54.511 14.1211 54.561 14.1317 54.6072 14.1521C54.6535 14.1726 54.6949 14.2025 54.7289 14.2399C54.7629 14.2773 54.7887 14.3214 54.8047 14.3694C54.8207 14.4173 54.8264 14.4681 54.8216 14.5184Z" fill="black"/>
<path d="M58.7229 16.5841C58.7229 16.6795 58.685 16.7709 58.6176 16.8383C58.5502 16.9057 58.4588 16.9436 58.3634 16.9436C58.2681 16.9436 58.1766 16.9057 58.1092 16.8383C58.0418 16.7709 58.0039 16.6795 58.0039 16.5841C58.0039 16.5369 58.0132 16.4902 58.0313 16.4465C58.0493 16.4029 58.0758 16.3633 58.1092 16.3299C58.1426 16.2965 58.1822 16.27 58.2258 16.252C58.2695 16.2339 58.3162 16.2246 58.3634 16.2246C58.4106 16.2246 58.4574 16.2339 58.501 16.252C58.5446 16.27 58.5842 16.2965 58.6176 16.3299C58.651 16.3633 58.6775 16.4029 58.6955 16.4465C58.7136 16.4902 58.7229 16.5369 58.7229 16.5841Z" fill="black"/>
<path d="M53.66 10.8242C53.66 10.9124 53.6338 10.9986 53.5848 11.0719C53.5357 11.1452 53.466 11.2022 53.3844 11.2358C53.3029 11.2694 53.2132 11.2781 53.1267 11.2606C53.0402 11.2432 52.9609 11.2004 52.8988 11.1378C52.8366 11.0752 52.7945 10.9956 52.7777 10.909C52.7609 10.8224 52.7702 10.7328 52.8044 10.6515C52.8386 10.5702 52.8962 10.5009 52.9698 10.4524C53.0435 10.4038 53.1299 10.3783 53.2181 10.3789C53.3353 10.3806 53.4473 10.4282 53.5299 10.5114C53.6125 10.5946 53.6592 10.7069 53.66 10.8242Z" fill="black"/>
<path d="M47.7471 14.4064C47.7477 14.4784 47.7269 14.549 47.6873 14.6092C47.6477 14.6693 47.5911 14.7164 47.5246 14.7442C47.4582 14.7721 47.385 14.7796 47.3143 14.7657C47.2436 14.7518 47.1787 14.7171 47.1277 14.6662C47.0768 14.6153 47.0422 14.5503 47.0283 14.4797C47.0144 14.409 47.0219 14.3357 47.0497 14.2693C47.0776 14.2029 47.1246 14.1463 47.1848 14.1067C47.2449 14.067 47.3155 14.0462 47.3876 14.0469C47.4829 14.0469 47.5743 14.0848 47.6418 14.1522C47.7092 14.2196 47.7471 14.311 47.7471 14.4064Z" fill="black"/>
<path d="M48.8086 15.1323C48.8086 15.2041 48.7873 15.2742 48.7475 15.3339C48.7076 15.3935 48.6509 15.4401 48.5846 15.4675C48.5184 15.495 48.4454 15.5022 48.375 15.4882C48.3047 15.4742 48.24 15.4396 48.1893 15.3889C48.1385 15.3381 48.104 15.2735 48.09 15.2031C48.076 15.1327 48.0832 15.0598 48.1106 14.9935C48.1381 14.9272 48.1846 14.8705 48.2442 14.8307C48.3039 14.7908 48.3741 14.7695 48.4458 14.7695C48.5418 14.7704 48.6335 14.8089 48.7014 14.8767C48.7692 14.9446 48.8077 15.0364 48.8086 15.1323Z" fill="black"/>
<path d="M49.8643 15.8589C49.8643 15.9306 49.843 16.0008 49.8031 16.0604C49.7633 16.1201 49.7066 16.1666 49.6403 16.1941C49.574 16.2215 49.5011 16.2287 49.4307 16.2147C49.3603 16.2007 49.2957 16.1662 49.2449 16.1154C49.1942 16.0647 49.1596 16 49.1456 15.9297C49.1316 15.8593 49.1388 15.7863 49.1663 15.7201C49.1937 15.6538 49.2402 15.5971 49.2999 15.5572C49.3596 15.5174 49.4297 15.4961 49.5015 15.4961C49.5974 15.497 49.6892 15.5355 49.757 15.6033C49.8249 15.6712 49.8634 15.7629 49.8643 15.8589Z" fill="black"/>
<path d="M48.248 17.2501C48.2487 17.3222 48.2279 17.3928 48.1883 17.4529C48.1487 17.5131 48.092 17.5601 48.0256 17.588C47.9592 17.6158 47.886 17.6233 47.8153 17.6094C47.7446 17.5955 47.6797 17.5609 47.6287 17.5099C47.5778 17.459 47.5432 17.3941 47.5293 17.3234C47.5154 17.2527 47.5228 17.1795 47.5507 17.1131C47.5786 17.0466 47.6256 16.99 47.6857 16.9504C47.7459 16.9108 47.8165 16.89 47.8885 16.8906C47.9836 16.8915 48.0746 16.9296 48.1418 16.9969C48.209 17.0641 48.2472 17.1551 48.248 17.2501Z" fill="black"/>
<path d="M39.8379 23.1558C39.8379 23.252 39.7997 23.3443 39.7316 23.4123C39.6636 23.4803 39.5713 23.5186 39.4751 23.5186C39.3789 23.5186 39.2866 23.4803 39.2186 23.4123C39.1505 23.3443 39.1123 23.252 39.1123 23.1558C39.1123 23.0595 39.1505 22.9673 39.2186 22.8992C39.2866 22.8312 39.3789 22.793 39.4751 22.793C39.5713 22.793 39.6636 22.8312 39.7316 22.8992C39.7997 22.9673 39.8379 23.0595 39.8379 23.1558Z" fill="black"/>
<path d="M41.3975 25.0503C41.3975 25.1221 41.3762 25.1922 41.3363 25.2519C41.2965 25.3115 41.2398 25.358 41.1735 25.3855C41.1072 25.4129 41.0343 25.4201 40.9639 25.4061C40.8935 25.3921 40.8289 25.3576 40.7781 25.3068C40.7274 25.2561 40.6928 25.1915 40.6788 25.1211C40.6648 25.0507 40.672 24.9778 40.6995 24.9115C40.727 24.8452 40.7735 24.7885 40.8331 24.7486C40.8928 24.7088 40.9629 24.6875 41.0347 24.6875C41.1309 24.6875 41.2232 24.7257 41.2912 24.7938C41.3592 24.8618 41.3975 24.9541 41.3975 25.0503Z" fill="black"/>
<path d="M40.1709 55.6362C40.1709 55.708 40.1496 55.7781 40.1098 55.8378C40.0699 55.8975 40.0132 55.944 39.9469 55.9714C39.8807 55.9989 39.8077 56.006 39.7373 55.992C39.667 55.9781 39.6023 55.9435 39.5516 55.8928C39.5008 55.842 39.4663 55.7774 39.4523 55.707C39.4383 55.6366 39.4455 55.5637 39.4729 55.4974C39.5004 55.4311 39.5469 55.3744 39.6065 55.3346C39.6662 55.2947 39.7364 55.2734 39.8081 55.2734C39.9043 55.2734 39.9966 55.3116 40.0647 55.3797C40.1327 55.4477 40.1709 55.54 40.1709 55.6362Z" fill="black"/>
<path d="M40.3951 64.0748C40.3964 64.1638 40.3712 64.2511 40.3227 64.3257C40.2743 64.4004 40.2047 64.4589 40.1228 64.4938C40.041 64.5288 39.9506 64.5386 39.8632 64.5221C39.7757 64.5055 39.6952 64.4633 39.6318 64.4009C39.5684 64.3384 39.525 64.2585 39.5072 64.1713C39.4893 64.0841 39.4978 63.9936 39.5316 63.9113C39.5653 63.8289 39.6228 63.7585 39.6967 63.7089C39.7706 63.6593 39.8575 63.6328 39.9465 63.6328C40.0641 63.6336 40.1767 63.6803 40.2605 63.7628C40.3442 63.8453 40.3925 63.9572 40.3951 64.0748Z" fill="black"/>
<path d="M35.6025 68.394C35.6025 68.4657 35.5813 68.5357 35.5416 68.5953C35.5019 68.6548 35.4454 68.7013 35.3793 68.7289C35.3132 68.7564 35.2404 68.7638 35.1702 68.7501C35.0999 68.7364 35.0352 68.7021 34.9844 68.6517C34.9335 68.6013 34.8987 68.537 34.8843 68.4668C34.87 68.3967 34.8767 68.3238 34.9036 68.2575C34.9306 68.1911 34.9766 68.1342 35.0358 68.094C35.095 68.0537 35.1648 68.0319 35.2364 68.0313C35.333 68.0312 35.4256 68.0694 35.4942 68.1373C35.5627 68.2052 35.6017 68.2975 35.6025 68.394Z" fill="black"/>
<path d="M29.8612 70.1484C29.8612 70.2366 29.835 70.3228 29.7859 70.3961C29.7369 70.4694 29.6671 70.5264 29.5856 70.56C29.504 70.5936 29.4143 70.6023 29.3279 70.5848C29.2414 70.5674 29.1621 70.5246 29.0999 70.462C29.0378 70.3994 28.9957 70.3198 28.9789 70.2332C28.9621 70.1466 28.9713 70.057 29.0056 69.9757C29.0398 69.8944 29.0973 69.8251 29.171 69.7766C29.2446 69.728 29.3311 69.7025 29.4193 69.7031C29.5368 69.704 29.6492 69.7513 29.732 69.8347C29.8147 69.9181 29.8612 70.0309 29.8612 70.1484Z" fill="black"/>
<path d="M28.69 66.2339C28.6932 66.3234 28.6694 66.4118 28.6216 66.4876C28.5738 66.5633 28.5043 66.6229 28.4221 66.6585C28.3399 66.6941 28.2488 66.7041 28.1609 66.6871C28.0729 66.6702 27.9921 66.6272 27.929 66.5636C27.8659 66.5 27.8235 66.4188 27.8072 66.3307C27.7909 66.2426 27.8016 66.1517 27.8379 66.0698C27.8741 65.9879 27.9342 65.9188 28.0104 65.8716C28.0865 65.8243 28.1751 65.8012 28.2646 65.8051C28.3818 65.8051 28.4942 65.8517 28.5771 65.9346C28.6599 66.0174 28.7065 66.1298 28.7065 66.2471" fill="black"/>
<path d="M28.0264 68.7267C28.027 68.7986 28.0063 68.8691 27.9668 68.9291C27.9274 68.9892 27.8709 69.0363 27.8047 69.0642C27.7385 69.0922 27.6654 69.0998 27.5948 69.0862C27.5242 69.0726 27.4593 69.0383 27.4082 68.9877C27.3571 68.9371 27.3223 68.8725 27.308 68.802C27.2937 68.7315 27.3007 68.6584 27.3281 68.5919C27.3554 68.5254 27.4019 68.4686 27.4617 68.4286C27.5214 68.3886 27.5917 68.3672 27.6636 68.3672C27.7592 68.3672 27.851 68.405 27.9189 68.4723C27.9869 68.5396 28.0255 68.631 28.0264 68.7267Z" fill="black"/>
<path d="M23.7361 66.6694C23.7367 66.742 23.7158 66.8131 23.676 66.8737C23.6362 66.9344 23.5792 66.9818 23.5124 67.01C23.4455 67.0382 23.3718 67.0459 23.3006 67.0322C23.2294 67.0184 23.1638 66.9838 23.1123 66.9328C23.0608 66.8817 23.0256 66.8165 23.0112 66.7454C22.9968 66.6743 23.0038 66.6005 23.0314 66.5334C23.0591 66.4663 23.106 66.409 23.1663 66.3686C23.2265 66.3282 23.2974 66.3066 23.37 66.3066C23.4665 66.3066 23.5591 66.3448 23.6277 66.4127C23.6962 66.4807 23.7352 66.5729 23.7361 66.6694Z" fill="black"/>
<path d="M38.7236 73.6356C38.723 73.7074 38.701 73.7773 38.6606 73.8366C38.6202 73.8959 38.5632 73.9419 38.4966 73.9688C38.4301 73.9956 38.3571 74.0021 38.2868 73.9875C38.2166 73.9729 38.1523 73.9377 38.102 73.8865C38.0517 73.8353 38.0177 73.7704 38.0044 73.6999C37.991 73.6294 37.9989 73.5565 38.0269 73.4905C38.055 73.4244 38.102 73.3682 38.162 73.3289C38.222 73.2895 38.2924 73.2689 38.3641 73.2695C38.4601 73.2713 38.5515 73.3106 38.6187 73.3791C38.686 73.4475 38.7236 73.5397 38.7236 73.6356Z" fill="black"/>
<path d="M43.2322 70.3184C43.2302 70.4056 43.2027 70.4903 43.153 70.562C43.1034 70.6337 43.0337 70.6892 42.9528 70.7217C42.8719 70.7541 42.7832 70.7621 42.6977 70.7446C42.6123 70.7271 42.5339 70.6849 42.4722 70.6233C42.4105 70.5616 42.3683 70.4832 42.3508 70.3977C42.3333 70.3123 42.3413 70.2236 42.3738 70.1427C42.4063 70.0617 42.4618 69.9921 42.5335 69.9424C42.6052 69.8928 42.6899 69.8652 42.777 69.8633C42.8358 69.8633 42.894 69.8749 42.9482 69.8975C43.0024 69.9201 43.0517 69.9532 43.093 69.9949C43.1344 70.0365 43.1672 70.086 43.1894 70.1404C43.2115 70.1948 43.2227 70.2531 43.2223 70.3118" fill="black"/>
<path d="M43.7363 74.5776C43.7363 74.6494 43.7151 74.7195 43.6752 74.7792C43.6353 74.8389 43.5787 74.8854 43.5124 74.9128C43.4461 74.9403 43.3731 74.9475 43.3028 74.9335C43.2324 74.9195 43.1677 74.8849 43.117 74.8342C43.0663 74.7834 43.0317 74.7188 43.0177 74.6484C43.0037 74.578 43.0109 74.5051 43.0384 74.4388C43.0658 74.3725 43.1123 74.3158 43.172 74.276C43.2316 74.2361 43.3018 74.2148 43.3735 74.2148C43.4698 74.2148 43.562 74.2531 43.6301 74.3211C43.6981 74.3891 43.7363 74.4814 43.7363 74.5776Z" fill="black"/>
<path d="M62.292 70.5229C62.292 70.5947 62.2707 70.6648 62.2309 70.7245C62.191 70.7842 62.1343 70.8307 62.068 70.8581C62.0018 70.8856 61.9288 70.8928 61.8584 70.8788C61.7881 70.8648 61.7234 70.8302 61.6727 70.7795C61.6219 70.7287 61.5874 70.6641 61.5734 70.5937C61.5594 70.5233 61.5666 70.4504 61.594 70.3841C61.6215 70.3178 61.668 70.2612 61.7276 70.2213C61.7873 70.1814 61.8574 70.1602 61.9292 70.1602C61.9768 70.1602 62.024 70.1695 62.068 70.1878C62.1121 70.206 62.1521 70.2327 62.1857 70.2664C62.2194 70.3001 62.2461 70.3401 62.2644 70.3841C62.2826 70.4281 62.292 70.4753 62.292 70.5229Z" fill="black"/>
<path d="M53.6602 73.5757C53.6602 73.6475 53.6389 73.7176 53.599 73.7773C53.5592 73.8369 53.5025 73.8834 53.4362 73.9109C53.3699 73.9383 53.297 73.9455 53.2266 73.9315C53.1562 73.9175 53.0916 73.883 53.0408 73.8322C52.9901 73.7815 52.9555 73.7169 52.9415 73.6465C52.9275 73.5761 52.9347 73.5032 52.9622 73.4369C52.9897 73.3706 53.0362 73.3139 53.0958 73.274C53.1555 73.2342 53.2256 73.2129 53.2974 73.2129C53.3933 73.2138 53.4851 73.2523 53.553 73.3201C53.6208 73.388 53.6593 73.4797 53.6602 73.5757Z" fill="black"/>
<path d="M76.8858 77.9761C76.8858 78.0723 76.8475 78.1646 76.7795 78.2326C76.7115 78.3006 76.6192 78.3389 76.523 78.3389C76.4267 78.3389 76.3345 78.3006 76.2664 78.2326C76.1984 78.1646 76.1602 78.0723 76.1602 77.9761C76.1602 77.8799 76.1984 77.7876 76.2664 77.7195C76.3345 77.6515 76.4267 77.6133 76.523 77.6133C76.6192 77.6133 76.7115 77.6515 76.7795 77.7195C76.8475 77.7876 76.8858 77.8799 76.8858 77.9761Z" fill="black"/>
<path d="M78.7818 60.8437C78.7825 60.9325 78.7567 61.0196 78.7079 61.0938C78.659 61.168 78.5891 61.226 78.5072 61.2604C78.4253 61.2949 78.335 61.3042 78.2478 61.2873C78.1606 61.2704 78.0804 61.2279 78.0173 61.1653C77.9542 61.1027 77.9112 61.0228 77.8936 60.9357C77.8761 60.8486 77.8847 60.7583 77.9186 60.6761C77.9524 60.594 78.0099 60.5237 78.0838 60.4743C78.1576 60.4248 78.2444 60.3984 78.3333 60.3984C78.4517 60.3984 78.5653 60.4452 78.6493 60.5286C78.7333 60.612 78.781 60.7253 78.7818 60.8437Z" fill="black"/>
<path d="M75.2139 63.2651C75.2139 63.337 75.1925 63.4073 75.1525 63.4671C75.1125 63.5268 75.0556 63.5733 74.9891 63.6006C74.9226 63.628 74.8495 63.635 74.7791 63.6207C74.7086 63.6064 74.644 63.5716 74.5934 63.5205C74.5428 63.4694 74.5085 63.4045 74.4949 63.3339C74.4812 63.2633 74.4889 63.1902 74.5169 63.124C74.5448 63.0578 74.5918 63.0013 74.6519 62.9619C74.712 62.9224 74.7825 62.9017 74.8544 62.9024C74.95 62.9032 75.0415 62.9418 75.1088 63.0098C75.1761 63.0777 75.2139 63.1695 75.2139 63.2651Z" fill="black"/>
<path d="M78.7264 63.9654C78.7271 64.0536 78.7015 64.14 78.653 64.2136C78.6045 64.2873 78.5352 64.3449 78.4539 64.3791C78.3726 64.4133 78.2829 64.4226 78.1964 64.4058C78.1098 64.389 78.0301 64.3468 77.9675 64.2847C77.9049 64.2225 77.8622 64.1432 77.8447 64.0568C77.8273 63.9703 77.8359 63.8806 77.8695 63.7991C77.9031 63.7175 77.9602 63.6478 78.0335 63.5987C78.1067 63.5496 78.193 63.5234 78.2812 63.5234C78.3987 63.5234 78.5114 63.5699 78.5949 63.6527C78.6783 63.7355 78.7256 63.8479 78.7264 63.9654Z" fill="black"/>
<path d="M75.2138 68.2814C75.2145 68.3534 75.1937 68.424 75.1541 68.4842C75.1145 68.5444 75.0579 68.5914 74.9914 68.6192C74.925 68.6471 74.8518 68.6546 74.7811 68.6407C74.7104 68.6268 74.6455 68.5922 74.5945 68.5412C74.5436 68.4903 74.509 68.4253 74.4951 68.3547C74.4812 68.284 74.4887 68.2108 74.5165 68.1443C74.5444 68.0779 74.5914 68.0213 74.6516 67.9817C74.7117 67.942 74.7823 67.9212 74.8544 67.9219C74.9494 67.9228 75.0404 67.9609 75.1076 68.0281C75.1748 68.0954 75.213 68.1863 75.2138 68.2814Z" fill="black"/>
<path d="M84.2943 58.4208C84.2857 58.5106 84.2439 58.594 84.1771 58.6547C84.1103 58.7154 84.0233 58.749 83.9331 58.749C83.8429 58.749 83.7559 58.7154 83.6891 58.6547C83.6223 58.594 83.5806 58.5106 83.572 58.4208C83.5671 58.3705 83.5729 58.3197 83.5889 58.2717C83.6048 58.2238 83.6306 58.1796 83.6646 58.1422C83.6986 58.1048 83.7401 58.0749 83.7863 58.0545C83.8326 58.034 83.8825 58.0234 83.9331 58.0234C83.9837 58.0234 84.0337 58.034 84.0799 58.0545C84.1261 58.0749 84.1676 58.1048 84.2016 58.1422C84.2356 58.1796 84.2614 58.2238 84.2773 58.2717C84.2933 58.3197 84.2991 58.3705 84.2943 58.4208Z" fill="black"/>
<path d="M85.1881 60.6282C85.1881 60.7169 85.1618 60.8037 85.1125 60.8774C85.0632 60.9512 84.9932 61.0087 84.9112 61.0426C84.8293 61.0766 84.7391 61.0855 84.6521 61.0682C84.565 61.0509 84.4851 61.0081 84.4224 60.9454C84.3597 60.8827 84.3169 60.8027 84.2996 60.7157C84.2823 60.6287 84.2912 60.5385 84.3252 60.4566C84.3591 60.3746 84.4166 60.3046 84.4904 60.2553C84.5641 60.206 84.6508 60.1797 84.7396 60.1797C84.8585 60.1797 84.9726 60.2269 85.0567 60.3111C85.1409 60.3952 85.1881 60.5093 85.1881 60.6282Z" fill="black"/>
<path d="M91.4276 63.2415C91.4269 63.3293 91.4004 63.4149 91.3512 63.4876C91.302 63.5603 91.2324 63.6169 91.1512 63.6502C91.07 63.6835 90.9807 63.692 90.8947 63.6747C90.8086 63.6575 90.7296 63.6151 90.6675 63.553C90.6054 63.491 90.5631 63.4119 90.5458 63.3259C90.5285 63.2398 90.5371 63.1506 90.5704 63.0693C90.6037 62.9881 90.6602 62.9186 90.7329 62.8694C90.8056 62.8202 90.8913 62.7936 90.9791 62.793C91.0977 62.7938 91.2113 62.8414 91.2953 62.9253C91.3792 63.0092 91.4267 63.1228 91.4276 63.2415Z" fill="black"/>
<path d="M85.0752 67.8823C85.0752 67.9541 85.0539 68.0242 85.0141 68.0839C84.9742 68.1435 84.9175 68.1901 84.8512 68.2175C84.7849 68.245 84.712 68.2521 84.6416 68.2381C84.5713 68.2241 84.5066 68.1896 84.4559 68.1389C84.4051 68.0881 84.3706 68.0235 84.3566 67.9531C84.3426 67.8827 84.3498 67.8098 84.3772 67.7435C84.4047 67.6772 84.4512 67.6205 84.5109 67.5807C84.5705 67.5408 84.6407 67.5195 84.7124 67.5195C84.8084 67.5204 84.9001 67.5589 84.968 67.6267C85.0358 67.6946 85.0744 67.7864 85.0752 67.8823Z" fill="black"/>
<path d="M89.0859 64.1063C89.0853 64.1781 89.0634 64.248 89.023 64.3073C88.9826 64.3666 88.9255 64.4126 88.8589 64.4395C88.7924 64.4663 88.7194 64.4728 88.6491 64.4582C88.5789 64.4436 88.5146 64.4084 88.4643 64.3572C88.414 64.306 88.38 64.2411 88.3667 64.1706C88.3533 64.1001 88.3612 64.0272 88.3893 63.9612C88.4173 63.8951 88.4643 63.8389 88.5243 63.7996C88.5843 63.7602 88.6547 63.7396 88.7264 63.7402C88.8224 63.742 88.9138 63.7813 88.981 63.8498C89.0483 63.9182 89.0859 64.0104 89.0859 64.1063Z" fill="black"/>
<path d="M88.3633 69.9513C88.3639 70.0232 88.3432 70.0937 88.3037 70.1538C88.2643 70.2138 88.2078 70.2609 88.1416 70.2888C88.0754 70.3168 88.0023 70.3244 87.9318 70.3108C87.8612 70.2972 87.7962 70.2629 87.7451 70.2123C87.6941 70.1617 87.6592 70.0971 87.6449 70.0266C87.6306 69.9561 87.6376 69.883 87.665 69.8165C87.6923 69.75 87.7389 69.6932 87.7986 69.6532C87.8583 69.6132 87.9286 69.5918 88.0005 69.5918C88.0959 69.5926 88.1872 69.6307 88.2549 69.6978C88.3227 69.765 88.3616 69.8559 88.3633 69.9513Z" fill="black"/>
<path d="M64.0754 10.3966C64.1046 10.2848 64.1641 10.1831 64.2473 10.1029C64.3305 10.0226 64.4342 9.96674 64.547 9.94145L64.6756 8.98828L64.8669 9.94804C64.9765 9.98145 65.0755 10.0428 65.1541 10.1261C65.2328 10.2094 65.2884 10.3117 65.3155 10.423L66.2752 10.5615L65.3056 10.733C65.2748 10.8423 65.2155 10.9415 65.1338 11.0203C65.0521 11.0991 64.9509 11.1548 64.8405 11.1816L64.6756 12.171L64.514 11.1816C64.4061 11.1509 64.3082 11.0924 64.23 11.0119C64.1519 10.9314 64.0963 10.8319 64.0688 10.7231L63.1387 10.5714L64.0754 10.4065" fill="black"/>
<path d="M39.0923 78.7364C39.125 78.6252 39.1864 78.5246 39.2704 78.4447C39.3544 78.3648 39.4579 78.3085 39.5706 78.2813L39.6992 77.3281L39.8872 78.2912C39.9971 78.3233 40.0964 78.3842 40.1747 78.4678C40.253 78.5513 40.3075 78.6544 40.3324 78.7661L41.2988 78.9013L40.3093 79.0761C40.2793 79.1843 40.221 79.2826 40.1404 79.3608C40.0599 79.4391 39.9599 79.4945 39.8509 79.5214L39.686 80.5108L39.5211 79.5214C39.4147 79.4885 39.3184 79.4292 39.2411 79.349C39.1639 79.2689 39.1081 79.1705 39.0791 79.063L38.1523 78.9079L39.0791 78.743" fill="black"/>
<path d="M85.0323 69.9245C85.0655 69.814 85.1271 69.714 85.211 69.6348C85.295 69.5555 85.3982 69.4996 85.5105 69.4727L85.6325 68.5195L85.8205 69.4793C85.9305 69.513 86.0298 69.5748 86.1084 69.6587C86.1871 69.7426 86.2425 69.8456 86.2691 69.9575L87.2354 70.0928L86.246 70.2642C86.214 70.3718 86.1552 70.4695 86.075 70.548C85.9947 70.6265 85.8958 70.6832 85.7875 70.7128L85.6194 71.7023L85.4577 70.7128C85.3501 70.6822 85.2526 70.6237 85.1749 70.5432C85.0973 70.4626 85.0424 70.363 85.0158 70.2544L84.0791 70.1026L85.0191 69.9344" fill="black"/>
<path d="M88.6735 60.0997C88.7028 59.9879 88.7623 59.8863 88.8455 59.806C88.9286 59.7257 89.0323 59.6699 89.1451 59.6446L89.2737 58.6914L89.4584 59.6545C89.569 59.6865 89.6687 59.7479 89.7471 59.8321C89.8255 59.9163 89.8796 60.0202 89.9037 60.1327L90.8734 60.2679L89.8839 60.4394C89.8533 60.5479 89.7944 60.6462 89.7132 60.7245C89.6321 60.8027 89.5317 60.858 89.4222 60.8847L89.2606 61.8741L89.0924 60.8847C88.985 60.855 88.8878 60.7966 88.8111 60.7159C88.7344 60.6351 88.6811 60.535 88.657 60.4262L87.7236 60.2745L88.6603 60.1063" fill="black"/>
<path d="M43.5548 23.8067C43.5841 23.6949 43.6436 23.5933 43.7268 23.513C43.81 23.4327 43.9137 23.3769 44.0265 23.3516L44.1551 22.3984L44.3464 23.3582C44.4557 23.3908 44.5543 23.452 44.632 23.5355C44.7097 23.619 44.7637 23.7218 44.7883 23.8331L45.7547 23.9717L44.7851 24.1432C44.7535 24.2523 44.6935 24.351 44.6112 24.4293C44.5289 24.5075 44.4273 24.5624 44.3167 24.5884L44.1551 25.5779L43.9869 24.5884C43.8802 24.5567 43.7837 24.4978 43.7067 24.4174C43.6298 24.337 43.5752 24.2379 43.5482 24.13L42.6182 23.9783L43.5548 23.8133" fill="black"/>
<path d="M40.61 44.4883C43.9081 50.2271 47.7208 54.4289 50.8046 58.4197C53.542 61.9586 58.8718 63.733 56.9985 65.4151C54.8811 67.3082 49.7425 58.9507 49.7425 58.9507C46.0187 54.5257 42.6809 49.7898 39.7656 44.795L40.61 44.4982" fill="black"/>
<path d="M80.3753 36.2498C55.1972 47.7735 24.4254 49.35 7.02433 59.947L5.87988 59.5479C21.7506 49.1258 49.4485 42.3975 72.2585 33.3408C74.709 32.3514 77.12 31.3619 79.4716 30.3164" fill="black"/>
<path d="M42.7768 38.3418H50.7287L56.4213 52.6921L58.3243 54.5984H47.978L49.8778 52.6921L49.2181 50.944H43.4925L42.9022 52.9427L44.2643 54.5918H38.8652L40.765 52.6855L44.4259 40.0041L42.7768 38.3418ZM48.1858 48.4243L45.8771 42.5964L44.2016 48.4243H48.1858Z" fill="black"/>
<path d="M79.7159 38.3418H87.9612L93.6572 52.6921L95.5569 54.5984H85.2007L87.1004 52.6921L86.4408 50.944H80.7053L80.1149 52.9427L81.4738 54.5918H76.0879L77.9876 52.6855L81.6519 39.9975L79.7159 38.3418ZM85.4118 48.4243L83.1031 42.5964L81.4276 48.4243H85.4118Z" fill="black"/>
<path d="M31.9954 48.4676V40.0045L30.3464 38.3555H35.851L34.2019 40.0045V52.6925L36.1016 54.5989H28.8787L22.6584 44.0712V52.6925L24.258 54.5989H18.4961L20.3958 52.6925V40.0045L18.7468 38.3555H25.9565L32.0119 48.4808" fill="black"/>
<path d="M73.6242 42.5105L73.4494 37.4512L71.7508 38.6253C69.3432 37.7876 66.5529 37.8206 64.5971 38.7473C62.7699 39.6115 60.801 41.432 61.045 44.0244C61.2891 46.6167 63.291 47.6161 65.0984 48.4373C67.4302 49.4927 69.9632 49.8489 69.9236 51.2407C69.9006 52.1313 68.4263 52.7645 67.2851 52.7282C66.2396 52.6952 62.8425 52.4413 61.0681 50.3305L61.3979 55.657L63.2944 54.2652C65.6031 55.0798 68.39 55.4195 70.9791 54.5785C73.5681 53.7374 76.2561 51.6101 74.7455 47.8371C74.0859 46.2177 72.3247 45.2216 71.266 44.7896C70.2963 44.3938 67.3412 43.2295 66.5133 42.8107C65.5437 42.3061 65.6525 40.7098 67.9777 40.3865C70.0819 40.093 72.9942 41.7783 73.6176 42.5204" fill="black"/>
<path d="M18.1717 84.5062C50.0319 51.9766 97.5483 36.9502 113.287 5.92773C103.812 36.086 53.0464 52.712 18.0859 86.0234L18.1717 84.4963" fill="black"/>
<path d="M39.7652 44.7963C39.3859 44.1565 39.0132 43.5001 38.6372 42.8174C30.1445 27.5272 31.3813 11.9302 46.7441 18.7409C59.7949 24.5094 72.2619 40.6934 77.2718 52.1809C79.5805 57.5074 85.8239 78.4045 65.7711 69.9381L65.7315 69.8161C84.6728 77.6162 81.3977 57.8504 71.2559 42.6987C65.5204 34.1235 58.0402 26.9797 53.3206 23.5331C37.6115 12.0522 28.0237 19.074 39.056 41.5806C39.5541 42.5997 40.0752 43.5595 40.6095 44.5028L39.7619 44.7996" fill="black"/>
<path d="M79.4746 30.3165C93.8051 23.9544 106.19 16.1344 113.287 5.91016C105.932 20.9003 93.97 30.0131 80.3783 36.2334" fill="black"/>
<path d="M132.792 52.6445C133.633 51.5496 134.092 50.006 134.092 47.9381V34.3827C134.08 34.0147 134.143 33.6482 134.275 33.3047C134.408 32.9613 134.608 32.648 134.864 32.3832C135.12 32.1185 135.426 31.9077 135.765 31.7634C136.104 31.6191 136.468 31.5441 136.836 31.543C137.576 31.5577 138.28 31.8645 138.795 32.3965C139.31 32.9285 139.593 33.6425 139.583 34.3827V48.6274C139.583 51.7112 138.742 54.3497 137.219 56.256C135.273 58.6109 132.222 59.95 128.294 59.95C124.366 59.95 121.312 58.6109 119.369 56.256C117.842 54.3497 117.004 51.7112 117.004 48.6274V34.3827C116.994 33.6431 117.277 32.9296 117.791 32.3977C118.305 31.8658 119.009 31.5586 119.748 31.543C120.117 31.5441 120.481 31.6191 120.82 31.7633C121.159 31.9076 121.465 32.1183 121.721 32.383C121.977 32.6477 122.178 32.961 122.311 33.3045C122.444 33.6479 122.507 34.0145 122.496 34.3827V47.9381C122.496 50.006 122.954 51.566 123.792 52.6445C124.86 54.066 126.387 54.5938 128.254 54.5938C130.2 54.5938 131.727 54.066 132.792 52.6445Z" fill="black"/>
<path d="M144.689 34.3835C144.676 34.015 144.738 33.6476 144.87 33.3033C145.002 32.959 145.203 32.6449 145.459 32.3796C145.715 32.1144 146.022 31.9034 146.362 31.7593C146.701 31.6153 147.066 31.541 147.435 31.541C147.804 31.541 148.169 31.6153 148.508 31.7593C148.848 31.9034 149.155 32.1144 149.411 32.3796C149.667 32.6449 149.867 32.959 150 33.3033C150.132 33.6476 150.193 34.015 150.181 34.3835V43.0676H161.968V34.3835C161.955 34.015 162.017 33.6476 162.149 33.3033C162.281 32.959 162.482 32.6449 162.738 32.3796C162.994 32.1144 163.301 31.9034 163.641 31.7593C163.98 31.6153 164.345 31.541 164.714 31.541C165.083 31.541 165.448 31.6153 165.787 31.7593C166.127 31.9034 166.434 32.1144 166.69 32.3796C166.946 32.6449 167.146 32.959 167.279 33.3033C167.411 33.6476 167.472 34.015 167.46 34.3835V57.1111C167.472 57.4797 167.411 57.8471 167.279 58.1914C167.146 58.5356 166.946 58.8498 166.69 59.115C166.434 59.3803 166.127 59.5912 165.787 59.7353C165.448 59.8794 165.083 59.9537 164.714 59.9537C164.345 59.9537 163.98 59.8794 163.641 59.7353C163.301 59.5912 162.994 59.3803 162.738 59.115C162.482 58.8498 162.281 58.5356 162.149 58.1914C162.017 57.8471 161.955 57.4797 161.968 57.1111V48.2061H150.181V57.1111C150.183 57.8493 149.898 58.5594 149.385 59.0899C148.871 59.6204 148.171 59.9293 147.433 59.9508C147.066 59.9461 146.704 59.8688 146.367 59.7232C146.029 59.5776 145.725 59.3668 145.469 59.1028C145.214 58.8388 145.014 58.5268 144.88 58.185C144.746 57.8431 144.681 57.4782 144.689 57.1111V34.3835Z" fill="black"/>
<path d="M192.663 55.8904C189.609 58.895 185.681 59.5448 182.02 59.5448H174.966C174.597 59.5436 174.233 59.4687 173.894 59.3244C173.555 59.1801 173.249 58.9694 172.993 58.7047C172.736 58.44 172.536 58.1267 172.403 57.7833C172.27 57.4398 172.207 57.0732 172.218 56.7051V34.7493C172.207 34.3808 172.269 34.0139 172.402 33.67C172.535 33.3262 172.735 33.0125 172.991 32.7475C173.247 32.4824 173.554 32.2714 173.893 32.1269C174.232 31.9824 174.597 31.9074 174.966 31.9062H182.551C186.509 31.9062 190.216 32.7176 193.231 36.1279C195.137 38.2783 196.397 41.362 196.397 45.6925C196.4 50.4023 194.873 53.7004 192.663 55.8904ZM177.71 54.6338H181.601C184.537 54.6338 186.941 53.8621 188.62 52.0778C189.939 50.6563 190.754 48.5454 190.754 45.7057C190.754 42.866 190.031 40.8343 188.775 39.4161C187.172 37.589 184.731 36.8172 181.756 36.8172H177.713L177.71 54.6338Z" fill="black"/>
</svg>
