<svg width="201" height="91" viewBox="0 0 201 91" fill="none" xmlns="http://www.w3.org/2000/svg">
<path d="M0.879883 16.6562V76.2008H41.8874V16.6562H0.879883ZM35.9564 70.2061H6.78972V22.6549H35.9564V70.2061Z" fill="#FBD42C"/>
<path d="M66.3258 37.4165H66.2683C62.9969 32.0881 59.6943 27.3814 56.3634 22.6434H53.8218V43.3688H56.6268V28.5048H56.6551C59.9588 33.8646 63.2594 38.6025 66.5913 43.3688H69.1329V22.6434H66.3258V37.4165ZM86.5747 43.3688L80.0583 22.6434H77.1382L70.0665 43.3688H73.1047L74.8883 37.7133H81.0515L82.6594 43.3688H86.5747ZM75.7927 35.1656C76.6113 32.4414 77.4299 29.9291 78.1596 26.7273H78.2192C79.0378 29.928 79.7676 32.4414 80.5276 35.1656H75.7927ZM89.8754 43.3688H93.3819V25.4273H98.7588V22.6434H84.5005V25.4273H89.8764L89.8754 43.3688ZM103.374 22.6434H99.8973V43.3688H103.374V22.6434ZM114.187 43.722C119.535 43.722 122.865 38.8973 122.865 32.7088C122.865 26.906 119.182 22.2861 114.187 22.2861C109.19 22.2861 105.506 26.906 105.506 32.7088C105.506 38.8983 108.837 43.722 114.187 43.722ZM114.187 25.2486C117.664 25.2486 119.124 28.8894 119.124 32.7099C119.124 36.6767 117.84 40.7626 114.187 40.7626C110.534 40.7626 109.249 36.6777 109.249 32.7099C109.249 28.8894 110.71 25.2486 114.187 25.2486ZM127.8 28.5048H127.833C131.133 33.8646 134.434 38.6025 137.766 43.3688H140.307V22.6434H137.502V37.4165H137.444C134.172 32.0881 130.87 27.3814 127.539 22.6434H124.997V43.3688H127.8V28.5048ZM146.061 37.7133H152.228L153.835 43.3688H157.749L151.235 22.6434H148.313L141.24 43.3688H144.282L146.061 37.7133ZM149.337 26.7273H149.395C150.211 29.928 150.942 32.4414 151.704 35.1656H146.967C147.788 32.4414 148.603 29.928 149.337 26.7273ZM169.173 40.5839H162.25V22.6434H158.772V43.3688H169.174L169.173 40.5839ZM63.4673 67.0727C62.7355 67.4583 61.9482 67.5774 61.0135 67.5774C58.0046 67.5774 55.0825 64.6745 55.0825 59.7609C55.0825 55.0542 57.6241 52.0624 61.3648 52.0624C62.7093 52.0624 64.1698 52.5651 65.1045 53.1566L66.2431 50.7008C65.0752 49.8105 63.1756 49.101 61.276 49.101C55.141 49.101 51.3418 54.0458 51.3418 59.7003C51.3418 65.7999 55.141 70.5379 61.1579 70.5379C63.1453 70.5379 65.1035 70.008 66.9749 69.2641V60.7056H63.4673V67.0727ZM73.6629 60.7077H79.3911V57.9258H73.6629V52.2411H79.5082V49.4583H70.1584V70.1836H80.5599V67.3977H73.6629V60.7077ZM90.3195 49.102C85.3221 49.102 81.642 53.7208 81.642 59.5247C81.642 65.7121 84.9719 70.5389 90.3195 70.5389C95.6661 70.5389 98.996 65.7121 98.996 59.5247C98.996 53.7208 95.3148 49.102 90.3195 49.102ZM90.3195 67.5774C86.6656 67.5774 85.3807 63.4915 85.3807 59.5237C85.3807 55.7032 86.8412 52.0614 90.3195 52.0614C93.7957 52.0614 95.2563 55.7022 95.2563 59.5237C95.2563 63.4915 93.9724 67.5774 90.3195 67.5774ZM112.321 67.0727C111.591 67.4583 110.801 67.5774 109.866 67.5774C106.856 67.5774 103.934 64.6745 103.934 59.7609C103.934 55.0542 106.476 52.0624 110.218 52.0624C111.562 52.0624 113.023 52.5651 113.955 53.1566L115.095 50.7008C113.928 49.8105 112.027 49.101 110.126 49.101C103.993 49.101 100.195 54.0458 100.195 59.7003C100.195 65.7999 103.993 70.5379 110.013 70.5379C111.998 70.5379 113.955 70.008 115.827 69.2641V60.7056H112.321V67.0727ZM130.846 55.4398C130.846 51.4104 128.419 49.4583 124.506 49.4583H119.041V70.1836H122.547V62.3671H124.124L127.426 70.1836H131.428L127.311 61.5959C129.558 60.3826 130.846 57.9258 130.846 55.4398ZM124.008 59.7013C123.656 59.7316 122.836 59.7619 122.546 59.7912V52.2421H124.097C126.168 52.2421 127.336 53.4533 127.336 55.5861C127.336 58.3679 125.674 59.6135 124.008 59.7013ZM138.559 49.4583L131.486 70.1836H134.524L136.307 64.5271H142.472L144.083 70.1836H147.996L141.479 49.4583H138.559ZM137.216 61.9835C138.033 59.2572 138.851 56.7408 139.582 53.5442H139.641C140.458 56.7408 141.188 59.2572 141.95 61.9835H137.216ZM173.651 57.4222H166.374V49.4583H162.897V70.1836H166.374V60.204H173.651V70.1836H177.155V49.5148H173.651V57.4222ZM180.514 70.1816H183.991V49.4583H180.514V70.1816ZM196.264 67.5774C192.874 67.5774 190.01 64.6745 190.01 59.7609C190.01 55.0542 192.613 52.0624 196.176 52.0624C197.52 52.0624 198.923 52.6832 199.771 53.2161L200.88 50.7018C199.682 49.8721 197.99 49.102 196.177 49.102C190.07 49.102 186.3 54.0468 186.3 59.7013C186.3 65.8009 190.099 70.5389 196.12 70.5389C197.814 70.5389 199.683 69.8576 200.735 69.1187L199.772 66.5418C198.866 67.1333 197.608 67.5774 196.264 67.5774ZM154.569 49.4583H149.108V70.1836H152.615V62.3671H154.19C158.371 62.3671 160.911 58.9302 160.911 55.4398C160.909 51.4104 158.487 49.4583 154.569 49.4583ZM154.073 59.7013C153.723 59.7286 152.877 59.7568 152.614 59.7841V52.2411H154.189C156.236 52.2411 157.405 53.4523 157.405 55.5851C157.404 58.3679 155.739 59.6135 154.073 59.7013Z" fill="black"/>
</svg>
