<svg width="201" height="91" viewBox="0 0 201 91" fill="none" xmlns="http://www.w3.org/2000/svg">
<path d="M136.541 0.546875H65.2184C60.0608 0.546875 55.8799 4.72783 55.8799 9.88528V81.2085C55.8799 86.3659 60.0608 90.5469 65.2184 90.5469H136.541C141.699 90.5469 145.88 86.3659 145.88 81.2085V9.88528C145.88 4.72783 141.699 0.546875 136.541 0.546875Z" fill="white"/>
<path d="M85.3364 79.8921C84.2083 78.8892 84.9604 78.4505 84.8977 78.0119C84.1455 74.8781 81.6386 72.9979 82.9547 71.9951C82.6861 71.2048 82.3721 70.4304 82.0147 69.6761C78.1289 67.4825 74.8699 63.8474 74.3057 63.3461C73.7417 62.8448 72.4883 61.8419 72.2375 61.2777C71.9868 60.7137 66.7849 53.9449 65.7194 51.6261L63.9019 51.3752C63.0871 47.9283 60.2668 45.0453 60.2042 41.6608C60.2867 40.0875 60.5603 38.5302 61.0189 37.0229C61.3829 36.4608 61.8262 35.9542 62.3351 35.5188V34.5787C58.324 34.7041 59.452 34.2654 58.7627 32.6984C58.0733 31.1315 58.6374 31.3823 58.8254 30.6302C59.3894 28.4366 61.1443 24.9896 61.8964 23.4227C62.6485 21.8558 62.8991 20.7277 62.8991 20.7277C65.9076 14.6483 67.0356 15.087 70.6081 14.711L70.796 14.4603C74.3685 14.335 73.8044 14.0216 74.3057 10.5746C73.8044 10.8252 73.6163 9.50904 73.6163 9.50904C73.303 7.56612 74.1805 7.94214 74.5565 7.8795C74.6192 4.68306 74.9951 3.61764 77.3142 2.74023H65.2181C61.272 2.74023 58.0732 5.93901 58.0732 9.88506V81.2083C58.0732 85.154 61.272 88.3531 65.2181 88.3531H86.2765C83.8322 87.0369 85.2738 84.5927 85.3364 79.8921Z" fill="#00438C"/>
<path d="M136.542 2.74023H79.4454C80.3127 2.97315 81.0546 3.53529 81.5136 4.30713C82.3911 4.36977 83.4566 6.37533 81.827 9.25839C82.5791 9.75978 82.015 10.4492 81.4509 11.264C80.8869 12.0787 81.1376 12.0161 80.6989 11.9534C80.0722 13.2695 79.3201 14.523 78.756 14.5858C78.507 14.8658 78.4812 15.2796 78.6934 15.5885C79.5307 15.9302 80.3122 16.3949 81.0123 16.9673V17.2807C81.6391 17.6567 81.9524 17.9701 82.6418 18.3461C84.334 19.4116 86.4649 21.3545 86.2143 27.9979C86.7156 29.4395 86.9037 32.2598 87.3424 33.1999C87.7812 34.1401 88.8466 36.1455 89.0973 37.7752C89.0973 37.7752 89.3481 40.2194 89.6613 40.5328H89.8494C91.291 40.8461 91.0402 41.0342 91.1656 41.2849L91.5416 41.5982C91.9177 41.7863 92.5444 41.9743 92.5444 42.6636L92.8578 43.1651C93.0491 43.4649 93.2168 43.7792 93.3592 44.1051C93.861 45.5244 93.861 47.073 93.3592 48.4923V48.6804C92.8057 50.0529 91.7844 51.1851 90.4761 51.8768H90.3507L90.1628 52.0022C89.3196 52.4016 88.4006 52.6154 87.4679 52.629C83.9679 52.1643 81.5073 48.9505 81.9719 45.4505C82.2773 43.1503 83.805 41.1962 85.9637 40.3449C85.2116 38.5274 83.7074 35.5817 83.2686 34.6415C82.83 33.7014 81.7646 27.622 81.5765 26.4311C81.3885 25.2404 78.8189 27.998 78.8189 28.1234C78.8189 28.2488 76.8132 33.1373 76.7507 33.388C76.7051 33.6571 76.6842 33.9299 76.6879 34.2028C76.6879 34.2028 77.6281 34.3281 78.1295 35.895C78.6308 37.4619 80.2604 43.2905 80.2604 43.2905L79.8216 43.7292C81.8271 50.4351 81.1377 53.3182 82.0151 55.3238C82.8925 57.3295 83.4567 57.7055 84.3967 60.0872C85.3368 62.4686 85.8382 68.4854 86.1516 68.7362C87.2171 70.115 87.8438 71.1804 87.8438 71.9326C87.8438 72.6845 86.9037 75.0037 87.2798 76.3825C87.6558 77.7611 87.5931 78.9521 87.9692 79.2654C88.3452 79.5786 88.2825 79.9547 88.1572 80.2055C88.0872 80.3196 88.0444 80.448 88.0318 80.5815C88.5958 82.7123 90.5388 86.2849 87.4678 88.1651L87.2798 88.2905H136.667C140.564 88.2564 143.715 85.1056 143.749 81.2084V9.88506C143.715 5.92893 140.498 2.74005 136.542 2.74023Z" fill="#DA1A32"/>
<path d="M135.162 19.7247H128.017L126.451 45.7345L125.385 62.9073L124.32 45.9854L122.565 19.7248H115.107L120.559 71.4309H129.584L135.162 19.7247ZM95.6777 26.1802H101.005V71.3683H107.962V26.1802H113.414V19.6621H95.6777V26.1802Z" fill="white"/>
<path d="M69.1666 83.9032V70.9923H71.6736C73.1151 70.9923 73.9925 71.7444 73.9925 73.562V75.505C73.9925 76.6957 73.6164 77.2598 73.1151 77.5732C73.7135 78.0056 74.0455 78.717 73.9925 79.4534V81.3335C73.9925 83.0885 73.0524 83.9033 71.6736 83.9033L69.1666 83.9032ZM70.9216 78.2626V82.2737H71.611C72.175 82.2737 72.3631 81.9603 72.3631 81.3335V79.1399C72.3631 78.5132 72.175 78.2626 71.611 78.2626H70.9216ZM70.9216 72.6219V76.8838H71.5483C72.175 76.8838 72.3004 76.6957 72.3004 75.9437V73.4366C72.3004 72.8099 72.1123 72.5593 71.5483 72.5593H70.9216V72.6219ZM78.1291 81.2709H76.5622L76.3742 83.9032H74.6194L76.1862 70.9923H78.6305L80.1347 83.9032H78.3171L78.1291 81.2709ZM77.3143 72.4338H77.2516C77.1263 74.0005 76.9383 76.6957 76.8756 77.5732L76.6876 79.8295H78.0037L77.8157 77.5732C77.7531 76.6957 77.5023 74.0005 77.3143 72.4338ZM64.0901 83.9032H62.5859V70.9923H64.9676L66.9104 81.5843C66.7224 79.0773 66.5344 76.0062 66.5344 73.3739V70.9922H68.0386V83.9031H65.8449L63.9021 73.562C64.0275 75.9436 64.0901 77.8865 64.0901 79.8295V83.9032Z" fill="white"/>
</svg>
