<svg width="201" height="91" viewBox="0 0 201 91" fill="none" xmlns="http://www.w3.org/2000/svg">
<path d="M77.8555 37.2482C76.6882 34.3233 73.8443 31.1641 68.5173 31.5981C61.7323 32.3382 59.6173 38.8636 60.6429 42.7563C57.9403 40.9201 53.3452 40.1125 49.334 43.5602C44.155 48.7695 46.9249 55.8146 49.7725 57.5046C46.6349 57.2129 41.6757 59.3405 40.5786 64.9055C39.4114 71.8151 44.6608 75.8432 49.7725 75.8432H106.452C112.363 75.8432 115.642 70.7124 115.274 65.8733C114.694 59.5579 108.935 57.1346 105.794 57.654C108.419 56.1845 111.924 49.282 106.594 43.8553C102.363 39.8169 96.9685 41.2864 95.0723 43.0477C96.0944 39.6744 94.4179 32.7007 87.5554 31.5975C87.0814 31.5443 86.6247 31.5156 86.1894 31.5156C80.9505 31.5163 78.595 35.3588 77.8555 37.2482Z" fill="white"/>
<path d="M50.2783 44.6592C47.2861 47.3776 46.1964 53.5367 51.591 57.1373L73.1121 71.9529L62.6771 47.9646C60.4907 42.3039 54.5091 41.0693 50.2783 44.6592Z" fill="url(#paint0_linear_2048_37863)"/>
<path d="M68.8041 32.9952C65.3056 33.0666 60.0527 37.247 62.3909 43.6301L73.1831 69.1704L76.9751 42.3069C77.8526 35.6318 72.819 32.5504 68.8041 32.9952Z" fill="url(#paint1_linear_2048_37863)"/>
<path d="M78.6586 41.2831H80.6994C80.6994 41.2831 81.7891 41.2831 81.9371 41.7991C81.1343 42.4572 78.9486 42.5395 79.2383 46.0546L82.6693 69.1676L93.3877 43.5602C95.5805 37.8426 90.9783 33.0675 86.8963 32.9215C86.7055 32.9076 86.5144 32.8965 86.3164 32.8965C82.6519 32.8965 78.4535 35.5687 78.6586 41.2831Z" fill="url(#paint2_linear_2048_37863)"/>
<path d="M92.9565 48.182L82.8184 71.8826L104.332 56.9886C109.292 53.459 108.492 47.8157 105.716 45.0262C104.552 43.7133 102.415 42.6992 100.152 42.6992C97.4772 42.6989 94.6156 44.1221 92.9565 48.182Z" fill="url(#paint3_linear_2048_37863)"/>
<path d="M101.924 60.3605L81.7188 74.522H106.597C111.701 74.522 114.98 69.2412 113.523 64.3953C112.546 61.3495 109.656 58.9585 106.303 58.9551C104.891 58.9553 103.395 59.3821 101.924 60.3605Z" fill="url(#paint4_linear_2048_37863)"/>
<path d="M50.2783 44.6592C47.2861 47.3776 46.1964 53.5367 51.591 57.1373L73.1121 71.9529L62.6771 47.9646C60.4907 42.3039 54.5091 41.0693 50.2783 44.6592Z" fill="url(#paint5_linear_2048_37863)"/>
<path d="M49.6983 74.5229H74.2088L53.9995 60.3615C49.3303 57.3512 44.0808 59.1125 42.1851 64.1077C40.5789 69.826 44.5903 74.5229 49.6983 74.5229Z" fill="url(#paint6_linear_2048_37863)"/>
<path d="M55.4207 43.0358C53.7173 43.1178 51.9735 43.7981 50.4871 45.0593V45.0833C49.1848 46.3243 48.2936 48.0821 48.1641 49.9975C50.4896 48.9453 56.1698 47.688 58.8588 48.7863C61.1736 49.7318 66.4187 58.3371 69.2297 63.8682L62.2701 47.7572C60.9898 44.4426 58.2596 42.8993 55.4207 43.0358Z" fill="url(#paint7_linear_2048_37863)"/>
<path d="M55.4207 43.0593C53.7173 43.1412 51.9735 43.8216 50.4871 45.0828V45.1067C49.1848 46.3477 48.2936 48.1055 48.1641 50.0209C50.4896 48.9687 56.1698 47.7114 58.8588 48.8098C61.1736 49.7553 66.4187 58.3605 69.2297 63.8916L62.2701 47.7806C60.9898 44.466 58.2596 42.9227 55.4207 43.0593Z" fill="url(#paint8_linear_2048_37863)"/>
<path d="M48.7393 59.2237C45.9984 59.4358 43.5823 61.2261 42.4406 64.2343C42.3573 64.5311 42.3016 64.8352 42.249 65.1256L42.3448 64.9811C42.3448 64.9811 44.5855 61.9458 49.338 61.9458C55.3891 61.9458 64.7373 68.2332 64.7373 68.2332L53.8165 60.645C52.1293 59.5573 50.3838 59.0964 48.7393 59.2237Z" fill="url(#paint9_linear_2048_37863)"/>
<path d="M79.0751 40.231C79.0476 40.5005 78.9914 40.7499 78.9873 41.0351C79.0143 41.0379 79.0451 41.0353 79.0723 41.0369C79.077 40.7702 79.0503 40.4833 79.0751 40.2305L79.0751 40.231Z" fill="url(#paint10_linear_2048_37863)"/>
<path d="M86.1231 33.4707C85.6911 33.4724 85.2527 33.5211 84.8167 33.6088C84.6857 33.6353 84.558 33.6882 84.4275 33.7222C84.1201 33.8026 83.8128 33.8854 83.5137 34.0088C83.3872 34.0606 83.2682 34.1353 83.1439 34.1947C82.8449 34.3387 82.5477 34.4886 82.2666 34.6766C82.1658 34.7434 82.0745 34.8271 81.9766 34.8995C81.6842 35.1175 81.3987 35.349 81.1373 35.6169C81.0663 35.6888 81.0038 35.7714 80.9355 35.8469C80.6642 36.1502 80.4086 36.4746 80.1855 36.8354C80.1439 36.9018 80.1084 36.9741 80.0687 37.0424C79.8406 37.4402 79.6397 37.8663 79.481 38.3293C79.4615 38.3851 79.4452 38.4431 79.4269 38.4998C79.2703 38.9934 79.1546 39.5213 79.0899 40.0859C79.0843 40.134 79.079 40.1825 79.0743 40.2311C79.0493 40.4839 79.0761 40.7709 79.0715 41.0375C80.1651 41.1234 81.4915 40.8058 82.2193 41.8299C81.7607 42.0434 81.3617 42.2565 80.9969 42.4752C81.0095 42.4767 81.0222 42.4782 81.0348 42.4796C81.0926 42.4867 81.1505 42.4935 81.2085 42.5002C81.2084 42.5002 81.2087 42.5002 81.2085 42.5002C81.2665 42.507 81.325 42.5136 81.3831 42.52C81.3831 42.5199 81.3831 42.5201 81.3831 42.52C81.4414 42.5263 81.4998 42.5329 81.5583 42.539C81.6167 42.5451 81.6753 42.5512 81.7339 42.5571C81.7925 42.5627 81.8512 42.5682 81.91 42.5735C81.9687 42.5789 82.0274 42.5842 82.0862 42.5893C82.086 42.5893 82.0863 42.5893 82.0862 42.5893C82.145 42.5943 82.2042 42.5991 82.2631 42.6038C82.3222 42.6086 82.3814 42.6132 82.4407 42.6177C82.4998 42.6221 82.5589 42.6264 82.6182 42.6305C82.6775 42.6347 82.7368 42.6388 82.7962 42.6427C82.8556 42.6465 82.9151 42.6501 82.9747 42.6536C83.0341 42.657 83.0936 42.6602 83.1532 42.6633C83.2128 42.6665 83.2724 42.6696 83.3321 42.6725C83.332 42.6725 83.3322 42.6725 83.3321 42.6725C83.3917 42.6753 83.4518 42.678 83.5115 42.6805C83.5712 42.6831 83.6311 42.6855 83.6909 42.6878C83.7507 42.6901 83.8105 42.6922 83.8703 42.6942C83.8702 42.6942 83.8704 42.6942 83.8703 42.6942C83.9301 42.6961 83.9903 42.6979 84.0501 42.6995C84.1099 42.7011 84.1697 42.7026 84.2295 42.7039C84.2895 42.705 84.3495 42.706 84.4095 42.7068C84.4093 42.7068 84.4096 42.7068 84.4095 42.7068C84.4694 42.7079 84.5298 42.7088 84.5897 42.7096C84.6497 42.7101 84.7097 42.7105 84.7697 42.7107C84.8064 42.7107 84.8431 42.7107 84.8798 42.7107C84.8797 42.7107 84.8799 42.7107 84.8798 42.7107C84.9398 42.7107 85.0001 42.7106 85.0601 42.7103C85.1201 42.7099 85.18 42.7093 85.24 42.7086C85.3 42.7078 85.36 42.7068 85.4199 42.7057C85.4799 42.7044 85.5399 42.7029 85.5998 42.7012C85.6598 42.6999 85.7198 42.6984 85.7798 42.6968C85.8396 42.6951 85.8994 42.6933 85.9592 42.6912C86.019 42.6893 86.0789 42.6871 86.1386 42.6848C86.1985 42.6826 86.2583 42.6802 86.3181 42.6776C86.3778 42.6751 86.4374 42.6724 86.497 42.6695C86.5567 42.6666 86.6164 42.6636 86.676 42.6604C86.7355 42.6573 86.795 42.654 86.8545 42.6506C86.8544 42.6506 86.8546 42.6506 86.8545 42.6506C86.9139 42.6469 86.9736 42.643 87.0328 42.6389C87.0922 42.635 87.1516 42.631 87.2109 42.6267C87.2701 42.6225 87.3293 42.6182 87.3884 42.6137C87.4475 42.6092 87.5065 42.6046 87.5655 42.5998C87.6244 42.5948 87.6833 42.5897 87.7421 42.5845C87.801 42.5795 87.8599 42.5745 87.9186 42.5692C87.9773 42.5635 88.0358 42.5577 88.0943 42.5517C88.1529 42.5458 88.2115 42.5398 88.2699 42.5336C88.3282 42.5272 88.3865 42.5206 88.4446 42.5139C88.5029 42.5075 88.5612 42.5009 88.6193 42.4941C88.6773 42.4873 88.7352 42.4802 88.793 42.473C88.8509 42.4659 88.9087 42.4585 88.9663 42.451C89.0239 42.4439 89.0813 42.4365 89.1386 42.4291C89.196 42.4213 89.2533 42.4133 89.3105 42.4052C89.3106 42.405 89.3107 42.4049 89.3108 42.4048C89.3679 42.3968 89.4249 42.3886 89.4817 42.3803C89.4818 42.3802 89.4819 42.3801 89.4821 42.38C89.539 42.3717 89.5958 42.3633 89.6525 42.3547C89.7091 42.3461 89.7656 42.3374 89.822 42.3285C89.8221 42.3284 89.8222 42.3283 89.8223 42.3282C89.8788 42.3193 89.9351 42.3102 89.9913 42.3009C90.0475 42.2916 90.1035 42.2821 90.1593 42.2724C90.2153 42.2629 90.2712 42.2532 90.3269 42.2434C90.3826 42.2334 90.4381 42.2233 90.4935 42.213C90.5491 42.2028 90.6045 42.1925 90.6597 42.1821C90.7148 42.1715 90.7697 42.1607 90.8244 42.1498C90.8793 42.139 90.9341 42.128 90.9887 42.117C91.0431 42.1059 91.0974 42.0946 91.1515 42.0833C91.2058 42.0719 91.2599 42.0603 91.3138 42.0486C91.3138 42.0487 91.3138 42.0485 91.3138 42.0486C91.3678 42.0371 91.4216 42.025 91.4752 42.0131C91.5287 42.0011 91.5821 41.9889 91.6352 41.9766C91.6353 41.9765 91.6355 41.9764 91.6356 41.9763C91.6888 41.9641 91.7418 41.9518 91.7946 41.9393C91.8475 41.9266 91.9002 41.9138 91.9527 41.9009C92.0052 41.8881 92.0576 41.8751 92.1098 41.862C92.1619 41.8489 92.2138 41.8356 92.2655 41.8222C92.3173 41.8088 92.3689 41.7952 92.4203 41.7815C92.4717 41.7677 92.523 41.7538 92.5741 41.7398C92.5742 41.7396 92.5743 41.7395 92.5744 41.7394C92.6254 41.7255 92.6762 41.7115 92.7268 41.6973C92.7773 41.683 92.8276 41.6687 92.8777 41.6541C92.8779 41.654 92.878 41.6539 92.8781 41.6538C92.9283 41.6392 92.9783 41.6246 93.0281 41.6098C93.0778 41.5949 93.1274 41.5799 93.1767 41.5648C93.2261 41.5498 93.2753 41.5347 93.3243 41.5194C93.3623 41.5075 93.4001 41.4955 93.4378 41.4833C93.4942 40.8778 93.4787 40.3 93.4026 39.7526C93.3265 39.2053 93.1904 38.6884 93.0048 38.204C92.8741 37.8629 92.6925 37.5593 92.5173 37.2514C92.4009 37.0489 92.2884 36.8437 92.1555 36.6562C91.9927 36.4247 91.8145 36.2103 91.6305 36.0025C91.4606 35.812 91.2869 35.6286 91.1026 35.4588C90.9207 35.2901 90.7357 35.1284 90.543 34.9806C90.3215 34.8121 90.0942 34.6628 89.8632 34.5226C89.6861 34.4147 89.5108 34.3019 89.3306 34.2112C89.0545 34.0731 88.7776 33.9686 88.5008 33.8722C88.3556 33.8214 88.2097 33.7537 88.0659 33.7148C87.6446 33.6014 87.2292 33.529 86.8398 33.5209C86.6014 33.4942 86.3658 33.4718 86.1215 33.4727L86.1231 33.4707Z" fill="url(#paint11_radial_2048_37863)"/>
<path d="M106.455 59.231C107.817 59.3178 108.958 59.5526 109.83 60.1198C111.154 60.982 112.62 62.3816 112.868 63.999C111.615 63.0048 107.881 62.0824 106.014 62.1981C103.093 62.3792 100.399 63.625 97.6971 64.6332C96.6239 65.047 95.5476 65.4538 94.4619 65.8349L102.537 60.2099C103.623 59.4532 105.094 59.1442 106.455 59.231Z" fill="url(#paint12_linear_2048_37863)"/>
<path d="M95.7236 50.7201L93.332 48.5254L84.835 67.2514C87.9429 62.7195 91.1273 55.0534 95.7236 50.7201Z" fill="url(#paint13_linear_2048_37863)"/>
<path d="M100.323 43.0352C97.9476 43.0323 95.5364 44.12 94.1273 46.772L93.3311 48.5255L95.7226 50.7202C96.1501 50.3172 96.5891 49.9421 97.042 49.602C99.1602 48.0114 103.825 47.9452 106.789 49.4324L106.825 49.477C106.785 49.061 106.717 48.6476 106.611 48.2381C106.018 46.0471 105.423 45.0504 103.738 43.8918C102.835 43.299 101.115 43.0362 100.323 43.0352Z" fill="url(#paint14_radial_2048_37863)"/>
<path opacity="0.6" d="M49.6983 74.5229H74.2088L53.9995 60.3615C49.3303 57.3512 44.0808 59.1125 42.1851 64.1077C40.5789 69.826 44.5903 74.5229 49.6983 74.5229Z" fill="url(#paint15_linear_2048_37863)"/>
<path d="M105.766 74.6499H81.2559L101.465 60.4884C106.134 57.4781 111.384 59.2395 113.28 64.2346C114.886 69.953 110.874 74.6499 105.766 74.6499Z" fill="url(#paint16_linear_2048_37863)"/>
<path opacity="0.6" d="M49.6983 74.5229H74.2088L53.9995 60.3615C49.3303 57.3512 44.0808 59.1125 42.1851 64.1077C40.5789 69.826 44.5903 74.5229 49.6983 74.5229Z" fill="url(#paint17_linear_2048_37863)"/>
<path opacity="0.6" d="M106.229 74.6499H81.7188L101.928 60.4884C106.597 57.4781 111.847 59.2395 113.742 64.2346C115.349 69.953 111.337 74.6499 106.229 74.6499Z" fill="url(#paint18_linear_2048_37863)"/>
<path d="M100.324 43.0352C101.115 43.0363 102.836 43.2999 103.739 43.8927C105.423 45.0513 106.385 46.0475 106.979 48.2385C107.085 48.648 107.153 49.061 107.193 49.477L107.158 49.4329C104.193 47.9457 99.1608 48.0119 97.0426 49.6025C91.7192 53.6 88.231 62.2986 84.834 67.2519L94.1283 46.7727C95.5374 44.1207 97.9479 43.0324 100.324 43.0352Z" fill="url(#paint19_linear_2048_37863)"/>
<path d="M100.324 43.0352C101.115 43.0363 102.836 43.2999 103.739 43.8927C105.423 45.0513 106.385 46.0475 106.979 48.2385C107.085 48.648 107.153 49.061 107.193 49.477L107.158 49.4329C104.193 47.9457 99.1608 48.0119 97.0426 49.6025C91.7192 53.6 88.231 62.2986 84.834 67.2519L94.1283 46.7727C95.5374 44.1207 97.9479 43.0324 100.324 43.0352Z" fill="url(#paint20_linear_2048_37863)"/>
<path d="M62.2341 41.4819C62.2718 41.494 62.3097 41.5061 62.3476 41.518C62.3966 41.5333 62.4458 41.5484 62.4953 41.5634C62.5446 41.5785 62.5941 41.5935 62.6438 41.6083C62.6938 41.6233 62.744 41.6381 62.7943 41.6528C62.8444 41.6674 62.8947 41.6817 62.9453 41.696C62.996 41.7103 63.047 41.7245 63.0981 41.7386C63.1492 41.7526 63.2005 41.7665 63.2519 41.7803C63.3033 41.794 63.3549 41.8076 63.4067 41.821C63.4584 41.8344 63.5103 41.8477 63.5624 41.8608C63.6146 41.8739 63.6669 41.8869 63.7195 41.8997C63.772 41.9127 63.8247 41.9255 63.8776 41.9381C63.9306 41.9508 63.9837 41.9632 64.0371 41.9756C64.0902 41.9879 64.1436 42.0001 64.197 42.0121C64.2507 42.0241 64.3045 42.036 64.3584 42.0477C64.4124 42.0594 64.4665 42.071 64.5208 42.0823C64.5749 42.0937 64.6292 42.105 64.6836 42.116C64.7382 42.1271 64.7929 42.1381 64.8478 42.1488C64.9026 42.1598 64.9575 42.1706 65.0126 42.1812C65.0678 42.1916 65.1232 42.2019 65.1787 42.2121C65.2341 42.2224 65.2896 42.2325 65.3453 42.2425C65.4011 42.2524 65.4569 42.262 65.5129 42.2715C65.5688 42.2812 65.6248 42.2907 65.681 42.3001C65.7373 42.3094 65.7938 42.3186 65.8504 42.3276C65.9068 42.3365 65.9633 42.3452 66.0199 42.3537C66.0767 42.3625 66.1337 42.3711 66.1908 42.3796C66.2478 42.388 66.3049 42.3963 66.3621 42.4044C66.4193 42.4125 66.4766 42.4205 66.534 42.4283C66.5913 42.4359 66.6488 42.4434 66.7063 42.4508C66.764 42.4583 66.8217 42.4656 66.8796 42.4728C66.9374 42.48 66.9953 42.487 67.0533 42.4939C67.1115 42.5006 67.1697 42.5072 67.228 42.5136C67.2862 42.5202 67.3444 42.5266 67.4027 42.5328C67.4612 42.539 67.5197 42.545 67.5784 42.5509C67.6368 42.5568 67.6954 42.5626 67.754 42.5681C67.8128 42.5736 67.8717 42.5789 67.9306 42.584C67.9894 42.5893 68.0483 42.5943 68.1072 42.5993C68.1662 42.6041 68.2252 42.6087 68.2843 42.6132C68.3434 42.6177 68.4026 42.622 68.4618 42.6262C68.5211 42.6305 68.5804 42.6346 68.6398 42.6385C68.6993 42.6424 68.7588 42.6462 68.8183 42.6499C68.8778 42.6534 68.9373 42.6567 68.9968 42.6599C69.0564 42.6632 69.1161 42.6664 69.1758 42.6693C69.2354 42.6722 69.2951 42.6749 69.3547 42.6774C69.4145 42.68 69.4743 42.6824 69.5342 42.6846C69.5939 42.6869 69.6538 42.6891 69.7136 42.691C69.7734 42.693 69.8332 42.6947 69.893 42.6963C69.953 42.698 70.013 42.6994 70.073 42.7008C70.1329 42.7021 70.1929 42.7033 70.2529 42.7044C70.3128 42.7051 70.3728 42.7057 70.4328 42.7061C70.4928 42.7069 70.5527 42.7075 70.6127 42.7079C70.6728 42.7082 70.733 42.7083 70.7931 42.7083C70.8298 42.7083 70.8665 42.7083 70.9032 42.7083C70.9632 42.7081 71.0232 42.7077 71.0832 42.7072C71.1433 42.7068 71.2034 42.7062 71.2636 42.7054C71.3235 42.7046 71.3835 42.7037 71.4435 42.7026C71.5033 42.7013 71.5631 42.6998 71.6229 42.6981C71.6829 42.6964 71.7429 42.6946 71.8028 42.6926C71.8627 42.6906 71.9225 42.6885 71.9823 42.6862C72.0421 42.6839 72.1019 42.6815 72.1617 42.6789C72.2215 42.6764 72.2813 42.6737 72.3411 42.6709C72.4008 42.668 72.4605 42.6649 72.5201 42.6617C72.5796 42.6586 72.6391 42.6554 72.6986 42.652C72.7581 42.6485 72.8176 42.6449 72.8771 42.6411C72.9365 42.6372 72.9958 42.6331 73.0551 42.6288C73.1143 42.6247 73.1735 42.6205 73.2326 42.6161C73.2919 42.6117 73.3511 42.6071 73.4102 42.6024C73.4693 42.5976 73.5283 42.5926 73.5872 42.5874C73.646 42.5823 73.7047 42.577 73.7633 42.5715C73.8221 42.5662 73.8808 42.5607 73.9395 42.5551C73.9981 42.5492 74.0567 42.5432 74.1151 42.537C74.1736 42.5309 74.232 42.5246 74.2903 42.5181C74.3486 42.5117 74.4069 42.5051 74.465 42.4984C74.523 42.4917 74.5809 42.4848 74.6387 42.4778C74.6967 42.4708 74.7546 42.4637 74.8125 42.4564C74.8702 42.4492 74.9278 42.4419 74.9853 42.4344C75.0428 42.4268 75.1002 42.419 75.1576 42.411C75.2148 42.403 75.2719 42.3949 75.3289 42.3866C75.386 42.3783 75.443 42.3698 75.4998 42.3613C75.5566 42.3527 75.6132 42.344 75.6697 42.3351C75.7263 42.3262 75.7828 42.3171 75.8392 42.3079C75.8955 42.2986 75.9517 42.2893 76.0077 42.2798C76.0639 42.2702 76.1199 42.2605 76.1758 42.2507C76.2316 42.241 76.2873 42.2312 76.3429 42.2212C76.3984 42.2111 76.4538 42.2008 76.509 42.1903C76.5414 42.1842 76.5736 42.1779 76.6059 42.1717C77.1282 36.4548 73.1224 33.4808 69.5503 33.4688C69.306 33.4681 69.0704 33.4902 68.8321 33.517C65.9356 33.5768 61.7829 36.6349 62.2341 41.479L62.2341 41.4819Z" fill="url(#paint21_radial_2048_37863)"/>
<path d="M68.8041 32.9952C65.3056 33.0666 60.0527 37.247 62.3909 43.6301L73.1831 69.1704L76.9751 42.3069C77.8526 35.6318 72.819 32.5504 68.8041 32.9952Z" fill="url(#paint22_linear_2048_37863)"/>
<path d="M78.6586 41.2831H80.6994C80.6994 41.2831 81.7891 41.2831 81.9371 41.7991C81.1343 42.4572 78.9486 42.5395 79.2383 46.0546L82.6693 69.1676L93.3877 43.5602C95.5805 37.8426 90.9783 33.0675 86.8963 32.9215C86.7055 32.9076 86.5144 32.8965 86.3164 32.8965C82.6519 32.8965 78.4535 35.5687 78.6586 41.2831Z" fill="url(#paint23_linear_2048_37863)"/>
<path d="M134.214 0.285333C133.559 0.283198 132.9 0.300376 132.238 0.337243C116.552 1.22207 102.322 12.3331 104.627 31.9944C106.449 47.5295 121.169 54.5652 133.552 50.436L116.368 75.8425L137.908 75.8424L154.069 50.0841C158.958 42.2907 162.416 31.7978 161.04 21.7698C159.204 8.36988 147.535 0.328731 134.214 0.285333ZM133.204 14.8528C139.381 14.6979 144.796 20.9064 144.529 27.6686C144.162 34.059 139.301 39.1226 133.43 39.073C127.651 39.0242 123.065 34.0589 122.606 27.8652C122.147 21.4748 126.55 15.4777 132.604 14.8878C132.805 14.8693 133.005 14.8578 133.204 14.8528Z" fill="black"/>
<path d="M134.212 0.818531C133.567 0.81643 132.919 0.833603 132.267 0.869889C124.541 1.30573 117.189 4.26171 112.067 9.49713C106.946 14.7325 104.021 22.2381 105.158 31.9308C106.943 47.1538 121.293 53.9594 133.383 49.9281L134.877 49.43L117.374 75.3071H137.612L153.616 49.7994C158.451 42.0929 161.863 31.7003 160.511 21.8415C158.712 8.71479 147.319 0.861232 134.212 0.818531ZM133.191 14.3178C139.732 14.1538 145.341 20.6288 145.063 27.6884V27.6932V27.6981C144.681 34.342 139.607 39.6584 133.426 39.6062C127.343 39.5549 122.549 34.3378 122.073 27.9034V27.9026C121.595 21.2449 126.175 14.9759 132.553 14.3546H132.554H132.555C132.768 14.3351 132.98 14.3231 133.191 14.3178Z" fill="#767678"/>
<path d="M59.1976 81.0731C57.6198 79.8777 55.787 79.2402 54.1613 79.2402C50.926 79.2402 48.376 81.7106 48.376 84.7546C48.376 87.7987 50.8782 90.2531 54.241 90.2531C55.8666 90.2531 57.7951 89.5997 59.2135 88.5637V83.7824H53.5557V85.95H56.552V87.3684C55.9623 87.735 55.1176 87.9262 54.3366 87.9262C52.3126 87.9262 51.2607 86.3962 51.2607 84.7706C51.2607 83.0334 52.456 81.5831 54.1773 81.5831C55.1335 81.5831 56.4723 82.0134 57.4285 82.7943L59.1976 81.0731Z" fill="black"/>
<path d="M62.4465 89.9658L63.0999 88.3721H67.7537L68.4231 89.9658H71.4672L66.6381 79.5586H64.3271L59.498 89.9658H62.4465ZM65.379 82.8736H65.4746L66.8612 86.2046H63.9924L65.379 82.8736Z" fill="black"/>
<path d="M74.7969 89.9658V79.5586H72.0078V89.9658H74.7969Z" fill="black"/>
<path d="M83.7831 79.5586V85.2324H83.7671L79.1612 79.5586H76.8184V89.9658H79.6234V84.308H79.6393L84.2294 89.9658H86.5881V79.5586H83.7831Z" fill="black"/>
<path d="M95.0651 83.543H91.3994V81.9014H97.5035V79.5586H88.6104V89.9658H97.8542V87.623H91.3994V85.7902H95.0651V83.543Z" fill="black"/>
<path d="M107.78 80.5152C106.84 79.9574 104.943 79.2402 102.808 79.2402C100.784 79.2402 98.3772 80.0531 98.3772 82.6349C98.3772 85.424 101.071 85.6631 103.398 85.8543C104.736 85.9659 105.629 86.1093 105.629 86.8584C105.629 87.5437 104.88 88.1015 103.589 88.1015C101.74 88.1015 100.083 86.97 99.3653 86.46L97.8672 88.3565C99.1263 89.2809 100.991 90.285 103.637 90.285C106.25 90.285 108.418 89.249 108.418 86.6193C108.418 83.7824 105.406 83.5274 103.493 83.3999C102.362 83.2884 101.166 83.2246 101.166 82.4915C101.166 81.8221 101.899 81.4396 102.744 81.4396C104.274 81.4396 105.581 82.0612 106.266 82.4596L107.78 80.5152Z" fill="black"/>
<path d="M116.927 79.5586L114.042 86.5233H113.946L111.078 79.5586H107.97L112.799 89.9658H115.11L119.939 79.5586H116.927Z" fill="black"/>
<path d="M123.22 89.9658V79.5586H120.431V89.9658H123.22Z" fill="black"/>
<path d="M125.242 79.5586V89.9658H133.88V87.623H128.031V79.5586H125.242Z" fill="black"/>
<path d="M134.69 79.5586V89.9658H143.329V87.623H137.479V79.5586H134.69Z" fill="black"/>
<path d="M150.593 83.543H146.928V81.9014H153.032V79.5586H144.139V89.9658H153.382V87.623H146.928V85.7902H150.593V83.543Z" fill="black"/>
<path d="M134.212 0.818531C133.567 0.81643 132.919 0.833603 132.267 0.869889C124.541 1.30573 117.189 4.26171 112.067 9.49713C106.946 14.7325 104.021 22.2381 105.158 31.9308C106.943 47.1538 121.293 53.9594 133.383 49.9281L134.877 49.43L117.374 75.3071H137.612L153.616 49.7994C158.451 42.0929 161.863 31.7003 160.511 21.8415C158.712 8.71479 147.319 0.861232 134.212 0.818531ZM134.209 1.53092C147.033 1.5727 158.056 9.17447 159.805 21.9381C161.126 31.5703 157.774 41.8307 153.012 49.4208L137.218 74.5947H118.716L136.643 48.0899L133.158 49.2523C121.457 53.1541 107.602 46.6565 105.866 31.8478C104.75 22.3377 107.598 15.0844 112.577 9.99543C117.554 4.90792 124.736 2.00835 132.307 1.58117C132.945 1.54565 133.579 1.52886 134.209 1.53092ZM133.173 13.6056C132.964 13.6108 132.753 13.6239 132.541 13.6422H132.518L132.484 13.6455C125.691 14.3073 120.877 20.9158 121.361 27.9155V27.9026L121.362 27.9536C121.361 27.9409 121.361 27.9282 121.361 27.9155V27.9297L121.362 27.956C121.863 34.7132 126.933 40.2639 133.42 40.3186C140.013 40.3742 145.373 34.7221 145.774 27.739L145.775 27.7186V27.6932V27.6884L145.774 27.7164C146.068 20.2632 140.194 13.4295 133.173 13.6056ZM133.191 14.3178C139.732 14.1539 145.341 20.6288 145.063 27.6884V27.6932V27.6981C144.681 34.342 139.607 39.6584 133.426 39.6062C127.343 39.5549 122.549 34.3378 122.073 27.9034V27.9026C121.595 21.2449 126.175 14.9759 132.553 14.3546H132.554H132.555C132.768 14.3351 132.98 14.3231 133.191 14.3178Z" fill="url(#paint24_radial_2048_37863)"/>
<path d="M134.21 1.53142C133.579 1.52936 132.945 1.54615 132.307 1.58167C124.737 2.00885 117.554 4.90842 112.577 9.99593C107.598 15.0849 104.75 22.3382 105.866 31.8483C107.603 46.657 121.457 53.1544 133.158 49.2526L136.644 48.0904L118.717 74.5952H137.218L153.012 49.4213C157.775 41.8311 161.127 31.571 159.805 21.9388C158.056 9.17516 147.034 1.5732 134.21 1.53142ZM133.173 13.6061C140.195 13.43 146.068 20.2637 145.775 27.7169L145.775 27.6889V27.6937V27.7191L145.774 27.7395C145.373 34.7226 140.013 40.3747 133.42 40.3191C126.934 40.2644 121.863 34.7137 121.362 27.9565L121.361 27.9302V27.9031L121.362 27.9541C120.859 20.9403 125.679 14.309 132.484 13.646L132.518 13.6427H132.541C132.753 13.6244 132.964 13.6113 133.173 13.6061Z" fill="url(#paint25_linear_2048_37863)"/>
<path d="M134.21 1.53142C133.579 1.52936 132.945 1.54615 132.307 1.58167C124.737 2.00885 117.554 4.90842 112.577 9.99593C107.598 15.0849 104.75 22.3382 105.866 31.8483C106.862 40.3418 111.847 46.0949 118.123 48.7264C134.482 47.0274 149.118 41.9618 159.158 34.5237C160.071 30.389 160.377 26.1055 159.805 21.9388C158.056 9.17515 147.034 1.5732 134.21 1.53142ZM133.173 13.6061C140.195 13.43 146.068 20.2637 145.775 27.7169L145.775 27.6889V27.6937V27.7191L145.774 27.7395C145.373 34.7226 140.013 40.3747 133.42 40.3191C126.934 40.2643 121.863 34.7137 121.362 27.9565L121.361 27.9302V27.9031L121.362 27.9541C120.859 20.9403 125.679 14.309 132.484 13.646L132.518 13.6427H132.541C132.753 13.6244 132.964 13.6113 133.173 13.6061Z" fill="url(#paint26_linear_2048_37863)"/>
<path d="M134.212 0.818531C133.567 0.81643 132.919 0.833603 132.267 0.869889C124.541 1.30573 117.189 4.26171 112.067 9.49713C106.946 14.7325 104.021 22.2381 105.158 31.9308C106.943 47.1538 121.293 53.9594 133.383 49.9281L134.877 49.43L117.374 75.3071H137.612L153.616 49.7994C158.451 42.0929 161.863 31.7003 160.511 21.8415C158.712 8.71479 147.319 0.861232 134.212 0.818531ZM134.209 1.53092C147.033 1.5727 158.056 9.17447 159.805 21.9381C161.126 31.5703 157.774 41.8307 153.012 49.4208L137.218 74.5947H118.716L136.643 48.0899L133.158 49.2523C121.457 53.1541 107.602 46.6565 105.866 31.8478C104.75 22.3377 107.598 15.0844 112.577 9.99543C117.554 4.90792 124.736 2.00835 132.307 1.58117C132.945 1.54565 133.579 1.52886 134.209 1.53092ZM133.173 13.6056C132.964 13.6108 132.753 13.6239 132.541 13.6422H132.518L132.484 13.6455C125.691 14.3073 120.877 20.9158 121.361 27.9155V27.9026L121.362 27.9536C121.361 27.9409 121.361 27.9282 121.361 27.9155V27.9297L121.362 27.956C121.863 34.7132 126.933 40.2639 133.42 40.3186C140.013 40.3742 145.373 34.7221 145.774 27.739L145.775 27.7186V27.6932V27.6884L145.774 27.7164C146.068 20.2632 140.194 13.4295 133.173 13.6056ZM133.191 14.3178C139.732 14.1539 145.341 20.6288 145.063 27.6884V27.6932V27.6981C144.681 34.342 139.607 39.6584 133.426 39.6062C127.343 39.5549 122.549 34.3378 122.073 27.9034V27.9026C121.595 21.2449 126.175 14.9759 132.553 14.3546H132.554H132.555C132.768 14.3351 132.98 14.3231 133.191 14.3178Z" fill="url(#paint27_radial_2048_37863)"/>
<path d="M134.212 0.818531C133.567 0.81643 132.919 0.833603 132.267 0.869889C124.541 1.30573 117.189 4.26171 112.067 9.49713C106.946 14.7325 104.021 22.2381 105.158 31.9308C106.943 47.1538 121.293 53.9594 133.383 49.9281L134.877 49.43L117.374 75.3071H137.612L153.616 49.7994C158.451 42.0929 161.863 31.7003 160.511 21.8415C158.712 8.71479 147.319 0.861232 134.212 0.818531ZM134.209 1.53092C147.033 1.5727 158.056 9.17447 159.805 21.9381C161.126 31.5703 157.774 41.8307 153.012 49.4208L137.218 74.5947H118.716L136.643 48.0899L133.158 49.2523C121.457 53.1541 107.602 46.6565 105.866 31.8478C104.75 22.3377 107.598 15.0844 112.577 9.99543C117.554 4.90792 124.736 2.00835 132.307 1.58117C132.945 1.54565 133.579 1.52886 134.209 1.53092ZM133.173 13.6056C132.964 13.6108 132.753 13.6239 132.541 13.6422H132.518L132.484 13.6455C125.691 14.3073 120.877 20.9158 121.361 27.9155V27.9026L121.362 27.9536C121.361 27.9409 121.361 27.9282 121.361 27.9155V27.9297L121.362 27.956C121.863 34.7132 126.933 40.2639 133.42 40.3186C140.013 40.3742 145.373 34.7221 145.774 27.739L145.775 27.7186V27.6932V27.6884L145.774 27.7164C146.068 20.2632 140.194 13.4295 133.173 13.6056ZM133.191 14.3178C139.732 14.1539 145.341 20.6288 145.063 27.6884V27.6932V27.6981C144.681 34.342 139.607 39.6584 133.426 39.6062C127.343 39.5549 122.549 34.3378 122.073 27.9034V27.9026C121.595 21.2449 126.175 14.9759 132.553 14.3546H132.554H132.555C132.768 14.3351 132.98 14.3231 133.191 14.3178Z" fill="url(#paint28_radial_2048_37863)"/>
<path d="M134.212 0.818531C133.567 0.81643 132.919 0.833603 132.267 0.869889C124.541 1.30573 117.189 4.26171 112.067 9.49713C106.946 14.7325 104.021 22.2381 105.158 31.9308C106.943 47.1538 121.293 53.9594 133.383 49.9281L134.877 49.43L117.374 75.3071H137.612L153.616 49.7994C158.451 42.0929 161.863 31.7003 160.511 21.8415C158.712 8.71479 147.319 0.861232 134.212 0.818531ZM134.209 1.53092C147.033 1.5727 158.056 9.17447 159.805 21.9381C161.126 31.5703 157.774 41.8307 153.012 49.4208L137.218 74.5947H118.716L136.643 48.0899L133.158 49.2523C121.457 53.1541 107.602 46.6565 105.866 31.8478C104.75 22.3377 107.598 15.0844 112.577 9.99543C117.554 4.90792 124.736 2.00835 132.307 1.58117C132.945 1.54565 133.579 1.52886 134.209 1.53092ZM133.173 13.6056C132.964 13.6108 132.753 13.6239 132.541 13.6422H132.518L132.484 13.6455C125.691 14.3073 120.877 20.9158 121.361 27.9155V27.9026L121.362 27.9536C121.361 27.9409 121.361 27.9282 121.361 27.9155V27.9297L121.362 27.956C121.863 34.7132 126.933 40.2639 133.42 40.3186C140.013 40.3742 145.373 34.7221 145.774 27.739L145.775 27.7186V27.6932V27.6884L145.774 27.7164C146.068 20.2632 140.194 13.4295 133.173 13.6056ZM133.191 14.3178C139.732 14.1539 145.341 20.6288 145.063 27.6884V27.6932V27.6981C144.681 34.342 139.607 39.6584 133.426 39.6062C127.343 39.5549 122.549 34.3378 122.073 27.9034V27.9026C121.595 21.2449 126.175 14.9759 132.553 14.3546H132.554H132.555C132.768 14.3351 132.98 14.3231 133.191 14.3178Z" fill="url(#paint29_radial_2048_37863)"/>
<path d="M134.212 0.818531C133.567 0.81643 132.919 0.833603 132.267 0.869889C124.541 1.30573 117.189 4.26171 112.067 9.49713C106.946 14.7325 104.021 22.2381 105.158 31.9308C106.943 47.1538 121.293 53.9594 133.383 49.9281L134.877 49.43L117.374 75.3071H137.612L153.616 49.7994C158.451 42.0929 161.863 31.7003 160.511 21.8415C158.712 8.71479 147.319 0.861232 134.212 0.818531ZM134.209 1.53092C147.033 1.5727 158.056 9.17447 159.805 21.9381C161.126 31.5703 157.774 41.8307 153.012 49.4208L137.218 74.5947H118.716L136.643 48.0899L133.158 49.2523C121.457 53.1541 107.602 46.6565 105.866 31.8478C104.75 22.3377 107.598 15.0844 112.577 9.99543C117.554 4.90792 124.736 2.00835 132.307 1.58117C132.945 1.54565 133.579 1.52886 134.209 1.53092ZM133.173 13.6056C132.964 13.6108 132.753 13.6239 132.541 13.6422H132.518L132.484 13.6455C125.691 14.3073 120.877 20.9158 121.361 27.9155V27.9026L121.362 27.9536C121.361 27.9409 121.361 27.9282 121.361 27.9155V27.9297L121.362 27.956C121.863 34.7132 126.933 40.2639 133.42 40.3186C140.013 40.3742 145.373 34.7221 145.774 27.739L145.775 27.7186V27.6932V27.6884L145.774 27.7164C146.068 20.2632 140.194 13.4295 133.173 13.6056ZM133.191 14.3178C139.732 14.1539 145.341 20.6288 145.063 27.6884V27.6932V27.6981C144.681 34.342 139.607 39.6584 133.426 39.6062C127.343 39.5549 122.549 34.3378 122.073 27.9034V27.9026C121.595 21.2449 126.175 14.9759 132.553 14.3546H132.554H132.555C132.768 14.3351 132.98 14.3231 133.191 14.3178Z" fill="url(#paint30_radial_2048_37863)"/>
<path d="M134.212 0.818531C133.567 0.81643 132.919 0.833603 132.267 0.869889C124.541 1.30573 117.189 4.26171 112.067 9.49713C106.946 14.7325 104.021 22.2381 105.158 31.9308C106.943 47.1538 121.293 53.9594 133.383 49.9281L134.877 49.43L117.374 75.3071H137.612L153.616 49.7994C158.451 42.0929 161.863 31.7003 160.511 21.8415C158.712 8.71479 147.319 0.861232 134.212 0.818531ZM134.209 1.53092C147.033 1.5727 158.056 9.17447 159.805 21.9381C161.126 31.5703 157.774 41.8307 153.012 49.4208L137.218 74.5947H118.716L136.643 48.0899L133.158 49.2523C121.457 53.1541 107.602 46.6565 105.866 31.8478C104.75 22.3377 107.598 15.0844 112.577 9.99543C117.554 4.90792 124.736 2.00835 132.307 1.58117C132.945 1.54565 133.579 1.52886 134.209 1.53092ZM133.173 13.6056C132.964 13.6108 132.753 13.6239 132.541 13.6422H132.518L132.484 13.6455C125.691 14.3073 120.877 20.9158 121.361 27.9155V27.9026L121.362 27.9536C121.361 27.9409 121.361 27.9282 121.361 27.9155V27.9297L121.362 27.956C121.863 34.7132 126.933 40.2639 133.42 40.3186C140.013 40.3742 145.373 34.7221 145.774 27.739L145.775 27.7186V27.6932V27.6884L145.774 27.7164C146.068 20.2632 140.194 13.4295 133.173 13.6056ZM133.191 14.3178C139.732 14.1539 145.341 20.6288 145.063 27.6884V27.6932V27.6981C144.681 34.342 139.607 39.6584 133.426 39.6062C127.343 39.5549 122.549 34.3378 122.073 27.9034V27.9026C121.595 21.2449 126.175 14.9759 132.553 14.3546H132.554H132.555C132.768 14.3351 132.98 14.3231 133.191 14.3178Z" fill="url(#paint31_radial_2048_37863)"/>
<path d="M134.212 0.818531C133.567 0.81643 132.919 0.833603 132.267 0.869889C124.541 1.30573 117.189 4.26171 112.067 9.49713C106.946 14.7325 104.021 22.2381 105.158 31.9308C106.943 47.1538 121.293 53.9594 133.383 49.9281L134.877 49.43L117.374 75.3071H137.612L153.616 49.7994C158.451 42.0929 161.863 31.7003 160.511 21.8415C158.712 8.71479 147.319 0.861232 134.212 0.818531ZM134.209 1.53092C147.033 1.5727 158.056 9.17447 159.805 21.9381C161.126 31.5703 157.774 41.8307 153.012 49.4208L137.218 74.5947H118.716L136.643 48.0899L133.158 49.2523C121.457 53.1541 107.602 46.6565 105.866 31.8478C104.75 22.3377 107.598 15.0844 112.577 9.99543C117.554 4.90792 124.736 2.00835 132.307 1.58117C132.945 1.54565 133.579 1.52886 134.209 1.53092ZM133.173 13.6056C132.964 13.6108 132.753 13.6239 132.541 13.6422H132.518L132.484 13.6455C125.691 14.3073 120.877 20.9158 121.361 27.9155V27.9026L121.362 27.9536C121.361 27.9409 121.361 27.9282 121.361 27.9155V27.9297L121.362 27.956C121.863 34.7132 126.933 40.2639 133.42 40.3186C140.013 40.3742 145.373 34.7221 145.774 27.739L145.775 27.7186V27.6932V27.6884L145.774 27.7164C146.068 20.2632 140.194 13.4295 133.173 13.6056ZM133.191 14.3178C139.732 14.1539 145.341 20.6288 145.063 27.6884V27.6932V27.6981C144.681 34.342 139.607 39.6584 133.426 39.6062C127.343 39.5549 122.549 34.3378 122.073 27.9034V27.9026C121.595 21.2449 126.175 14.9759 132.553 14.3546H132.554H132.555C132.768 14.3351 132.98 14.3231 133.191 14.3178Z" fill="url(#paint32_radial_2048_37863)"/>
<path d="M134.212 0.818531C133.567 0.81643 132.919 0.833603 132.267 0.869889C124.541 1.30573 117.189 4.26171 112.067 9.49713C106.946 14.7325 104.021 22.2381 105.158 31.9308C106.943 47.1538 121.293 53.9594 133.383 49.9281L134.877 49.43L117.374 75.3071H137.612L153.616 49.7994C158.451 42.0929 161.863 31.7003 160.511 21.8415C158.712 8.71479 147.319 0.861232 134.212 0.818531ZM134.209 1.53092C147.033 1.5727 158.056 9.17447 159.805 21.9381C161.126 31.5703 157.774 41.8307 153.012 49.4208L137.218 74.5947H118.716L136.643 48.0899L133.158 49.2523C121.457 53.1541 107.602 46.6565 105.866 31.8478C104.75 22.3377 107.598 15.0844 112.577 9.99543C117.554 4.90792 124.736 2.00835 132.307 1.58117C132.945 1.54565 133.579 1.52886 134.209 1.53092ZM133.173 13.6056C132.964 13.6108 132.753 13.6239 132.541 13.6422H132.518L132.484 13.6455C125.691 14.3073 120.877 20.9158 121.361 27.9155V27.9026L121.362 27.9536C121.361 27.9409 121.361 27.9282 121.361 27.9155V27.9297L121.362 27.956C121.863 34.7132 126.933 40.2639 133.42 40.3186C140.013 40.3742 145.373 34.7221 145.774 27.739L145.775 27.7186V27.6932V27.6884L145.774 27.7164C146.068 20.2632 140.194 13.4295 133.173 13.6056ZM133.191 14.3178C139.732 14.1539 145.341 20.6288 145.063 27.6884V27.6932V27.6981C144.681 34.342 139.607 39.6584 133.426 39.6062C127.343 39.5549 122.549 34.3378 122.073 27.9034V27.9026C121.595 21.2449 126.175 14.9759 132.553 14.3546H132.554H132.555C132.768 14.3351 132.98 14.3231 133.191 14.3178Z" fill="url(#paint33_radial_2048_37863)"/>
<path d="M134.212 0.818531C133.567 0.81643 132.919 0.833603 132.267 0.869889C124.541 1.30573 117.189 4.26171 112.067 9.49713C106.946 14.7325 104.021 22.2381 105.158 31.9308C106.943 47.1538 121.293 53.9594 133.383 49.9281L134.877 49.43L117.374 75.3071H137.612L153.616 49.7994C158.451 42.0929 161.863 31.7003 160.511 21.8415C158.712 8.71479 147.319 0.861232 134.212 0.818531ZM134.209 1.53092C147.033 1.5727 158.056 9.17447 159.805 21.9381C161.126 31.5703 157.774 41.8307 153.012 49.4208L137.218 74.5947H118.716L136.643 48.0899L133.158 49.2523C121.457 53.1541 107.602 46.6565 105.866 31.8478C104.75 22.3377 107.598 15.0844 112.577 9.99543C117.554 4.90792 124.736 2.00835 132.307 1.58117C132.945 1.54565 133.579 1.52886 134.209 1.53092ZM133.173 13.6056C132.964 13.6108 132.753 13.6239 132.541 13.6422H132.518L132.484 13.6455C125.691 14.3073 120.877 20.9158 121.361 27.9155V27.9026L121.362 27.9536C121.361 27.9409 121.361 27.9282 121.361 27.9155V27.9297L121.362 27.956C121.863 34.7132 126.933 40.2639 133.42 40.3186C140.013 40.3742 145.373 34.7221 145.774 27.739L145.775 27.7186V27.6932V27.6884L145.774 27.7164C146.068 20.2632 140.194 13.4295 133.173 13.6056ZM133.191 14.3178C139.732 14.1539 145.341 20.6288 145.063 27.6884V27.6932V27.6981C144.681 34.342 139.607 39.6584 133.426 39.6062C127.343 39.5549 122.549 34.3378 122.073 27.9034V27.9026C121.595 21.2449 126.175 14.9759 132.553 14.3546H132.554H132.555C132.768 14.3351 132.98 14.3231 133.191 14.3178Z" fill="url(#paint34_radial_2048_37863)"/>
<path d="M134.212 0.818531C133.567 0.81643 132.919 0.833603 132.267 0.869889C124.541 1.30573 117.189 4.26171 112.067 9.49713C106.946 14.7325 104.021 22.2381 105.158 31.9308C106.943 47.1538 121.293 53.9594 133.383 49.9281L134.877 49.43L117.374 75.3071H137.612L153.616 49.7994C158.451 42.0929 161.863 31.7003 160.511 21.8415C158.712 8.71479 147.319 0.861232 134.212 0.818531ZM134.209 1.53092C147.033 1.5727 158.056 9.17447 159.805 21.9381C161.126 31.5703 157.774 41.8307 153.012 49.4208L137.218 74.5947H118.716L136.643 48.0899L133.158 49.2523C121.457 53.1541 107.602 46.6565 105.866 31.8478C104.75 22.3377 107.598 15.0844 112.577 9.99543C117.554 4.90792 124.736 2.00835 132.307 1.58117C132.945 1.54565 133.579 1.52886 134.209 1.53092ZM133.173 13.6056C132.964 13.6108 132.753 13.6239 132.541 13.6422H132.518L132.484 13.6455C125.691 14.3073 120.877 20.9158 121.361 27.9155V27.9026L121.362 27.9536C121.361 27.9409 121.361 27.9282 121.361 27.9155V27.9297L121.362 27.956C121.863 34.7132 126.933 40.2639 133.42 40.3186C140.013 40.3742 145.373 34.7221 145.774 27.739L145.775 27.7186V27.6932V27.6884L145.774 27.7164C146.068 20.2632 140.194 13.4295 133.173 13.6056ZM133.191 14.3178C139.732 14.1539 145.341 20.6288 145.063 27.6884V27.6932V27.6981C144.681 34.342 139.607 39.6584 133.426 39.6062C127.343 39.5549 122.549 34.3378 122.073 27.9034V27.9026C121.595 21.2449 126.175 14.9759 132.553 14.3546H132.554H132.555C132.768 14.3351 132.98 14.3231 133.191 14.3178Z" fill="url(#paint35_radial_2048_37863)"/>
<path d="M134.212 0.818531C133.567 0.81643 132.919 0.833603 132.267 0.869889C124.541 1.30573 117.189 4.26171 112.067 9.49713C106.946 14.7325 104.021 22.2381 105.158 31.9308C106.943 47.1538 121.293 53.9594 133.383 49.9281L134.877 49.43L117.374 75.3071H137.612L153.616 49.7994C158.451 42.0929 161.863 31.7003 160.511 21.8415C158.712 8.71479 147.319 0.861232 134.212 0.818531ZM134.209 1.53092C147.033 1.5727 158.056 9.17447 159.805 21.9381C161.126 31.5703 157.774 41.8307 153.012 49.4208L137.218 74.5947H118.716L136.643 48.0899L133.158 49.2523C121.457 53.1541 107.602 46.6565 105.866 31.8478C104.75 22.3377 107.598 15.0844 112.577 9.99543C117.554 4.90792 124.736 2.00835 132.307 1.58117C132.945 1.54565 133.579 1.52886 134.209 1.53092ZM133.173 13.6056C132.964 13.6108 132.753 13.6239 132.541 13.6422H132.518L132.484 13.6455C125.691 14.3073 120.877 20.9158 121.361 27.9155V27.9026L121.362 27.9536C121.361 27.9409 121.361 27.9282 121.361 27.9155V27.9297L121.362 27.956C121.863 34.7132 126.933 40.2639 133.42 40.3186C140.013 40.3742 145.373 34.7221 145.774 27.739L145.775 27.7186V27.6932V27.6884L145.774 27.7164C146.068 20.2632 140.194 13.4295 133.173 13.6056ZM133.191 14.3178C139.732 14.1539 145.341 20.6288 145.063 27.6884V27.6932V27.6981C144.681 34.342 139.607 39.6584 133.426 39.6062C127.343 39.5549 122.549 34.3378 122.073 27.9034V27.9026C121.595 21.2449 126.175 14.9759 132.553 14.3546H132.554H132.555C132.768 14.3351 132.98 14.3231 133.191 14.3178Z" fill="url(#paint36_radial_2048_37863)"/>
<path d="M134.212 0.818531C133.567 0.81643 132.919 0.833603 132.267 0.869889C124.541 1.30573 117.189 4.26171 112.067 9.49713C106.946 14.7325 104.021 22.2381 105.158 31.9308C106.943 47.1538 121.293 53.9594 133.383 49.9281L134.877 49.43L117.374 75.3071H137.612L153.616 49.7994C158.451 42.0929 161.863 31.7003 160.511 21.8415C158.712 8.71479 147.319 0.861232 134.212 0.818531ZM134.209 1.53092C147.033 1.5727 158.056 9.17447 159.805 21.9381C161.126 31.5703 157.774 41.8307 153.012 49.4208L137.218 74.5947H118.716L136.643 48.0899L133.158 49.2523C121.457 53.1541 107.602 46.6565 105.866 31.8478C104.75 22.3377 107.598 15.0844 112.577 9.99543C117.554 4.90792 124.736 2.00835 132.307 1.58117C132.945 1.54565 133.579 1.52886 134.209 1.53092ZM133.173 13.6056C132.964 13.6108 132.753 13.6239 132.541 13.6422H132.518L132.484 13.6455C125.691 14.3073 120.877 20.9158 121.361 27.9155V27.9026L121.362 27.9536C121.361 27.9409 121.361 27.9282 121.361 27.9155V27.9297L121.362 27.956C121.863 34.7132 126.933 40.2639 133.42 40.3186C140.013 40.3742 145.373 34.7221 145.774 27.739L145.775 27.7186V27.6932V27.6884L145.774 27.7164C146.068 20.2632 140.194 13.4295 133.173 13.6056ZM133.191 14.3178C139.732 14.1539 145.341 20.6288 145.063 27.6884V27.6932V27.6981C144.681 34.342 139.607 39.6584 133.426 39.6062C127.343 39.5549 122.549 34.3378 122.073 27.9034V27.9026C121.595 21.2449 126.175 14.9759 132.553 14.3546H132.554H132.555C132.768 14.3351 132.98 14.3231 133.191 14.3178Z" fill="url(#paint37_radial_2048_37863)"/>
<defs>
<linearGradient id="paint0_linear_2048_37863" x1="60.9016" y1="59.0117" x2="58.9098" y2="61.8913" gradientUnits="userSpaceOnUse">
<stop stop-color="#FE4004"/>
<stop offset="0.423004" stop-color="#F13C0C"/>
<stop offset="1" stop-color="#DA4A1E"/>
</linearGradient>
<linearGradient id="paint1_linear_2048_37863" x1="68.1226" y1="52.1423" x2="66.3849" y2="52.8601" gradientUnits="userSpaceOnUse">
<stop stop-color="#DA0000"/>
<stop offset="1" stop-color="#A60D0C"/>
</linearGradient>
<linearGradient id="paint2_linear_2048_37863" x1="87.6525" y1="52.5106" x2="91.0288" y2="53.9806" gradientUnits="userSpaceOnUse">
<stop stop-color="#3D004E"/>
<stop offset="1" stop-color="#270F33"/>
</linearGradient>
<linearGradient id="paint3_linear_2048_37863" x1="95.6451" y1="59.4903" x2="98.2363" y2="63.2261" gradientUnits="userSpaceOnUse">
<stop stop-color="#18317F"/>
<stop offset="0.537174" stop-color="#182E57"/>
<stop offset="1" stop-color="#182E57"/>
</linearGradient>
<linearGradient id="paint4_linear_2048_37863" x1="99.9141" y1="69.3062" x2="99.9141" y2="76.409" gradientUnits="userSpaceOnUse">
<stop stop-color="#2B9344"/>
<stop offset="0.539429" stop-color="#195728"/>
<stop offset="1"/>
</linearGradient>
<linearGradient id="paint5_linear_2048_37863" x1="42.8246" y1="54.6174" x2="51.1547" y2="52.3363" gradientUnits="userSpaceOnUse">
<stop/>
<stop offset="1" stop-opacity="0"/>
</linearGradient>
<linearGradient id="paint6_linear_2048_37863" x1="53.3575" y1="69.1062" x2="53.3575" y2="74.917" gradientUnits="userSpaceOnUse">
<stop stop-color="#FBAE01"/>
<stop offset="0.410104" stop-color="#EF9F04"/>
<stop offset="0.788792" stop-color="#BF8B2D"/>
<stop offset="1" stop-color="#BB8826" stop-opacity="0.988235"/>
</linearGradient>
<linearGradient id="paint7_linear_2048_37863" x1="72.1707" y1="44.036" x2="65.3052" y2="62.7309" gradientUnits="userSpaceOnUse">
<stop stop-color="#FE6413"/>
<stop offset="1" stop-color="#F4612E"/>
</linearGradient>
<linearGradient id="paint8_linear_2048_37863" x1="50.4871" y1="47.025" x2="49.3258" y2="45.5233" gradientUnits="userSpaceOnUse">
<stop stop-color="white" stop-opacity="0"/>
<stop offset="1" stop-color="white"/>
</linearGradient>
<linearGradient id="paint9_linear_2048_37863" x1="65.3656" y1="67.0374" x2="43.712" y2="60.8938" gradientUnits="userSpaceOnUse">
<stop stop-color="#F7CE35"/>
<stop offset="1" stop-color="#F5EA3A"/>
</linearGradient>
<linearGradient id="paint10_linear_2048_37863" x1="87.1519" y1="26.0191" x2="85.3701" y2="50.6827" gradientUnits="userSpaceOnUse">
<stop stop-color="white"/>
<stop offset="1" stop-color="white" stop-opacity="0"/>
</linearGradient>
<radialGradient id="paint11_radial_2048_37863" cx="0" cy="0" r="1" gradientUnits="userSpaceOnUse" gradientTransform="translate(86.2685 41.4467) scale(8.17721 8.45576)">
<stop stop-color="#5C0866"/>
<stop offset="0.827179" stop-color="#640E6D"/>
<stop offset="0.907309" stop-color="#782380"/>
<stop offset="1" stop-color="#5F2E6A"/>
</radialGradient>
<linearGradient id="paint12_linear_2048_37863" x1="94.4619" y1="65.8349" x2="112.283" y2="60.3577" gradientUnits="userSpaceOnUse">
<stop stop-color="#3C994A"/>
<stop offset="0.295279" stop-color="#45AA4E"/>
<stop offset="1" stop-color="#4DB852"/>
</linearGradient>
<linearGradient id="paint13_linear_2048_37863" x1="87.7785" y1="57.8884" x2="78.1329" y2="56.5353" gradientUnits="userSpaceOnUse">
<stop stop-color="#274D94"/>
<stop offset="0.155287" stop-color="#294E93"/>
<stop offset="0.184702" stop-color="#4F6EA6"/>
<stop offset="1" stop-color="#3075AF" stop-opacity="0.475806"/>
</linearGradient>
<radialGradient id="paint14_radial_2048_37863" cx="0" cy="0" r="1" gradientUnits="userSpaceOnUse" gradientTransform="translate(99.3376 48.8553) scale(40.4308 34.1846)">
<stop stop-color="#274D94"/>
<stop offset="0.155287" stop-color="#294E93"/>
<stop offset="0.184702" stop-color="#4F6EA6"/>
<stop offset="1" stop-color="#3075AF" stop-opacity="0.475806"/>
</radialGradient>
<linearGradient id="paint15_linear_2048_37863" x1="43.5085" y1="80.4999" x2="56.0239" y2="71.6145" gradientUnits="userSpaceOnUse">
<stop/>
<stop offset="0.5056" stop-opacity="0.1922"/>
<stop offset="0.6912" stop-opacity="0.0667"/>
<stop offset="1" stop-opacity="0"/>
</linearGradient>
<linearGradient id="paint16_linear_2048_37863" x1="111.956" y1="80.6268" x2="99.4408" y2="71.7415" gradientUnits="userSpaceOnUse">
<stop/>
<stop offset="0.5056" stop-opacity="0.1922"/>
<stop offset="0.6912" stop-opacity="0.0667"/>
<stop offset="1" stop-opacity="0"/>
</linearGradient>
<linearGradient id="paint17_linear_2048_37863" x1="44.7666" y1="60.9112" x2="45.7727" y2="61.9487" gradientUnits="userSpaceOnUse">
<stop stop-color="white"/>
<stop offset="1" stop-color="white" stop-opacity="0"/>
</linearGradient>
<linearGradient id="paint18_linear_2048_37863" x1="111.161" y1="61.0381" x2="110.155" y2="62.0756" gradientUnits="userSpaceOnUse">
<stop stop-color="white"/>
<stop offset="1" stop-color="white" stop-opacity="0"/>
</linearGradient>
<linearGradient id="paint19_linear_2048_37863" x1="105.985" y1="44.9262" x2="104.897" y2="46.0471" gradientUnits="userSpaceOnUse">
<stop stop-color="white"/>
<stop offset="1" stop-color="white" stop-opacity="0"/>
</linearGradient>
<linearGradient id="paint20_linear_2048_37863" x1="101.61" y1="42.049" x2="101.008" y2="44.1186" gradientUnits="userSpaceOnUse">
<stop stop-color="white"/>
<stop offset="1" stop-color="white" stop-opacity="0"/>
</linearGradient>
<radialGradient id="paint21_radial_2048_37863" cx="0" cy="0" r="1" gradientUnits="userSpaceOnUse" gradientTransform="translate(69.4262 40.9677) scale(7.71204 7.97567)">
<stop stop-color="#F00409"/>
<stop offset="0.827179" stop-color="#EA111D"/>
<stop offset="1" stop-color="#DB434E"/>
</radialGradient>
<linearGradient id="paint22_linear_2048_37863" x1="76.2043" y1="54.2669" x2="74.0964" y2="53.9747" gradientUnits="userSpaceOnUse">
<stop stop-color="#9C1415"/>
<stop offset="1" stop-color="#9C1415" stop-opacity="0"/>
</linearGradient>
<linearGradient id="paint23_linear_2048_37863" x1="81.8193" y1="53.4697" x2="79.3548" y2="53.9893" gradientUnits="userSpaceOnUse">
<stop stop-color="#5A2466" stop-opacity="0"/>
<stop offset="1"/>
</linearGradient>
<radialGradient id="paint24_radial_2048_37863" cx="0" cy="0" r="1" gradientUnits="userSpaceOnUse" gradientTransform="translate(124.406 50.8071) rotate(148.333) scale(4.22879 37.2444)">
<stop stop-color="white"/>
<stop offset="1" stop-color="white" stop-opacity="0"/>
</radialGradient>
<linearGradient id="paint25_linear_2048_37863" x1="160.809" y1="75.3076" x2="161.345" y2="0.28465" gradientUnits="userSpaceOnUse">
<stop stop-color="#B21A1E"/>
<stop offset="0.469986" stop-color="#CD2127"/>
<stop offset="1" stop-color="#B31A1E"/>
</linearGradient>
<linearGradient id="paint26_linear_2048_37863" x1="160.095" y1="48.7264" x2="160.095" y2="30.2217" gradientUnits="userSpaceOnUse">
<stop stop-color="#EE1B24"/>
<stop offset="1" stop-color="#EE1B24" stop-opacity="0"/>
</linearGradient>
<radialGradient id="paint27_radial_2048_37863" cx="0" cy="0" r="1" gradientUnits="userSpaceOnUse" gradientTransform="translate(129.384 75.3071) rotate(127.082) scale(11.1162 7.05034)">
<stop stop-color="white"/>
<stop offset="1" stop-color="white" stop-opacity="0"/>
</radialGradient>
<radialGradient id="paint28_radial_2048_37863" cx="0" cy="0" r="1" gradientUnits="userSpaceOnUse" gradientTransform="translate(145.665 64.005) rotate(127.082) scale(11.1162 7.05034)">
<stop stop-color="white"/>
<stop offset="1" stop-color="white" stop-opacity="0"/>
</radialGradient>
<radialGradient id="paint29_radial_2048_37863" cx="0" cy="0" r="1" gradientUnits="userSpaceOnUse" gradientTransform="translate(144.185 34.1352) rotate(127.082) scale(11.1162 7.05034)">
<stop stop-color="white"/>
<stop offset="1" stop-color="white" stop-opacity="0"/>
</radialGradient>
<radialGradient id="paint30_radial_2048_37863" cx="0" cy="0" r="1" gradientUnits="userSpaceOnUse" gradientTransform="translate(141.225 15.1639) rotate(127.082) scale(11.1162 7.05034)">
<stop stop-color="white"/>
<stop offset="1" stop-color="white" stop-opacity="0"/>
</radialGradient>
<radialGradient id="paint31_radial_2048_37863" cx="0" cy="0" r="1" gradientUnits="userSpaceOnUse" gradientTransform="translate(124.137 17.9894) rotate(127.082) scale(11.1162 7.05034)">
<stop stop-color="white"/>
<stop offset="1" stop-color="white" stop-opacity="0"/>
</radialGradient>
<radialGradient id="paint32_radial_2048_37863" cx="0" cy="0" r="1" gradientUnits="userSpaceOnUse" gradientTransform="translate(125.617 35.0771) rotate(127.082) scale(11.1162 7.05034)">
<stop stop-color="white"/>
<stop offset="1" stop-color="white" stop-opacity="0"/>
</radialGradient>
<radialGradient id="paint33_radial_2048_37863" cx="0" cy="0" r="1" gradientUnits="userSpaceOnUse" gradientTransform="translate(123.33 1.53075) rotate(163.604) scale(27.6038 7.05034)">
<stop stop-color="white"/>
<stop offset="1" stop-color="white" stop-opacity="0"/>
</radialGradient>
<radialGradient id="paint34_radial_2048_37863" cx="0" cy="0" r="1" gradientUnits="userSpaceOnUse" gradientTransform="translate(148.894 4.89446) rotate(163.604) scale(27.6038 7.05034)">
<stop stop-color="white"/>
<stop offset="1" stop-color="white" stop-opacity="0"/>
</radialGradient>
<radialGradient id="paint35_radial_2048_37863" cx="0" cy="0" r="1" gradientUnits="userSpaceOnUse" gradientTransform="translate(108.395 37.0515) rotate(163.604) scale(27.6038 7.05034)">
<stop stop-color="white"/>
<stop offset="1" stop-color="white" stop-opacity="0"/>
</radialGradient>
<radialGradient id="paint36_radial_2048_37863" cx="0" cy="0" r="1" gradientUnits="userSpaceOnUse" gradientTransform="translate(110.817 17.0038) rotate(163.604) scale(27.6038 7.05034)">
<stop stop-color="white"/>
<stop offset="1" stop-color="white" stop-opacity="0"/>
</radialGradient>
<radialGradient id="paint37_radial_2048_37863" cx="0" cy="0" r="1" gradientUnits="userSpaceOnUse" gradientTransform="translate(160.809 17.8111) rotate(163.604) scale(27.6038 7.05034)">
<stop stop-color="white"/>
<stop offset="1" stop-color="white" stop-opacity="0"/>
</radialGradient>
</defs>
</svg>
