<svg width="201" height="91" viewBox="0 0 201 91" fill="none" xmlns="http://www.w3.org/2000/svg">
<path d="M7.7375 60.6413H0.879883V44.8496L7.7375 55.8192V60.6413Z" fill="url(#paint0_linear_2048_38005)"/>
<path d="M7.7375 52.691L0.879883 41.5347V31.0918H8.91703L20.8178 50.4493V31.0918H27.5484V60.6375H19.6748L7.7375 41.28V52.691Z" fill="#294EA6"/>
<path d="M29.834 60.6375V31.0918H49.6449V37.0774H36.6916V42.8082H48.8829V48.4117H36.6916V54.652H50.4068V60.6375H29.834Z" fill="#294EA6"/>
<path d="M58.4391 60.6375L50.8994 31.0918H57.6771L62.0925 48.7643L65.9006 31.0918H73.7741L78.1558 48.7643L82.1557 31.0918H89.0133L81.4896 60.6375H74.378L69.998 41.5313L65.4548 60.6375H58.4391Z" fill="#294EA6"/>
<path d="M92.0042 52.4094L87.3691 57.1696C87.3691 57.1696 90.9554 61.3862 98.4222 61.3862C105.331 61.3862 109.655 57.4478 109.655 51.5951C109.655 41.6571 95.9136 44.1871 95.9136 39.1297C95.9136 37.6267 97.2145 36.1834 99.9591 36.1834C102.89 36.1834 105.361 38.6991 105.361 38.6991L109.79 33.9849C109.79 33.9849 106.421 30.3359 100.185 30.3359C93.1361 30.3359 88.817 34.3863 88.817 39.5603C88.817 49.9949 102.445 46.8266 102.445 52.3204C102.445 54.4605 100.66 55.5841 98.4222 55.5841C94.5122 55.5841 92.0042 52.4094 92.0042 52.4094Z" fill="#294EA6"/>
<path d="M111.617 60.6375V31.0918H121.617L128.508 50.2908L135.046 31.0918H145.143V60.6375H138.286V39.7518L130.666 60.6375H125.682L118.221 39.5274V60.6375H111.617Z" fill="#294EA6"/>
<path d="M157.471 31.0918L145.145 60.6375H152.764L154.96 54.7793H166.389L168.652 60.6375H179.501L185.703 50.2568L192.205 60.6375H200.881L190.264 45.0498L199.616 31.0918H191.37L185.918 40.2786L180.449 31.0918H171.813L181.351 45.0498L174.447 55.6395L164.337 31.0918H157.471ZM160.756 39.0608L164.566 49.1758H156.946L160.756 39.0608Z" fill="#294EA6"/>
<defs>
<linearGradient id="paint0_linear_2048_38005" x1="1.40462" y1="60.6367" x2="1.40462" y2="44.8349" gradientUnits="userSpaceOnUse">
<stop stop-color="#B5000B"/>
<stop offset="0.2" stop-color="#CC0011"/>
<stop offset="0.4" stop-color="#E60017"/>
<stop offset="0.6" stop-color="#FE001C"/>
<stop offset="0.8" stop-color="#FE001C"/>
<stop offset="1" stop-color="#FE001C"/>
</linearGradient>
</defs>
</svg>
