<svg width="201" height="91" viewBox="0 0 201 91" fill="none" xmlns="http://www.w3.org/2000/svg">
<path d="M99.3863 44.1386V40.06H109.372L107 34.1875H92.8887V59.1958H110.644V53.3233H99.3863V49.596H107.092V44.1386H99.3863Z" fill="#563DB2"/>
<path d="M146.236 34.1895L136.143 59.1998H133.66L127.536 46.5816L121.374 59.1998H118.891L108.801 34.1895H116.054L120.739 46.2015L126.272 34.1895H128.769L134.302 46.2015L138.986 34.1895H146.236Z" fill="#563DB2"/>
<path d="M149.087 50.7086C150.559 52.6791 152.108 53.9305 154.64 53.9305C156.34 53.9305 157.209 53.3243 157.209 52.112C157.209 51.0127 156.641 50.6716 154.677 49.8004L152.108 48.6641C147.991 46.8457 145.799 44.4971 145.799 41.1232C145.799 36.6891 149.425 33.7344 154.525 33.7344C158.643 33.7344 161.551 35.7049 163.063 38.7747L158.718 42.1095C157.51 40.2911 156.377 39.4568 154.601 39.4568C153.241 39.4568 152.372 39.987 152.372 41.0493C152.372 41.9595 152.901 42.4506 154.525 43.0958L157.397 44.3081C161.742 46.1265 163.782 48.3251 163.782 51.849C163.782 56.7002 159.816 59.655 154.64 59.655C150.144 59.655 146.518 57.4954 144.705 54.0476L149.087 50.7086Z" fill="#563DB2"/>
<path d="M177.645 49.6103V59.1977H171.148V49.6863L162.573 34.1895H169.751L174.397 42.9057L179.043 34.1895H186.181L177.645 49.6103Z" fill="#563DB2"/>
<path d="M28.6313 59.482L15.8799 46.6912L28.6313 33.9004V59.482Z" fill="#563DB2"/>
<path d="M43.9677 46.6914L30.0098 32.6924L43.9677 18.6914V46.6914Z" fill="#563DB2"/>
<path d="M50.3945 33.9004L63.1459 46.6912L50.3945 59.482V33.9004Z" fill="#563DB2"/>
<path d="M35.0557 46.6914L49.0115 60.6924L35.0557 74.6914V46.6914Z" fill="#563DB2"/>
<path d="M90.0926 34.1855V59.1959H87.5464L74.4898 46.5017V59.1959H67.9922V34.1855H70.5486L83.6995 46.6907L83.595 34.1855H90.0926Z" fill="#563DB2"/>
</svg>
