<svg width="201" height="91" viewBox="0 0 201 91" fill="none" xmlns="http://www.w3.org/2000/svg">
<path d="M101.611 24.1372L97.4974 22.0516C97.6346 21.8418 97.7841 21.6444 97.9337 21.4469L102.097 23.5572C101.935 23.7423 101.773 23.9397 101.611 24.1372ZM103.63 21.8912L99.3921 19.7439C99.2301 19.9044 99.068 20.0771 98.9185 20.2499L103.144 22.3848C103.306 22.2244 103.468 22.064 103.63 21.8912ZM105.35 20.2622L101.162 18.1397C100.963 18.3001 100.763 18.4729 100.551 18.658L104.765 20.7929C104.964 20.6078 105.151 20.435 105.35 20.2622ZM132.188 11.2413V65.4905C132.076 71.8089 127.165 73.9439 122.627 75.5975L119.075 76.5847C113.752 77.2635 108.579 78.5469 101.549 85.8032C101.536 85.7908 101.524 85.7785 101.524 85.7661C101.511 85.7785 101.499 85.7908 101.499 85.8032C94.4684 78.5592 89.2954 77.2635 83.9727 76.5847L80.4202 75.5975C75.8828 73.9315 70.9716 71.7966 70.8594 65.4905V11.2413C79.236 17.8065 91.402 16.7328 98.5944 8.57569C99.7786 7.23057 100.751 5.77437 101.524 4.24414C102.297 5.77437 103.269 7.23057 104.453 8.57569C111.658 16.7328 123.824 17.8065 132.188 11.2413ZM116.943 32.245L119.511 30.2211H116.295L115.273 27.3457L114.251 30.2211H111.147L113.627 32.2326L112.605 35.2314L115.248 33.3433L117.903 35.3425L116.943 32.245ZM111.072 20.8299L112.319 21.8295L113.565 22.8291L113.054 24.3223L112.543 25.8155L115.186 23.9274L117.841 25.9266L116.868 22.8291L119.436 20.8052H116.22L115.198 17.9299L114.176 20.8052H111.072V20.8299ZM93.6208 33.8739C94.1194 32.5041 95.69 28.4441 97.9836 24.7295L96.3756 23.9151C96.4753 23.7176 96.5875 23.5202 96.6872 23.3227L100.689 25.3466C100.564 25.5317 100.452 25.7168 100.339 25.9142L98.8187 25.1368C96.4379 28.7649 94.5307 33.0594 94.0072 34.2688C95.5155 34.4539 103.718 35.0833 108.267 28.1355C111.994 22.4465 109.676 16.2639 109.127 15.0051C108.442 15.4988 107.058 16.523 105.463 17.8928L107.108 18.7197C106.921 18.8678 106.734 19.0282 106.547 19.1886L102.471 17.1277C102.683 16.9796 102.895 16.8316 103.094 16.6958L104.428 17.3745C106.236 15.9183 107.744 15.1162 108.567 14.7337C106.622 14.5732 98.9933 14.3758 95.0792 20.6448C91.2649 26.7657 93.0474 32.4054 93.6208 33.8739ZM83.6237 20.8299L84.8702 21.8295L86.1167 22.8291L85.6057 24.3223L85.0946 25.8155L87.7497 23.9274L90.4048 25.9266L89.42 22.8291L91.9878 20.8052H88.7718L87.7497 17.9299L86.7275 20.8052H83.6237V20.8299ZM83.6237 30.2211L86.1043 32.2326L85.0821 35.2314L87.7372 33.3433L90.3923 35.3425L89.4075 32.245L91.9754 30.2211H88.7594L87.7372 27.3457L86.7151 30.2211H83.6237ZM73.3524 20.8299L74.5989 21.8295L75.8454 22.8291L75.3344 24.3223L74.8233 25.8155L77.4659 23.9521L80.121 25.9513L79.1487 22.8538L81.7165 20.8299H78.4881L77.4659 17.9545L76.4438 20.8299H73.3524ZM73.4397 30.2211L75.9202 32.2326L74.8981 35.2314L77.5407 33.3433L80.1958 35.3425L79.2235 32.245L81.7913 30.2211H78.5753L77.5532 27.3457L76.531 30.2211H73.4397ZM129.159 37.4404H73.9009V63.4914C74.0131 69.2914 78.4257 71.2536 82.5143 72.7838L85.7054 73.6847C90.5045 74.3017 95.1665 75.4864 101.499 82.1503C101.511 82.138 101.511 82.1257 101.524 82.1133C101.536 82.1257 101.536 82.138 101.549 82.1503C107.881 75.4988 112.543 74.3017 117.342 73.6847L120.533 72.7838C124.622 71.2536 129.034 69.2914 129.146 63.4914L129.159 37.4404ZM121.343 20.8299L122.59 21.8295L123.836 22.8291L123.325 24.3223L122.814 25.8155L125.469 23.9274L128.124 25.9266L127.14 22.8291L129.707 20.8052H126.491L125.469 17.9299L124.447 20.8052H121.343V20.8299ZM121.343 30.2211L123.824 32.2326L122.802 35.2314L125.457 33.3433L128.112 35.3425L127.127 32.245L129.695 30.2211H126.479L125.457 27.3457L124.435 30.2211H121.343Z" fill="#1D3767"/>
<path d="M104.403 4.66413C103.144 3.22028 102.122 1.65302 101.287 0.0117188C100.451 1.65302 99.4292 3.22028 98.1702 4.66413C90.3047 13.6851 79.7343 16.7086 67.8799 6.12032V67.6012C68.0045 74.586 73.3646 76.943 78.3132 78.7818L82.1899 79.8677C87.9987 80.6082 93.6329 82.0397 101.287 90.0117C108.94 82.0397 114.574 80.6082 120.383 79.8677L124.26 78.7818C129.208 76.943 134.569 74.586 134.693 67.6012V6.12032C122.839 16.7086 112.268 13.6851 104.403 4.66413ZM132.188 65.4909C132.075 71.8093 127.164 73.9443 122.627 75.5979L119.074 76.5851C113.752 77.2639 108.579 78.5473 101.548 85.8036C101.536 85.7912 101.523 85.7789 101.523 85.7666C101.511 85.7789 101.498 85.7912 101.498 85.8036C94.4681 78.5596 89.295 77.2639 83.9724 76.5851L80.4198 75.5979C75.8825 73.9319 70.9712 71.797 70.8591 65.4909V11.2417C79.2356 17.8069 91.4016 16.7332 98.594 8.5761C99.7782 7.23097 100.751 5.77478 101.523 4.24454C102.296 5.77478 103.268 7.23097 104.453 8.5761C111.658 16.7332 123.811 17.8069 132.188 11.2417V65.4909ZM125.456 17.955L126.479 20.8303H129.707L127.139 22.8542L128.124 25.9517L125.456 23.9525L122.801 25.8406L123.824 22.8418L121.343 20.8303H124.447L125.456 17.955ZM124.447 30.2215H121.343L123.824 32.233L122.801 35.2318L125.456 33.3437L128.112 35.3429L127.127 32.2454L129.695 30.2215H126.479L125.456 27.3461L124.447 30.2215ZM114.25 30.2215H111.146L113.627 32.233L112.605 35.2318L115.248 33.3437L117.903 35.3429L116.918 32.2454L119.486 30.2215H116.27L115.248 27.3461L114.25 30.2215ZM114.176 20.8303H111.072L113.565 22.8418L112.543 25.8406L115.185 23.9525L117.84 25.9517L116.868 22.8542L119.436 20.8303H116.22L115.198 17.955L114.176 20.8303ZM87.7494 17.955L88.7715 20.8303H91.9875L89.4197 22.8542L90.4044 25.9517L87.7494 23.9525L85.0943 25.8406L86.1164 22.8418L83.6359 20.8303H86.7397L87.7494 17.955ZM86.7272 30.2215H83.6234L86.104 32.233L85.0818 35.2318L87.7369 33.3437L90.392 35.3429L89.4072 32.2454L91.975 30.2215H88.759L87.7369 27.3461L86.7272 30.2215ZM76.5307 30.2215H73.4393L75.9199 32.233L74.8978 35.2318L77.5404 33.3437L80.1955 35.3429L79.2232 32.2454L81.791 30.2215H78.575L77.5529 27.3461L76.5307 30.2215ZM76.4559 20.8303H73.3521L75.8327 22.8418L74.8105 25.8406L77.4656 23.9525L80.1207 25.9517L79.1484 22.8542L81.7162 20.8303H78.4877L77.4656 17.955L76.4559 20.8303ZM109.14 15.0179C108.454 15.5115 107.07 16.5358 105.475 17.9056L107.12 18.7324C106.933 18.8805 106.746 19.0409 106.559 19.2014L102.483 17.1405C102.695 16.9924 102.907 16.8443 103.106 16.7086L104.44 17.3873C106.248 15.9311 107.756 15.129 108.579 14.7464C106.634 14.586 99.0054 14.3885 95.0913 20.6575C91.2645 26.7785 93.0471 32.4181 93.6204 33.8867C94.1191 32.5169 95.6897 28.4568 97.9833 24.7423L96.3753 23.9278C96.475 23.7304 96.5872 23.5329 96.6869 23.3355L100.688 25.3593C100.564 25.5444 100.451 25.7295 100.339 25.927L98.8184 25.1495C96.4376 28.7777 94.5304 33.0722 94.0069 34.2816C95.5152 34.4667 103.717 35.096 108.267 28.1483C112.007 22.4716 109.688 16.289 109.14 15.0179ZM101.611 24.1376L97.4971 22.052C97.6342 21.8422 97.7838 21.6448 97.9334 21.4473L102.097 23.5576C101.935 23.7427 101.773 23.9401 101.611 24.1376ZM103.144 22.3976L98.9181 20.2626C99.0802 20.0899 99.2298 19.9171 99.3918 19.7567L103.63 21.9039C103.468 22.0644 103.306 22.2248 103.144 22.3976ZM104.764 20.7933L100.551 18.6584C100.751 18.4856 100.95 18.3128 101.162 18.1401L105.35 20.2626C105.151 20.4354 104.964 20.6082 104.764 20.7933ZM73.9006 37.4408V63.4918C74.0127 69.2919 78.4254 71.254 82.514 72.7842L85.7051 73.6851C90.5042 74.3021 95.1661 75.4868 101.498 82.1508C101.511 82.1384 101.511 82.1261 101.523 82.1137C101.536 82.1261 101.536 82.1384 101.548 82.1508C107.881 75.4992 112.543 74.3021 117.342 73.6851L120.533 72.7842C124.621 71.254 129.034 69.2919 129.146 63.4918V37.4408H73.9006ZM94.7548 45.0179H93.3961V68.934V71.6859V71.7106L88.6967 70.2668L83.4115 55.31V56.1738V63.899C84.471 64.3186 85.1317 64.7135 85.1317 64.7135L85.5056 69.3659C85.5056 69.3659 82.1276 67.9344 80.7689 67.5888C79.0861 67.1693 76.7551 67.0705 76.7551 67.0705L76.4185 62.8747C76.4185 62.8747 77.3908 62.8747 78.5127 62.9364V56.1738V44.7711H77.129V40.6493H78.5251H83.4115V40.6617L88.5097 55.1002V45.0179H87.0887V40.8961H88.5097H93.3961H94.7548V45.0179ZM110.735 43.5617V45.0302V47.449H107.432L106.385 45.0302H103.169V52.632H105.674L106.335 50.8056H109.077V52.632V54.5572V54.6806V56.7415V58.4445H106.335L105.724 56.7415H103.169V62.9858V68.6995V70.1063C104.191 70.5506 104.827 70.9455 104.827 70.9455V75.0796C104.827 75.0796 101.573 73.574 100.252 73.1791C98.619 72.6855 96.3005 72.4387 96.3005 72.4387V68.6995C96.3005 68.6995 97.2229 68.7612 98.2949 68.8846V68.6995V65.0714V62.9858V56.7415V52.6197V45.0179H96.5498V40.8961H98.2949H103.181H110.76V43.5617H110.735ZM126.329 63.0598V66.725V67.0829C126.329 67.0829 122.477 67.4161 118.887 68.8476C117.018 69.588 113.178 71.7476 111.633 72.6362V67.922C112.194 67.5642 112.904 67.1569 113.739 66.725V64.405V59.8019V45.0302L112.318 44.3885V40.8961H113.739H116.12H116.245H118.626H120.047V44.3885L118.626 45.0302V59.8019V64.405V64.7999C119.797 64.479 121.193 64.1458 122.477 63.862V57.9879H126.329V63.0598Z" fill="white"/>
<path d="M110.735 40.8972V43.5628V45.0313V47.4501H107.432L106.384 45.0313H103.168V52.6331H105.674L106.335 50.8067H109.077V52.6331V54.5582V54.6817V56.7425V58.4455H106.335L105.724 56.7425H103.168V62.9869V68.7006V70.1074C104.191 70.5517 104.826 70.9466 104.826 70.9466V75.0807C104.826 75.0807 101.573 73.5751 100.252 73.1802C98.6187 72.6866 96.3001 72.4398 96.3001 72.4398V68.7006C96.3001 68.7006 97.2226 68.7623 98.2946 68.8857V68.7006V65.0724V62.9869V56.7425V52.6208V45.019H96.5494V40.8972H98.2946H103.181H110.735ZM93.3958 40.8972H88.5094H87.0884V45.019H88.5094V55.1012L83.4112 40.6627V40.6504H78.5248H77.1287V44.7722H78.5248V56.1749V62.9375C77.4029 62.8758 76.4307 62.8758 76.4307 62.8758L76.7672 67.0716C76.7672 67.0716 79.0982 67.158 80.781 67.5899C82.1397 67.9355 85.5178 69.367 85.5178 69.367L85.1438 64.7146C85.1438 64.7146 84.4832 64.3197 83.4236 63.9001V56.1749V55.311L88.6964 70.2678L93.3958 71.7117V71.687V68.935V45.019H94.7545V40.8972H93.3958ZM122.477 57.9889V63.8631C121.193 64.1469 119.785 64.4801 118.625 64.8009V64.406V59.803V45.0313L120.046 44.3896V40.8972H118.625H116.244H116.12H113.739H112.318V44.3896L113.739 45.0313V59.803V64.406V66.7261C112.904 67.1457 112.206 67.5652 111.632 67.9231V72.6372C113.178 71.761 117.017 69.6014 118.887 68.8487C122.477 67.4172 126.329 67.084 126.329 67.084V66.7261V63.0609V57.9889H122.477Z" fill="#B52025"/>
</svg>
