<svg width="201" height="91" viewBox="0 0 201 91" fill="none" xmlns="http://www.w3.org/2000/svg">
<path d="M0.879883 68.3993V24.0117H31.716V68.3993H0.879883ZM27.2539 63.9279V28.4829H5.3202V63.9279H27.2539Z" fill="#FCD800"/>
<path d="M72.7697 24.3048L62.0655 48.7233L52.4679 25.498H42.4258L60.9709 68.6182L72.5228 42.8514L84.1425 68.6182L102.589 25.498H93.1539L83.4989 48.7233L72.7697 24.3048ZM110.172 25.498V66.8654H119.326V25.498H110.172ZM131.116 25.498V66.8654H155.021L158.014 59.4158H140.269V25.498H131.116ZM165.596 25.499V66.8666H179.282C191.689 66.8666 200.88 57.7431 200.88 46.1856C200.88 33.8316 190.574 25.499 179.815 25.499H165.596ZM174.714 32.9871H178.305C186.3 32.9871 191.665 38.6601 191.665 46.1829C191.665 54.8297 184.897 59.3812 178.796 59.3812H174.714V32.9871Z" fill="black"/>
</svg>
