<svg width="201" height="91" viewBox="0 0 201 91" fill="none" xmlns="http://www.w3.org/2000/svg">
<path d="M55.8799 0.875H145.874V90.8563H55.8799V0.875Z" fill="white"/>
<path d="M55.8799 0.875H100.88V16.4437H55.8799V0.875Z" fill="#E6E6E6"/>
<path d="M100.88 0.875H145.88V16.4437H100.88V0.875Z" fill="#727272"/>
<path d="M55.8867 71.3496H145.88V90.8746H55.8867V71.3496Z" fill="#E60019"/>
<path d="M64.7488 50.582L66.4176 61.732H66.4613L68.2363 50.582H71.1488L72.9238 61.732H72.9676L74.6301 50.582H77.5426L74.7988 65.6633H71.4051L69.7176 54.7195H69.6676L67.9801 65.6633H64.5801L61.8301 50.582H64.7488Z" fill="#3F3A3A"/>
<path d="M82.1922 54.9621C82.274 54.0943 82.5089 53.2479 82.8859 52.4621C83.2417 51.7946 83.7819 51.2436 84.4422 50.8746C85.285 50.4485 86.2239 50.2483 87.1672 50.2933C88.1105 50.2483 89.0494 50.4485 89.8922 50.8746C90.5573 51.2486 91.0983 51.8091 91.4484 52.4871C91.8311 53.2708 92.0663 54.1182 92.1422 54.9871C92.2505 56.0252 92.3027 57.0684 92.2984 58.1121C92.3007 59.1727 92.2443 60.2327 92.1297 61.2871C92.0547 62.1561 91.8195 63.0037 91.4359 63.7871C91.0935 64.4626 90.5497 65.0152 89.8797 65.3683C89.0307 65.7738 88.0945 65.9627 87.1547 65.9183C86.2149 65.9627 85.2787 65.7738 84.4297 65.3683C83.7612 65.0132 83.2179 64.4612 82.8734 63.7871C82.4957 63.0015 82.2607 62.155 82.1797 61.2871C81.9714 59.1839 81.9714 57.0653 82.1797 54.9621H82.1922ZM85.1484 60.7121C85.1767 61.2993 85.2775 61.8808 85.4484 62.4433C85.5499 62.8239 85.7685 63.1628 86.0734 63.4121C86.3923 63.6317 86.7741 63.7414 87.1609 63.7246C87.548 63.7432 87.9303 63.6334 88.2484 63.4121C88.5533 63.1628 88.772 62.8239 88.8734 62.4433C89.042 61.8805 89.1407 61.299 89.1672 60.7121C89.2172 59.9933 89.2359 59.1371 89.2359 58.1183C89.2359 57.0996 89.2359 56.2433 89.1672 55.5433C89.1395 54.9565 89.0409 54.3752 88.8734 53.8121C88.7706 53.4269 88.5525 53.0824 88.2484 52.8246C87.9276 52.6102 87.5463 52.505 87.1609 52.5246C86.7758 52.5068 86.395 52.6118 86.0734 52.8246C85.7691 53.0821 85.5509 53.4268 85.4484 53.8121C85.2786 54.3749 85.1778 54.9562 85.1484 55.5433C85.1047 56.2496 85.0797 57.1058 85.0797 58.1183C85.0797 59.1308 85.1047 59.9933 85.1484 60.7121Z" fill="#3F3A3A"/>
<path d="M104.349 50.5821C105.42 50.5169 106.476 50.8584 107.305 51.5383C107.685 51.921 107.977 52.3809 108.163 52.8868C108.348 53.3926 108.422 53.9324 108.38 54.4696C108.417 55.3457 108.2 56.2136 107.755 56.9696C107.545 57.2952 107.27 57.5742 106.948 57.7892C106.625 58.0042 106.262 58.1507 105.88 58.2196V58.2571C106.492 58.3177 107.065 58.5793 107.512 59.0008C107.923 59.5268 108.155 60.1708 108.174 60.8383C108.174 61.1196 108.218 61.4258 108.237 61.7571C108.255 62.0883 108.237 62.4571 108.274 62.8633C108.312 63.6696 108.349 64.2821 108.405 64.7008C108.424 64.8781 108.484 65.0487 108.579 65.1993C108.675 65.35 108.803 65.4767 108.955 65.5696V65.6946H105.662C105.501 65.4802 105.398 65.2286 105.362 64.9633C105.324 64.6883 105.293 64.4071 105.28 64.1133L105.193 61.1883C105.192 60.6892 105.037 60.2026 104.749 59.7946C104.577 59.6078 104.364 59.4641 104.126 59.3751C103.888 59.286 103.633 59.2542 103.38 59.2821H101.774V65.6633H98.7305V50.5821H104.349ZM103.037 57.1696C103.645 57.211 104.247 57.0287 104.73 56.6571C104.954 56.4274 105.126 56.1522 105.234 55.8502C105.342 55.5483 105.383 55.2266 105.355 54.9071C105.355 53.5196 104.643 52.8196 103.237 52.8196H101.774V57.1946L103.037 57.1696Z" fill="#3F3A3A"/>
<path d="M115.686 50.582H118.729V63.1695H124.117V65.6695H115.686V50.582Z" fill="#3F3A3A"/>
<path d="M134.942 50.5817C135.822 50.5416 136.698 50.7198 137.492 51.1005C138.129 51.4353 138.654 51.9477 139.005 52.5755C139.384 53.2963 139.629 54.0797 139.73 54.888C139.867 55.8904 139.931 56.9013 139.923 57.913C139.937 59.0679 139.854 60.222 139.673 61.363C139.557 62.2158 139.275 63.0375 138.842 63.7817C138.468 64.4041 137.915 64.8987 137.255 65.2005C136.465 65.5353 135.612 65.6931 134.755 65.663H129.961V50.5817H134.942ZM134.317 63.4192C134.764 63.4387 135.209 63.3463 135.611 63.1505C135.958 62.9357 136.227 62.6161 136.38 62.238C136.593 61.7071 136.721 61.1461 136.761 60.5755C136.817 59.8817 136.855 59.0317 136.855 57.9942C136.855 57.138 136.823 56.388 136.767 55.738C136.734 55.1836 136.616 54.6377 136.417 54.1192C136.267 53.7193 135.993 53.3778 135.636 53.1442C135.214 52.9105 134.736 52.798 134.255 52.8192H132.967V63.4442L134.317 63.4192Z" fill="#3F3A3A"/>
<path d="M76.0242 73.9492V84.2617C76.0242 87.3117 74.6367 88.5555 71.7055 88.5555C68.6555 88.5555 67.918 86.6055 67.918 84.3617V83.7367H70.5617V84.1805C70.5617 85.7055 70.8055 86.4305 71.8492 86.4305C72.893 86.4305 73.1305 85.7055 73.1305 84.1805V73.9492H76.0242Z" fill="white"/>
<path d="M84.3367 73.9492H87.9055L91.6992 88.2742H88.6867L88.0242 85.2492H84.2117L83.5492 88.2805H80.543L84.3367 73.9492ZM84.718 82.8805H87.5242L86.143 76.4367H86.0992L84.718 82.8805Z" fill="white"/>
<path d="M96.7432 73.9492H101.799C104.724 73.9492 105.731 76.0992 105.731 78.243C105.731 81.2117 103.906 82.5555 101.174 82.5555H99.6307V88.2742H96.7432V73.9492ZM99.6307 80.4305H100.881C102.024 80.4305 102.812 79.7492 102.812 78.2805C102.812 76.8117 102.249 76.0742 100.806 76.0742H99.6307V80.4305Z" fill="white"/>
<path d="M112.381 73.9492H115.949L119.743 88.2742H116.731L116.068 85.2492H112.256L111.593 88.2805H108.587L112.381 73.9492ZM112.756 82.8805H115.568L114.181 76.4367H114.143L112.756 82.8805Z" fill="white"/>
<path d="M127.712 73.9492L131.206 83.7617H131.243V73.9492H133.893V88.2742H130.6L127.068 78.2742H127.031V88.2742H124.381V73.9492H127.712Z" fill="white"/>
<path d="M84.8797 23.051C84.0576 22.8183 83.177 22.9187 82.4284 23.3304C81.6798 23.7422 81.1234 24.4321 80.8797 25.251L78.5109 33.5197L72.6609 24.4135C72.3252 23.8895 71.8458 23.4732 71.2799 23.2142C70.7141 22.9552 70.0857 22.8644 69.4697 22.9527C68.8537 23.041 68.2761 23.3046 67.8058 23.7121C67.3355 24.1196 66.9923 24.6538 66.8172 25.251L62.4922 40.4135C62.2569 41.2398 62.359 42.1256 62.7762 42.8767C63.1933 43.6278 63.8914 44.1827 64.7172 44.4197C65.0076 44.5036 65.3086 44.5457 65.6109 44.5447C66.3163 44.5452 67.0026 44.3161 67.5664 43.8922C68.1301 43.4683 68.5406 42.8725 68.7359 42.1947L71.0859 33.951L76.9422 43.0572C77.2827 43.5714 77.7628 43.9779 78.3261 44.229C78.8895 44.4801 79.5127 44.5653 80.1228 44.4748C80.7329 44.3843 81.3045 44.1217 81.7706 43.7179C82.2368 43.314 82.5781 42.7857 82.7547 42.1947L87.1297 27.0572C87.2457 26.6464 87.2795 26.2168 87.2292 25.7929C87.1789 25.369 87.0453 24.9592 86.8363 24.587C86.6273 24.2148 86.3469 23.8876 86.0111 23.624C85.6753 23.3604 85.2909 23.1657 84.8797 23.051Z" fill="#3F3A3A"/>
<path d="M111.361 23.0498C110.538 22.8119 109.654 22.9098 108.903 23.3221C108.152 23.7345 107.595 24.4277 107.354 25.2498L105.817 30.6561H98.5107L99.5357 27.0561C99.6526 26.6457 99.6876 26.2163 99.6386 25.7924C99.5896 25.3685 99.4576 24.9584 99.2501 24.5855C99.0427 24.2126 98.7638 23.8843 98.4294 23.6192C98.095 23.3541 97.7117 23.1574 97.3013 23.0405C96.8909 22.9235 96.4615 22.8885 96.0376 22.9375C95.6137 22.9865 95.2036 23.1185 94.8307 23.326C94.0776 23.745 93.5219 24.446 93.2857 25.2748L89.0044 40.4123C88.7694 41.2395 88.8723 42.1261 89.2907 42.8773C89.7091 43.6286 90.4087 44.1829 91.2357 44.4186C91.5261 44.5025 91.8271 44.5446 92.1294 44.5436C92.835 44.5451 93.5218 44.3164 94.0858 43.8923C94.6497 43.4683 95.06 42.8719 95.2544 42.1936L96.7919 36.8123H104.054L103.029 40.4123C102.794 41.2386 102.896 42.1245 103.313 42.8756C103.731 43.6267 104.429 44.1816 105.254 44.4186C105.543 44.5027 105.842 44.5448 106.142 44.5436C106.847 44.544 107.534 44.315 108.097 43.8911C108.661 43.4672 109.072 42.8713 109.267 42.1936L113.592 27.0561C113.827 26.2289 113.724 25.3423 113.306 24.5911C112.887 23.8399 112.188 23.2855 111.361 23.0498Z" fill="#3F3A3A"/>
<path d="M138.736 24.2123C138.217 23.527 137.446 23.0762 136.594 22.959C135.742 22.8418 134.878 23.0678 134.193 23.5873L125.036 30.5061L126.024 27.0561C126.26 26.2273 126.157 25.3386 125.738 24.5855C125.319 23.8324 124.618 23.2767 123.79 23.0405C122.961 22.8043 122.072 22.907 121.319 23.326C120.566 23.745 120.01 24.446 119.774 25.2748L115.461 40.4123C115.226 41.2395 115.329 42.1261 115.748 42.8773C116.166 43.6286 116.866 44.1829 117.693 44.4186C117.981 44.5027 118.28 44.5448 118.58 44.5436C119.286 44.544 119.972 44.315 120.536 43.8911C121.099 43.4672 121.51 42.8713 121.705 42.1936L123.58 35.6873C123.58 35.7248 123.649 35.7498 123.674 35.7873C123.699 35.8248 123.749 35.8873 123.793 35.9373L130.818 43.4998C131.103 43.8297 131.451 44.0987 131.842 44.2909C132.233 44.4831 132.659 44.5944 133.095 44.6184C133.53 44.6423 133.965 44.5782 134.375 44.4301C134.785 44.2819 135.161 44.0527 135.48 43.7561C135.8 43.4594 136.056 43.1015 136.234 42.7036C136.412 42.3057 136.508 41.876 136.516 41.4403C136.524 41.0045 136.444 40.5716 136.281 40.1673C136.118 39.763 135.876 39.3957 135.568 39.0873L130.986 34.1498L138.124 28.7498C138.804 28.2274 139.25 27.4572 139.365 26.6073C139.48 25.7573 139.254 24.8964 138.736 24.2123Z" fill="#3F3A3A"/>
</svg>
