<svg width="201" height="91" viewBox="0 0 201 91" fill="none" xmlns="http://www.w3.org/2000/svg">
<path d="M156.685 57.9368L162.056 44.0833H140.906L150.152 23.2035H136.167C137.385 18.6533 139.133 15.5521 139.133 15.5521C139.133 15.5521 129.163 14.5543 126.424 2.23262C126.424 2.23262 120.21 8.60462 114.062 8.60462C106.137 8.60462 100.919 1.81445 100.919 1.81445C100.919 1.81445 95.7005 8.60462 87.7757 8.60462C81.6278 8.60462 75.4136 2.23262 75.4136 2.23262C72.6744 14.5543 62.7085 15.5521 62.7085 15.5521C62.7085 15.5521 64.4521 18.6491 65.6711 23.1993H45.186L50.9869 28.942C51.3795 29.3395 51.7429 29.7163 51.929 30.1096C52.1066 30.4947 52.2223 30.9625 51.8587 31.7657L40.2402 57.9368H56.3498L51.7389 68.4409H64.5555C67.9932 74.9786 74.2899 80.0505 83.1152 82.2904C89.7425 83.9631 94.3162 84.3937 97.6836 85.611C98.1174 86.0126 100.919 89.0599 100.919 89.0599C100.919 89.0599 103.72 86.0126 104.154 85.611C107.517 84.3937 112.095 83.9631 118.722 82.2904C127.548 80.0505 133.844 74.9786 137.282 68.4409H147.946L144.484 62.3463L151.9 57.9368H156.685Z" fill="white"/>
<path d="M100.92 90.3672L100.271 89.6596C99.2579 88.5598 97.7125 86.892 97.2041 86.3805C95.457 85.772 93.367 85.3636 90.7443 84.8521C88.4807 84.4114 85.9145 83.91 82.9005 83.1499C74.4514 81.0069 67.7737 76.1064 64.0253 69.3258H50.3833L54.9952 58.8213H38.8799L51.0531 31.4056C51.2993 30.8578 51.2065 30.6576 51.1258 30.4817C51.0007 30.2169 50.6617 29.8692 50.3591 29.5639L43.0318 22.3143H64.5014C63.3636 18.5459 61.9554 16.0148 61.9392 15.9865L61.2816 14.8119L62.6211 14.6704C63.0004 14.63 71.9942 13.5504 74.5523 2.04112L74.9074 0.446032L76.0492 1.61455C76.1057 1.6752 82.0814 7.71994 87.7746 7.71994C95.1544 7.71994 100.17 1.33758 100.222 1.27289L100.92 0.367188L101.618 1.27289C101.671 1.33758 106.682 7.71994 114.062 7.71994C119.759 7.71994 125.735 1.6752 125.791 1.61455L126.933 0.446032L127.288 2.04112C129.846 13.5504 138.844 14.63 139.223 14.6704L140.563 14.8119L139.905 15.9865C139.889 16.0148 138.477 18.5479 137.339 22.3183H151.514L142.266 43.198H163.348L157.292 58.8213H152.143L145.683 62.6645L149.468 69.3258H137.811C134.063 76.1064 127.385 81.0069 118.94 83.1499C115.922 83.91 113.356 84.4114 111.088 84.8521C108.465 85.3636 106.375 85.772 104.632 86.3805C104.128 86.892 102.583 88.5598 101.57 89.6596L100.92 90.3672ZM53.0948 67.5548H65.0865L65.3366 68.0279C68.8429 74.6994 75.0647 79.333 83.3322 81.4315C86.2978 82.1795 88.8398 82.6748 91.0832 83.1135C93.8713 83.6573 96.0703 84.0859 97.9829 84.7773L98.2855 84.9613C98.6083 85.2625 100.049 86.8111 100.92 87.7532C101.788 86.8111 103.228 85.2625 103.551 84.9613L103.854 84.7773C105.762 84.0859 107.965 83.6573 110.753 83.1135C112.997 82.6768 115.539 82.1815 118.504 81.4315C126.772 79.333 132.994 74.6994 136.5 68.0279L136.75 67.5548H146.426L143.287 62.0297L151.659 57.0503H156.081L160.766 44.9689H139.546L148.794 24.0893H135.011L135.31 22.9733C135.936 20.6391 136.775 18.3674 137.815 16.1866C135.08 15.477 128.527 12.8731 125.937 3.90306C123.814 5.77916 118.984 9.49091 114.062 9.49091C107.408 9.49091 102.643 5.05743 100.92 3.17527C99.1974 5.05742 94.4281 9.49091 87.7746 9.49091C82.8561 9.49091 78.0263 5.77916 75.904 3.90306C73.3136 12.8731 66.765 15.477 64.0293 16.1866C65.0664 18.3665 65.9024 20.6369 66.5269 22.9693L66.8255 24.0852H47.341L51.6099 28.3105C52.0175 28.727 52.4734 29.1879 52.7276 29.7317C52.9697 30.2553 53.1795 30.9953 52.6671 32.1314L41.5994 57.0503H57.7066L53.0948 67.5548Z" fill="white"/>
<path d="M135.174 34.6474C135.068 33.5963 135.016 32.5406 135.017 31.4842C135.017 22.8474 139.132 15.548 139.132 15.548C139.132 15.548 129.166 14.5543 126.427 2.23262C126.427 2.23262 120.209 8.60462 114.061 8.60462C106.136 8.60462 100.918 1.81445 100.918 1.81445C100.918 1.81445 95.7036 8.60463 87.7748 8.60463C81.6309 8.60463 75.4127 2.23262 75.4127 2.23262C72.6735 14.5543 62.7078 15.548 62.7078 15.548C62.7078 15.548 66.8229 22.8474 66.8229 31.4842C66.824 32.5406 66.7715 33.5963 66.6658 34.6474C65.794 43.28 61.5342 46.7414 61.5342 55.8501C61.5342 68.1552 69.1737 78.7545 83.1183 82.2904C89.7415 83.9631 94.3196 84.3937 97.6827 85.6109C98.1164 86.0126 100.918 89.0599 100.918 89.0599C100.918 89.0599 103.723 86.0126 104.157 85.6109C107.52 84.3937 112.094 83.9631 118.721 82.2904C132.666 78.7545 140.305 68.1552 140.305 55.8501C140.305 46.7414 136.042 43.28 135.174 34.6474Z" fill="black"/>
<path d="M134.781 17.684C134.781 17.684 128.215 16.3009 125.03 7.63106C125.03 7.63106 120.229 11.875 113.969 11.875C106.235 11.875 101.057 6.45951 100.921 6.31445C100.785 6.45951 95.6078 11.875 87.8694 11.875C81.6093 11.875 76.8088 7.63106 76.8088 7.63106C73.6273 16.3009 67.0534 17.684 67.0534 17.684C67.0534 17.684 70.0201 23.7287 70.0201 31.5831C70.0201 43.2339 64.7646 46.6043 64.7646 55.7793C64.7646 68.5978 74.7343 76.7585 83.9808 79.1142C91.3026 80.9774 96.1571 81.259 99.3719 82.8116C99.3719 82.8116 100.479 83.8343 100.921 84.3268C101.363 83.8343 102.463 82.8116 102.463 82.8116C105.681 81.259 110.535 80.9774 117.857 79.1142C127.104 76.7585 137.074 68.5978 137.074 55.7793C137.074 46.6043 131.822 43.2339 131.822 31.5831C131.822 23.7287 134.781 17.684 134.781 17.684Z" fill="url(#paint0_linear_2048_38054)"/>
<path d="M133.318 51.1164C132.169 46.3882 128.793 41.1424 128.793 31.483C128.8 27.4074 129.458 23.3592 130.743 19.4925C128.566 18.3001 126.058 15.9111 123.885 12.2759C121.55 13.5842 118.088 15.0209 114.196 15.0209C108.296 15.0209 103.557 12.4125 100.921 10.4707C98.2848 12.4125 93.5455 15.0209 87.6455 15.0209C83.7534 15.0209 80.291 13.5842 77.9565 12.2759C75.7792 15.9111 73.2713 18.3001 71.098 19.4925C72.3834 23.3592 73.0418 27.4074 73.0481 31.483C73.0481 41.1424 69.6724 46.3882 68.524 51.1164C67.1191 56.9047 68.2347 61.753 70.5815 65.8312C72.8706 69.8018 78.9234 74.4473 84.5591 76.0744C90.3517 77.7431 97.5615 78.3268 99.7141 79.5607C100.202 79.9167 100.231 79.9581 100.921 80.5916C101.606 79.9581 101.64 79.9167 102.127 79.5607C104.28 78.3268 111.49 77.7431 117.282 76.0744C122.914 74.4473 128.971 69.8018 131.256 65.8312C133.607 61.753 134.722 56.9047 133.318 51.1164Z" fill="black"/>
<path d="M133.818 50.9936C133.479 49.5984 132.946 48.1409 132.376 46.6008C131.012 42.8827 129.31 38.2538 129.31 31.4844C129.311 27.4648 129.96 23.4718 131.231 19.6595L131.367 19.2496L130.987 19.0426C128.628 17.7425 126.261 15.2459 124.327 12.0081L124.071 11.5817L123.633 11.826C121.451 13.0474 118.043 14.5048 114.196 14.5048C108.18 14.5048 103.495 11.7141 101.235 10.0539L100.921 9.82617L100.607 10.0539C98.3467 11.7141 93.6572 14.5048 87.6455 14.5048C83.7947 14.5048 80.3862 13.0474 78.2046 11.826L77.7666 11.5817L77.5103 12.0081C75.5769 15.2459 73.2134 17.7425 70.8543 19.0426L70.474 19.2496L70.6104 19.6595C71.88 23.4722 72.5288 27.4649 72.5318 31.4843C72.5318 38.2538 70.8296 42.8827 69.4618 46.6008C68.8959 48.1409 68.3628 49.5984 68.0241 50.9936C66.7309 56.3264 67.4415 61.4067 70.1353 66.0894C72.5979 70.3663 78.8739 74.9704 84.4186 76.5686C87.1166 77.347 90.1123 77.8893 92.7564 78.3697C95.7478 78.912 98.3384 79.384 99.4374 79.9968C99.7441 80.2196 100.034 80.4645 100.305 80.7296L100.921 81.3175L101.536 80.7296C101.807 80.4636 102.097 80.2186 102.404 79.9968C103.503 79.384 106.09 78.912 109.085 78.3697C111.729 77.8893 114.725 77.347 117.423 76.5686C122.968 74.9704 129.24 70.3663 131.702 66.0894C134.4 61.4067 135.111 56.3264 133.818 50.9936ZM131.256 65.8326C128.971 69.8033 122.914 74.4487 117.278 76.0717C111.49 77.7445 104.28 78.3282 102.123 79.5621C101.64 79.914 101.607 79.9595 100.921 80.593C100.231 79.9595 100.198 79.914 99.7143 79.5621C97.5577 78.3282 90.3519 77.7445 84.5593 76.0717C78.9236 74.4487 72.8705 69.8033 70.5814 65.8326C68.2347 61.7545 67.1193 56.9019 68.5239 51.1179C69.6685 46.3896 73.0483 41.1438 73.0483 31.4844C73.0403 27.4089 72.3819 23.361 71.0979 19.4939C73.2712 18.3015 75.7794 15.9125 77.9527 12.2731C80.2911 13.5856 83.7536 15.0223 87.6455 15.0223C93.5457 15.0223 98.2847 12.4097 100.921 10.4721C103.557 12.4097 108.296 15.0223 114.196 15.0223C118.088 15.0223 121.55 13.5856 123.885 12.2731C126.058 15.9125 128.566 18.3015 130.744 19.4939C129.458 23.3605 128.799 27.4087 128.793 31.4844C128.793 41.1438 132.169 46.3896 133.318 51.1179C134.722 56.9019 133.607 61.7544 131.256 65.8326Z" fill="white"/>
<path d="M138.437 71.2487V70.959H140.51V71.2487H139.647V73.5549H139.3V71.2487H138.437Z" fill="black"/>
<path d="M141.533 70.957L142.351 73.139L143.173 70.957H143.644V73.5572H143.317V71.3959H143.309L142.499 73.5572H142.206L141.396 71.3959H141.388V73.5572H141.062V70.957H141.533Z" fill="black"/>
<path d="M156.685 57.9367L162.056 44.0832H140.906L150.152 23.2034L45.186 23.1992L50.9869 28.9419C51.3795 29.3394 51.7429 29.7161 51.929 30.1095C52.1066 30.4945 52.2223 30.9624 51.8587 31.7656L40.2402 57.9367H56.3498L51.7389 68.4408H87.2469L89.6103 63.0542H90.2836L89.8996 68.4408H103.935L105.782 66.1347C107.112 68.1013 109.79 68.5567 111.983 68.5567C113.239 68.5692 114.491 68.4161 115.706 68.1013L115.557 68.4408H147.946L144.484 62.3462L151.9 57.9367H156.685Z" fill="black"/>
<path d="M135.892 47.3486L145.143 26.4688H132.021C133.38 27.7191 134.698 29.7686 133.707 32.0293L123.762 54.6688H154.456L157.295 47.3487L135.892 47.3486Z" fill="url(#paint1_linear_2048_38054)"/>
<path d="M92.7108 26.465C93.839 27.5663 95.3556 29.62 94.2894 32.0543L84.3691 54.6731L93.0497 54.6691L97.7352 44.0076H110.713L106.023 54.6691H114.849L127.397 26.4612V26.4609H118.53L113.684 37.2631L100.702 37.2755L105.453 26.4609L92.7108 26.465Z" fill="url(#paint2_linear_2048_38054)"/>
<path d="M79.4359 26.465L70.6802 46.0614L66.1359 26.4609H53.1083C53.8489 27.084 54.4513 27.8554 54.8766 28.7257C55.5292 30.1209 55.5131 31.599 54.8231 33.1145L45.2539 54.6691H53.9017L61.7682 37.0021L65.8959 54.6691H75.4898L88.0383 26.469L79.4359 26.465Z" fill="url(#paint3_linear_2048_38054)"/>
<path d="M136.693 46.8644L145.936 25.9805H130.702C130.702 25.9805 134.689 28.4522 133.239 31.748L122.955 55.1535H154.463L157.756 46.8644L136.693 46.8644ZM154.075 54.669H123.761L133.706 32.0295C134.698 29.7688 133.379 27.7153 132.016 26.4609H145.138L135.891 47.3488H156.918L154.075 54.669Z" fill="url(#paint4_linear_2048_38054)"/>
<path d="M79.0604 25.9848L70.797 44.4796L66.5039 25.9805H51.6959C51.6959 25.9805 56.3526 28.4441 54.3609 32.8286L44.4492 55.1534H54.2782L61.658 38.5878L65.5249 55.1534H75.8668L88.844 25.9805L79.0604 25.9848ZM75.4906 54.669H65.8966L61.769 37.002L53.9025 54.669H45.2547L54.8239 33.1144C55.5139 31.5989 55.53 30.1208 54.8774 28.7256C54.4521 27.8554 53.8497 27.0839 53.1091 26.4609H66.1367L70.681 46.0613L79.4367 26.4609H88.0391L75.4906 54.669Z" fill="url(#paint5_linear_2048_38054)"/>
<path d="M118.146 25.9805L113.296 36.7951L101.504 36.7827L106.255 25.9805H91.48C91.48 25.9805 95.2733 28.4772 93.8268 31.7771L83.5469 55.1535H93.4303L98.1158 44.4837H109.908L105.222 55.1534H115.233L128.186 25.9848L118.146 25.9805ZM114.849 54.669L106.024 54.6731L110.713 44.0076H97.7355L93.05 54.669H84.3735L94.2897 32.0543C95.356 29.62 93.8394 27.5622 92.7111 26.4609L105.453 26.4649L100.702 37.2755H113.684L118.53 26.4649H127.401L114.849 54.669Z" fill="url(#paint6_linear_2048_38054)"/>
<path d="M62.3731 65.6302L60.7987 62.1607L59.2742 65.6302H56.0391L59.4148 57.9375H62.8645L64.3479 61.2912L65.8189 57.9375H69.0622L65.6865 65.6302H62.3731Z" fill="white"/>
<path d="M68.3174 65.6302L71.6928 57.9375H80.2084L79.2166 60.1898H74.0189L73.763 60.7612H78.8076L77.9154 62.8106H72.8745L72.61 63.3945H77.878L76.8988 65.6302H68.3174Z" fill="white"/>
<path d="M87.7799 60.2396L85.4165 65.6303H81.9541L84.3176 60.2396H81.2021L82.2103 57.9375H91.9197L90.9075 60.2396H87.7799Z" fill="white"/>
<path d="M102.591 65.6302H99.0993C99.0993 65.6302 99.3472 61.995 99.4382 61.7383C99.3182 61.995 96.3725 65.6302 96.3725 65.6302H92.9141L93.4636 57.9375H97.1202C97.1202 57.9375 96.6574 61.8377 96.5583 62.0737C96.6574 61.8377 99.6611 57.9375 99.6611 57.9375H103.004C103.004 57.9375 102.611 61.8377 102.508 62.0737C102.611 61.8377 105.545 57.9375 105.545 57.9375H108.751L102.591 65.6302Z" fill="white"/>
<path d="M119.586 59.4268C119.784 60.023 119.661 60.7891 119.26 61.7082C118.878 62.6055 118.299 63.4051 117.566 64.0475C116.281 65.1778 114.389 65.745 111.984 65.745C109.6 65.745 108.207 65.1944 107.877 64.0475C107.703 63.443 107.848 62.648 108.257 61.7165C108.617 60.8848 109.164 60.1479 109.856 59.5635C111.211 58.4166 113.108 57.75 115.492 57.75C117.859 57.75 119.231 58.3173 119.586 59.4268ZM115.281 62.619C115.446 62.4617 115.686 62.0022 115.797 61.7579C115.909 61.5012 116.049 61.0913 116.004 60.8843C115.921 60.5323 115.632 60.1514 114.43 60.1514C113.314 60.1514 112.641 60.524 112.223 60.9256C112.004 61.1737 111.824 61.4545 111.69 61.7579C111.558 62.0601 111.43 62.5321 111.48 62.706C111.571 63.0786 111.914 63.3643 113.017 63.3643C114.231 63.3643 114.892 63.0124 115.281 62.619Z" fill="white"/>
<path d="M130.962 61.9246C130.53 62.2703 130.026 62.515 129.487 62.6409L130.491 65.6261H126.765L126.079 63.1875H124.29L123.22 65.6261H119.856L123.232 57.9375H129.967C131.219 57.9375 131.946 58.1901 132.252 58.6538C132.512 59.043 132.454 59.5936 132.115 60.3679C131.854 60.9677 131.459 61.5 130.962 61.9246ZM128.785 60.4051C128.781 60.1484 128.537 60.1195 128.256 60.1195H125.645L125.149 61.2456H127.76C128.103 61.2456 128.363 61.1877 128.525 60.9931C128.597 60.9028 128.658 60.8041 128.706 60.6991C128.754 60.608 128.78 60.5077 128.785 60.4051Z" fill="white"/>
<path d="M138.665 65.6302L137.405 63.0053L136.93 63.2992L135.909 65.6302H132.525L135.901 57.9375H139.285L138.268 60.252L142.206 57.9375H146.4L140.685 61.3367L143.123 65.6302H138.665Z" fill="white"/>
<defs>
<linearGradient id="paint0_linear_2048_38054" x1="64.7647" y1="45.3206" x2="137.074" y2="45.3206" gradientUnits="userSpaceOnUse">
<stop stop-color="#939BA1"/>
<stop offset="0.48466" stop-color="white"/>
<stop offset="0.57076" stop-color="#FAFAFA"/>
<stop offset="0.67659" stop-color="#EBECED"/>
<stop offset="0.79276" stop-color="#D2D5D8"/>
<stop offset="0.9155" stop-color="#AFB5BA"/>
<stop offset="1" stop-color="#939BA1"/>
</linearGradient>
<linearGradient id="paint1_linear_2048_38054" x1="133.935" y1="26.4688" x2="133.935" y2="54.6689" gradientUnits="userSpaceOnUse">
<stop stop-color="white"/>
<stop offset="0.19751" stop-color="#FBFBFC"/>
<stop offset="0.389" stop-color="#EFF1F1"/>
<stop offset="0.57813" stop-color="#DCDFE0"/>
<stop offset="0.76579" stop-color="#C1C5C9"/>
<stop offset="0.95073" stop-color="#9EA5AA"/>
<stop offset="1" stop-color="#939BA1"/>
</linearGradient>
<linearGradient id="paint2_linear_2048_38054" x1="102.093" y1="26.4609" x2="102.093" y2="54.6731" gradientUnits="userSpaceOnUse">
<stop stop-color="white"/>
<stop offset="0.19751" stop-color="#FBFBFC"/>
<stop offset="0.389" stop-color="#EFF1F1"/>
<stop offset="0.57813" stop-color="#DCDFE0"/>
<stop offset="0.76579" stop-color="#C1C5C9"/>
<stop offset="0.95073" stop-color="#9EA5AA"/>
<stop offset="1" stop-color="#939BA1"/>
</linearGradient>
<linearGradient id="paint3_linear_2048_38054" x1="62.8561" y1="26.4608" x2="62.8561" y2="54.6689" gradientUnits="userSpaceOnUse">
<stop stop-color="white"/>
<stop offset="0.19751" stop-color="#FBFBFC"/>
<stop offset="0.389" stop-color="#EFF1F1"/>
<stop offset="0.57813" stop-color="#DCDFE0"/>
<stop offset="0.76579" stop-color="#C1C5C9"/>
<stop offset="0.95073" stop-color="#9EA5AA"/>
<stop offset="1" stop-color="#939BA1"/>
</linearGradient>
<linearGradient id="paint4_linear_2048_38054" x1="141.469" y1="55.1536" x2="141.469" y2="25.9807" gradientUnits="userSpaceOnUse">
<stop stop-color="#FCFCFC"/>
<stop offset="0.1517" stop-color="#FCFCFC"/>
<stop offset="0.2657" stop-color="#F7F7F7"/>
<stop offset="0.40637" stop-color="#E8E9EA"/>
<stop offset="0.56109" stop-color="#CFD2D5"/>
<stop offset="0.72475" stop-color="#ACB2B7"/>
<stop offset="0.82418" stop-color="#939BA1"/>
<stop offset="1" stop-color="#939BA1"/>
</linearGradient>
<linearGradient id="paint5_linear_2048_38054" x1="70.5651" y1="55.1537" x2="70.5651" y2="25.9808" gradientUnits="userSpaceOnUse">
<stop stop-color="#FCFCFC"/>
<stop offset="0.1517" stop-color="#FCFCFC"/>
<stop offset="0.2657" stop-color="#F7F7F7"/>
<stop offset="0.40637" stop-color="#E8E9EA"/>
<stop offset="0.56109" stop-color="#CFD2D5"/>
<stop offset="0.72475" stop-color="#ACB2B7"/>
<stop offset="0.82418" stop-color="#939BA1"/>
<stop offset="1" stop-color="#939BA1"/>
</linearGradient>
<linearGradient id="paint6_linear_2048_38054" x1="109.785" y1="55.1536" x2="109.785" y2="25.9807" gradientUnits="userSpaceOnUse">
<stop stop-color="#FCFCFC"/>
<stop offset="0.1517" stop-color="#FCFCFC"/>
<stop offset="0.2657" stop-color="#F7F7F7"/>
<stop offset="0.40637" stop-color="#E8E9EA"/>
<stop offset="0.56109" stop-color="#CFD2D5"/>
<stop offset="0.72475" stop-color="#ACB2B7"/>
<stop offset="0.82418" stop-color="#939BA1"/>
<stop offset="1" stop-color="#939BA1"/>
</linearGradient>
</defs>
</svg>
