<svg width="201" height="91" viewBox="0 0 201 91" fill="none" xmlns="http://www.w3.org/2000/svg">
<path d="M65.2314 0.863281V51.0564C65.4026 58.286 68.7963 65.8007 75.0703 72.8306C81.3158 79.832 90.0425 85.9778 100.323 90.5978L100.88 90.8545L101.436 90.5978C111.717 85.9778 120.457 79.832 126.689 72.8306C132.991 65.7722 136.371 58.2147 136.528 50.9566V0.863281H65.2314Z" fill="#070606"/>
<path d="M125.677 71.9085C131.737 65.1067 135.031 57.8487 135.159 50.9186V2.22266H66.6006V51.0469C66.7717 57.9057 70.0513 65.1352 76.083 71.9085C82.2002 78.7672 90.77 84.7847 100.88 89.3335C110.99 84.799 119.574 78.7672 125.677 71.9085Z" fill="#041E41"/>
<path d="M80.8164 62.6139C83.3546 60.2183 86.3633 58.222 89.2294 58.1507C87.6609 55.9405 88.1314 54.1866 88.1314 54.1866C88.1314 54.1866 88.8301 55.2561 90.2703 56.5252C92.0099 58.0652 94.8333 59.9332 98.7973 60.5748C100.366 60.8315 102.105 60.9028 104.016 60.6889C104.045 60.6889 104.073 60.6889 104.102 60.6746C106.811 60.3752 109.563 60.6889 112.087 61.7298C112.101 61.7298 112.115 61.7441 112.13 61.7441C112.144 61.7584 112.172 61.7584 112.201 61.7726C112.272 61.8011 112.344 61.8297 112.401 61.8582C112.486 61.901 112.557 61.9295 112.643 61.958C112.714 61.9865 112.786 62.015 112.843 62.0578C112.914 62.1006 113 62.1291 113.071 62.1719C113.142 62.2004 113.199 62.2432 113.27 62.2717C113.342 62.3145 113.427 62.343 113.499 62.3858C113.57 62.4143 113.627 62.4571 113.698 62.4856C113.77 62.5284 113.841 62.5711 113.912 62.6139C113.969 62.6424 114.04 62.6852 114.097 62.728C114.169 62.7708 114.24 62.8136 114.311 62.8563C114.368 62.8991 114.425 62.9276 114.497 62.9704C114.568 63.0132 114.625 63.056 114.696 63.0987C114.753 63.1415 114.81 63.17 114.867 63.2128C114.925 63.2556 114.996 63.3126 115.053 63.3554C115.11 63.3982 115.153 63.441 115.21 63.4838C115.267 63.5265 115.324 63.5836 115.381 63.6263C115.424 63.6691 115.481 63.7119 115.523 63.7547C115.58 63.8117 115.623 63.8545 115.68 63.9115C115.723 63.9543 115.766 63.9971 115.809 64.0399C115.851 64.0969 115.894 64.1539 115.937 64.1967C115.98 64.2395 116.008 64.2823 116.037 64.3251C116.08 64.3821 116.108 64.4391 116.151 64.4962C116.179 64.5389 116.208 64.5817 116.236 64.6245C116.265 64.6815 116.293 64.7386 116.322 64.7956C116.35 64.8384 116.365 64.8812 116.393 64.9382C116.422 64.9952 116.436 65.0665 116.465 65.1378C116.479 65.1806 116.493 65.2234 116.507 65.2662C116.522 65.3375 116.536 65.423 116.55 65.4943C116.564 65.5371 116.564 65.5656 116.564 65.6084C116.579 65.7225 116.579 65.8366 116.579 65.9649H118.931H124.307L128.727 63.498V58.7068L124.664 55.2418C124.535 55.142 124.407 55.0422 124.279 54.9424L120.172 57.9083L114.982 61.6443L118.047 57.9226C113.342 54.6714 107.068 52.6323 100.765 51.3347C98.1984 50.8071 95.6175 50.4079 93.1364 50.1084C83.0266 48.8964 74.4996 49.2814 74.4996 49.2814C81.9857 48.0836 88.5164 47.8697 94.1203 48.2262C94.8903 48.2689 95.6603 48.3402 96.4018 48.4115C110.305 49.7377 117.962 54.5431 119.787 55.8264L120.186 55.3416L121.954 53.1884L120.186 51.8623L114.254 47.4276C111.089 45.0606 107.724 42.9787 104.187 41.1963L98.4266 38.3016L98.6405 41.4529C98.6405 41.4529 94.3912 38.8292 88.0744 37.5601C85.5933 37.061 82.0855 36.234 78.9627 36.3908C77.3657 36.4764 75.7829 36.5477 74.3 36.5477C73.3731 36.5477 72.5033 36.5049 71.6905 36.4051C71.1772 36.3481 70.6924 36.2625 70.2361 36.1484L71.6905 37.1894L71.9757 37.4033L74.3 39.0574L74.3142 39.0716C74.3142 39.0716 74.3142 39.0716 74.3 39.0716C74.2144 39.0574 73.7581 39.0146 73.0452 38.929C72.6602 38.8862 72.2039 38.8292 71.6905 38.7579C71.1344 38.6866 70.5213 38.6153 69.8511 38.5298C69.3093 38.4585 67.9404 38.2588 66.6143 38.0592V51.0638C66.7711 57.395 69.5802 64.0256 74.7563 70.3425C75.5833 68.9594 77.3372 66.3784 78.8772 64.653C79.4618 63.9543 80.132 63.2699 80.8164 62.6139Z" fill="white"/>
<path d="M135.173 2.22437V50.9203C135.03 57.8504 131.751 65.1084 125.691 71.9102C119.573 78.769 111.004 84.7864 100.894 89.3352C90.784 84.8007 82.2142 78.769 76.097 71.9102C70.0511 65.1369 66.7714 57.9074 66.6003 51.0486V2.22437H135.173ZM136.528 0.855469H65.2314V51.0486C65.4026 58.2782 68.7963 65.7929 75.0703 72.8228C81.3158 79.8241 90.0425 85.97 100.323 90.59L100.88 90.8467L101.436 90.59C111.717 85.97 120.457 79.8241 126.689 72.8228C132.991 65.7644 136.371 58.2069 136.528 50.9488V0.855469Z" fill="#DD0031"/>
<path d="M80.8164 62.6145C83.3546 60.2189 86.3633 58.2226 89.2294 58.1513C87.6609 55.9411 88.1314 54.1872 88.1314 54.1872C88.1314 54.1872 88.8301 55.2567 90.2703 56.5257C92.0099 58.0658 94.8333 59.9337 98.7973 60.5754C100.366 60.8321 102.105 60.9034 104.016 60.6895C104.045 60.6895 104.073 60.6895 104.102 60.6752C106.811 60.3758 109.563 60.6895 112.087 61.7304C112.101 61.7304 112.115 61.7447 112.13 61.7447C112.144 61.7589 112.172 61.7589 112.201 61.7732C112.272 61.8017 112.344 61.8302 112.401 61.8588C112.486 61.9015 112.557 61.9301 112.643 61.9586C112.714 61.9871 112.786 62.0156 112.843 62.0584C112.914 62.1012 113 62.1297 113.071 62.1725C113.142 62.201 113.199 62.2438 113.27 62.2723C113.342 62.3151 113.427 62.3436 113.499 62.3864C113.57 62.4149 113.627 62.4577 113.698 62.4862C113.77 62.529 113.841 62.5717 113.912 62.6145C113.969 62.643 114.04 62.6858 114.097 62.7286C114.169 62.7714 114.24 62.8141 114.311 62.8569C114.368 62.8997 114.425 62.9282 114.497 62.971C114.568 63.0138 114.625 63.0566 114.696 63.0993C114.753 63.1421 114.81 63.1706 114.867 63.2134C114.925 63.2562 114.996 63.3132 115.053 63.356C115.11 63.3988 115.153 63.4416 115.21 63.4843C115.267 63.5271 115.324 63.5842 115.381 63.6269C115.424 63.6697 115.481 63.7125 115.523 63.7553C115.58 63.8123 115.623 63.8551 115.68 63.9121C115.723 63.9549 115.766 63.9977 115.809 64.0405C115.851 64.0975 115.894 64.1545 115.937 64.1973C115.98 64.2401 116.008 64.2829 116.037 64.3256C116.08 64.3827 116.108 64.4397 116.151 64.4968C116.179 64.5395 116.208 64.5823 116.236 64.6251C116.265 64.6821 116.293 64.7392 116.322 64.7962C116.35 64.839 116.365 64.8818 116.393 64.9388C116.422 64.9958 116.436 65.0671 116.465 65.1384C116.479 65.1812 116.493 65.224 116.507 65.2668C116.522 65.3381 116.536 65.4236 116.55 65.4949C116.564 65.5377 116.564 65.5662 116.564 65.609C116.579 65.7231 116.579 65.8371 116.579 65.9655H118.931H124.307L128.727 63.4986V58.7074L124.664 55.2424C124.535 55.1426 124.407 55.0428 124.279 54.9429L121.954 53.1748L120.186 51.8487L114.254 47.414C111.089 45.0469 107.724 42.965 104.187 41.1826L98.4266 38.2879L98.6405 41.4393C98.6405 41.4393 94.3912 38.8155 88.0744 37.5465C85.5933 37.0474 82.0855 36.2203 78.9627 36.3772C77.3657 36.4627 75.7829 36.534 74.3 36.534C73.3731 36.534 72.5033 36.4913 71.6905 36.3914C71.1772 36.3344 70.6924 36.2488 70.2361 36.1348L71.6905 37.1757L71.9757 37.3896L74.3 39.0437L74.3142 39.0579C74.3142 39.0579 74.3142 39.0579 74.3 39.0579C74.2144 39.0437 73.7581 39.0009 73.0452 38.9154C72.6602 38.8726 72.2039 38.8155 71.6905 38.7442C71.1344 38.6729 70.5213 38.6016 69.8511 38.5161C69.3093 38.4448 67.9404 38.2452 66.6143 38.0455V51.0501C66.7711 57.3813 69.5802 64.0119 74.7563 70.3289C75.5833 68.9457 77.3372 66.3647 78.8772 64.6394C79.4618 63.9549 80.132 63.2704 80.8164 62.6145Z" fill="white"/>
<path d="M118.732 78.5139C118.861 78.4141 118.989 78.3001 119.117 78.2002C119.231 78.1147 119.331 78.0149 119.445 77.9293C120.016 77.4588 120.557 76.9739 121.099 76.5034C121.213 76.4036 121.327 76.3037 121.427 76.2039C122.725 75.0346 123.937 73.8226 125.078 72.582L86.3496 72.5963V73.4946C104.216 73.4233 113.257 76.2752 117.848 79.2127C117.92 79.1556 117.991 79.0986 118.076 79.0273C118.305 78.8562 118.518 78.6851 118.732 78.5139Z" fill="white"/>
<path d="M81.1731 22.6285L76.1539 7.61328H75.883H75.5265H72.418V31.6119H75.883V16.4399L80.8452 31.6119H81.1731H81.8861H84.6381V7.61328H81.1731V22.6285Z" fill="white"/>
<path d="M93.0083 18.2223L89.6003 7.61328H86.1211L91.2687 22.4146V31.6119H94.7337V22.6855V22.4146H94.7479L99.8812 7.61328H96.402L93.0083 18.2223Z" fill="white"/>
<path d="M111.916 8.46885C111.916 8.46885 111.16 7.61328 108.85 7.61328H108.565H108.365H104.786H102.933H101.321V31.6119H104.801V21.6873H107.823C108.237 21.7016 109.449 21.9012 109.449 23.5696V31.6119H112.928V23.6694V22.7853V22.6855C112.928 22.2577 112.629 20.461 110.932 20.1473C110.932 20.1473 112.9 19.5769 112.928 17.6804V11.4918C112.914 11.4918 113.014 9.25311 111.916 8.46885ZM109.449 11.4918V17.6091C109.406 18.0084 109.15 18.7784 107.709 18.7784H104.801V10.5222H108.094C109.478 10.5222 109.449 11.4918 109.449 11.4918Z" fill="white"/>
<path d="M119.089 7.61328L118.789 9.32441L114.497 31.6119H118.105L118.917 26.9205H124.949L125.762 31.6119H129.369L124.735 7.61328H119.089ZM119.502 23.4555L121.755 10.3653H122.097L124.35 23.4555H119.502Z" fill="white"/>
<path d="M119.773 55.8092C117.962 54.5402 110.29 49.7205 96.3875 48.3943C95.646 48.323 94.8903 48.266 94.106 48.209C88.5022 47.8525 81.9714 48.0664 74.4854 49.2642C74.4854 49.2642 83.0124 48.8792 93.1222 50.1055C95.6033 50.4049 98.1699 50.8042 100.751 51.3318C107.068 52.6151 113.327 54.6685 118.033 57.9196L114.967 61.6414L120.158 57.9054L124.264 54.9394L121.954 53.1713L120.186 55.3244L119.773 55.8092Z" fill="#DD0031"/>
</svg>
