<svg width="201" height="91" viewBox="0 0 201 91" fill="none" xmlns="http://www.w3.org/2000/svg">
<path d="M26.6517 45.7845C26.6517 44.9185 26.701 44.0098 26.7986 43.0599C26.8961 42.11 27.0443 41.1098 27.2406 40.0605C27.7965 37.194 28.4918 34.5907 29.3251 32.2482C30.1597 29.907 31.0589 28.0201 32.0239 26.5862C33.398 24.5702 34.8443 22.9621 36.3652 21.7618C37.8862 20.5615 39.5706 19.6954 41.4183 19.1624C43.0698 18.712 44.8681 18.379 46.8146 18.1622C48.7599 17.9453 50.9432 17.8369 53.3634 17.8369C56.993 17.8369 60.0236 18.0783 62.4514 18.5623C64.8791 19.0462 66.9764 19.8116 68.743 20.8622C70.1817 21.7295 71.2455 22.9788 71.9319 24.6115C72.6183 26.2454 72.9615 28.3363 72.9615 30.8866C72.9615 32.336 72.8514 33.8357 72.631 35.3858C72.4106 36.9358 72.0712 38.544 71.6128 40.2102C70.9264 42.7941 70.0715 45.1224 69.0495 47.1964C68.0275 49.2718 66.8206 51.1084 65.4313 52.7088C63.6975 54.6757 61.3432 56.0954 58.3671 56.9705C55.391 57.8455 51.3105 58.2831 46.127 58.2831C39.0134 58.2831 33.9894 57.3331 31.0538 55.4333C28.1182 53.5335 26.6504 50.3172 26.6504 45.7845H26.6517ZM50.9597 31.2105C49.7654 31.2105 48.7232 31.4403 47.8316 31.8985C46.94 32.3566 46.208 33.0445 45.6368 33.9609C44.8352 35.2606 44.1488 36.8984 43.5764 38.8731C43.0039 40.8478 42.7177 42.5772 42.7177 44.0602C42.7177 45.1598 43.1635 45.9974 44.0551 46.5718C44.9466 47.1474 46.2422 47.4339 47.943 47.4339C49.0056 47.4339 49.9377 47.2674 50.7393 46.9344C51.541 46.6015 52.2198 46.1007 52.7758 45.4347C53.233 44.8849 53.6344 44.2512 53.9776 43.5349C54.3208 42.8186 54.6564 41.919 54.9832 40.8349C55.3593 39.6023 55.6455 38.5065 55.8418 37.5476C56.0381 36.5899 56.1356 35.7691 56.1356 35.0851C56.1356 33.7854 55.7063 32.8148 54.8477 32.1734C53.989 31.5319 52.6935 31.2105 50.9597 31.2105Z" fill="#010066"/>
<path d="M68.9417 57.1084L91.2133 19.0615H117.925L117.729 57.1084H102.202L102.252 51.5844H89.7417L86.5769 57.1084H68.9404H68.9417ZM94.4275 42.1601H102.67L102.816 28.0366L94.4275 42.1601Z" fill="#010066"/>
<path d="M120.697 57.1077L130.68 19.0609H148.414L151.088 35.5088C151.137 35.8418 151.235 36.5465 151.381 37.6216C151.528 38.6967 151.725 40.1422 151.97 41.9581C152.264 40.4081 152.714 38.4502 153.319 36.0831C153.418 35.683 153.49 35.3914 153.539 35.2081L157.807 19.0596H173.334L163.326 57.1064H145.764L142.525 42.508C142.362 41.7581 142.169 40.8456 141.949 39.7705C141.729 38.6954 141.503 37.5506 141.274 36.3335C140.979 38.1508 140.514 40.2584 139.876 42.6577V42.7325L136.001 57.1064H120.694L120.697 57.1077Z" fill="#010066"/>
<path d="M175.953 63.874H23.6699V73.923H175.953V63.874Z" fill="#9A0000"/>
<path d="M41.0244 70.5598C41.0244 70.405 41.0333 70.2423 41.051 70.072C41.0687 69.9016 41.0953 69.7235 41.1295 69.5351C41.2283 69.0227 41.3537 68.5568 41.5031 68.1373C41.6526 67.7178 41.8134 67.381 41.9856 67.1241C42.2313 66.7628 42.491 66.4749 42.762 66.2607C43.0343 66.0465 43.3357 65.8903 43.6662 65.7961C43.9613 65.7161 44.283 65.6554 44.6312 65.6167C44.9795 65.578 45.3696 65.5586 45.8027 65.5586C46.4524 65.5586 46.9944 65.6025 47.4288 65.6889C47.8632 65.7754 48.2381 65.9122 48.5547 66.1007C48.8118 66.2555 49.0017 66.4788 49.1258 66.7718C49.2487 67.0635 49.3107 67.4378 49.3107 67.8947C49.3107 68.1541 49.2905 68.4225 49.2512 68.7C49.2119 68.9775 49.1512 69.2653 49.0688 69.5635C48.946 70.0255 48.7928 70.4424 48.6104 70.8141C48.428 71.1858 48.2115 71.5136 47.9632 71.8001C47.653 72.1525 47.2312 72.4067 46.6993 72.5629C46.1674 72.7191 45.4367 72.7978 44.5097 72.7978C43.2369 72.7978 42.3377 72.6274 41.8121 72.288C41.2866 71.9486 41.0244 71.3729 41.0244 70.5611V70.5598ZM45.3734 67.9527C45.1593 67.9527 44.9732 67.994 44.8136 68.0753C44.654 68.1567 44.5236 68.2806 44.421 68.4445C44.2779 68.6768 44.1551 68.9698 44.0525 69.3234C43.9499 69.677 43.8992 69.9855 43.8992 70.2514C43.8992 70.4488 43.979 70.5986 44.1386 70.7005C44.2982 70.8038 44.5299 70.8554 44.8339 70.8554C45.0238 70.8554 45.191 70.8257 45.3341 70.7663C45.4772 70.707 45.5988 70.6166 45.6988 70.4979C45.7812 70.3998 45.8521 70.2862 45.9141 70.1584C45.9762 70.0307 46.0357 69.8693 46.094 69.6757C46.1611 69.455 46.213 69.2589 46.2472 69.0872C46.2827 68.9156 46.3004 68.7684 46.3004 68.6471C46.3004 68.4148 46.2231 68.2405 46.0699 68.1257C45.9167 68.0108 45.6849 67.954 45.3746 67.954L45.3734 67.9527Z" fill="white"/>
<path d="M49.0703 72.5886L50.5888 66.8452H53.2483C53.1989 67.0775 53.1419 67.3098 53.0799 67.5434C53.0165 67.7757 52.9469 68.0068 52.8709 68.2365C53.1812 67.6841 53.5282 67.2931 53.9106 67.062C54.2944 66.831 54.7959 66.7148 55.4164 66.7148C55.9547 66.7148 56.3637 66.8297 56.6436 67.0594C56.9235 67.2892 57.0628 67.6235 57.0628 68.061C57.0628 68.1888 57.0489 68.3333 57.021 68.4946C56.9932 68.656 56.9476 68.8573 56.883 69.0987L55.9661 72.5873H53.2318L53.8423 70.2435C53.8714 70.1454 53.8929 70.0576 53.9056 69.9815C53.9182 69.9053 53.9258 69.8395 53.9258 69.7827C53.9258 69.6343 53.8777 69.5142 53.7815 69.4252C53.6852 69.3361 53.556 69.291 53.3952 69.291C53.1558 69.291 52.957 69.3619 52.8 69.5052C52.6429 69.6485 52.5277 69.8666 52.4517 70.1583L51.816 72.5873H49.0728L49.0703 72.5886Z" fill="white"/>
<path d="M63.1532 72.3579C62.6149 72.4985 62.0856 72.6031 61.5638 72.6728C61.0433 72.7425 60.5291 72.7773 60.0238 72.7773C59.0664 72.7773 58.3787 72.6263 57.9595 72.323C57.539 72.021 57.3301 71.528 57.3301 70.8452C57.3301 70.6994 57.3377 70.551 57.3541 70.4C57.3706 70.2489 57.3947 70.0992 57.4263 69.9508C57.5112 69.5365 57.6188 69.1571 57.7493 68.815C57.8797 68.4717 58.0216 68.1878 58.1773 67.9606C58.3914 67.6418 58.6168 67.3902 58.8549 67.2069C59.093 67.0236 59.3576 66.8959 59.6464 66.8249C59.9073 66.7616 60.1884 66.7165 60.4911 66.6868C60.7938 66.6571 61.1243 66.6416 61.4802 66.6416C62.5896 66.6416 63.4014 66.7874 63.9156 67.0778C64.431 67.3682 64.6881 67.8238 64.6881 68.4446C64.6881 68.5879 64.6716 68.7505 64.64 68.9338C64.6083 69.1171 64.5576 69.3171 64.4905 69.5352C64.4551 69.6578 64.4145 69.7856 64.3702 69.9198C64.3246 70.0541 64.2765 70.1909 64.2233 70.3315H60.1061C60.0947 70.3909 60.0858 70.4477 60.0795 70.4993C60.0732 70.551 60.0707 70.5974 60.0707 70.6361C60.0707 70.8388 60.1517 70.9859 60.3138 71.0762C60.4759 71.1679 60.7444 71.2131 61.1193 71.2131C61.4941 71.2131 61.9045 71.1847 62.3591 71.1279C62.8138 71.0711 63.3178 70.9859 63.8712 70.8723L63.1519 72.3579H63.1532ZM60.3835 69.0887H62.3756C62.3958 69.0293 62.411 68.9699 62.4199 68.9118C62.4288 68.8538 62.4326 68.7996 62.4326 68.7492C62.4326 68.5556 62.368 68.4072 62.2375 68.3065C62.1071 68.2046 61.9146 68.1542 61.66 68.1542C61.3206 68.1542 61.0547 68.2252 60.8609 68.3672C60.6684 68.5092 60.5088 68.7492 60.3822 69.0899L60.3835 69.0887Z" fill="white"/>
<path d="M67.9951 72.5881L71.9806 65.7812H76.7601L76.7247 72.5881H73.9461L73.955 71.5995H71.7172L71.1511 72.5881H67.9951ZM72.5556 69.9139H74.0297L74.0563 67.3868L72.5556 69.9139Z" fill="white"/>
<path d="M77.1357 72.5886L78.6453 66.8452H81.3137C81.2555 67.1136 81.1959 67.3615 81.1364 67.5899C81.0769 67.8183 81.0123 68.0339 80.9452 68.2365C81.2225 67.6841 81.5354 67.2931 81.8798 67.062C82.2256 66.831 82.6713 66.7148 83.2185 66.7148C83.7656 66.7148 84.2025 66.8439 84.4874 67.102C84.7711 67.3602 84.9155 67.7435 84.9218 68.2533C85.1941 67.6983 85.5044 67.3034 85.8526 67.0685C86.2009 66.8323 86.6518 66.7148 87.2039 66.7148C87.7561 66.7148 88.1411 66.8297 88.4197 67.0594C88.6971 67.2892 88.8364 67.6235 88.8364 68.061C88.8364 68.2017 88.8237 68.3552 88.7971 68.5243C88.7705 68.6921 88.7287 68.8844 88.6692 69.0987L87.7434 72.5873H85.1105L85.7209 70.2435C85.7501 70.1247 85.7703 70.0305 85.783 69.9621C85.7944 69.8937 85.8007 69.8343 85.8007 69.7827C85.8007 69.6343 85.7551 69.5142 85.6627 69.4252C85.5702 69.3361 85.4449 69.291 85.2878 69.291C85.0649 69.291 84.8813 69.3619 84.7344 69.5039C84.5875 69.6459 84.4773 69.864 84.4013 70.1596L83.7605 72.5886H81.1187L81.7418 70.2447C81.7646 70.1492 81.7823 70.0641 81.795 69.9879C81.8064 69.9118 81.8127 69.8434 81.8127 69.784C81.8127 69.6317 81.7671 69.5117 81.6772 69.4239C81.586 69.3361 81.4632 69.2923 81.3087 69.2923C81.0832 69.2923 80.8971 69.3632 80.7489 69.5065C80.6007 69.6498 80.488 69.8679 80.4082 70.1596L79.7712 72.5886H77.1383H77.1357Z" fill="white"/>
<path d="M94.9322 72.3579C94.3939 72.4985 93.8646 72.6031 93.3441 72.6728C92.8236 72.7425 92.3094 72.7773 91.8041 72.7773C90.8479 72.7773 90.159 72.6263 89.7398 72.323C89.3193 72.021 89.1104 71.528 89.1104 70.8452C89.1104 70.6994 89.118 70.551 89.1344 70.4C89.1509 70.2489 89.1749 70.0992 89.2066 69.9508C89.2915 69.5365 89.3991 69.1571 89.5295 68.815C89.66 68.4717 89.8018 68.1878 89.9576 67.9606C90.1716 67.6418 90.3971 67.3902 90.6351 67.2069C90.8732 67.0236 91.1379 66.8959 91.4267 66.8249C91.6876 66.7616 91.9687 66.7165 92.2714 66.6868C92.5741 66.6571 92.9046 66.6416 93.2605 66.6416C94.3699 66.6416 95.1817 66.7874 95.6958 67.0778C96.2113 67.3682 96.4684 67.8238 96.4684 68.4446C96.4684 68.5879 96.4519 68.7505 96.4202 68.9338C96.3886 69.1171 96.3379 69.3171 96.2708 69.5352C96.2353 69.6578 96.1948 69.7856 96.1505 69.9198C96.1049 70.0541 96.0555 70.1909 96.0036 70.3315H91.8864C91.875 70.3909 91.8661 70.4477 91.8598 70.4993C91.8535 70.551 91.8509 70.5974 91.8509 70.6361C91.8509 70.8388 91.932 70.9859 92.0941 71.0762C92.2562 71.1679 92.5247 71.2131 92.8995 71.2131C93.2744 71.2131 93.6847 71.1847 94.1394 71.1279C94.594 71.0711 95.0981 70.9859 95.6515 70.8723L94.9322 72.3579ZM92.1625 69.0887H94.1546C94.1748 69.0293 94.19 68.9699 94.1989 68.9118C94.2078 68.8538 94.2116 68.7996 94.2116 68.7492C94.2116 68.5556 94.147 68.4072 94.0165 68.3065C93.8861 68.2046 93.6936 68.1542 93.439 68.1542C93.0996 68.1542 92.8337 68.2252 92.6399 68.3672C92.4474 68.5092 92.2879 68.7492 92.1612 69.0899L92.1625 69.0887Z" fill="white"/>
<path d="M96.2627 72.5854L97.7812 66.842H100.362C100.304 67.0718 100.241 67.3054 100.173 67.5441C100.106 67.7829 100.029 68.0501 99.9404 68.3443H99.9759C100.21 67.7752 100.496 67.3557 100.836 67.0873C101.175 66.8188 101.587 66.6846 102.069 66.6846C102.21 66.6846 102.354 66.6962 102.501 66.7207C102.649 66.7439 102.801 66.7814 102.96 66.833L102.157 69.8918C101.935 69.8466 101.726 69.8144 101.534 69.7937C101.34 69.7731 101.156 69.7628 100.98 69.7628C100.532 69.7628 100.189 69.866 99.9493 70.0738C99.7099 70.2816 99.5212 70.6456 99.3832 71.167L99.0058 72.5854H96.2627Z" fill="white"/>
<path d="M102.148 72.587L103.648 66.8797C103.885 66.921 104.109 66.952 104.32 66.9714C104.53 66.9907 104.735 66.9998 104.934 66.9998C105.148 66.9998 105.375 66.9907 105.614 66.9714C105.853 66.952 106.116 66.921 106.399 66.8797L104.898 72.587H102.146H102.148ZM106.361 65.2109C106.484 65.2109 106.575 65.2367 106.633 65.2871C106.692 65.3374 106.721 65.4136 106.721 65.5155C106.721 65.6046 106.706 65.7156 106.675 65.8485C106.645 65.9815 106.604 66.1028 106.555 66.2125C106.502 66.3261 106.428 66.4074 106.331 66.4564C106.235 66.5055 106.098 66.53 105.923 66.53H104.154C104.028 66.53 103.935 66.5055 103.875 66.4564C103.816 66.4074 103.785 66.3312 103.785 66.2305C103.785 66.1376 103.802 66.0266 103.833 65.895C103.865 65.7633 103.907 65.6433 103.956 65.5323C104.009 65.4161 104.083 65.3335 104.178 65.2845C104.273 65.2355 104.408 65.2109 104.584 65.2109H106.361Z" fill="white"/>
<path d="M111.694 72.429C111.115 72.5426 110.579 72.6277 110.088 72.6845C109.596 72.7413 109.143 72.7697 108.728 72.7697C107.859 72.7697 107.229 72.6277 106.841 72.3425C106.452 72.0573 106.257 71.6017 106.257 70.9757C106.257 70.8234 106.266 70.6634 106.285 70.4943C106.304 70.3265 106.333 70.1523 106.371 69.9729C106.462 69.5547 106.572 69.1727 106.704 68.8229C106.836 68.4745 106.977 68.1866 107.129 67.9595C107.275 67.7362 107.426 67.5478 107.579 67.3955C107.732 67.2432 107.897 67.1193 108.073 67.0238C108.289 66.9012 108.573 66.8095 108.924 66.7489C109.275 66.6882 109.698 66.6572 110.193 66.6572C110.729 66.6572 111.239 66.6843 111.724 66.7398C112.209 66.7953 112.676 66.8779 113.123 66.9876L112.584 69.0449C112.283 69.0036 112.005 68.9714 111.751 68.9507C111.496 68.93 111.261 68.9197 111.044 68.9197C110.707 68.9197 110.422 68.943 110.188 68.9894C109.954 69.0359 109.772 69.103 109.643 69.1933C109.496 69.2953 109.368 69.454 109.26 69.6696C109.149 69.8851 109.095 70.0852 109.095 70.2672C109.095 70.4724 109.18 70.6208 109.349 70.7098C109.519 70.7989 109.803 70.8441 110.201 70.8441C110.504 70.8441 110.82 70.826 111.147 70.7899C111.473 70.7537 111.81 70.7021 112.158 70.6337L111.694 72.4277V72.429Z" fill="white"/>
<path d="M120.889 66.842L119.379 72.5854H116.715C116.782 72.3828 116.846 72.1737 116.907 71.9568C116.969 71.74 117.027 71.5167 117.083 71.2831C116.79 71.802 116.454 72.1775 116.074 72.4099C115.694 72.6422 115.224 72.7583 114.665 72.7583C114.107 72.7583 113.643 72.6151 113.345 72.3285C113.046 72.042 112.897 71.6174 112.897 71.0534C112.897 70.6481 112.954 70.2029 113.066 69.7189C113.179 69.2349 113.328 68.7974 113.515 68.4063C113.817 67.7855 114.161 67.3441 114.549 67.0808C114.936 66.8162 115.435 66.6846 116.043 66.6846C116.651 66.6846 117.055 66.7827 117.343 66.9775C117.629 67.1724 117.816 67.4977 117.905 67.9507C117.929 67.8526 117.968 67.6797 118.025 67.4344C118.082 67.1879 118.128 66.9905 118.163 66.842H120.889ZM116.816 68.8954C116.617 68.8954 116.447 68.9355 116.307 69.0142C116.166 69.0929 116.042 69.2207 115.933 69.3962C115.855 69.5304 115.787 69.6905 115.732 69.875C115.676 70.0596 115.648 70.2145 115.648 70.3397C115.648 70.5126 115.709 70.6494 115.831 70.7488C115.952 70.8482 116.118 70.8985 116.328 70.8985C116.674 70.8985 116.955 70.7617 117.173 70.4894C117.391 70.2171 117.5 69.8686 117.5 69.4453C117.5 69.2749 117.438 69.1407 117.314 69.0426C117.189 68.9445 117.024 68.8954 116.816 68.8954Z" fill="white"/>
<path d="M124.482 72.5881L126.268 65.7812H129.441L129.919 68.7239C129.928 68.7833 129.946 68.9098 129.972 69.1021C129.999 69.2944 130.034 69.5538 130.078 69.8777C130.131 69.6003 130.211 69.2505 130.319 68.8272C130.337 68.7549 130.35 68.7033 130.359 68.671L131.122 65.7812H133.901L132.11 72.5881H128.968L128.389 69.9758C128.36 69.8416 128.326 69.679 128.287 69.4854C128.248 69.2931 128.207 69.0879 128.166 68.871C128.113 69.1963 128.031 69.5732 127.916 70.0029V70.0158L127.222 72.5881H124.484H124.482Z" fill="white"/>
<path d="M139.427 72.3579C138.889 72.4985 138.36 72.6031 137.839 72.6728C137.319 72.7425 136.804 72.7773 136.299 72.7773C135.343 72.7773 134.654 72.6263 134.235 72.323C133.814 72.021 133.605 71.528 133.605 70.8452C133.605 70.6994 133.613 70.551 133.63 70.4C133.646 70.2489 133.67 70.0992 133.702 69.9508C133.787 69.5365 133.894 69.1571 134.025 68.815C134.155 68.4717 134.297 68.1878 134.453 67.9606C134.667 67.6418 134.892 67.3902 135.13 67.2069C135.368 67.0236 135.633 66.8959 135.923 66.8249C136.184 66.7616 136.465 66.7165 136.768 66.6868C137.07 66.6571 137.401 66.6416 137.757 66.6416C138.866 66.6416 139.678 66.7874 140.192 67.0778C140.708 67.3682 140.965 67.8238 140.965 68.4446C140.965 68.5879 140.948 68.7505 140.917 68.9338C140.885 69.1171 140.834 69.3171 140.767 69.5352C140.732 69.6578 140.692 69.7856 140.647 69.9198C140.601 70.0541 140.553 70.1909 140.5 70.3315H136.383C136.371 70.3909 136.363 70.4477 136.356 70.4993C136.35 70.551 136.347 70.5974 136.347 70.6361C136.347 70.8388 136.428 70.9859 136.59 71.0762C136.753 71.1679 137.021 71.2131 137.396 71.2131C137.771 71.2131 138.181 71.1847 138.636 71.1279C139.09 71.0711 139.594 70.9859 140.148 70.8723L139.429 72.3579H139.427ZM136.658 69.0887H138.65C138.67 69.0293 138.685 68.9699 138.694 68.9118C138.703 68.8538 138.707 68.7996 138.707 68.7492C138.707 68.5556 138.642 68.4072 138.512 68.3065C138.381 68.2046 138.189 68.1542 137.934 68.1542C137.595 68.1542 137.329 68.2252 137.135 68.3672C136.943 68.5092 136.783 68.7492 136.656 69.0899L136.658 69.0887Z" fill="white"/>
<path d="M141.683 72.5852L141.617 66.8418H144.264L144.18 69.0062C144.165 69.3547 144.149 69.6683 144.127 69.9458C144.107 70.2233 144.083 70.4853 144.058 70.7331C144.136 70.4827 144.221 70.2323 144.312 69.9819C144.403 69.7315 144.497 69.4837 144.593 69.2398L145.567 66.8431H147.748L147.721 69.1688C147.721 69.3302 147.719 69.547 147.713 69.8219C147.706 70.0968 147.697 70.4001 147.686 70.7344C147.8 70.364 147.952 69.9264 148.142 69.4192C148.177 69.3263 148.201 69.2618 148.217 69.2217L149.103 66.8418H151.899L149.213 72.5852H146.111V70.6711C146.111 70.5305 146.116 70.3356 146.126 70.0852C146.136 69.8348 146.15 69.5315 146.168 69.1766C146.047 69.5341 145.943 69.8335 145.856 70.0761C145.769 70.3175 145.689 70.5188 145.619 70.6802L144.781 72.5852H141.682H141.683Z" fill="white"/>
<path d="M151.109 72.4964L151.496 70.9761C151.911 71.0328 152.281 71.0754 152.604 71.1038C152.927 71.1322 153.214 71.1464 153.466 71.1464C153.969 71.1464 154.32 71.1154 154.517 71.0548C154.715 70.9941 154.814 70.8896 154.814 70.7437C154.814 70.6689 154.791 70.6147 154.744 70.5785C154.697 70.5424 154.625 70.5243 154.529 70.5243C154.505 70.5243 154.368 70.5308 154.118 70.5424C153.868 70.554 153.631 70.5605 153.405 70.5605C152.852 70.5605 152.447 70.4598 152.19 70.2585C151.933 70.0571 151.803 69.7409 151.803 69.3085C151.803 68.9652 151.868 68.6206 151.998 68.2735C152.129 67.9263 152.301 67.6423 152.514 67.4216C152.76 67.1648 153.1 66.9802 153.535 66.8667C153.969 66.7531 154.576 66.6963 155.353 66.6963C155.831 66.6963 156.342 66.7169 156.889 66.7595C157.437 66.8008 158.011 66.8628 158.614 66.9428L158.166 68.6206C157.735 68.5613 157.359 68.5174 157.038 68.489C156.716 68.4606 156.428 68.4464 156.178 68.4464C155.675 68.4464 155.324 68.4774 155.127 68.5406C154.929 68.6026 154.83 68.7084 154.83 68.8581C154.83 68.9536 154.863 69.0207 154.929 69.0595C154.995 69.0982 155.113 69.1175 155.282 69.1175C155.352 69.1175 155.514 69.1098 155.767 69.0956C156.021 69.0801 156.24 69.0736 156.423 69.0736C156.924 69.0736 157.287 69.1705 157.511 69.3628C157.737 69.5551 157.849 69.8648 157.849 70.2907C157.849 70.6366 157.79 70.9644 157.672 71.2742C157.553 71.584 157.388 71.8395 157.178 72.0395C156.917 72.2873 156.58 72.4655 156.165 72.5739C155.75 72.6823 155.176 72.7365 154.445 72.7365C153.936 72.7365 153.404 72.7158 152.848 72.6758C152.292 72.6358 151.713 72.5765 151.111 72.499L151.109 72.4964Z" fill="white"/>
<path d="M181.632 17.0352C182.009 17.0352 182.377 17.1324 182.737 17.3283C183.096 17.5242 183.377 17.8035 183.577 18.1675C183.777 18.5315 183.878 18.9108 183.878 19.3054C183.878 19.7 183.78 20.0723 183.582 20.4336C183.385 20.7948 183.108 21.0741 182.751 21.2741C182.394 21.4742 182.021 21.5728 181.633 21.5728C181.244 21.5728 180.871 21.4728 180.515 21.2741C180.158 21.0741 179.881 20.7948 179.682 20.4336C179.483 20.0723 179.385 19.6972 179.385 19.3054C179.385 18.9136 179.486 18.5315 179.687 18.1675C179.889 17.8035 180.17 17.5242 180.529 17.3283C180.889 17.1324 181.257 17.0352 181.634 17.0352H181.632ZM181.632 17.4117C181.317 17.4117 181.008 17.4936 180.71 17.6562C180.411 17.8202 180.177 18.0536 180.009 18.3564C179.84 18.6607 179.756 18.9761 179.756 19.3054C179.756 19.6347 179.839 19.9459 180.004 20.2446C180.17 20.5447 180.402 20.7781 180.699 20.9449C180.998 21.113 181.307 21.1963 181.632 21.1963C181.956 21.1963 182.265 21.113 182.564 20.9449C182.861 20.7781 183.093 20.5433 183.258 20.2446C183.423 19.9445 183.505 19.6319 183.505 19.3054C183.505 18.9789 183.42 18.6607 183.252 18.3564C183.085 18.0522 182.85 17.8188 182.552 17.6562C182.252 17.4923 181.945 17.4117 181.632 17.4117ZM180.646 20.56V18.1175H181.477C181.761 18.1175 181.967 18.1397 182.094 18.1856C182.22 18.23 182.323 18.3092 182.398 18.4217C182.473 18.5343 182.511 18.6538 182.511 18.7802C182.511 18.958 182.448 19.1137 182.321 19.2456C182.195 19.3776 182.028 19.4527 181.82 19.4679C181.906 19.5041 181.974 19.5471 182.026 19.5972C182.122 19.693 182.242 19.8542 182.383 20.0807L182.677 20.5586H182.2L181.986 20.1737C181.817 19.8709 181.681 19.6819 181.578 19.6055C181.507 19.5499 181.402 19.5207 181.266 19.5207H181.037V20.5586H180.647L180.646 20.56ZM181.036 19.1859H181.509C181.735 19.1859 181.889 19.1512 181.972 19.0831C182.056 19.015 182.096 18.9247 182.096 18.8122C182.096 18.7399 182.077 18.676 182.036 18.6177C181.996 18.5593 181.941 18.5176 181.871 18.4898C181.801 18.462 181.671 18.4481 181.48 18.4481H181.036V19.1845V19.1859Z" fill="#22205F"/>
</svg>
