<svg width="201" height="91" viewBox="0 0 201 91" fill="none" xmlns="http://www.w3.org/2000/svg">
<path fill-rule="evenodd" clip-rule="evenodd" d="M47.7614 15.6689C47.1095 15.6689 46.581 16.1974 46.581 16.8493V66.5555C46.581 67.2075 47.1095 67.7359 47.7614 67.7359H78.2843C79.7315 67.7359 81.1283 68.2677 82.2092 69.2301L80.6392 70.9932L82.2092 69.2301L100.095 85.1556C100.542 85.554 101.217 85.554 101.665 85.1556L119.55 69.2301C120.631 68.2677 122.028 67.7359 123.475 67.7359H153.998C154.65 67.7359 155.179 67.2075 155.179 66.5555V16.8493C155.179 16.1974 154.65 15.6689 153.998 15.6689H119.711C118.407 15.6689 117.35 14.6119 117.35 13.3081C117.35 12.0042 118.407 10.9473 119.711 10.9473H153.998C157.258 10.9473 159.9 13.5897 159.9 16.8493V66.5555C159.9 69.8152 157.258 72.4576 153.998 72.4576H123.475C123.186 72.4576 122.906 72.5639 122.69 72.7564L104.805 88.6819C102.567 90.6741 99.1923 90.6741 96.9549 88.6819L79.0693 72.7564C78.8531 72.5639 78.5738 72.4576 78.2843 72.4576H47.7614C44.5018 72.4576 41.8594 69.8151 41.8594 66.5555V16.8493C41.8594 13.5897 44.5018 10.9473 47.7614 10.9473H81.8824C83.1863 10.9473 84.2432 12.0042 84.2432 13.3081C84.2432 14.6119 83.1863 15.6689 81.8824 15.6689H47.7614Z" fill="#1F2025"/>
<path fill-rule="evenodd" clip-rule="evenodd" d="M100.88 28.5056C108.703 28.5056 115.045 22.1637 115.045 14.3407C115.045 6.51762 108.703 0.175781 100.88 0.175781C93.0567 0.175781 86.7148 6.51762 86.7148 14.3407C86.7148 22.1637 93.0567 28.5056 100.88 28.5056ZM99.6126 7.58459L99.6212 7.59363L99.6302 7.60222C99.9779 7.93249 100.402 8.10568 100.88 8.10568C101.358 8.10568 101.781 7.93169 102.119 7.59352C102.465 7.24769 102.65 6.82098 102.65 6.33506C102.65 5.85241 102.467 5.43066 102.119 5.09599C101.784 4.7481 101.362 4.56445 100.88 4.56445C100.394 4.56445 99.9671 4.75025 99.6213 5.09607C99.2831 5.43425 99.1091 5.85653 99.1091 6.33506C99.1091 6.81297 99.2823 7.23694 99.6126 7.58459ZM100.88 9.95006C99.9019 9.95006 99.1091 10.7428 99.1091 11.7207V22.3443C99.1091 23.3222 99.9019 24.115 100.88 24.115C101.858 24.115 102.65 23.3222 102.65 22.3443V11.7207C102.65 10.7428 101.858 9.95006 100.88 9.95006Z" fill="black"/>
<path d="M83.1853 49.9102C82.8312 49.9102 82.5007 50.04 82.2528 50.2879C81.9813 50.5476 81.8633 50.8781 81.8633 51.2322V60.8171C81.8633 61.1712 81.9931 61.5018 82.2528 61.7615C82.5125 62.0211 82.8312 62.151 83.1971 62.151C83.5631 62.151 83.8936 62.0329 84.1415 61.7615C84.3894 61.5018 84.5192 61.1831 84.5192 60.8289V51.244C84.5192 50.8899 84.4012 50.5594 84.1297 50.2997C83.87 50.0282 83.5395 49.9102 83.1853 49.9102Z" fill="black"/>
<path d="M94.9657 49.9102C94.6116 49.9102 94.2811 50.04 94.0332 50.2879C93.7617 50.5476 93.6437 50.8781 93.6437 51.2322V57.2169L88.5207 50.4059C88.261 50.0872 87.9069 49.9102 87.5056 49.9102C87.1514 49.9102 86.8209 50.04 86.5612 50.2997C86.3015 50.5594 86.1953 50.8899 86.1953 51.244V60.8289C86.1953 61.1712 86.3134 61.5018 86.5494 61.7615V61.7733C86.8091 62.0329 87.1278 62.1628 87.4938 62.1628C87.8597 62.1628 88.1902 62.0448 88.4381 61.7733C88.686 61.5136 88.8158 61.1949 88.8158 60.8407V54.8797L93.9388 61.6788C94.0686 61.8559 94.2339 61.9739 94.411 62.0566H94.4346L94.4582 62.0802C94.6116 62.1274 94.7887 62.1628 94.9539 62.1628C95.3081 62.1628 95.6504 62.0448 95.9101 61.7615C96.158 61.5018 96.2642 61.1831 96.2642 60.8289V51.244C96.2642 50.9017 96.158 50.5712 95.8983 50.3115C95.6386 50.04 95.3081 49.922 94.9539 49.922L94.9657 49.9102Z" fill="black"/>
<path d="M119.448 53.5233C119.141 52.7679 118.716 52.095 118.161 51.5402C117.606 50.9736 116.934 50.5369 116.178 50.23C115.423 49.9113 114.585 49.7578 113.687 49.7578C112.79 49.7578 111.952 49.9113 111.185 50.23C110.418 50.5369 109.757 50.9736 109.202 51.5402C108.647 52.095 108.222 52.7679 107.927 53.5233C107.62 54.2906 107.479 55.1287 107.479 56.0258C107.479 56.9229 107.632 57.761 107.927 58.54C108.222 59.2955 108.647 59.9683 109.202 60.5349C109.757 61.1015 110.418 61.5383 111.185 61.8452C111.952 62.1521 112.79 62.3056 113.687 62.3056C114.585 62.3056 115.423 62.1521 116.178 61.857C116.934 61.5383 117.595 61.1133 118.161 60.5467C118.716 59.9801 119.153 59.3073 119.448 58.5519C119.755 57.7728 119.896 56.9347 119.896 56.0376C119.896 55.1405 119.743 54.3024 119.448 53.5351V53.5233ZM117.028 57.5249C116.863 57.9853 116.615 58.3866 116.296 58.7171C115.977 59.0476 115.588 59.3073 115.139 59.508C114.714 59.685 114.23 59.7913 113.687 59.7913C113.144 59.7913 112.661 59.6968 112.224 59.508C111.787 59.3073 111.409 59.0476 111.091 58.7171C110.772 58.3748 110.524 57.9853 110.347 57.5249C110.17 57.0645 110.075 56.5688 110.075 56.0258C110.075 55.4828 110.17 54.987 110.347 54.5267C110.524 54.0663 110.772 53.6768 111.091 53.3463C111.409 53.0039 111.787 52.7442 112.224 52.5672C112.661 52.3783 113.156 52.2839 113.699 52.2839C114.242 52.2839 114.726 52.3783 115.151 52.5672C115.6 52.7561 115.977 53.0157 116.296 53.3463C116.615 53.6768 116.863 54.0663 117.028 54.5149C117.205 54.9752 117.3 55.471 117.3 56.0258C117.3 56.5806 117.205 57.0645 117.028 57.5249Z" fill="black"/>
<path d="M105.955 49.9122H99.5457C99.1916 49.9122 98.8611 50.042 98.6132 50.2899C98.3417 50.5496 98.2236 50.8801 98.2236 51.2343V60.8192C98.2236 61.1733 98.3535 61.5038 98.6132 61.7635C98.8729 62.0232 99.1916 62.153 99.5575 62.153C99.9234 62.153 100.242 62.0232 100.502 61.7635C100.762 61.5038 100.891 61.1851 100.891 60.8192V57.2425H104.374C104.704 57.2425 105.035 57.1481 105.294 56.9002V56.8884C105.542 56.6405 105.66 56.3218 105.66 55.9795C105.66 55.6372 105.542 55.3185 105.282 55.0706C105.023 54.8109 104.692 54.7047 104.35 54.7047H100.868V52.4383H105.943C106.274 52.4383 106.605 52.3438 106.864 52.096C107.124 51.8481 107.254 51.5294 107.254 51.187C107.254 50.8447 107.136 50.5142 106.876 50.2663C106.616 50.0066 106.286 49.9004 105.943 49.9004L105.955 49.9122Z" fill="black"/>
<path d="M70.5098 35.1759C69.955 34.6094 69.2822 34.1726 68.5268 33.8657C67.0276 33.2401 65.0327 33.2401 63.5336 33.8657C62.7664 34.1726 62.1053 34.6094 61.5505 35.1759C61.0076 35.7307 60.5826 36.3918 60.2757 37.159C59.9806 37.9145 59.8271 38.7526 59.8271 39.6615C59.8271 40.5704 59.9806 41.4085 60.2757 42.1758C60.5826 42.9312 61.0076 43.6041 61.5505 44.1707C62.1053 44.7254 62.7664 45.1622 63.5336 45.4809C64.2891 45.776 65.1272 45.9295 66.0361 45.9295C66.945 45.9295 67.7713 45.776 68.5268 45.4691C69.2822 45.1622 69.955 44.7136 70.5098 44.1589C71.0646 43.5923 71.5014 42.9194 71.7965 42.164C72.0916 41.3967 72.245 40.5586 72.245 39.6497C72.245 38.7408 72.0916 37.9027 71.7965 37.1472C71.4896 36.3918 71.0646 35.7189 70.5098 35.1641V35.1759ZM69.6481 39.6497C69.6481 40.1927 69.5537 40.6885 69.3766 41.1606C69.2114 41.6092 68.9635 42.0105 68.6448 42.341C68.3261 42.6715 67.9366 42.943 67.488 43.1319C66.6145 43.4978 65.4341 43.4978 64.5724 43.1319C64.1356 42.9312 63.7461 42.6715 63.4392 42.3528C63.1205 42.0105 62.8726 41.6092 62.6955 41.1488C62.5185 40.6885 62.424 40.1927 62.424 39.6497C62.424 39.1067 62.5185 38.6109 62.6955 38.1506C62.8726 37.6902 63.1205 37.3007 63.4392 36.9702C63.7579 36.6397 64.1356 36.3682 64.5724 36.1911C65.0209 36.0022 65.5167 35.9078 66.0479 35.9078C66.5791 35.9078 67.063 36.0022 67.5116 36.1911C67.9484 36.38 68.3379 36.6397 68.6566 36.982C68.9753 37.3125 69.2232 37.702 69.3885 38.1624C69.5655 38.6227 69.6599 39.1185 69.6599 39.6615L69.6481 39.6497Z" fill="black"/>
<path d="M79.7166 34.0918C79.0792 33.7259 78.3474 33.5488 77.5447 33.5488H74.7117C74.3458 33.5488 74.0271 33.6787 73.791 33.9148C73.5313 34.1626 73.3896 34.4932 73.3896 34.8709V44.4558C73.3896 44.8217 73.5195 45.1404 73.7792 45.4001C74.0271 45.648 74.3576 45.7897 74.7235 45.7897C75.0894 45.7897 75.4318 45.648 75.6678 45.4001C75.9157 45.1522 76.0574 44.8217 76.0574 44.4558V41.9415H77.5683C78.371 41.9415 79.1028 41.7645 79.7402 41.4103C80.3777 41.0562 80.8852 40.5605 81.2394 39.923C81.6053 39.2974 81.7823 38.5774 81.7823 37.7865C81.7823 36.9956 81.5935 36.2284 81.2394 35.6027C80.8852 34.9535 80.3777 34.4341 79.7402 34.0682L79.7166 34.0918ZM79.1618 37.8101C79.1618 38.1288 79.091 38.4121 78.9612 38.6482C78.8195 38.8843 78.6425 39.0731 78.4064 39.203C78.1585 39.3446 77.887 39.4037 77.5565 39.4037H76.0456V36.0749H77.5565C77.887 36.0749 78.1585 36.1457 78.3946 36.2874C78.6307 36.429 78.8195 36.6297 78.9612 36.8894C79.1028 37.1491 79.1736 37.4442 79.1736 37.7983L79.1618 37.8101Z" fill="black"/>
<path d="M89.9397 36.0847C90.3056 36.0847 90.6243 35.9666 90.8604 35.7423C91.1083 35.5063 91.2499 35.1876 91.2499 34.8334C91.2499 34.4793 91.1201 34.137 90.8722 33.9245C90.6243 33.6766 90.3056 33.5586 89.9279 33.5586H83.5301C83.1641 33.5586 82.8454 33.6884 82.6093 33.9245C82.3497 34.1724 82.208 34.5029 82.208 34.8807V44.4656C82.208 44.8315 82.3379 45.1502 82.5975 45.4099C82.8454 45.6578 83.1759 45.7994 83.5419 45.7994H89.9397C90.3056 45.7994 90.6243 45.6814 90.884 45.4453C91.1319 45.1974 91.2499 44.8787 91.2499 44.5128C91.2499 44.1469 91.1201 43.8281 90.8604 43.6039C90.6243 43.3796 90.2938 43.2615 89.9397 43.2615H84.8639V40.9007H88.3343C88.7003 40.9007 89.019 40.7827 89.2787 40.5466C89.5265 40.2987 89.6564 39.9918 89.6564 39.6377C89.6564 39.2836 89.5265 38.9531 89.2905 38.7406C89.0426 38.4927 88.7239 38.3629 88.3461 38.3629H84.8757V36.0965H89.9515L89.9397 36.0847Z" fill="black"/>
<path d="M98.5563 40.7947C99.0048 40.4878 99.3826 40.0982 99.6541 39.6497C100.02 39.0595 100.209 38.3748 100.209 37.6194C100.209 36.8285 100.02 36.1084 99.6659 35.5064C99.3117 34.8926 98.8042 34.4087 98.1667 34.0663C97.5293 33.7122 96.7975 33.5352 95.9948 33.5352H93.4451C93.0792 33.5352 92.7605 33.665 92.5244 33.9011C92.2647 34.149 92.123 34.4795 92.123 34.8572V44.4421C92.123 44.8081 92.2529 45.1268 92.5126 45.3865C93.032 45.9058 93.9527 45.8704 94.4012 45.3865C94.6491 45.1386 94.7908 44.8081 94.7908 44.4421V41.5029H95.9476L98.2021 45.1386C98.332 45.351 98.4972 45.5045 98.7097 45.6225C98.9104 45.717 99.1229 45.7642 99.3471 45.7642C99.8665 45.7642 100.28 45.5281 100.516 45.0795C100.728 44.6546 100.693 44.1706 100.421 43.7221L98.5799 40.7593L98.5563 40.7947ZM94.779 36.0848H96.0066C96.3489 36.0848 96.6322 36.1439 96.8683 36.2855C97.1044 36.4154 97.2814 36.5924 97.4231 36.8167C97.5647 37.0528 97.6237 37.3125 97.6237 37.6194C97.6237 37.8909 97.5647 38.1151 97.4349 38.3158C97.305 38.5165 97.1162 38.6817 96.8919 38.7998C96.644 38.9178 96.3489 38.9768 96.0066 38.9768H94.779V36.073V36.0848Z" fill="black"/>
<path d="M108.306 34.4205C108.094 33.8657 107.645 33.5352 107.055 33.5352C106.465 33.5352 106.052 33.8421 105.816 34.3969L101.838 43.8873C101.649 44.3241 101.673 44.7726 101.92 45.1622C102.298 45.7642 103.124 45.9412 103.703 45.5871C103.951 45.4455 104.128 45.2448 104.258 44.9615L104.919 43.3443H109.204L109.853 44.9615C109.947 45.2094 110.112 45.4219 110.372 45.5989C110.596 45.7288 110.832 45.7878 111.08 45.7878C111.553 45.7878 111.942 45.5753 112.19 45.2094C112.438 44.8317 112.473 44.3949 112.296 43.9346L108.306 34.4205ZM105.91 40.9481L107.091 38.0679L108.247 40.9481H105.91Z" fill="black"/>
<path d="M120.618 34.81C120.618 34.4441 120.488 34.1372 120.264 33.9247C120.028 33.6768 119.709 33.5352 119.355 33.5352H111.777C111.423 33.5352 111.104 33.665 110.868 33.9011C110.632 34.1372 110.514 34.4441 110.514 34.7982C110.514 35.1523 110.632 35.4592 110.88 35.7307C111.116 35.955 111.434 36.073 111.777 36.073H114.244V44.4539C114.244 44.8199 114.374 45.1386 114.633 45.3983C114.881 45.6461 115.212 45.7878 115.578 45.7878C115.944 45.7878 116.262 45.6579 116.522 45.3983C116.77 45.1504 116.911 44.8199 116.911 44.4539V36.0848H119.367C119.721 36.0848 120.028 35.9668 120.264 35.7307C120.512 35.4828 120.63 35.1759 120.63 34.8218L120.618 34.81Z" fill="black"/>
<path d="M130.545 35.1759C129.99 34.6094 129.317 34.1726 128.562 33.8657C127.063 33.2401 125.068 33.2401 123.569 33.8657C122.802 34.1726 122.14 34.6094 121.586 35.1759C121.043 35.7307 120.606 36.3918 120.311 37.159C120.016 37.9145 119.862 38.7526 119.862 39.6615C119.862 40.5704 120.016 41.4085 120.311 42.1758C120.618 42.9312 121.043 43.6041 121.586 44.1707C122.14 44.7254 122.802 45.1622 123.569 45.4809C124.324 45.776 125.162 45.9295 126.071 45.9295C126.98 45.9295 127.806 45.776 128.562 45.4691C129.317 45.1622 129.99 44.7136 130.545 44.1589C131.1 43.5923 131.537 42.9194 131.832 42.164C132.127 41.3967 132.28 40.5586 132.28 39.6497C132.28 38.7408 132.127 37.9027 131.832 37.1472C131.525 36.3918 131.1 35.7189 130.545 35.1641V35.1759ZM129.683 39.6497C129.683 40.1809 129.589 40.6885 129.412 41.1606C129.247 41.6092 128.999 42.0105 128.68 42.341C128.361 42.6715 127.972 42.943 127.523 43.1319C126.65 43.4978 125.469 43.4978 124.608 43.1319C124.171 42.9312 123.781 42.6715 123.474 42.3528C123.156 42.0105 122.908 41.6092 122.731 41.1488C122.554 40.6885 122.459 40.1927 122.459 39.6497C122.459 39.1067 122.554 38.6109 122.731 38.1506C122.908 37.6902 123.156 37.3007 123.474 36.9702C123.793 36.6397 124.171 36.3682 124.608 36.1911C125.056 36.0022 125.54 35.9078 126.083 35.9078C126.626 35.9078 127.11 36.0022 127.547 36.1911C127.984 36.38 128.373 36.6397 128.704 36.982C129.022 37.3125 129.27 37.702 129.435 38.1624C129.612 38.6227 129.707 39.1185 129.707 39.6615L129.683 39.6497Z" fill="black"/>
<path d="M141.689 43.7575L139.847 40.7947C140.296 40.4878 140.674 40.0982 140.945 39.6497C141.311 39.0595 141.5 38.3748 141.5 37.6194C141.5 36.8285 141.311 36.1084 140.957 35.5064C140.603 34.8926 140.095 34.4087 139.458 34.0663C138.82 33.7122 138.088 33.5352 137.286 33.5352H134.736C134.37 33.5352 134.051 33.665 133.815 33.9011C133.556 34.149 133.414 34.4795 133.414 34.8572V44.4421C133.414 44.8081 133.544 45.1268 133.804 45.3865C134.323 45.9058 135.232 45.8704 135.68 45.3865C135.928 45.1386 136.07 44.8081 136.07 44.4421V41.5029H137.227L139.481 45.1386C139.611 45.351 139.776 45.5045 139.989 45.6225C140.19 45.717 140.402 45.7642 140.626 45.7642C141.146 45.7642 141.559 45.5281 141.795 45.0795C142.007 44.6546 141.972 44.1706 141.701 43.7221L141.689 43.7575ZM136.07 36.0848H137.298C137.64 36.0848 137.923 36.1439 138.159 36.2855C138.395 36.4154 138.572 36.5924 138.714 36.8167C138.856 37.0528 138.915 37.3125 138.915 37.6194C138.915 37.8909 138.856 38.1151 138.726 38.3158C138.596 38.5165 138.419 38.6817 138.183 38.7998C137.935 38.9178 137.64 38.9768 137.298 38.9768H136.07V36.073V36.0848Z" fill="black"/>
</svg>
