<svg width="201" height="91" viewBox="0 0 201 91" fill="none" xmlns="http://www.w3.org/2000/svg">
<path d="M105.034 41.125V46.4049H106.333V49.3449C104.712 47.9608 102.709 47.2079 100.646 47.2072C95.5661 47.2072 91.4479 51.6739 91.4479 57.1839C91.4478 62.6939 95.566 67.1607 100.646 67.1607C102.71 67.1567 104.713 66.3998 106.333 65.0116V66.6604H114.395V61.3992H113.095V41.125H105.034ZM43.484 41.5311C35.7889 41.531 29.5507 47.2756 29.5508 54.362C29.5507 61.4483 35.7889 67.1929 43.484 67.1928C51.1791 67.1928 57.4171 61.4482 57.4171 54.362C57.4171 47.2757 51.1791 41.5311 43.484 41.5311ZM81.5104 42.9579V47.8249H79.0937L79.1312 53.053L81.5453 53.0505V61.2673C81.5453 62.983 82.8442 66.0515 86.6745 66.668H91.183V61.2673H89.3492C88.9768 61.1935 88.4828 60.9305 88.3536 60.2887V53.0505H91.183V47.7952H88.2983V42.9578L81.5104 42.9579ZM125.07 47.1871C119.16 47.1871 114.369 51.6301 114.369 57.1108C114.369 62.5914 119.16 67.0342 125.07 67.0342C130.98 67.0342 135.771 62.5914 135.771 57.1108C135.771 51.6301 130.98 47.1871 125.07 47.1871ZM147.332 47.2832C141.422 47.2832 136.631 51.7262 136.631 57.2069C136.631 62.6875 141.422 67.1304 147.332 67.1304C153.242 67.1304 158.033 62.6875 158.033 57.2069C158.033 51.7262 153.242 47.2832 147.332 47.2832ZM172.461 47.4101C170.597 47.4758 168.379 48.002 166.41 49.8058V47.6733H158.348V53.0566H159.494V61.4133H158.348V66.6604H167.714V61.4133H166.41V58.4867C166.41 58.4867 167.026 54.5692 172.461 54.4564V47.4101ZM57.6222 47.7954V53.0427H58.8811V61.1963C58.8811 61.1963 59.3313 67.5313 65.6902 67.2763C68.3305 67.1704 70.1123 66.2776 71.2959 65.2698H71.3191V66.793H79.3904V61.532H78.0873V47.7954H71.8717H71.2849H70.0161V53.0508H71.2849V58.7182C71.1832 59.365 70.7029 61.3495 68.6239 61.3709C65.6902 61.4011 65.6902 58.1498 65.6902 58.1498V47.7954H57.6222ZM43.3618 47.8234C46.8275 47.8234 49.6369 50.7636 49.637 54.3906C49.6369 58.0176 46.8275 60.9578 43.3618 60.9578C39.8962 60.9578 37.0867 58.0176 37.0867 54.3906C37.0867 50.7636 39.8962 47.8234 43.3618 47.8234ZM125.117 52.8188C127.417 52.8189 129.281 54.7444 129.281 57.1195C129.281 59.4946 127.417 61.42 125.117 61.4201C122.817 61.4201 120.953 59.4947 120.953 57.1195C120.953 54.7443 122.817 52.8188 125.117 52.8188ZM102.375 52.915C104.317 52.9162 105.982 54.3995 106.333 56.4419V57.9914C105.984 60.0363 104.319 61.5229 102.375 61.5245C100.152 61.5245 98.3499 59.5972 98.3499 57.2197C98.3499 54.8423 100.152 52.915 102.375 52.915ZM147.379 52.915C149.679 52.9151 151.543 54.8405 151.543 57.2156C151.543 59.5907 149.679 61.5161 147.379 61.5162C145.079 61.5162 143.215 59.5908 143.215 57.2156C143.215 54.8404 145.079 52.9149 147.379 52.915ZM113.401 71.3014C112.134 71.3014 110.92 71.7904 110.024 72.6607C109.128 73.531 108.625 74.7115 108.625 75.9423C108.625 77.1732 109.128 78.3536 110.024 79.224C110.92 80.0944 112.134 80.5834 113.401 80.5834C114.099 80.5825 114.788 80.4332 115.42 80.1458C116.051 79.8584 116.611 79.4399 117.058 78.9199L116.17 78.246C115.825 78.6486 115.396 78.9722 114.911 79.1942C114.426 79.4162 113.898 79.5313 113.363 79.5313C112.881 79.5313 112.404 79.438 111.959 79.2567C111.514 79.0754 111.11 78.8096 110.769 78.4746C110.429 78.1396 110.158 77.7419 109.974 77.3042C109.79 76.8665 109.695 76.3974 109.695 75.9236C109.695 75.4499 109.79 74.9807 109.974 74.543C110.158 74.1053 110.429 73.7076 110.769 73.3726C111.11 73.0376 111.514 72.7719 111.959 72.5906C112.404 72.4093 112.881 72.3159 113.363 72.316C113.895 72.3167 114.42 72.4312 114.902 72.6514C115.385 72.8717 115.813 73.1925 116.156 73.5917C116.43 73.3249 116.666 73.092 116.935 72.8283C116.488 72.3484 115.943 71.9647 115.334 71.7017C114.725 71.4388 114.067 71.3024 113.401 71.3014ZM118.424 71.6222V80.2583H119.45V76.299H124.692V80.2583H125.718V71.6222H124.692V75.4221H119.45V71.6222H118.424ZM131.311 71.6222L127.177 80.2583H128.312L129.364 77.9996H134.244L135.255 80.2583H136.471L132.338 71.6222H131.311ZM138.038 71.6222V80.2583H139.038V73.2431L144.816 80.2583H145.657V71.6222H144.63V78.5576L139.038 71.6222H138.038ZM148.034 71.6222V80.2583H149.034V73.2431L154.813 80.2583H155.653V71.6222H154.627V78.5576L149.034 71.6222H148.034ZM157.977 71.6222V80.2583H158.679H159.111H164.542V79.408H159.111V76.3787H163.975V75.4221H159.111V72.4725H164.515V71.6222H159.111H157.977ZM166.433 71.6222V80.2583H167.622H172.485V79.3282H167.622V71.6222H166.433ZM131.851 72.6585L133.851 77.1227H129.772L131.851 72.6585Z" fill="black"/>
<path d="M89.4804 11.3203L57.4189 42.8978L89.5693 23.1809L113.344 34.8197L89.4804 11.3203Z" fill="#7CB242"/>
</svg>
