<svg width="201" height="91" viewBox="0 0 201 91" fill="none" xmlns="http://www.w3.org/2000/svg">
<path d="M185.943 19.4798H176.959C176.959 19.4798 176.959 49.0847 176.959 50.5597C171.61 43.6987 159.311 27.9561 154.785 21.9573C153.076 19.6979 149.541 19.4746 149.541 19.4746H140.714C140.714 19.4746 140.651 23.7959 140.651 25.3696V72.6959H148.87C148.87 72.6959 151.114 72.3219 151.114 68.4214V39.0398C151.487 39.528 174.017 69.1641 175.365 70.9144C176.713 72.6647 179.44 72.7115 179.45 72.7115H185.917L185.943 19.4798Z" fill="url(#paint0_linear_2048_37957)"/>
<path d="M51.1071 19.0435H51.0651C50.7819 18.976 50.504 18.9085 50.226 18.8565C48.4707 18.4884 46.6814 18.3021 44.8871 18.3008H44.5724C28.7289 18.3008 15.8799 30.8387 15.8799 46.2956C15.8799 61.7525 28.7289 74.3008 44.5724 74.3008C60.416 74.3008 73.2598 61.7629 73.2598 46.2956C73.2493 33.0357 63.7935 21.9365 51.1071 19.0435ZM56.0054 57.1248C55.6181 59.2705 54.6044 61.2567 53.0895 62.838C51.9877 63.9746 50.6604 64.8732 49.1911 65.4774C47.7218 66.0816 46.1421 66.3784 44.5515 66.349C42.9582 66.3805 41.3755 66.0848 39.9033 65.4806C38.4312 64.8763 37.1013 63.9765 35.9977 62.838C34.4865 61.2549 33.4749 59.2692 33.087 57.1248C32.7094 55.1563 32.5311 51.4842 32.5311 46.1138C32.5311 40.7434 32.7094 37.0817 33.087 35.1081C33.4725 32.9628 34.4845 30.9765 35.9977 29.3948C37.1018 28.2572 38.4318 27.3584 39.904 26.7551C41.3761 26.1517 42.9585 25.8568 44.5515 25.889C46.142 25.8571 47.722 26.1521 49.1915 26.7556C50.6611 27.359 51.9884 28.2577 53.0895 29.3948C54.6064 30.9746 55.6205 32.9616 56.0054 35.1081C56.376 37.0817 56.5631 40.7503 56.5666 46.1138C56.5701 51.4773 56.383 55.1476 56.0054 57.1248Z" fill="url(#paint1_linear_2048_37957)"/>
<path d="M128.747 19.4798C128.747 19.4798 126.229 20.4199 125.149 24.3256L116.81 53.0736L109.074 25.2346C109.033 25.0839 108.996 24.9437 108.964 24.7931L107.48 19.4798H99.1571L89.7957 53.0943V53.0632L81.5409 23.4583C80.6966 19.9109 77.9747 19.4746 77.9747 19.4746H69.2951C69.2951 19.4746 70.1394 22.8921 70.8265 25.219C70.9681 25.702 71.1044 26.1954 71.2145 26.6888L82.3643 68.4421L83.5076 72.6959H93.9966L103.295 39.7773L113.066 72.7063H123.145L137.316 19.4798H128.747Z" fill="url(#paint2_linear_2048_37957)"/>
<defs>
<linearGradient id="paint0_linear_2048_37957" x1="185.954" y1="-19.8457" x2="25.2869" y2="-33.4852" gradientUnits="userSpaceOnUse">
<stop stop-color="#A07C21"/>
<stop offset="0.476005" stop-color="#F9CD70"/>
<stop offset="1" stop-color="#8D6A10"/>
</linearGradient>
<linearGradient id="paint1_linear_2048_37957" x1="185.954" y1="-19.8457" x2="25.2869" y2="-33.4852" gradientUnits="userSpaceOnUse">
<stop stop-color="#A07C21"/>
<stop offset="0.476005" stop-color="#F9CD70"/>
<stop offset="1" stop-color="#8D6A10"/>
</linearGradient>
<linearGradient id="paint2_linear_2048_37957" x1="185.954" y1="-19.8457" x2="25.2869" y2="-33.4852" gradientUnits="userSpaceOnUse">
<stop stop-color="#A07C21"/>
<stop offset="0.476005" stop-color="#F9CD70"/>
<stop offset="1" stop-color="#8D6A10"/>
</linearGradient>
</defs>
</svg>
