<svg width="201" height="91" viewBox="0 0 201 91" fill="none" xmlns="http://www.w3.org/2000/svg">
<path d="M64.596 14.3815C63.4594 14.3815 62.7856 14.845 62.3644 15.5183C61.4806 16.9503 61.3122 19.983 61.3122 25.4585C61.3122 30.9335 61.4805 33.9661 62.3644 35.3982C62.7856 36.0722 63.4594 36.535 64.596 36.535C65.7327 36.535 66.4486 36.0722 66.8694 35.3982C67.7533 33.9662 67.8796 30.9335 67.8796 25.4585C67.8796 19.983 67.7533 16.9503 66.8694 15.5183C66.4486 14.845 65.7325 14.3815 64.596 14.3815ZM144.293 80.408H140.125L133.052 62.5926V80.408H128.337V50.4205H132.547L139.578 68.2359V50.4205H144.293V80.408ZM114.82 28.7016V40.4521H110.105V28.7016L104.295 10.4644H109.516L112.462 22.3413L115.451 10.4644H120.63L114.82 28.7016ZM118.708 54.6744H110.835V63.182H117.614V67.4363H110.835V76.1539H118.708V80.4079H106.12V50.4205H118.708V54.6744ZM91.9318 40.4521L88.4793 29.67L85.0272 40.4521H79.8487L85.785 24.9111L80.3119 10.4644H85.4901L88.4793 20.4883L91.4686 10.4642H96.6468L91.0476 24.9111L97.1098 40.452L91.9318 40.4521ZM86.202 75.354C86.6231 76.0281 87.2968 76.4913 88.4335 76.4913C90.4964 76.4913 91.3804 74.722 91.3804 72.6586V67.9837H88.4335V64.1082H96.0958V72.4053C96.0958 77.8811 92.9382 80.7452 88.4335 80.7452C85.6547 80.7452 83.8444 79.6502 82.6237 78.1762C80.645 75.817 80.4342 72.5321 80.4342 65.4146C80.4342 58.2964 80.645 55.0114 82.6237 52.6529C83.8444 51.1783 85.6546 50.0831 88.4335 50.0831C90.7491 50.0831 92.5174 50.8409 93.7804 52.1044C95.2539 53.6209 96.0117 55.8112 96.0958 58.3802H91.3804C91.3386 56.7377 91.0017 54.3371 88.4335 54.3371C87.2968 54.3371 86.6231 54.8007 86.202 55.4744C85.276 56.9062 85.1498 59.9388 85.1498 65.4145C85.1498 70.8896 85.2759 73.9222 86.202 75.354ZM70.4058 38.2202C69.1847 39.6941 67.3745 40.7891 64.5958 40.7891C61.8171 40.7891 60.0067 39.694 58.7861 38.2202C56.8072 35.819 56.5966 32.576 56.5966 25.4585C56.5966 18.3404 56.8072 15.0973 58.7861 12.6969C60.0067 11.2222 61.817 10.1271 64.5958 10.1271C67.3744 10.1271 69.1847 11.2222 70.4058 12.6969C72.4264 15.0555 72.5948 18.3404 72.5948 25.4585C72.5948 32.5759 72.4264 35.8609 70.4058 38.2202ZM129.88 40.4142V27.9141H132.38V0.414062H44.8799V27.9141H47.3799V50.4141H69.8799V62.9141H67.38V90.4141H154.88V67.9141H157.38V40.4142H129.88Z" fill="#E9DC01"/>
<path d="M64.596 14.3814C63.4594 14.3814 62.7856 14.8449 62.3644 15.5182C61.4806 16.9502 61.3122 19.9829 61.3122 25.4583C61.3122 30.9334 61.4805 33.9659 62.3644 35.3981C62.7856 36.072 63.4594 36.5349 64.596 36.5349C65.7327 36.5349 66.4486 36.072 66.8694 35.3981C67.7533 33.966 67.8796 30.9334 67.8796 25.4583C67.8796 19.9829 67.7533 16.9502 66.8694 15.5182C66.4486 14.8449 65.7326 14.3814 64.596 14.3814ZM144.293 80.4078H140.125L133.052 62.5925V80.4078H128.337V50.4204H132.547L139.578 68.2358V50.4204H144.293V80.4078ZM114.82 28.7015V40.452H110.105V28.7015L104.295 10.4642H109.516L112.462 22.3412L115.451 10.4642H120.63L114.82 28.7015ZM118.708 54.6743H110.835V63.1818H117.614V67.4361H110.835V76.1538H118.708V80.4077H106.12V50.4204H118.708V54.6743ZM91.9318 40.452L88.4793 29.6699L85.0272 40.452H79.8487L85.785 24.9109L80.3119 10.4642H85.4902L88.4793 20.4882L91.4686 10.4641H96.6468L91.0477 24.9109L97.1098 40.4519L91.9318 40.452ZM86.2021 75.3539C86.6232 76.028 87.2968 76.4911 88.4335 76.4911C90.4964 76.4911 91.3804 74.7219 91.3804 72.6585V67.9836H88.4335V64.1081H96.0959V72.4052C96.0959 77.881 92.9382 80.7451 88.4335 80.7451C85.6548 80.7451 83.8444 79.65 82.6238 78.1761C80.645 75.8168 80.4342 72.5319 80.4342 65.4145C80.4342 58.2963 80.645 55.0113 82.6238 52.6527C83.8444 51.1782 85.6546 50.083 88.4335 50.083C90.7491 50.083 92.5175 50.8408 93.7804 52.1043C95.2539 53.6208 96.0117 55.8111 96.0959 58.3801H91.3804C91.3386 56.7376 91.0018 54.337 88.4335 54.337C87.2968 54.337 86.6232 54.8006 86.2021 55.4742C85.2761 56.906 85.1499 59.9387 85.1499 65.4144C85.1499 70.8894 85.276 73.9221 86.2021 75.3539ZM70.4058 38.2201C69.1848 39.694 67.3745 40.7889 64.5959 40.7889C61.8171 40.7889 60.0068 39.6939 58.7862 38.2201C56.8073 35.8189 56.5967 32.5759 56.5967 25.4583C56.5967 18.3402 56.8073 15.0972 58.7862 12.6968C60.0068 11.222 61.817 10.127 64.5959 10.127C67.3744 10.127 69.1848 11.222 70.4058 12.6968C72.4264 15.0554 72.5949 18.3402 72.5949 25.4583C72.5949 32.5758 72.4264 35.8608 70.4058 38.2201Z" fill="black"/>
</svg>
