<svg width="201" height="91" viewBox="0 0 201 91" fill="none" xmlns="http://www.w3.org/2000/svg">
<path d="M147.69 46.0632C147.69 56.2695 139.191 64.5541 128.721 64.5541C118.25 64.5541 109.751 56.2695 109.751 46.0632C109.751 35.8569 118.25 27.5723 128.721 27.5723C139.191 27.5723 147.69 35.8388 147.69 46.0632Z" fill="white"/>
<path fill-rule="evenodd" clip-rule="evenodd" d="M147.69 46.0632C147.69 56.2695 139.191 64.5541 128.721 64.5541C118.25 64.5541 109.751 56.2695 109.751 46.0632C109.751 35.8569 118.25 27.5723 128.721 27.5723C139.191 27.5723 147.69 35.8388 147.69 46.0632ZM135.453 45.2656L129.93 34.9686H124.22C119.013 34.9324 114.772 39.0294 114.735 44.1053C114.735 44.1235 114.735 44.1597 114.735 44.1778C114.791 47.7673 117.264 50.8853 120.798 51.8461V57.1396H129.334V52.7163H130.413C131.808 52.7163 132.887 51.683 132.887 50.4321V46.6252L134.988 46.2082C135.341 46.1538 135.602 45.8457 135.565 45.4831C135.527 45.4287 135.49 45.3381 135.453 45.2656ZM128.274 44.6673C127.084 44.6673 126.117 43.7246 126.117 42.5644C126.117 41.4042 127.084 40.4615 128.274 40.4615C129.465 40.4615 130.432 41.4042 130.432 42.5644C130.432 43.7246 129.465 44.6673 128.274 44.6673ZM142.557 46.2445L140.456 46.6614V50.4684C140.456 51.7555 139.377 52.7526 137.982 52.7526H136.904V57.1759H133.426V52.7526H134.505C135.899 52.7526 136.978 51.7193 136.978 50.4684V46.6614L139.08 46.2445C139.47 46.1538 139.693 45.7731 139.6 45.4106C139.582 45.3562 139.563 45.3199 139.545 45.2656L134.021 34.9686H137.48L143.004 45.2656C143.245 45.6462 143.004 46.1538 142.557 46.2445Z" fill="#2638C4"/>
<path d="M195.207 43.9963C193.124 42.9449 191.469 42.0928 191.469 40.4794C191.469 39.3192 192.473 38.6303 194.184 38.6303C196.193 38.6303 197.978 39.2648 199.354 40.0625V35.8929C197.718 35.2041 195.97 34.8415 194.184 34.7871C189.181 34.7871 186.95 37.6876 186.95 40.842C186.95 44.5402 189.498 46.3168 192.306 47.7489C195.077 49.181 196.118 49.7974 196.118 51.3383C196.118 52.6436 194.965 53.3868 193.012 53.3868C190.855 53.3506 188.772 52.5892 187.136 51.2114V55.6529C188.884 56.7224 190.892 57.3388 192.957 57.3932C197.811 57.3932 200.879 54.9277 200.879 50.9576C200.898 46.8062 197.29 45.0478 195.207 43.9963ZM158.179 34.9684H152.172V57.1575H156.654V50.1056H157.547C163.163 50.1056 166.641 47.205 166.641 42.5279C166.66 37.7964 163.498 34.9684 158.179 34.9684ZM156.654 38.6666H157.974C160.615 38.6666 162.289 40.1531 162.289 42.4373C162.289 44.9209 160.727 46.3349 157.993 46.3349H156.654V38.6666ZM180.961 45.2109C182.486 44.1776 183.23 42.6729 183.23 40.6426C183.23 37.1438 180.589 34.9684 176.33 34.9684H169.375V57.1575H176.609C182.17 57.1575 184.699 53.6587 184.699 50.4319C184.848 48.0571 183.286 45.8998 180.961 45.2109ZM175.977 38.721C177.744 38.721 178.878 39.7724 178.878 41.4402C178.878 43.108 177.632 44.1957 175.735 44.1957H173.838V38.7572H175.977V38.721ZM173.838 53.4593V47.6583H176.684C178.953 47.6583 180.292 48.7278 180.292 50.5407C180.292 52.4623 178.953 53.4412 176.256 53.4412H173.838V53.4593Z" fill="#2638C4"/>
<path d="M12.2431 47.2046C13.1358 45.3374 13.9169 43.6877 14.698 42.0199C15.7023 39.917 16.7066 37.8141 17.6922 35.7112C17.9154 35.2399 18.1758 35.0223 18.7337 35.0586C19.7938 35.113 20.8352 35.113 21.8953 35.0586C22.4532 35.0404 22.695 35.258 22.9182 35.7293C24.5548 39.21 26.21 42.6725 27.8838 46.135C28.0326 46.4251 28.1814 46.7151 28.4231 47.1865C30.2271 43.0532 31.9567 39.0649 33.6863 35.0948C35.6762 35.0948 37.629 35.0948 39.6933 35.0948C39.5632 35.4211 39.4888 35.7112 39.3586 35.965C36.29 42.89 33.2213 49.7969 30.1899 56.722C29.9109 57.3565 29.5576 57.4834 28.9067 57.5559C27.7164 57.6646 27.1213 57.2658 26.6191 56.1781C24.7408 52.1355 22.7508 48.1654 20.7795 44.159C20.6493 43.8871 20.5005 43.6333 20.2959 43.2163C19.552 44.7391 18.8639 46.135 18.1758 47.549C16.6694 50.6308 15.1815 53.6945 13.6937 56.7945C13.4334 57.3383 13.1172 57.4652 12.5221 57.5377C11.2016 57.7009 10.6251 57.1933 10.1044 55.9968C7.24031 49.3437 4.24607 42.7269 1.28903 36.0919C1.15885 35.8018 1.04726 35.4937 0.879883 35.0586C2.81405 35.0586 4.67382 35.0404 6.51499 35.0948C6.75677 35.0948 7.09152 35.4937 7.20311 35.7656C8.76532 39.2825 10.2903 42.7994 11.8339 46.3163C11.9269 46.552 12.0385 46.7695 12.2431 47.2046Z" fill="black"/>
<path d="M40.1584 35.0943C42.074 35.0943 43.878 35.0943 45.8307 35.0943C45.8307 35.4931 45.8307 35.8376 45.8307 36.182C45.8307 39.8983 45.8493 43.6146 45.8121 47.3309C45.7935 49.5064 46.463 51.3011 48.5646 52.2437C50.8149 53.2589 53.1024 53.1502 55.1668 51.7361C56.45 50.866 57.0266 49.5426 57.0452 48.0561C57.1009 44.1041 57.1009 40.1521 57.1009 36.182C57.1009 35.8376 57.1009 35.475 57.1009 35.0762C59.0351 35.0762 60.8577 35.0762 62.7918 35.0762C62.7918 35.4206 62.7918 35.7469 62.7918 36.0551C62.7918 39.8077 62.7918 43.5421 62.7918 47.2947C62.7918 53.549 59.5001 57.0115 53.0838 57.4466C50.7219 57.6097 48.3786 57.5191 46.1097 56.7033C42.4087 55.3618 40.3072 52.7332 40.1584 48.9444C40.0096 44.3942 40.1584 39.7895 40.1584 35.0943Z" fill="black"/>
<path d="M70.6772 48.1835C70.6772 51.3016 70.6772 54.2203 70.6772 57.2114C68.7988 57.2114 66.9762 57.2114 65.0978 57.2114C65.0978 49.8513 65.0978 42.5093 65.0978 35.1311C70.268 35.1311 75.3824 35.1311 80.5898 35.1311C80.5898 36.4545 80.5898 37.7597 80.5898 39.1737C77.3538 39.1737 74.0806 39.1737 70.7516 39.1737C70.7516 40.8596 70.7516 42.4368 70.7516 44.1046C74.0434 44.1046 77.298 44.1046 80.6084 44.1046C80.6084 45.4824 80.6084 46.7695 80.6084 48.1835C77.3352 48.1835 74.062 48.1835 70.6772 48.1835Z" fill="black"/>
<path d="M90.428 39.21C87.6383 39.21 84.9788 39.21 82.2636 39.21C82.2636 37.8322 82.2636 36.527 82.2636 35.1311C89.5725 35.1311 96.8628 35.1311 104.227 35.1311C104.227 36.4363 104.227 37.7778 104.227 39.1918C101.549 39.1918 98.9085 39.1918 96.1561 39.1918C96.1561 45.2286 96.1561 51.1928 96.1561 57.2658C94.3335 57.2658 92.6039 57.284 90.8743 57.2477C90.7255 57.2477 90.4652 56.9214 90.4466 56.722C90.3908 56.2506 90.428 55.7612 90.428 55.2717C90.428 50.3227 90.428 45.3555 90.428 40.4064C90.428 40.0439 90.428 39.6813 90.428 39.21Z" fill="black"/>
</svg>
