<svg width="201" height="91" viewBox="0 0 201 91" fill="none" xmlns="http://www.w3.org/2000/svg">
<path fill-rule="evenodd" clip-rule="evenodd" d="M66.4209 64.0255L28.8992 78.4276V63.5663L52.9682 54.2814C53.821 54.0962 54.4925 53.2973 54.4925 52.3905C54.4925 51.8193 54.2725 51.3099 53.875 50.9626L54.0912 51.0436L32.9859 35.399L32.7004 35.1752C30.3386 32.744 28.8799 29.429 28.8799 25.7706C28.8799 18.3226 34.9155 12.2832 42.3635 12.2832C42.676 12.2832 43.0118 12.2485 43.3166 12.2716H71.2833V26.5386H50.8457H51.0965C50.0507 26.5386 49.2017 27.3876 49.2017 28.4334C49.2017 29.0894 49.5182 29.6336 50.0237 29.9732L69.4888 44.4948C72.0474 46.6096 73.5331 49.693 73.5331 53.2703C73.5331 58.071 70.5964 62.2967 66.4209 64.0255Z" fill="#EF3E33"/>
<path fill-rule="evenodd" clip-rule="evenodd" d="M135.335 64.0255L172.857 78.4276V63.5663L148.791 54.2814C147.935 54.0962 147.263 53.2973 147.263 52.3905C147.263 51.8193 147.483 51.3099 147.881 50.9626L147.665 51.0436L168.77 35.399L169.055 35.1752C171.417 32.744 172.88 29.429 172.88 25.7706C172.88 18.3226 166.84 12.2832 159.388 12.2832C159.08 12.2832 158.744 12.2485 158.435 12.2716H130.472V26.5386H150.91H150.659C151.709 26.5386 152.554 27.3876 152.554 28.4334C152.554 29.0894 152.238 29.6336 151.732 29.9732L132.267 44.4948C129.708 46.6096 128.223 49.693 128.223 53.2703C128.223 58.071 131.159 62.2967 135.335 64.0255Z" fill="#EF3E33"/>
<path d="M92.9314 18.3847C92.9314 14.9462 90.2609 12.16 86.8225 12.16L76.0596 12.1484L76.0711 23.278H92.9275L92.9314 18.3847Z" fill="#EF3E33"/>
<path d="M125.567 12.1484L114.8 12.16C111.366 12.16 108.695 14.9463 108.695 18.3847L108.703 23.278H125.556L125.567 12.1484Z" fill="#EF3E33"/>
<path d="M108.727 51.6021C107.951 55.2798 104.686 58.12 100.781 58.12C96.8719 58.12 93.6727 55.2798 92.8971 51.6021L92.9048 42.6992H76.0908L76.1024 55.6657C76.2104 58.5059 78.3406 62.0486 80.5673 64.2714C85.6574 68.7093 92.5729 71.4184 100.04 71.4184C100.306 71.4184 100.523 71.4145 100.789 71.4068C101.051 71.4145 101.318 71.4184 101.584 71.4184C109.051 71.4184 115.967 68.7093 121.057 64.2714C123.287 62.0486 125.414 58.5059 125.522 55.6657L125.537 42.6992H108.719L108.727 51.6021Z" fill="#EF3E33"/>
<path fill-rule="evenodd" clip-rule="evenodd" d="M79.4034 27.8517V32.3899H81.0165C82.1781 32.3899 82.9537 32.3089 83.3474 32.1391C83.7371 31.9732 84.042 31.7108 84.262 31.3557C84.4896 30.9968 84.6016 30.5839 84.6016 30.1092C84.6016 29.5265 84.4433 29.048 84.1308 28.6698C83.822 28.2916 83.4245 28.0562 82.946 27.9597C82.5949 27.8903 81.8886 27.8517 80.8274 27.8517H79.4034ZM76.4551 41.1423V25.1465H81.1863C82.9769 25.1465 84.1462 25.2237 84.6903 25.3857C85.5277 25.625 86.2262 26.1498 86.7897 26.9564C87.3531 27.7591 87.6386 28.7933 87.6386 30.0668C87.6386 31.047 87.4727 31.8767 87.1485 32.5443C86.8244 33.2119 86.4076 33.7406 85.9059 34.1265C85.4081 34.5047 84.8987 34.7556 84.3816 34.879C83.6792 35.0295 82.6605 35.1067 81.3252 35.1067H79.4034V41.1423H76.4551Z" fill="#EF3E33"/>
<path d="M88.5156 41.1423V25.1465H99.3403V27.8517H91.4639V31.3982H98.7923V34.0918H91.4639V38.4487H99.6182V41.1423H88.5156Z" fill="#EF3E33"/>
<path fill-rule="evenodd" clip-rule="evenodd" d="M103.535 31.9114H105.716C107.128 31.9114 108.012 31.8458 108.363 31.7146C108.714 31.5834 108.992 31.3596 109.189 31.0393C109.389 30.719 109.49 30.3176 109.49 29.8391C109.49 29.2988 109.355 28.8666 109.092 28.5386C108.834 28.2067 108.463 27.9945 107.985 27.9057C107.745 27.871 107.028 27.8517 105.835 27.8517H103.535V31.9114ZM100.587 41.1423V25.1465H106.792C108.351 25.1465 109.482 25.2931 110.184 25.5826C110.894 25.8681 111.462 26.3775 111.886 27.1107C112.315 27.844 112.523 28.6852 112.523 29.6307C112.523 30.8309 112.203 31.8227 111.558 32.6099C110.918 33.3894 109.953 33.8795 108.672 34.0841C109.308 34.4893 109.833 34.9369 110.246 35.4232C110.663 35.9133 111.226 36.7777 111.929 38.0203L113.712 41.1423H110.184L108.054 37.6614C107.298 36.4188 106.781 35.6354 106.503 35.3151C106.225 34.9871 105.928 34.7671 105.615 34.6514C105.303 34.5279 104.809 34.4661 104.133 34.4661H103.535V41.1423H100.587Z" fill="#EF3E33"/>
<path d="M113.744 25.1465H116.689V33.8101C116.689 35.1839 116.727 36.0754 116.801 36.4844C116.924 37.1366 117.225 37.6653 117.696 38.0666C118.174 38.4564 118.827 38.6532 119.649 38.6532C120.482 38.6532 121.115 38.468 121.539 38.0975C121.964 37.7193 122.219 37.2562 122.307 36.7121C122.392 36.168 122.435 35.2611 122.435 33.9953V25.1465H125.383V33.5477C125.383 35.4695 125.302 36.824 125.144 37.619C124.986 38.4101 124.688 39.0816 124.256 39.6257C123.832 40.1698 123.264 40.6059 122.543 40.9339C121.829 41.2542 120.891 41.4163 119.737 41.4163C118.344 41.4163 117.283 41.2388 116.561 40.8915C115.843 40.5364 115.276 40.0772 114.859 39.5176C114.439 38.9504 114.165 38.3561 114.034 37.7386C113.841 36.8202 113.744 35.4695 113.744 33.6789V25.1465Z" fill="#EF3E33"/>
</svg>
