<svg width="201" height="92" viewBox="0 0 201 92" fill="none" xmlns="http://www.w3.org/2000/svg">
<path d="M159.316 47.2517C157.515 45.6203 158.158 43.0372 158.825 42.0298C168.387 32.7456 165.865 22.4976 165.11 19.2443C164.356 15.991 158.404 1.71875 141.245 1.71875C124.087 1.71875 119.901 17.8018 119.901 17.8018L106.817 18.1839L106.264 10.6046C106.264 10.6046 105.856 3.1612 97.6985 3.50787C89.5414 3.85455 90.6603 11.0233 90.6603 11.0233L91.0505 18.9085L77.7572 19.2008C76.9483 15.9379 68.6022 5.07812 56.7934 4.83068C44.9847 4.58325 36.9241 10.4822 33.4587 23.1624C29.9933 35.8426 43.1955 47.4407 43.806 48.1558C44.4164 48.8709 43.651 50.4778 43.3437 50.9863C39.5928 54.4544 35.8242 60.4363 36.1383 70.1555C36.4523 79.8746 46.1661 91.9662 60.7387 91.7187C75.3114 91.4713 80.464 79.0562 80.464 79.0562C80.464 79.0562 126.008 77.7592 125.872 77.5703C128.765 82.7922 135.507 86.35 137.195 86.9604C138.884 87.5709 158.602 93.1326 166.384 75.9008C174.166 58.6689 161.112 48.8858 159.316 47.2517ZM94.52 10.9825C94.6532 10.164 95.026 9.40329 95.5915 8.79669C96.157 8.19009 96.8897 7.76481 97.6969 7.57464C98.5041 7.38446 99.3495 7.43794 100.126 7.72829C100.903 8.01865 101.576 8.53285 102.061 9.20586C102.546 9.87887 102.82 10.6805 102.849 11.5093C102.878 12.338 102.66 13.1568 102.224 13.862C101.787 14.5672 101.152 15.1271 100.397 15.471C99.6422 15.8149 98.8025 15.9272 97.984 15.7938C96.8867 15.615 95.9054 15.0077 95.2558 14.1054C94.6062 13.2032 94.3415 12.0799 94.52 10.9825Z" fill="#00488F"/>
<path d="M158.663 42.307C158.069 43.4531 157.662 45.7536 159.316 47.2517C159.419 47.3452 159.559 47.4655 159.729 47.6124C162.539 50.0305 173.721 59.6556 166.384 75.9008C158.602 93.1326 138.884 87.5708 137.195 86.9604C135.507 86.35 128.765 82.7921 125.872 77.5702C126.008 77.7592 80.4642 79.0562 80.4642 79.0562C80.4642 79.0562 75.3116 91.4713 60.7389 91.7187C46.1663 91.9662 36.4525 79.8746 36.1385 70.1554C35.8244 60.4363 39.593 54.4544 43.3439 50.9863C43.5109 50.71 43.8131 50.1094 43.9564 49.5037C51.0137 52.3864 59.8467 54.807 69.449 56.313C72.7667 56.8334 77.1253 57.3958 80.5051 57.6351C84.1635 57.8942 87.4041 57.8789 90.7319 57.8632L90.7336 57.8632C91.5354 57.8594 92.3423 57.8556 93.1613 57.8556C94.2018 57.8547 95.2344 57.8767 96.2636 57.8987C98.2721 57.9417 100.268 57.9843 102.282 57.8556C122.085 56.5901 145.584 51.033 158.663 42.307Z" fill="#002F77"/>
<path d="M149.16 58.8362L143.344 58.7899L137.428 42.9217H135.032L134.709 42.8986C134.681 43.4968 134.392 50.0428 134.407 51.9108C134.423 53.8699 134.76 54.2043 135.478 54.6013C136.196 54.9983 138.544 54.6529 138.544 54.6529L138.313 58.4718C138.313 58.4718 134.588 59.0387 131.82 58.5316C131.375 58.4568 130.952 58.2876 130.578 58.0354C130.578 58.0354 130.357 57.8892 130.05 57.5929C130.963 56.0689 131.44 54.3128 131.414 52.5184C131.38 50.2603 130.552 48.0862 129.075 46.3782L129.048 46.3479L129.005 42.9271H125.639L125.608 38.9696H129.025L129.056 33.5315L134.195 33.5532L134.101 38.9913H141.615L146.169 52.1093L146.459 52.0454L149.935 38.96L155.035 39.009L149.16 58.8362Z" fill="url(#paint0_linear_2048_37965)"/>
<path fill-rule="evenodd" clip-rule="evenodd" d="M86.091 51.7218L72.0227 52.3078C72.0227 52.3078 71.8636 57.0661 77.1318 57.1368C80.3158 57.1517 81.7963 54.0684 81.7963 54.0684L85.8503 54.0575C85.8503 54.0575 85.0238 62.5585 75.083 60.9665C66.6893 59.6546 66.8035 52.0998 66.8239 51.628C66.7891 50.4461 66.884 49.264 67.1067 48.1028C63.1777 53.235 53.6013 51.4853 53.6013 51.4853L53.9221 61.3513L48.1414 61.3255L47.1898 34.9032L47.1436 34.5035C47.1436 34.5035 57.0993 34.1147 58.0605 34.0481C59.0217 33.9815 67.4411 33.7871 68.594 40.4038C68.786 41.6564 68.8061 42.9294 68.6538 44.1874C70.0324 42.1223 72.4374 40.4446 76.6287 40.4841C87.1813 40.5819 86.0923 51.7218 86.0923 51.7218H86.091ZM53.2734 38.97L58.0317 38.6817C58.0317 38.6817 62.4624 38.6206 62.9314 41.6061C63.5636 45.6397 60.3361 46.5479 59.757 46.6771C59.1778 46.8062 53.5739 46.8987 53.5739 46.8987L53.2734 38.97ZM72.0034 49.0063C72.0034 49.0063 71.4297 44.804 75.9542 44.4804C80.4787 44.1555 80.7574 48.4489 80.7574 48.4489L72.0034 49.0063Z" fill="url(#paint1_linear_2048_37965)"/>
<path d="M113.405 57.2926C113.188 56.8986 112.997 56.4879 112.836 56.063C112.036 53.9513 112.005 51.625 112.75 49.493L112.756 49.4756C112.596 49.384 112.399 49.2723 112.164 49.1415C110.32 48.1451 108 47.7924 107.157 47.6644C107.077 47.6523 107.011 47.6422 106.96 47.6338C106.818 47.6107 106.615 47.5922 106.37 47.5699C104.826 47.4291 101.653 47.1398 102.279 44.636C102.635 42.7939 105.751 43.0508 106.023 43.0943C106.295 43.1378 108.81 44.3587 108.829 45.9765L113.923 45.4096C113.923 45.4096 113.016 38.9723 104.594 39.7241C96.5598 40.4413 96.9258 45.4772 97.0768 47.5566C97.0841 47.6568 97.0909 47.7507 97.0963 47.8363C97.2118 49.6989 100.806 50.7892 101.319 50.9007C101.432 50.9253 101.757 50.9722 102.205 51.0368C103.782 51.2642 106.886 51.7117 107.677 52.1881C108.694 52.7999 110.411 54.4504 108.322 56.1212C106.232 57.7921 101.107 56.1471 101.357 53.757C101.289 53.6619 96.4695 53.7421 96.4695 53.7421C96.4502 54.5138 96.589 55.2814 96.8774 55.9975C96.2112 56.075 94.6831 56.211 94.1284 55.9051C93.4106 55.5081 93.0721 55.1736 93.0571 53.2146C93.0422 51.2555 93.0177 43.32 93.0177 43.32H96.9277V39.7241H93.015L92.9538 34.8489L87.8923 34.7863V39.7798L84.0096 39.7187L84.1618 43.354L87.8325 43.32L87.91 56.3442C87.91 56.3442 87.7034 59.3283 90.4713 59.8354C93.2393 60.3425 96.9644 59.7756 96.9644 59.7756L97.1561 56.6039C98.0071 58.2149 99.8942 59.9714 104.057 60.3167C108.698 60.7014 111.416 59.6315 112.944 57.8233C112.944 57.8233 113.179 57.5824 113.405 57.2926Z" fill="url(#paint2_linear_2048_37965)"/>
<path d="M125.558 47.5665C125.558 47.5665 126.091 47.0376 126.59 47.0634C127.089 47.0893 128.036 48.1375 128.202 49.1707C128.368 50.2039 127.865 51.2399 127.865 51.2399C127.865 51.2399 126.73 53.0671 125.427 51.7932C124.125 50.5193 125.225 48.2353 125.558 47.5637V47.5665Z" fill="url(#paint3_linear_2048_37965)"/>
<path d="M123.376 46.2042C122.786 45.7175 122.349 45.6455 122.349 45.6455V45.6427C120.991 46.0927 120.366 47.8941 120.827 48.8077C121.288 49.7213 121.814 50.643 122.511 50.4785C123.209 50.314 124.185 49.8029 124.191 48.7411C124.198 47.6793 123.966 46.6909 123.376 46.2042Z" fill="url(#paint4_linear_2048_37965)"/>
<path d="M118.271 56.2714C117.818 56.644 116.494 56.5433 115.783 55.419C115.072 54.2947 114.948 52.9909 115.79 52.2921C115.79 52.2921 115.897 51.974 116.605 52.0896C117.314 52.2051 118.022 52.6565 118.733 53.7781C119.444 54.8997 118.722 55.8949 118.271 56.2687V56.2714Z" fill="url(#paint5_linear_2048_37965)"/>
<path d="M117.537 48.0491C116.531 48.8526 116.645 50.4731 117.401 51.3228V51.3201C118.155 52.1698 119.618 52.4716 120.162 51.8856C120.706 51.2997 120.806 49.9225 120.079 49.2455C119.352 48.5684 118.178 47.5379 117.537 48.0491Z" fill="url(#paint6_linear_2048_37965)"/>
<path d="M127.804 56.7609C127.688 56.8975 127.335 57.0124 126.848 57.1706C126.459 57.2973 125.983 57.4518 125.476 57.6677C124.991 57.8743 124.327 58.244 123.648 58.6224C122.732 59.1329 121.787 59.6593 121.213 59.8225C120.212 60.1066 119.566 58.5989 119.527 57.8159C119.488 57.0328 119.589 55.2953 120.434 52.598C120.551 52.2255 122.733 51.1841 123.305 51.4452C123.877 51.7062 124.514 52.2609 124.996 52.7272C125.257 52.9794 125.706 53.1828 126.24 53.4247C126.694 53.6301 127.208 53.8632 127.722 54.1778C128.841 54.863 128.012 56.5148 127.804 56.7595V56.7609Z" fill="url(#paint7_linear_2048_37965)"/>
<path d="M123.365 43.1847C121.136 42.8199 118.85 43.2523 116.909 44.4061C114.967 45.5598 113.495 47.361 112.75 49.493C112.005 51.625 112.036 53.9513 112.836 56.063C113.637 58.1747 115.156 59.9366 117.127 61.0389C119.098 62.1413 121.395 62.5136 123.613 62.0903C125.832 61.667 127.83 60.4753 129.256 58.7247C130.683 56.9741 131.447 54.7765 131.414 52.5184C131.38 50.2603 130.552 48.0862 129.075 46.3782C127.604 44.6779 125.583 43.5477 123.365 43.1847Z" fill="#BD2329"/>
<path fill-rule="evenodd" clip-rule="evenodd" d="M131.172 54.8027C130.381 56.095 128.963 56.4634 127.614 56.4634L120.177 55.807L118.498 55.58C118.479 55.571 118.391 55.5404 118.184 55.4682C117.814 55.3396 117.065 55.079 115.653 54.5726C113.245 53.709 112.466 52.3967 112.312 51.2845C112.4 50.6783 112.546 50.0783 112.75 49.493C112.005 51.6249 112.036 53.9513 112.836 56.0629C113.637 58.1746 115.156 59.9365 117.127 61.0389C119.098 62.1412 121.395 62.5135 123.613 62.0902C125.832 61.667 127.83 60.4753 129.256 58.7246C130.194 57.5739 130.846 56.23 131.172 54.8027ZM118.498 55.58L118.442 55.5726L118.446 55.5734C118.487 55.5818 118.511 55.5867 118.498 55.58Z" fill="url(#paint8_linear_2048_37965)"/>
<path d="M115.653 54.5726C113.245 53.7091 112.465 52.3967 112.312 51.2846C112.399 50.6784 112.545 50.0784 112.75 49.493C113.495 47.361 114.967 45.5598 116.909 44.4061C118.85 43.2523 121.136 42.8199 123.365 43.1847C125.583 43.5477 127.604 44.6779 129.075 46.3782C130.552 48.0862 131.38 50.2603 131.413 52.5184C131.425 53.2922 131.343 54.0588 131.172 54.8027C130.38 56.0951 128.963 56.4635 127.614 56.4635L120.176 55.807L118.497 55.5801C118.511 55.5867 118.487 55.5819 118.446 55.5735L118.442 55.5726L118.497 55.5801C118.479 55.571 118.391 55.5405 118.183 55.4681C117.814 55.3396 117.065 55.0791 115.653 54.5726Z" fill="url(#paint9_linear_2048_37965)"/>
<path d="M125.558 47.5665C125.558 47.5665 126.091 47.0376 126.59 47.0634C127.089 47.0893 128.036 48.1375 128.202 49.1707C128.368 50.2039 127.865 51.2399 127.865 51.2399C127.865 51.2399 126.73 53.0671 125.427 51.7932C124.125 50.5193 125.225 48.2353 125.558 47.5637V47.5665ZM122.349 45.6455C122.349 45.6455 122.786 45.7175 123.376 46.2042C123.966 46.6909 124.198 47.6793 124.191 48.7411C124.185 49.8029 123.208 50.314 122.511 50.4785C121.814 50.643 121.287 49.7213 120.827 48.8077C120.366 47.8941 121.106 45.5492 122.349 45.6427V45.6455ZM118.271 56.2714C117.818 56.6439 116.494 56.5433 115.783 55.419C115.072 54.2947 114.948 52.9909 115.79 52.2921C115.79 52.2921 115.897 51.974 116.605 52.0896C117.314 52.2051 118.022 52.6565 118.733 53.7781C119.444 54.8997 118.722 55.8948 118.271 56.2687V56.2714ZM117.401 51.3228C116.645 50.4731 116.53 48.8526 117.537 48.0491C118.178 47.5379 119.351 48.5684 120.079 49.2455C120.806 49.9225 120.706 51.2997 120.162 51.8856C119.618 52.4716 118.155 52.1698 117.401 51.3201V51.3228ZM127.804 56.7609C127.596 57.0069 126.617 57.1823 125.476 57.6677C124.335 58.153 122.213 59.5384 121.213 59.8225C120.212 60.1066 119.566 58.5989 119.527 57.8158C119.487 57.0328 119.589 55.2953 120.434 52.598C120.551 52.2255 122.733 51.1841 123.305 51.4452C123.877 51.7062 124.514 52.2609 124.996 52.7272C125.479 53.1935 126.603 53.4926 127.722 54.1778C128.841 54.863 128.012 56.5148 127.804 56.7595V56.7609Z" fill="white"/>
<defs>
<linearGradient id="paint0_linear_2048_37965" x1="101.089" y1="42.7489" x2="102.348" y2="59.8359" gradientUnits="userSpaceOnUse">
<stop stop-color="white"/>
<stop offset="0.653445" stop-color="#BDD1E3"/>
<stop offset="1" stop-color="#8EB0D0"/>
</linearGradient>
<linearGradient id="paint1_linear_2048_37965" x1="101.089" y1="42.7489" x2="102.348" y2="59.8359" gradientUnits="userSpaceOnUse">
<stop stop-color="white"/>
<stop offset="0.653445" stop-color="#BDD1E3"/>
<stop offset="1" stop-color="#8EB0D0"/>
</linearGradient>
<linearGradient id="paint2_linear_2048_37965" x1="101.089" y1="42.7489" x2="102.348" y2="59.8359" gradientUnits="userSpaceOnUse">
<stop stop-color="white"/>
<stop offset="0.653445" stop-color="#BDD1E3"/>
<stop offset="1" stop-color="#8EB0D0"/>
</linearGradient>
<linearGradient id="paint3_linear_2048_37965" x1="101.089" y1="42.7489" x2="102.348" y2="59.8359" gradientUnits="userSpaceOnUse">
<stop stop-color="white"/>
<stop offset="0.653445" stop-color="#BDD1E3"/>
<stop offset="1" stop-color="#8EB0D0"/>
</linearGradient>
<linearGradient id="paint4_linear_2048_37965" x1="101.089" y1="42.7489" x2="102.348" y2="59.8359" gradientUnits="userSpaceOnUse">
<stop stop-color="white"/>
<stop offset="0.653445" stop-color="#BDD1E3"/>
<stop offset="1" stop-color="#8EB0D0"/>
</linearGradient>
<linearGradient id="paint5_linear_2048_37965" x1="101.089" y1="42.7489" x2="102.348" y2="59.8359" gradientUnits="userSpaceOnUse">
<stop stop-color="white"/>
<stop offset="0.653445" stop-color="#BDD1E3"/>
<stop offset="1" stop-color="#8EB0D0"/>
</linearGradient>
<linearGradient id="paint6_linear_2048_37965" x1="101.089" y1="42.7489" x2="102.348" y2="59.8359" gradientUnits="userSpaceOnUse">
<stop stop-color="white"/>
<stop offset="0.653445" stop-color="#BDD1E3"/>
<stop offset="1" stop-color="#8EB0D0"/>
</linearGradient>
<linearGradient id="paint7_linear_2048_37965" x1="101.089" y1="42.7489" x2="102.348" y2="59.8359" gradientUnits="userSpaceOnUse">
<stop stop-color="white"/>
<stop offset="0.653445" stop-color="#BDD1E3"/>
<stop offset="1" stop-color="#8EB0D0"/>
</linearGradient>
<linearGradient id="paint8_linear_2048_37965" x1="131.415" y1="50.7462" x2="113.43" y2="55.4255" gradientUnits="userSpaceOnUse">
<stop stop-color="#C1272D"/>
<stop offset="0.58911" stop-color="#C1272D"/>
<stop offset="1" stop-color="#C1272D"/>
</linearGradient>
<linearGradient id="paint9_linear_2048_37965" x1="131.414" y1="47.6881" x2="112.312" y2="53.5618" gradientUnits="userSpaceOnUse">
<stop stop-color="#980D0E"/>
<stop offset="0.543243" stop-color="#BE242A"/>
<stop offset="1" stop-color="#F24550"/>
</linearGradient>
</defs>
</svg>
