<svg width="201" height="91" viewBox="0 0 201 91" fill="none" xmlns="http://www.w3.org/2000/svg">
<path d="M99.5983 45.1962C100.353 45.7802 101.181 46.3012 101.963 46.8676C102.094 46.9607 102.275 47.23 102.243 47.2753C101.739 47.9575 102.23 48.335 102.663 48.7151C102.444 49.1153 102.462 50.0089 102.434 50.3713C102.406 50.7338 102.937 50.983 102.519 51.3983C101.961 51.947 101.994 51.9823 102.597 52.458C102.623 52.4781 102.628 52.5234 102.66 52.6115L101.989 53.0344C102.385 53.2242 102.769 53.4412 103.136 53.6838C103.725 54.1344 103.169 54.4616 102.967 54.7435C103.176 54.9373 103.47 55.0858 103.496 55.2645C103.538 55.6094 103.41 55.9718 103.372 56.3293C103.343 56.526 103.359 56.7269 103.42 56.9164C103.48 57.1058 103.584 57.2787 103.722 57.4217C104.059 57.7942 104.429 58.3077 104.447 58.7733C104.494 60.0042 104.698 61.2753 104.062 62.4382C104.214 62.5099 104.351 62.6116 104.464 62.7373C104.577 62.8629 104.663 63.01 104.718 63.1697C104.772 63.3294 104.794 63.4985 104.782 63.6668C104.77 63.8352 104.725 63.9995 104.648 64.1498C104.306 64.6885 104.754 65.0006 104.842 65.3857C104.93 65.7708 105.237 66.1157 105.481 66.4706C106.505 66.5186 107.505 66.8001 108.404 67.2937C108.649 67.4306 108.885 67.5819 109.111 67.7467L109.126 67.6284L109.225 66.8255H127.606L128.386 65.4738C127.908 65.1416 127.83 64.8446 128.092 64.3285C128.276 63.9661 129.056 63.4602 128.162 62.9693C128.11 62.9391 128.13 62.6849 128.19 62.5716C128.313 62.3199 128.492 62.111 128.635 61.8769C128.703 61.7662 128.806 61.6252 128.784 61.517C128.716 61.2376 128.58 60.9733 128.489 60.6989C128.291 60.0923 128.092 59.4857 127.921 58.8715C127.888 58.7608 127.986 58.6198 128.022 58.4864C128.105 58.1793 128.273 57.8622 128.245 57.5702C128.125 56.6212 127.994 55.6899 128.336 54.7536C128.411 54.5231 128.395 54.2727 128.291 54.0538C127.946 53.4296 127.536 52.8356 127.194 52.2768C127.516 51.8388 127.697 51.348 128.042 51.1743C128.764 50.8068 128.203 50.6558 127.994 50.4343C127.908 50.3436 127.742 50.3009 127.699 50.2002C127.559 49.8629 127.448 49.508 127.325 49.1052C127.457 49.0525 127.58 48.9776 127.687 48.8837C127.791 48.7737 127.85 48.6278 127.85 48.476C127.808 48.1185 127.71 47.7712 127.632 47.4163C128.62 47.2023 129.627 47.2074 129.785 46.0042C129.815 45.7777 129.675 45.5259 129.712 45.3044C130.002 43.6079 128.925 42.2613 128.562 40.7334C128.495 40.4566 128.188 40.23 128.16 39.9556C128.072 39.0722 127.581 38.3976 127.153 37.6727C126.952 37.3404 126.769 36.8596 126.857 36.5173C127.078 35.659 127.526 34.9165 127.307 33.9096C127.121 33.0412 127.186 32.1175 126.836 31.2516C126.808 31.1197 126.81 30.983 126.843 30.852C126.876 30.7211 126.938 30.5995 127.025 30.4965C127.34 30.1692 127.292 29.9553 126.975 29.7086C126.766 29.5425 126.457 29.4091 126.379 29.2052C126.104 28.4501 125.953 27.6723 125.669 26.9398C125.503 26.5018 125.329 25.9456 124.65 26.0815C124.575 25.5781 125.153 24.9941 125.679 25.0319C125.765 25.0473 125.846 25.0795 125.919 25.1266C125.992 25.1737 126.055 25.2347 126.104 25.3062C126.386 25.7392 127.538 26.2325 127.996 26.1142C128.354 26.0211 128.751 25.8625 129.088 25.9405C129.745 26.0714 130.283 26.079 130.739 25.4925C131.021 25.13 131.521 24.8884 131.685 24.4857C132.148 23.363 132.747 22.3159 132.9 21.0297C132.994 20.2992 132.937 19.5572 132.731 18.8499C132.408 17.8058 131.816 16.8655 131.013 16.1239C130.844 15.9679 130.761 15.7061 130.578 15.5802C129.881 15.097 129.981 13.8787 128.892 13.7579C128.796 13.7579 128.703 13.6094 128.64 13.5062C128.464 13.2721 128.308 13.0229 128.137 12.7888C127.689 12.1998 127.083 11.6939 127.257 10.8078C127.287 10.6518 127.101 10.4026 126.95 10.2717C126.268 9.68271 125.563 9.1214 124.814 8.50975C125.672 8.06423 125.792 7.34434 125.727 6.49609C125.679 5.86933 125.239 5.61511 124.814 5.33571C124.388 5.05632 123.951 4.8323 123.505 4.58059C123.224 4.42235 122.925 4.29734 122.615 4.20806C121.799 4.0067 120.929 3.95635 120.164 3.63417C119.53 3.38246 119.077 3.41015 118.581 3.81792C118.174 4.15269 117.356 3.9337 117.235 3.48314C116.969 2.57717 116.428 1.77607 115.688 1.19008C114.948 0.604099 114.044 0.262026 113.102 0.210938C112.697 0.210937 112.289 0.356929 111.879 0.394685C110.48 0.523056 109.247 0.953477 108.409 2.18181C108.158 2.56944 107.75 2.87904 107.554 3.28933C107.335 3.75499 107.4 4.39433 107.109 4.77944C106.54 5.53456 106.857 6.15377 107.109 6.77297C106.814 7.17822 106.452 7.50796 106.316 7.91573C106.18 8.32349 106.261 8.78663 106.298 9.22461C106.326 9.41498 106.415 9.5914 106.55 9.72802C106.907 10.0905 106.625 10.2667 106.359 10.4152C106.047 10.5939 105.71 10.7248 105.383 10.8783L105.566 10.9815C105.584 11.4673 105.607 11.9556 105.612 12.444C105.612 12.7838 105.496 13.1739 105.976 13.2394C105.861 13.4774 105.724 13.7048 105.569 13.919C105.39 14.1294 105.175 14.3066 104.935 14.4425C103.948 14.9837 102.922 15.4493 101.961 16.0409C101.513 16.3127 101.193 16.796 100.801 17.161C100.094 17.828 99.8373 18.6586 99.8072 19.6076C99.7895 20.1966 99.6587 20.783 99.6134 21.3695C99.6139 21.6052 99.6417 21.84 99.6964 22.0693C99.7166 22.1775 99.8197 22.321 99.7845 22.3839C99.1958 23.5846 99.86 24.4655 100.519 25.3515C101.1 26.1369 101.684 26.9197 102.263 27.6924C102.077 27.856 101.833 27.9869 101.848 28.07C102.004 28.9283 101.458 29.3008 100.841 29.6356C100.555 29.762 100.283 29.9199 100.031 30.1063C99.7795 30.3278 99.4071 30.6374 99.4172 30.8967C99.4574 32.0495 99.1354 33.2275 99.6008 34.3577C99.6201 34.4567 99.6132 34.5591 99.5807 34.6547C99.4843 34.9708 99.4235 35.2967 99.3996 35.6263C99.4147 36.0945 99.5706 36.5551 99.5958 37.0207C99.6524 37.6672 99.6524 38.3174 99.5958 38.9639C99.4901 39.5755 99.3498 40.1806 99.1756 40.7762C99.0634 41.1623 98.9793 41.556 98.924 41.9542C98.8813 42.4576 98.9517 42.961 98.9064 43.4645C98.8535 43.7888 98.8899 44.1214 99.0119 44.4265C99.1338 44.7317 99.3365 44.9978 99.5983 45.1962ZM121.46 11.719C121.568 11.2509 121.711 10.7877 121.862 10.1861L123.699 11.5655C123.714 11.5655 123.742 11.5907 123.742 11.6058C123.81 12.6126 124.824 13.2394 124.793 14.3343C124.781 14.8503 125.163 15.3764 125.36 15.9024C125.389 16.0215 125.409 16.1427 125.42 16.2649C125.035 15.9956 124.6 15.8395 124.429 15.5349C124.086 14.9308 123.775 14.4828 123.005 14.2915C122.539 14.1757 122.162 13.632 121.57 13.5364C121.43 13.5112 121.266 13.0984 121.266 12.8643C121.286 12.4728 121.352 12.0851 121.462 11.709L121.46 11.719ZM117.361 9.42094C117.673 9.33536 118.207 9.2095 118.302 9.34291C118.541 9.68272 118.763 10.1962 118.68 10.5687C118.539 11.1955 118.161 11.7719 117.872 12.3634C117.706 12.7032 117.696 12.6982 117.19 12.595C117.125 11.8147 117.059 11.0142 116.996 10.2138C116.969 9.86898 116.976 9.5191 117.361 9.41087V9.42094Z" fill="#56BBD7"/>
<path d="M54.082 83.0803C54.3281 83.2491 54.5902 83.3932 54.8645 83.5107C55.2689 83.6836 55.6906 83.8127 56.1225 83.8958C56.695 84.0085 57.2776 84.0616 57.861 84.0544C58.8479 84.0614 59.8258 83.8661 60.7343 83.4805C61.6119 83.1081 62.4002 82.5529 63.0465 81.8519C63.722 81.105 64.2428 80.2315 64.5787 79.282C64.9662 78.1796 65.1553 77.0172 65.1373 75.8487C65.1437 74.7607 64.9824 73.6783 64.6593 72.6394C64.3614 71.6681 63.8796 70.7632 63.2402 69.9738C62.5996 69.1971 61.792 68.5751 60.8777 68.154C59.851 67.6894 58.7336 67.4598 57.6069 67.4819C57.1548 67.4767 56.7039 67.5309 56.2659 67.643C55.8952 67.738 55.5319 67.86 55.179 68.008C54.886 68.1351 54.6033 68.2849 54.3336 68.456C54.082 68.6171 53.8933 68.748 53.7449 68.8563L53.1888 67.7412H45.8925V71.9875H47.2335V86.0379H45.8799V90.2187H55.423V86.0353H53.6996V82.8084C53.7625 82.8437 53.8908 82.9418 54.082 83.0803ZM54.3865 72.9742C54.8419 72.3147 55.3702 71.985 55.9665 71.985C56.3115 71.9875 56.6446 72.1113 56.9075 72.3349C57.2059 72.5853 57.4551 72.8891 57.6422 73.2309C57.8559 73.6258 58.011 74.0498 58.1026 74.4895C58.2089 74.9552 58.2629 75.4314 58.2636 75.9091C58.2636 77.1224 58.0565 78.0914 57.6422 78.8163C57.2279 79.5413 56.6794 79.9029 55.9967 79.9012C55.6563 79.9016 55.3254 79.7892 55.0557 79.5815C54.747 79.3425 54.496 79.0371 54.321 78.688C54.1059 78.2641 53.9502 77.8127 53.8581 77.3464C53.7489 76.7994 53.6958 76.2428 53.6996 75.6851C53.6996 74.539 53.9285 73.6354 54.3865 72.9742Z" fill="black"/>
<path d="M67.264 76.3607C67.248 77.5182 67.3551 78.6742 67.5835 79.8091C67.7521 80.6884 68.1177 81.518 68.6528 82.2355C69.1694 82.8864 69.8541 83.3835 70.6329 83.6728C71.6105 84.0184 72.6434 84.1805 73.6798 84.151C74.4193 84.1673 75.1533 84.0198 75.8292 83.7191C76.5052 83.4184 77.1063 82.972 77.5896 82.4117C77.8412 82.1248 78.0425 81.8832 78.2111 81.6919L79.0741 83.7055H85.1124V79.4567H83.5475V67.7422H75.2749V71.9558H77.3833V77.0302C77.4131 77.6708 77.2022 78.2993 76.7921 78.7922C76.6197 79.0024 76.4027 79.1716 76.1568 79.2874C75.9109 79.4032 75.6423 79.4628 75.3705 79.4617C75.068 79.4753 74.7697 79.3865 74.5237 79.2098C74.2777 79.0331 74.0983 78.7787 74.0144 78.4876C73.7779 77.8382 73.6596 76.8205 73.6596 75.4344V67.7422H65.9355V71.9558H67.2766L67.264 76.3607Z" fill="black"/>
<path d="M94.039 68.6962C93.8025 69.0385 93.5811 69.3984 93.3672 69.7835L92.4111 67.7397H86.4155V71.8903H87.7867V79.5221H86.3828V83.7055H95.4152V79.5221H93.8201V76.2323C93.7871 75.5018 93.956 74.7763 94.3082 74.1356C94.4727 73.842 94.7047 73.5918 94.985 73.4056C95.7633 72.9274 96.8745 72.6882 98.3187 72.6882V66.9418C97.6317 66.925 96.9456 66.9995 96.2782 67.1633C95.7972 67.2886 95.3428 67.5001 94.9372 67.7875C94.5884 68.0371 94.2846 68.3444 94.039 68.6962Z" fill="black"/>
<path d="M107.877 79.8891C107.58 80.0243 107.259 80.0946 106.933 80.0955C106.623 80.0876 106.315 80.0556 106.01 79.9999C105.625 79.9361 105.249 79.8236 104.893 79.6651C104.748 79.599 104.61 79.5215 104.477 79.4336C104.286 79.3133 104.108 79.1714 103.949 79.0107C103.816 78.8701 103.713 78.7044 103.644 78.5234C103.576 78.3423 103.545 78.1494 103.552 77.956H99.2744V83.705H103.262L103.552 81.7568C103.776 82.1067 104.054 82.4186 104.377 82.6806C104.699 82.9507 105.048 83.1869 105.418 83.3854C106.349 83.8706 107.388 84.1122 108.438 84.0876C109.194 84.088 109.946 83.9804 110.672 83.768C111.357 83.5736 112 83.2544 112.569 82.8266C112.672 82.7485 112.75 82.6529 112.843 82.5749C113.258 82.2174 113.608 81.7918 113.88 81.3163C114.218 80.6998 114.392 80.0061 114.383 79.3027C114.396 78.6706 114.276 78.0429 114.031 77.4602C113.943 77.261 113.837 77.0706 113.714 76.8913C113.267 76.2658 112.697 75.7388 112.038 75.3433C111.351 74.931 110.617 74.6039 109.852 74.3692C109.065 74.1242 108.336 73.901 107.665 73.6996C107.092 73.5336 106.532 73.325 105.99 73.0754C105.542 72.864 105.318 72.577 105.318 72.2146C105.323 72.0956 105.344 71.978 105.381 71.8647C105.407 71.7533 105.453 71.6476 105.517 71.5526C105.56 71.4716 105.617 71.3985 105.685 71.3361C105.94 71.1516 106.249 71.056 106.563 71.0643C106.964 71.0633 107.363 71.1279 107.743 71.2556C108.115 71.3774 108.465 71.5557 108.782 71.7841C109.077 71.9887 109.333 72.2444 109.537 72.5393C109.725 72.8169 109.825 73.1451 109.824 73.4806H113.973V67.7417H110.048L109.796 69.8485C109.382 69.091 108.747 68.4767 107.977 68.0865C107.245 67.6834 106.434 67.4438 105.6 67.3843C105.416 67.3692 105.232 67.3516 105.041 67.3516C104.42 67.3597 103.803 67.4511 103.207 67.6234C102.561 67.8032 101.947 68.0835 101.388 68.454C100.822 68.828 100.343 69.3179 99.9814 69.8913C99.5993 70.5207 99.4063 71.2468 99.4254 71.983C99.3873 72.8852 99.6148 73.7788 100.08 74.5529C100.504 75.2128 101.07 75.7693 101.738 76.1815C102.411 76.598 103.136 76.9255 103.894 77.1556C104.095 77.2185 104.286 77.2714 104.485 77.3293C105.028 77.4904 105.554 77.6364 106.047 77.7622C106.612 77.9003 107.167 78.076 107.708 78.2883C108.143 78.4695 108.36 78.7086 108.36 79.0082C108.34 79.4562 108.186 79.7507 107.877 79.8891Z" fill="black"/>
<path d="M127.31 67.7422H124.842V71.9558H126.948V77.0302C126.979 77.671 126.768 78.2999 126.357 78.7922C126.185 79.0026 125.968 79.172 125.723 79.2879C125.477 79.4037 125.209 79.4631 124.937 79.4617C124.635 79.4753 124.337 79.3865 124.091 79.2098C123.845 79.0331 123.665 78.7787 123.581 78.4876C123.343 77.8382 123.224 76.8205 123.224 75.4344V67.7422H115.5V71.9558H116.841V76.3632C116.825 77.5207 116.932 78.6767 117.161 79.8116C117.328 80.6912 117.694 81.5211 118.23 82.2381C118.745 82.8889 119.429 83.3859 120.207 83.6753C121.183 84.0186 122.213 84.1798 123.247 84.151C123.986 84.1673 124.72 84.0198 125.396 83.7191C126.072 83.4184 126.673 82.972 127.157 82.4117C127.408 82.1248 127.607 81.8832 127.778 81.6919L128.641 83.7055H134.679V79.4567H133.114V67.7422H127.31Z" fill="black"/>
<path d="M137.817 65.2657C138.131 65.5787 138.498 65.8342 138.901 66.0208C139.337 66.2169 139.811 66.3149 140.29 66.3077C141.439 66.3077 142.311 65.9939 142.906 65.3664C143.199 65.0635 143.428 64.706 143.582 64.3142C143.736 63.9224 143.81 63.5042 143.802 63.0834C143.794 62.6977 143.709 62.3176 143.551 61.9658C143.388 61.5758 143.156 61.2185 142.866 60.9111C142.552 60.582 142.178 60.3162 141.764 60.1283C141.295 59.9289 140.79 59.8262 140.28 59.8262C139.77 59.8262 139.265 59.9289 138.795 60.1283C138.385 60.3132 138.016 60.5795 137.711 60.9111C137.433 61.2162 137.213 61.5693 137.062 61.9532C136.918 62.3085 136.842 62.6876 136.838 63.0708C136.84 63.4668 136.926 63.8578 137.089 64.2186C137.265 64.6097 137.511 64.9647 137.817 65.2657Z" fill="black"/>
<path d="M144.887 79.5213H143.355V67.7363H135.95V71.8895H137.291V79.5213H135.95V83.7022H144.887V79.5213Z" fill="black"/>
<path d="M153.758 77.573V71.8894H156.79V67.7413H153.758V62.916L147.881 64.8013V67.7413H146.157V71.8919H147.881V77.5755C147.901 78.5974 147.954 79.5204 148.039 80.3443C148.098 81.0801 148.305 81.7965 148.646 82.4511C148.986 83.0442 149.506 83.5139 150.13 83.7927C150.802 84.1124 151.73 84.2709 152.923 84.2709C153.114 84.2709 153.376 84.2558 153.705 84.2231L154.775 84.1124C155.157 84.0696 155.529 84.0092 155.892 83.9362C156.198 83.8778 156.498 83.7866 156.785 83.6643V79.5841C156.437 79.7304 156.08 79.8532 155.715 79.9516C155.411 80.0502 155.094 80.1095 154.775 80.1278C154.307 80.1278 154.02 79.9617 153.896 79.6244C153.775 79.2593 153.716 78.8764 153.723 78.4917C153.723 78.3206 153.723 78.162 153.738 78.0135C153.753 77.865 153.758 77.7215 153.758 77.573Z" fill="black"/>
<path d="M153.602 86.5684H59.2169C58.8139 86.5684 58.4274 86.7285 58.1424 87.0136C57.8574 87.2988 57.6973 87.6855 57.6973 88.0887C57.6973 88.4919 57.8574 88.8786 58.1424 89.1637C58.4274 89.4488 58.8139 89.609 59.2169 89.609H153.602C154.005 89.609 154.391 89.4488 154.676 89.1637C154.961 88.8786 155.122 88.4919 155.122 88.0887C155.122 87.6855 154.961 87.2988 154.676 87.0136C154.391 86.7285 154.005 86.5684 153.602 86.5684Z" fill="black"/>
<path d="M75.5261 46.2071C75.4758 46.2902 75.5261 46.4412 75.5613 46.5595C75.6142 46.8263 75.6821 47.0881 75.7324 47.3549C75.8054 47.7576 75.8783 48.1629 75.9387 48.5681C76.0588 49.1489 76.1353 49.7379 76.1677 50.3301C76.1677 50.9744 76.0167 51.6188 75.9614 52.2682C75.8733 53.3002 75.8331 54.3348 75.7098 55.3642C75.6494 55.9432 75.818 56.288 76.3765 56.4994C76.5476 56.5649 76.6281 56.882 76.7665 57.1287L77.8383 57.2168C77.6295 57.9417 77.4408 58.5886 77.2571 59.2305C77.1867 59.4822 77.1112 59.7138 77.0583 59.9604C76.9654 60.3195 76.9031 60.6858 76.8722 61.0554C76.8808 61.4687 76.9118 61.8813 76.9653 62.2913C76.982 62.4155 76.9862 62.5412 76.9778 62.6663C76.9426 62.996 76.7841 63.3585 76.8722 63.648C77.0831 64.3557 77.3629 65.0412 77.7075 65.6943C77.9113 66.0719 78.1176 66.4495 78.2862 66.827H82.0979H87.5123H91.5907C91.5631 66.7364 91.5454 66.6408 91.5152 66.5501C91.3391 66.0039 91.9077 65.0726 92.4638 64.9417C92.8613 64.8511 93.4299 64.6447 93.5356 64.3477C93.726 63.8005 94.0767 63.3234 94.542 62.9784C94.6179 62.897 94.6727 62.7982 94.7016 62.6907C94.7306 62.5832 94.7328 62.4703 94.708 62.3617C94.4338 61.6666 94.1205 60.9876 93.7696 60.3279C93.5381 59.8975 93.5306 59.5552 93.8752 59.1877C93.9683 59.0895 94.0212 58.7799 93.9633 58.7371C93.3897 58.3143 93.6161 57.8461 93.9029 57.4282C94.1117 57.1287 94.0463 56.95 93.8073 56.7688C93.0525 56.1898 92.2776 55.6638 91.2158 56.2654C91.1779 56.096 91.1585 55.9229 91.158 55.7494C91.2158 55.2459 91.3693 54.7425 91.3567 54.2391C91.3291 53.0636 91.2259 51.8907 91.1529 50.7152C91.1529 50.6346 91.1831 50.5264 91.1529 50.4761C90.9944 50.2873 90.8158 50.1136 90.5717 49.8569C90.4837 50.2395 90.4434 50.4182 90.4032 50.5944C90.2648 50.2747 90.3654 49.882 90.2145 49.6756C89.7868 49.0967 90.2145 48.845 90.534 48.5253C90.7353 48.3164 91.0372 48.1478 91.1228 47.9036C91.1851 47.6155 91.1423 47.3146 91.002 47.0554C90.8021 46.7395 90.5766 46.4407 90.3277 46.1618C89.7339 45.3513 89.349 44.5181 89.7541 43.466C89.9302 43.0104 90.0711 42.4189 89.9251 41.996C89.7012 41.3466 89.193 40.8029 88.8533 40.1862C88.6907 39.8668 88.5835 39.5221 88.5363 39.1668C88.5398 38.9242 88.5823 38.6837 88.6621 38.4545C88.7527 38.2028 88.8936 37.8328 88.7804 37.717C88.2117 37.133 87.5827 36.6044 86.9588 36.0758C86.6493 35.809 86.3097 35.5724 86.0027 35.3509C86.2996 34.8601 86.4682 34.2535 86.8531 34.0446C87.2381 33.8356 87.8771 33.9917 88.4004 33.954C88.6042 33.9388 88.9187 33.8784 88.9766 33.745C89.1826 33.2278 89.3615 32.7002 89.5125 32.1643C89.5125 32.1643 89.4773 32.1341 89.4748 32.119C89.4471 31.5728 89.2785 31.0115 89.8849 30.6087C90.0006 30.5307 89.9704 30.1053 89.8849 29.8863C89.7993 29.6674 89.5025 29.5264 89.3565 29.3125C89.188 29.0607 88.9011 28.6857 88.9816 28.5095C89.2332 27.9683 89.5201 27.4473 90.212 27.251C91.5228 26.8658 92.3833 26.6066 92.2902 24.8597C92.26 24.2934 91.714 24.0039 91.1605 24.1701C90.3199 24.4263 89.4623 24.6231 88.5942 24.7591C87.9375 24.8572 87.5475 24.2884 87.0846 23.9309C86.3877 23.3872 85.7763 22.7026 84.7699 22.7504C84.1056 22.7806 83.4339 22.7278 82.7697 22.768C82.2785 22.8004 81.7915 22.8796 81.3154 23.0046C80.8877 23.1129 80.3342 23.1884 80.0952 23.4854C79.2951 24.4922 78.2685 25.421 78.0471 26.7199C77.944 27.3265 78.1805 28.0363 78.0018 28.7033C78.0018 28.7285 78.0421 28.7688 78.0597 28.804C78.4648 29.5793 78.8598 30.3596 79.28 31.1248C79.368 31.2833 79.5718 31.3765 79.6951 31.5149C80.0952 31.9755 80.6361 32.3959 80.8248 32.937C80.9783 33.3775 80.8248 34.0194 80.6009 34.48C80.2159 35.293 80.0775 36.242 79.2372 36.836C78.7994 37.1431 78.5126 37.6666 78.1654 38.0945C77.8624 38.4311 77.5857 38.7904 77.3376 39.1693C76.7682 40.1058 76.254 41.0749 75.7978 42.0715C75.5156 42.7035 75.3698 43.388 75.3701 44.0802C75.3928 44.785 75.974 45.4469 75.5261 46.2071Z" fill="#56BBD7"/>
</svg>
