<svg width="201" height="91" viewBox="0 0 201 91" fill="none" xmlns="http://www.w3.org/2000/svg">
<path d="M184.889 55.6211C187.245 58.0095 191.997 62.8109 191.997 62.8109H184.046C184.046 62.8109 181.903 60.7251 180.816 59.6536C176.546 62.5737 171.851 63.5798 166.771 62.4428C162.354 61.4613 158.821 59.0483 156.228 55.3348C151.239 48.2023 152.212 38.4196 158.755 32.375C165.16 26.453 174.959 26.1667 181.781 31.7288C188.504 37.2172 190.615 47.4825 184.889 55.6211ZM180.742 51.3269C183.597 46.8527 182.991 39.941 177.765 35.9331C172.873 32.1868 165.773 32.8248 161.626 37.708C157.488 42.5912 158.003 49.8137 162.821 54.1324C167.336 58.1731 173.519 57.5678 176.628 55.3839L169.863 48.554H177.887L180.742 51.3269Z" fill="#5B5C5E"/>
<path d="M180.611 64.5442C181.412 65.2803 182.157 65.9674 182.95 66.6872C181.527 67.5379 180.079 68.2168 178.55 68.683C177.028 69.1493 175.474 69.4928 173.805 69.9181L170.632 75.5538L167.385 69.7873C161.896 69.0102 157.136 66.7036 153.209 62.7774C149.292 58.8594 146.969 54.1235 146.167 48.5615L140.4 45.3142L146.167 42.0588C146.969 36.5131 149.283 31.7608 153.226 27.8346C157.152 23.9248 161.896 21.6182 167.393 20.833C168.464 18.9271 170.64 15.0664 170.64 15.0664C170.64 15.0664 172.808 18.9108 173.887 20.833C179.384 21.61 184.136 23.9248 188.071 27.851C191.988 31.7689 194.311 36.5049 195.113 42.0588L200.88 45.3142L195.097 48.5696C194.884 50.2219 194.508 51.8087 193.976 53.3546C193.444 54.8924 192.774 56.3811 191.98 57.698C191.211 56.9945 190.459 56.2911 189.715 55.6122C195.408 44.6598 191.064 32.7996 182.558 27.2293C173.781 21.4791 162.092 22.7797 154.78 30.5584C147.77 38.0181 147.05 49.8047 153.144 58.0824C159.426 66.63 171 69.5337 180.611 64.5442Z" fill="#E07210"/>
<path d="M30.0756 56.4065L34.4516 61.8213H26.2231L24.8653 60.1609C24.5872 60.2672 24.3091 60.3654 24.0391 60.4635C21.6344 61.3796 19.1478 61.7068 16.5876 61.5841C15.1562 61.5187 13.7493 61.2897 12.367 60.8889C9.25879 59.9728 6.63317 58.3123 4.55558 55.8176C2.90332 53.8218 1.83181 51.5315 1.30014 49.0122C0.711215 46.1985 0.719395 43.3684 1.46373 40.5874C2.66612 36.0886 5.30809 32.7023 9.46328 30.5348C10.9928 29.7413 12.6124 29.2342 14.3137 28.9398C16.2523 28.6044 18.199 28.539 20.1293 28.8252C25.5769 29.6514 29.773 32.3261 32.3659 37.2828C33.7973 40.0312 34.2962 42.9758 34.1572 46.0513C33.9772 49.912 32.7094 53.3556 30.141 56.2838C30.1247 56.3165 30.1083 56.3574 30.0756 56.4065ZM20.7592 55.0814L16.2032 49.4458H24.4318L25.7159 51.0162C26.5012 49.6584 26.9347 48.2516 27.0983 46.7711C27.2782 45.1761 27.2128 43.5892 26.812 42.027C26.3948 40.3911 25.675 38.9187 24.5299 37.6673C23.0821 36.0805 21.2745 35.1725 19.1478 34.8535C16.9966 34.5345 14.9272 34.7881 13.005 35.8024C9.85589 37.471 8.39994 40.2684 7.99097 43.6792C7.81102 45.217 7.89281 46.7465 8.28543 48.2597C8.67805 49.7811 9.32423 51.1716 10.3467 52.374C12.1625 54.5007 14.5182 55.4822 17.2747 55.5722C18.4444 55.6049 19.5895 55.4577 20.7592 55.0814Z" fill="#5B5C5E"/>
<path d="M73.7872 55.9223H87.2343V61.01H67.9307V33.7559H87.2179V38.8762H73.779V44.5528H86.9398V49.7222H73.7872V55.9223Z" fill="#5B5C5E"/>
<path d="M111.675 37.1426C110.587 38.6067 109.524 40.0381 108.452 41.4695C107.912 41.0769 107.438 40.6925 106.931 40.3653C104.853 39.032 102.563 38.4595 100.109 38.5331C99.3319 38.5576 98.5712 38.7049 97.8841 39.1138C97.2461 39.4901 96.8535 40.0299 96.6981 40.7416C96.5263 41.5268 96.8616 42.2384 97.6223 42.7046C98.4321 43.1954 99.3319 43.4572 100.24 43.7025C102.285 44.2506 104.338 44.7659 106.374 45.363C107.47 45.682 108.485 46.2218 109.417 46.8925C111.748 48.5693 112.558 50.9087 112.305 53.6733C112.141 55.4974 111.478 57.1251 110.202 58.4747C109.082 59.6607 107.699 60.4133 106.154 60.8877C103.626 61.6647 101.05 61.6974 98.4648 61.3457C95.2339 60.904 92.3466 59.6771 89.9663 57.395C89.9091 57.3378 89.8273 57.305 89.7373 57.2396C90.8334 55.6855 91.8885 54.1805 92.9355 52.6836C93.6062 53.2153 94.2115 53.7633 94.874 54.2296C97.2952 55.9145 99.9944 56.5689 102.914 56.2744C103.732 56.1926 104.509 55.9391 105.197 55.4565C105.761 55.0639 106.186 54.5486 106.309 53.8533C106.505 52.7163 106.08 51.8984 104.935 51.4158C103.961 51.0068 102.947 50.6878 101.933 50.4179C99.8226 49.8535 97.6632 49.4773 95.6347 48.6102C94.735 48.2258 93.8761 47.7677 93.1154 47.1297C91.1769 45.5184 90.4816 43.4081 90.7107 40.9706C91.0133 37.756 92.8782 35.6621 95.7165 34.3615C97.6223 33.4863 99.659 33.2737 101.737 33.3391C105.131 33.4454 108.239 34.3615 110.939 36.4882C111.168 36.6927 111.397 36.9054 111.675 37.1426Z" fill="#5B5C5E"/>
<path d="M38.1162 33.7559H44.0627L44.0791 49.6895C44.0791 50.6138 44.1527 51.5299 44.4471 52.4297C45.0279 54.1964 46.1894 55.3906 47.948 55.9632C49.6248 56.5112 51.3343 56.503 53.0111 55.9632C54.6961 55.4152 55.8248 54.27 56.4137 52.5932C56.7491 51.6444 56.8391 50.6547 56.8473 49.6568L56.8309 33.764H62.7938L62.7774 50.6711C62.761 52.9859 62.1721 55.1616 60.8225 57.092C59.6855 58.7115 58.1642 59.8403 56.332 60.5519C53.7227 61.558 51.0153 61.7216 48.2506 61.4189C46.1812 61.1899 44.2345 60.6255 42.4922 59.4395C40.5946 58.1471 39.3759 56.3722 38.7051 54.1882C38.2634 52.7568 38.1244 51.2845 38.1244 49.7959L38.1162 33.7559Z" fill="#5B5C5E"/>
<path d="M121.842 38.8942H113.858V33.7656H135.583V38.8778H127.731V61.0279H121.842V38.8942Z" fill="#5B5C5E"/>
</svg>
