<svg width="201" height="91" viewBox="0 0 201 91" fill="none" xmlns="http://www.w3.org/2000/svg">
<path fill-rule="evenodd" clip-rule="evenodd" d="M26.3143 18.6426C26.0736 18.6426 25.8799 18.8382 25.8799 19.0812V74.2039C25.8799 74.4469 26.0736 74.6426 26.3143 74.6426H80.9074C81.1481 74.6426 81.3418 74.4469 81.3418 74.2039V19.0812C81.3418 18.8382 81.1481 18.6426 80.9074 18.6426H26.3143ZM28.3416 21.1282H78.8801V72.1569H28.3416V21.1282Z" fill="#F67963"/>
<path fill-rule="evenodd" clip-rule="evenodd" d="M53.6351 60.3854C46.0807 60.3854 39.6699 54.074 39.6699 46.2847C39.6699 39.1047 45.3187 32.2363 53.6885 32.2363C61.0891 32.2363 67.5538 38.2609 67.5538 46.3184C67.5538 51.953 64.2245 55.3816 64.2245 55.3816C65.3147 56.5817 66.4515 57.6809 68.5256 57.6809C68.7289 57.6809 68.8877 57.7765 68.8877 58.0464V60.6782C68.8877 60.9295 68.7293 61.0438 68.5256 61.0438C65.1757 61.0438 63.1596 59.1872 61.3341 56.9506C60.425 55.9997 59.1547 54.9412 58.1326 54.7072C57.566 54.5748 57.5059 54.2635 57.8274 53.9604C58.4315 53.3247 59.2273 53.0033 60.2294 53.0033L61.5542 53.2389C62.6879 51.928 64.1661 49.5774 64.1661 46.3275C64.1661 40.6058 59.6599 35.6688 53.6326 35.6688C47.8944 35.6688 43.0509 40.3422 43.0509 46.3327C43.0509 51.5468 47.232 56.9748 53.842 56.9748C54.2726 56.9785 55.0366 56.866 55.4595 56.866C56.8015 56.866 57.7218 57.5314 58.6532 58.8109C58.8603 59.0627 58.9146 59.3625 58.3746 59.5303C57.3886 59.8767 55.5379 60.3854 53.6351 60.3854Z" fill="#283349"/>
<path fill-rule="evenodd" clip-rule="evenodd" d="M106.671 61.8236C99.5244 61.8236 92.4492 56.1003 92.4492 47.3311C92.4492 38.0621 99.8138 32.7461 106.691 32.7461C114.346 32.7461 121.198 38.7895 121.198 47.2475C121.198 53.285 117.672 56.8139 117.672 56.8139C119.152 58.5 120.486 59.3979 122.612 59.3979C122.784 59.3979 122.904 59.5212 122.904 59.6935V62.147C122.904 62.3265 122.777 62.4146 122.639 62.4146C116.197 62.4146 115.765 57.3694 112.045 56.2578C111.617 56.1629 111.473 55.7784 111.978 55.4969C111.978 55.4969 112.897 54.874 113.97 54.874C114.429 54.874 115.067 55.009 115.067 55.009C115.067 55.009 118.219 52.0997 118.219 47.2248C118.219 41.0514 112.914 35.7271 106.941 35.7271C100.112 35.7271 95.4132 41.4351 95.4132 47.1696C95.4132 54.0989 101.195 58.7903 106.856 58.7903C107.901 58.7903 108.711 58.5338 109.529 58.5338C110.645 58.5338 111.535 59.381 112.169 60.2891C112.382 60.6351 112.11 60.8247 111.528 60.9929C111.528 60.9929 109.72 61.8236 106.671 61.8236Z" fill="#283349"/>
<path fill-rule="evenodd" clip-rule="evenodd" d="M135.823 61.3824C136.043 61.8662 136.239 61.7428 136.432 61.3782L149.449 33.386C149.558 33.1525 149.422 33.0371 149.277 33.0371H146.382C146.19 33.0371 146.12 33.1819 145.942 33.578L136.121 54.7125L126.23 33.4646C126.086 33.1284 126.011 33.0371 125.829 33.0371H122.994C122.712 33.0371 122.662 33.184 122.766 33.3698L135.823 61.3824Z" fill="#283349"/>
<path fill-rule="evenodd" clip-rule="evenodd" d="M165.484 61.8126C157.653 61.8126 151.068 55.656 151.068 47.1302C151.068 39.0321 157.585 32.7227 165.396 32.7227C171.191 32.7227 174.788 36.1767 174.788 36.1767C175.112 36.4891 175.25 36.7074 174.893 37.0846L173.556 38.434C173.238 38.7564 173.025 38.6878 172.813 38.4711C172.813 38.4711 170.008 35.7383 165.395 35.7383C159.349 35.7383 154.074 40.963 154.074 47.2308C154.074 53.9064 159.588 58.7382 165.466 58.7382C168.763 58.7382 170.653 57.5473 172.554 56.2541C172.922 56.0011 173.095 55.9353 173.333 56.201L174.68 57.7023C174.955 57.9942 174.932 58.2811 174.65 58.4819C172.748 59.9267 169.581 61.8126 165.484 61.8126Z" fill="#283349"/>
</svg>
