<svg width="201" height="91" viewBox="0 0 201 91" fill="none" xmlns="http://www.w3.org/2000/svg">
<path fill-rule="evenodd" clip-rule="evenodd" d="M88.7347 62.0013C81.5828 62.0013 74.502 56.278 74.502 47.5088C74.502 38.2398 81.8724 32.9238 88.7551 32.9238C96.416 32.9238 103.273 38.9673 103.273 47.4252C103.273 53.4627 99.7449 56.9916 99.7449 56.9916C101.226 58.6777 102.561 59.5757 104.688 59.5757C104.861 59.5757 104.981 59.6989 104.981 59.8712V62.3247C104.981 62.5042 104.854 62.5924 104.716 62.5924C98.2688 62.5924 97.8367 57.5471 94.1131 56.4355C93.6851 56.3406 93.5404 55.9561 94.0468 55.6747C94.0468 55.6747 94.9662 55.0517 96.0399 55.0517C96.499 55.0517 97.1382 55.1867 97.1382 55.1867C97.1382 55.1867 100.292 52.2774 100.292 47.4025C100.292 41.2292 94.9829 35.9049 89.0052 35.9049C82.1705 35.9049 77.4683 41.6128 77.4683 47.3473C77.4683 54.2767 83.2552 58.968 88.9198 58.968C89.9664 58.968 90.7767 58.7115 91.5949 58.7115C92.7122 58.7115 93.6033 59.5587 94.2369 60.4668C94.4506 60.8128 94.1787 61.0024 93.5957 61.1706C93.5957 61.1706 91.7862 62.0013 88.7347 62.0013Z" fill="#283349"/>
<path fill-rule="evenodd" clip-rule="evenodd" d="M8.31466 18.8203C8.07379 18.8203 7.87988 19.0159 7.87988 19.259V74.3817C7.87988 74.6247 8.07379 74.8203 8.31466 74.8203H62.9513C63.1921 74.8203 63.386 74.6247 63.386 74.3817V19.259C63.386 19.0159 63.1921 18.8203 62.9513 18.8203H8.31466ZM10.3436 21.306H60.9223V72.3347H10.3436V21.306Z" fill="#F67963"/>
<path fill-rule="evenodd" clip-rule="evenodd" d="M35.658 60.5631C28.0975 60.5631 21.6816 54.2518 21.6816 46.4624C21.6816 39.2824 27.3349 32.4141 35.7114 32.4141C43.1179 32.4141 49.5878 38.4386 49.5878 46.4961C49.5878 52.1307 46.2558 55.5593 46.2558 55.5593C47.3469 56.7594 48.4846 57.8586 50.5604 57.8586C50.7638 57.8586 50.9227 57.9543 50.9227 58.2241V60.856C50.9227 61.1072 50.7641 61.2215 50.5604 61.2215C47.2078 61.2215 45.19 59.3649 43.3631 57.1284C42.4533 56.1775 41.1819 55.1189 40.159 54.8849C39.592 54.7526 39.5319 54.4413 39.8536 54.1381C40.4582 53.5024 41.2546 53.181 42.2575 53.181L43.5834 53.4167C44.718 52.1057 46.1973 49.7551 46.1973 46.5053C46.1973 40.7835 41.6876 35.8465 35.6555 35.8465C29.9127 35.8465 25.0653 40.5199 25.0653 46.5104C25.0653 51.7245 29.2497 57.1525 35.865 57.1525C36.296 57.1562 37.0606 57.0437 37.4838 57.0437C38.8269 57.0437 39.7479 57.7092 40.68 58.9887C40.8873 59.2404 40.9416 59.5403 40.4013 59.708C39.4145 60.0544 37.5623 60.5631 35.658 60.5631Z" fill="#283349"/>
<path fill-rule="evenodd" clip-rule="evenodd" d="M117.911 61.5604C118.13 62.0442 118.327 61.9208 118.52 61.5559L131.547 33.5638C131.656 33.3302 131.521 33.2149 131.376 33.2149H128.478C128.286 33.2149 128.216 33.3597 128.038 33.7557L118.209 54.8903L108.31 33.6423C108.166 33.3062 108.091 33.2148 107.909 33.2148H105.072C104.789 33.2148 104.739 33.3618 104.843 33.5475L117.911 61.5604Z" fill="#283349"/>
<path fill-rule="evenodd" clip-rule="evenodd" d="M147.595 61.9904C139.758 61.9904 133.168 55.8337 133.168 47.3079C133.168 39.2099 139.69 32.9004 147.507 32.9004C153.306 32.9004 156.906 36.3544 156.906 36.3544C157.231 36.6668 157.369 36.8851 157.011 37.2623L155.674 38.6117C155.355 38.9342 155.143 38.8656 154.929 38.6488C154.929 38.6488 152.123 35.916 147.506 35.916C141.455 35.916 136.176 41.1408 136.176 47.4086C136.176 54.0841 141.695 58.9159 147.577 58.9159C150.877 58.9159 152.768 57.725 154.671 56.4318C155.039 56.1788 155.212 56.113 155.451 56.3788L156.798 57.8801C157.074 58.172 157.051 58.4588 156.768 58.6596C154.864 60.1045 151.695 61.9904 147.595 61.9904Z" fill="#283349"/>
<path fill-rule="evenodd" clip-rule="evenodd" d="M175.43 61.7543C175.099 61.7543 174.727 61.5513 174.727 60.9514C174.727 56.6602 177.643 52.6391 183.632 48.9967C185.769 47.7153 190.218 45.1204 190.218 41.4998C190.218 38.421 187.363 35.8433 183.833 35.8433C180.679 35.8433 178.979 37.3306 177.691 39.9029C177.492 40.2597 177.235 40.3598 176.997 40.2417L175.305 39.4226C175.037 39.2933 174.832 39.1421 175.067 38.6405C176.836 34.7876 179.645 32.7129 183.873 32.7129C189.054 32.7129 193.189 36.2087 193.189 41.5357C193.189 47.1802 188.581 49.4945 185.724 51.3006C182.001 53.3846 179.18 55.9965 178.195 58.7079H192.799C193.023 58.7079 193.158 58.8644 193.158 59.0562V61.4286C193.158 61.6717 193.09 61.7543 192.842 61.7543H175.43Z" fill="#283349"/>
<path d="M169.769 44.1289H162.787V51.1725H169.769V44.1289Z" fill="#F67963"/>
</svg>
