<svg width="201" height="90" viewBox="0 0 201 90" fill="none" xmlns="http://www.w3.org/2000/svg">
<path fill-rule="evenodd" clip-rule="evenodd" d="M9.31431 17.998C9.07364 17.998 8.87988 18.1937 8.87988 18.4367V73.5594C8.87988 73.8024 9.07364 73.9981 9.31431 73.9981H63.9074C64.1481 73.9981 64.3418 73.8024 64.3418 73.5594V18.4367C64.3418 18.1937 64.1481 17.998 63.9074 17.998H9.31431ZM11.3416 20.4837H61.8801V71.5124H11.3416V20.4837Z" fill="#F67963"/>
<path fill-rule="evenodd" clip-rule="evenodd" d="M36.6351 59.7409C29.0807 59.7409 22.6699 53.4295 22.6699 45.6402C22.6699 38.4601 28.3187 31.5918 36.6885 31.5918C44.0891 31.5918 50.5538 37.6163 50.5538 45.6738C50.5538 51.3084 47.2245 54.737 47.2245 54.737C48.3147 55.9371 49.4515 57.0363 51.5256 57.0363C51.7289 57.0363 51.8877 57.132 51.8877 57.4019V60.0337C51.8877 60.285 51.7293 60.3992 51.5256 60.3992C48.1757 60.3992 46.1596 58.5427 44.3341 56.3061C43.425 55.3552 42.1547 54.2967 41.1326 54.0626C40.566 53.9303 40.5059 53.619 40.8274 53.3158C41.4315 52.6802 42.2273 52.3588 43.2294 52.3588L44.5542 52.5944C45.6879 51.2835 47.1661 48.9328 47.1661 45.683C47.1661 39.9612 42.6599 35.0242 36.6326 35.0242C30.8944 35.0242 26.0509 39.6977 26.0509 45.6881C26.0509 50.9022 30.232 56.3302 36.842 56.3302C37.2726 56.334 38.0366 56.2215 38.4595 56.2215C39.8015 56.2215 40.7218 56.8869 41.6532 58.1664C41.8603 58.4182 41.9146 58.718 41.3746 58.8857C40.3886 59.2321 38.5379 59.7409 36.6351 59.7409Z" fill="#283349"/>
<path fill-rule="evenodd" clip-rule="evenodd" d="M89.6706 61.179C82.5244 61.179 75.4492 55.4557 75.4492 46.6866C75.4492 37.4176 82.8138 32.1016 89.691 32.1016C97.3458 32.1016 104.198 38.145 104.198 46.6029C104.198 52.6404 100.672 56.1693 100.672 56.1693C102.152 57.8554 103.486 58.7534 105.612 58.7534C105.784 58.7534 105.904 58.8767 105.904 59.0489V61.5024C105.904 61.6819 105.777 61.7701 105.639 61.7701C99.1971 61.7701 98.7654 56.7248 95.0447 55.6133C94.6171 55.5184 94.4725 55.1338 94.9785 54.8524C94.9785 54.8524 95.8972 54.2294 96.97 54.2294C97.4288 54.2294 98.0675 54.3644 98.0675 54.3644C98.0675 54.3644 101.219 51.4551 101.219 46.5802C101.219 40.4069 95.9139 35.0826 89.9409 35.0826C83.1117 35.0826 78.4132 40.7906 78.4132 46.525C78.4132 53.4544 84.1955 58.1458 89.8556 58.1458C90.9013 58.1458 91.711 57.8893 92.5285 57.8893C93.645 57.8893 94.5354 58.7365 95.1685 59.6446C95.382 59.9905 95.1103 60.1802 94.5277 60.3483C94.5277 60.3483 92.7197 61.179 89.6706 61.179Z" fill="#283349"/>
<path fill-rule="evenodd" clip-rule="evenodd" d="M118.823 60.7379C119.043 61.2217 119.239 61.0983 119.432 60.7337L132.449 32.7415C132.558 32.5079 132.422 32.3926 132.277 32.3926H129.382C129.19 32.3926 129.12 32.5374 128.942 32.9334L119.121 54.068L109.23 32.8201C109.086 32.4839 109.011 32.3926 108.829 32.3926H105.994C105.712 32.3926 105.662 32.5395 105.766 32.7253L118.823 60.7379Z" fill="#283349"/>
<path fill-rule="evenodd" clip-rule="evenodd" d="M148.484 61.1681C140.653 61.1681 134.068 55.0114 134.068 46.4857C134.068 38.3876 140.585 32.0781 148.396 32.0781C154.191 32.0781 157.788 35.5321 157.788 35.5321C158.112 35.8445 158.25 36.0629 157.893 36.44L156.556 37.7894C156.238 38.1119 156.025 38.0433 155.813 37.8265C155.813 37.8265 153.008 35.0938 148.395 35.0938C142.349 35.0938 137.074 40.3185 137.074 46.5863C137.074 53.2619 142.588 58.0936 148.466 58.0936C151.763 58.0936 153.653 56.9027 155.554 55.6096C155.922 55.3565 156.095 55.2908 156.333 55.5565L157.68 57.0578C157.955 57.3497 157.932 57.6366 157.65 57.8373C155.748 59.2822 152.581 61.1681 148.484 61.1681Z" fill="#283349"/>
<path d="M170.64 43.3066H163.664V50.3502H170.64V43.3066Z" fill="#F67963"/>
<path d="M188.344 45.6976C188.392 45.6801 188.583 45.6048 188.759 45.5055C188.889 45.4316 189.028 45.3424 189.174 45.2378C189.338 45.12 189.593 44.9132 189.746 44.7809C189.968 44.5885 190.196 44.3762 190.424 44.1406C190.565 43.9952 190.791 43.757 190.918 43.5985C191.177 43.2734 191.405 42.8768 191.607 42.4196C191.689 42.2339 191.809 41.9269 191.87 41.7332C192.046 41.1815 192.143 40.5882 192.17 39.946C192.178 39.7428 192.178 39.4128 192.169 39.2096C192.086 37.4167 191.395 35.8685 190.081 34.5515C189.937 34.4082 189.697 34.1848 189.543 34.0536C188.103 32.8268 186.306 32.181 184.151 32.116C183.95 32.1097 183.623 32.1097 183.422 32.1167C182.637 32.1446 181.865 32.2614 181.115 32.4496C180.919 32.4986 180.605 32.5877 180.412 32.6469C179.756 32.8486 179.196 33.0688 178.725 33.3006C178.544 33.3898 178.259 33.5505 178.086 33.6551C177.716 33.8791 177.356 34.1207 177.01 34.385C176.849 34.5078 176.598 34.7187 176.446 34.8523C176.187 35.0803 175.989 35.2643 175.852 35.3962C175.783 35.4632 175.68 35.5808 175.62 35.6563C175.497 35.8097 175.504 36.053 175.637 36.2016L177.123 37.8648C177.156 37.9017 177.197 37.9311 177.242 37.9511C177.287 37.9711 177.336 37.9813 177.385 37.9809C177.434 37.9805 177.483 37.9695 177.528 37.9488C177.572 37.9281 177.612 37.898 177.645 37.8606C177.653 37.8511 177.763 37.7159 177.903 37.5695C177.989 37.4802 178.084 37.3848 178.19 37.2841C178.337 37.1446 178.581 36.9257 178.737 36.7963C178.943 36.6247 179.169 36.4502 179.408 36.279C179.572 36.1613 179.846 35.9804 180.022 35.8822C180.362 35.693 180.752 35.5212 181.194 35.3719C181.385 35.3074 181.699 35.2158 181.895 35.167C182.401 35.0409 182.907 34.962 183.422 34.9365C183.623 34.9266 183.95 34.9266 184.151 34.9351C185.488 34.9911 186.582 35.3586 187.446 36.0151C187.607 36.1374 187.851 36.357 187.99 36.5038C188.706 37.2577 189.089 38.156 189.16 39.2093C189.174 39.4122 189.173 39.7424 189.163 39.9456C189.1 41.1742 188.717 42.1994 188.003 42.9989C187.868 43.1499 187.629 43.376 187.472 43.5025C186.618 44.1878 185.507 44.5583 184.151 44.6139C183.95 44.6221 183.623 44.6212 183.422 44.6212H181.341C181.294 44.6212 181.246 44.6307 181.202 44.6492C181.158 44.6678 181.117 44.6949 181.084 44.7291C181.05 44.7633 181.023 44.8039 181.004 44.8486C180.986 44.8933 180.977 44.9412 180.977 44.9895V47.0703C180.977 47.1187 180.986 47.1666 181.004 47.2113C181.023 47.256 181.05 47.2966 181.084 47.3308C181.117 47.365 181.158 47.3921 181.202 47.4106C181.246 47.4291 181.294 47.4387 181.341 47.4387H183.422C183.623 47.4387 183.95 47.438 184.151 47.445C185.809 47.5023 187.192 47.9544 188.285 48.8016C188.445 48.9254 188.691 49.1422 188.836 49.2842C189.774 50.2086 190.285 51.2977 190.37 52.5283C190.383 52.7312 190.383 53.0615 190.371 53.2645C190.292 54.5405 189.797 55.6349 188.875 56.5478C188.731 56.6902 188.484 56.9066 188.323 57.0292C187.255 57.8447 185.856 58.2927 184.151 58.3481C183.95 58.3545 183.623 58.3545 183.422 58.3467C182.747 58.3208 182.1 58.2236 181.467 58.0707C181.271 58.0234 180.956 57.9366 180.763 57.8777C180.218 57.7112 179.75 57.527 179.347 57.325C179.167 57.2345 178.885 57.0683 178.714 56.96C178.41 56.7668 178.119 56.5638 177.843 56.3427C177.685 56.2165 177.436 56.0025 177.284 55.8694C177.014 55.6335 176.827 55.4535 176.723 55.3293C176.701 55.3028 176.665 55.2587 176.643 55.232C176.497 55.0578 176.255 55.0419 176.087 55.2097L174.641 56.6562C174.569 56.7282 174.525 56.824 174.517 56.9259C174.509 57.0279 174.538 57.1294 174.598 57.2116C174.662 57.2983 174.815 57.4976 174.957 57.6421C175.125 57.8132 175.333 58.0003 175.579 58.2032C175.735 58.3318 175.992 58.5348 176.154 58.6563C176.536 58.9434 176.948 59.2216 177.401 59.4909C177.575 59.5941 177.861 59.7545 178.041 59.8456C178.6 60.1287 179.258 60.3886 180.021 60.6172C180.214 60.675 180.53 60.7612 180.726 60.8079C181.596 61.0147 182.491 61.1245 183.422 61.1471C183.623 61.152 183.95 61.152 184.151 61.1468C186.65 61.083 188.702 60.3574 190.307 58.9553C190.459 58.8222 190.697 58.5964 190.84 58.4524C192.31 56.9643 193.08 55.2397 193.165 53.2644C193.173 53.0611 193.173 52.7311 193.166 52.5279C193.136 51.7092 193.003 50.9576 192.759 50.2643C192.691 50.0727 192.564 49.7688 192.479 49.584C192.216 49.0067 191.932 48.5249 191.622 48.145C191.494 47.988 191.265 47.752 191.117 47.6142C190.813 47.331 190.477 47.0768 190.109 46.8414C189.939 46.7325 189.657 46.565 189.482 46.4642C189.25 46.3301 189.049 46.2231 188.884 46.1432C188.702 46.0554 188.393 45.9484 188.201 45.8872C188.091 45.8522 188.155 45.7666 188.345 45.697L188.344 45.6976Z" fill="#283349"/>
</svg>
