<svg width="201" height="92" viewBox="0 0 201 92" fill="none" xmlns="http://www.w3.org/2000/svg">
<path d="M101.971 56.2097V60.1949H98.0833C97.9222 61.6691 97.7584 63.1424 97.6126 64.6175C97.3093 67.6775 97.0132 70.7375 96.763 73.8083C96.5668 76.2185 96.4444 78.6341 96.2896 81.0479C96.2437 83.7533 96.8251 86.3183 97.9213 88.7708C98.3236 89.6708 98.8303 90.5159 99.6682 91.0964C100.422 91.6193 101.052 91.6571 101.744 91.0676C102.262 90.6365 102.706 90.1219 103.055 89.5448C104.373 87.286 105.061 84.7152 105.048 82.1C105.039 79.0931 104.801 76.0835 104.571 73.082C104.319 69.779 103.977 66.4832 103.648 63.182C103.415 60.842 103.14 58.5092 102.902 56.1719C102.617 56.1935 102.317 56.2052 101.997 56.2052L101.971 56.2097Z" fill="#6D6E71"/>
<path d="M101.83 35.8775C101.899 34.7201 102.1 33.7103 103.373 33.173C105.874 32.1155 107.539 30.2264 108.441 27.6686C109.683 24.146 109.674 20.5397 109.105 16.9073C108.644 13.9661 107.72 11.1815 106.225 8.58947C105.444 7.23407 104.667 5.87867 103.421 4.89407C101.616 3.46847 99.551 3.46127 97.8806 5.07407C97.299 5.64153 96.7675 6.25823 96.2921 6.91727C94.2383 9.75767 93.0026 12.9392 92.4041 16.3817C91.8299 19.6658 91.73 22.9373 92.5256 26.1917C93.0656 28.4039 93.9908 30.4217 95.8637 31.8302C96.6251 32.4044 97.4837 32.8598 98.3261 33.317C98.9561 33.6572 99.3719 34.1126 99.4439 34.8317C99.5231 35.6219 99.6482 36.4166 99.6302 37.2059C99.614 37.9049 99.5987 38.6042 99.5843 39.3038H101.738C101.734 38.1644 101.764 37.0214 101.83 35.8775Z" fill="#6D6E71"/>
<path d="M119.007 56.0566C118.943 57.295 118.598 58.9249 116.736 59.8015C116.697 61.9435 116.608 64.0846 116.497 66.2239C116.352 68.9923 116.103 71.7544 115.92 74.521C115.734 77.3218 115.562 80.1238 115.405 82.927C115.277 85.2877 115.816 87.5224 116.864 89.6239C117.148 90.1618 117.525 90.6455 117.977 91.0531C118.641 91.6705 119.345 91.639 119.997 91.0036C120.37 90.6363 120.693 90.2214 120.957 89.7697C121.706 88.4899 122.118 87.0697 122.367 85.6297C122.864 82.7416 122.762 79.8184 122.557 76.9168C122.319 73.5634 121.88 70.2253 121.584 66.8755C121.386 64.6495 121.206 62.4226 121.044 60.1948H119.007V56.0566Z" fill="#6D6E71"/>
<path d="M119.022 44.2149V55.2849C119.022 55.3947 119.022 55.5135 119.022 55.6368H120.755C120.744 54.7594 120.901 53.8881 121.218 53.07C121.424 52.5543 121.483 51.9495 121.482 51.3852C121.476 47.0652 121.451 42.7452 121.408 38.4252C121.389 36.1752 121.345 33.9207 121.308 31.668C121.277 29.7033 121.235 27.7395 121.209 25.7748C121.17 22.7598 121.124 19.7448 121.109 16.728C121.092 13.1865 121.109 9.64496 121.109 6.10796L121.275 6.09446C121.143 4.95776 121.018 3.82106 120.879 2.68436C120.755 1.73306 119.271 1.26056 118.486 1.64216C117.938 1.91216 117.586 2.32076 117.316 2.85536C116.038 5.42486 115.445 8.19956 115.025 10.9977C114.509 14.4705 114.093 17.958 113.778 21.4602C113.501 24.5913 113.348 27.7404 113.295 30.8832C113.249 33.6147 113.276 36.3507 113.395 39.0804C119.02 39.1074 119.022 42.5544 119.022 44.2149Z" fill="#6D6E71"/>
<path d="M86.0829 36.5428C86.3108 36.3965 86.531 36.2385 86.7426 36.0694C87.6426 35.4115 88.2483 34.534 88.3941 33.4342C88.511 32.4487 88.5598 31.4564 88.5399 30.4642C88.5282 28.9414 88.4976 27.415 88.3896 25.8958C88.1583 22.6234 87.8622 19.3555 87.612 16.0858C87.504 14.6692 87.4635 13.2472 87.3537 11.8315C87.2142 10.0315 87.0477 8.23148 86.8695 6.43148C86.7975 5.70518 86.7993 4.94198 86.1585 4.27148C86.0586 4.58738 85.9263 4.82858 85.911 5.07608C85.8138 6.69608 85.6698 8.31608 85.6779 9.93608C85.6932 13.2544 85.8003 16.5727 85.8579 19.8919C85.8885 21.637 85.9002 23.383 85.9083 25.1281C85.9155 26.7022 85.9182 28.2781 85.8984 29.8495C85.8921 30.3598 85.416 30.2257 85.1271 30.2905C84.8382 30.3553 84.7455 30.1537 84.7329 29.8612C84.624 27.3412 84.4629 24.8266 84.3882 22.3075C84.2847 18.6175 84.2586 14.9275 84.1695 11.2375C84.12 9.22418 84.0129 7.21268 83.9184 5.20118C83.9058 4.93118 83.8086 4.67198 83.751 4.40738L83.5611 4.39118C83.4603 4.67738 83.2911 4.95908 83.2704 5.25158C83.1147 7.14158 82.9212 9.02528 82.8708 10.9153C82.7943 13.7953 82.8294 16.6753 82.8087 19.5598C82.7847 22.9312 82.7547 26.3026 82.7187 29.674C82.7124 30.3616 82.6215 30.3265 81.9789 30.1996C81.8241 30.1699 81.6333 29.8396 81.6189 29.6389C81.5001 27.8506 81.3678 26.0596 81.3327 24.2686C81.2643 20.7109 81.2769 17.1514 81.2139 13.5937C81.168 11.0044 81.0681 8.41598 80.9592 5.82848C80.9376 5.31368 80.7648 4.80608 80.6613 4.29848L80.4048 4.30298C80.3049 4.78538 80.1348 5.26418 80.115 5.75018C80.0115 7.94798 79.9017 10.1467 79.8828 12.3463C79.8468 16.4314 79.8891 20.5174 79.8648 24.6025C79.854 26.3449 79.7622 28.0864 79.6929 29.827C79.6866 29.9818 79.5588 30.2662 79.5048 30.2617C79.3032 30.2455 79.0071 30.1906 78.9306 30.0502C78.7425 29.7064 78.5562 29.3095 78.5454 28.9297C78.435 24.7657 78.345 20.6011 78.2754 16.4359C78.2124 12.9808 78.1854 9.52478 78.1152 6.06968C78.1035 5.47028 77.9928 4.86638 77.4339 4.35968C77.3259 4.65038 77.1981 4.87538 77.1639 5.11388C77.0433 5.93108 76.9002 6.75098 76.8624 7.57358C76.704 10.9882 76.5591 14.4037 76.452 17.8201C76.3791 20.1601 76.3773 22.4947 76.3422 24.832C76.3278 25.7977 76.2801 26.7643 76.2963 27.7291C76.3287 29.6191 76.3224 31.5181 76.4763 33.3991C76.587 34.7869 77.3385 35.8687 78.6138 36.5293C78.8244 36.6382 79.0152 36.7831 79.2276 36.8893C80.3976 37.4581 81.0933 38.4355 81.3075 39.6649C81.3183 39.7225 81.3246 39.7819 81.3336 39.8404C81.9762 39.4894 82.8213 39.2356 83.9319 39.1366C84.2766 38.0566 84.9867 37.1773 86.0829 36.5428Z" fill="#6D6E71"/>
<path d="M80.2093 62.4048C79.9834 64.7268 79.7449 67.048 79.5262 69.3709C79.3687 71.0368 79.2175 72.7008 79.0942 74.3739C78.9556 76.2639 78.8728 78.1539 78.7279 80.0439C78.5263 82.6854 78.7045 85.2792 79.6189 87.7839C80.0374 88.9296 80.5072 90.0637 81.4531 90.8971C82.3405 91.6774 82.966 91.7152 83.8219 90.9583C84.2741 90.5521 84.6534 90.0714 84.9433 89.5372C86.0806 87.4732 86.6778 85.1554 86.6794 82.7988C86.6794 80.6532 86.5471 78.504 86.3959 76.3611C86.2348 74.085 85.99 71.8143 85.7659 69.5427C85.5673 67.5069 85.3573 65.4726 85.1359 63.4398C85.0288 62.4318 84.9154 61.4239 84.8038 60.4159C82.6438 60.3835 81.3235 59.8417 80.5243 59.0938C80.4223 60.1996 80.3173 61.3032 80.2093 62.4048Z" fill="#6D6E71"/>
<path d="M63.6615 59.4893L61.9632 49.3004H61.8948V59.4893H57.8799V37.7012H62.7471C67.5171 37.7012 67.6143 40.1834 67.6143 42.0131V44.9525C67.6143 46.2593 67.5819 47.8928 65.8143 48.7424L67.6143 59.4893H63.6615ZM63.5634 41.0987C63.567 40.878 63.4832 40.6648 63.3303 40.5057C63.1774 40.3465 62.9677 40.2543 62.7471 40.2491H61.8948V46.7498H62.7444C62.965 46.7443 63.1745 46.652 63.3273 46.4929C63.4802 46.3338 63.5641 46.1208 63.5607 45.9002L63.5634 41.0987Z" fill="#BE1E2D"/>
<path d="M73.7883 59.7172C68.9859 59.7172 68.8887 57.2341 68.8887 55.4053V44.3353C68.8887 42.5056 68.9859 40.0234 73.7883 40.0234C78.5583 40.0234 78.6555 42.5056 78.6555 44.3353V50.215H72.9387V56.3566C72.9441 56.5772 73.0364 56.7867 73.1955 56.9396C73.3546 57.0925 73.5677 57.1763 73.7883 57.1729C73.8957 57.1738 74.0022 57.1532 74.1016 57.1125C74.2011 57.0718 74.2914 57.0117 74.3674 56.9357C74.4433 56.8598 74.5034 56.7694 74.5441 56.67C74.5849 56.5706 74.6054 56.4641 74.6046 56.3566V51.8773H78.6546V55.4053C78.6555 57.2341 78.5574 59.7172 73.7883 59.7172ZM74.6046 43.384C74.6054 43.2766 74.5849 43.1701 74.5441 43.0707C74.5034 42.9712 74.4433 42.8809 74.3674 42.805C74.2914 42.729 74.2011 42.6689 74.1016 42.6282C74.0022 42.5874 73.8957 42.5669 73.7883 42.5677C73.5677 42.5644 73.3546 42.6482 73.1955 42.8011C73.0364 42.954 72.9441 43.1635 72.9387 43.384V47.5654H74.6046V43.384Z" fill="#BE1E2D"/>
<path d="M85.1223 59.7172C80.3208 59.7172 80.2227 57.2341 80.2227 55.4053V44.3353C80.2227 42.5056 80.3208 40.0234 85.1223 40.0234C89.8923 40.0234 89.9895 42.5056 89.9895 44.3353V48.5491H85.9395V43.384C85.9403 43.2766 85.9198 43.1701 85.879 43.0707C85.8383 42.9712 85.7782 42.8809 85.7022 42.805C85.6263 42.729 85.5359 42.6689 85.4365 42.6282C85.3371 42.5874 85.2306 42.5669 85.1232 42.5677C84.9025 42.5644 84.6895 42.6482 84.5304 42.8011C84.3713 42.954 84.279 43.1635 84.2736 43.384V56.353C84.279 56.5736 84.3713 56.7831 84.5304 56.936C84.6895 57.0889 84.9025 57.1727 85.1232 57.1693C85.2306 57.1702 85.3371 57.1496 85.4365 57.1089C85.5359 57.0682 85.6263 57.0081 85.7022 56.9321C85.7782 56.8562 85.8383 56.7658 85.879 56.6664C85.9198 56.567 85.9403 56.4605 85.9395 56.353V50.2114H89.9895V55.4053C89.9895 57.2341 89.8914 59.7172 85.1223 59.7172Z" fill="#BE1E2D"/>
<path d="M91.5576 41.7512V37.7012H95.6076V41.7512H91.5576ZM91.5576 59.4893V43.3847H95.6076V59.4893H91.5576Z" fill="#BE1E2D"/>
<path d="M102.108 55.505H101.259V59.4902H97.2412V40.25H102.108C106.878 40.25 106.976 42.7322 106.976 44.5619V51.1913C106.976 53.0219 106.878 55.505 102.108 55.505ZM102.925 43.7447C102.928 43.5242 102.844 43.3112 102.691 43.1523C102.538 42.9933 102.329 42.9012 102.108 42.896H101.259V52.859H102.108C102.216 52.8598 102.323 52.8393 102.422 52.7985C102.521 52.7577 102.612 52.6975 102.688 52.6215C102.764 52.5454 102.824 52.455 102.865 52.3554C102.905 52.2559 102.926 52.1493 102.925 52.0418V43.7447Z" fill="#BE1E2D"/>
<path d="M113.443 59.7172C108.641 59.7172 108.543 57.2341 108.543 55.4053V44.3353C108.543 42.5056 108.641 40.0234 113.443 40.0234C118.213 40.0234 118.31 42.5056 118.31 44.3353V50.215H112.594V56.3566C112.599 56.5771 112.691 56.7866 112.85 56.9395C113.009 57.0924 113.222 57.1763 113.443 57.1729C113.55 57.1739 113.657 57.1534 113.756 57.1128C113.856 57.0721 113.946 57.012 114.022 56.936C114.098 56.8601 114.158 56.7697 114.199 56.6702C114.24 56.5707 114.261 56.4641 114.26 56.3566V51.8773H118.31V55.4053C118.31 57.2341 118.212 59.7172 113.443 59.7172ZM114.26 43.384C114.261 43.2765 114.24 43.1699 114.199 43.0705C114.158 42.971 114.098 42.8806 114.022 42.8046C113.946 42.7287 113.856 42.6686 113.756 42.6279C113.657 42.5872 113.55 42.5668 113.443 42.5677C113.222 42.5644 113.009 42.6482 112.85 42.8011C112.691 42.954 112.599 43.1635 112.594 43.384V47.5654H114.26V43.384Z" fill="#BE1E2D"/>
<path d="M119.944 59.489V56.582H124.028V59.489H119.944Z" fill="#BE1E2D"/>
<path d="M130.148 41.0654V59.4893H126.098V41.0654H123.517V37.7012H132.725V41.0654H130.148Z" fill="#BE1E2D"/>
<path d="M141.777 59.4893H136.06L133.085 37.7012H137.103L138.903 56.909L140.735 37.7012H144.753L141.777 59.4893Z" fill="#BE1E2D"/>
</svg>
