<svg width="201" height="91" viewBox="0 0 201 91" fill="none" xmlns="http://www.w3.org/2000/svg">
<path d="M48.9058 35.9105L60.9347 35.9095C63.7183 35.9074 64.9586 36.9314 64.9596 39.2302C64.9596 39.9948 64.9596 42.3264 61.2478 42.3264L48.9058 42.3294V35.9105ZM73.3964 43.5881C74.2106 41.7725 74.3047 40.1794 74.3047 39.1383C74.3032 34.5051 71.7034 30.8526 67.5268 29.6097C66.2483 29.2116 65.0039 28.9959 62.0956 28.9959L39.6934 28.999L39.6977 62.0332L48.909 62.0312L48.9074 49.2858L56.9088 49.2838L65.3176 62.0282L76.3414 62.0272L66.5675 48.5701C69.3465 47.9503 71.9814 46.7864 73.3964 43.5881Z" fill="black"/>
<path d="M87.1468 48.8317L107.189 48.8287L107.189 41.8265L87.1453 41.8295V36.0394L108.653 36.0363L108.652 28.9904L77.8867 28.995L77.8913 62.0273L109.55 62.0223V55.0213L87.1473 55.0243L87.1468 48.8317Z" fill="black"/>
<path d="M120.847 48.8269L140.89 48.8239V41.8206L120.846 41.8236L120.845 36.0345L142.353 36.0314V28.9855L111.588 28.9896L111.592 62.0215L143.252 62.0175V55.0164L120.847 55.0195V48.8269Z" fill="black"/>
<path d="M154.588 28.9835L145.37 28.9856L145.375 62.0176L168.56 62.0146V54.8339L154.592 54.8348L154.588 28.9835Z" fill="black"/>
<path d="M200.875 28.9784L170.354 28.9815L170.356 35.9395L189.084 35.9364L170.37 55.2581V62.0156L200.88 62.0106V54.8748L182.125 54.8778L200.877 35.5562L200.875 28.9784Z" fill="black"/>
<path d="M34.8756 36.8028C34.8756 41.2895 31.2534 44.9277 26.7817 44.9277C22.3117 44.9297 18.6875 41.2924 18.6875 36.8037C18.6863 32.3179 22.3097 28.6797 26.7794 28.6787C31.2508 28.6787 34.8753 32.3149 34.8756 36.8028Z" fill="#3F9BA1"/>
<path d="M17.0686 36.8046C17.0692 41.2933 13.4458 44.9306 8.97473 44.9316C4.50527 44.9316 0.879883 41.2954 0.879883 36.8076C0.879286 32.3209 4.50268 28.6827 8.97239 28.6827C13.4438 28.6806 17.0676 32.3188 17.0686 36.8046Z" fill="#6DBAB8"/>
<path d="M17.0706 54.2734C17.0712 58.7601 13.448 62.4004 8.97628 62.4004C4.50663 62.4014 0.883029 58.7621 0.881836 54.2764C0.881041 49.7887 4.50483 46.1504 8.9747 46.1494C13.4454 46.1494 17.0706 49.7857 17.0706 54.2734Z" fill="#6DBAB8"/>
<path d="M34.8776 54.2725C34.8786 58.7581 31.2554 62.3984 26.7841 62.3984C22.314 62.3994 18.6899 58.7612 18.6895 54.2744C18.6882 49.7867 22.3126 46.1485 26.7817 46.1485C31.2538 46.1474 34.8772 49.7857 34.8776 54.2725Z" fill="#6DBAB8"/>
</svg>
