<svg width="201" height="91" viewBox="0 0 201 91" fill="none" xmlns="http://www.w3.org/2000/svg">
<path fill-rule="evenodd" clip-rule="evenodd" d="M116.312 23.1895C101.64 23.1895 89.7402 34.9895 89.7402 49.5275C89.7402 57.9655 93.7402 65.3155 99.9662 70.1375H132.652C138.88 65.3155 142.88 57.9655 142.88 49.5275C142.88 34.9895 130.984 23.1895 116.312 23.1895Z" fill="url(#paint0_linear_2048_38062)"/>
<path d="M132.788 70.5371H99.8298L99.7218 70.4531C93.1218 65.3411 89.3398 57.7151 89.3398 49.5271C89.3398 34.7891 101.44 22.7891 116.312 22.7891C131.184 22.7891 143.28 34.7891 143.28 49.5271C143.28 57.7151 139.496 65.3411 132.898 70.4531L132.788 70.5371ZM100.104 69.7371H132.504C138.848 64.7891 142.48 57.4211 142.48 49.5271C142.48 35.2251 130.74 23.5891 116.312 23.5891C101.884 23.5891 90.1398 35.2251 90.1398 49.5271C90.1398 57.4211 93.7698 64.7891 100.104 69.7371Z" fill="black"/>
<path d="M1.08008 32.506V35.478C2.66208 35.478 3.73608 35.618 4.31608 35.908C4.84212 36.1462 5.27109 36.5568 5.53208 37.072C5.76208 37.556 5.87208 38.738 5.87208 40.608V58.788C5.87208 60.66 5.76208 61.834 5.53208 62.31C5.2698 62.8185 4.84837 63.2273 4.33208 63.474C3.75608 63.768 2.68008 63.916 1.08008 63.916V67.116H19.7401V63.916C18.1581 63.916 16.8561 63.766 16.2781 63.478C15.7531 63.242 15.3243 62.8343 15.0621 62.322C14.8321 61.836 14.7221 60.656 14.7221 58.784V51.34C18.9501 54.89 23.2601 61.816 27.4101 67.112H54.5081V63.998H53.3581C52.3901 63.998 51.2461 63.832 50.6761 63.5C50.1795 63.2438 49.7774 62.8361 49.5281 62.336C49.3281 61.894 49.2321 60.796 49.2321 59.026V51.256L50.2321 51.196C51.3501 51.13 52.0741 51.51 52.8921 51.982C54.0801 53.01 54.6921 54.182 54.9941 56.888H58.4321V42.088H54.9921C54.7921 43.942 54.2881 44.816 53.6161 45.904C53.0401 46.904 51.9841 47.492 50.2301 47.56H49.2301V36.36L51.7181 36.246C53.5181 36.246 54.7181 36.316 55.7461 36.572C57.6021 37.024 58.8801 37.588 59.8581 38.72C60.8361 39.852 61.3081 40.72 61.4841 42.43H64.6121V35.84H65.2461C66.2161 35.84 66.9901 36.006 67.5601 36.338C68.0538 36.5896 68.452 36.9955 68.6941 37.494C68.8807 37.938 68.9734 39.044 68.9721 40.812V58.92C68.9721 60.706 68.9001 61.782 68.7461 62.14C68.4932 62.6804 68.0788 63.129 67.5601 63.424C67.0241 63.74 66.5601 63.894 65.5601 63.894H64.4121V67.112H79.5861L86.0861 67.044C88.5741 66.714 89.4341 66.47 91.0601 65.662C92.6604 64.8572 94.0995 63.7658 95.3061 62.442C96.5481 61.106 97.8941 59.642 98.6781 57.59C99.5151 55.2701 99.9494 52.8242 99.9621 50.358C99.9621 46.836 98.7181 43.232 97.1281 40.442C95.5381 37.652 92.6461 35.57 89.5661 34.188C87.0501 33.0653 83.7247 32.5033 79.5901 32.502H35.4261V35.788H36.5741C37.5441 35.788 38.3081 35.956 38.8781 36.288C39.4481 36.62 39.8261 37.002 40.0121 37.444C40.1981 37.886 40.3001 38.988 40.3001 40.76V59.026C40.3001 60.762 40.2001 61.826 40.0121 62.238C39.8271 62.7535 39.4658 63.187 38.9921 63.462C38.3801 63.82 37.5781 63.998 36.5741 63.998H36.3401C36.1703 63.8961 36.0061 63.7853 35.8481 63.666C34.9623 62.9768 34.1897 62.1536 33.5581 61.226L25.2381 50.75C27.3487 50.2246 28.9914 49.434 30.1661 48.378C32.0021 46.71 32.9187 44.6013 32.9161 42.052C32.9509 40.0736 32.3024 38.1439 31.0801 36.588C29.8754 35.0472 28.2141 33.9271 26.3341 33.388C24.3941 32.8093 21.3334 32.5193 17.1521 32.518L1.08008 32.506ZM14.7181 35.892H16.7181C19.4581 35.892 20.3561 36.692 21.4421 37.774C22.4661 38.858 22.8541 39.374 22.9541 42.104C22.9541 43.926 22.8541 44.646 22.1821 45.778C21.5101 46.91 20.6801 47.656 19.5101 48.09C18.3401 48.524 17.8081 48.74 15.4441 48.74H14.7181V35.892ZM79.9181 36.202C81.1134 36.2082 82.2944 36.463 83.3861 36.95C85.1194 37.7006 86.5401 39.1113 87.6481 41.182C89.0481 43.836 89.7421 45.676 89.7421 50.116C89.7421 55.628 88.7161 57.782 86.6741 60.402C85.1761 62.34 83.8461 63.312 81.0061 63.312C80.1381 63.312 79.4781 63.18 79.0181 62.926C78.7056 62.7697 78.4589 62.5074 78.3221 62.186C78.1861 61.862 78.1221 60.986 78.1221 59.562V36.262C78.7213 36.2114 79.3228 36.1914 79.9241 36.202H79.9181Z" fill="#CE2027"/>
<path d="M64.4159 67.3126H64.2159V63.6946H65.5639C66.5359 63.6946 66.9499 63.5506 67.4579 63.2526C67.9426 62.9777 68.3293 62.5581 68.5639 62.0526C68.6579 61.8346 68.7639 61.1086 68.7639 58.9186V40.8126C68.7639 39.0766 68.6759 37.9866 68.4999 37.5726C68.3239 37.1586 67.9879 36.8246 67.4499 36.5126C66.9119 36.2006 66.1679 36.0406 65.2379 36.0406H64.8039V42.6306H61.3019L61.2839 42.4506C61.1099 40.7366 60.6159 39.8946 59.7079 38.8506C58.8299 37.8506 57.7079 37.2506 55.7079 36.7606C54.6479 36.4946 53.3499 36.4406 51.7259 36.4406L49.4399 36.5446V47.3546H50.2399C51.8299 47.2926 52.8839 46.7846 53.4519 45.7986C54.1639 44.6466 54.6079 43.8226 54.8019 42.0606L54.8219 41.8826H58.6399V57.0826H54.8139L54.7919 56.9046C54.4699 54.1046 53.8339 53.0626 52.7739 52.1406C51.9439 51.6626 51.2719 51.3406 50.2419 51.3906L49.4319 51.4406V59.0206C49.4319 61.1706 49.5839 61.9626 49.7099 62.2506C49.9441 62.7108 50.317 63.0858 50.7759 63.3226C51.2619 63.6046 52.2999 63.7926 53.3599 63.7926H54.7079V67.3066H27.3079L27.2479 67.2306C25.9939 65.6306 24.7019 63.8486 23.4479 62.1266C20.6479 58.2586 17.7419 54.2626 14.9119 51.7706V58.7706C14.9119 60.6126 15.0199 61.7706 15.2319 62.2226C15.4747 62.695 15.8721 63.0698 16.3579 63.2846C16.8799 63.5466 18.1419 63.7026 19.7299 63.7026H19.9299V67.3026H0.879883V63.7026H1.07988C2.63788 63.7026 3.69988 63.5606 4.23788 63.2786C4.71568 63.0516 5.10668 62.6754 5.35188 62.2066C5.56388 61.7646 5.67188 60.6066 5.67188 58.7706V40.6086C5.67188 38.7686 5.56388 37.6086 5.35188 37.1586C5.10866 36.6842 4.7117 36.3063 4.22588 36.0866C3.68188 35.8146 2.62588 35.6866 1.07988 35.6866H0.879883V32.3066H17.1519C21.3299 32.3066 24.4379 32.6026 26.3899 33.1846C28.3093 33.7382 30.0051 34.8832 31.2359 36.4566C32.4874 38.0518 33.1514 40.0294 33.1159 42.0566C33.1159 44.6566 32.1679 46.8346 30.2999 48.5306C29.1639 49.5506 27.5779 50.3306 25.5859 50.8726L33.7159 61.1046C34.3157 61.9853 35.0453 62.7702 35.8799 63.4326L35.9779 63.5126C36.1059 63.6086 36.2479 63.7126 36.3999 63.7986H36.5779C37.5359 63.7986 38.3159 63.6286 38.8959 63.2906C39.3304 63.0359 39.6616 62.6367 39.8319 62.1626C39.9579 61.8866 40.1039 61.1266 40.1039 59.0266V40.7606C40.1039 38.6126 39.9559 37.8126 39.8319 37.5206C39.6619 37.1206 39.3179 36.7706 38.7819 36.4586C38.2459 36.1466 37.4999 35.9886 36.5739 35.9886H35.2259V32.3066H79.5899C83.7319 32.3066 87.1139 32.8806 89.6479 34.0106C92.1259 35.1186 95.4659 37.1186 97.3059 40.3446C99.1239 43.5326 100.166 47.1826 100.166 50.3586C100.151 52.8493 99.712 55.3193 98.8679 57.6626C98.0679 59.7806 96.6679 61.2626 95.4559 62.5786C94.2338 63.9211 92.7748 65.0269 91.1519 65.8406C89.4959 66.6646 88.6019 66.9146 86.1159 67.2406H86.0919L79.5919 67.3086L64.4159 67.3126ZM64.6159 66.9126H79.5899L86.0759 66.8446C88.5259 66.5206 89.3519 66.2906 90.9739 65.4826C92.5532 64.6893 93.9734 63.6128 95.1639 62.3066C96.3639 61.0206 97.7139 59.5646 98.4939 57.5186C99.3214 55.2215 99.7516 52.8002 99.7659 50.3586C99.7659 47.2506 98.7419 43.6726 96.9659 40.5426C95.1899 37.4126 91.9079 35.4606 89.4799 34.3746C86.9999 33.2686 83.6799 32.7066 79.5859 32.7066H35.6259V35.5886H36.5739C37.5739 35.5886 38.3739 35.7666 38.9739 36.1146C39.5739 36.4626 39.9859 36.8826 40.1899 37.3666C40.3939 37.8506 40.4939 38.9666 40.4939 40.7666V59.0326C40.4939 60.8006 40.3939 61.8786 40.1879 62.3286C39.985 62.8835 39.5935 63.3493 39.0819 63.6446C38.4459 64.0166 37.5979 64.2046 36.5679 64.2046H36.2799L36.2319 64.1766C36.0519 64.0666 35.8799 63.9506 35.7239 63.8326L35.6219 63.7506C34.7617 63.0678 34.0098 62.2586 33.3919 61.3506L24.8799 50.6326L25.1819 50.5566C27.2519 50.0406 28.8799 49.2566 30.0239 48.2286C31.8039 46.6126 32.7079 44.5346 32.7079 42.0526C32.7399 40.1162 32.1043 38.2277 30.9079 36.7046C29.7328 35.1992 28.1136 34.102 26.2799 33.5686C24.3659 32.9966 21.2959 32.7066 17.1559 32.7066H1.27988V35.2786C2.79788 35.2906 3.82188 35.4386 4.40388 35.7286C4.96923 35.9881 5.42921 36.4325 5.70788 36.9886C5.94988 37.4986 6.06788 38.6846 6.06788 40.6106V58.7886C6.06788 60.7146 5.94988 61.8946 5.70788 62.3886C5.42692 62.9372 4.97374 63.3784 4.41788 63.6446C3.83988 63.9466 2.81788 64.0986 1.27588 64.1106V66.9106H19.5359V64.1106C18.5359 64.1106 16.9359 64.0266 16.1859 63.6526C15.6215 63.3979 15.1608 62.9584 14.8799 62.4066C14.6379 61.8966 14.5199 60.7126 14.5199 58.7846V50.9126L14.8459 51.1886C17.8179 53.6826 20.8459 57.8586 23.7779 61.8986C25.0039 63.5906 26.2739 65.3386 27.5039 66.9126H54.3039V64.1986H53.3599C52.4919 64.1986 51.2419 64.0626 50.5759 63.6726C50.043 63.3953 49.6117 62.9563 49.3439 62.4186C49.1439 61.9426 49.0319 60.8346 49.0319 59.0186V51.0686L50.2179 50.9966C51.3639 50.9286 52.1199 51.3086 52.9899 51.8106L53.0219 51.8326C54.2939 52.9346 54.8659 54.2166 55.1699 56.6886H58.2299V42.2886H55.1699C54.9559 44.0106 54.4799 44.8886 53.7859 46.0106C53.1459 47.1186 51.9859 47.6926 50.2379 47.7606H49.0379V36.1606L51.7159 36.0386C53.3739 36.0386 54.6959 36.0966 55.7939 36.3706C57.8619 36.8846 59.0799 37.5266 60.0099 38.5886C60.9399 39.6506 61.4599 40.5286 61.6619 42.2306H64.4119V35.6406H65.2459C66.2459 35.6406 67.0599 35.8166 67.6599 36.1666C68.2599 36.5166 68.6799 36.9326 68.8799 37.4166C69.0799 37.9006 69.1739 38.9986 69.1739 40.8166V58.9246C69.1739 61.3726 69.0359 61.9806 68.9319 62.2226C68.6592 62.7984 68.2148 63.2756 67.6599 63.5886C67.0999 63.9186 66.6219 64.0866 65.5639 64.0866H64.6159V66.9126ZM81.0159 63.5126C80.1219 63.5126 79.4159 63.3726 78.9319 63.1006C78.5793 62.9233 78.3014 62.6262 78.1479 62.2626C78.0539 62.0386 77.9279 61.5166 77.9279 59.5626V36.0786L78.1119 36.0646C78.7171 36.0124 79.3245 35.9917 79.9319 36.0026C81.155 36.008 82.3635 36.2689 83.4799 36.7686C85.2519 37.5326 86.7179 38.9866 87.8399 41.0886C89.3319 43.9306 89.9559 45.8106 89.9559 50.1166C89.9559 55.5726 88.9559 57.8206 86.8459 60.5166C85.3419 62.4626 83.9719 63.5126 81.0119 63.5126H81.0159ZM78.3239 36.4486V59.5626C78.3239 61.2966 78.4279 61.9046 78.5139 62.1086C78.6314 62.3866 78.8441 62.6135 79.1139 62.7486C79.5479 62.9906 80.1839 63.1126 81.0079 63.1126C83.8079 63.1126 85.0679 62.1586 86.5179 60.2806C88.6099 57.5946 89.5439 55.4806 89.5439 50.1166C89.5439 45.5446 88.7619 43.7266 87.4739 41.2766C86.3979 39.2566 84.9959 37.8626 83.3099 37.1346C82.2397 36.6571 81.0818 36.4078 79.9099 36.4026C79.4419 36.3886 78.9179 36.4066 78.3239 36.4486ZM15.4439 48.9406H14.5179V35.6926H16.7179C19.4399 35.6926 20.4119 36.4606 21.5839 37.6346C22.6259 38.7366 23.0499 39.2946 23.1539 42.0986C23.1539 43.9586 23.0439 44.7206 22.3539 45.8806C21.6419 47.0806 20.7539 47.8446 19.5839 48.2806L19.5019 48.3106C18.3599 48.7306 17.7879 48.9406 15.4439 48.9406ZM14.9179 48.5406H15.4439C17.7159 48.5406 18.2659 48.3406 19.3579 47.9406L19.4399 47.9106C20.5399 47.5106 21.3319 46.8186 22.0039 45.6846C22.6499 44.5986 22.7479 43.9106 22.7479 42.1126C22.6519 39.4906 22.2979 38.9866 21.2899 37.9126C20.3159 36.9386 19.4719 36.0926 16.7119 36.0926H14.9119L14.9179 48.5406Z" fill="black"/>
<path d="M130.936 32.5059L130.43 43.4039H133.63C134.03 40.8639 134.998 39.3579 136.526 37.9859C137.614 37.0039 138.798 36.5119 141.204 36.5119H142.88V59.2599C142.88 60.9879 142.786 62.0599 142.592 62.4599C142.38 62.9766 141.999 63.4061 141.512 63.6779C140.916 64.0069 140.25 64.1905 139.57 64.2139H138.38V66.9579H157.08V64.2179H155.894C154.874 64.2179 154.078 64.0499 153.494 63.7199C152.91 63.3899 152.51 63.0039 152.308 62.5619C152.106 62.1199 152.006 61.0219 152.006 59.2599V36.5119H153.652C155.32 36.5119 156.484 36.6679 157.152 36.9739C158.268 37.4681 159.238 38.2408 159.97 39.2179C160.656 40.1579 161.276 41.2539 161.838 43.4039H164.814L164.354 35.9599C165.744 36.3259 167.448 36.9979 167.816 37.4339C168.298 38.0099 168.758 39.0819 169.864 41.5679L180.58 67.7479H183.8L193.354 44.5299C194.754 41.3979 195.778 38.4919 196.49 37.6459C197.632 36.1919 199.424 36.0359 200.676 35.8319V32.5059H186.862V35.9219C188.062 35.9219 188.65 36.0659 189.378 36.3539C189.86 36.5211 190.279 36.8325 190.578 37.2459C190.848 37.641 190.988 38.111 190.978 38.5899C190.973 39.1349 190.878 39.6754 190.698 40.1899L189.098 44.9219L184.776 56.6739L180.332 44.0979C179.552 42.2859 178.532 39.1999 178.398 38.7859C178.276 38.4404 178.208 38.0781 178.198 37.7119C178.187 37.4896 178.235 37.2683 178.338 37.0709C178.44 36.8734 178.593 36.7067 178.782 36.5879C179.324 36.2132 180.34 36.0265 181.828 36.0279H182.388V32.5059H130.936Z" fill="#CE2027"/>
<path d="M183.934 67.9486H180.44L180.388 67.8246L169.68 41.6446L169.48 41.2226C168.524 39.0666 168.08 38.0846 167.652 37.5626C167.368 37.2246 165.964 36.6226 164.56 36.2266L165.018 43.6046H161.68L161.642 43.4566C161.1 41.3846 160.518 40.3126 159.806 39.3366C159.092 38.3869 158.146 37.6357 157.06 37.1546C156.42 36.8626 155.27 36.7126 153.646 36.7126H152.198V59.2606C152.198 61.4086 152.354 62.1966 152.484 62.4806C152.73 62.9423 153.116 63.3146 153.586 63.5446C154.144 63.8586 154.92 64.0186 155.892 64.0186H157.28V67.1626H138.18V64.0186H139.566C140.212 63.9953 140.845 63.8207 141.412 63.5086C141.862 63.2568 142.215 62.86 142.412 62.3826C142.536 62.1226 142.682 61.3726 142.682 59.2606V36.7126H141.2C138.728 36.7126 137.628 37.2566 136.656 38.1346C135.008 39.6146 134.188 41.1506 133.824 43.4366L133.798 43.6046H130.22L130.746 32.3066H182.588V36.2366H181.828C180.388 36.2366 179.402 36.4126 178.896 36.7606C178.734 36.8599 178.602 37.0009 178.514 37.1688C178.425 37.3366 178.384 37.5252 178.394 37.7146C178.407 38.0604 178.474 38.4019 178.594 38.7266C178.638 38.8626 179.704 42.1266 180.522 44.0226L184.786 56.0866L188.916 44.8546L190.516 40.1286C190.687 39.633 190.776 39.1129 190.78 38.5886C190.788 38.1497 190.658 37.7192 190.408 37.3586C190.132 36.9802 189.748 36.6942 189.306 36.5386C188.606 36.2626 188.036 36.1206 186.862 36.1206H186.662V32.3066H200.88V36.0026L200.712 36.0306L200.384 36.0826C199.164 36.2686 197.648 36.5006 196.65 37.7706C196.202 38.3046 195.614 39.7186 194.868 41.5086C194.468 42.4526 194.028 43.5246 193.54 44.6126L183.934 67.9486ZM180.708 67.5486H183.666L193.168 44.4546C193.658 43.3666 194.102 42.2966 194.494 41.3546C195.254 39.5326 195.852 38.0946 196.336 37.5186C197.426 36.1306 199.098 35.8746 200.318 35.6866L200.476 35.6626V32.7066H187.062V35.7246C187.884 35.7053 188.701 35.8564 189.462 36.1686C189.978 36.3524 190.425 36.6886 190.746 37.1326C191.038 37.5613 191.189 38.0701 191.18 38.5886C191.174 39.156 191.076 39.7187 190.89 40.2546L189.28 44.9886L184.764 57.2666L180.136 44.1666C179.316 42.2606 178.244 38.9886 178.2 38.8506C178.07 38.4855 177.997 38.1022 177.986 37.7146C177.977 37.458 178.036 37.2035 178.158 36.9775C178.28 36.7515 178.46 36.562 178.68 36.4286C179.258 36.0286 180.28 35.8286 181.834 35.8286H182.194V32.7066H131.128L130.64 43.2046H133.458C133.858 40.9126 134.706 39.3486 136.388 37.8386C137.62 36.7266 138.924 36.3126 141.2 36.3126H143.08V59.2606C143.08 61.0406 142.978 62.1166 142.772 62.5506C142.542 63.1066 142.13 63.5678 141.604 63.8586C140.979 64.2049 140.281 64.3969 139.568 64.4186H138.58V66.7626H156.88V64.4186H155.894C154.854 64.4186 154.012 64.2426 153.392 63.8946C152.847 63.6241 152.402 63.187 152.122 62.6466C151.906 62.1766 151.8 61.0686 151.8 59.2606V36.3126H153.648C155.33 36.3126 156.536 36.4746 157.23 36.7926C158.376 37.303 159.374 38.0974 160.128 39.1006C160.848 40.0886 161.442 41.1706 161.988 43.2046H164.598L164.134 35.6966L164.4 35.7686C165.612 36.0866 167.518 36.7686 167.964 37.3066C168.41 37.8446 168.88 38.8706 169.852 41.0606L170.042 41.4886L180.708 67.5486Z" fill="black"/>
<path d="M0.956055 68.9355V70.6215H199.544V68.9355H0.956055Z" fill="black"/>
<path d="M117.044 37.9883C117.055 38.0276 117.057 38.0689 117.05 38.1091C117.042 38.1493 117.026 38.1873 117.002 38.2203L118.508 38.6203V38.3003L117.044 37.9883Z" fill="black"/>
<path d="M127.257 33.3887L119.881 34.5707V36.2407H118.807C118.819 36.4407 118.821 36.6407 118.807 36.8407H119.881V38.0267L127.249 39.7267V33.3887H127.257Z" fill="black"/>
<path d="M111.03 36.5041C111.03 35.4881 111.72 34.4141 112.724 34.4141C113.728 34.4141 114.42 35.4681 114.42 36.5001C114.42 37.5621 113.678 38.6241 112.692 38.6161C111.706 38.6081 111.03 37.5361 111.03 36.5041Z" fill="black"/>
<path d="M115.579 36.4605C115.579 38.3805 114.329 39.9385 112.779 39.9385C111.229 39.9385 109.979 38.3805 109.979 36.4605C109.979 34.5405 111.229 32.9805 112.779 32.9805C114.329 32.9805 115.579 34.5385 115.579 36.4605Z" stroke="black" stroke-width="0.25" stroke-miterlimit="4.84"/>
<path d="M117.033 36.461C117.033 39.361 115.131 41.713 112.785 41.713C110.439 41.713 108.539 39.361 108.539 36.461C108.539 33.561 110.441 31.207 112.785 31.207C115.129 31.207 117.033 33.559 117.033 36.461Z" stroke="black" stroke-width="0.5" stroke-miterlimit="4.84"/>
<path d="M106.818 37.8919C106.635 36.9928 106.65 36.0646 106.862 35.1719L110.936 36.1719C110.836 36.4943 110.836 36.8395 110.936 37.1619L106.818 37.8919Z" fill="black"/>
<path d="M110.891 35.9997L107.091 34.0657C107.291 33.2837 107.449 32.5017 108.233 31.6797L111.287 35.0197C111.105 35.3238 110.971 35.6545 110.891 35.9997Z" fill="black"/>
<path d="M110.969 37.3008L107.119 39.0308C107.319 39.8148 107.435 40.6888 108.219 41.5108L111.453 38.2268C111.246 37.9441 111.083 37.632 110.969 37.3008Z" fill="black"/>
<path d="M118.703 37.9638C118.885 37.0409 118.868 36.0897 118.653 35.1738L114.551 36.1218C114.631 36.4729 114.615 36.8391 114.505 37.1818L118.703 37.9638Z" fill="black"/>
<path d="M114.552 35.9605L118.342 34.0645C118.268 33.5045 118.06 32.4645 117.276 31.6445L114.148 34.9885C114.331 35.2904 114.467 35.6181 114.552 35.9605Z" fill="black"/>
<path d="M114.467 37.3887L118.355 39.0167C118.155 39.8007 118.045 40.6847 117.261 41.5067L114.011 38.2687C114.209 38.0017 114.363 37.7045 114.467 37.3887Z" fill="black"/>
<path d="M112.122 34.2442L110.78 29.4102C109.996 29.6102 109.58 29.9822 108.75 30.7662L111.408 34.8722C111.56 34.5819 111.815 34.3582 112.122 34.2442Z" fill="black"/>
<path d="M113.08 34.2164C112.799 34.1492 112.507 34.1397 112.222 34.1884L111.648 28.9884C112.37 28.8239 113.123 28.8557 113.828 29.0804L113.08 34.2164Z" fill="black"/>
<path d="M113.404 34.3325L114.664 29.4785C115.448 29.6785 116.026 29.9145 116.604 30.7625L114.116 34.9625C113.965 34.6724 113.711 34.4486 113.404 34.3345V34.3325Z" fill="black"/>
<path d="M112.21 38.8372L110.824 43.7372C110.04 43.5372 109.624 43.1672 108.794 42.3832L111.542 38.3672C111.608 38.4928 111.703 38.6008 111.819 38.6825C111.936 38.7642 112.069 38.8172 112.21 38.8372Z" fill="black"/>
<path d="M113.08 38.8672C112.828 38.9274 112.565 38.9274 112.312 38.8672L111.57 44.1092C112.334 44.291 113.131 44.2751 113.886 44.0632L113.08 38.8672Z" fill="black"/>
<path d="M113.28 38.8391L114.732 43.7231C115.514 43.5231 116.026 43.2351 116.602 42.3871L113.962 38.3711C113.85 38.6151 113.48 38.7891 113.28 38.8391Z" fill="black"/>
<path d="M118.376 40.0176C118.268 40.9596 117.754 41.4676 117.242 41.9756L115.92 40.5756L115.798 40.7256L116.918 42.2536L117.318 42.0936L117.748 43.2816L116.894 46.2516L116.88 45.5096V42.4376L116.44 42.8836L116.388 46.2616L115.648 43.5876C115.472 43.7372 115.257 43.8342 115.028 43.8676L113.6 47.4876L114.454 43.2336L114.182 42.7336L108.898 68.8496H109.344L109.988 65.5996L112.48 68.8496H113.152L116.416 64.8896V68.8496H113.154H116.788H116.918V64.9276L120.152 68.8496H120.826L123.32 65.5996L123.962 68.8496H124.408L118.906 41.4996L119.608 41.0616V40.5876L118.376 40.0276V40.0176ZM118.558 41.6356L119.698 47.4776L118.098 43.4196L118.558 41.6356ZM118.232 41.7576L117.908 42.6856L117.612 41.9996L118.232 41.7576ZM115.28 44.0316L116.338 47.7576L113.504 48.6636L115.28 44.0316ZM118.022 44.0316L119.798 48.6636L116.964 47.7576L118.022 44.0316ZM116.28 48.1876L114.596 51.6116L113.416 49.0656L116.28 48.1876ZM117.014 48.1876L119.88 49.0656L118.7 51.6116L117.014 48.1876ZM116.402 48.5436L116.38 55.1876L114.68 51.7696L116.396 48.5436H116.402ZM116.892 48.5436L118.608 51.7696L116.918 55.1876L116.894 48.5456L116.892 48.5436ZM113.28 49.5636L114.398 51.8316L111.836 56.5096L113.28 49.5636ZM120.014 49.5636L121.458 56.5096L118.896 51.8316L120.014 49.5636ZM114.534 52.1256L116.274 55.8216L111.936 56.8216L114.534 52.1256ZM118.76 52.1256L121.36 56.8116L117.022 55.8116L118.76 52.1256ZM116.236 56.2896L113.78 59.8336L111.88 57.3016L116.236 56.2896ZM117.058 56.2896L121.42 57.3016L119.516 59.8336L117.058 56.2896ZM116.416 56.6896V63.6056L113.938 60.0456L116.408 56.6896H116.416ZM116.9 56.7196L119.348 60.0456L116.908 63.5516V56.7196H116.9ZM111.48 57.5676L113.46 60.1516L110.26 64.4516L111.48 57.5676ZM121.826 57.5676L123.05 64.4516L119.85 60.1516L121.826 57.5676ZM113.68 60.4536L116.28 64.1656L110.318 64.8896L113.68 60.4536ZM119.614 60.4536L122.968 64.8896L117.006 64.1656L119.614 60.4536ZM115.978 64.7536L112.88 68.5176L110.312 65.3876L115.978 64.7536ZM117.316 64.7536L122.986 65.3876L120.416 68.5096L117.316 64.7536Z" fill="black"/>
<defs>
<linearGradient id="paint0_linear_2048_38062" x1="116.308" y1="25.2155" x2="116.308" y2="60.4835" gradientUnits="userSpaceOnUse">
<stop stop-color="#F79B1D"/>
<stop offset="1" stop-color="#F5EB26"/>
</linearGradient>
</defs>
</svg>
