<svg width="201" height="91" viewBox="0 0 201 91" fill="none" xmlns="http://www.w3.org/2000/svg">
<path d="M118.926 47.1371C118.926 38.5759 122.823 30.9083 128.934 25.812C129.072 24.6959 129.224 23.5763 129.413 22.4615C124.265 22.4615 119.368 22.4615 114.464 22.4615C112.98 30.4483 111.538 38.2151 110.014 46.4176C105.205 38.5085 101.034 31.1589 96.2402 23.4025C95.8345 22.7515 94.6082 22.2875 93.7599 22.2844C84.5934 22.2497 81.8663 22.2596 81.8663 22.2596C81.0995 26.8188 80.3119 31.4502 79.5148 36.1097C79.3429 28.7753 72.9448 22.8416 65.7284 22.5219C56.1786 22.1705 47.0915 22.1721 37.4239 22.1932C34.4015 37.4455 31.3769 55.7775 28.8799 70.687C34.2249 70.583 45.8454 70.687 45.8454 70.687L48.4526 58.1992H53.1558L56.7361 70.687C56.7361 70.687 65.1119 70.687 73.5485 70.687C77.8682 70.687 82.204 70.687 85.4396 70.687C86.4879 70.687 87.5394 70.687 88.6004 70.687C89.9607 62.7943 91.3178 54.7921 92.7489 46.489C97.4508 54.2299 101.594 61.6119 106.25 69.2773C106.653 69.9422 107.721 70.5514 108.503 70.5799C112.716 70.6718 116.834 70.751 121.062 70.5532C121.612 67.4337 122.159 64.3293 122.722 61.1354C120.311 57.0228 118.926 52.2389 118.926 47.1371ZM62.7071 40.7928C61.3959 46.7494 55.0516 45.7157 50.2727 45.7178C50.8868 42.2121 51.4679 38.8975 52.0711 35.454C56.4845 35.79 64.3232 33.2943 62.7071 40.7928ZM74.0498 66.4953C72.3052 62.411 70.7506 58.7706 69.1491 55.0215C73.0466 52.7032 75.9091 49.4533 77.8133 45.3144C76.8146 51.9996 75.303 59.1713 74.0498 66.4953Z" fill="black"/>
<path d="M146.687 20.9453C132.221 20.9453 120.494 32.6723 120.494 47.1385C120.494 61.6046 132.221 73.3316 146.687 73.3316C161.153 73.3316 172.88 61.6046 172.88 47.1385C172.88 32.6723 161.153 20.9453 146.687 20.9453ZM158.999 57.8952H150.958C149.111 53.251 147.01 48.0967 145.294 43.5234L145.096 42.9622C145.021 42.7229 144.958 42.6153 144.707 42.6234C144.707 42.6234 141.711 42.6234 140.747 42.6234V57.9009H132.993V42.7216H127.03V36.551H151.216C152.395 40.2048 153.624 44.0124 154.852 47.8198L155.011 48.3046L155.17 47.9013C156.431 44.0848 157.693 40.2683 158.935 36.5113H167.113C164.359 43.7723 161.682 50.8264 158.999 57.8952Z" fill="#D8202A"/>
<path d="M150.958 57.8956C149.11 53.2515 147.009 48.0971 145.293 43.5238L145.095 42.9626C145.021 42.7233 144.958 42.6157 144.707 42.6238C144.707 42.6238 141.711 42.6238 140.747 42.6238V57.9014H132.992V42.722H127.029V36.5514H151.216C152.395 40.2052 153.623 44.0128 154.852 47.8202L155.01 48.3051L155.169 47.9017C156.431 44.0852 157.693 40.2687 158.934 36.5117H167.113C164.358 43.7725 161.681 50.8263 158.998 57.8954L150.958 57.8956Z" fill="white"/>
</svg>
