<svg width="201" height="91" viewBox="0 0 201 91" fill="none" xmlns="http://www.w3.org/2000/svg">
<path fill-rule="evenodd" clip-rule="evenodd" d="M55.8799 21.388L76.9983 0.369141H145.88V69.7422L125.353 90.3691H55.8799V21.388ZM103.214 54.6237C104.124 53.3681 104.762 51.9376 105.091 50.4226C105.479 48.6741 105.665 46.8867 105.645 45.0956C105.655 43.6171 105.57 42.1395 105.39 40.672C105.247 39.4796 104.911 38.3186 104.393 37.2348C103.897 36.2272 103.192 35.3373 102.324 34.6244C101.271 33.792 100.088 33.1369 98.824 32.6849L93.859 30.7089C93.1596 30.4441 92.4914 30.1033 91.8664 29.6927C91.4112 29.3878 91.0299 28.985 90.7505 28.5137C90.484 28.0218 90.3212 27.4803 90.2723 26.9229C90.2025 26.1712 90.1704 25.4163 90.176 24.6613C90.1726 23.9255 90.2348 23.1909 90.362 22.4661C90.4706 21.8157 90.6956 21.1902 91.0262 20.6196C91.3525 20.0801 91.8093 19.6312 92.3546 19.3145C93.0143 18.9514 93.7608 18.7756 94.5133 18.8063C96.1672 18.8063 97.2697 19.3477 97.9705 20.4303C98.6712 21.513 98.8672 22.7949 98.8672 24.2794V25.9499H105.277V22.5558C105.277 21.2838 105.207 20.0418 104.699 18.8329C104.25 17.6195 103.567 16.5058 102.69 15.5551C101.704 14.558 100.537 13.7578 99.2524 13.1971C97.8567 12.5931 96.3495 12.2899 94.8288 12.3071C93.1412 12.2725 91.4671 12.6127 89.9269 13.3034C88.5856 13.9176 87.3995 14.8257 86.4565 15.9602C85.5116 17.1249 84.8083 18.4661 84.3875 19.9056C83.9138 21.4745 83.6776 23.1055 83.6867 24.7444C83.6823 27.5894 84.1605 29.9551 85.1214 31.8414C86.0823 33.7277 87.9642 35.2444 90.7672 36.3912L95.4166 38.3008C96.0859 38.5736 96.7351 38.8932 97.3594 39.2573C97.8299 39.5378 98.2226 39.9317 98.5018 40.403C98.8084 40.9743 98.9928 41.6031 99.0432 42.2495C99.138 43.2218 99.1801 44.1985 99.1694 45.1754C99.1694 46.1949 99.1229 47.1281 99.0398 47.9783C98.9823 48.723 98.7745 49.4483 98.4288 50.1104C98.1009 50.6837 97.6094 51.1462 97.0173 51.4388C96.1977 51.7962 95.3068 51.9598 94.4137 51.917C92.7598 51.917 91.5343 51.4388 90.8336 50.4857C90.114 49.5662 89.7119 48.4382 89.6878 47.2709V45.2451H83.2749V47.6528C83.2844 49.1228 83.5988 50.5748 84.1981 51.917C84.7668 53.1953 85.5777 54.3512 86.586 55.3211C87.5928 56.2977 88.7822 57.0662 90.0863 57.5827C91.4781 58.1393 92.9646 58.4201 94.4635 58.4097C96.5424 58.4097 98.3026 58.0698 99.7439 57.3901C101.113 56.7719 102.306 55.8209 103.214 54.6237ZM123.044 25.9665H129.47L129.487 23.1403C129.487 21.5728 129.404 20.1215 128.873 18.7831C128.341 17.4447 127.79 16.299 126.857 15.3425C125.912 14.3832 124.782 13.6262 123.536 13.1174C122.222 12.5784 120.814 12.3074 119.394 12.3204C117.917 12.3004 116.45 12.5712 115.077 13.1174C113.821 13.618 112.677 14.3643 111.713 15.3126C110.758 16.257 110.008 17.3874 109.508 18.6337C108.969 19.9438 108.686 21.3451 108.674 22.7617V47.7259C108.635 49.5025 109 51.2647 109.74 52.8801C110.355 54.151 111.242 55.2712 112.337 56.1613C113.341 56.9728 114.506 57.5615 115.755 57.8883C116.976 58.2204 118.235 58.3912 119.501 58.3964C120.887 58.4072 122.259 58.1136 123.519 57.5362C124.731 56.9826 125.827 56.2051 126.751 55.2447C127.661 54.2774 128.376 53.1428 128.856 51.9038C129.387 50.6318 129.47 49.2934 129.47 47.892V45.2351H123.044V47.3241C123.044 47.3572 123.044 47.3902 123.044 47.4229C123.045 48.278 123.045 48.9799 122.802 49.5525C122.792 49.5756 122.782 49.5986 122.773 49.6214C122.534 50.1835 122.344 50.6315 121.958 50.9506C121.562 51.2846 121.102 51.5343 120.607 51.6846C120.154 51.8265 119.683 51.9014 119.208 51.9071C117.724 51.9071 116.635 51.4687 116.063 50.5787C115.421 49.5908 115.081 48.4362 115.087 47.2576V24.0868C115.063 22.7708 115.364 21.4691 115.964 20.2975C116.492 19.3012 117.644 18.803 119.258 18.803C119.812 18.7843 120.362 18.9024 120.86 19.1468C121.358 19.3913 121.787 19.7545 122.111 20.2045C122.832 21.151 123.044 22.2536 123.044 23.5255V25.9665ZM133.144 58.1008H139.57V12.8052H133.144V58.1008Z" fill="#529FEA"/>
<g style="mix-blend-mode:soft-light" opacity="0.3">
<path d="M76.9983 0.365234L55.8799 21.3874V90.3652L76.9983 69.7416V0.365234Z" fill="#F1F2F2"/>
</g>
<g style="mix-blend-mode:overlay" opacity="0.3">
<path d="M76.9983 69.7422L55.8799 90.3658H125.353L145.88 69.7422H76.9983Z" fill="#58595B"/>
</g>
<path d="M105.091 50.4226C104.763 51.9376 104.124 53.3681 103.215 54.6237C102.307 55.8209 101.114 56.7719 99.7444 57.3901C98.3031 58.0698 96.5429 58.4097 94.464 58.4097C92.9651 58.4201 91.4785 58.1393 90.0868 57.5827C88.7827 57.0662 87.5933 56.2977 86.5865 55.3211C85.5782 54.3512 84.7673 53.1953 84.1986 51.917C83.5993 50.5748 83.2849 49.1228 83.2754 47.6528V45.2451H89.6883V47.2709C89.7124 48.4382 90.1144 49.5663 90.8341 50.4857C91.5348 51.4388 92.7603 51.917 94.4141 51.917C95.3073 51.9598 96.1982 51.7962 97.0178 51.4388C97.6099 51.1462 98.1013 50.6837 98.4293 50.1104C98.7749 49.4483 98.9828 48.723 99.0403 47.9783C99.1234 47.1281 99.1699 46.1949 99.1699 45.1754C99.1806 44.1985 99.1385 43.2218 99.0437 42.2495C98.9933 41.6031 98.8089 40.9743 98.5023 40.403C98.2231 39.9317 97.8304 39.5378 97.3599 39.2573C96.7356 38.8932 96.0864 38.5736 95.4171 38.3008L90.7676 36.3912C87.9647 35.2444 86.0828 33.7277 85.1219 31.8414C84.161 29.9551 83.6828 27.5894 83.6872 24.7444C83.6781 23.1055 83.9143 21.4745 84.3879 19.9056C84.8088 18.4661 85.5121 17.1249 86.4569 15.9602C87.4 14.8257 88.5861 13.9176 89.9274 13.3034C91.4675 12.6127 93.1417 12.2725 94.8293 12.3071C96.3499 12.2899 97.8572 12.5931 99.2529 13.1971C100.538 13.7578 101.704 14.558 102.69 15.5551C103.568 16.5058 104.25 17.6195 104.699 18.8329C105.207 20.0418 105.277 21.2838 105.277 22.5558V25.9499H98.8676V24.2794C98.8676 22.7949 98.6717 21.513 97.971 20.4303C97.2702 19.3477 96.1676 18.8063 94.5138 18.8063C93.7613 18.7756 93.0148 18.9514 92.3551 19.3145C91.8098 19.6312 91.353 20.0801 91.0267 20.6196C90.696 21.1902 90.471 21.8157 90.3625 22.4661C90.2353 23.1909 90.173 23.9255 90.1765 24.6613C90.1708 25.4163 90.203 26.1712 90.2728 26.9229C90.3217 27.4803 90.4844 28.0218 90.751 28.5137C91.0304 28.985 91.4117 29.3878 91.8669 29.6927C92.4919 30.1033 93.1601 30.4441 93.8595 30.7089L98.8245 32.6849C100.089 33.1369 101.271 33.7919 102.325 34.6244C103.193 35.3373 103.898 36.2272 104.394 37.2348C104.911 38.3186 105.248 39.4796 105.39 40.672C105.57 42.1395 105.656 43.6171 105.646 45.0956C105.666 46.8867 105.48 48.6741 105.091 50.4226ZM129.471 25.9665H123.045V23.5255C123.045 22.2536 122.832 21.151 122.112 20.2045C121.788 19.7545 121.358 19.3913 120.861 19.1468C120.363 18.9024 119.813 18.7843 119.259 18.803C117.645 18.803 116.492 19.3012 115.964 20.2975C115.365 21.4691 115.063 22.7708 115.088 24.0868V47.2576C115.082 48.4362 115.421 49.5908 116.064 50.5787C116.635 51.4687 117.724 51.9071 119.209 51.9071C119.683 51.9014 120.154 51.8265 120.607 51.6846C121.103 51.5343 121.563 51.2846 121.959 50.9506C122.361 50.6185 122.55 50.1469 122.802 49.5525C123.055 48.958 123.045 48.2241 123.045 47.3241V45.2351H129.471V47.892C129.471 49.2934 129.388 50.6318 128.857 51.9038C128.377 53.1428 127.662 54.2774 126.751 55.2447C125.828 56.2051 124.731 56.9826 123.52 57.5362C122.259 58.1136 120.888 58.4072 119.501 58.3964C118.236 58.3912 116.976 58.2204 115.755 57.8883C114.506 57.5615 113.341 56.9728 112.338 56.1613C111.242 55.2712 110.355 54.151 109.741 52.8801C109 51.2647 108.636 49.5025 108.675 47.7259V22.7617C108.686 21.3451 108.969 19.9438 109.508 18.6337C110.008 17.3874 110.759 16.257 111.713 15.3126C112.678 14.3643 113.821 13.618 115.078 13.1174C116.451 12.5712 117.917 12.3004 119.395 12.3204C120.815 12.3074 122.223 12.5784 123.536 13.1174C124.783 13.6262 125.913 14.3832 126.857 15.3425C127.791 16.299 128.342 17.4447 128.873 18.7831C129.405 20.1215 129.488 21.5728 129.488 23.1403L129.471 25.9665ZM139.57 58.1008H133.144V12.8052H139.57V58.1008Z" fill="white"/>
</svg>
