<svg width="201" height="91" viewBox="0 0 201 91" fill="none" xmlns="http://www.w3.org/2000/svg">
<path fill-rule="evenodd" clip-rule="evenodd" d="M87.7169 80.6515C79.5366 87.3655 69.2599 90.4766 58.6984 90.4766C33.7396 90.4766 13.3799 70.395 13.3799 45.4766C13.3799 20.5581 33.7396 0.476562 58.6984 0.476562C69.8941 0.476562 80.6113 4.547 88.936 11.9593H188.38V80.6515H87.7169Z" fill="#2C4F87"/>
<path fill-rule="evenodd" clip-rule="evenodd" d="M86.6138 77.649C78.8588 84.3876 68.9258 87.474 58.6985 87.474C35.3974 87.474 16.3916 68.7341 16.3916 45.4753C16.3916 22.2165 35.3974 3.47656 58.6985 3.47656C69.5429 3.47656 79.888 7.56214 87.7645 14.9574H185.368V77.649H86.6138Z" fill="white"/>
<path fill-rule="evenodd" clip-rule="evenodd" d="M85.8785 75.724C78.7046 82.211 69.1666 85.5491 58.6981 85.5491C36.4015 85.5491 18.3262 67.6096 18.3262 45.4786C18.3262 23.3476 36.4015 5.4082 58.6981 5.4082C69.7153 5.4082 79.7015 9.78898 86.9856 16.891H183.433V75.724H85.8785Z" fill="#2C4F87"/>
<path d="M49.4646 15.2656C39.7842 18.3994 32.1602 26.0766 29.1353 35.7749L29.1106 35.7788L29.1277 35.7977C29.1221 35.8166 29.1164 35.8336 29.1106 35.8507L36.0358 43.9878C36.0378 43.9537 36.0415 43.9215 36.0434 43.8894L42.209 51.103V60.7521C39.5525 57.9022 37.61 54.3824 36.6624 50.4747L28.9492 53.7466C31.8431 63.7344 39.5829 71.6671 49.4646 74.8671V48.3742L38.2879 35.1108C39.319 32.9705 40.6728 31.0138 42.285 29.3013V34.5052H49.4646L49.4646 15.2656Z" fill="#D7A52B"/>
<path d="M43.999 25.4324V32.9545H48.072V17.6113C48.072 17.6113 41.5475 19.9541 36.8022 25.7087C32.2924 31.2268 31.1455 35.8384 31.1455 35.8384L43.999 51.0529V64.0968C43.999 64.0968 38.4239 59.9204 35.8129 52.7863L31.3829 54.6767C31.3829 54.6767 36.9959 68.9847 48.072 71.9803V49.4747L36.2478 35.5621C36.2478 35.5621 40.3607 27.4818 43.999 25.4324Z" fill="#F2CE56"/>
<path d="M35.8136 52.789C38.4246 59.9232 43.9997 64.0996 43.9997 64.0996L42.209 60.7539C39.5525 57.904 37.61 54.3843 36.6624 50.4766L28.9492 53.7484L31.3836 54.6795L35.8136 52.789Z" fill="#FAFFFF"/>
<path d="M48.0725 17.6121V32.9553L49.4644 34.5051V15.2656C39.7839 18.3994 32.1599 26.0766 29.135 35.7749L29.1104 35.7788L31.1459 35.8393C31.1459 35.8393 32.2929 31.2277 36.8027 25.7096C41.548 19.955 48.0725 17.6121 48.0725 17.6121Z" fill="#FAFFFF"/>
<path d="M49.4642 48.3728L38.2874 35.1094L36.248 35.5616L48.0723 49.4742V71.9799L49.4642 74.7824V48.3728Z" fill="#FAFFFF"/>
<path d="M59.1974 13.7324C56.9245 13.7324 54.7085 13.9746 52.5723 14.4307V75.7068C54.7085 76.1628 56.9245 76.405 59.1974 76.405C61.947 76.405 64.613 76.0493 67.1556 75.3907V66.7408C64.8713 67.5735 62.4179 68.0541 59.8639 68.1279V48.9641H67.1556V41.6616H59.8639V22.0095C62.4179 22.0815 64.8713 22.564 67.1556 23.3966V14.7486C64.613 14.0882 61.9489 13.7324 59.1974 13.7324Z" fill="#D7A52B"/>
<path d="M58.5846 20.5551V43.6001H65.8136V47.5608H58.5846V69.6709C60.7361 69.8904 65.8136 68.791 65.8136 68.791V73.6316C61.1785 75.0055 54.335 73.906 54.335 73.906V16.2103C59.9632 14.9443 65.8136 16.5944 65.8136 16.5944V21.435C63.9926 20.5551 58.5846 20.5551 58.5846 20.5551Z" fill="#F2CE56"/>
<path d="M59.8648 41.66V22.008L58.585 20.5547V43.5997H65.814V47.5604L67.1565 48.9626V41.66H59.8648Z" fill="#FAFFFF"/>
<path d="M65.8131 16.5955V21.4362L67.1556 23.3966V14.7486C64.613 14.0882 61.9489 13.7324 59.1974 13.7324C56.9245 13.7324 54.7085 13.9746 52.5723 14.4307L54.3344 16.2114C59.9627 14.9454 65.8131 16.5955 65.8131 16.5955Z" fill="#FAFFFF"/>
<path d="M59.8648 68.1266V48.9628L58.585 47.5605V69.6707C60.7364 69.8902 65.814 68.7908 65.814 68.7908V73.6314L67.1565 75.3894V66.7395C64.8721 67.5721 62.4188 68.0528 59.8648 68.1266Z" fill="#FAFFFF"/>
<path d="M69.9678 15.6191V74.509C79.2362 71.1444 86.4747 63.5693 89.3401 54.1L81.661 50.7884C80.8122 54.0849 79.2476 57.0918 77.1474 59.6465V30.4816C79.1317 32.8982 80.6375 35.7234 81.511 38.8136L89.1635 35.4623C86.1841 26.2579 79.052 18.9156 69.9678 15.6191Z" fill="#D7A52B"/>
<path d="M86.9266 34.5911L82.3428 36.5383C80.3281 30.146 75.8676 26.9176 75.8676 26.9176V63.3302C80.8768 59.0686 82.7112 53.2837 82.7112 53.2837L86.9874 55.1704C83.1992 67.0449 71.7129 71.6111 71.7129 71.6111V18.5156C82.6504 23.203 86.9266 34.5911 86.9266 34.5911Z" fill="#F2CE56"/>
<path d="M69.9678 15.6191L71.7128 18.5144C82.6503 23.2018 86.9266 34.5899 86.9266 34.5899L89.1635 35.4623C86.1841 26.2579 79.052 18.9156 69.9678 15.6191Z" fill="#FAFFFF"/>
<path d="M77.148 59.6499V30.4851L75.8682 26.9199V63.3325C80.8774 59.0709 82.7117 53.286 82.7117 53.286L86.988 55.1727L89.3407 54.1035L81.6616 50.7919C80.8128 54.0883 79.2482 57.0953 77.148 59.6499Z" fill="#FAFFFF"/>
<path fill-rule="evenodd" clip-rule="evenodd" d="M102.254 68.7183H99.7949V52.3741H102.037L105.822 62.1481V52.3457H108.226V68.7183H105.983L102.254 59.0238V68.7183Z" fill="#F2CE56"/>
<path fill-rule="evenodd" clip-rule="evenodd" d="M116.981 60.5563V59.3187H113.442V54.6598H117.63V52.3984H110.713V68.7161H117.63V66.4548H113.442V61.4722H116.981V60.5563Z" fill="#F2CE56"/>
<path fill-rule="evenodd" clip-rule="evenodd" d="M119.227 52.3945V54.5866H121.949V68.7444H124.44V54.5866H127.174V52.3945H124.44H121.949H119.227Z" fill="#F2CE56"/>
<path fill-rule="evenodd" clip-rule="evenodd" d="M130.715 68.6882L128.356 52.4121H130.897L132.192 63.1077L133.696 52.4121H135.796L137.325 63.2117L138.57 52.4121H141.085L138.751 68.7393H136.185L134.682 58.5357L133.204 68.6882H130.715Z" fill="#F2CE56"/>
<path fill-rule="evenodd" clip-rule="evenodd" d="M144.406 52.3691C143.667 52.3691 143.069 52.9754 143.069 53.7135V67.3626C143.069 68.0987 143.667 68.6948 144.406 68.6948H150.081C150.822 68.6948 151.43 68.0987 151.43 67.3626V53.7135C151.43 52.9754 150.822 52.3691 150.081 52.3691H144.406ZM145.561 54.5249H148.927V66.5511H145.561V54.5249Z" fill="#F2CE56"/>
<path fill-rule="evenodd" clip-rule="evenodd" d="M154 52.3811H160.505C160.505 52.3811 162.068 52.33 162.068 53.7114C162.068 55.0947 162.068 60.3195 162.068 60.3195C162.068 60.3195 162.144 61.3754 160.91 61.4511H159.774L162.396 68.7121H159.799L157.127 61.2751V59.7669H159.573V54.6671H156.546V68.6629H153.95L154 52.3811Z" fill="#F2CE56"/>
<path fill-rule="evenodd" clip-rule="evenodd" d="M164.539 52.3571V68.7145H167.059V61.8055L170.086 68.6653H172.858L169.102 60.3976L172.632 52.3836H169.833L167.085 59.3171L167.089 52.3457L164.539 52.3571Z" fill="#F2CE56"/>
<path fill-rule="evenodd" clip-rule="evenodd" d="M94.5586 46.0879H178.758V47.8005H94.5586V46.0879Z" fill="#F2CE56"/>
<path fill-rule="evenodd" clip-rule="evenodd" d="M141.082 41.8172H135.07L136.436 30.6353H153.417C153.294 31.8275 153.294 34.7606 148.357 34.6546H141.95L141.082 41.8172ZM154.154 30.6353L152.762 41.8172H158.878L160.229 30.6353H154.154ZM165.938 30.6353L164.547 41.8172H170.663L172.015 30.6353H165.938ZM115.32 41.8172L115.954 36.7268H106.156L106.473 34.6546H116.199L116.695 30.6353H100.951L99.6621 41.8172H115.32ZM116.944 28.6881L117.563 23.5977H101.779L101.166 28.6881H116.944ZM123.151 23.5977C119.851 23.5977 118.282 24.9488 117.853 28.6881H153.632C153.938 25.577 153.294 23.5977 149.443 23.5977H123.151ZM127.984 41.8172C132.082 41.8172 134.053 40.7139 134.554 37.5783L135.101 33.6498C135.406 31.326 133.658 30.6353 132.461 30.6353H117.635C117.175 34.7795 119.587 34.7303 120.812 34.6546H129.087L128.84 36.7268H116.875L116.253 41.8172H127.984ZM172.224 28.6881C172.531 25.577 172.133 23.5977 168.696 23.5977H154.982L154.399 28.6881H172.224Z" fill="#FAFFFF"/>
</svg>
