<svg width="201" height="91" viewBox="0 0 201 91" fill="none" xmlns="http://www.w3.org/2000/svg">
<path d="M144.686 28.3281H151.031V58.3393H166.187V63.976H144.686V28.3281Z" fill="#ED1D24"/>
<path d="M195.497 36.6842C193.634 34.1113 190.261 33.0112 187.388 33.0112C180.033 33.0112 175.051 38.7025 175.051 46.0576C175.051 53.8126 179.787 59.2039 187.133 59.2039C190.961 59.2039 193.979 57.5402 195.797 55.0764L200.88 58.6493C197.761 62.5769 193.125 64.8952 187.079 64.8952C175.951 64.8952 168.041 57.1856 168.041 46.0576C168.041 34.6295 176.396 27.4199 187.379 27.4199C192.015 27.4199 197.498 29.1291 200.316 32.8567L195.497 36.6842Z" fill="#ED1D24"/>
<path d="M21.7167 35.775C20.353 34.0113 17.6891 32.7021 15.1708 32.7021C12.2524 32.7021 8.87945 34.1113 8.87945 37.5843C8.87945 40.8572 11.6433 41.8118 15.6799 43.0755C20.2621 44.4847 26.1079 46.503 26.1079 53.5035C26.1079 61.1586 20.1166 64.8861 13.1161 64.8861C8.47943 64.8861 3.69728 63.1224 0.878906 59.7949L5.41558 55.5673C7.17934 57.9857 10.3977 59.4948 13.2252 59.4948C16.1981 59.4948 19.6711 58.0311 19.6711 54.2036C19.6711 50.476 15.9436 49.4214 11.4614 48.0122C7.13388 46.6485 2.45174 44.5393 2.45174 37.8934C2.45174 30.6383 9.0431 27.4199 15.4981 27.4199C19.0711 27.4199 23.1532 28.6746 25.8715 31.2475L21.7167 35.775Z" fill="#2780DC"/>
<path d="M29.7168 28.3301H36.0627V42.7311H52.7275V28.3301H59.0734V63.9871H52.7275V48.1678H36.0627V63.978H29.7168V28.3301Z" fill="#2780DC"/>
<path d="M104.309 28.3301H115.946C124.101 28.3301 129.392 31.203 129.392 38.649C129.392 46.5041 123.101 49.2224 115.546 49.2224H110.664V63.978H104.318V28.3301H104.309ZM115.082 43.8857C119.21 43.8857 122.992 42.8765 122.992 38.649C122.992 34.4214 119.21 33.6668 115.282 33.6668H110.645V43.8948H115.082V43.8857Z" fill="#2780DC"/>
<path d="M81.625 27.3984C70.6425 27.3984 62.5329 34.599 62.542 46.0361C62.542 57.1641 70.6425 64.8737 81.625 64.8737C92.753 64.8737 100.863 57.1641 100.863 46.0361C100.863 43.1167 100.332 40.4754 99.3595 38.1573C97.884 39.0633 95.9337 39.8557 94.1456 40.2088C93.2217 40.3912 92.3422 40.4587 91.5742 40.3379C90.8061 40.2171 90.0996 39.8839 89.7227 39.2412C89.4725 38.8146 89.3519 38.3472 89.3258 37.856C88.9723 37.9512 88.6593 38.1587 88.4341 38.4474C88.2089 38.736 88.0837 39.09 88.0773 39.4561C88.0773 39.6777 88.121 39.8971 88.2058 40.1018C88.2906 40.3066 88.4149 40.4926 88.5715 40.6493C88.7282 40.806 88.9143 40.9303 89.119 41.0151C89.3237 41.0999 89.5431 41.1435 89.7647 41.1435C90.1694 41.1416 90.56 40.9943 90.8651 40.7285C91.0701 40.7948 91.2801 40.8437 91.4895 40.8766C92.3546 41.0127 93.2861 40.9346 94.2512 40.744C94.4222 40.7102 94.5942 40.6721 94.7667 40.6312V46.0977C94.7667 46.2404 94.7351 46.3813 94.674 46.5102C94.613 46.6392 94.5242 46.753 94.4139 46.8435L76.8436 61.2571C76.7531 61.3313 76.6489 61.387 76.5369 61.421C76.4249 61.4549 76.3073 61.4665 76.1909 61.455C76.0744 61.4435 75.9613 61.4092 75.8581 61.354C75.7549 61.2988 75.6636 61.2238 75.5894 61.1333L65.7647 49.157C65.6905 49.0666 65.6348 48.9624 65.6008 48.8504C65.5669 48.7384 65.5553 48.6208 65.5668 48.5043C65.5783 48.3878 65.6126 48.2748 65.6678 48.1716C65.723 48.0684 65.798 47.9771 65.8885 47.9029L83.4509 33.4956C83.5612 33.4051 83.6902 33.3403 83.8286 33.3057C83.967 33.2711 84.1113 33.2676 84.2512 33.2955L90.211 34.4845C90.2125 34.4813 90.214 34.478 90.2156 34.4747C90.951 32.9552 92.0022 31.5005 92.9194 30.492C89.8071 28.4925 85.9471 27.3984 81.625 27.3984ZM93.7146 31.0377C92.8869 31.9301 91.8841 33.2928 91.1812 34.6781L94.0635 35.2532C94.2618 35.2928 94.4402 35.3998 94.5684 35.5561C94.6966 35.7124 94.7667 35.9083 94.7667 36.1105V38.5173C94.4565 38.6045 94.1508 38.6787 93.855 38.7371C93.0448 38.8971 92.3086 38.9348 91.8073 38.8559C91.562 38.8173 91.3925 38.7629 91.2723 38.7C91.0697 38.3058 90.7202 38.0072 90.2992 37.8686C90.3205 38.2062 90.399 38.5073 90.5462 38.7584C90.7396 39.0881 91.1243 39.3007 91.7226 39.3948C92.3209 39.4889 93.1091 39.4405 93.9607 39.2723C95.6502 38.9387 97.5911 38.1419 98.9626 37.2809C97.7317 34.746 95.9361 32.6467 93.7146 31.0377Z" fill="#2780DC"/>
</svg>
