<svg width="201" height="92" viewBox="0 0 201 92" fill="none" xmlns="http://www.w3.org/2000/svg">
<path d="M51.8799 17.3496V91.7539H150.031V1.75391H67.4756C63.3394 1.75391 59.3725 3.39702 56.4478 6.32179C53.523 9.24655 51.8799 13.2134 51.8799 17.3496Z" fill="black"/>
<path d="M138.422 72.6364C136.245 71.6914 134.392 70.1325 133.088 68.1504C131.784 66.1682 131.086 63.849 131.08 61.4764H141.366C141.359 56.1972 139.494 51.0887 136.099 47.0458C132.704 43.0029 127.995 40.2834 122.797 39.3635C117.598 38.4437 112.242 39.3822 107.666 42.0147C103.09 44.6472 99.5855 48.8058 97.7673 53.7622V39.7736H87.0702V56.8993H71.1788V39.8122H60.4688V83.1664H71.1788V66.0536H87.0702V83.1664H97.7673V69.0879C99.4658 73.7192 102.625 77.6725 106.767 80.3507C110.389 82.6859 114.608 83.9278 118.917 83.9278C123.227 83.9278 127.445 82.6859 131.067 80.3507C134.69 82.7075 138.921 83.9584 143.243 83.9507V73.665C141.582 73.66 139.94 73.3098 138.422 72.6364ZM131.08 61.5022H120.794C120.793 65.412 121.812 69.2545 123.752 72.6493C121.353 73.6778 118.686 73.9057 116.148 73.299C113.609 72.6924 111.334 71.2835 109.659 69.2816C107.985 67.2796 107 64.7911 106.851 62.1853C106.703 59.5795 107.398 56.9952 108.834 54.8158C110.27 52.6364 112.371 50.9781 114.824 50.0868C117.277 49.1955 119.952 49.1187 122.452 49.8679C124.953 50.617 127.145 52.1522 128.704 54.2456C130.262 56.3391 131.105 58.8793 131.106 61.4893L131.08 61.5022Z" fill="white"/>
<path d="M75.0741 25.0519C75.0741 28.5233 72.4127 31.4805 67.7198 31.4805C64.8898 31.5219 62.1567 30.4508 60.1084 28.4976L62.7955 24.6405C64.1854 25.8722 65.9341 26.6249 67.7841 26.7876C68.8255 26.7876 69.9698 26.389 69.9698 25.129C69.9698 22.6476 60.5841 22.7376 60.5841 16.3219C60.5841 12.4647 63.8241 9.89332 67.9641 9.89332C70.424 9.77727 72.8321 10.6261 74.6755 12.259L72.5027 16.5019C71.2011 15.4201 69.589 14.7807 67.8998 14.6762C66.8455 14.6762 65.6755 15.139 65.6755 16.309C65.6755 18.9447 75.0741 18.4562 75.0741 25.0519ZM92.7012 18.6233H85.1927V10.3176H80.0498V31.1205H85.1927V22.9305H92.7656V31.0819H97.9084V10.3176H92.7656L92.7012 18.6233ZM143.358 17.4662C143.358 21.6576 140.62 24.6919 136.57 24.6919H133.021V31.1205H127.943V10.3176H136.621C140.62 10.3176 143.358 13.2876 143.358 17.479V17.4662ZM138.216 17.4662C138.259 17.1445 138.238 16.8174 138.155 16.5036C138.072 16.1898 137.928 15.8956 137.731 15.6376C137.534 15.3796 137.288 15.1631 137.007 15.0003C136.726 14.8375 136.416 14.7318 136.094 14.689C135.944 14.6759 135.794 14.6759 135.644 14.689H133.073V20.359H135.644C136.326 20.359 136.98 20.0881 137.462 19.6059C137.945 19.1236 138.216 18.4696 138.216 17.7876C138.222 17.6891 138.222 17.5904 138.216 17.4919V17.4662ZM123.764 20.7705C123.764 22.906 123.131 24.9935 121.945 26.7693C120.759 28.5451 119.073 29.9293 117.1 30.7471C115.127 31.5649 112.956 31.7796 110.862 31.3639C108.767 30.9482 106.843 29.9209 105.332 28.4117C103.821 26.9026 102.791 24.9795 102.373 22.8853C101.955 20.7912 102.167 18.62 102.983 16.6464C103.798 14.6727 105.18 12.9851 106.955 11.7968C108.729 10.6086 110.816 9.973 112.951 9.97046C114.371 9.96877 115.776 10.2469 117.088 10.7889C118.4 11.3309 119.592 12.1261 120.596 13.1292C121.601 14.1322 122.397 15.3234 122.941 16.6345C123.484 17.9457 123.764 19.3511 123.764 20.7705ZM118.84 20.7705C118.845 19.6084 118.505 18.4709 117.864 17.5018C117.222 16.5328 116.308 15.7756 115.236 15.3262C114.165 14.8768 112.984 14.7553 111.843 14.977C110.702 15.1988 109.653 15.7538 108.828 16.5719C108.002 17.39 107.438 18.4345 107.206 19.5733C106.975 20.7121 107.086 21.894 107.526 22.9695C107.966 24.0451 108.715 24.9661 109.678 25.6159C110.642 26.2658 111.776 26.6154 112.938 26.6205C113.708 26.6222 114.471 26.4722 115.183 26.1791C115.895 25.886 116.542 25.4556 117.088 24.9124C117.633 24.3691 118.067 23.7238 118.363 23.0131C118.659 22.3024 118.812 21.5404 118.814 20.7705H118.84Z" fill="white"/>
</svg>
