<svg width="201" height="91" viewBox="0 0 201 91" fill="none" xmlns="http://www.w3.org/2000/svg">
<path d="M18.8985 37.3751C18.3802 36.8833 17.7761 36.4888 17.1154 36.2106C16.4064 35.903 15.6756 35.6472 14.9288 35.4455C13.4757 35.0584 12.1863 34.6803 11.0608 34.3112C10.6073 34.1525 10.186 33.915 9.81671 33.6098C9.66592 33.5113 9.54435 33.3748 9.46451 33.2144C9.38467 33.054 9.34945 32.8754 9.36245 32.697C9.40727 32.4085 9.54383 32.1416 9.7523 31.9352C9.93926 31.7478 10.1631 31.6005 10.41 31.5023C10.8959 31.3316 11.4064 31.2398 11.9219 31.2305C12.5664 31.216 13.1989 31.404 13.7288 31.7674C14.2441 32.103 14.4068 32.6936 14.1796 33.5058H20.2478C20.5529 30.8815 19.9879 29.0167 18.5528 27.9115C17.0544 26.8824 15.1401 26.3756 12.8101 26.3913C10.6663 26.3682 8.56026 26.9502 6.73859 28.0692C4.82437 29.2393 3.6277 31.0895 3.14858 33.6199C2.961 34.7027 3.03897 35.5887 3.38249 36.2777C3.6767 36.9859 4.16519 37.5985 4.79273 38.0463C5.44992 38.5157 6.17284 38.8877 6.9386 39.1504C7.70813 39.4423 8.50478 39.7041 9.3116 39.9424C10.5242 40.2449 11.7083 40.6503 12.8508 41.1538C13.4203 41.4894 13.6474 41.919 13.5288 42.466C13.4813 42.8198 13.3416 43.1553 13.1234 43.4394C12.9053 43.7236 12.6162 43.9467 12.2846 44.0869C11.6785 44.3478 11.0235 44.4793 10.3625 44.4728C9.73322 44.4746 9.10906 44.3609 8.52173 44.1372C8.23241 44.0498 7.97201 43.8872 7.76754 43.6665C7.56308 43.4458 7.422 43.175 7.35896 42.8821C7.27806 42.406 7.28495 41.9194 7.3793 41.4458H0.992535C0.748455 43.1797 0.901005 44.5556 1.45019 45.5735C1.93004 46.5713 2.70115 47.4036 3.66386 47.9629C4.57042 48.47 5.55555 48.8249 6.57926 49.0133C7.36657 49.1801 8.16775 49.2744 8.9726 49.2952C11.406 49.3297 13.8094 48.7598 15.9628 47.6374C18.1618 46.5188 19.5325 44.56 20.0749 41.7612C20.2501 40.9016 20.2373 40.0148 20.0376 39.1604C19.8173 38.4792 19.4253 37.8647 18.8985 37.3751ZM39.4047 27.643C38.2873 27.1335 37.0643 26.892 35.835 26.9383H24.8853L21.0986 48.7851H27.5057L28.6482 42.1807H32.5602C35.0688 42.1807 37.2091 41.5375 38.9809 40.2511C40.7527 38.9647 41.8737 37.0171 42.3438 34.4085C42.6519 32.7139 42.3432 30.966 41.4726 29.4753C40.9718 28.6828 40.2549 28.0464 39.4047 27.6397M35.7333 35.8851C35.466 36.2048 35.1255 36.4568 34.74 36.62C33.9132 36.8735 33.049 36.987 32.184 36.9556H29.5398L30.3161 32.499H33.3671C34.1176 32.4615 34.8685 32.5639 35.5807 32.801C36.1672 33.0292 36.3876 33.6333 36.235 34.6132C36.1789 35.0723 36.0063 35.5099 35.7333 35.8851ZM56.0936 26.398C53.0561 26.3761 50.1298 27.5283 47.9373 29.6096C45.6276 31.6925 44.1676 34.4387 43.5574 37.8483C42.9902 41.2355 43.4986 43.9705 45.0829 46.0534C46.5949 48.1766 48.943 49.2572 52.1273 49.2952C55.1946 49.3214 58.1503 48.1577 60.3617 46.0534C62.6217 43.9705 64.0545 41.2355 64.6602 37.8483C65.2659 34.4611 64.7833 31.7148 63.2126 29.6096C61.6894 27.5088 59.3164 26.4383 56.0936 26.398ZM57.3615 40.8015C57.0242 41.5 56.5573 42.1295 55.9852 42.6573C55.5483 43.0582 55.0388 43.3736 54.4834 43.5868C54.0302 43.7527 53.5527 43.8446 53.0698 43.8587C52.1884 43.8788 51.3748 43.4795 50.6256 42.6573C50.2344 42.1062 49.9842 41.4694 49.8967 40.8015C49.7371 39.8212 49.7601 38.8203 49.9645 37.8483C50.1222 36.7891 50.4494 35.7616 50.9341 34.8045C51.132 34.4331 51.3586 34.0774 51.6121 33.7407C51.8146 33.4713 52.0415 33.2208 52.2901 32.9923C52.724 32.5844 53.2341 32.2641 53.7918 32.0493C54.2315 31.9158 54.688 31.8446 55.1478 31.8379C56.0428 31.8077 56.8801 32.1936 57.653 32.9923C58.0666 33.5156 58.3227 34.1437 58.3921 34.8045C58.5009 35.8204 58.4529 36.8467 58.2497 37.8483C58.0942 38.8697 57.7929 39.864 57.3547 40.8015M85.9053 45.0936C85.9596 44.6876 85.9833 44.352 85.9969 44.0869C86.2229 41.2478 85.4838 39.43 83.7798 38.6336C84.9254 38.1902 85.916 37.4264 86.6308 36.4354C87.2903 35.4483 87.7358 34.3364 87.9393 33.1702C88.2625 31.0873 87.8512 29.5212 86.7054 28.4719C85.5426 27.435 83.9934 26.9182 82.0848 26.9182H69.6333L65.8331 48.7851H72.2436L73.5691 41.1471H77.2066C77.7446 41.1124 78.2816 41.2287 78.7558 41.4827C79.0997 41.7151 79.3504 42.0594 79.4643 42.4559C79.6004 42.8903 79.6645 43.3436 79.6542 43.7983C79.6534 44.3347 79.6171 44.8706 79.5457 45.4024C79.4052 46.5156 79.3803 47.64 79.4711 48.7583H85.9053C85.7219 47.9889 85.6817 47.1928 85.7867 46.4091C85.8511 45.9427 85.8952 45.5064 85.9291 45.0936M80.0203 36.0965C79.3681 36.3617 78.6674 36.4896 77.9626 36.4724H74.3793L75.1353 32.1097H78.3422C79.6304 32.1097 80.5017 32.2932 80.9559 32.6601C81.3458 33.0292 81.4814 33.5695 81.3559 34.2776C81.1729 35.224 80.7299 35.8258 80.0271 36.0831M89.8581 32.4956H95.6889L92.865 48.7851H99.2687L102.086 32.5225H107.94L108.91 26.9349H90.8276L89.8581 32.4956ZM125.979 37.3751C125.464 36.8881 124.866 36.4961 124.212 36.2173C123.503 35.9097 122.773 35.6539 122.026 35.4522C120.57 35.0651 119.281 34.687 118.158 34.3179C117.704 34.16 117.282 33.9224 116.914 33.6165C116.763 33.518 116.641 33.3815 116.561 33.2211C116.482 33.0607 116.446 32.8821 116.459 32.7037C116.502 32.4145 116.639 32.1471 116.849 31.9419C117.037 31.756 117.261 31.6088 117.507 31.509C117.993 31.338 118.503 31.2462 119.019 31.2372C119.662 31.2234 120.293 31.4114 120.822 31.7741C121.344 32.1097 121.5 32.7004 121.277 33.5125H127.345C127.65 30.8882 127.085 29.0234 125.65 27.9182C124.145 26.8891 122.229 26.3823 119.904 26.398C117.76 26.3745 115.654 26.9566 113.832 28.0759C111.927 29.2348 110.735 31.0795 110.256 33.6098C110.068 34.6926 110.144 35.5786 110.483 36.2677C110.772 36.9746 111.252 37.5897 111.869 38.0463C112.528 38.5131 113.251 38.8848 114.015 39.1504C114.788 39.4423 115.588 39.7041 116.405 39.9424C117.613 40.2417 118.792 40.6425 119.931 41.1404C120.5 41.476 120.727 41.9055 120.609 42.4526C120.562 42.8083 120.423 43.146 120.205 43.4325C119.987 43.719 119.697 43.9445 119.365 44.0869C118.754 44.3432 118.096 44.469 117.432 44.456C116.803 44.4579 116.179 44.3441 115.592 44.1204C115.303 44.0325 115.043 43.8697 114.839 43.6491C114.636 43.4284 114.495 43.1578 114.432 42.8653C114.346 42.3897 114.353 41.9021 114.453 41.429H108.073C107.828 43.1629 107.982 44.5388 108.534 45.5567C109.011 46.5549 109.781 47.3876 110.744 47.9461C111.646 48.4573 112.628 48.8168 113.649 49.0099C114.436 49.1769 115.238 49.2712 116.042 49.2918C118.477 49.3261 120.881 48.7561 123.036 47.634C125.23 46.5154 126.599 44.5567 127.141 41.7579C127.318 40.8985 127.306 40.0117 127.107 39.1571C126.889 38.4793 126.501 37.8673 125.979 37.3785M141.867 39.7746H141.81L141.064 26.9182H131.942L128.152 48.7851H134.203L136.633 34.7642H136.688L137.877 48.7851H142.668L148.705 34.7642H148.78L146.346 48.7851H152.397L156.183 26.9349H147.075L141.867 39.7746ZM166.143 26.9182L154.695 48.7851H161.136L162.621 45.6641H169.238L169.577 48.7851H176.232L172.408 26.9215L166.143 26.9182ZM164.811 40.9827L167.991 34.2273H168.048L168.743 40.9827H164.811ZM194.83 26.9182L192.796 38.6067H192.724L188.707 26.9215H182.144L178.354 48.7851H184.409L186.477 36.8449H186.534L190.843 48.7851H197.097L200.884 26.9349L194.83 26.9182Z" fill="#2E292A"/>
<path d="M145.593 51.1738L144.718 56.2077H141.223L142.098 51.1738H138.993L136.559 65.2283H139.664L140.681 59.3655H144.176L143.159 65.2283H146.247L148.678 51.1906L145.593 51.1738ZM145.973 64.8927H143.559L144.576 59.03H140.393L139.376 64.8927H136.959L139.274 51.5262H141.691L140.816 56.56H145L145.874 51.5262H148.281L145.973 64.8927Z" fill="#2E292A"/>
<path d="M134.803 60.1605L134.481 60.4324C133.812 61.0332 133.055 61.531 132.237 61.909C131.678 62.1425 131.076 62.2568 130.47 62.2445C129.175 62.2445 128.681 61.8284 128.365 61.419C128.189 61.1908 127.653 60.4961 127.962 58.7343C128.092 57.9131 128.411 57.1324 128.894 56.4523C129.375 55.783 130.006 55.2337 130.738 54.8482C131.393 54.4719 132.134 54.2696 132.891 54.2609C133.409 54.2539 133.921 54.3763 134.379 54.6166C134.871 54.8812 135.292 55.2587 135.606 55.7173L135.81 56.0529L138.234 54.0797L138.078 53.828C137.535 52.9579 136.77 52.2448 135.861 51.7608C134.947 51.2794 133.926 51.0314 132.891 51.0392C131.608 51.0498 130.348 51.3823 129.23 52.0057C128.074 52.6255 127.076 53.4977 126.311 54.5562C125.544 55.6363 125.034 56.8743 124.819 58.1772C124.457 60.2847 124.802 62.0432 125.836 63.4057C126.87 64.7682 128.447 65.4763 130.457 65.4763C131.483 65.4854 132.501 65.2903 133.45 64.9024C134.553 64.3912 135.568 63.7117 136.457 62.8889L136.691 62.6808L134.803 60.1605ZM133.332 64.5769C132.425 64.9475 131.452 65.1335 130.47 65.1239C128.563 65.1239 127.112 64.4784 126.118 63.1875C125.123 61.8966 124.802 60.24 125.155 58.2175C125.359 56.9641 125.849 55.7731 126.585 54.7341C127.318 53.7152 128.277 52.8769 129.389 52.2843C130.456 51.6848 131.661 51.366 132.888 51.3581C133.866 51.3457 134.832 51.5765 135.698 52.0292C136.555 52.4862 137.275 53.1587 137.786 53.979L135.894 55.5193C135.55 55.0075 135.085 54.5869 134.538 54.2944C134.031 54.027 133.463 53.8908 132.888 53.8985C132.074 53.9078 131.277 54.1239 130.572 54.526C129.795 54.9368 129.124 55.5204 128.613 56.2308C128.101 56.9522 127.762 57.7798 127.623 58.6504C127.284 60.5632 127.894 61.3351 128.094 61.6036C128.433 62.0465 129.016 62.56 130.467 62.56C131.119 62.576 131.767 62.4547 132.369 62.2043C133.236 61.8045 134.036 61.276 134.742 60.6371L136.24 62.6003C135.383 63.4077 134.401 64.0749 133.332 64.5769Z" fill="#2E292A"/>
<path d="M169.639 51.1738L168.215 59.134L164.788 51.1738H162.035L159.604 65.2048L156.977 51.1738H154.075L146.566 65.2283H150.041L151.54 62.4764H155.93L156.418 65.2283H162.703L164.079 57.3017L167.517 65.2283H170.317L172.751 51.1906L169.639 51.1738ZM156.716 64.8927L156.214 62.1409H151.333L149.841 64.8927H147.129L154.275 51.5262H156.692L159.194 64.8927H156.716ZM170.032 64.8927H167.74L163.954 56.1238L162.432 64.8927H160.001L162.32 51.5262H164.554L168.34 60.322L169.913 51.5262H172.351L170.032 64.8927Z" fill="#2E292A"/>
<path d="M152.645 59.6436H155.76L155.119 55.0527L152.645 59.6436ZM153.211 59.308L154.926 56.1233L155.37 59.308H153.211Z" fill="#2E292A"/>
<path d="M195.376 62.114L197.179 51.1738H194.128L191.674 65.2283H198.22L198.759 62.1308L195.376 62.114ZM197.939 64.8759H192.077L194.386 51.5094H196.759L194.955 62.4496H198.345L197.939 64.8759Z" fill="#2E292A"/>
<path d="M187.321 59.6877H191.792L192.331 56.5734H187.86L188.253 54.3317H192.725L193.274 51.1738H185.745L183.311 65.2283H190.84L191.389 62.057H186.928L187.321 59.6877ZM190.985 62.3724L190.555 64.8927H183.714L186.033 51.5262H192.87L192.44 54.0129H187.968L187.457 56.9258H191.928L191.508 59.3689H187.036L186.514 62.3892L190.985 62.3724Z" fill="#2E292A"/>
<path d="M181.503 51.1738L180.079 59.134L176.652 51.1738H173.903L171.455 65.2283H174.577L175.906 57.3117L179.327 65.2283H182.181L184.615 51.1906L181.503 51.1738ZM181.89 64.8927H179.55L175.764 56.1238L174.289 64.8927H171.858L174.174 51.5262H176.418L180.205 60.322L181.778 51.5262H184.215L181.89 64.8927Z" fill="#2E292A"/>
<path d="M134.749 60.6489L136.247 62.6121C135.387 63.4166 134.403 64.0804 133.332 64.5787C132.425 64.9493 131.452 65.1353 130.471 65.1257C128.563 65.1257 127.112 64.4802 126.118 63.1893C125.123 61.8984 124.802 60.2418 125.155 58.2193C125.359 56.9659 125.849 55.7749 126.586 54.7359C127.318 53.717 128.277 52.8787 129.389 52.2861C130.456 51.6866 131.661 51.3678 132.888 51.3598C133.866 51.3475 134.833 51.5783 135.698 52.031C136.555 52.488 137.275 53.1605 137.786 53.9808L135.895 55.5211C135.55 55.0093 135.085 54.5887 134.539 54.2962C134.031 54.0288 133.463 53.8926 132.888 53.9003C132.074 53.9096 131.277 54.1257 130.572 54.5278C129.795 54.9386 129.124 55.5222 128.613 56.2326C128.101 56.954 127.763 57.7816 127.623 58.6522C127.284 60.565 127.894 61.3369 128.094 61.6054C128.433 62.0483 129.016 62.5618 130.467 62.5618C131.119 62.5778 131.768 62.4565 132.369 62.2061C133.238 61.8099 134.04 61.2848 134.749 60.6489ZM145.878 51.5109L145.003 56.5447H140.824L141.698 51.5109H139.281L136.962 64.8941H139.379L140.396 59.0314H144.58L143.563 64.8941H145.976L148.282 51.5109H145.878ZM156.692 51.5109L159.194 64.8941H156.716L156.214 62.1423H151.333L149.841 64.8941H147.129L154.275 51.5276L156.692 51.5109ZM155.76 59.6455L155.119 55.0547L152.645 59.6455H155.76ZM169.92 51.5109L168.347 60.3066L164.554 51.5109H162.313L160.001 64.8941H162.431L163.954 56.1252L167.74 64.8941H170.032L172.351 51.5109H169.92ZM181.785 51.5109L180.212 60.3066L176.419 51.5109H174.178L171.859 64.8941H174.29L175.764 56.1252L179.551 64.8941H181.89L184.216 51.5109H181.785ZM187.979 53.9976H192.45L192.881 51.5109H186.033L183.714 64.8941H190.555L190.996 62.3772H186.514L187.036 59.3569H191.508L191.928 56.9138H187.457L187.979 53.9976ZM194.989 62.451L196.793 51.5109H194.42L192.077 64.8941H197.938L198.359 62.4678L194.989 62.451Z" fill="url(#paint0_linear_2048_38070)"/>
<defs>
<linearGradient id="paint0_linear_2048_38070" x1="161.689" y1="65.1257" x2="161.689" y2="51.3598" gradientUnits="userSpaceOnUse">
<stop offset="0.01" stop-color="#856F40"/>
<stop offset="0.13" stop-color="#A3894B"/>
<stop offset="0.27" stop-color="#BC9F55"/>
<stop offset="0.4" stop-color="#CCAC5B"/>
<stop offset="0.5" stop-color="#D1B15D"/>
<stop offset="0.9" stop-color="#D9BB6C"/>
<stop offset="1" stop-color="#E1CB92"/>
</linearGradient>
</defs>
</svg>
