<svg width="201" height="91" viewBox="0 0 201 91" fill="none" xmlns="http://www.w3.org/2000/svg">
<path d="M159.913 34.7695C157.661 34.7695 155.836 36.5782 155.836 38.8092V66.6649H196.803C199.055 66.6649 200.88 64.8562 200.88 62.6252C200.88 62.6209 200.88 62.6165 200.88 62.6123V34.7695H159.913Z" fill="#FF4D80"/>
<path d="M189.268 41.8516L186.043 52.3214L182.804 41.8516H176.107H175.255H161.023V47.975H164.959V60.9502H172.081V48.0005H176.107V43.948L182.907 60.9502H189.191L196.804 41.8516H189.268Z" fill="#E1FAF9"/>
<path d="M24.2641 44.9962C24.3411 44.2293 23.9505 43.4906 23.2705 43.1169C22.3447 42.612 21.2933 42.3772 20.2383 42.4394C19.2719 42.4226 18.3131 42.6098 17.4255 42.9891C16.6827 43.1995 16.1615 43.8604 16.1353 44.6254C16.1353 45.3754 16.7289 45.8866 17.9159 46.1595C19.6597 46.5277 21.4211 46.8092 23.1933 47.003C24.5781 47.199 25.9847 47.4207 27.4125 47.668C28.7933 47.8955 30.1557 48.2203 31.4899 48.6391C32.6673 49.017 33.8041 49.5096 34.8833 50.1094C35.9219 50.6559 36.8459 51.3934 37.6059 52.2825C38.2743 53.1496 38.7375 54.1546 38.9607 55.2231C39.2325 56.5596 39.2017 57.9395 38.8703 59.2627C38.2595 61.6659 36.4445 63.5705 33.4251 64.977C30.4057 66.3831 25.9243 67.1119 19.9801 67.1632C13.3135 67.1632 8.45352 66.3105 5.39972 64.6062C2.48033 63.1701 0.756328 60.0999 1.06433 56.885V56.003H16.0317C15.8531 56.8307 16.0995 57.6922 16.6899 58.3041C17.6819 58.9911 18.8947 59.2913 20.0963 59.1476C21.1213 59.1956 22.1397 58.9612 23.0381 58.47C23.6715 58.1416 24.0797 57.5032 24.1089 56.7956C24.1089 55.9003 23.5025 55.3041 22.2897 55.0057C20.6181 54.6377 18.9243 54.3772 17.2189 54.226C16.0317 54.098 14.7415 53.9064 13.3481 53.6506C11.9675 53.3892 10.6055 53.0391 9.27072 52.6023C7.98372 52.2023 6.73212 51.6978 5.52892 51.094C4.42072 50.5121 3.42153 49.747 2.57413 48.8314C1.78993 48.0108 1.24553 46.9945 0.99993 45.8912C0.75513 44.6024 0.889528 43.2711 1.38713 42.056C1.77573 40.8463 2.49473 39.7666 3.46453 38.9367C4.62913 37.8848 5.97512 37.049 7.43852 36.4694C9.26792 35.7628 11.1727 35.2652 13.1159 34.9866C15.4167 34.6335 17.7423 34.4625 20.0705 34.4752C22.9353 34.4338 25.7959 34.708 28.5995 35.2934C30.7013 35.738 32.7267 36.4831 34.6123 37.5049C36.0865 38.2686 37.3523 39.3739 38.3027 40.7266C39.0661 41.8327 39.4671 43.1449 39.4509 44.4849V45.5587H24.1093L24.2641 44.9962ZM154.223 45.5716V34.8971H149.411V24.1076L134.275 26.2552V34.8969H131.385V45.5839H134.288V53.024C134.288 57.4045 135.381 60.7752 137.566 63.136C139.751 65.4965 143.105 66.6769 147.63 66.6769H154.224V55.5171C153.494 55.5044 152.766 55.4533 152.043 55.3636C151.535 55.3164 151.043 55.164 150.598 54.9161C150.203 54.6837 149.892 54.3348 149.708 53.9192C149.485 53.3535 149.384 52.7484 149.411 52.1422V45.5585L154.223 45.5716ZM103.798 57.7798C103.549 57.1729 103.447 56.5158 103.502 55.8621V47.9874C103.502 43.3258 101.858 39.9168 98.5726 37.7605C95.2864 35.6045 90.2974 34.5178 83.6051 34.5006C77.2569 34.5006 72.5257 35.4509 69.4117 37.3515C66.4017 38.9976 64.5959 42.1941 64.7537 45.597H80.0051C79.9751 44.8157 80.3499 44.0732 80.9987 43.6281C82.0105 43.0765 83.1636 42.832 84.3146 42.9251C84.9738 42.9007 85.6316 43.005 86.25 43.2318C86.7284 43.4161 87.1444 43.731 87.45 44.1396C87.7418 44.5418 87.9482 44.9981 88.0564 45.4818C88.1808 46.0876 88.2412 46.7044 88.237 47.3226H76.3405C74.6703 47.3072 73.0039 47.4786 71.3727 47.8339C69.9807 48.145 68.6647 48.7275 67.5019 49.5471C66.4085 50.2836 65.5209 51.2817 64.9213 52.4492C64.3249 53.7698 64.0467 55.2094 64.1085 56.6551C64.0921 58.0842 64.3823 59.5003 64.9601 60.8097C65.5507 62.0959 66.4339 63.2291 67.5405 64.1208C68.8137 65.1353 70.2789 65.8873 71.8501 66.3323C73.8335 66.8963 75.8905 67.163 77.9533 67.1247C79.4433 67.16 80.9325 67.027 82.3919 66.7286C83.5979 66.4465 84.7637 66.0171 85.8629 65.4504C86.7579 65.0111 87.5732 64.4281 88.2756 63.7245C88.8694 63.1663 89.332 62.4855 89.6304 61.7303L89.8884 63.2004C90.642 65.014 92.3764 66.241 94.3528 66.3579C97.827 66.6735 101.319 66.7548 104.804 66.6012V58.3941C104.392 58.3523 104.021 58.1262 103.798 57.7798ZM88.3148 54.1749C88.3218 54.7354 88.2522 55.2944 88.1082 55.8367C87.9874 56.3224 87.7328 56.7649 87.3726 57.115C86.9508 57.4885 86.4472 57.7598 85.9018 57.9076C85.1168 58.1236 84.3035 58.2227 83.4891 58.2017C82.4273 58.3194 81.3579 58.0614 80.4697 57.4731C79.9971 57.0631 79.7245 56.4718 79.7213 55.8496C79.6429 55.0986 80.0589 54.3825 80.7535 54.0726C81.8875 53.6995 83.0828 53.5434 84.2758 53.6123H88.3532L88.3148 54.1749ZM124.314 34.9993C123.257 35.121 122.22 35.3792 121.23 35.7664C120.198 36.1835 119.304 36.8788 118.65 37.7732L117.682 39.1155V34.884H106.069V66.6644H121.14V55.875C121.14 53.1778 121.54 49.3555 122.611 47.9234C123.682 46.4916 124.637 45.6608 128.056 45.5201H129.914V34.8969H129.527C128.082 34.8969 125.527 34.8969 124.366 34.9864L124.314 34.9993ZM63.6699 61.7557C63.0627 60.3068 62.7725 58.7472 62.8183 57.1792C62.7815 56.6129 62.7815 56.045 62.8183 55.4787H62.6635C61.9955 55.4826 61.3277 55.4486 60.6635 55.3766C60.1555 55.3295 59.6633 55.1771 59.2185 54.9292C58.8241 54.6964 58.5131 54.3478 58.3281 53.9319C58.1053 53.3666 58.0043 52.7615 58.0313 52.1549V45.5585H62.8441V34.8969H58.1087V24.1074L43.0379 26.255V34.8967H40.0961V45.5837H43.0509V53.0238C43.0509 57.4043 44.1433 60.775 46.3283 63.1358C48.5131 65.4963 51.8595 66.6938 56.3669 66.728H68.4313C67.7707 66.3636 67.1483 65.9356 66.5731 65.4498C65.3445 64.4557 64.3679 63.1903 63.7217 61.7551H63.6699V61.7557Z" fill="black"/>
</svg>
