<svg width="201" height="91" viewBox="0 0 201 91" fill="none" xmlns="http://www.w3.org/2000/svg">
<path d="M172.67 31.6934V8.0332H28.8799V84.3725H172.67V65.5353H171.505V83.2076H30.0448V9.19816H171.505V31.6934H172.67Z" fill="black"/>
<path d="M172.67 43.1099L171.505 45.8592L171.505 65.5353H172.67L172.67 43.1099Z" fill="url(#paint0_linear_2048_37854)"/>
<path d="M72.0181 27.4763C72.0181 29.6547 72.0181 31.8215 72.0181 34C72.0181 35.0019 71.6919 35.328 70.7017 35.3513C70.2357 35.363 69.7697 35.3863 69.3038 35.3863C68.6747 35.3863 68.3252 35.1067 68.2087 34.4893C68.0806 33.8369 67.9408 33.1962 67.8825 32.5438C67.568 29.48 65.972 27.2549 63.4324 25.6007C61.3821 24.261 59.1337 23.5737 56.7106 23.3523C54.1361 23.1193 51.5848 23.2358 49.1384 24.2027C47.4027 24.8784 46.1678 25.9968 45.795 27.9189C45.364 30.1324 46.0047 31.6468 47.9269 32.8117C49.7093 33.9068 51.7246 34.3611 53.74 34.7922C57.3863 35.561 61.0326 36.3066 64.6556 37.1454C65.6808 37.3784 66.6826 37.821 67.6379 38.287C72.2627 40.5703 74.348 44.2749 74.0102 49.4356C73.8704 51.5791 73.4044 53.6178 72.2394 55.4584C70.8299 57.6835 68.8378 59.2212 66.3914 60.0367C60.753 61.9123 55.1146 62.0055 49.5462 59.7222C48.6724 59.361 47.857 58.8601 47.0415 58.3708C45.5387 57.4621 44.8165 57.5553 43.6748 58.9067C43.4651 59.163 43.2438 59.4193 43.1156 59.7105C42.836 60.293 42.405 60.5376 41.7643 60.5143C41.2401 60.491 40.7158 60.526 40.1916 60.5027C39.446 60.4794 39.0616 60.1299 39.0616 59.396C39.0499 55.0856 39.0499 50.7753 39.0616 46.465C39.0616 45.7777 39.3878 45.4282 40.0751 45.335C40.5178 45.2767 40.9605 45.2534 41.4031 45.2185C42.3235 45.1369 42.6729 45.4165 42.836 46.3368C43.3137 49.0512 44.5951 51.3345 46.6454 53.1635C48.0434 54.41 49.6627 55.272 51.445 55.8429C54.87 56.9379 58.3416 57.1476 61.8364 56.2506C65.273 55.3652 66.9156 53.2567 67.1719 49.7152C67.2884 48.0843 66.7059 46.8028 65.2847 46.0806C64.0498 45.4515 62.7334 44.9156 61.3821 44.6244C58.5978 44.0186 55.767 43.6109 52.9711 43.0983C50.6995 42.6789 48.4744 42.0615 46.3309 41.1761C41.9041 39.3355 39.6208 36.0037 39.3994 31.2507C39.3412 29.9693 39.4227 28.6412 39.679 27.3831C40.5178 23.2591 43.3137 20.9409 47.1347 19.6711C49.5462 18.8673 52.0392 18.7741 54.5555 18.8207C58.0736 18.8906 61.3821 19.6944 64.4692 21.4069C66.1351 22.3388 67.1602 22.0476 68.5116 20.4167C69.1057 19.706 70.527 19.3565 71.389 19.7177C71.89 19.9274 72.0065 20.3584 72.0065 20.8593C71.9948 23.0727 72.0065 25.2862 72.0065 27.4996C71.9948 27.4763 72.0065 27.4763 72.0181 27.4763Z" fill="black"/>
<path d="M152.493 32.4739C154.683 32.4739 156.885 32.4739 159.075 32.4739C160.03 32.4739 160.345 32.7768 160.356 33.7087C160.38 35.4445 160.263 35.561 158.527 35.561C158.143 35.561 157.747 35.5494 157.362 35.5727C156.221 35.6426 155.79 36.2716 156.186 37.3434C156.559 38.3685 156.978 39.3588 157.386 40.3723C159.052 44.5661 160.718 48.7716 162.407 52.9654C162.535 53.2916 162.814 53.6411 163.117 53.8158C163.618 54.0954 164.154 53.7576 164.445 53.0469C165.459 50.6238 166.472 48.1891 167.486 45.7543C168.523 43.273 169.548 40.7916 170.585 38.3103C170.643 38.1705 170.701 38.0307 170.748 37.8793C171.179 36.5745 170.608 35.7008 169.222 35.5843C168.779 35.5494 168.325 35.561 167.882 35.5377C167.195 35.5028 166.892 35.2115 166.868 34.5358C166.857 34.1864 166.857 33.8369 166.868 33.4874C166.892 32.8234 167.206 32.4855 167.882 32.4855C171.062 32.4739 174.243 32.4855 177.435 32.4972C178.157 32.4972 178.436 32.8234 178.448 33.5573C178.448 33.8485 178.448 34.1398 178.448 34.431C178.448 35.2465 178.157 35.5377 177.341 35.596C176.223 35.6775 175.175 35.9454 174.511 36.9473C174.196 37.4249 173.998 37.9841 173.777 38.52C169.851 47.9095 165.937 57.3107 161.976 66.6885C161.498 67.8185 160.799 68.8787 160.077 69.8805C158.784 71.6745 156.99 72.6881 154.788 72.921C152.528 73.1657 150.315 73.0259 148.264 71.9658C145.911 70.7426 144.618 68.8321 144.618 66.1294C144.606 63.3218 147.251 60.9453 150.641 62.5064C151.689 62.984 152.202 63.9276 152.237 65.0926C152.272 66.2692 151.864 67.2244 150.804 67.8185C150.349 68.0748 149.977 68.3544 150.035 68.9369C150.093 69.5427 150.571 69.8106 151.072 69.8805C152.085 70.0203 153.11 70.1718 154.124 70.1252C155.266 70.0786 156.221 69.4611 156.827 68.5059C157.735 67.073 158.574 65.5818 159.366 64.0674C159.529 63.7645 159.413 63.2286 159.273 62.8675C157.246 57.998 155.184 53.1401 153.134 48.2823C151.689 44.8457 150.221 41.4324 148.8 37.9841C148.253 36.6677 147.321 35.9454 145.958 35.7008C144.699 35.4678 144.641 35.3863 144.641 34.1048C144.641 33.9301 144.641 33.7553 144.641 33.5806C144.665 32.8117 144.967 32.4855 145.748 32.4739C147.985 32.4739 150.245 32.4739 152.493 32.4739Z" fill="black"/>
<path d="M89.6904 46.9426C89.8186 44.636 90.0515 42.3644 90.8088 40.1743C92.265 35.9455 95.1424 33.2195 99.4877 32.1128C103.297 31.1459 107.141 31.1575 110.951 32.171C115.494 33.3826 118.278 36.4115 119.443 40.8849C120.41 44.5661 120.41 48.3173 119.327 51.9869C117.847 57.0195 114.352 59.9086 109.308 60.957C105.825 61.6793 102.318 61.621 98.8702 60.7007C93.8959 59.3727 91.1466 55.971 90.1564 51.0433C89.8768 49.7036 89.8419 48.3056 89.6904 46.9426ZM112.465 46.4301C112.465 45.6146 112.512 44.7991 112.454 43.9837C112.325 42.0964 112.023 40.2442 111.195 38.52C110.438 36.9474 109.308 35.7358 107.561 35.3164C103.681 34.3961 99.1498 35.1184 97.7985 40.8266C97.7635 41.0014 97.7169 41.1645 97.682 41.3392C97.1811 43.774 97.2626 46.2437 97.4373 48.7017C97.5771 50.6705 97.88 52.5927 98.7304 54.3983C99.5809 56.204 100.944 57.3806 102.948 57.6835C103.705 57.8 104.497 57.8466 105.266 57.8233C108.481 57.7301 110.473 56.2623 111.58 53.245C112.384 51.0433 112.558 48.7483 112.465 46.4301Z" fill="black"/>
<path d="M125.548 60.4793C123.008 60.4793 120.457 60.4793 117.917 60.4793C116.974 60.4793 116.764 60.258 116.764 59.3027C116.764 58.9533 116.764 58.6038 116.764 58.2543C116.764 57.6951 117.032 57.4039 117.603 57.334C118.313 57.2408 119.036 57.1709 119.723 56.9728C121.028 56.5884 121.505 55.8894 121.505 54.5264C121.505 49.1444 121.505 43.7739 121.505 38.3918C121.505 37.0638 121.028 36.3648 119.758 35.992C119.094 35.794 118.395 35.7125 117.708 35.6193C117.055 35.5377 116.799 35.3164 116.787 34.664C116.776 34.2563 116.776 33.8485 116.787 33.4408C116.811 32.7302 117.067 32.4739 117.789 32.4622C119.676 32.4506 121.552 32.4622 123.439 32.4622C124.93 32.4622 126.433 32.4622 127.924 32.4622C128.821 32.4622 129.043 32.7069 129.054 33.6155C129.054 33.965 129.066 34.3145 129.054 34.664C129.043 35.1183 129.171 35.4795 129.625 35.6309C130.068 35.7823 130.371 35.561 130.627 35.2348C131.71 33.8602 133.062 32.8467 134.716 32.2642C136.953 31.472 139.178 31.4837 141.356 32.4855C144.641 34 145.713 37.5181 144.793 40.4538C143.977 43.0284 141.088 44.1351 138.723 42.8187C137.523 42.1546 136.976 41.0712 137.022 39.7199C137.069 38.3685 137.71 37.355 139.015 36.8541C139.422 36.691 139.76 36.4697 139.748 35.992C139.748 35.5028 139.399 35.2931 138.991 35.1533C137.535 34.6174 136.137 34.7688 134.762 35.4562C133.458 36.1202 132.421 37.0987 131.536 38.2637C130.499 39.6383 129.707 41.1528 129.171 42.7837C129.089 43.04 129.054 43.3196 129.054 43.5759C129.043 47.2688 129.066 50.95 129.043 54.6429C129.031 55.703 129.497 56.4486 130.452 56.7398C131.419 57.0427 132.456 57.1825 133.458 57.334C134.227 57.4505 134.436 57.6252 134.448 58.4057C134.448 58.7319 134.448 59.0697 134.448 59.3959C134.436 60.2231 134.192 60.4793 133.365 60.4793C130.976 60.4793 128.588 60.4793 126.2 60.4793C125.979 60.4793 125.769 60.4793 125.548 60.4793Z" fill="black"/>
<path d="M84.6462 46.1504C84.6462 49.0978 84.6346 52.0568 84.6462 55.0041C84.6579 56.9496 85.9859 57.9398 87.8848 57.4272C88.5605 57.2408 88.8983 56.7748 89.1429 56.169C89.5157 55.2371 90.0866 54.9109 90.8904 55.1206C91.6126 55.307 91.8922 55.7147 91.7757 56.4486C91.5427 57.9281 90.8438 59.1513 89.4924 59.8503C88.7119 60.258 87.8498 60.5493 86.9878 60.7123C85.3685 61.0152 83.7376 60.922 82.1299 60.5726C79.2641 59.9435 77.5517 58.0213 77.2255 55.0973C77.1556 54.4566 77.1206 53.8158 77.1206 53.1751C77.109 47.8746 77.1206 42.574 77.1206 37.2735C77.1206 36.1202 76.8177 35.8173 75.6761 35.8173C74.9538 35.8173 74.2432 35.829 73.5209 35.8173C72.787 35.8057 72.3793 35.4562 72.3327 34.8155C72.2395 33.6971 72.4958 33.2428 73.3229 33.0913C73.6491 33.0331 73.9753 32.9981 74.3014 32.9399C77.5866 32.3924 79.334 30.5284 79.6719 27.22C79.7301 26.6258 79.7651 26.0201 79.7767 25.4143C79.8 24.5289 80.068 24.2144 80.93 24.1328C81.7222 24.0629 82.5144 23.993 83.3065 23.9464C84.2851 23.8882 84.6695 24.2493 84.6695 25.2162C84.6695 27.1967 84.6695 29.1771 84.6695 31.1575C84.6695 32.1128 85.0074 32.4622 85.951 32.4622C87.5004 32.4622 89.0614 32.4622 90.6108 32.4622C91.5777 32.4622 91.9505 32.8583 91.8922 33.8252C91.8689 34.233 91.834 34.6407 91.799 35.0484C91.7291 35.9455 91.3214 36.2716 90.4244 36.1901C88.9565 36.062 87.4887 35.9222 86.0209 35.8406C85.0074 35.7824 84.6695 36.1551 84.6695 37.192C84.6462 40.1742 84.6462 43.1565 84.6462 46.1504Z" fill="black"/>
<path d="M132.188 72.3968C132.188 69.6359 132.188 66.9682 132.188 64.2538C132.712 64.2538 133.201 64.2538 133.737 64.2538C133.737 67.7137 133.737 71.162 133.737 74.7034C133.143 74.7034 132.549 74.7384 131.955 74.6801C131.78 74.6685 131.594 74.4238 131.466 74.2375C129.683 71.6979 127.901 69.1583 126.118 66.607C126.014 66.4556 125.897 66.3158 125.722 66.0711C125.722 68.9952 125.722 71.8027 125.722 74.6568C125.221 74.6568 124.732 74.6568 124.185 74.6568C124.185 71.2202 124.185 67.7603 124.185 64.2189C124.814 64.2189 125.454 64.1956 126.083 64.2422C126.247 64.2538 126.41 64.4868 126.526 64.6499C128.343 67.1662 130.161 69.6941 131.966 72.2104C132.013 72.257 132.071 72.2803 132.188 72.3968Z" fill="black"/>
<path d="M116.659 63.9859C119.898 63.9975 122.169 66.3158 122.146 69.566C122.123 72.7463 119.804 74.9714 116.531 74.9597C113.234 74.9481 110.986 72.6764 111.009 69.3679C111.032 66.2575 113.432 63.9626 116.659 63.9859ZM120.305 69.3796C120.305 69.2864 120.294 69.0767 120.27 68.867C120.049 66.9448 118.721 65.5702 116.974 65.4304C115.016 65.2673 113.537 66.2575 113.024 68.1214C112.687 69.3446 112.803 70.5445 113.397 71.6745C113.921 72.6531 114.737 73.2705 115.844 73.4569C118.406 73.8996 120.294 72.2221 120.305 69.3796Z" fill="black"/>
<path d="M59.0522 64.2538C59.0522 64.7314 59.0522 65.1508 59.0522 65.6401C56.8854 65.6401 54.7419 65.6401 52.5634 65.6401C52.5634 66.6187 52.5634 67.5157 52.5634 68.4826C54.6137 68.4826 56.6408 68.4826 58.7144 68.4826C58.7144 68.9835 58.7144 69.4145 58.7144 69.9155C56.6873 69.9155 54.6603 69.9155 52.5751 69.9155C52.5751 71.0571 52.5751 72.1289 52.5751 73.2822C54.8351 73.2822 57.0951 73.2822 59.4017 73.2822C59.3085 73.8064 59.2386 74.2375 59.1687 74.6801C56.3728 74.6801 53.6235 74.6801 50.8276 74.6801C50.8276 71.1969 50.8276 67.737 50.8276 64.2422C53.5653 64.2538 56.268 64.2538 59.0522 64.2538Z" fill="black"/>
<path d="M72.2744 65.6634C72.2744 66.6187 72.2744 67.5273 72.2744 68.4943C74.3247 68.4943 76.3517 68.4943 78.4137 68.4943C78.4137 69.0068 78.4137 69.4379 78.4137 69.9388C76.3634 69.9388 74.3364 69.9388 72.2394 69.9388C72.2394 70.9872 72.2394 71.9775 72.2394 72.9677C72.2394 73.3754 72.554 73.2822 72.787 73.2822C74.6509 73.2822 76.5148 73.2822 78.3787 73.2822C78.5884 73.2822 78.7981 73.2822 79.0894 73.2822C79.0311 73.7132 78.9962 74.0977 78.9146 74.4588C78.8913 74.5636 78.7049 74.7034 78.6001 74.7034C75.944 74.7034 73.2879 74.6918 70.6318 74.6685C70.6202 74.6685 70.5969 74.6452 70.5503 74.6103C70.5503 71.1853 70.5503 67.7487 70.5503 64.2538C73.2646 64.2538 75.9673 64.2538 78.7282 64.2538C78.7282 64.6965 78.7282 65.1508 78.7282 65.6518C76.5731 65.6634 74.4412 65.6634 72.2744 65.6634Z" fill="black"/>
<path d="M95.7015 71.6629C96.249 71.6629 96.75 71.6396 97.2509 71.6746C97.3791 71.6862 97.5305 71.8493 97.6004 71.9891C98.0081 72.8861 98.7304 73.3987 99.6624 73.4919C100.443 73.5734 101.247 73.5501 102.027 73.422C102.866 73.2938 103.332 72.7347 103.379 72.0357C103.425 71.3251 103.111 70.8008 102.272 70.5213C101.398 70.23 100.466 70.0786 99.5692 69.8456C98.9401 69.6708 98.2877 69.5194 97.6936 69.2398C95.853 68.3661 95.6666 66.0245 97.3092 64.813C98.8935 63.648 102.167 63.6946 103.705 64.8945C104.322 65.3838 104.695 66.0129 104.8 66.8983C104.264 66.8983 103.763 66.9215 103.274 66.8866C103.146 66.8749 102.994 66.7119 102.936 66.5721C102.668 66.0012 102.225 65.6634 101.631 65.5003C100.746 65.2673 99.8721 65.244 98.9983 65.5236C98.4159 65.71 98.0198 66.0828 97.9848 66.7352C97.9499 67.3176 98.2295 67.7487 98.9168 67.9817C99.6507 68.2263 100.42 68.3428 101.165 68.5525C102.004 68.7855 102.854 69.0068 103.646 69.3447C105.755 70.23 105.522 73.0958 103.938 74.121C102.237 75.2277 98.8003 75.216 97.1461 74.0511C96.3539 73.4919 95.9229 72.6997 95.7015 71.6629Z" fill="black"/>
<path d="M90.9136 64.2189C90.8437 64.4402 90.7971 64.58 90.7389 64.7198C89.3526 67.8885 87.9663 71.0455 86.6033 74.2142C86.4285 74.6219 86.1956 74.7384 85.7762 74.7268C84.3433 74.7035 84.3433 74.7268 83.7841 73.422C82.5609 70.5679 81.3261 67.7254 80.1029 64.8713C80.0213 64.6849 79.9514 64.4868 79.8466 64.2189C80.4523 64.2189 80.9766 64.1839 81.4891 64.2422C81.6522 64.2655 81.8503 64.4985 81.9202 64.6849C83.0502 67.4341 84.1569 70.1834 85.2636 72.9327C85.2869 72.9793 85.3218 73.0259 85.3801 73.1424C85.4616 73.0026 85.5199 72.9094 85.5665 72.7929C86.6732 70.1019 87.7799 67.4109 88.8633 64.7082C89.0264 64.3121 89.2361 64.1723 89.6438 64.2072C90.0399 64.2422 90.4476 64.2189 90.9136 64.2189Z" fill="black"/>
<path d="M45.4455 74.6918C44.8164 74.6918 44.3039 74.6918 43.6981 74.6918C43.6981 71.6979 43.6981 68.7156 43.6981 65.6518C42.3351 65.6518 41.0653 65.6518 39.7722 65.6518C39.7722 65.1508 39.7722 64.7198 39.7722 64.2538C42.9642 64.2538 46.1212 64.2538 49.3248 64.2538C49.3248 64.6965 49.3248 65.1275 49.3248 65.6285C48.0667 65.6285 46.7969 65.6285 45.4572 65.6285C45.4455 68.6573 45.4455 71.6396 45.4455 74.6918Z" fill="black"/>
<path d="M61.2422 74.7151C61.2422 71.1737 61.2422 67.7487 61.2422 64.2655C61.8131 64.2655 62.3489 64.2655 62.9547 64.2655C62.9547 67.2594 62.9547 70.2184 62.9547 73.2706C65.0516 73.2706 67.0903 73.2706 69.129 73.2706C69.1406 73.422 69.1639 73.4686 69.1523 73.5269C69.0358 74.7151 69.0358 74.7151 67.8592 74.7151C65.8788 74.7151 63.8983 74.7151 61.9179 74.7151C61.7199 74.7151 61.5102 74.7151 61.2422 74.7151Z" fill="black"/>
<path d="M107.176 74.6685C107.176 71.1736 107.176 67.7254 107.176 64.2422C107.747 64.2422 108.283 64.2422 108.865 64.2422C108.865 67.7021 108.865 71.162 108.865 74.6685C108.33 74.6685 107.77 74.6685 107.176 74.6685Z" fill="black"/>
<path d="M92.23 64.2422C92.7775 64.2422 93.3017 64.2422 93.8726 64.2422C93.8726 67.7137 93.8726 71.1736 93.8726 74.6685C93.3367 74.6685 92.8008 74.6685 92.23 74.6685C92.23 71.2086 92.23 67.7603 92.23 64.2422Z" fill="black"/>
<path d="M180.417 30.4585H179.683V30.0042H181.687V30.4585H180.953V32.4506H180.417V30.4585Z" fill="black"/>
<path d="M181.966 30.0042H182.724L183.294 31.6818H183.306L183.842 30.0042H184.599V32.4506H184.098V30.7265H184.087L183.492 32.4506H183.073L182.479 30.7381H182.467V32.4506H181.966V30.0042Z" fill="black"/>
<defs>
<linearGradient id="paint0_linear_2048_37854" x1="106.704" y1="11.1891" x2="106.704" y2="83.7257" gradientUnits="userSpaceOnUse">
<stop offset="0.462961" stop-opacity="0"/>
<stop offset="0.650465"/>
</linearGradient>
</defs>
</svg>
