<svg width="201" height="91" viewBox="0 0 201 91" fill="none" xmlns="http://www.w3.org/2000/svg">
<path fill-rule="evenodd" clip-rule="evenodd" d="M159.846 20.3187L128.636 20.4277C128.629 20.4277 128.625 20.4292 128.617 20.4292C127.374 20.4292 127.3 21.2605 127.3 21.2605L127.292 21.4777L127.113 31.998L127.148 32.9998C127.148 32.9998 127.228 33.7428 128.303 33.8168L146.717 33.6346C146.717 33.6346 149.752 33.3085 150.639 34.7922C151.745 36.6439 148.655 38.837 148.655 38.837L131.871 52.5306C131.871 52.5306 127.22 56.0219 127.977 61.891C128.982 69.6791 137.468 72.8757 137.468 72.8757L170.641 86.2829L170.741 86.3203C170.741 86.3203 172.633 86.7877 172.83 85.1529C172.842 85.0505 172.858 84.9483 172.88 84.8441L172.83 83.4104C172.486 78.6053 170.628 71.2396 162.97 67.5603L150.431 62.2743C150.431 62.2743 148.116 61.4856 147.713 59.4753C147.376 57.8003 149.206 56.3615 149.206 56.3615L168.32 41.126C168.32 41.126 175.247 35.4037 171.498 26.9035C168.788 20.763 162.255 20.3047 160.365 20.3047C160.034 20.3047 159.846 20.3187 159.846 20.3187Z" fill="url(#paint0_linear_2048_38030)"/>
<path fill-rule="evenodd" clip-rule="evenodd" d="M114.193 22.0288C107.473 24.8594 107.708 31.3317 107.708 31.3317L107.768 63.2727C107.768 63.2727 107.94 67.7261 100.748 67.8343C93.555 67.7261 93.7262 63.2727 93.7262 63.2727L93.7866 31.3317C93.7866 31.3317 94.0219 24.8594 87.3026 22.0288C83.7042 20.5114 78.9385 20.4517 76.8643 20.5101C76.6555 20.5277 75.838 20.6477 75.838 21.4673C75.838 21.4866 75.8364 21.4999 75.8359 21.5177L76.5137 65.7909C76.5137 65.7909 76.7383 81.3038 100.736 81.6687H100.748H100.76C124.757 81.3038 124.982 65.7909 124.982 65.7909L125.659 21.5177C125.658 21.4999 125.657 21.4866 125.657 21.4673C125.657 20.6477 124.839 20.5277 124.63 20.5101C124.343 20.5019 124.004 20.4961 123.623 20.4961C121.259 20.4961 117.293 20.7218 114.193 22.0288Z" fill="url(#paint1_linear_2048_38030)"/>
<path fill-rule="evenodd" clip-rule="evenodd" d="M30.2613 26.9035C26.5123 35.4037 33.4391 41.126 33.4391 41.126L52.5535 56.3615C52.5535 56.3615 54.3828 57.8003 54.0465 59.4753C53.6428 61.4856 51.3291 62.2743 51.3291 62.2743L38.7898 67.5603C31.1317 71.2396 29.2731 78.6053 28.9299 83.4104L28.8799 84.8441C28.9012 84.9483 28.9175 85.0505 28.9299 85.1529C29.1266 86.7877 31.0184 86.3203 31.0184 86.3203L31.1184 86.2829L64.2915 72.8757C64.2915 72.8757 72.7778 69.6791 73.7828 61.891C74.5386 56.0219 69.8887 52.5306 69.8887 52.5306L53.1045 38.837C53.1045 38.837 50.0142 36.6439 51.121 34.7922C52.0076 33.3085 55.0421 33.6346 55.0421 33.6346L73.4564 33.8168C74.5309 33.7428 74.6112 32.9998 74.6112 32.9998L74.6455 31.998L74.4674 21.4777L74.4596 21.2605C74.4596 21.2605 74.3856 20.4292 73.1421 20.4292C73.1345 20.4292 73.1304 20.4277 73.1228 20.4277L41.9137 20.3187C41.9137 20.3187 41.7255 20.3047 41.394 20.3047C39.5044 20.3047 32.9711 20.763 30.2613 26.9035Z" fill="url(#paint2_linear_2048_38030)"/>
<path fill-rule="evenodd" clip-rule="evenodd" d="M38.038 17.9274C37.4468 18.197 36.2866 18.4891 34.8996 18.4891C31.4427 18.4891 29.1914 16.287 29.1914 12.8939C29.1914 9.61344 31.4658 7.07422 35.3546 7.07422C36.3781 7.07422 37.4237 7.29887 38.0606 7.56846L37.5606 9.65812C37.1057 9.43371 36.4457 9.2314 35.4453 9.2314C33.3078 9.2314 32.0341 10.7819 32.0567 12.7817C32.0567 15.0287 33.5349 16.3096 35.4453 16.3096C36.4007 16.3096 37.1057 16.1073 37.6513 15.8827L38.038 17.9274Z" fill="#1C75BB"/>
<path fill-rule="evenodd" clip-rule="evenodd" d="M44.8378 12.9165C42.8593 12.8939 40.9716 13.2985 40.9716 14.9612C40.9716 16.0395 41.6768 16.5343 42.5634 16.5343C43.7007 16.5343 44.4963 15.8151 44.7689 15.0287C44.8378 14.8264 44.8378 14.6241 44.8378 14.422V12.9165ZM47.5666 15.6354C47.5666 16.6241 47.6121 17.5903 47.7485 18.2645H45.2244L45.0197 17.0511H44.9511C44.2921 17.9048 43.1322 18.5117 41.6768 18.5117C39.4481 18.5117 38.1973 16.9163 38.1973 15.2536C38.1973 12.5118 40.6756 11.0964 44.7689 11.1187V10.939C44.7689 10.2201 44.4737 9.02908 42.5179 9.02908C41.4266 9.02908 40.2895 9.36594 39.5393 9.83809L38.9932 8.04011C39.8122 7.54612 41.2444 7.07422 42.9958 7.07422C46.5434 7.07422 47.5666 9.29867 47.5666 11.7031V15.6354Z" fill="#1C75BB"/>
<path fill-rule="evenodd" clip-rule="evenodd" d="M49.3866 10.5796C49.3866 9.32101 49.3414 8.26501 49.2959 7.32146H51.7291L51.8655 8.96156H51.9336C52.4343 8.10788 53.6394 7.07422 55.4814 7.07422C57.4144 7.07422 59.4154 8.30994 59.4154 11.7704V18.2645H56.6182V12.0851C56.6182 10.5121 56.0271 9.32101 54.5034 9.32101C53.3892 9.32101 52.6162 10.1077 52.3205 10.939C52.229 11.1639 52.184 11.5008 52.184 11.8153V18.2645H49.3866V10.5796Z" fill="#1C75BB"/>
<path fill-rule="evenodd" clip-rule="evenodd" d="M67.1249 12.9165C65.1464 12.8939 63.2592 13.2985 63.2592 14.9612C63.2592 16.0395 63.9639 16.5343 64.851 16.5343C65.9878 16.5343 66.784 15.8151 67.0565 15.0287C67.1249 14.8264 67.1249 14.6241 67.1249 14.422V12.9165ZM69.854 15.6354C69.854 16.6241 69.8997 17.5903 70.0356 18.2645H67.5115L67.307 17.0511H67.2387C66.5792 17.9048 65.4193 18.5117 63.9639 18.5117C61.7355 18.5117 60.4844 16.9163 60.4844 15.2536C60.4844 12.5118 62.9633 11.0964 67.0565 11.1187V10.939C67.0565 10.2201 66.7614 9.02908 64.8053 9.02908C63.7137 9.02908 62.5766 9.36594 61.8264 9.83809L61.2808 8.04011C62.0993 7.54612 63.532 7.07422 65.2831 7.07422C68.8305 7.07422 69.854 9.29867 69.854 11.7031V15.6354Z" fill="#1C75BB"/>
<path fill-rule="evenodd" clip-rule="evenodd" d="M71.6748 18.2663H74.4723V3.84375H71.6748V18.2663Z" fill="#1C75BB"/>
<defs>
<linearGradient id="paint0_linear_2048_38030" x1="2415.43" y1="20.3047" x2="2415.43" y2="6628.05" gradientUnits="userSpaceOnUse">
<stop stop-color="#0C71BF"/>
<stop offset="1" stop-color="#05AAE5"/>
</linearGradient>
<linearGradient id="paint1_linear_2048_38030" x1="2566.97" y1="20.4961" x2="2566.97" y2="6137.76" gradientUnits="userSpaceOnUse">
<stop stop-color="#0C71BF"/>
<stop offset="1" stop-color="#05AAE5"/>
</linearGradient>
<linearGradient id="paint2_linear_2048_38030" x1="2317.16" y1="20.3047" x2="2317.16" y2="6628.05" gradientUnits="userSpaceOnUse">
<stop stop-color="#0C71BF"/>
<stop offset="1" stop-color="#05AAE5"/>
</linearGradient>
</defs>
</svg>
