<svg width="201" height="91" viewBox="0 0 201 91" fill="none" xmlns="http://www.w3.org/2000/svg">
<path d="M138.508 5.42773H122.908C122.562 5.77626 122.366 5.97038 122.026 6.31009V24.8505H118.093V6.32112L117.211 5.43876H101.792L100.909 6.32112V25.0402L111.471 35.6946V43.5829L112.353 44.4652H127.775C128.123 44.1167 128.317 43.9204 128.657 43.5829V35.602L139.4 24.8594V6.32994L138.508 5.42773Z" fill="#E1FF00"/>
<path d="M138.508 48.3027H122.908C122.562 48.6513 122.366 48.8476 122.026 49.1851V67.7255H118.093V49.1939L117.211 48.3116H101.792L100.909 49.1939V67.913L111.471 78.5674V86.4557L112.353 87.338H127.775L128.657 86.4557V78.477L139.4 67.7344V49.1939L138.508 48.3027Z" fill="#E1FF00"/>
<path d="M96.0741 5.42773H69.6455L61.8477 13.2277V23.9704L62.73 24.8527H79.3977V21.0321H96.0653C96.4138 20.6858 96.6102 20.4895 96.9477 20.1498V6.31891C96.619 5.97038 96.4227 5.77626 96.0741 5.42773Z" fill="#E1FF00"/>
<path d="M62.7388 28.6919L61.8564 29.5743V43.5728C62.205 43.9191 62.3991 44.1155 62.7388 44.4552H89.1675L96.9653 36.6552V25.7515C96.6189 25.403 96.4226 25.2088 96.0829 24.8691H79.4064V28.7008L62.7388 28.6919Z" fill="#E1FF00"/>
<path d="M96.0741 48.3027H69.6454L61.8477 56.1049V86.4579L62.73 87.3402H78.1491C78.4977 86.9917 78.694 86.7976 79.0315 86.4579V81.6049H96.0565L96.9388 80.7226V68.6255L96.0565 67.7432H79.0491V63.9027H96.0741L96.9565 63.0204V49.1939L96.0741 48.3027Z" fill="#E1FF00"/>
</svg>
