<svg width="201" height="91" viewBox="0 0 201 91" fill="none" xmlns="http://www.w3.org/2000/svg">
<path d="M200.074 69.2851C199.877 69.955 199.404 70.1914 198.734 70.152C196.015 70.1126 193.296 70.0732 190.577 70.152C189.001 70.1914 188.449 68.8122 189.119 67.5907C189.159 67.5513 189.159 67.4725 189.238 67.4331C189.986 66.842 189.789 66.1327 189.513 65.384C188.016 61.483 186.519 57.5425 185.061 53.6415C184.824 52.9716 184.391 52.7352 183.681 52.7352C179.977 52.7746 176.273 52.7746 172.569 52.7352C172.057 52.7352 171.781 52.8928 171.584 53.3656C170.481 56.1634 169.378 58.9611 168.314 61.7588C167.801 63.138 167.289 64.5171 166.777 65.8569C166.659 66.1721 166.698 66.3691 166.974 66.5662C167.88 67.236 167.88 69.0487 167.013 69.7185C166.737 69.9156 166.343 69.9944 165.989 69.9944C164.176 69.9944 162.364 69.955 160.551 69.9156C159.763 69.8762 159.526 69.5609 159.487 68.7728C159.487 68.497 159.487 68.2212 159.487 67.8665C158.857 68.5364 158.147 68.4182 157.517 68.2212C156.847 67.9847 156.177 67.9847 155.547 68.3C152.158 69.9944 148.572 70.1914 144.868 70.0732C141.873 69.955 138.997 69.5215 136.16 68.6152C132.574 67.4725 129.382 65.6599 126.702 63.0198C123.55 59.9068 121.54 56.1634 120.555 51.8683C119.294 46.4698 119.176 41.032 120.674 35.6336C122.447 29.25 126.505 24.8761 132.456 22.1572C135.647 20.6993 139.075 19.99 142.543 19.5565C146.405 19.1231 150.109 19.7535 153.813 20.7387C154.877 21.0145 155.98 21.2509 157.083 21.4873C157.477 21.5661 157.871 21.4873 158.266 21.4479C159.093 21.4479 159.645 21.842 159.763 22.6301C159.999 24.2851 160.236 25.9401 160.393 27.6345C160.512 29.2106 160.315 29.4471 158.778 29.8411C158.541 29.9199 158.305 29.9593 158.029 29.9987C157.399 30.0775 156.886 29.9593 156.492 29.4471C154.167 26.4129 150.976 25.152 147.232 25.0337C142.819 24.8761 138.997 26.4917 135.568 29.1712C131.983 32.0084 129.54 35.6336 128.594 40.1257C127.727 44.342 128.2 48.4795 129.855 52.4593C131.864 57.3061 135.174 60.9313 140.021 63.0198C143.686 64.5959 147.508 65.0688 151.449 64.0443C153.419 63.532 155.113 62.4681 156.492 60.9707C157.871 59.4733 158.463 59.9068 159.802 60.5373C160.787 61.0495 161.024 61.877 160.906 62.8227C160.787 63.9655 160.551 65.0688 160.354 66.1327C160.709 66.0145 161.221 65.384 161.457 64.793C163.506 59.4733 165.595 54.1537 167.644 48.8341C170.284 42.0565 172.924 35.2395 175.604 28.462C175.84 27.7921 175.84 27.7921 175.209 27.5556C174.224 27.1616 173.752 25.743 174.343 24.7185C175.17 23.2605 176.037 21.8026 176.904 20.3446C177.101 20.0294 177.219 19.7141 177.337 19.3595C177.495 18.8472 177.81 18.532 178.362 18.532C178.795 18.532 179.229 18.532 179.662 18.532C180.45 18.4926 180.884 18.8866 181.16 19.5959C181.632 20.8175 182.066 22.039 182.539 23.2605C187.701 36.6975 192.863 50.1345 198.025 63.532C198.301 64.2019 198.537 64.8718 198.852 65.5417C199.01 65.8963 199.246 66.1721 199.443 66.4874C199.68 66.8814 199.956 67.3149 200.192 67.7089C200.074 68.3 200.074 68.8122 200.074 69.2851ZM174.5 47.1791C177.377 47.1791 180.174 47.1791 183.051 47.1791C181.554 43.1599 180.096 39.1406 178.598 35.0031C177.18 39.1406 175.84 43.1205 174.5 47.1791Z" fill="black"/>
<path d="M117.364 0.0507812C117.364 1.39054 117.364 2.69089 117.364 4.03065C117.324 4.03065 117.246 4.07005 117.206 4.07005C117.088 3.87303 117.009 3.67601 116.852 3.47898C114.369 3.47898 111.887 3.47898 109.325 3.47898C109.325 4.07005 109.325 4.66111 109.325 5.33099C109.68 5.33099 109.995 5.33099 110.31 5.33099C111.256 5.33099 112.241 5.33099 113.187 5.33099C113.62 5.33099 114.014 5.331 114.211 4.85814C114.251 4.81874 114.369 4.81873 114.487 4.77933C114.487 6.00087 114.487 7.183 114.487 8.44395C114.369 8.40454 114.251 8.40455 114.211 8.36515C114.014 7.9317 113.66 7.93169 113.266 7.93169C111.965 7.93169 110.665 7.93169 109.286 7.93169C109.286 8.64098 109.286 9.27146 109.286 9.98074C109.444 9.98074 109.601 10.0201 109.798 10.0201C111.965 10.0201 114.133 10.0201 116.339 10.0201C116.694 10.0201 117.009 9.98073 117.049 9.54728C117.049 9.46848 117.167 9.38966 117.324 9.23204C117.324 10.69 117.324 11.9904 117.324 13.2907C117.246 13.2907 117.127 13.2907 117.127 13.2907C116.97 12.8179 116.536 12.8967 116.182 12.8967C112.714 12.8967 109.207 12.8967 105.74 12.8967C105.542 12.8967 105.385 12.8967 105.188 12.8967C105.188 12.8573 105.148 12.8179 105.148 12.7785C105.227 12.6996 105.306 12.5814 105.385 12.5814C105.7 12.5026 105.818 12.345 105.818 11.9904C105.818 8.56216 105.818 5.09457 105.818 1.66637C105.818 1.35113 105.7 1.15411 105.385 1.0753C105.306 1.0359 105.227 0.957091 105.148 0.917687C105.148 0.878282 105.188 0.83887 105.188 0.799466C105.385 0.799466 105.542 0.760059 105.74 0.760059C109.286 0.760059 112.793 0.760059 116.339 0.760059C116.852 0.760059 117.088 0.60245 117.127 0.129595C117.167 0.0507861 117.285 0.0507812 117.364 0.0507812Z" fill="black"/>
<path d="M84.7769 0.0507812C84.7769 1.39054 84.7769 2.76969 84.7769 4.10945C84.7375 4.10945 84.6587 4.14885 84.6193 4.14885C84.5405 4.07004 84.5011 3.95184 84.3829 3.87303C84.2252 3.75482 84.0676 3.51838 83.9494 3.51838C82.7673 3.47897 81.5851 3.51838 80.403 3.51838C80.3242 3.51838 80.2454 3.55779 80.1272 3.55779C80.1272 3.75481 80.0878 3.95183 80.0878 4.18826C80.0878 6.63134 80.0878 9.11384 80.0878 11.5569C80.0878 11.9904 80.0089 12.4632 80.6394 12.542C80.6788 12.542 80.6788 12.6208 80.7576 12.7785C79.142 12.7785 77.5659 12.7785 75.8321 12.7785C76.0291 12.6208 76.1079 12.5814 76.1867 12.5026C76.3443 12.345 76.5413 12.148 76.5413 11.9904C76.5808 9.27145 76.5413 6.51313 76.5413 3.79422C76.5413 3.75481 76.5413 3.71541 76.5019 3.59719C76.1079 3.59719 75.7533 3.59719 75.3592 3.59719C74.5711 3.59719 73.7436 3.59719 72.9555 3.59719C72.6009 3.59719 72.2856 3.5972 72.2462 4.07005C72.2462 4.14886 72.128 4.18826 72.0492 4.22767C72.0098 4.22767 71.931 4.18826 71.8916 4.18826C71.8916 2.84851 71.8916 1.46935 71.8916 0.129595C72.0098 0.129595 72.128 0.129595 72.2856 0.129595C72.2856 0.60245 72.5615 0.760059 73.0343 0.760059C76.6201 0.760059 80.1666 0.760059 83.7524 0.760059C84.2252 0.760059 84.4223 0.60245 84.4223 0.129595C84.5011 0.0507861 84.6193 0.0507812 84.7769 0.0507812Z" fill="black"/>
<path d="M57.8628 42.6859C58.6903 42.6859 59.5178 42.6859 60.3453 42.6859C61.8427 42.6465 63.34 42.6859 64.8374 42.5283C65.7437 42.4495 66.65 42.1737 67.5169 41.8979C68.2262 41.7008 68.9355 41.425 69.6842 41.6614C70.2752 41.8585 70.7087 42.2131 70.7481 42.883C70.7481 44.6168 70.7481 46.39 70.7087 48.1238C70.6693 48.8331 70.2752 49.1483 69.5659 49.1483C68.8567 49.1089 68.1868 49.1089 67.5169 48.9513C66.2954 48.636 65.0344 48.439 63.7735 48.4784C61.9609 48.5178 60.1483 48.5572 58.3356 48.5966C58.1386 48.5966 57.9416 48.6754 57.6658 48.7542C57.6658 49.6606 57.6658 50.4881 57.6658 51.355C57.7052 55.0196 57.7446 58.6842 57.784 62.3488C57.784 62.9399 57.8234 63.531 57.9022 64.122C57.9416 64.5161 58.0598 64.8707 58.3356 65.2254C58.6115 65.5406 58.7691 65.974 58.8873 66.4075C59.1631 67.4714 59.1237 68.5353 59.0055 69.5993C58.9661 69.9539 58.8085 70.1509 58.4145 70.1509C57.9416 70.1509 57.4687 70.1903 56.9959 70.1903C54.5134 70.1509 52.0703 70.1509 49.5878 70.1115C48.6421 70.1115 48.6027 69.9933 48.3269 68.7718C48.2875 68.7718 48.2481 68.8112 48.2481 68.8112C48.0116 69.9145 47.8146 70.0721 46.5537 70.0721C43.7166 70.0721 40.9188 70.0721 38.0817 70.0327C37.6482 70.0327 37.2148 70.0721 36.8207 70.0327C35.9144 69.9539 35.2446 69.2446 35.3628 68.3777C35.4416 67.8261 35.6386 67.235 35.9538 66.8409C36.3873 66.2893 36.5055 65.777 36.2691 65.1859C35.5598 63.1763 34.8505 61.1273 34.0624 59.1176C33.0379 56.4381 31.974 53.798 30.9495 51.1185C30.6736 50.4092 30.2796 50.1334 29.4915 50.1334C25.3146 50.1728 21.1377 50.1728 16.9608 50.094C16.0939 50.094 15.6211 50.3698 15.3453 51.1973C14.0055 54.7043 12.6263 58.1719 11.2866 61.6395C10.8137 62.8217 10.3803 64.0432 9.94683 65.2648C9.82862 65.5406 9.90743 65.6982 10.1439 65.8952C11.2472 66.7227 11.326 68.5353 10.3409 69.5204C9.94683 69.9145 9.39517 69.9145 8.92232 69.9145C7.50375 69.9145 6.04578 69.9145 4.62722 69.8751C3.95734 69.8751 3.28747 69.8357 2.61759 69.7569C1.94771 69.6781 1.67188 69.4416 1.67188 68.7718C1.67188 68.0231 1.79009 67.235 1.94771 66.4863C2.02651 66.1711 2.30235 65.8952 2.53877 65.6588C3.20865 65.0677 3.72091 64.4373 4.03615 63.5704C9.31636 49.9758 14.5966 36.3812 19.9162 22.7472C20.3496 21.6833 20.3102 21.6833 19.3645 21.1316C19.0493 20.974 18.7735 20.6588 18.6158 20.3041C18.2612 19.4767 18.2612 18.6098 18.7341 17.7823C19.6798 16.2455 20.5861 14.6693 21.4924 13.0931C21.7288 12.6991 21.8864 12.2656 22.044 11.7928C22.2411 11.2805 22.5169 10.9259 23.0686 10.9259C23.8172 10.9259 24.5659 10.8865 25.3146 10.9653C25.9451 11.0441 26.1815 11.5957 26.3785 12.108C27.3242 14.5905 28.27 17.1124 29.2157 19.5949C34.7323 33.9381 40.249 48.2814 45.7656 62.6247C46.0808 63.4127 46.3961 64.1614 46.7113 64.9495C46.8295 65.2254 46.9871 65.5012 47.2236 65.7376C47.8146 66.3681 48.1693 67.038 48.1693 67.9049C48.1693 67.9837 48.2087 68.1019 48.2087 68.1413C48.3269 67.3926 48.4057 66.6045 48.5633 65.8164C48.6421 65.4618 48.8786 65.1859 48.9574 64.8313C49.115 64.2402 49.2332 63.6492 49.312 63.0581C49.3514 62.6247 49.3514 62.1912 49.3514 61.7972C49.3514 49.5029 49.3514 37.1693 49.3514 24.8751C49.3514 24.0476 49.1544 23.4565 48.4845 22.9443C47.5782 22.2744 47.7358 20.777 48.2481 20.1465C48.4451 19.9101 48.8391 19.7525 49.1938 19.6737C49.5484 19.5555 49.9425 19.5555 50.2971 19.5555C56.7201 19.5555 63.143 19.5555 69.5659 19.5555C70.1964 19.5555 70.4328 19.6343 70.5117 20.2647C70.6299 21.171 70.6299 22.0774 70.5905 22.9837C70.5511 23.7324 70.354 24.481 70.2358 25.2297C70.1964 25.5844 69.9994 25.7814 69.6448 25.8208C69.0931 25.8996 68.5414 26.0178 68.0292 25.9784C67.7139 25.939 67.3987 25.6632 67.0441 25.5056C66.6106 25.3085 66.2166 24.9539 65.7831 24.9145C63.1824 24.8751 60.6211 24.8751 58.0204 24.8751C57.9416 24.8751 57.8628 24.9145 57.7446 24.9145C57.8628 30.9434 57.8628 36.7359 57.8628 42.6859ZM28.7034 43.7499C27.0878 39.1395 25.4722 34.5686 23.8566 29.9977C23.8172 29.9977 23.7778 29.9977 23.7384 29.9977C22.1228 34.5686 20.5073 39.1395 18.8917 43.7105C22.2017 43.7499 25.4328 43.7499 28.7034 43.7499Z" fill="black"/>
<path d="M80.9937 48.9916C80.9937 49.5039 80.9937 49.8585 80.9937 50.2132C80.9543 54.7841 80.9543 59.355 80.8755 63.926C80.8755 64.6746 81.0725 65.2263 81.5454 65.8174C82.3335 66.8025 82.4123 68.024 82.2941 69.2062C82.2941 69.3638 81.9789 69.6396 81.7818 69.6396C81.112 69.7578 80.4421 69.8761 79.7722 69.8761C77.2109 69.8761 74.6496 69.876 72.0883 69.8366C71.3396 69.8366 71.0638 69.5608 71.0244 68.8121C70.985 67.827 71.182 66.8419 71.7337 66.0144C72.0883 65.4233 72.2459 64.8323 72.2459 64.2018C72.2459 58.2123 72.2459 52.2228 72.2459 46.2727C72.2459 39.2981 72.2459 32.3629 72.2459 25.3883C72.2459 24.679 72.0883 24.0485 71.7731 23.4181C71.5366 22.9452 71.3396 22.4724 71.2608 21.9601C71.0638 20.7386 71.9701 19.6746 73.1916 19.517C73.7827 19.4382 74.3738 19.4382 74.9648 19.4382C78.6689 19.4382 82.3729 19.4776 86.0769 19.4382C89.781 19.3988 92.5393 21.0144 94.5883 23.9697C96.2433 26.3734 97.1102 29.0923 97.4648 31.9689C97.9377 35.7911 97.2284 39.4163 95.337 42.8051C94.3519 44.5389 93.288 45.6422 91.4754 46.8638C91.9482 47.8489 92.3817 48.8734 92.8939 49.8585C94.9824 53.8778 97.5437 57.5818 100.696 60.813C102.587 62.7438 104.715 64.4776 107.237 65.5415C107.592 65.6992 108.025 65.8174 108.419 65.8568C108.971 65.975 109.562 65.3839 109.562 64.7535C109.523 59.1186 109.562 53.5231 109.562 47.8883C109.562 42.4111 109.601 36.9338 109.601 31.4566C109.601 29.447 109.641 27.4767 109.641 25.4671C109.641 25.2307 109.562 24.9548 109.444 24.7184C109.05 23.8121 108.656 22.9058 108.262 21.9995C108.143 21.7237 108.104 21.4084 108.065 21.0932C108.025 20.1869 108.577 19.5958 109.483 19.5958C112.163 19.5958 114.803 19.5958 117.482 19.6352C118.625 19.6352 119.334 20.6203 118.94 21.6843C118.586 22.6694 118.113 23.6545 117.679 24.6396C117.601 24.8366 117.522 25.0731 117.522 25.3095C117.522 37.8795 117.522 50.4496 117.522 63.0196C117.522 64.0048 117.837 64.9111 118.467 65.7386C119.137 66.6055 119.492 67.5906 119.256 68.7333C119.059 69.6002 118.546 70.0337 117.679 70.0337C115.236 70.0337 112.754 70.0337 110.311 70.0337C108.616 70.0337 106.922 70.0731 105.228 70.1125C102.587 70.1913 100.223 69.3638 97.9771 67.9452C94.9824 66.0538 92.5393 63.6107 90.2932 60.9312C87.1409 57.2666 84.2249 53.4049 81.4272 49.4645C81.2302 49.3069 81.1514 49.1887 80.9937 48.9916ZM80.8361 25.1125C80.8361 30.9049 80.8361 36.658 80.8361 42.4505C82.9246 42.214 84.816 41.5836 86.3134 40.1256C88.5594 37.9978 89.0717 35.3182 88.6776 32.4023C88.2442 29.1711 86.3134 27.0039 83.3974 25.7035C82.5699 25.3489 81.7424 25.1125 80.8361 25.1125Z" fill="black"/>
<path d="M114.487 76.7329C116.418 76.7329 118.349 76.7329 120.28 76.7329C120.28 76.7723 120.319 76.8117 120.319 76.8905C120.083 77.0087 119.886 77.1269 119.571 77.2845C121.423 79.57 123.393 81.6584 125.442 83.8257C125.481 83.6287 125.481 83.5104 125.481 83.3922C125.481 81.5008 125.521 79.6094 125.481 77.718C125.481 77.4027 125.205 77.1269 125.048 76.7329C126.466 76.654 127.964 76.6934 129.422 76.6934C129.422 76.7328 129.461 76.8117 129.461 76.8511C129.343 76.9299 129.264 77.0481 129.146 77.0481C128.831 77.1269 128.752 77.3239 128.752 77.5997C128.752 81.225 128.752 84.8896 128.752 88.5148C128.752 88.8301 128.831 89.0271 129.185 89.1059C129.304 89.1453 129.382 89.2241 129.461 89.3029C129.461 89.3423 129.422 89.3817 129.422 89.4211C127.885 89.4211 126.388 89.4211 124.851 89.4211C124.811 89.3817 124.811 89.3423 124.772 89.3029C124.93 89.1847 125.127 89.1059 125.324 88.9483C125.245 88.7906 125.205 88.633 125.087 88.5148C122.881 86.1111 120.674 83.7075 118.467 81.3038C118.467 81.3038 118.428 81.3038 118.349 81.2644C118.349 81.422 118.31 81.5796 118.31 81.7372C118.31 83.8651 118.31 85.9929 118.31 88.1208C118.31 88.5936 118.27 89.0271 118.901 89.1059C118.94 89.1059 118.98 89.2241 119.058 89.3423C117.482 89.3423 115.945 89.3423 114.251 89.3423C114.448 89.1847 114.527 89.0665 114.645 89.0271C114.921 88.9483 115.039 88.7906 115.039 88.4754C115.039 84.8108 115.039 81.1856 115.039 77.5209C115.039 77.2451 114.96 77.0481 114.645 76.9693C114.527 76.9299 114.448 76.8117 114.369 76.7329C114.448 76.7723 114.448 76.7723 114.487 76.7329Z" fill="black"/>
<path d="M100.302 89.421C98.6468 89.421 97.1494 89.421 95.6126 89.421C95.6126 89.3816 95.5732 89.3422 95.5732 89.3028C95.6521 89.224 95.7309 89.1452 95.8491 89.1058C96.1643 89.027 96.2825 88.83 96.2825 88.5147C96.2825 84.8895 96.2825 81.2249 96.2825 77.5997C96.2825 77.2844 96.2037 77.0874 95.8491 77.048C95.7703 77.048 95.6521 76.9298 95.5732 76.851C95.5732 76.8116 95.6126 76.7722 95.6126 76.7328C97.5435 76.7328 99.4743 76.7328 101.405 76.7328C101.405 76.7722 101.445 76.8116 101.445 76.851C101.208 76.9692 101.011 77.0874 100.656 77.2844C102.627 79.4517 104.518 81.5795 106.449 83.7074C106.488 83.668 106.528 83.668 106.567 83.6286C106.567 83.4709 106.607 83.3133 106.607 83.1951C106.607 81.3825 106.607 79.6093 106.607 77.7967C106.607 77.4026 106.607 77.0874 106.173 76.9298C106.134 76.9298 106.134 76.8116 106.094 76.6934C107.592 76.6934 109.05 76.6934 110.508 76.6934C110.547 76.7328 110.547 76.7722 110.586 76.7722C110.468 76.851 110.389 76.9692 110.271 77.0086C109.995 77.0874 109.917 77.245 109.917 77.5209C109.917 81.1855 109.917 84.8501 109.917 88.5147C109.917 88.7906 109.995 88.9482 110.271 89.027C110.389 89.0664 110.468 89.1846 110.586 89.224C110.586 89.2634 110.547 89.3028 110.547 89.3422C109.01 89.3422 107.513 89.3422 105.976 89.3422C105.976 89.3028 105.937 89.2634 105.937 89.224C106.134 89.1058 106.291 88.9876 106.607 88.83C104.242 86.2687 101.957 83.7468 99.5531 81.1461C99.5531 81.5795 99.5531 81.8554 99.5531 82.1706C99.5531 84.2196 99.5531 86.2687 99.5531 88.3177C99.5531 88.7118 99.5925 89.027 100.065 89.1058C100.105 89.1452 100.184 89.2634 100.302 89.421Z" fill="black"/>
<path d="M63.6168 84.2587C63.6168 85.7561 63.6168 87.1746 63.6168 88.6326C63.6168 88.7902 63.8138 88.9084 63.9714 89.066C64.0502 89.1449 64.1684 89.2237 64.2867 89.2631C64.2867 89.3025 64.2472 89.3419 64.2472 89.3813C62.5923 89.3813 60.9373 89.3813 59.2823 89.3813C59.2429 89.3419 59.2429 89.3025 59.2035 89.2631C59.3217 89.1843 59.4005 89.066 59.5187 89.066C59.7945 88.9872 59.8733 88.8296 59.8733 88.5538C59.8733 84.8892 59.8733 81.2245 59.8733 77.5599C59.8733 77.2447 59.7551 77.0871 59.4399 77.0477C59.3217 77.0477 59.2429 76.9294 59.1641 76.8506C59.1641 76.8112 59.2035 76.7718 59.2035 76.7324C60.8585 76.7324 62.5134 76.7324 64.1684 76.7324C64.2078 76.7718 64.2078 76.8112 64.2472 76.8506C64.129 76.9294 64.0108 77.0083 63.932 77.0871C63.8138 77.2053 63.5774 77.3235 63.5774 77.4417C63.538 78.6632 63.5774 79.9242 63.5774 81.2245C65.6658 81.2245 67.6754 81.2245 69.8033 81.2245C69.8033 80.9487 69.8033 80.7123 69.8033 80.4759C69.8033 79.5696 69.8033 78.6632 69.8033 77.7175C69.8033 77.3629 69.7639 77.0871 69.3304 77.0477C69.2516 77.0477 69.1728 76.9294 69.1334 76.7718C70.7884 76.7718 72.4434 76.7718 74.2166 76.7718C74.059 76.9294 73.9802 77.0477 73.9014 77.0871C73.5861 77.1659 73.5073 77.3235 73.5073 77.5993C73.5073 81.2639 73.5073 84.9286 73.5073 88.5932C73.5073 88.7508 73.7437 88.9478 73.862 89.1055C73.9408 89.1843 74.059 89.2631 74.1772 89.3419C74.1772 89.3813 74.1378 89.4207 74.1378 89.4601C72.4828 89.4601 70.8278 89.4601 69.1728 89.4601C69.094 89.3813 69.0546 89.3025 68.9758 89.2237C69.094 89.2237 69.2122 89.1843 69.291 89.1843C69.7245 89.1449 69.7639 88.869 69.7639 88.475C69.7639 87.0958 69.7639 85.7561 69.7639 84.3375C67.7543 84.2587 65.7052 84.2587 63.6168 84.2587Z" fill="black"/>
<path d="M137.619 84.259C137.619 85.0077 137.619 85.717 137.619 86.4656C137.816 86.4656 137.973 86.4656 138.131 86.4656C140.416 86.4656 142.702 86.4656 144.987 86.4656C145.381 86.4656 145.697 86.4262 145.775 85.914C145.775 85.8352 145.933 85.7564 146.091 85.5988C146.091 87.0961 146.091 88.4753 146.091 89.8939C145.973 89.8544 145.815 89.8544 145.815 89.815C145.697 89.3816 145.342 89.4604 145.027 89.4604C141.323 89.4604 137.579 89.4604 133.875 89.4604C133.678 89.4604 133.481 89.421 133.166 89.421C133.324 89.2634 133.363 89.1452 133.442 89.1452C133.915 89.1057 133.915 88.7511 133.915 88.3965C133.915 84.8895 133.915 81.3825 133.915 77.8755C133.915 77.4814 133.954 77.0874 133.402 77.048C133.363 77.048 133.284 76.9298 133.205 76.7721C133.481 76.7327 133.678 76.7327 133.875 76.7327C137.579 76.7327 141.244 76.7327 144.948 76.7327C145.342 76.7327 145.736 76.7721 145.815 76.2205C145.815 76.1417 145.973 76.1022 146.091 76.0234C146.091 77.5208 146.091 78.9 146.091 80.2791C146.051 80.3185 146.012 80.3185 146.012 80.3579C145.933 80.2397 145.854 80.1609 145.736 80.0427C145.618 79.9245 145.46 79.6881 145.342 79.6881C142.82 79.6881 140.259 79.6881 137.737 79.6881C137.737 79.6881 137.698 79.6881 137.658 79.7275C137.658 80.3185 137.658 80.949 137.658 81.6189C138.328 81.6189 138.998 81.6189 139.707 81.6189C140.416 81.6189 141.086 81.6189 141.796 81.6189C142.229 81.6189 142.623 81.6189 142.86 81.146C142.899 81.1066 143.017 81.0672 143.135 81.0278C143.135 82.3282 143.135 83.5497 143.135 84.9289C142.978 84.8107 142.899 84.7713 142.781 84.6924C142.623 84.5742 142.426 84.3378 142.268 84.3378C140.732 84.259 139.195 84.259 137.619 84.259Z" fill="black"/>
<path d="M96.715 12.7004C96.715 12.661 96.715 12.6216 96.715 12.6216C97.3849 12.5034 97.3455 11.9911 97.3061 11.4789C97.3061 10.3361 97.3061 9.15399 97.3061 7.97185C95.3359 7.97185 93.3656 7.97185 91.356 7.97185C91.356 8.87816 91.356 9.74505 91.356 10.612C91.356 10.9272 91.356 11.2818 91.356 11.5971C91.356 12.0305 91.2772 12.5034 91.9077 12.5822C91.9077 12.5822 91.9471 12.6216 91.9471 12.661C91.9471 12.7004 91.9471 12.7398 91.9471 12.8186C90.3709 12.8186 88.7947 12.8186 87.2185 12.8186C87.1397 12.7398 87.1003 12.661 87.0215 12.6216C87.1397 12.6216 87.2579 12.5822 87.3367 12.5822C87.7702 12.5428 87.8096 12.2669 87.8096 11.8729C87.8096 8.83875 87.8096 5.8046 87.8096 2.77044C87.8096 2.49461 87.8096 2.21878 87.8096 1.98235C87.849 1.5489 87.849 1.11546 87.2185 1.07605C87.1791 1.07605 87.1791 0.957837 87.1003 0.839623C88.7553 0.800219 90.3315 0.800219 91.9865 0.839623C91.9077 1.03665 91.9077 1.07605 91.8683 1.07605C91.3166 1.15486 91.2378 1.5095 91.2772 1.98235C91.3166 3.00687 91.2772 4.0708 91.2772 5.13472C93.2474 5.13472 95.2176 5.13472 97.1879 5.13472C97.1879 3.91318 97.1879 2.69164 97.1879 1.50951C97.1879 1.39129 96.9908 1.27307 96.8726 1.15486C96.7938 1.07605 96.6756 1.03664 96.4786 0.957832C97.0696 0.682 101.128 0.760809 101.325 0.957832C101.325 0.997237 101.325 1.03665 101.286 1.03665C100.774 1.11546 100.695 1.4307 100.695 1.90355C100.734 5.17413 100.695 8.44471 100.695 11.7153C100.695 12.1881 100.695 12.5822 101.286 12.6216C101.325 12.6216 101.325 12.7004 101.325 12.7398C101.128 12.8974 97.0302 12.8974 96.715 12.7004Z" fill="black"/>
<path d="M56.2086 88.2772C56.051 88.356 55.9327 88.4348 55.8933 88.3954C55.4993 88.0802 55.1841 88.3954 54.8294 88.5136C51.9135 89.5381 48.9975 89.9322 46.0028 89.0259C43.875 88.3954 42.22 87.095 41.4713 84.8884C40.4468 81.7754 41.9835 78.7413 45.1753 77.3227C47.0667 76.4952 49.0369 76.377 51.0466 76.6134C52.2681 76.771 53.4503 77.1257 54.6718 77.3621C54.987 77.4409 55.3417 77.3621 55.7751 77.3621C55.0658 78.7019 54.3172 80.0022 53.5685 81.4208C53.4503 81.2238 53.4109 81.1055 53.332 80.9873C53.2138 80.7903 53.0956 80.4751 52.8986 80.3963C50.8496 79.5688 48.7611 79.3718 46.6727 80.3175C45.5693 80.8297 44.9389 81.736 44.9389 83.0364C44.9389 84.2973 45.5693 85.1642 46.6333 85.6765C48.1306 86.4252 49.7068 86.4252 51.3224 85.9917C51.9135 85.8341 52.4651 85.6371 53.0168 85.4007C53.2926 85.2824 53.5685 85.1248 53.4109 84.7308C53.3715 84.652 53.4897 84.5337 53.5685 84.3367C54.5536 85.7553 55.3417 87.0162 56.2086 88.2772Z" fill="black"/>
<path d="M92.6966 89.4197C91.0416 89.4197 89.5049 89.4197 87.9287 89.4197C87.9287 89.3803 87.8893 89.3409 87.8893 89.3015C88.0075 89.1832 88.1651 89.065 88.3621 88.9074C88.0863 88.1981 87.8105 87.4888 87.5346 86.7402C85.6432 86.7402 83.7518 86.7402 81.821 86.7402C81.5451 87.4494 81.3087 88.1981 81.0329 88.9862C81.2299 89.1044 81.3481 89.1833 81.5057 89.2621C81.5057 89.3015 81.5057 89.3803 81.5057 89.4197C80.0872 89.5379 78.6686 89.4591 77.1318 89.4985C77.2106 89.3409 77.25 89.2227 77.2895 89.1832C77.4865 88.9074 77.7623 88.671 77.8805 88.3952C79.2203 84.8881 80.56 81.3417 81.8998 77.8347C81.9786 77.6377 82.018 77.4407 82.0574 77.2831C81.8604 77.1648 81.7028 77.0466 81.5451 76.9678C81.5451 76.9284 81.5845 76.889 81.5845 76.8496C83.673 76.8496 85.8008 76.8496 88.0469 76.8496C87.8499 77.0466 87.7317 77.1649 87.5346 77.3225C87.574 77.4407 87.574 77.5983 87.6528 77.7953C89.1108 81.3811 90.5294 84.9275 91.9874 88.474C92.1056 88.7104 92.4208 89.0256 92.6966 89.4197ZM86.8254 84.6911C86.0767 82.8391 85.328 81.0265 84.5793 79.1745C84.5399 79.1745 84.5005 79.1745 84.4611 79.1745C83.7912 80.9871 83.1213 82.7997 82.412 84.6517C83.9094 84.6911 85.328 84.6911 86.8254 84.6911Z" fill="black"/>
<path d="M162.798 85.8336C162.798 87.2128 162.798 88.5919 162.798 90.0499C162.64 89.9711 162.522 89.9317 162.482 89.8529C162.404 89.38 162.049 89.4194 161.734 89.4194C157.833 89.4194 153.932 89.4194 150.031 89.4194C149.834 89.4194 149.676 89.4194 149.479 89.4194C149.439 89.38 149.439 89.3012 149.4 89.2618C149.597 89.1436 149.794 89.0254 150.07 88.8678C150.07 88.7101 150.109 88.5131 150.109 88.3161C150.109 84.7697 150.109 81.2627 150.109 77.7163C150.109 77.3222 150.109 77.007 149.597 76.9676C149.518 76.9676 149.479 76.81 149.321 76.6523C151.094 76.6523 152.749 76.6523 154.365 76.6523C154.404 76.6917 154.404 76.7312 154.444 76.7706C154.326 76.8494 154.207 76.9282 154.129 77.007C154.01 77.1646 153.774 77.3222 153.774 77.4798C153.735 80.4352 153.774 83.3905 153.774 86.4247C153.971 86.4247 154.129 86.4641 154.286 86.4641C156.769 86.4641 159.251 86.4641 161.694 86.4641C162.049 86.4641 162.404 86.4641 162.443 85.9518C162.443 85.873 162.601 85.7942 162.64 85.7154C162.719 85.7942 162.758 85.8336 162.798 85.8336Z" fill="black"/>
</svg>
