<svg width="201" height="91" viewBox="0 0 201 91" fill="none" xmlns="http://www.w3.org/2000/svg">
<path fill-rule="evenodd" clip-rule="evenodd" d="M20.316 18.3926C19.6102 18.3937 19.0392 18.9641 19.0381 19.6693V29.1013C19.0392 29.8064 19.6102 30.3769 20.316 30.378H34.2346C34.5885 30.378 34.8757 30.666 34.8757 31.0185V73.066C34.8768 73.7701 35.4489 74.3416 36.1536 74.3427H47.1953C47.9 74.3415 48.4721 73.7701 48.4732 73.066V31.0185C48.4732 30.666 48.7603 30.378 49.1143 30.378H63.0329C63.7387 30.3769 64.3097 29.8064 64.3108 29.1013V19.6693C64.3095 18.9674 63.7431 18.3981 63.0406 18.3926H20.316Z" fill="black"/>
<path fill-rule="evenodd" clip-rule="evenodd" d="M98.2646 61.1098C97.4679 61.9518 96.3894 62.4697 95.2343 62.5672H83.8561C83.5021 62.5672 83.215 62.2803 83.215 61.9266V53.3049C83.215 52.9512 83.5021 52.6644 83.8561 52.6644H95.2343C96.3894 52.7629 97.4668 53.2819 98.2646 54.1217C100.196 56.0324 100.211 59.1465 98.2986 61.0758C98.2877 61.0867 98.2756 61.0988 98.2646 61.1098ZM83.2029 30.7225C83.2017 30.5528 83.2709 30.3896 83.3925 30.2714C83.512 30.1509 83.6742 30.083 83.8441 30.082H93.9268C95.2222 30.0874 96.4585 30.6218 97.3495 31.5612C99.2784 33.4665 99.297 36.5729 97.39 38.5C97.3769 38.5131 97.3626 38.5274 97.3495 38.5405C96.4574 39.4778 95.2212 40.0121 93.9268 40.0198H83.8441C83.6742 40.0209 83.5109 39.953 83.3925 39.8304C83.272 39.711 83.204 39.549 83.2029 39.3792V30.7225ZM108.853 45.9019L108.708 45.7574C108.481 45.5296 108.456 45.1705 108.649 44.9142C110.82 42.0871 111.978 38.6128 111.937 35.0487C111.973 30.6393 110.204 26.4062 107.038 23.3326C103.969 20.0959 99.6828 18.2925 95.2212 18.3571H70.8833C70.1765 18.3582 69.6044 18.9309 69.6055 19.6382V73.0787C69.6067 73.7828 70.1787 74.3544 70.8833 74.3555H97.0317V74.3281C101.493 74.3916 105.777 72.5871 108.848 69.3526C115.329 62.9482 115.384 52.5067 108.973 46.0322C108.932 45.9906 108.89 45.949 108.848 45.9074L108.853 45.9019Z" fill="black"/>
<path fill-rule="evenodd" clip-rule="evenodd" d="M140.198 62.6094H133.513C133.159 62.6094 132.872 62.3225 132.872 61.9688V30.7385C132.872 30.3837 133.159 30.0979 133.513 30.0979H140.198C149.184 30.0979 156.469 37.3761 156.469 46.3536C156.469 55.3323 149.184 62.6105 140.198 62.6105M142.447 18.3917H120.552C119.846 18.3906 119.274 18.9622 119.274 19.6663V19.6684V73.063C119.276 73.4024 119.41 73.7276 119.649 73.9696C119.889 74.2105 120.216 74.3451 120.557 74.3441C125.419 74.3441 142.456 74.3167 142.456 74.3167C157.913 74.0802 170.252 61.3677 170.015 45.9255C169.784 30.8151 157.579 18.6217 142.456 18.3906" fill="black"/>
<path d="M182.722 66.1739C182.722 67.1685 182.518 68.1535 182.12 69.0724C181.723 69.9914 181.141 70.8263 180.407 71.5297C179.673 72.233 178.801 72.7909 177.842 73.1716C176.883 73.5522 175.855 73.7481 174.817 73.7481C173.779 73.7481 172.751 73.5522 171.792 73.1716C170.833 72.7909 169.961 72.233 169.227 71.5297C168.493 70.8263 167.911 69.9914 167.514 69.0724C167.117 68.1535 166.912 67.1685 166.912 66.1739C166.912 65.1792 167.117 64.1943 167.514 63.2753C167.911 62.3564 168.493 61.5214 169.227 60.8181C169.961 60.1147 170.833 59.5568 171.792 59.1762C172.751 58.7955 173.779 58.5996 174.817 58.5996C175.855 58.5996 176.883 58.7955 177.842 59.1762C178.801 59.5568 179.673 60.1147 180.407 60.8181C181.141 61.5214 181.723 62.3564 182.12 63.2753C182.518 64.1943 182.722 65.1792 182.722 66.1739Z" fill="black"/>
</svg>
