<svg width="201" height="91" viewBox="0 0 201 91" fill="none" xmlns="http://www.w3.org/2000/svg">
<path d="M78.1309 20.6582H123.629V72.4621H78.1309V20.6582Z" fill="#EA1B22"/>
<path d="M127.382 20.6582H172.88V72.4621H127.382V20.6582Z" fill="#024698"/>
<path d="M28.8799 20.6582H74.3578V72.4621H28.8799V20.6582Z" fill="#024698"/>
<path d="M32.373 38.5369H34.3095C34.569 36.9081 34.8286 35.2396 35.8467 33.8293C37.2043 31.9621 39.7198 30.7504 42.4349 30.7504H46.5674V60.9826C46.5674 64.6971 43.5927 64.6375 39.9792 64.6375V66.167H63.5368V64.6375C59.005 64.6375 57.0086 64.6971 57.0086 60.5257V30.7504H61.78C64.4951 30.7504 66.7509 31.6443 68.4279 33.4121C69.9851 35.0807 70.1847 36.4512 70.2446 38.5369H72.1811V28.5059H32.373V38.5369Z" fill="#FFFEFF"/>
<path fill-rule="evenodd" clip-rule="evenodd" d="M82.084 65.6882H104.923C108.975 65.6882 111.95 65.5292 115.424 63.7614C118.977 61.9339 120.974 59.2722 120.974 55.816C120.974 53.6906 120.075 51.446 118.339 49.8172C115.883 47.5727 112.529 46.8377 109.035 46.1028C112.529 45.487 115.244 44.8116 117.56 42.5075C118.977 41.0376 119.816 39.2101 119.816 37.343C119.816 32.1189 114.525 28.3051 108.277 28.0866C106.6 28.0469 104.983 28.0469 103.306 28.0469H82.084V29.5565C86.6557 29.5565 87.634 29.8743 87.634 33.7278V59.2126C87.634 59.4709 87.6939 59.7887 87.6939 60.0469C87.9534 63.662 85.957 64.1785 82.084 64.1785V65.6882ZM98.0751 30.3312C98.714 30.2914 99.4326 30.2318 100.071 30.2318C105.621 30.2318 108.656 33.3703 108.656 37.7005C108.656 40.4615 107.179 43.5006 103.825 44.5931C102.148 45.1096 100.271 45.1096 98.4544 45.1096H98.0751V30.3312ZM99.4926 47.4734C101.229 47.4734 102.587 47.5131 104.204 47.9898C107.937 49.0823 109.355 52.0618 109.355 55.1009C109.355 59.3715 107.358 63.4038 101.309 63.4038C99.1731 63.4038 98.2748 62.6093 98.2149 60.9408C98.135 60.1661 98.0751 59.3716 98.0751 58.5969V47.4734H99.4926Z" fill="#FFFEFF"/>
<path d="M130.197 29.8764C132.932 30.0353 133.511 31.3463 135.228 33.2334V61.3997C135.228 64.6176 133.391 64.8759 130.676 64.8759V66.4053H142.854V64.8759C141.537 64.8759 139.221 64.9752 138.183 63.982C137.284 63.1279 137.284 61.8765 137.284 60.7244V35.6567L162.838 66.4053H164.096V34.2464C164.096 33.6108 164.056 32.9155 164.216 32.2998C164.735 30.0353 166.771 30.0354 168.668 30.0354V28.5059H156.869V30.0354C159.165 30.0354 162.06 30.0353 162.06 33.0744V52.6201L142.156 28.5059H130.197V29.8764Z" fill="#FFFEFF"/>
</svg>
