<svg width="201" height="91" viewBox="0 0 201 91" fill="none" xmlns="http://www.w3.org/2000/svg">
<path fill-rule="evenodd" clip-rule="evenodd" d="M28.8799 4.83594H149.745L172.88 27.9713V86.9295H52.0151L28.8799 63.7943V4.83594ZM57.6041 47.4748H68.7358V32.2638H57.6041V18.3496H42.393V58.2765L57.6041 73.4164V47.4748ZM162.197 59.125C162.197 68.0399 154.862 73.4876 143.471 73.4876H132.835L121.633 62.2852H143.919C144.972 62.3582 145.884 61.5642 145.957 60.5119C146.026 59.5124 145.312 58.6293 144.321 58.4887L140.075 57.5452C130.642 55.4698 122.199 52.8282 122.199 43.9138C122.105 35.7303 128.496 29.4102 140.193 29.4102H148.259L159.343 40.4943H140.17C139.103 40.5425 138.277 41.446 138.324 42.5129C138.362 43.3514 138.936 44.0696 139.745 44.2916L143.99 45.2349C154.768 47.5929 162.126 50.3757 162.126 58.9366L162.197 59.125ZM98.5218 74.879C93.8128 74.8819 89.223 73.3956 85.4091 70.6339V73.4876H72.5801V18.3496H87.2017V33.2307C90.6262 31.1935 94.5371 30.118 98.5218 30.1176C110.895 30.1176 120.926 40.1483 120.926 52.5218C120.926 64.8956 110.895 74.9259 98.5218 74.9259V74.879ZM98.522 44.7383C94.2238 44.7254 90.7288 48.1989 90.7159 52.497C90.7029 56.7953 94.1765 60.2902 98.4747 60.3031C102.773 60.3162 106.268 56.8425 106.281 52.5444V52.497C106.281 48.212 102.807 44.7383 98.522 44.7383Z" fill="black"/>
</svg>
