<svg width="201" height="91" viewBox="0 0 201 91" fill="none" xmlns="http://www.w3.org/2000/svg">
<path d="M30.2119 72.6895V73.5974H32.4802V81.3382H33.5133V73.5974H35.7816V72.6895H30.2119Z" fill="black"/>
<path d="M36.8232 78.5684V72.6895H37.8518V78.4951C37.8518 79.9258 38.49 80.5999 39.9869 80.5999C41.4838 80.5999 42.1312 79.9258 42.1312 78.4951V72.6895H43.1506V78.5684C43.1506 80.5908 42.168 81.5308 39.9869 81.5308C37.8059 81.5308 36.8232 80.5908 36.8232 78.5684Z" fill="black"/>
<path d="M45.9242 76.5736H47.8619C48.8951 76.5736 49.4966 76.3168 49.7262 75.7894C49.9128 75.3291 49.9128 74.8144 49.7262 74.3541C49.4828 73.79 48.8537 73.5699 47.8482 73.5699H45.9242V76.5736ZM47.2099 77.4312H45.9242V81.3291H44.9141V72.6895H48.1007C49.5149 72.6895 50.369 73.1205 50.7409 73.9368C51.0165 74.6463 51.0165 75.433 50.7409 76.1425C50.3828 76.9405 49.6343 77.3807 48.4451 77.4403L51.4848 81.3382H50.2588L47.2099 77.4312Z" fill="black"/>
<path d="M58.235 72.6895V79.8203L53.602 72.6895H52.5V81.3382H53.501V74.2073L58.1156 81.3382H59.2406V72.6895H58.235Z" fill="black"/>
<path d="M61.0312 72.6895V81.3382H66.1831V80.4303H62.0644V77.3945H66.1464V76.4865H62.0644V73.5974H66.1831V72.6895H61.0312Z" fill="black"/>
<path d="M68.6028 76.5736H70.5404C71.569 76.5736 72.1705 76.3168 72.4047 75.7894C72.5079 75.5573 72.5581 75.3051 72.5516 75.0511C72.5578 74.8115 72.5107 74.5734 72.4139 74.3541C72.1705 73.79 71.546 73.5699 70.5404 73.5699H68.6028V76.5736ZM69.9022 77.4403H68.6028V81.3382H67.5742V72.6895H70.7608C72.1705 72.6895 73.0291 73.1205 73.3965 73.9368C73.6721 74.6463 73.6721 75.433 73.3965 76.1425C73.0429 76.9405 72.2945 77.3807 71.1006 77.4403L74.1403 81.3382H72.9235L69.9022 77.4403Z" fill="black"/>
<path d="M77.7262 79.426C77.3997 78.6648 77.243 77.8416 77.2671 77.0138C77.2476 76.1864 77.4041 75.3643 77.7262 74.6017C78.3002 73.3039 79.4894 72.4923 81.3307 72.4923C82.3288 72.4472 83.3063 72.7852 84.0628 73.4369C84.3756 73.7324 84.6258 74.0876 84.7986 74.4815C84.9713 74.8753 85.063 75.2999 85.0683 75.7298H83.9893C83.9755 75.1023 83.7168 74.505 83.2684 74.0652C82.7138 73.6112 82.0102 73.3792 81.294 73.414C79.967 73.414 79.1359 73.9872 78.718 74.909C78.2466 76.257 78.2466 77.7248 78.718 79.0729C79.1496 79.99 79.9807 80.5678 81.294 80.5678C82.0183 80.6112 82.7321 80.3785 83.2914 79.9167C83.5257 79.6974 83.7113 79.4314 83.8362 79.136C83.9612 78.8405 84.0227 78.5222 84.0168 78.2016H85.0959C85.0991 78.645 85.0116 79.0845 84.8386 79.493C84.6657 79.9014 84.4111 80.2703 84.0903 80.577C83.321 81.2195 82.3367 81.5472 81.3353 81.4942C79.4986 81.4942 78.3048 80.6871 77.7308 79.3893" fill="black"/>
<path d="M86.5381 72.6895V81.3382H90.4869V80.4303H87.5666V72.6895H86.5381Z" fill="black"/>
<path d="M95.0688 73.4232L96.7999 78.2107H93.3653L95.0688 73.4232ZM94.3112 72.6895L91.1797 81.3382H92.2587L93.0577 79.082H97.103L97.9157 81.3382H98.981L95.854 72.6895H94.3112Z" fill="black"/>
<path d="M99.7991 79.9761C99.6001 79.5082 99.5045 79.003 99.519 78.4949H100.635C100.624 78.8804 100.691 79.2641 100.832 79.623C101.135 80.2833 101.824 80.6502 102.926 80.6502C104.028 80.6502 104.703 80.3063 104.974 79.733C105.065 79.5332 105.111 79.3154 105.107 79.0956C105.109 78.8893 105.068 78.6849 104.988 78.4949C104.657 77.7749 103.61 77.5777 102.448 77.2842C101.287 76.9907 100.267 76.6331 99.8955 75.803C99.7749 75.5203 99.7124 75.2162 99.7119 74.9088C99.7126 74.5749 99.7846 74.2451 99.9231 73.9412C100.313 73.0607 101.369 72.5059 102.77 72.5059C104.17 72.5059 105.158 73.0607 105.589 74.0008C105.773 74.4437 105.86 74.9204 105.846 75.3995H104.776C104.792 75.0388 104.729 74.6791 104.593 74.3447C104.313 73.7211 103.674 73.3634 102.756 73.3634C101.838 73.3634 101.149 73.7073 100.919 74.2576C100.843 74.4307 100.805 74.6186 100.809 74.8079C100.802 74.9936 100.836 75.1786 100.91 75.349C101.204 76.0231 102.224 76.2066 103.385 76.5001C104.547 76.7936 105.654 77.1512 106.058 78.0409C106.189 78.346 106.252 78.6764 106.241 79.0085C106.247 79.3642 106.174 79.7167 106.025 80.0403C105.594 81.0079 104.478 81.5444 102.908 81.5444C101.255 81.5444 100.249 80.9437 99.8175 79.9898" fill="black"/>
<path d="M107.614 79.9761C107.413 79.5086 107.316 79.0033 107.329 78.4949H108.445C108.436 78.8802 108.504 79.2635 108.643 79.623C108.95 80.2833 109.634 80.6502 110.741 80.6502C111.848 80.6502 112.518 80.3063 112.789 79.733C112.88 79.5332 112.926 79.3154 112.922 79.0956C112.922 78.889 112.88 78.6845 112.798 78.4949C112.467 77.7749 111.42 77.5777 110.263 77.2842C109.106 76.9907 108.078 76.6331 107.71 75.803C107.587 75.5211 107.525 75.2164 107.527 74.9088C107.526 74.5753 107.596 74.2454 107.733 73.9412C108.128 73.0607 109.18 72.5059 110.58 72.5059C111.981 72.5059 112.972 73.0607 113.399 74.0008C113.583 74.4437 113.671 74.9204 113.657 75.3995H112.591C112.604 75.039 112.542 74.6798 112.408 74.3447C112.123 73.7211 111.489 73.3634 110.571 73.3634C109.653 73.3634 108.964 73.7073 108.734 74.2576C108.597 74.6084 108.597 74.9982 108.734 75.349C109.028 76.0231 110.048 76.2066 111.214 76.5001C112.38 76.7936 113.482 77.1512 113.886 78.0409C114.018 78.346 114.081 78.6764 114.07 79.0085C114.077 79.3648 114.001 79.7178 113.849 80.0403C113.422 81.0079 112.302 81.5444 110.736 81.5444C109.079 81.5444 108.073 80.9437 107.646 79.9898" fill="black"/>
<path d="M116.462 72.6895H115.434V81.3337H116.462V72.6895Z" fill="black"/>
<path d="M118.381 79.4266C118.057 78.6647 117.9 77.8421 117.922 77.0145C117.902 76.187 118.059 75.3649 118.381 74.6023C118.955 73.3046 120.149 72.4929 121.986 72.4929C122.991 72.4442 123.977 72.7823 124.741 73.4376C125.053 73.733 125.304 74.0882 125.476 74.4821C125.649 74.876 125.741 75.3005 125.746 75.7305H124.667C124.652 75.1024 124.391 74.5052 123.942 74.0658C123.387 73.6119 122.683 73.3798 121.967 73.4146C120.645 73.4146 119.809 73.9879 119.391 74.9096C118.92 76.2576 118.92 77.7254 119.391 79.0735C119.823 79.9906 120.659 80.5684 121.967 80.5684C122.692 80.6127 123.406 80.3799 123.965 79.9173C124.199 79.698 124.385 79.432 124.509 79.1366C124.634 78.8412 124.696 78.5228 124.69 78.2022H125.769C125.775 78.6461 125.689 79.0863 125.516 79.4952C125.343 79.9041 125.086 80.2726 124.764 80.5776C123.994 81.2201 123.01 81.5478 122.009 81.4948C120.172 81.4948 118.978 80.6877 118.404 79.3899" fill="black"/>
<path d="M136.923 72.6895L133.933 79.6736L130.99 72.6895H129.663V81.3382H130.646V74.2349L133.672 81.3382H134.19L137.216 74.2349V81.3382H138.199V72.6895H136.923Z" fill="black"/>
<path d="M146.336 79.059C146.826 77.7394 146.826 76.2881 146.336 74.9685C145.932 74.0514 145.11 73.4506 143.737 73.4506C142.364 73.4506 141.551 74.0514 141.138 74.9685C140.66 76.2903 140.66 77.7372 141.138 79.059C141.551 79.9762 142.373 80.5769 143.737 80.5769C145.1 80.5769 145.932 79.9762 146.336 79.059ZM140.141 79.4488C139.541 77.8839 139.541 76.1528 140.141 74.5879C140.72 73.313 141.895 72.4922 143.737 72.4922C145.578 72.4922 146.763 73.3039 147.327 74.5741C147.952 76.1392 147.952 77.8837 147.327 79.4488C146.753 80.7237 145.587 81.5308 143.737 81.5308C141.886 81.5308 140.72 80.7237 140.141 79.4488Z" fill="black"/>
<path d="M154.761 72.6895L152.001 80.1001L149.242 72.6895H148.153L151.478 81.3382H152.529L155.84 72.6895H154.761Z" fill="black"/>
<path d="M157.911 72.6895H156.883V81.3337H157.911V72.6895Z" fill="black"/>
<path d="M159.684 72.6895V81.3382H164.835V80.4303H160.712V77.3945H164.799V76.4865H160.712V73.5974H164.835V72.6895H159.684Z" fill="black"/>
<path d="M166.015 79.9761C165.816 79.5082 165.72 79.003 165.735 78.4949H166.851C166.84 78.8804 166.907 79.2641 167.048 79.623C167.351 80.2833 168.04 80.6502 169.142 80.6502C170.244 80.6502 170.919 80.3063 171.19 79.733C171.285 79.5342 171.332 79.3159 171.328 79.0956C171.328 78.889 171.286 78.6845 171.204 78.4949C170.873 77.7749 169.826 77.5777 168.664 77.2842C167.503 76.9907 166.483 76.6331 166.116 75.803C165.993 75.5211 165.93 75.2164 165.932 74.9088C165.932 74.5753 166.002 74.2454 166.139 73.9412C166.529 73.0607 167.585 72.5059 168.986 72.5059C170.386 72.5059 171.373 73.0607 171.805 74.0008C171.989 74.4437 172.076 74.9204 172.062 75.3995H170.997C171.011 75.0385 170.946 74.6788 170.809 74.3447C170.529 73.7211 169.89 73.3634 168.972 73.3634C168.054 73.3634 167.365 73.7073 167.135 74.2576C166.998 74.6084 166.998 74.9982 167.135 75.349C167.429 76.0231 168.449 76.2066 169.61 76.5001C170.772 76.7936 171.879 77.1512 172.287 78.0409C172.414 78.3599 172.477 78.701 172.471 79.0443C172.464 79.3876 172.389 79.7262 172.25 80.0403C171.819 81.0079 170.703 81.5444 169.133 81.5444C167.48 81.5444 166.474 80.9437 166.042 79.9898" fill="black"/>
<path d="M28.8799 12.3047V21.866H42.4208V62.3218H53.8495V21.866H67.7302V12.3047H28.8799Z" fill="black"/>
<path d="M159.66 12.3047L147.194 43.2633L134.801 12.3047H121.443V62.3218H132.183V31.0789L144.645 62.3218H149.673L162.071 31.0789V62.3218H172.879V12.3047H159.66Z" fill="black"/>
<path d="M117.623 27.2169L117.495 26.8088C114.253 16.6696 104.78 10.1211 93.3607 10.1211C85.5548 10.1211 78.8601 12.7763 74.0021 17.7977C69.1441 22.8191 66.5957 29.6978 66.5957 37.7229C66.5957 54.5849 77.0693 65.4807 93.2826 65.4807C98.8694 65.5387 104.326 63.7936 108.839 60.5051C112.975 57.4779 115.992 53.1699 117.421 48.2519L117.531 47.8529L112.999 46.5597C111.732 50.8291 109.395 54.4289 106.378 56.7218C102.725 59.4872 98.2567 60.9645 93.6729 60.9224C80.4442 60.9224 71.8945 51.7509 71.8945 37.5991C71.8945 30.8764 73.9883 25.0891 77.9418 20.8748C81.8952 16.6604 87.3777 14.3996 93.7326 14.3996C98.0648 14.3812 102.292 15.7298 105.811 18.253C109.331 20.7763 111.962 24.3452 113.33 28.4505L117.623 27.2169Z" fill="black"/>
<path d="M93.3241 20.4659C99.6744 20.4659 104.519 24.0657 106.277 30.096L106.387 30.4629L111.608 28.9588C110.336 25.2346 107.926 22.003 104.717 19.7192C101.509 17.4354 97.6636 16.2146 93.7236 16.2286C87.8554 16.2286 82.8367 18.2785 79.2047 22.1489C75.5726 26.0193 73.6533 31.3617 73.6533 37.5938C73.6533 50.6495 81.5097 59.0782 93.6639 59.0782C97.8671 59.1201 101.966 57.7722 105.322 55.2445C108.013 53.1946 110.125 49.9387 111.291 46.0729L106.594 44.6972L106.493 45.0686C104.698 51.4658 99.8948 55.1298 93.3149 55.1298C84.2372 55.1298 78.3736 48.2512 78.3736 37.5801C78.3736 32.4486 79.774 28.1333 82.4143 25.1021C85.0545 22.0709 88.8426 20.4659 93.3149 20.4659" fill="black"/>
</svg>
