<svg width="201" height="91" viewBox="0 0 201 91" fill="none" xmlns="http://www.w3.org/2000/svg">
<path d="M138.203 30.7539L137.374 34.8971H36.0761L28.8799 70.8776H66.226L67.092 66.5471H165.721L172.88 30.7539H138.203ZM58.7709 38.9409C60.9572 38.9409 62.8946 39.3413 64.5831 40.1423C66.2715 40.9216 67.5269 42.0365 68.3495 43.4869L62.8295 47.8052C61.8121 46.0301 60.297 45.1427 58.2838 45.1427C57.0933 45.1427 56.0326 45.4349 55.1018 46.0193C54.171 46.6038 53.4459 47.4266 52.9264 48.4873C52.4069 49.5263 52.1468 50.7168 52.1468 52.0589C52.1468 53.401 52.5692 54.4832 53.4134 55.3058C54.2793 56.1067 55.4158 56.5072 56.8228 56.5072C58.7494 56.5072 60.4377 55.6307 61.8881 53.8773L66.4015 58.1956C65.081 59.8191 63.5765 60.9775 61.8881 61.6702C60.2213 62.3629 58.2838 62.709 56.0758 62.709C53.7596 62.709 51.7139 62.287 49.9388 61.4428C48.1854 60.5769 46.8217 59.3755 45.8476 57.8386C44.8951 56.3017 44.4191 54.5375 44.4191 52.5459C44.4191 49.905 45.0253 47.5562 46.2375 45.4997C47.4714 43.4433 49.1707 41.8417 51.3354 40.6944C53.5217 39.5255 56.0001 38.9409 58.7709 38.9409ZM72.4788 39.4605H80.1417L75.596 62.1894H67.9331L72.4788 39.4605ZM82.0446 39.4605H82.6745C85.6617 39.4605 87.9778 40.1206 89.623 41.4411C91.2898 42.7399 92.1232 44.569 92.1232 46.9285C92.1232 48.9417 91.5822 50.7059 90.4999 52.2212C89.4392 53.7148 87.9347 54.8298 85.9865 55.5658L89.7855 62.1894H81.8301L78.6352 56.5091L79.7979 50.695H81.0186C82.0793 50.695 82.9018 50.4353 83.4863 49.9158C84.0707 49.3746 84.3629 48.628 84.3629 47.6755C84.3629 46.1386 83.4106 45.3701 81.5056 45.3701H80.8629L82.0446 39.4605ZM96.6411 39.4605H104.304L99.7583 62.1894H92.0954L96.6411 39.4605ZM108.068 39.4605H114.989L119.924 51.5393L129.438 39.4605H136.589L132.108 62.1894H124.502L126.516 51.8316L120.119 60.144H116.742L108.068 39.4605ZM140.476 39.4605H159.514L158.345 45.2401H146.841L146.321 47.9026H156.182L155.078 53.4226H145.185L144.6 56.4098H156.247L155.078 62.1894H135.931L140.476 39.4605ZM107.414 42.7273L112.606 55.1068L111.19 62.1894H103.522L107.414 42.7273Z" fill="#FFD600"/>
<path d="M63.3461 16.748H57.7363L58.7488 11.7402H76.4266L75.4141 16.748H69.8043L66.9857 30.8957H60.5276L63.3461 16.748Z" fill="black"/>
<path d="M94.6593 18.0342C94.6593 19.7308 94.2033 21.2176 93.2911 22.4947C92.3972 23.7534 91.1293 24.693 89.4874 25.3132L92.6891 30.8957H85.9847L83.2755 26.0795H81.6884L80.7306 30.8957H74.2725L78.1036 11.7402H86.6961C89.2137 11.7402 91.1658 12.2967 92.5522 13.4095C93.957 14.5041 94.6593 16.0457 94.6593 18.0342ZM88.1191 18.6636C88.1191 17.3683 87.3164 16.7207 85.711 16.7207H83.5492L82.6461 21.2085H85.3005C86.1945 21.2085 86.8877 20.9896 87.3803 20.5517C87.8728 20.0957 88.1191 19.4663 88.1191 18.6636Z" fill="black"/>
<path d="M103.791 31.3335C102.076 31.3335 100.589 31.0508 99.3301 30.4852C98.0896 29.9014 97.1318 29.0805 96.4568 28.0224C95.8001 26.9643 95.4717 25.7237 95.4717 24.3007C95.4717 23.717 95.5447 23.042 95.6906 22.2757L97.7977 11.7402H104.256L102.176 22.1663C102.067 22.6771 102.012 23.1423 102.012 23.5619C102.012 24.4193 102.231 25.0578 102.669 25.4774C103.106 25.897 103.745 26.1068 104.584 26.1068C105.533 26.1068 106.272 25.8058 106.801 25.2038C107.33 24.6018 107.74 23.5893 108.032 22.1663L110.112 11.7402H116.461L114.299 22.5494C113.715 25.4501 112.547 27.6393 110.796 29.117C109.045 30.5947 106.71 31.3335 103.791 31.3335Z" fill="black"/>
<path d="M123.896 16.6112L123.458 18.8551H131.558L130.628 23.5072H122.5L122.008 26.0247H131.613L130.628 30.8957H114.701L118.532 11.7402H134.103L133.118 16.6112H123.896Z" fill="black"/>
<path d="M85.1579 70.7773L82.8772 82.1808H79.7169L76.4424 76.87L75.3836 82.1808H71.6367L73.9174 70.7773H77.0778L80.3522 76.0881L81.4111 70.7773H85.1579Z" fill="black"/>
<path d="M90.2197 73.6771L89.9591 75.0129H94.7811L94.2272 77.7823H89.3889L89.0957 79.281H94.8137L94.2272 82.1808H84.7461L87.0268 70.7773H96.2961L95.7097 73.6771H90.2197Z" fill="black"/>
<path d="M99.7087 73.7585H96.3691L96.9719 70.7773H107.496L106.893 73.7585H103.553L101.875 82.1808H98.0308L99.7087 73.7585Z" fill="black"/>
<path d="M127.168 70.7773L121.239 82.1808H117.117L116.465 76.1695L113.338 82.1808H109.216L107.848 70.7773H111.643L112.376 77.2773L115.765 70.7773H119.3L119.952 77.375L123.389 70.7773H127.168Z" fill="black"/>
<path d="M131.684 82.4423C130.521 82.4423 129.501 82.2305 128.621 81.807C127.752 81.3726 127.079 80.7698 126.601 79.9987C126.134 79.2276 125.9 78.3425 125.9 77.3433C125.9 76.0184 126.204 74.84 126.813 73.8083C127.432 72.7657 128.284 71.9566 129.37 71.381C130.467 70.8054 131.705 70.5176 133.085 70.5176C134.247 70.5176 135.262 70.7348 136.131 71.1692C137.011 71.5928 137.684 72.1901 138.151 72.9612C138.629 73.7323 138.868 74.6174 138.868 75.6165C138.868 76.9415 138.558 78.1253 137.939 79.1679C137.331 80.1996 136.478 81.0033 135.382 81.5789C134.295 82.1545 133.063 82.4423 131.684 82.4423ZM132.009 79.3308C132.618 79.3308 133.144 79.1733 133.59 78.8584C134.046 78.5434 134.393 78.1199 134.632 77.5877C134.871 77.0556 134.991 76.4745 134.991 75.8446C134.991 75.1713 134.79 74.6337 134.388 74.2318C133.997 73.83 133.454 73.6291 132.759 73.6291C132.151 73.6291 131.618 73.7866 131.162 74.1015C130.717 74.4165 130.375 74.84 130.136 75.3722C129.897 75.9043 129.778 76.4854 129.778 77.1153C129.778 77.7886 129.973 78.3262 130.364 78.728C130.766 79.1299 131.314 79.3308 132.009 79.3308Z" fill="black"/>
<path d="M151.203 74.5242C151.203 75.5342 150.931 76.4193 150.388 77.1796C149.856 77.9289 149.101 78.4882 148.124 78.8575L150.03 82.1808H146.039L144.426 79.3136H143.481L142.911 82.1808H139.066L141.347 70.7773H146.462C147.961 70.7773 149.123 71.1086 149.949 71.7711C150.785 72.4227 151.203 73.3404 151.203 74.5242ZM147.309 74.8989C147.309 74.1278 146.832 73.7422 145.876 73.7422H144.589L144.051 76.4139H145.632C146.164 76.4139 146.576 76.2836 146.87 76.0229C147.163 75.7514 147.309 75.3767 147.309 74.8989Z" fill="black"/>
<path d="M159.246 75.974L162.961 82.1808H158.676L156.363 78.4665L155.288 79.4602L154.75 82.1808H150.971L153.251 70.7773H157.031L156.216 74.8174L160.55 70.7773H164.964L159.246 75.974Z" fill="black"/>
</svg>
