<svg width="201" height="91" viewBox="0 0 201 91" fill="none" xmlns="http://www.w3.org/2000/svg">
<path d="M87.6206 59.0081L87.3292 56.573C87.3027 56.3348 87.2232 56.176 87.0907 56.0701C86.9583 55.9907 86.8258 55.9378 86.5344 55.9907C86.4019 56.0172 86.19 56.0436 85.978 56.0436C85.7396 56.0701 85.5541 56.0701 85.3952 56.0701C85.1037 56.0701 84.7593 56.0172 84.6268 55.8319C84.5474 55.6995 84.4414 55.4349 84.4414 54.8261V37.092C84.4414 36.7744 84.3354 36.5626 84.15 36.4303C83.991 36.3244 83.779 36.2715 83.4876 36.2715H80.2554C79.9905 36.2715 79.7785 36.298 79.646 36.3774C79.3281 36.5097 79.3281 36.9597 79.3281 37.1185V55.779C79.3281 56.6789 79.4341 57.42 79.6195 58.0288C79.805 58.6376 80.0964 59.1405 80.4673 59.4846C80.8383 59.8287 81.2886 60.0934 81.8185 60.2522C82.3219 60.3845 82.9313 60.4639 83.5671 60.4639C84.0705 60.4639 84.6268 60.4375 85.2892 60.358C85.9515 60.2786 86.5344 60.1463 87.0113 59.961C87.2762 59.8287 87.4617 59.7228 87.5411 59.6434C87.6471 59.511 87.6736 59.3258 87.6206 59.0081Z" fill="black"/>
<path d="M155.974 47.0693C155.603 45.9841 155.047 45.0842 154.305 44.4225C153.563 43.7607 152.636 43.2578 151.523 42.9402C150.437 42.649 149.112 42.4902 147.602 42.4902C147.284 42.4902 146.913 42.4902 146.463 42.5167C146.012 42.5432 145.588 42.5696 145.138 42.5961C144.688 42.6226 144.264 42.649 143.866 42.702C143.469 42.7285 143.151 42.7814 142.939 42.8079C142.065 42.9931 141.482 43.3108 141.191 43.7872C140.926 44.2372 140.767 44.846 140.767 45.6135V59.3244C140.767 59.642 140.846 59.8537 141.032 59.9861C141.19 60.092 141.402 60.1449 141.667 60.1449H144.953C145.324 60.1449 145.562 60.092 145.668 59.9596C145.8 59.8273 145.853 59.642 145.853 59.3244V46.9105C146.224 46.8576 146.569 46.8046 146.887 46.8046C147.284 46.8046 147.575 46.7782 147.787 46.7782C148.503 46.7782 149.112 46.8576 149.589 47.0164C150.039 47.1752 150.41 47.4134 150.675 47.731C150.94 48.0487 151.126 48.4457 151.232 48.9221C151.338 49.425 151.391 50.0074 151.391 50.6955V59.3244C151.391 59.642 151.47 59.8537 151.655 59.9861C151.814 60.092 152.026 60.1449 152.291 60.1449H155.603C155.974 60.1449 156.186 60.092 156.318 59.9596C156.451 59.8273 156.504 59.642 156.504 59.3244V50.9867C156.53 49.478 156.345 48.1545 155.974 47.0693Z" fill="black"/>
<path d="M184.11 42.8885C184.031 42.7032 183.845 42.5974 183.528 42.5444C182.203 42.3592 180.799 42.4386 179.395 42.8091C178.653 42.9944 177.937 43.2326 177.249 43.4973C177.249 43.3914 177.249 43.2856 177.249 43.2062C177.249 42.9679 177.063 42.7562 176.745 42.6503L173.566 41.6974C173.301 41.6445 173.089 41.671 172.904 41.8033C172.718 41.9357 172.639 42.1739 172.639 42.4915V59.3256C172.639 59.6432 172.718 59.855 172.904 59.9873C173.063 60.0932 173.248 60.1462 173.539 60.1462H176.798C177.169 60.1462 177.381 60.0932 177.513 60.0138C177.672 59.9079 177.725 59.6962 177.725 59.3521V48.394C178.017 48.1823 178.335 47.9705 178.679 47.7852C179.421 47.4147 180.136 47.1765 180.825 47.0971C181.541 47.0177 182.256 47.0441 182.998 47.15C183.316 47.1765 183.528 47.15 183.66 47.1235C183.978 47.0177 183.978 46.6206 183.978 46.4883L184.163 43.3385C184.19 43.1532 184.163 43.0209 184.11 42.8885Z" fill="black"/>
<path d="M66.1866 49.8485C66.2661 48.8957 66.584 48.1016 67.1404 47.4928C67.6968 46.884 68.4121 46.5664 69.2864 46.5664C69.8692 46.5664 70.3196 46.6458 70.6905 46.8311C71.0614 46.9899 71.3529 47.2281 71.5648 47.5193C71.7768 47.8105 71.9357 48.1545 72.0417 48.5516C72.1477 48.9486 72.1742 49.3986 72.1742 49.875L66.1866 49.8485ZM76.2012 52.3631C76.6781 51.9131 76.9165 51.119 76.9165 49.928C76.9165 47.5458 76.2542 45.693 74.9825 44.4225C73.7108 43.152 71.7503 42.4902 69.2069 42.4902C67.9617 42.4902 66.849 42.702 65.8422 43.099C64.8355 43.496 63.9877 44.1048 63.2723 44.8989C62.557 45.693 62.0006 46.6458 61.6297 47.784C61.2588 48.8957 61.0469 50.1926 61.0469 51.622C61.0469 54.6659 61.7357 56.9422 63.1399 58.3715C64.5175 59.8008 66.6635 60.5155 69.4983 60.5155C70.3991 60.5155 71.4059 60.4096 72.4656 60.1714C73.5253 59.9331 74.4791 59.5626 75.2739 59.0332C75.4859 58.9009 75.6183 58.7685 75.6978 58.6097C75.7773 58.4509 75.7773 58.2127 75.6448 57.9745L74.6116 55.6717C74.5056 55.4335 74.3731 55.3011 74.2142 55.2482C74.0552 55.1952 73.8698 55.2217 73.5253 55.3276C72.9955 55.5658 72.3861 55.7511 71.7768 55.8834C70.6376 56.1481 69.4453 56.1746 68.5181 55.9364C68.0942 55.8305 67.7233 55.6717 67.4053 55.407C67.0874 55.1688 66.849 54.8247 66.6635 54.4012C66.5046 54.0306 66.3986 53.5806 66.3721 53.0248H74.3202C75.0885 53.0513 75.7243 52.813 76.2012 52.3631Z" fill="black"/>
<path d="M93.6085 49.8485C93.688 48.8957 94.0059 48.1016 94.5623 47.4928C95.1186 46.884 95.834 46.5664 96.7082 46.5664C97.2911 46.5664 97.7415 46.6458 98.1124 46.8311C98.4833 46.9899 98.7747 47.2281 98.9867 47.5193C99.1986 47.8105 99.3576 48.1545 99.4636 48.5516C99.5696 48.9486 99.5961 49.3986 99.5961 49.875L93.6085 49.8485ZM103.623 52.3631C104.1 51.9131 104.338 51.119 104.338 49.928C104.338 47.5458 103.676 45.693 102.404 44.4225C101.133 43.152 99.1722 42.4902 96.6288 42.4902C95.3836 42.4902 94.2443 42.702 93.2641 43.099C92.2573 43.496 91.4095 44.1048 90.6942 44.8989C89.9789 45.693 89.4225 46.6458 89.0516 47.784C88.6807 48.8957 88.4688 50.1926 88.4688 51.622C88.4688 54.6659 89.1576 56.9422 90.5617 58.3715C91.9394 59.8008 94.0854 60.5155 96.9202 60.5155C97.821 60.5155 98.8277 60.4096 99.8875 60.1714C100.947 59.9331 101.901 59.5626 102.722 59.0332C102.934 58.9009 103.067 58.7685 103.146 58.6097C103.226 58.4509 103.226 58.2127 103.093 57.9745L102.06 55.6717C101.954 55.4335 101.822 55.3011 101.663 55.2482C101.504 55.1952 101.318 55.2217 100.974 55.3276C100.444 55.5658 99.8345 55.7511 99.2251 55.8834C98.0859 56.1481 96.8937 56.1746 95.9664 55.9364C95.5425 55.8305 95.1716 55.6717 94.8537 55.407C94.5358 55.1688 94.2973 54.8247 94.1119 54.4012C93.9529 54.0306 93.8469 53.5806 93.8204 53.0248H101.769C102.51 53.0513 103.146 52.813 103.623 52.3631Z" fill="black"/>
<path d="M127.759 49.8485C127.838 48.8957 128.156 48.1016 128.713 47.4928C129.269 46.884 129.984 46.5664 130.859 46.5664C131.442 46.5664 131.892 46.6458 132.263 46.8311C132.634 46.9899 132.925 47.2281 133.137 47.5193C133.349 47.8105 133.508 48.1545 133.614 48.5516C133.72 48.9486 133.746 49.3986 133.746 49.875C133.746 49.8485 127.759 49.8485 127.759 49.8485ZM137.773 52.3631C138.25 51.9131 138.489 51.119 138.489 49.928C138.489 47.5458 137.826 45.693 136.555 44.4225C135.257 43.152 133.323 42.4902 130.779 42.4902C129.534 42.4902 128.395 42.702 127.414 43.099C126.408 43.496 125.56 44.1048 124.845 44.8989C124.129 45.693 123.573 46.6458 123.202 47.784C122.831 48.8957 122.619 50.1926 122.619 51.622C122.619 54.6659 123.308 56.9422 124.712 58.3715C126.09 59.8008 128.236 60.5155 131.071 60.5155C131.971 60.5155 132.978 60.4096 134.038 60.1714C135.098 59.9331 136.051 59.5626 136.846 59.0332C137.058 58.9009 137.191 58.7685 137.27 58.6097C137.35 58.4509 137.35 58.2127 137.217 57.9745L136.184 55.6717C136.078 55.4335 135.945 55.3011 135.786 55.2482C135.627 55.1952 135.442 55.2217 135.098 55.3276C134.568 55.5658 133.958 55.7511 133.349 55.8834C132.21 56.1481 131.018 56.1746 130.09 55.9364C129.666 55.8305 129.296 55.6717 128.978 55.407C128.66 55.1688 128.421 54.8247 128.236 54.4012C128.077 54.0306 127.971 53.5806 127.944 53.0248H135.892C136.661 53.0513 137.297 52.813 137.773 52.3631Z" fill="black"/>
<path d="M195.662 53.4218C195.556 54.0041 195.344 54.507 195.079 54.9305C194.814 55.354 194.469 55.6981 194.046 55.9628C193.622 56.201 193.118 56.3334 192.535 56.3334C191.396 56.3334 190.548 55.9099 190.071 55.0894C189.568 54.2688 189.33 53.0513 189.33 51.4367C189.33 49.9809 189.595 48.7898 190.151 47.9428C190.681 47.0693 191.529 46.6458 192.668 46.6458C193.251 46.6458 193.754 46.7782 194.178 47.0164C194.575 47.2546 194.92 47.5987 195.158 48.0222C195.397 48.4457 195.609 48.9486 195.688 49.5574C195.794 50.1662 195.847 50.8279 195.847 51.5425C195.847 52.2043 195.794 52.8395 195.662 53.4218ZM198.814 44.8724C197.41 43.2843 195.317 42.4902 192.588 42.4902C191.317 42.4902 190.151 42.702 189.118 43.1255C188.111 43.549 187.21 44.1313 186.521 44.8989C185.806 45.6665 185.25 46.6194 184.879 47.7575C184.508 48.8692 184.296 50.1397 184.296 51.5161C184.296 54.3218 184.958 56.5451 186.256 58.1068C187.581 59.6949 189.674 60.489 192.509 60.489C195.344 60.489 197.437 59.6949 198.814 58.1068C200.192 56.5451 200.881 54.2953 200.881 51.4367C200.881 48.578 200.192 46.4605 198.814 44.8724Z" fill="black"/>
<path d="M61.975 37.5154C61.8425 37.383 61.6305 37.3301 61.2861 37.3301H44.9131C44.6217 37.3301 44.4097 37.383 44.2773 37.5154C44.1448 37.6477 44.0918 37.8859 44.0918 38.23V41.0622C44.0918 41.618 44.4097 41.9356 44.9396 41.9356H52.1194L50.3708 43.2061V59.2462C50.3708 59.5638 50.4503 59.802 50.6357 59.9609C50.7947 60.0932 51.0331 60.1461 51.351 60.1461H54.7687C55.1661 60.1461 55.4046 60.0932 55.537 59.9609C55.696 59.8285 55.749 59.5903 55.749 59.2462V41.9356H61.3126C61.869 41.9356 62.1869 41.618 62.1869 41.0622V38.23C62.1604 37.8595 62.1074 37.6477 61.975 37.5154Z" fill="black"/>
<path d="M170.89 59.0631L170.519 56.4162C170.493 55.9927 170.149 55.8074 169.725 55.8868C169.592 55.9133 169.407 55.9398 169.195 55.9398C168.983 55.9662 168.771 55.9927 168.532 55.9927L167.87 56.0456C167.658 56.0721 167.499 56.0721 167.34 56.0721C166.784 56.0721 166.36 55.9662 166.095 55.7545C165.857 55.5692 165.724 55.1986 165.724 54.6692V46.7816H169.009C169.142 46.7816 169.539 46.7816 169.672 46.4904C169.725 46.3581 169.751 46.1728 169.751 45.9346V43.6582C169.751 43.4465 169.725 43.2877 169.645 43.1553C169.486 42.8907 169.142 42.8907 169.009 42.8907H165.724V38.8674C165.724 38.5498 165.645 38.3116 165.459 38.1792C165.327 38.0998 165.194 38.0469 165.035 38.0469C164.956 38.0469 164.876 38.0469 164.77 38.0733L161.83 39.0262C161.565 39.1056 161.353 39.2115 161.22 39.3438C161.061 39.5027 160.955 39.7144 160.929 40.032L160.743 42.8642L158.544 43.3671C158.253 43.4465 158.067 43.5259 157.988 43.6582C157.908 43.7906 157.855 43.9494 157.855 44.2141V45.9346C157.855 46.1463 157.908 46.3316 157.988 46.4639C158.094 46.6492 158.306 46.7551 158.65 46.7551H162.386L160.637 48.0256V55.6486C160.637 57.2102 161.061 58.4278 161.882 59.2483C162.704 60.0689 164.081 60.4924 165.989 60.4924C166.545 60.4924 167.234 60.4659 168.029 60.3865C168.824 60.3336 169.645 60.1747 170.466 59.9365C170.599 59.8836 170.97 59.7512 170.97 59.4601C170.943 59.3542 170.917 59.2219 170.89 59.0631Z" fill="black"/>
<path d="M115.492 56.2021C116.71 56.2021 117.982 55.9639 119.254 55.461C119.519 55.3551 119.73 55.3022 119.836 55.3551C119.942 55.3816 120.048 55.5404 120.128 55.7786L121.055 58.2402C121.188 58.452 121.241 58.6373 121.214 58.7696C121.188 58.9019 121.055 59.0343 120.817 59.1666C119.174 60.0666 117.134 60.5165 114.723 60.5165C112.127 60.5165 110.166 59.7754 108.842 58.2667C107.517 56.758 106.828 54.5346 106.828 51.5701C106.828 48.6056 107.57 46.541 109.027 44.9C110.484 43.2589 112.498 42.4648 115.015 42.4648C117.028 42.4648 118.75 42.8354 120.207 43.5765C120.472 43.7089 120.631 43.8148 120.684 43.9206C120.711 44.0265 120.684 44.2118 120.552 44.4765L119.625 47.0175C119.519 47.2557 119.386 47.388 119.254 47.4145C119.121 47.441 118.909 47.4145 118.591 47.3086C117.346 46.9116 116.26 46.7263 115.359 46.7263C114.14 46.7263 113.24 47.1763 112.657 48.0762C112.074 48.9762 111.782 50.1408 111.782 51.5436C111.782 53.0259 112.047 54.1905 112.604 54.9846C113.16 55.7786 114.14 56.2021 115.492 56.2021Z" fill="black"/>
<path d="M35.9044 40.1862L10.6295 24.2255C6.28457 21.4728 0.879883 25.0196 0.879883 30.6309V62.6581C0.879883 68.296 6.28457 71.8163 10.656 69.0371L35.9044 52.9706C40.3553 50.1649 40.3288 42.9918 35.9044 40.1862Z" fill="#22BAED"/>
<path d="M28.0623 37.46C27.8769 37.2747 27.5589 37.1953 27.1086 37.1953H4.53603C3.63525 37.1953 2.91992 37.91 2.91992 38.8099L2.94642 42.1714C2.94642 42.9655 3.37031 43.4155 4.13863 43.4155H14.895L11.6893 45.7977V60.2761C11.6893 60.7525 11.8218 61.0701 12.0602 61.2819C12.2986 61.4672 12.6166 61.5466 13.067 61.5466H18.7366C19.4784 61.5466 20.0613 60.9643 20.0613 60.2231L20.1407 43.389H27.1351C27.8239 43.389 28.3803 42.8332 28.3803 42.145V38.4393C28.3538 37.9629 28.2478 37.6453 28.0623 37.46Z" fill="white"/>
</svg>
