<svg width="201" height="92" viewBox="0 0 201 92" fill="none" xmlns="http://www.w3.org/2000/svg">
<path d="M101.222 64.4427C93.1041 57.9774 87.8994 48.0089 87.8994 36.8241C87.8994 25.6392 93.1041 15.6705 101.222 9.20508C109.341 15.6705 114.545 25.6389 114.545 36.8241C114.545 48.0093 109.341 57.9774 101.222 64.4427Z" fill="#C31010"/>
<path d="M87.8994 36.8236V27.4904H68.738C68.5192 27.4904 68.3094 27.4034 68.1547 27.2487C68 27.094 67.9131 26.8842 67.9131 26.6654V2.35819C67.9131 2.1394 68 1.92957 68.1547 1.77486C68.3094 1.62016 68.5192 1.53324 68.738 1.53324H79.2554C87.2365 1.52147 94.9837 4.22698 101.222 9.20454C93.1041 15.6699 87.8994 25.6383 87.8994 36.8236ZM87.8994 36.8236V69.9694C87.8994 70.0973 87.9292 70.2234 87.9863 70.3378C88.0435 70.4522 88.1265 70.5518 88.2287 70.6286C88.3309 70.7055 88.4496 70.7575 88.5754 70.7806C88.7012 70.8037 88.8306 70.7972 88.9535 70.7617C93.4202 69.4857 97.59 67.3379 101.222 64.4422C93.1041 57.9768 87.8994 48.0084 87.8994 36.8236Z" fill="#911010"/>
<path d="M101.223 9.20451C107.251 4.40366 114.883 1.5332 123.19 1.5332H133.707C133.926 1.5332 134.136 1.62012 134.29 1.77483C134.445 1.92953 134.532 2.13936 134.532 2.35815V26.6672C134.532 26.886 134.445 27.0959 134.29 27.2506C134.136 27.4053 133.926 27.4922 133.707 27.4922H114.546V36.8254C114.546 25.6383 109.341 15.6699 101.223 9.20451ZM101.223 64.4422C104.855 67.3379 109.025 69.4857 113.492 70.7617C113.614 70.7972 113.744 70.8036 113.87 70.7806C113.995 70.7575 114.114 70.7054 114.216 70.6286C114.319 70.5517 114.402 70.4522 114.459 70.3378C114.516 70.2234 114.546 70.0972 114.546 69.9693V36.8235C114.546 48.0084 109.341 57.9768 101.223 64.4422Z" fill="#EB1010"/>
<path d="M51.7977 80.9011H47.9354V80.8824C47.9136 80.7599 47.8981 80.6364 47.8889 80.5123C47.8829 80.414 47.8799 80.2969 47.8799 80.1609C47.8799 79.8285 48 79.5235 48.2402 79.246C48.4805 78.9685 48.8834 78.8299 49.4492 78.8301H58.1404C58.1775 79.0934 58.1959 79.3589 58.1955 79.6247C58.1955 79.9459 58.0845 80.2388 57.8626 80.5033C57.6406 80.7678 57.2461 80.9004 56.6791 80.9011H54.3498V91.2187H51.7977V80.9011ZM66.8785 89.2586C67.4702 89.2586 67.8738 89.3941 68.0893 89.6651C68.2993 89.9203 68.4139 90.2406 68.4133 90.5711C68.4133 90.7068 68.4099 90.8208 68.4039 90.9134C68.3979 91.006 68.3882 91.1073 68.3758 91.2187H60.3697V78.8301H68.0803C68.1019 78.9431 68.1173 79.0571 68.1265 79.1717C68.1325 79.2647 68.1358 79.3784 68.1358 79.5141C68.1358 79.9461 68.0248 80.2697 67.8028 80.4849C67.5809 80.7001 67.1684 80.808 66.5654 80.8085H62.9214V83.8593H66.8418V85.8377H62.9214V89.2586H66.8785ZM73.3203 89.1653H76.9261C77.2215 89.1653 77.468 89.2028 77.6655 89.2778C77.8413 89.3377 78 89.4393 78.1279 89.574C78.2377 89.6952 78.317 89.8409 78.3592 89.9989C78.4017 90.1557 78.4233 90.3175 78.4234 90.48C78.4234 90.6032 78.4205 90.7509 78.4147 90.9232C78.408 91.0964 78.399 91.1947 78.3866 91.2194H70.7685V78.8485C70.941 78.8235 71.1107 78.8019 71.2774 78.7836C71.4031 78.768 71.5295 78.7587 71.6561 78.7559C71.845 78.7563 72.0333 78.775 72.2186 78.8118C72.409 78.8484 72.5909 78.9204 72.7548 79.024C72.9247 79.1326 73.0647 79.282 73.162 79.4586C73.2663 79.6436 73.3185 79.8902 73.3188 80.1984L73.3203 89.1653ZM87.2402 89.2579C87.8319 89.2579 88.2357 89.3934 88.4514 89.6644C88.6613 89.9196 88.7757 90.2399 88.775 90.5703C88.775 90.7061 88.7716 90.8201 88.7656 90.9127C88.7596 91.0053 88.7499 91.1065 88.7379 91.2179H80.7313V78.8301H88.4424C88.4638 78.9431 88.4791 79.0571 88.4881 79.1717C88.4941 79.2647 88.4975 79.3784 88.4975 79.5141C88.4975 79.9461 88.3865 80.2697 88.1645 80.4849C87.9425 80.7001 87.5301 80.808 86.9271 80.8085H83.2842V83.8593H87.2046V85.8377H83.2831V89.2586L87.2402 89.2579ZM116.192 86.2251C116.192 86.4721 116.186 86.7188 116.174 86.9653C116.162 87.2118 116.143 87.4644 116.119 87.7231C116.072 88.2303 115.944 88.7266 115.739 89.193C115.537 89.6547 115.234 90.0654 114.852 90.3952C114.464 90.7342 113.98 91.0022 113.401 91.1992C112.821 91.3961 112.137 91.4949 111.348 91.4954C110.546 91.4954 109.868 91.409 109.314 91.2363C108.759 91.0635 108.296 90.8136 107.926 90.4863C107.554 90.1565 107.263 89.7451 107.076 89.2841C106.879 88.8092 106.743 88.2637 106.669 87.6477C106.644 87.4263 106.626 87.1984 106.614 86.9642C106.602 86.7299 106.596 86.4832 106.595 86.224V78.8485C106.768 78.8238 106.937 78.802 107.104 78.7836C107.229 78.768 107.356 78.7587 107.483 78.7559C107.672 78.7563 107.86 78.775 108.045 78.8118C108.232 78.8475 108.411 78.9196 108.57 79.024C108.736 79.1347 108.872 79.2838 108.968 79.4586C109.072 79.6436 109.124 79.8902 109.125 80.1984V86.3923C109.122 86.7946 109.15 87.1965 109.208 87.5945C109.264 87.9522 109.375 88.2573 109.541 88.5098C109.713 88.7674 109.953 88.9722 110.235 89.1012C110.53 89.2429 110.918 89.3139 111.397 89.3141C112.236 89.3141 112.821 89.0705 113.154 88.5833C113.487 88.0961 113.653 87.4151 113.653 86.5404V78.8485C113.826 78.8235 113.996 78.8019 114.162 78.7836C114.288 78.768 114.414 78.7587 114.541 78.7559C114.73 78.7563 114.918 78.775 115.103 78.8118C115.291 78.8472 115.47 78.9193 115.631 79.024C115.796 79.1348 115.933 79.2839 116.028 79.4586C116.133 79.6436 116.185 79.8902 116.185 80.1984L116.192 86.2251ZM128.693 91.2179H126.548L121.279 83.0809V91.2179H118.858V78.8661C118.981 78.8411 119.147 78.8161 119.357 78.7911C119.566 78.7667 119.775 78.7542 119.985 78.7536C120.38 78.7536 120.688 78.8214 120.91 78.9569C121.132 79.0924 121.33 79.302 121.502 79.5857L126.272 87.3703V78.8485C126.445 78.8235 126.605 78.8019 126.753 78.7836C126.869 78.7676 126.987 78.7583 127.104 78.7559C127.29 78.7559 127.476 78.7746 127.659 78.8118C127.841 78.8473 128.014 78.9195 128.168 79.024C128.328 79.1356 128.458 79.2849 128.547 79.4586C128.645 79.6436 128.694 79.8902 128.694 80.1984L128.693 91.2179ZM141.225 84.82C141.231 85.6586 141.112 86.4934 140.874 87.2975C140.639 88.0745 140.282 88.7525 139.802 89.3318C139.321 89.911 138.708 90.3702 137.962 90.7094C137.216 91.0484 136.337 91.2179 135.327 91.2179H131.39V78.9408C132.178 78.8425 132.853 78.7809 133.415 78.7559C133.976 78.7309 134.46 78.7184 134.866 78.7184C136.099 78.7184 137.122 78.8818 137.936 79.2085C138.749 79.5352 139.399 79.9758 139.886 80.5303C140.375 81.0899 140.729 81.7543 140.921 82.4723C141.128 83.2379 141.23 84.0278 141.225 84.8208V84.82ZM138.638 84.8575C138.642 84.3108 138.586 83.7652 138.472 83.2305C138.374 82.7551 138.179 82.3051 137.899 81.9087C137.627 81.5337 137.26 81.2379 136.798 81.0211C136.336 80.8044 135.754 80.6964 135.051 80.6971C134.693 80.6971 134.323 80.7158 133.941 80.753V89.2778H134.958C135.686 89.2778 136.287 89.1698 136.761 88.9538C137.236 88.7378 137.612 88.4359 137.889 88.0482C138.167 87.6597 138.361 87.1944 138.472 86.6522C138.587 86.061 138.642 85.4598 138.637 84.8575H138.638ZM154.598 84.9873C154.602 85.8386 154.496 86.687 154.283 87.5112C154.073 88.3067 153.74 89.0032 153.285 89.6006C152.829 90.1981 152.243 90.6696 151.528 91.015C150.813 91.36 149.951 91.5326 148.941 91.5329C147.941 91.5329 147.09 91.3572 146.389 91.0057C145.687 90.6542 145.114 90.1792 144.669 89.5808C144.225 88.983 143.902 88.2897 143.698 87.5008C143.492 86.6848 143.389 85.8459 143.393 85.0041C143.389 84.1729 143.501 83.3452 143.726 82.545C143.948 81.7686 144.293 81.0875 144.761 80.5018C145.24 79.9083 145.847 79.431 146.537 79.1057C147.251 78.7608 148.102 78.5881 149.088 78.5879C150.063 78.5879 150.899 78.7543 151.594 79.087C152.289 79.4197 152.86 79.8729 153.304 80.4467C153.748 81.0196 154.075 81.6946 154.284 82.4715C154.494 83.2485 154.598 84.0871 154.596 84.9873H154.598ZM151.99 85.0056C151.993 84.4415 151.943 83.8783 151.843 83.3231C151.743 82.7934 151.576 82.328 151.343 81.9271C151.122 81.5411 150.812 81.2143 150.437 80.9746C150.067 80.7406 149.611 80.6235 149.069 80.6233C148.502 80.6233 148.024 80.7404 147.636 80.9746C147.247 81.2092 146.924 81.5364 146.693 81.9271C146.452 82.327 146.28 82.7924 146.175 83.3231C146.068 83.8775 146.015 84.441 146.018 85.0056C146.016 85.5765 146.068 86.1462 146.175 86.7069C146.266 87.2116 146.436 87.6985 146.681 88.1491C146.901 88.5536 147.219 88.8968 147.605 89.1477C147.988 89.3944 148.456 89.5176 149.011 89.5174C149.566 89.5171 150.034 89.3939 150.416 89.1477C150.801 88.8979 151.116 88.5543 151.331 88.1491C151.571 87.6969 151.739 87.2105 151.831 86.7069C151.937 86.1461 151.99 85.5765 151.989 85.0056H151.99ZM103.254 78.8845C102.971 78.8472 102.685 78.8287 102.4 78.8294C101.936 78.8294 101.578 78.9242 101.324 79.114C101.065 79.3111 100.856 79.5662 100.713 79.8587L97.5079 86.4354L94.3033 79.8587C94.1602 79.5663 93.9509 79.3113 93.6921 79.114C93.4386 78.9242 93.08 78.8294 92.6163 78.8294C92.3305 78.8288 92.045 78.8472 91.7617 78.8845C91.5648 78.9074 91.2982 78.9798 91.083 79.0454V91.2183H93.4761V91.2157H93.4798V83.1161L96.2641 88.6418H98.7509L101.535 83.1161V91.2157H101.539V91.2183H103.933V79.0454C103.718 78.9798 103.451 78.9074 103.254 78.8845Z" fill="#243746"/>
</svg>
