<svg width="201" height="91" viewBox="0 0 201 91" fill="none" xmlns="http://www.w3.org/2000/svg">
<path d="M68.2536 72.1688H64.4552V78.9198C64.4552 79.4828 64.6009 79.894 64.8923 80.1535C65.1838 80.413 65.6094 80.5591 66.1694 80.5917C66.864 80.6236 67.5597 80.6182 68.2536 80.5754V84.3731C65.2728 84.6975 63.1717 84.4271 61.9503 83.562C60.7289 82.6969 60.1182 81.1498 60.1182 78.9205V72.1688H57.1934V68.1438H60.1182V64.8653L64.4545 63.5996V68.1452H68.2529L68.2536 72.1688Z" fill="#545454"/>
<path d="M74.4749 77.9771C75.0573 80.0132 76.6372 81.0312 79.2147 81.0312C80.8732 81.0312 82.1282 80.4903 82.9796 79.4083L86.4759 81.3494C84.8169 83.6653 82.3741 84.8231 79.1476 84.8226C76.3682 84.8226 74.1383 84.0112 72.4579 82.3885C70.7774 80.7658 69.937 78.721 69.9365 76.2541C69.9365 73.8089 70.7658 71.7695 72.4243 70.1359C74.0828 68.5023 76.2118 67.6855 78.8112 67.6855C81.2763 67.6855 83.3101 68.5078 84.9124 70.1523C86.5147 71.7967 87.3158 73.8309 87.3158 76.2548C87.3124 76.8321 87.2562 77.4078 87.148 77.975L74.4749 77.9771ZM74.4078 74.7313H82.9789C82.7322 73.6275 82.2225 72.8053 81.4497 72.2646C80.678 71.724 79.7543 71.4399 78.8105 71.4527C77.6448 71.4527 76.681 71.7394 75.9191 72.3129C75.1573 72.8863 74.6535 73.6924 74.4078 74.7313Z" fill="#545454"/>
<path d="M90.3379 84.3725V60.6777H94.6741V84.3725H90.3379Z" fill="#545454"/>
<path d="M102.309 77.9771C102.891 80.0132 104.471 81.0312 107.049 81.0312C108.707 81.0312 109.962 80.4903 110.814 79.4083L114.31 81.3494C112.651 83.6653 110.208 84.8231 106.982 84.8226C104.202 84.8226 101.972 84.0112 100.292 82.3885C98.6114 80.7658 97.771 78.721 97.7705 76.2541C97.7705 73.8089 98.5997 71.7695 100.258 70.1359C101.917 68.5023 104.046 67.6855 106.645 67.6855C109.11 67.6855 111.144 68.5078 112.746 70.1523C114.349 71.7967 115.15 73.8309 115.15 76.2548C115.146 76.8321 115.09 77.4078 114.982 77.975L102.309 77.9771ZM102.242 74.7313H110.813C110.566 73.6275 110.056 72.8053 109.284 72.2646C108.512 71.724 107.588 71.4399 106.644 71.4527C105.479 71.4527 104.515 71.7394 103.753 72.3129C102.991 72.8863 102.487 73.6924 102.241 74.7313H102.242Z" fill="#545454"/>
<path d="M126.713 65.2206C124.337 65.0478 123.149 65.9676 123.149 67.9799V68.1419H126.713V72.1669H123.149V84.3712H118.813V72.1669H116.393V68.1419H118.813V67.9799C118.813 65.6863 119.474 63.9443 120.797 62.7539C122.119 61.5635 124.091 61.0441 126.714 61.1956L126.713 65.2206Z" fill="#545454"/>
<path d="M131.722 77.9766C132.305 80.0127 133.885 81.0307 136.462 81.0307C138.121 81.0307 139.376 80.4897 140.227 79.4078L143.727 81.3553C142.068 83.6712 139.625 84.8289 136.399 84.8284C133.62 84.8284 131.39 84.0171 129.709 82.3944C128.028 80.7717 127.188 78.7269 127.188 76.2599C127.188 73.8148 128.017 71.7754 129.675 70.1418C131.334 68.5082 133.463 67.6914 136.062 67.6914C138.527 67.6914 140.561 68.5136 142.163 70.1581C143.766 71.8026 144.567 73.8353 144.566 76.2564C144.563 76.8337 144.506 77.4094 144.398 77.9766H131.722ZM131.655 74.7307H140.226C139.98 73.627 139.47 72.8048 138.697 72.264C137.925 71.7235 137.002 71.4393 136.058 71.4522C134.892 71.4522 133.928 71.7389 133.167 72.3123C132.405 72.8857 131.901 73.6919 131.655 74.7307Z" fill="#545454"/>
<path d="M124.521 31.6008C124.521 34.6881 123.91 37.7451 122.722 40.5973C121.534 43.4496 119.792 46.0412 117.597 48.2242C115.402 50.4072 112.795 52.1389 109.927 53.3203C107.059 54.5017 103.984 55.1098 100.88 55.1098C94.6097 55.1098 88.5964 52.633 84.1627 48.2242C79.7291 43.8154 77.2383 37.8358 77.2383 31.6008C77.2383 25.3658 79.7291 19.3862 84.1627 14.9774C88.5964 10.5686 94.6097 8.0918 100.88 8.0918C103.984 8.0918 107.059 8.69988 109.927 9.88131C112.795 11.0628 115.402 12.7944 117.597 14.9774C119.792 17.1604 121.534 19.7521 122.722 22.6043C123.91 25.4565 124.521 28.5136 124.521 31.6008Z" fill="url(#paint0_radial_2048_38032)"/>
<path d="M124.521 31.6008C124.521 34.6881 123.91 37.7451 122.722 40.5973C121.534 43.4496 119.792 46.0412 117.597 48.2242C115.402 50.4072 112.795 52.1389 109.927 53.3203C107.059 54.5017 103.984 55.1098 100.88 55.1098C94.6097 55.1098 88.5964 52.633 84.1627 48.2242C79.7291 43.8154 77.2383 37.8358 77.2383 31.6008C77.2383 25.3658 79.7291 19.3862 84.1627 14.9774C88.5964 10.5686 94.6097 8.0918 100.88 8.0918C103.984 8.0918 107.059 8.69988 109.927 9.88131C112.795 11.0628 115.402 12.7944 117.597 14.9774C119.792 17.1604 121.534 19.7521 122.722 22.6043C123.91 25.4565 124.521 28.5136 124.521 31.6008Z" fill="url(#paint1_radial_2048_38032)"/>
<path d="M172.88 31.6008C172.88 34.6881 172.268 37.7451 171.08 40.5973C169.892 43.4496 168.151 46.0412 165.955 48.2242C163.76 50.4072 161.154 52.1389 158.285 53.3203C155.417 54.5017 152.343 55.1098 149.238 55.1098C146.134 55.1098 143.059 54.5017 140.191 53.3203C137.323 52.1389 134.716 50.4072 132.521 48.2242C130.326 46.0412 128.584 43.4496 127.396 40.5973C126.208 37.7451 125.597 34.6881 125.597 31.6008C125.597 28.5136 126.208 25.4565 127.396 22.6043C128.584 19.7521 130.326 17.1604 132.521 14.9774C134.716 12.7944 137.323 11.0628 140.191 9.88131C143.059 8.69988 146.134 8.0918 149.238 8.0918C152.343 8.0918 155.417 8.69988 158.285 9.88131C161.154 11.0628 163.76 12.7944 165.955 14.9774C168.151 17.1604 169.892 19.7521 171.08 22.6043C172.268 25.4565 172.88 28.5136 172.88 31.6008Z" fill="url(#paint2_radial_2048_38032)"/>
<path d="M172.88 31.6008C172.88 34.6881 172.268 37.7451 171.08 40.5973C169.892 43.4496 168.151 46.0412 165.955 48.2242C163.76 50.4072 161.154 52.1389 158.285 53.3203C155.417 54.5017 152.343 55.1098 149.238 55.1098C146.134 55.1098 143.059 54.5017 140.191 53.3203C137.323 52.1389 134.716 50.4072 132.521 48.2242C130.326 46.0412 128.584 43.4496 127.396 40.5973C126.208 37.7451 125.597 34.6881 125.597 31.6008C125.597 28.5136 126.208 25.4565 127.396 22.6043C128.584 19.7521 130.326 17.1604 132.521 14.9774C134.716 12.7944 137.323 11.0628 140.191 9.88131C143.059 8.69988 146.134 8.0918 149.238 8.0918C152.343 8.0918 155.417 8.69988 158.285 9.88131C161.154 11.0628 163.76 12.7944 165.955 14.9774C168.151 17.1604 169.892 19.7521 171.08 22.6043C172.268 25.4565 172.88 28.5136 172.88 31.6008Z" fill="url(#paint3_radial_2048_38032)"/>
<path d="M76.1629 31.6008C76.1629 37.8358 73.6721 43.8154 69.2384 48.2242C64.8048 52.633 58.7915 55.1098 52.5214 55.1098C49.4167 55.1098 46.3425 54.5017 43.4742 53.3203C40.6059 52.1389 37.9996 50.4072 35.8043 48.2242C31.3707 43.8154 28.8799 37.8358 28.8799 31.6008C28.8799 25.3658 31.3707 19.3862 35.8043 14.9774C40.238 10.5686 46.2513 8.0918 52.5214 8.0918C58.7915 8.0918 64.8048 10.5686 69.2384 14.9774C73.6721 19.3862 76.1629 25.3658 76.1629 31.6008Z" fill="url(#paint4_radial_2048_38032)"/>
<path d="M76.1629 31.6008C76.1629 37.8358 73.6721 43.8154 69.2384 48.2242C64.8048 52.633 58.7915 55.1098 52.5214 55.1098C49.4167 55.1098 46.3425 54.5017 43.4742 53.3203C40.6059 52.1389 37.9996 50.4072 35.8043 48.2242C31.3707 43.8154 28.8799 37.8358 28.8799 31.6008C28.8799 25.3658 31.3707 19.3862 35.8043 14.9774C40.238 10.5686 46.2513 8.0918 52.5214 8.0918C58.7915 8.0918 64.8048 10.5686 69.2384 14.9774C73.6721 19.3862 76.1629 25.3658 76.1629 31.6008Z" fill="url(#paint5_radial_2048_38032)"/>
<defs>
<radialGradient id="paint0_radial_2048_38032" cx="0" cy="0" r="1" gradientUnits="userSpaceOnUse" gradientTransform="translate(102.281 23.4743) scale(29.3631 30.0788)">
<stop stop-color="#37FA63"/>
<stop offset="0.308568" stop-color="#30F35E"/>
<stop offset="0.672115" stop-color="#0FCD47" stop-opacity="0.994608"/>
<stop offset="1" stop-color="#22A13E"/>
</radialGradient>
<radialGradient id="paint1_radial_2048_38032" cx="0" cy="0" r="1" gradientUnits="userSpaceOnUse" gradientTransform="translate(101.369 29.0588) rotate(-90) scale(27.7462 22.3178)">
<stop stop-color="#1FA93F" stop-opacity="0"/>
<stop offset="0.737628" stop-color="#12C746" stop-opacity="0"/>
<stop offset="1" stop-color="#1DA33C"/>
</radialGradient>
<radialGradient id="paint2_radial_2048_38032" cx="0" cy="0" r="1" gradientUnits="userSpaceOnUse" gradientTransform="translate(150.64 23.4743) scale(29.3631 30.0788)">
<stop stop-color="#F6245C"/>
<stop offset="0.308568" stop-color="#EF1B57"/>
<stop offset="0.672115" stop-color="#D9084B"/>
<stop offset="1" stop-color="#9C2340"/>
</radialGradient>
<radialGradient id="paint3_radial_2048_38032" cx="0" cy="0" r="1" gradientUnits="userSpaceOnUse" gradientTransform="translate(149.493 31.6183) rotate(-90) scale(42.7111 26.0917)">
<stop stop-color="#1FA93F" stop-opacity="0"/>
<stop offset="0.699305" stop-color="#8E0F2C" stop-opacity="0"/>
<stop offset="1" stop-color="#8C0F2B"/>
</radialGradient>
<radialGradient id="paint4_radial_2048_38032" cx="0" cy="0" r="1" gradientUnits="userSpaceOnUse" gradientTransform="translate(53.923 23.4743) scale(29.3631 30.0788)">
<stop stop-color="#1DA1FF"/>
<stop offset="0.308568" stop-color="#008CEF" stop-opacity="0.901961"/>
<stop offset="0.672115" stop-color="#0078D4" stop-opacity="0.952941"/>
<stop offset="1" stop-color="#0162A9"/>
</radialGradient>
<radialGradient id="paint5_radial_2048_38032" cx="0" cy="0" r="1" gradientUnits="userSpaceOnUse" gradientTransform="translate(49.621 31.6913) rotate(-87.3277) scale(47.5844 26.5233)">
<stop stop-color="#1FA93F" stop-opacity="0"/>
<stop offset="0.737628" stop-color="#025283" stop-opacity="0.132653"/>
<stop offset="1" stop-color="#024975" stop-opacity="0.972549"/>
</radialGradient>
</defs>
</svg>
