<svg width="201" height="92" viewBox="0 0 201 92" fill="none" xmlns="http://www.w3.org/2000/svg">
<path d="M101.222 64.6205C93.1041 58.1551 87.8994 48.1867 87.8994 37.0018C87.8994 25.817 93.1041 15.8482 101.222 9.38281C109.341 15.8482 114.545 25.8166 114.545 37.0018C114.545 48.1871 109.341 58.1551 101.222 64.6205Z" fill="#C31010"/>
<path d="M87.8994 37.0013V27.6681H68.738C68.5192 27.6681 68.3094 27.5812 68.1547 27.4265C68 27.2718 67.9131 27.0619 67.9131 26.8431V2.53593C67.9131 2.31714 68 2.10731 68.1547 1.9526C68.3094 1.79789 68.5192 1.71098 68.738 1.71098H79.2554C87.2365 1.69921 94.9837 4.40471 101.222 9.38228C93.1041 15.8477 87.8994 25.8161 87.8994 37.0013ZM87.8994 37.0013V70.1471C87.8994 70.275 87.9292 70.4011 87.9863 70.5155C88.0435 70.63 88.1265 70.7295 88.2287 70.8064C88.3309 70.8832 88.4496 70.9352 88.5754 70.9583C88.7012 70.9814 88.8306 70.975 88.9535 70.9394C93.4202 69.6635 97.59 67.5156 101.222 64.6199C93.1041 58.1546 87.8994 48.1861 87.8994 37.0013Z" fill="#911010"/>
<path d="M101.223 9.38224C107.251 4.5814 114.883 1.71094 123.19 1.71094H133.707C133.926 1.71094 134.136 1.79785 134.29 1.95256C134.445 2.10727 134.532 2.3171 134.532 2.53589V26.845C134.532 27.0638 134.445 27.2736 134.29 27.4283C134.136 27.583 133.926 27.6699 133.707 27.6699H114.546V37.0031C114.546 25.816 109.341 15.8476 101.223 9.38224ZM101.223 64.6199C104.855 67.5156 109.025 69.6634 113.492 70.9394C113.614 70.9749 113.744 70.9814 113.87 70.9583C113.995 70.9352 114.114 70.8832 114.216 70.8063C114.319 70.7295 114.402 70.6299 114.459 70.5155C114.516 70.4011 114.546 70.275 114.546 70.1471V37.0013C114.546 48.1861 109.341 58.1545 101.223 64.6199Z" fill="#EB1010"/>
<path d="M51.7977 81.0789H47.9354V81.0601C47.9136 80.9376 47.8981 80.8141 47.8889 80.69C47.8829 80.5918 47.8799 80.4747 47.8799 80.3387C47.8799 80.0062 48 79.7012 48.2402 79.4237C48.4805 79.1462 48.8834 79.0076 49.4492 79.0079H58.1404C58.1775 79.2711 58.1959 79.5366 58.1955 79.8024C58.1955 80.1237 58.0845 80.4165 57.8626 80.681C57.6406 80.9455 57.2461 81.0781 56.6791 81.0789H54.3498V91.3964H51.7977V81.0789ZM66.8785 89.4364C67.4702 89.4364 67.8738 89.5719 68.0893 89.8429C68.2993 90.098 68.4139 90.4183 68.4133 90.7488C68.4133 90.8845 68.4099 90.9985 68.4039 91.0912C68.3979 91.1838 68.3882 91.285 68.3758 91.3964H60.3697V79.0079H68.0803C68.1019 79.1208 68.1173 79.2349 68.1265 79.3495C68.1325 79.4425 68.1358 79.5561 68.1358 79.6918C68.1358 80.1238 68.0248 80.4474 67.8028 80.6626C67.5809 80.8779 67.1684 80.9857 66.5654 80.9862H62.9214V84.0371H66.8418V86.0155H62.9214V89.4364H66.8785ZM73.3203 89.343H76.9261C77.2215 89.343 77.468 89.3805 77.6655 89.4555C77.8413 89.5154 78 89.617 78.1279 89.7517C78.2377 89.873 78.317 90.0186 78.3592 90.1766C78.4017 90.3334 78.4233 90.4952 78.4234 90.6577C78.4234 90.7809 78.4205 90.9287 78.4147 91.1009C78.408 91.2741 78.399 91.3724 78.3866 91.3971H70.7685V79.0262C70.941 79.0012 71.1107 78.9796 71.2774 78.9614C71.4031 78.9457 71.5295 78.9365 71.6561 78.9336C71.845 78.934 72.0333 78.9527 72.2186 78.9895C72.409 79.0261 72.5909 79.0981 72.7548 79.2017C72.9247 79.3103 73.0647 79.4597 73.162 79.6363C73.2663 79.8213 73.3185 80.0679 73.3188 80.3762L73.3203 89.343ZM87.2402 89.4356C87.8319 89.4356 88.2357 89.5711 88.4514 89.8421C88.6613 90.0973 88.7757 90.4176 88.775 90.7481C88.775 90.8838 88.7716 90.9978 88.7656 91.0904C88.7596 91.183 88.7499 91.2843 88.7379 91.3956H80.7313V79.0079H88.4424C88.4638 79.1208 88.4791 79.2349 88.4881 79.3495C88.4941 79.4425 88.4975 79.5561 88.4975 79.6918C88.4975 80.1238 88.3865 80.4474 88.1645 80.6626C87.9425 80.8779 87.5301 80.9857 86.9271 80.9862H83.2842V84.0371H87.2046V86.0155H83.2831V89.4364L87.2402 89.4356ZM116.192 86.4028C116.192 86.6498 116.186 86.8965 116.174 87.143C116.162 87.3895 116.143 87.6421 116.119 87.9008C116.072 88.408 115.944 88.9043 115.739 89.3708C115.537 89.8325 115.234 90.2432 114.852 90.5729C114.464 90.9119 113.98 91.1799 113.401 91.3769C112.821 91.5739 112.137 91.6726 111.348 91.6731C110.546 91.6731 109.868 91.5868 109.314 91.414C108.759 91.2413 108.296 90.9913 107.926 90.6641C107.554 90.3342 107.263 89.9228 107.076 89.4619C106.879 88.9869 106.743 88.4414 106.669 87.8255C106.644 87.604 106.626 87.3761 106.614 87.1419C106.602 86.9077 106.596 86.6609 106.595 86.4017V79.0262C106.768 79.0015 106.937 78.9797 107.104 78.9614C107.229 78.9457 107.356 78.9365 107.483 78.9336C107.672 78.934 107.86 78.9527 108.045 78.9895C108.232 79.0252 108.411 79.0973 108.57 79.2017C108.736 79.3124 108.872 79.4615 108.968 79.6363C109.072 79.8213 109.124 80.0679 109.125 80.3762V86.57C109.122 86.9723 109.15 87.3742 109.208 87.7722C109.264 88.13 109.375 88.4351 109.541 88.6876C109.713 88.9452 109.953 89.1499 110.235 89.2789C110.53 89.4206 110.918 89.4916 111.397 89.4919C112.236 89.4919 112.821 89.2483 113.154 88.761C113.487 88.2738 113.653 87.5929 113.653 86.7182V79.0262C113.826 79.0012 113.996 78.9796 114.162 78.9614C114.288 78.9457 114.414 78.9365 114.541 78.9336C114.73 78.934 114.918 78.9527 115.103 78.9895C115.291 79.025 115.47 79.0971 115.631 79.2017C115.796 79.3125 115.933 79.4616 116.028 79.6363C116.133 79.8213 116.185 80.0679 116.185 80.3762L116.192 86.4028ZM128.693 91.3956H126.548L121.279 83.2586V91.3956H118.858V79.0439C118.981 79.0189 119.147 78.9939 119.357 78.9689C119.566 78.9444 119.775 78.9319 119.985 78.9314C120.38 78.9314 120.688 78.9991 120.91 79.1346C121.132 79.2701 121.33 79.4797 121.502 79.7634L126.272 87.548V79.0262C126.445 79.0012 126.605 78.9796 126.753 78.9614C126.869 78.9453 126.987 78.936 127.104 78.9336C127.29 78.9336 127.476 78.9523 127.659 78.9895C127.841 79.0251 128.014 79.0973 128.168 79.2017C128.328 79.3134 128.458 79.4626 128.547 79.6363C128.645 79.8213 128.694 80.0679 128.694 80.3762L128.693 91.3956ZM141.225 84.9978C141.231 85.8364 141.112 86.6711 140.874 87.4752C140.639 88.2522 140.282 88.9303 139.802 89.5095C139.321 90.0887 138.708 90.5479 137.962 90.8872C137.216 91.2261 136.337 91.3956 135.327 91.3956H131.39V79.1185C132.178 79.0202 132.853 78.9586 133.415 78.9336C133.976 78.9086 134.46 78.8961 134.866 78.8961C136.099 78.8961 137.122 79.0595 137.936 79.3862C138.749 79.7129 139.399 80.1535 139.886 80.708C140.375 81.2676 140.729 81.932 140.921 82.65C141.128 83.4156 141.23 84.2055 141.225 84.9985V84.9978ZM138.638 85.0353C138.642 84.4885 138.586 83.943 138.472 83.4082C138.374 82.9328 138.179 82.4828 137.899 82.0864C137.627 81.7115 137.26 81.4156 136.798 81.1989C136.336 80.9821 135.754 80.8741 135.051 80.8749C134.693 80.8749 134.323 80.8935 133.941 80.9307V89.4555H134.958C135.686 89.4555 136.287 89.3475 136.761 89.1315C137.236 88.9155 137.612 88.6137 137.889 88.226C138.167 87.8375 138.361 87.3721 138.472 86.8299C138.587 86.2388 138.642 85.6375 138.637 85.0353H138.638ZM154.598 85.165C154.602 86.0164 154.496 86.8647 154.283 87.689C154.073 88.4844 153.74 89.1809 153.285 89.7784C152.829 90.3758 152.243 90.8473 151.528 91.1928C150.813 91.5378 149.951 91.7104 148.941 91.7106C147.941 91.7106 147.09 91.5349 146.389 91.1834C145.687 90.8319 145.114 90.357 144.669 89.7585C144.225 89.1608 143.902 88.4674 143.698 87.6785C143.492 86.8625 143.389 86.0236 143.393 85.1819C143.389 84.3507 143.501 83.523 143.726 82.7228C143.948 81.9463 144.293 81.2652 144.761 80.6795C145.24 80.086 145.847 79.6087 146.537 79.2835C147.251 78.9385 148.102 78.7659 149.088 78.7656C150.063 78.7656 150.899 78.932 151.594 79.2647C152.289 79.5975 152.86 80.0507 153.304 80.6244C153.748 81.1974 154.075 81.8723 154.284 82.6493C154.494 83.4262 154.598 84.2648 154.596 85.165H154.598ZM151.99 85.1834C151.993 84.6192 151.943 84.056 151.843 83.5009C151.743 82.9711 151.576 82.5058 151.343 82.1048C151.122 81.7188 150.812 81.392 150.437 81.1524C150.067 80.9184 149.611 80.8013 149.069 80.801C148.502 80.801 148.024 80.9181 147.636 81.1524C147.247 81.3869 146.924 81.7142 146.693 82.1048C146.452 82.5048 146.28 82.9701 146.175 83.5009C146.068 84.0552 146.015 84.6187 146.018 85.1834C146.016 85.7542 146.068 86.3239 146.175 86.8847C146.266 87.3893 146.436 87.8762 146.681 88.3268C146.901 88.7313 147.219 89.0745 147.605 89.3254C147.988 89.5721 148.456 89.6954 149.011 89.6951C149.566 89.6949 150.034 89.5716 150.416 89.3254C150.801 89.0757 151.116 88.732 151.331 88.3268C151.571 87.8747 151.739 87.3882 151.831 86.8847C151.937 86.3239 151.99 85.7542 151.989 85.1834H151.99ZM103.254 79.0622C102.971 79.0249 102.685 79.0065 102.4 79.0071C101.936 79.0071 101.578 79.102 101.324 79.2917C101.065 79.4889 100.856 79.7439 100.713 80.0364L97.5079 86.6132L94.3033 80.0364C94.1602 79.7441 93.9509 79.4891 93.6921 79.2917C93.4386 79.102 93.08 79.0071 92.6163 79.0071C92.3305 79.0065 92.045 79.0249 91.7617 79.0622C91.5648 79.0851 91.2982 79.1575 91.083 79.2231V91.396H93.4761V91.3934H93.4798V83.2939L96.2641 88.8195H98.7509L101.535 83.2939V91.3934H101.539V91.396H103.933V79.2231C103.718 79.1575 103.451 79.0851 103.254 79.0622Z" fill="#243746"/>
</svg>
