<svg width="201" height="91" viewBox="0 0 201 91" fill="none" xmlns="http://www.w3.org/2000/svg">
<path d="M78.377 75.9336C85.3831 75.7326 91.7322 72.7692 96.4824 68.0886C100.797 72.8955 107.087 75.9336 114.07 75.9336C121.088 75.9336 127.402 72.8668 131.716 68.0139C136.036 72.8668 142.351 75.9336 149.368 75.9336C162.305 75.9336 172.881 65.4927 172.881 52.7086V18.9336H157.531V52.7086C157.531 57.6591 153.525 61.7137 148.514 61.7137C143.496 61.7137 139.391 57.6591 139.391 52.7086V18.9336H124.042V52.7086C124.042 57.6591 119.937 61.7137 114.919 61.7137C109.907 61.7137 105.901 57.6591 105.901 52.7086V18.9336H90.5519V47.626C90.4415 54.7129 85.2029 60.5938 78.7724 60.7834L56.3238 60.7776C49.6491 60.7776 44.2245 54.8163 44.2245 47.4824C44.2245 40.0968 49.6491 34.0896 56.3238 34.0896H78.8131V18.9336L56.3238 18.9336C41.1895 18.9336 28.8809 31.7234 28.8809 47.4824C28.8809 63.1495 41.1895 75.9336 56.3238 75.9336H78.377Z" fill="#2E7734"/>
<path d="M57.5725 52.0957V44.3138H60.375V42.7804H52.834V44.3138H55.6364V52.0957H57.5725Z" fill="#2E7734"/>
<path d="M77.56 44.3119V42.7785H71.4551V52.0938H77.7344V50.5604H73.397V48.1425H77.2053V46.5747H73.397V44.3119H77.56Z" fill="#2E7734"/>
<path d="M69.6263 52.0957V42.7804H67.696V46.5766H63.6842V42.7804H61.7539V52.09H63.6842V48.1445H67.696V52.0957H69.6263Z" fill="#2E7734"/>
</svg>
