<svg width="201" height="91" viewBox="0 0 201 91" fill="none" xmlns="http://www.w3.org/2000/svg">
<path d="M76.4508 68.8363C76.4508 62.8037 83.4562 59.5877 83.4562 59.5877C82.1637 59.11 81.0497 58.2474 80.2651 57.1169C79.4805 55.9865 79.0633 54.6427 79.0701 53.2678C79.0701 48.4029 83.7399 45.5417 85.3556 44.0824C85.0416 43.9258 79.0269 40.6352 79.0269 31.6006C79.0269 22.5659 85.2792 17.0676 95.6384 17.0676C100.543 17.0676 101.767 17.7944 101.767 17.7944H117.248V22.3261H108.705C108.705 22.3261 111.674 24.696 111.674 31.0878C111.674 37.4795 108.679 46.122 94.6866 46.122C92.5502 46.1042 90.4267 45.791 88.3766 45.1912C88.3766 45.1912 85.2245 47.5267 85.2245 50.3061C85.2245 53.0854 86.5205 54.0161 89.2075 54.0161H105.725C105.725 54.0161 115.998 53.2606 115.998 65.0243C115.998 76.7879 102.539 79.2656 95.2971 79.2656C88.0555 79.2656 76.4508 78.1912 76.4508 68.8363ZM83.6261 68.0866C83.6261 71.6085 85.4794 75.7796 96.2446 75.7796C107.01 75.7796 108.772 71.0584 108.772 66.4836C108.788 65.0306 108.248 63.6263 107.264 62.5553C106.279 61.4844 104.923 60.8271 103.47 60.7167L87.9187 60.3906C86.9208 60.9996 83.6261 64.5661 83.6261 68.0866ZM86.8272 31.6954V31.7499C86.7854 32.392 86.9971 42.5397 95.3058 42.5397C103.986 42.5397 103.786 31.7169 103.786 31.7169C103.786 31.7169 104.429 20.4574 95.2726 20.4574C86.4399 20.4574 86.7595 31.0433 86.8258 31.6954H86.8272ZM59.2042 46.8675V44.0077C59.1934 42.1647 59.7865 40.3686 60.8933 38.8929C61.6053 37.9356 62.5398 37.1653 63.6164 36.6481C64.693 36.1309 65.8795 35.8824 67.0737 35.9239C73.7422 35.9239 73.7767 42.5958 73.7767 42.6029V44.2547H62.5565V47.0685C62.5565 47.0685 62.8042 51.4221 66.9182 51.4221C71.0322 51.4221 72.3382 49.0234 72.3382 49.0234L73.483 50.1725C73.483 50.1725 70.5397 53.5278 66.5826 53.5278C62.6256 53.5278 59.2042 49.8048 59.2042 46.8675ZM62.8042 42.8055H70.3914C70.3914 42.8055 70.9069 37.0601 67.101 37.0601C63.2621 37.0644 62.8027 40.5619 62.8027 42.8055H62.8042ZM31.7469 49.157V37.8099H28.8799V36.8791C29.6891 36.6821 30.4099 36.2226 30.9288 35.5726C31.4477 34.9226 31.7355 34.1191 31.7469 33.2883V31.6149H34.8514V35.901H40.584V37.8041H34.8514V48.4029C34.8514 48.4029 34.7506 51.4322 37.6479 51.3862C39.8078 51.1607 40.26 50.0935 40.26 50.0935L41.1931 51.0989C39.9113 52.3874 38.2136 53.1817 36.4009 53.3411C33.783 53.3411 31.7469 52.2379 31.7469 49.157ZM51.5695 53.2951V52.1733C52.0478 52.1974 52.5164 52.0331 52.8744 51.7158C53.2323 51.3985 53.451 50.9536 53.4832 50.477V40.8765C53.4815 40.497 53.4048 40.1217 53.2575 39.7718C53.1102 39.422 52.8952 39.1046 52.6247 38.8378C52.3543 38.5709 52.0337 38.3599 51.6814 38.2168C51.3291 38.0737 50.952 38.0013 50.5716 38.0038H50.5212C47.6211 38.0038 46.1034 41.2987 46.1034 41.2987V50.7872C46.1034 51.7841 48.2144 52.1776 48.2144 52.1776V53.3037H41.0534V52.2365C43.0434 52.2365 43.2004 50.8002 43.2004 50.8002V30.2604C43.2004 28.7724 40.8172 28.7595 40.8172 28.7595V27.5716H46.1149V38.9877C46.1149 38.9877 47.2136 35.7028 51.8748 35.7028C56.536 35.7028 56.5748 40.8822 56.5748 40.8822V50.4842C56.5748 52.0254 58.5778 52.0871 58.634 52.146C58.6585 52.531 58.6585 52.9172 58.634 53.3023L51.5695 53.2951ZM147.184 38.7363C147.184 23.8888 160.044 24.2695 160.044 24.2695C160.14 24.2592 160.236 24.2549 160.332 24.2565C162.22 24.2565 172.86 24.8871 172.88 38.7895C172.88 53.6901 160.048 53.2017 160.048 53.2017C160.048 53.2017 159.825 53.2218 159.438 53.2218C156.879 53.2218 147.188 52.3212 147.188 38.7349L147.184 38.7363ZM160.022 26.717C158.402 26.717 152.795 26.7787 152.795 38.8038C152.795 50.8289 158.505 50.8935 160.022 50.8935C161.54 50.8935 167.284 50.5675 167.284 38.3356C167.284 27.2226 161.294 26.7127 160.195 26.7127C160.138 26.7087 160.08 26.7087 160.022 26.7127V26.717ZM137.547 52.801V51.1966C137.547 51.1966 140.652 50.974 140.652 48.2018V29.0295C140.652 29.0295 140.495 26.3478 137.063 26.3478V24.7061H145.857L145.903 48.2119C145.958 49.0795 146.356 49.8899 147.009 50.465C147.663 51.0401 148.518 51.3327 149.388 51.2785H149.488V52.8053L137.547 52.801ZM113.903 52.801V51.1966C113.903 51.1966 117.006 50.974 117.006 48.2018V29.0295C117.006 29.0295 116.851 26.3478 113.422 26.3478V24.7061H122.024V29.6658C122.024 29.6658 126.758 24.4705 129.465 24.4605H134.683V31.1337H131.371C131.371 31.1337 130.493 28.0829 127.753 28.0829C125.012 28.0829 122.534 31.4928 122.017 33.2653V48.1903C122.073 49.0635 122.473 49.879 123.131 50.4579C123.789 51.0369 124.65 51.332 125.525 51.2785H125.601V52.8053L113.903 52.801ZM140.414 19.2236V13.2656H145.912V19.2236H140.414Z" fill="#14BAB8"/>
</svg>
