<svg width="201" height="91" viewBox="0 0 201 91" fill="none" xmlns="http://www.w3.org/2000/svg">
<path d="M80.9104 15.1777C80.9104 15.1777 80.9502 34.6423 80.9502 35.1196C81.2583 34.7443 81.4401 34.5276 81.619 34.3067C84.1239 31.2191 87.4538 29.6866 91.3332 29.2249C93.9134 28.919 96.4807 28.9983 98.9615 29.8452C102.795 31.1511 104.876 34.0234 105.704 37.8064C106.172 39.8892 106.425 42.0145 106.458 44.1487C106.54 53.5758 106.487 72.6821 106.476 72.8705H89.8507C89.8507 72.8705 89.8507 55.2414 89.8309 46.8695C89.8189 45.9431 89.7195 45.0198 89.5341 44.1119C89.2501 42.6828 88.577 41.4875 87.059 41.0597C85.4189 40.5966 83.9009 40.8841 82.6315 42.0696C81.5934 43.0397 81.0993 44.2946 80.9147 45.6741C80.8413 46.2727 80.8076 46.8755 80.8139 47.4785C80.8139 55.5998 80.8139 72.8775 80.8139 72.8775H64.4398L64.4043 15.1848L80.9104 15.1777ZM29.8799 41.1376H35.9362C35.9362 41.1376 35.9362 54.7046 35.9731 60.9662C35.9859 62.9307 36.2088 64.8781 36.9529 66.7293C38.9196 71.6227 44.3639 74.7046 50.0254 74.1055C51.7294 73.9256 53.4334 73.7443 55.1374 73.5517C56.8414 73.3591 58.5752 73.1495 60.2849 72.9484V62.4038C58.8649 62.4038 57.5031 62.4194 56.1442 62.4038C53.7771 62.3684 52.2889 60.8713 52.2889 58.5415C52.2889 53.0348 52.2889 41.1334 52.2889 41.1334H60.7251V30.7177H52.1142V19.7851H36.1733V30.7205H29.8799V41.1376ZM125.268 72.8634C126.379 72.8634 126.738 72.5277 126.742 71.4471C126.753 68.2801 126.753 65.1137 126.742 61.9477C126.742 60.911 126.36 60.5498 125.31 60.5498C120.544 60.5442 115.778 60.5442 111.01 60.5498C109.986 60.5498 109.637 60.8912 109.633 61.9067C109.622 65.0991 109.622 68.291 109.633 71.4825C109.633 72.5433 109.979 72.8676 111.053 72.869C113.416 72.8719 122.898 72.8705 125.268 72.8634ZM110.973 30.3027C110.008 30.3027 109.637 30.6568 109.633 31.6199C109.621 34.8368 109.621 38.0538 109.633 41.2708C109.633 42.2792 110.001 42.6318 111.006 42.6318C115.773 42.6318 120.54 42.6318 125.307 42.6318C126.355 42.6318 126.738 42.2707 126.742 41.2368C126.754 38.0699 126.754 34.9029 126.742 31.736C126.742 30.6497 126.37 30.3013 125.274 30.2999C122.928 30.2999 120.583 30.2999 118.238 30.2999C115.817 30.2999 113.394 30.2956 110.973 30.3027ZM110.973 45.4433C109.988 45.4433 109.638 45.7704 109.634 46.7463C109.623 49.9623 109.623 53.1783 109.634 56.3943C109.634 57.4211 109.966 57.7299 111.013 57.7313C115.779 57.7313 120.544 57.7313 125.31 57.7313C126.403 57.7313 126.742 57.3928 126.745 56.2796C126.753 53.1637 126.753 50.0477 126.745 46.9318C126.745 45.7733 126.41 45.4447 125.27 45.4433C122.898 45.439 113.367 45.4376 110.972 45.4433H110.973ZM129.717 64.0609C131.623 67.7023 134.444 70.3961 138.32 71.8252C144.284 74.0248 150.448 74.5417 156.706 73.471C160.621 72.8025 164.185 71.2573 167.204 68.6144C172.64 63.8541 173.452 55.7258 168.997 50.4528C166.751 47.7915 163.789 46.2038 160.438 45.5353C156.836 44.8116 153.173 44.3923 149.536 43.8513C148.167 43.6474 146.77 43.568 145.535 42.8443C144.139 42.0242 144.126 40.5782 145.535 39.7553C145.877 39.5429 146.256 39.395 146.652 39.3191C147.67 39.1604 148.697 39.0216 149.725 38.9636C152.666 38.7978 155.246 39.4777 156.886 42.1956C157.095 42.5426 157.341 42.6205 157.761 42.5469C160.317 42.0922 162.873 41.6829 165.439 41.2523C167.001 40.9917 168.549 40.7184 170.166 40.4394C170.123 40.2992 170.073 40.1615 170.014 40.0272C167.81 35.9794 164.76 32.7898 160.509 30.8664C155.279 28.4983 149.824 28.3 144.292 29.4501C140.275 30.2885 136.624 31.9386 133.686 34.8902C128.524 40.0725 128.726 47.8666 134.128 52.7968C136.288 54.7916 138.973 56.1326 141.868 56.6634C145.854 57.4084 149.86 58.05 153.847 58.7879C154.614 58.915 155.349 59.1928 156.007 59.6051C157.27 60.4549 157.13 61.9208 155.793 62.6332C155.417 62.8387 155.017 62.9971 154.603 63.1049C151.604 63.8399 148.599 63.7337 145.608 63.0737C143.687 62.6488 142.588 61.2552 141.784 59.5938C141.49 58.9862 141.114 58.8856 140.471 58.9862C137.936 59.4111 135.39 59.7666 132.848 60.1504C131.335 60.3799 129.824 60.615 128.182 60.8685C128.737 62.0299 129.2 63.061 129.723 64.0609H129.717Z" fill="url(#paint0_linear_2048_37884)"/>
<path d="M110.973 15.1813C110.007 15.1813 109.637 15.5368 109.633 16.4985C109.621 19.7164 109.621 22.9333 109.633 26.1493C109.633 27.1592 110 27.5104 111.006 27.5119C115.773 27.5119 120.54 27.5119 125.307 27.5119C126.354 27.5119 126.738 27.1521 126.742 26.1168C126.753 22.9517 126.753 19.7853 126.742 16.6175C126.742 15.5311 126.37 15.1827 125.274 15.1799C122.928 15.1799 120.583 15.1799 118.238 15.1799C115.817 15.1799 113.394 15.1742 110.973 15.1813Z" fill="url(#paint1_linear_2048_37884)"/>
<defs>
<linearGradient id="paint0_linear_2048_37884" x1="100.88" y1="15.1777" x2="100.88" y2="74.1792" gradientUnits="userSpaceOnUse">
<stop stop-color="#7294AF"/>
<stop offset="0.49" stop-color="#87A7BF"/>
<stop offset="1" stop-color="#DAE8F2"/>
</linearGradient>
<linearGradient id="paint1_linear_2048_37884" x1="118.187" y1="15.177" x2="118.187" y2="27.5147" gradientUnits="userSpaceOnUse">
<stop stop-color="#2185F5"/>
<stop offset="1" stop-color="#002264"/>
</linearGradient>
</defs>
</svg>
