<svg width="201" height="91" viewBox="0 0 201 91" fill="none" xmlns="http://www.w3.org/2000/svg">
<path fill-rule="evenodd" clip-rule="evenodd" d="M6.87988 6.69734C6.87988 3.28065 9.68645 0.478516 13.1134 0.478516H59.573C63.001 0.478516 65.8055 3.28065 65.8055 6.69734V84.2536C65.8055 87.6774 63.001 90.4785 59.573 90.4785H13.1134C9.68645 90.4785 6.87988 87.6774 6.87988 84.2536V6.69734ZM18.3372 25.2988H52.7169C53.1193 25.2988 53.4534 25.6224 53.4514 26.0172V32.8027C53.4514 33.2026 53.1182 33.5282 52.7158 33.5282H42.9514C41.242 33.5282 39.8596 34.9089 39.8596 36.6152V67.2678C39.8596 67.6697 39.5377 67.9932 39.1343 67.9932H32.3405C31.9381 67.9932 31.6142 67.6697 31.6142 67.2678V36.6162C31.6142 34.9099 30.2379 33.5292 28.5234 33.5292H18.3372C17.9409 33.5292 17.6099 33.2036 17.6099 32.8037V26.0182C17.6099 25.6224 17.9409 25.2988 18.3372 25.2988Z" fill="#EE2E24"/>
<path fill-rule="evenodd" clip-rule="evenodd" d="M71.416 6.69734C71.416 3.28065 74.2216 0.478516 77.6434 0.478516H124.105C127.535 0.478516 130.345 3.28065 130.345 6.69734V84.2536C130.345 87.6774 127.535 90.4785 124.105 90.4785H77.6434C74.2216 90.4785 71.416 87.6774 71.416 84.2536V6.69734ZM100.765 59.7558H113.297C113.706 59.7558 114.021 60.0916 114.021 60.4894V67.2628C114.021 67.6657 113.705 67.9933 113.297 67.9933H97.8885C91.385 67.9933 88.5713 63.8318 88.5713 58.4249V26.0162C88.5713 25.6204 88.8983 25.2969 89.2997 25.2969H96.0864C96.4888 25.2969 96.8117 25.6215 96.8117 26.0162V55.81C96.8117 57.9905 98.5771 59.7558 100.765 59.7558Z" fill="#EE2E24"/>
<path fill-rule="evenodd" clip-rule="evenodd" d="M135.948 6.69734C135.948 3.28065 138.754 0.478516 142.184 0.478516H188.647C192.066 0.478516 194.88 3.28065 194.88 6.69734V84.2536C194.88 87.6774 192.066 90.4785 188.647 90.4785H142.184C138.754 90.4785 135.948 87.6774 135.948 84.2536V6.69734ZM176.977 56.5503L181.781 61.3437C182.034 61.6041 182.045 62.0213 181.818 62.2991C177.973 65.9162 172.782 68.1465 167.074 68.1465C155.177 68.1465 145.535 58.512 145.535 46.6482C145.535 34.7661 155.177 25.1367 167.074 25.1367C172.782 25.1367 177.962 27.363 181.818 30.9913C182.045 31.2803 182.034 31.6883 181.781 31.9508L176.977 36.7512C176.695 37.03 176.207 37.03 175.919 36.7441L175.927 36.7512C173.577 34.6583 170.471 33.3793 167.076 33.3793C159.736 33.3793 153.778 39.3143 153.778 46.6482C153.778 53.9659 159.736 59.9182 167.076 59.9182C170.471 59.9182 173.58 58.6352 175.927 56.5381L175.919 56.5503C176.207 56.2726 176.695 56.2726 176.977 56.5503Z" fill="#EE2E24"/>
<path d="M52.7164 25.2988H18.3367C17.9405 25.2988 17.6094 25.6224 17.6094 26.0182V32.8037C17.6094 33.2036 17.9405 33.5292 18.3367 33.5292H28.5229C30.2374 33.5292 31.6137 34.9099 31.6137 36.6162V67.2678C31.6137 67.6697 31.9376 67.9932 32.34 67.9932H39.1338C39.5372 67.9932 39.8592 67.6697 39.8592 67.2678V36.6152C39.8592 34.9089 41.2416 33.5282 42.951 33.5282H52.7154C53.1177 33.5282 53.4509 33.2026 53.4509 32.8027V26.0172C53.4529 25.6224 53.1188 25.2988 52.7164 25.2988Z" fill="white"/>
<path d="M113.296 59.7558H100.764C98.5761 59.7558 96.8107 57.9905 96.8107 55.81V26.0162C96.8107 25.6215 96.4878 25.2969 96.0854 25.2969H89.2987C88.8973 25.2969 88.5703 25.6204 88.5703 26.0162V58.4249C88.5703 63.8318 91.384 67.9933 97.8875 67.9933H113.296C113.704 67.9933 114.02 67.6657 114.02 67.2628V60.4894C114.02 60.0916 113.705 59.7558 113.296 59.7558Z" fill="white"/>
<path d="M181.781 61.3437L176.977 56.5503C176.695 56.2726 176.207 56.2726 175.919 56.5503L175.927 56.5381C173.58 58.6352 170.471 59.9182 167.076 59.9182C159.736 59.9182 153.778 53.9659 153.778 46.6482C153.778 39.3143 159.736 33.3793 167.076 33.3793C170.471 33.3793 173.577 34.6583 175.927 36.7512L175.919 36.7441C176.207 37.03 176.695 37.03 176.977 36.7512L181.781 31.9508C182.034 31.6883 182.045 31.2803 181.818 30.9913C177.962 27.363 172.782 25.1367 167.074 25.1367C155.177 25.1367 145.535 34.7661 145.535 46.6482C145.535 58.512 155.177 68.1465 167.074 68.1465C172.782 68.1465 177.973 65.9162 181.818 62.2991C182.045 62.0213 182.034 61.6042 181.781 61.3437Z" fill="white"/>
</svg>
