<svg width="201" height="91" viewBox="0 0 201 91" fill="none" xmlns="http://www.w3.org/2000/svg">
<path d="M85.0467 32.0876H93.8697C96.0863 32.0876 97.203 32.7126 98.303 34.546L107.415 48.7335H107.728V32.0876H143.836C138.12 13.8001 121.051 0.529297 100.88 0.529297C80.7092 0.529297 63.6405 13.8001 57.9238 32.0876H85.0467Z" fill="black"/>
<path d="M135.463 38.6289V65.2185H126.505V38.6289H116.255V65.2185H110.276C108.059 65.2185 106.999 64.5935 105.842 62.7602L94.2445 45.3977H94.057V65.2185H85.3486V38.6289H75.1403V65.2185H66.0195V38.6289H56.407C56.056 40.9121 55.8798 43.2188 55.8799 45.5289C55.8799 70.381 76.0278 90.5289 100.88 90.5289C125.732 90.5289 145.88 70.381 145.88 45.5289C145.88 43.2188 145.704 40.9121 145.353 38.6289H135.463Z" fill="black"/>
<path d="M138.98 85.1911H138.38V84.8828H139.915V85.1911H139.315V86.7786H138.98V85.1911Z" fill="black"/>
<path d="M140.268 84.8828H140.622L141.201 85.7807L141.776 84.8828H142.13V86.7786H141.797V85.4182L141.201 86.312L140.607 85.4224V86.7786H140.278L140.268 84.8828Z" fill="black"/>
</svg>
