<svg width="201" height="91" viewBox="0 0 201 91" fill="none" xmlns="http://www.w3.org/2000/svg">
<path fill-rule="evenodd" clip-rule="evenodd" d="M106.086 33.3577C105.029 33.3577 104.097 34.0759 103.785 35.0758L99.2162 50.4787L93.1852 33.3577H90.6362C90.2682 33.3567 89.9092 33.4703 89.6092 33.6829C89.3082 33.8956 89.0802 34.1967 88.9572 34.5448L83.3292 50.6038L78.5732 34.6384C78.3562 33.8887 77.6422 33.3577 76.8972 33.3577H73.3193L80.9982 58.0082H83.2062C83.6932 58.0086 84.1682 57.8591 84.5682 57.58C84.9692 57.3009 85.2742 56.9054 85.4442 56.4467L91.2582 41.0123L97.6622 58.0082H100.335C101.05 58.0082 101.672 57.5402 101.89 56.8526L109.225 33.3262H106.085L106.086 33.3577ZM164.561 33.3577H161.359C160.52 33.3577 159.867 34.0453 159.867 34.8571V58.0082H173.515C174.851 58.0082 175.908 56.9147 175.908 55.6025V53.5721H164.53V33.3577H164.561ZM151.784 50.1349C155.08 48.604 156.882 45.6672 156.882 41.8557C156.882 37.7633 154.085 33.3577 147.93 33.3577H137.609C136.769 33.3577 136.116 34.0453 136.116 34.8571V58.0082H138.385C139.722 58.0082 140.779 56.9147 140.779 55.6025V50.6974H146.126L152.158 58.0082H157.753L151.318 50.1349H151.784ZM148.147 46.2612H140.779V37.8254H148.116C149.701 37.8254 150.666 38.6066 151.194 39.2627C151.815 40.0124 152.158 41.0745 152.158 42.0429C152.189 43.7619 150.759 46.2612 148.147 46.2612ZM186.415 33.3577H179.327C178.488 33.3577 177.836 34.0453 177.836 34.8571V58.0082H186.415C195.711 58.0082 199.876 51.7909 199.876 45.6366C199.876 39.5435 195.712 33.3577 186.415 33.3577ZM186.944 53.5721H182.498V37.7939H186.944C189.524 37.7939 191.669 38.6687 193.161 40.3562C194.436 41.7621 195.151 43.6989 195.151 45.6672C195.182 49.4788 192.012 53.5721 186.944 53.5721Z" fill="#424242"/>
<path d="M121.382 52.4479C125.091 52.4479 128.097 49.4265 128.097 45.6995C128.097 41.9725 125.091 38.9512 121.382 38.9512C117.674 38.9512 114.668 41.9725 114.668 45.6995C114.668 49.4265 117.674 52.4479 121.382 52.4479Z" fill="url(#paint0_linear_2048_38022)"/>
<path d="M121.382 52.4479C125.091 52.4479 128.097 49.4265 128.097 45.6995C128.097 41.9725 125.091 38.9512 121.382 38.9512C117.674 38.9512 114.668 41.9725 114.668 45.6995C114.668 49.4265 117.674 52.4479 121.382 52.4479Z" fill="url(#paint1_radial_2048_38022)"/>
<path d="M121.382 52.4479C125.091 52.4479 128.097 49.4265 128.097 45.6995C128.097 41.9725 125.091 38.9512 121.382 38.9512C117.674 38.9512 114.668 41.9725 114.668 45.6995C114.668 49.4265 117.674 52.4479 121.382 52.4479Z" fill="url(#paint2_radial_2048_38022)"/>
<path fill-rule="evenodd" clip-rule="evenodd" d="M125.828 33.2968L124.802 33.016C119.268 31.5166 113.3 37.6088 112.803 44.7324C113.018 42.8 113.872 40.9959 115.228 39.6086C116.027 38.7927 116.981 38.1457 118.032 37.7056C119.084 37.2656 120.213 37.0414 121.352 37.0463C123.808 37.0463 125.984 38.0777 127.57 39.7022C129.112 41.3136 129.971 43.4648 129.963 45.7008C129.963 46.0132 129.932 46.357 129.901 46.6693C129.404 53.7929 123.435 59.8851 117.902 58.3857L116.875 58.1049C118.244 58.5729 119.767 58.8231 121.352 58.8231C128.813 58.8231 134.409 53.1683 134.409 45.7008C134.44 39.8273 130.957 35.078 125.828 33.2968Z" fill="url(#paint3_radial_2048_38022)"/>
<path fill-rule="evenodd" clip-rule="evenodd" d="M121.382 54.353C118.211 54.353 115.444 52.6655 113.952 50.0725C113.179 48.7459 112.771 47.2361 112.771 45.6984C112.771 45.3861 112.802 45.0423 112.833 44.73C113.331 37.6064 119.299 31.5142 124.833 33.0136L125.859 33.2944C124.491 32.8264 122.967 32.5762 121.382 32.5762C113.921 32.5762 108.326 38.231 108.326 45.6984C108.326 51.6034 111.808 56.3528 116.906 58.1024L117.931 58.3833C123.465 59.8827 129.434 53.7905 129.931 46.6669C129.698 48.7811 128.697 50.7345 127.119 52.1528C125.542 53.5711 123.499 54.3545 121.382 54.353Z" fill="url(#paint4_radial_2048_38022)"/>
<path fill-rule="evenodd" clip-rule="evenodd" d="M38.13 33.3574H27.2495C26.7974 33.3615 26.3649 33.5438 26.0452 33.8651C25.7255 34.1865 25.5441 34.6211 25.54 35.0755V58.0394H29.7364C30.3371 58.036 30.9123 57.7946 31.3372 57.3676C31.762 56.9406 32.0022 56.3626 32.0056 55.7588V51.9472H37.2283L41.456 58.0079H48.4822L43.4145 50.7907L44.0055 50.4163C46.3679 48.916 47.9843 45.792 47.9843 42.605C47.9843 36.2626 42.8548 33.3574 38.13 33.3574ZM38.1918 45.9792H31.9743V39.2632H38.1918C40.3679 39.2632 41.5187 40.9499 41.5187 42.6059C41.5187 43.9181 40.6169 45.9792 38.1918 45.9792Z" fill="url(#paint5_linear_2048_38022)"/>
<path fill-rule="evenodd" clip-rule="evenodd" d="M9.74811 58.0385H13.9445C14.5452 58.0351 15.1204 57.7937 15.5453 57.3667C15.9701 56.9398 16.2103 56.3617 16.2137 55.7579V39.3551H22.1518C23.2086 39.3551 24.079 38.4803 24.079 37.4174V33.3574H3.12661C2.44241 33.3565 1.88281 33.9172 1.88281 34.6057V39.3236H9.74811V58.0385Z" fill="url(#paint6_linear_2048_38022)"/>
<path fill-rule="evenodd" clip-rule="evenodd" d="M56.6592 58.0394H60.8556C61.4564 58.036 62.0316 57.7946 62.4564 57.3676C62.8812 56.9406 63.1214 56.3626 63.1249 55.7588V39.3245H69.063C70.1197 39.3245 70.9902 38.4497 70.9902 37.3876V33.3574H50.036C49.3527 33.3574 48.793 33.919 48.793 34.6066V39.3245H56.6584L56.6592 58.0394Z" fill="url(#paint7_linear_2048_38022)"/>
<path fill-rule="evenodd" clip-rule="evenodd" d="M38.13 33.3574H27.2495C26.7974 33.3615 26.3649 33.5438 26.0452 33.8651C25.7255 34.1865 25.5441 34.6211 25.54 35.0755V58.0394H29.7364C30.3371 58.036 30.9123 57.7946 31.3372 57.3676C31.762 56.9406 32.0022 56.3626 32.0056 55.7588V51.9472H37.2283L41.456 58.0079H48.4822L43.4145 50.7907L44.0055 50.4163C46.3679 48.916 47.9843 45.792 47.9843 42.605C47.9843 36.2626 42.8548 33.3574 38.13 33.3574ZM38.1918 45.9792H31.9743V39.2632H38.1918C40.3679 39.2632 41.5187 40.9499 41.5187 42.6059C41.5187 43.9181 40.6169 45.9792 38.1918 45.9792Z" fill="url(#paint8_linear_2048_38022)"/>
<path fill-rule="evenodd" clip-rule="evenodd" d="M9.74811 58.0385H13.9445C14.5452 58.0351 15.1204 57.7937 15.5453 57.3667C15.9701 56.9398 16.2103 56.3617 16.2137 55.7579V39.3551H22.1518C23.2086 39.3551 24.079 38.4803 24.079 37.4174V33.3574H3.12661C2.44241 33.3565 1.88281 33.9172 1.88281 34.6057V39.3236H9.74811V58.0385Z" fill="url(#paint9_linear_2048_38022)"/>
<path fill-rule="evenodd" clip-rule="evenodd" d="M56.6592 58.0394H60.8556C61.4564 58.036 62.0316 57.7946 62.4564 57.3676C62.8812 56.9406 63.1214 56.3626 63.1249 55.7588V39.3245H69.063C70.1197 39.3245 70.9902 38.4497 70.9902 37.3876V33.3574H50.036C49.3527 33.3574 48.793 33.919 48.793 34.6066V39.3245H56.6584L56.6592 58.0394Z" fill="url(#paint10_linear_2048_38022)"/>
<path fill-rule="evenodd" clip-rule="evenodd" d="M38.13 33.3574H27.2495C26.7974 33.3615 26.3649 33.5438 26.0452 33.8651C25.7255 34.1865 25.5441 34.6211 25.54 35.0755V58.0394H29.7364C30.3371 58.036 30.9123 57.7946 31.3372 57.3676C31.762 56.9406 32.0022 56.3626 32.0056 55.7588V51.9472H37.2283L41.456 58.0079H48.4822L43.4145 50.7907L44.0055 50.4163C46.3679 48.916 47.9843 45.792 47.9843 42.605C47.9843 36.2626 42.8548 33.3574 38.13 33.3574ZM38.1918 45.9792H31.9743V39.2632H38.1918C40.3679 39.2632 41.5187 40.9499 41.5187 42.6059C41.5187 43.9181 40.6169 45.9792 38.1918 45.9792Z" fill="url(#paint11_linear_2048_38022)"/>
<path fill-rule="evenodd" clip-rule="evenodd" d="M9.74811 58.0385H13.9445C14.5452 58.0351 15.1204 57.7937 15.5453 57.3667C15.9701 56.9398 16.2103 56.3617 16.2137 55.7579V39.3551H22.1518C23.2086 39.3551 24.079 38.4803 24.079 37.4174V33.3574H3.12661C2.44241 33.3565 1.88281 33.9172 1.88281 34.6057V39.3236H9.74811V58.0385Z" fill="url(#paint12_linear_2048_38022)"/>
<path fill-rule="evenodd" clip-rule="evenodd" d="M56.6592 58.0394H60.8556C61.4564 58.036 62.0316 57.7946 62.4564 57.3676C62.8812 56.9406 63.1214 56.3626 63.1249 55.7588V39.3245H69.063C70.1197 39.3245 70.9902 38.4497 70.9902 37.3876V33.3574H50.036C49.3527 33.3574 48.793 33.919 48.793 34.6066V39.3245H56.6584L56.6592 58.0394Z" fill="url(#paint13_linear_2048_38022)"/>
<defs>
<linearGradient id="paint0_linear_2048_38022" x1="114.656" y1="45.7048" x2="128.094" y2="45.7048" gradientUnits="userSpaceOnUse">
<stop stop-color="#43C4DC"/>
<stop offset="0.06591" stop-color="#3EBCD8"/>
<stop offset="0.2703" stop-color="#29ADD0"/>
<stop offset="0.405" stop-color="#20A8CE"/>
<stop offset="0.5308" stop-color="#24A4CD"/>
<stop offset="0.7141" stop-color="#2C9ACA"/>
<stop offset="0.9318" stop-color="#3789C5"/>
<stop offset="1" stop-color="#3983C4"/>
</linearGradient>
<radialGradient id="paint1_radial_2048_38022" cx="0" cy="0" r="1" gradientUnits="userSpaceOnUse" gradientTransform="translate(124.481 43.2051) scale(10.965 11.0202)">
<stop stop-color="#0D91AE" stop-opacity="0"/>
<stop offset="0.8139" stop-color="#0D91AE" stop-opacity="0.867"/>
<stop offset="0.9392" stop-color="#0D91AE"/>
</radialGradient>
<radialGradient id="paint2_radial_2048_38022" cx="0" cy="0" r="1" gradientUnits="userSpaceOnUse" gradientTransform="translate(117.502 41.6582) scale(12.3559 12.418)">
<stop offset="0.01871" stop-color="#0D91AE" stop-opacity="0"/>
<stop offset="0.3248" stop-color="#0D90AE" stop-opacity="0.312"/>
<stop offset="0.5739" stop-color="#0D8AAF" stop-opacity="0.566"/>
<stop offset="0.8024" stop-color="#0E81B0" stop-opacity="0.799"/>
<stop offset="1" stop-color="#0F76B1"/>
</radialGradient>
<radialGradient id="paint3_radial_2048_38022" cx="0" cy="0" r="1" gradientUnits="userSpaceOnUse" gradientTransform="translate(122.429 47.5611) rotate(-0.818451) scale(13.4546 12.7986)">
<stop stop-color="#413E3F"/>
<stop offset="0.171141" stop-color="#656363"/>
<stop offset="0.3477" stop-color="#757374"/>
<stop offset="0.487184" stop-color="#747373"/>
<stop offset="0.7046" stop-color="#666565"/>
<stop offset="0.862613" stop-color="#565454"/>
<stop offset="1" stop-color="#3D3B3C"/>
</radialGradient>
<radialGradient id="paint4_radial_2048_38022" cx="0" cy="0" r="1" gradientUnits="userSpaceOnUse" gradientTransform="translate(114.416 38.1393) scale(21.5743 25.9987)">
<stop stop-color="#B9B8B8"/>
<stop offset="0.1718" stop-color="#B1B0B0"/>
<stop offset="0.3477" stop-color="#8B8A8B"/>
<stop offset="0.5254" stop-color="#7B797A"/>
<stop offset="0.7046" stop-color="#595758"/>
<stop offset="0.883" stop-color="#403E3F"/>
<stop offset="1" stop-color="#3F3C3D"/>
</radialGradient>
<linearGradient id="paint5_linear_2048_38022" x1="70.7921" y1="41.0071" x2="3.06924" y2="49.3369" gradientUnits="userSpaceOnUse">
<stop stop-color="#43C4DC"/>
<stop offset="0.06591" stop-color="#3EBCD8"/>
<stop offset="0.2703" stop-color="#29ADD0"/>
<stop offset="0.405" stop-color="#20A8CE"/>
<stop offset="0.5308" stop-color="#24A4CD"/>
<stop offset="0.7141" stop-color="#2C9ACA"/>
<stop offset="0.9318" stop-color="#3789C5"/>
<stop offset="1" stop-color="#3983C4"/>
</linearGradient>
<linearGradient id="paint6_linear_2048_38022" x1="69.9138" y1="36.9704" x2="2.14011" y2="44.7735" gradientUnits="userSpaceOnUse">
<stop stop-color="#43C4DC"/>
<stop offset="0.06591" stop-color="#3EBCD8"/>
<stop offset="0.2703" stop-color="#29ADD0"/>
<stop offset="0.405" stop-color="#20A8CE"/>
<stop offset="0.5308" stop-color="#24A4CD"/>
<stop offset="0.7141" stop-color="#2C9ACA"/>
<stop offset="0.9318" stop-color="#3789C5"/>
<stop offset="1" stop-color="#3983C4"/>
</linearGradient>
<linearGradient id="paint7_linear_2048_38022" x1="71.748" y1="43.3879" x2="3.97156" y2="51.1913" gradientUnits="userSpaceOnUse">
<stop stop-color="#43C4DC"/>
<stop offset="0.06591" stop-color="#3EBCD8"/>
<stop offset="0.2703" stop-color="#29ADD0"/>
<stop offset="0.405" stop-color="#20A8CE"/>
<stop offset="0.5308" stop-color="#24A4CD"/>
<stop offset="0.7141" stop-color="#2C9ACA"/>
<stop offset="0.9318" stop-color="#3789C5"/>
<stop offset="1" stop-color="#3983C4"/>
</linearGradient>
<linearGradient id="paint8_linear_2048_38022" x1="27.5483" y1="65.9142" x2="40.0308" y2="43.6341" gradientUnits="userSpaceOnUse">
<stop stop-color="#0F76B1"/>
<stop offset="0.2624" stop-color="#0F7AB1" stop-opacity="0.738"/>
<stop offset="0.66" stop-color="#0E85B0" stop-opacity="0.34"/>
<stop offset="1" stop-color="#0D91AE" stop-opacity="0"/>
</linearGradient>
<linearGradient id="paint9_linear_2048_38022" x1="4.46551" y1="54.7789" x2="17.5529" y2="32.9128" gradientUnits="userSpaceOnUse">
<stop stop-color="#0F76B1"/>
<stop offset="0.2624" stop-color="#0F7AB1" stop-opacity="0.738"/>
<stop offset="0.66" stop-color="#0E85B0" stop-opacity="0.34"/>
<stop offset="1" stop-color="#0D91AE" stop-opacity="0"/>
</linearGradient>
<linearGradient id="paint10_linear_2048_38022" x1="42.5765" y1="72.9592" x2="55.6643" y2="51.0922" gradientUnits="userSpaceOnUse">
<stop stop-color="#0F76B1"/>
<stop offset="0.2624" stop-color="#0F7AB1" stop-opacity="0.738"/>
<stop offset="0.66" stop-color="#0E85B0" stop-opacity="0.34"/>
<stop offset="1" stop-color="#0D91AE" stop-opacity="0"/>
</linearGradient>
<linearGradient id="paint11_linear_2048_38022" x1="42.4069" y1="63.134" x2="35.9418" y2="49.4792" gradientUnits="userSpaceOnUse">
<stop offset="0.06085" stop-color="#0D91AE"/>
<stop offset="1" stop-color="#0D91AE" stop-opacity="0"/>
</linearGradient>
<linearGradient id="paint12_linear_2048_38022" x1="26.5648" y1="69.5506" x2="19.7579" y2="56.0927" gradientUnits="userSpaceOnUse">
<stop offset="0.06085" stop-color="#0D91AE"/>
<stop offset="1" stop-color="#0D91AE" stop-opacity="0"/>
</linearGradient>
<linearGradient id="paint13_linear_2048_38022" x1="66.8286" y1="53.2997" x2="60.0215" y2="39.8416" gradientUnits="userSpaceOnUse">
<stop offset="0.06085" stop-color="#0D91AE"/>
<stop offset="1" stop-color="#0D91AE" stop-opacity="0"/>
</linearGradient>
</defs>
</svg>
