<svg width="201" height="91" viewBox="0 0 201 91" fill="none" xmlns="http://www.w3.org/2000/svg">
<path d="M172.88 38.4111C172.88 49.2916 164.097 58.1152 153.268 58.1152C142.438 58.1152 133.646 49.2931 133.646 38.4111C133.646 27.5292 142.43 18.707 153.268 18.707C164.106 18.707 172.88 27.5299 172.88 38.4111ZM167.691 31.4821H163.616L158.517 41.4327L157.74 31.4821H153.997L155.483 46.195H159.79L167.691 31.4821ZM153.117 31.4821H141.096L140.512 34.8386H144.702L142.727 46.195H146.585L148.56 34.8386H152.534L153.117 31.4821Z" fill="#CFD200"/>
<path d="M117.214 31.4824V53.5927C117.214 57.069 115.54 60.8916 110.893 60.8916C106.071 60.8916 104.572 56.9432 104.572 53.6677V31.4824H90.2344V58.8143C90.2344 68.6777 96.7541 74.426 105.862 74.426C109.335 74.426 115.367 73.6825 118.269 67.5553V73.8531H131.651V31.4824H117.214Z" fill="#CFD200"/>
<path d="M73.8485 38.6183V31.4824H60.4658V73.8553H74.9561V54.709C74.9561 48.7629 78.1167 46.2006 85.8395 46.2006H88.1395V31.4824H86.5084C81.0303 31.4824 76.9303 33.1974 73.8485 38.6183Z" fill="#CFD200"/>
<path d="M50.8709 19.6875H36.3799V31.4842H28.8799V42.6216H36.3799V73.8556H50.8709V42.6216H58.371V31.4842H50.8709V19.6875Z" fill="#CFD200"/>
</svg>
