<svg width="201" height="91" viewBox="0 0 201 91" fill="none" xmlns="http://www.w3.org/2000/svg">
<path fill-rule="evenodd" clip-rule="evenodd" d="M28.8799 10.8477V20.6786H44.6099V64.0525H56.176V20.6786H71.906V10.8477H28.8799ZM130.778 10.8477V64.0525H141.304V10.8477H130.778ZM82.5474 25.4207C72.484 25.4207 63.5787 33.7255 63.5787 44.505V64.0525H73.9884V44.505C73.9884 39.7391 78.0712 35.946 82.5474 35.946V25.4207ZM85.5544 25.5369L96.1958 57.6907C97.7368 61.829 101.745 65.0114 106.71 65.0114C112.849 65.0114 116.144 60.751 117.246 57.6907L127.887 25.5369H116.899L107.53 53.9893C107.53 53.9893 107.32 54.5719 106.723 54.5719C106.117 54.5719 105.911 53.9893 105.911 53.9893L96.4659 25.5369H85.5544ZM67.28 71.4546C64.8105 71.4546 63.4632 73.0414 63.4632 74.5777V77.9319C63.4632 79.8051 64.8407 81.0532 67.2136 81.0532C69.1284 81.0532 70.1955 79.8819 70.8112 78.8864L69.3667 78.1058C69.045 78.6593 68.4131 79.4354 67.28 79.4354C65.8104 79.4354 65.0822 78.7386 65.0822 77.8158V74.5777C65.0822 73.5463 65.8361 72.9581 67.1639 72.9581C68.471 72.9581 69.0058 73.7355 69.371 74.2734L70.7969 73.5158C70.0359 72.3041 68.8848 71.4546 67.28 71.4546ZM99.4338 71.5701V80.8234H101.053V74.0076L105.065 80.8234H106.836V71.5701H105.217V78.5362L101.094 71.5701H99.4338ZM111.346 71.5701V80.8234H112.965V74.0076L116.977 80.8234H118.748V71.5701H117.129V78.5362L113.006 71.5701H111.346ZM135.405 71.5701V80.8234H141.42V79.3199H137.024V71.5701H135.405ZM90.3873 71.5721L86.9424 80.8248H88.6776L89.4868 78.396H92.9571L93.8824 80.8248H95.5015L92.0535 71.5721H90.3873ZM75.4919 71.6863V80.9391H77.1109V77.0067H81.3904V80.9391H83.0101V71.6863H81.3904V75.6187H77.1109V71.6863H75.4919ZM123.376 71.6863V80.9391H129.738V79.4356H124.995V77.0067H129.39V75.5032H124.995V73.0744H129.738V71.6863H123.376ZM91.2244 73.0756L92.4683 76.8924H90.0109L91.2244 73.0756Z" fill="#E6BE29"/>
<path d="M148.707 62.434V12.5835C148.707 11.5574 149.296 10.8438 150.336 10.8438C150.944 10.8438 151.328 11.1865 151.714 11.6582L172.418 36.41C172.418 36.41 172.88 36.8797 172.88 37.4509C172.88 38.0091 172.418 38.4919 172.418 38.4919L151.599 63.475C151.337 63.7839 151.04 64.0934 150.379 64.0934C149.549 64.0934 148.707 63.4195 148.707 62.434Z" fill="#852980"/>
</svg>
