<svg width="201" height="92" viewBox="0 0 201 92" fill="none" xmlns="http://www.w3.org/2000/svg">
<path d="M55.8799 1.51172H145.88V91.5117H55.8799V1.51172Z" fill="#0080BA"/>
<path fill-rule="evenodd" clip-rule="evenodd" d="M69.3734 80.1887C68.0234 80.1887 66.9839 79.5767 66.3476 78.4238C65.8697 77.5688 65.6978 76.3718 65.6978 74.2199C65.6978 72.3875 65.9678 71.0816 66.5744 70.1762C67.1369 69.3437 68.1773 68.8262 69.2366 68.8262C70.1186 68.8262 70.9565 69.1184 71.7503 69.7028L73.1714 67.5608C72.3137 66.8093 70.7567 66.3125 69.1943 66.3125C66.6626 66.3125 64.4027 67.6688 63.1877 69.9521C62.4614 71.3174 62.123 72.8708 62.123 74.8337C62.123 77.1386 62.753 79.0358 64.0211 80.4587C65.3045 81.9356 66.9839 82.6259 69.1511 82.6259C70.9358 82.6259 72.2678 82.1759 73.5107 81.1607L72.0707 79.1762C71.141 79.9169 70.3022 80.1887 69.3734 80.1887Z" fill="white"/>
<path fill-rule="evenodd" clip-rule="evenodd" d="M81.5293 70.4725C80.3539 70.4725 79.0444 70.9711 78.2524 71.7145C78.2524 71.5732 78.301 71.1052 78.301 70.7425V68.4385C78.301 67.3288 78.2272 66.2479 78.0949 65.6152L74.998 66.3352C75.1357 66.8059 75.2284 67.8868 75.2284 68.9839V82.3579H78.301V74.068C78.9778 73.4515 79.9462 72.9988 80.6941 72.9988C81.5509 72.9988 81.8695 73.4317 81.8695 74.5855V82.3579H84.8314V74.266C84.8314 73.1662 84.763 72.7747 84.5335 72.1195C84.1654 71.1052 82.9909 70.4725 81.5293 70.4725Z" fill="white"/>
<path fill-rule="evenodd" clip-rule="evenodd" d="M96.0276 78.7238V78.5141L96.0915 74.6324C96.1122 73.3841 96.0465 73.0268 95.8899 72.5489C95.4399 71.2637 94.1034 70.541 92.1639 70.541C91.101 70.541 90.129 70.7417 88.9986 71.2142C88.1886 71.5571 87.7314 71.7776 87.1203 72.1709L88.41 74.3309C89.6547 73.4948 90.7833 73.0232 91.7562 73.0232C92.8623 73.0232 93.1062 73.4471 93.1062 74.7404V75.2111C92.8587 75.1931 92.6562 75.1931 92.4285 75.1931C88.743 75.1931 86.8701 76.4639 86.8701 79.172C86.8701 81.4706 88.2714 82.7828 90.8508 82.7828C91.7967 82.7828 92.6067 82.5596 93.1701 82.1474C93.4214 81.9651 93.6565 81.7615 93.873 81.539C94.1682 82.1258 94.7973 82.6397 95.5011 82.9367L97.1022 81.0899C96.2319 80.4428 96.0276 79.9604 96.0276 78.7238ZM93.0207 79.7867C92.5707 80.2772 92.001 80.5724 91.4376 80.5724C90.669 80.5724 90.1083 79.9604 90.1083 79.0622C90.1083 77.6798 90.8283 77.2982 92.9289 77.2982H93.0648L93.0207 79.7867Z" fill="white"/>
<path fill-rule="evenodd" clip-rule="evenodd" d="M104.955 70.5875C104.23 70.591 103.515 70.7603 102.866 71.0825C102.404 71.3429 101.959 71.6299 101.53 71.942C101.516 71.4336 101.371 70.9374 101.108 70.502L98.4199 71.2625C98.6899 72.0239 98.8267 72.9725 98.8267 73.9733V82.3559H101.849V74.1767C102.555 73.5467 103.341 73.1372 103.954 73.1372C104.747 73.1372 104.973 73.5332 104.973 74.8328V82.3568H107.943V73.9067C107.943 73.1867 107.876 72.6845 107.727 72.2615C107.367 71.2625 106.236 70.5875 104.955 70.5875Z" fill="white"/>
<path fill-rule="evenodd" clip-rule="evenodd" d="M116.748 70.5884C116.023 70.592 115.309 70.761 114.66 71.0825C114.2 71.3446 113.754 71.6315 113.325 71.942C113.309 71.4337 113.164 70.9379 112.902 70.502L110.213 71.2634C110.483 72.0248 110.621 72.9734 110.621 73.9742V82.3568H113.646V74.1776C114.341 73.5476 115.137 73.1381 115.741 73.1381C116.538 73.1381 116.759 73.5341 116.759 74.8337V82.3577H119.739V73.9076C119.739 73.1876 119.677 72.6854 119.515 72.2624C119.157 71.2634 118.028 70.5884 116.748 70.5884Z" fill="white"/>
<path fill-rule="evenodd" clip-rule="evenodd" d="M126.928 70.543C125.398 70.543 124.234 71.0371 123.289 72.1027C122.273 73.2322 121.844 74.6065 121.844 76.6855C121.844 80.326 123.994 82.6768 127.306 82.6768C128.939 82.6768 130.34 82.153 131.674 81.0766L130.495 79.2613C129.577 80.0326 128.605 80.4187 127.558 80.4187C125.996 80.4187 125.12 79.3954 125.12 77.6143V77.5243H131.806V76.8205C131.806 74.4112 131.334 72.8479 130.276 71.7652C129.521 70.993 128.263 70.543 126.928 70.543ZM128.668 75.3049H125.166V75.2617C125.166 73.6633 125.821 72.7597 126.966 72.7597C127.582 72.7597 128.009 72.9802 128.303 73.4329C128.573 73.8622 128.663 74.3185 128.663 75.1735L128.668 75.3049Z" fill="white"/>
<path fill-rule="evenodd" clip-rule="evenodd" d="M137.877 80.5497C137.758 80.5542 137.64 80.5281 137.534 80.4739C137.428 80.4197 137.337 80.3392 137.271 80.2401C137.098 79.9161 137.064 79.6443 137.064 77.6535V68.6364C137.064 67.0164 137.023 66.2631 136.901 65.6367L133.819 66.3378C133.929 67.4958 133.978 68.6586 133.967 69.8217V78.441C133.967 80.0952 134.015 80.4552 134.237 81.0438C134.597 82.0131 135.648 82.6224 136.937 82.6224C137.551 82.6291 138.161 82.5236 138.737 82.311L138.225 80.502C138.113 80.5376 137.995 80.5538 137.877 80.5497Z" fill="white"/>
<path fill-rule="evenodd" clip-rule="evenodd" d="M68.881 61.3486L70.1896 54.9001C70.6666 52.6069 70.9366 50.3875 70.9366 50.3875C71.1023 51.9225 71.3508 53.4475 71.6809 54.9559L73.0831 61.3459H76.54L80.3353 45.5059H77.0134L75.7228 51.4648C75.4069 53.0065 74.9128 56.1961 74.866 56.6848C74.866 56.6848 74.4826 53.9992 74.1856 52.5268L72.7411 45.5068H69.2842L67.8775 51.8554C67.4095 54.0262 67.1368 56.2654 67.0729 56.8702C66.8867 55.1337 66.6051 53.4088 66.2296 51.7033L64.8796 45.5095H61.5352L65.2855 61.3495L68.881 61.3486Z" fill="white"/>
<path fill-rule="evenodd" clip-rule="evenodd" d="M88.8282 58.1128C87.903 58.8805 86.931 59.2666 85.8906 59.2666C84.33 59.2666 83.4471 58.2532 83.4471 56.4712V56.3722H90.1359V55.6738C90.1359 53.2582 89.6634 51.703 88.6014 50.6158C87.8607 49.8553 86.5899 49.3945 85.2579 49.3945C83.7216 49.3945 82.5669 49.8868 81.621 50.9569C80.6049 52.0828 80.1729 53.4625 80.1729 55.5379C80.1729 59.1829 82.3203 61.5274 85.6395 61.5274C87.2703 61.5274 88.6698 61.0072 90.0009 59.9209L88.8282 58.1128ZM83.4948 54.1168C83.4948 52.5193 84.15 51.6085 85.3029 51.6085C85.9122 51.6085 86.3379 51.8371 86.6331 52.2916C86.9031 52.7164 87.0012 53.1673 87.0012 54.0286V54.1627H83.4912L83.4948 54.1168Z" fill="white"/>
<path fill-rule="evenodd" clip-rule="evenodd" d="M100.147 61.8009L101.745 59.9442C100.865 59.2989 100.665 58.8174 100.665 57.5736V57.3729L100.733 53.4822C100.758 52.2384 100.692 51.8802 100.532 51.4032C100.07 50.1198 98.7404 49.3926 96.7946 49.3926C95.7362 49.3926 94.7678 49.5996 93.6338 50.0748C92.9797 50.3281 92.352 50.6452 91.76 51.0216L93.0443 53.1906C94.2917 52.35 95.4257 51.8784 96.3932 51.8784C97.5029 51.8784 97.7432 52.305 97.7432 53.5947V54.0726C97.4993 54.051 97.2932 54.051 97.0673 54.051C93.3827 54.051 91.5107 55.3209 91.5107 58.0299C91.5107 60.3375 92.9048 61.6452 95.4824 61.6452C96.431 61.6452 97.2437 61.4202 97.8089 61.0107C98.061 60.8301 98.2952 60.6258 98.5082 60.4005C98.8097 60.9873 99.4397 61.5093 100.147 61.8009ZM97.6595 58.6365C97.2023 59.1324 96.6407 59.4204 96.0746 59.4204C95.3024 59.4204 94.7444 58.8174 94.7444 57.9147C94.7444 56.5341 95.4644 56.1543 97.5659 56.1543H97.7045L97.6595 58.6365Z" fill="white"/>
<path fill-rule="evenodd" clip-rule="evenodd" d="M107.819 59.3765C106.782 59.3765 106.514 58.9958 106.514 57.5279V51.7175H108.455L109.227 49.6475H106.514C106.513 48.4781 106.573 47.3095 106.694 46.1465L103.618 46.9088C103.503 47.7629 103.503 48.5126 103.503 49.6475H102.354V51.7175H103.502V58.0022C103.502 59.0651 103.53 59.2982 103.708 59.7905C104.068 60.8057 105.293 61.4789 106.828 61.4789C107.676 61.4724 108.514 61.2971 109.293 60.9632L108.912 59.1515C108.365 59.3135 108.096 59.3765 107.819 59.3765Z" fill="white"/>
<path fill-rule="evenodd" clip-rule="evenodd" d="M117.063 49.3235C115.893 49.3235 114.574 49.8239 113.787 50.5736C113.787 50.4314 113.831 49.9616 113.831 49.6007V47.2922C113.831 46.1852 113.767 45.1016 113.634 44.4707L110.535 45.1907C110.673 45.6596 110.759 46.7504 110.759 47.8331V61.2098H113.831V52.9181C114.519 52.3061 115.484 51.857 116.221 51.857C117.085 51.857 117.4 52.2908 117.4 53.4419V61.2098H120.37V53.1233C120.37 52.0172 120.296 51.6293 120.072 50.9696C119.703 49.9616 118.524 49.3235 117.063 49.3235Z" fill="white"/>
<path fill-rule="evenodd" clip-rule="evenodd" d="M126.998 49.3926C125.468 49.3926 124.312 49.8849 123.367 50.955C122.348 52.0809 121.91 53.4606 121.91 55.536C121.91 59.181 124.061 61.5255 127.38 61.5255C129.01 61.5255 130.411 61.0053 131.739 59.919L130.569 58.1109C129.64 58.8786 128.666 59.2647 127.633 59.2647C126.074 59.2647 125.19 58.2513 125.19 56.4693V56.3703H131.879V55.6719C131.879 53.2563 131.408 51.7011 130.342 50.6139C129.601 49.8552 128.33 49.3926 126.998 49.3926ZM128.735 54.1626H125.234V54.1194C125.234 52.5219 125.892 51.6111 127.044 51.6111C127.656 51.6111 128.083 51.8397 128.38 52.2942C128.65 52.719 128.735 53.1699 128.735 54.0312V54.1626Z" fill="white"/>
<path fill-rule="evenodd" clip-rule="evenodd" d="M139.446 49.3727C139.107 49.3727 138.692 49.4348 138.449 49.5527C137.883 49.7966 137.165 50.4284 136.739 51.0197C136.712 50.4395 136.547 49.8739 136.26 49.3691L133.549 50.0891C133.802 50.7488 133.971 51.9188 133.971 53.4776V61.2059H137.008V53.033C137.575 52.3814 138.185 52.0646 138.858 52.0646C139.168 52.0557 139.474 52.1343 139.741 52.2914L140.57 49.6193C140.098 49.4168 139.894 49.3727 139.446 49.3727Z" fill="white"/>
<path fill-rule="evenodd" clip-rule="evenodd" d="M65.4935 40.4164H68.6966V27.3358H72.4478L72.968 24.7168H61.6514V27.3358H65.4935V40.4164Z" fill="white"/>
<path fill-rule="evenodd" clip-rule="evenodd" d="M74.5443 40.417H77.6133V32.128C78.2964 31.5142 79.2666 31.0687 80.0091 31.0687C80.8704 31.0687 81.1872 31.4899 81.1872 32.6446V40.417H84.1464V32.3269C84.1464 31.219 84.0753 30.8365 83.8548 30.1795C83.4948 29.167 82.314 28.5334 80.847 28.5334C79.6725 28.5334 78.3657 29.0311 77.5701 29.7754C77.5701 29.6395 77.6133 29.167 77.6133 28.807V26.4967C77.6133 25.3924 77.5476 24.3097 77.4117 23.6797L74.3193 24.3997C74.457 24.8704 74.5443 25.9567 74.5443 27.034V40.417Z" fill="white"/>
<path fill-rule="evenodd" clip-rule="evenodd" d="M91.6216 40.731C93.247 40.731 94.6456 40.2171 95.9821 39.1281L94.8013 37.3227C93.8833 38.0949 92.9113 38.4765 91.8673 38.4765C90.3085 38.4765 89.4292 37.4523 89.4292 35.6766V35.5866H96.1144V34.8837C96.1144 32.4699 95.6446 30.9057 94.5844 29.8194C93.8329 29.0535 92.5675 28.6035 91.2364 28.6035C89.7019 28.6035 88.5508 29.0976 87.5995 30.1632C86.5843 31.2936 86.1523 32.6715 86.1523 34.7433C86.1523 38.3883 88.2997 40.731 91.6216 40.731ZM89.4742 33.3222C89.4742 31.7211 90.1294 30.8175 91.2814 30.8175C91.8898 30.8175 92.3191 31.038 92.617 31.4907C92.887 31.9281 92.977 32.3772 92.977 33.2349V33.3735H89.4742V33.3222Z" fill="white"/>
</svg>
