<svg width="201" height="91" viewBox="0 0 201 91" fill="none" xmlns="http://www.w3.org/2000/svg">
<path d="M52.5747 62.0648C51.169 62.666 49.663 63.0667 48.0566 63.1669C45.8478 63.1669 43.9401 61.9647 43.9401 58.2577V45.734H53.8799V34.9136H44.0405V21.4883H28.8799V59.0592C28.8799 66.4732 29.6831 74.4883 43.2373 74.4883C46.4502 74.3881 49.5626 73.8871 52.6751 72.8853V62.0648H52.5747Z" fill="#515993"/>
<path d="M171.575 62.0648C170.169 62.666 168.663 62.9665 167.157 63.1669C164.948 63.1669 163.041 61.9647 163.041 58.2577V45.734H172.88V34.9136H163.041V21.4883H147.88V59.0592C147.88 66.4732 148.683 74.4883 162.237 74.4883C165.45 74.3881 168.563 73.8871 171.675 72.8853L171.575 62.0648Z" fill="#515993"/>
<path d="M132.917 48.8257C130.425 47.9235 128.83 47.2218 128.83 45.8184C128.83 45.0164 129.328 44.1142 131.023 44.1142C132.818 44.1142 135.709 45.2169 139.497 47.2218L142.986 37.1973C139.098 34.7915 134.612 33.4883 130.026 33.4883C121.453 33.4883 114.276 38.701 114.276 47.322C114.276 55.6423 120.755 57.6472 126.238 59.4516C128.332 60.2536 129.927 60.7548 129.927 62.1582C129.927 63.1607 129.328 63.6619 128.033 63.6619C124.942 63.6619 119.459 61.4565 116.469 59.6521L112.88 70.1778C115.472 71.9822 121.652 74.4883 128.83 74.4883C138.5 74.4883 144.88 69.9773 144.88 61.256C144.78 53.1362 138.4 50.8306 132.917 48.8257Z" fill="#515993"/>
<path d="M76.5643 59.8841C76.5643 60.1734 76.5643 60.3663 76.5643 60.5591C76.5643 61.6198 75.6746 62.4876 74.5871 62.4876C73.4997 62.4876 72.6099 61.6198 72.6099 60.5591V35.4883H57.8799V59.8841C57.8799 68.8518 66.5795 73.4802 74.686 73.4802C77.8495 73.5767 81.1118 72.8052 83.8799 71.2624C79.6289 69.0446 76.5643 65.284 76.5643 59.8841Z" fill="url(#paint0_linear_2048_37897)"/>
<path d="M83.5833 71.0696C76.3666 73.191 72.6099 66.7304 72.6099 60.752C72.6099 60.6555 72.6099 60.6555 72.6099 60.5591V35.4883H57.8799V59.8841C57.8799 68.8518 66.5795 73.4802 74.686 73.4802C77.8495 73.5767 81.1118 72.8052 83.8799 71.2624L83.5833 71.0696Z" fill="#515993"/>
<path d="M100.38 32.4883C104.522 32.4883 107.88 29.1304 107.88 24.9883C107.88 20.8461 104.522 17.4883 100.38 17.4883C96.2377 17.4883 92.8799 20.8461 92.8799 24.9883C92.8799 29.1304 96.2377 32.4883 100.38 32.4883Z" fill="#515993"/>
<path d="M76.8799 59.8893V35.4883H91.4793V59.8893C91.4793 61.5289 91.4793 62.5898 92.949 62.5898C95.1047 62.5898 96.3784 58.3461 96.3784 52.7522C96.2805 46.9654 95.6926 41.1786 94.4188 35.4883H108.92C110.292 40.4071 110.88 47.3512 110.88 52.4629C110.88 65.9654 104.707 73.4883 93.6349 73.4883C85.5024 73.4883 76.8799 68.8588 76.8799 59.8893Z" fill="url(#paint1_linear_2048_37897)"/>
<path d="M93.8541 73.4817C97.4277 73.5781 100.902 72.6138 103.88 70.6852C95.8394 73.771 91.7696 66.9245 91.7696 60.6565C91.7696 60.3672 91.7696 60.1744 91.7696 59.8851V35.4883H76.8799V59.8851C76.8799 68.8531 85.6152 73.4817 93.8541 73.4817Z" fill="#515993"/>
<defs>
<linearGradient id="paint0_linear_2048_37897" x1="84.1637" y1="31.3831" x2="62.6288" y2="68.8376" gradientUnits="userSpaceOnUse">
<stop offset="0.5" stop-color="#515993"/>
<stop offset="1" stop-color="#282C48"/>
</linearGradient>
<linearGradient id="paint1_linear_2048_37897" x1="101.914" y1="32.3309" x2="83.1429" y2="69.7204" gradientUnits="userSpaceOnUse">
<stop offset="0.5" stop-color="#515993"/>
<stop offset="1" stop-color="#151624"/>
</linearGradient>
</defs>
</svg>
