<svg width="201" height="92" viewBox="0 0 201 92" fill="none" xmlns="http://www.w3.org/2000/svg">
<path d="M96.2657 54.4245C96.2657 55.8793 95.064 57.0814 93.6095 57.0814C92.1548 57.0814 90.9531 55.8793 90.9531 54.4245C90.9531 52.9696 92.1548 51.7676 93.6095 51.7676C95.0641 51.7676 96.2657 52.9696 96.2657 54.4245Z" fill="#11A1AB"/>
<path d="M93.6097 57.8398C92.155 57.8398 91.0166 59.0418 91.0166 60.4336V65.8105C91.0166 67.2654 92.155 68.4039 93.6097 68.4039C95.0642 68.4039 96.2027 67.202 96.2027 65.8105V60.4336C96.2027 58.9785 95.0643 57.8398 93.6097 57.8398Z" fill="#11A1AB"/>
<path d="M104.108 63.9133H102.969V56.2591H104.108C106.258 56.2591 107.965 57.9669 107.965 60.1178C107.965 62.2053 106.258 63.9133 104.108 63.9133ZM104.74 51.7676H100.376C98.9217 51.7676 97.7832 52.9696 97.7832 54.3613V65.811C97.7832 67.2658 98.9217 68.4044 100.376 68.4044H104.74C109.357 68.4044 113.088 64.672 113.088 60.0543C113.025 55.4999 109.357 51.7676 104.74 51.7676Z" fill="#11A1AB"/>
<path d="M125.548 55.816C125.042 57.0178 123.713 57.5238 122.259 56.9547C121.247 56.5751 119.603 56.0059 119.223 56.5751C118.78 57.3341 120.678 57.777 121.437 58.03C122.132 58.2829 123.903 58.9154 124.915 60.0541C125.927 61.256 126.686 63.3435 125.547 65.6206C124.346 68.0245 121.69 68.6571 119.223 68.4673C117.326 68.3407 115.365 67.7084 114.227 66.7595C113.088 65.8105 113.215 64.2922 113.911 63.4068C114.606 62.5842 115.871 62.1416 117.263 62.9005C118.97 63.8493 120.361 64.0392 120.678 63.5331C120.931 63.027 120.298 62.7108 119.539 62.3945C119.033 62.2048 116.251 61.4457 114.986 59.8641C113.657 58.1561 113.405 55.8788 114.733 53.8546C116.061 51.8305 118.338 51.4508 120.235 51.5142C121.436 51.5774 122.891 51.8304 124.219 52.5263C125.611 53.2857 126.054 54.614 125.548 55.816Z" fill="#11A1AB"/>
<path d="M89.4357 64.4833L86.2102 58.8535L88.6769 55.5641C89.4357 54.4885 89.246 52.9705 88.1708 52.2114C87.0956 51.3891 85.5778 51.6422 84.8188 52.7174L81.0874 57.7782V54.3624C81.0874 52.9075 79.949 51.7686 78.4945 51.7686C77.0398 51.7686 75.9014 52.9707 75.9014 54.3624V65.812C75.9014 67.2668 77.0398 68.4054 78.4945 68.4054C79.949 68.4054 81.0874 67.2035 81.0874 65.812V64.1039L82.2891 62.5224L85.0086 67.2035C85.7042 68.4686 87.3487 68.9116 88.6135 68.1523C89.7519 67.3298 90.1314 65.7484 89.4357 64.4833Z" fill="#11A1AB"/>
<path d="M103.033 43.9869H98.4165V42.7219H101.642C102.78 42.7219 103.729 41.7731 103.729 40.6344C103.729 39.4325 102.78 38.5469 101.642 38.5469H98.4165V37.2817H103.033C104.361 37.2817 105.5 36.2062 105.5 34.8147C105.5 33.423 104.425 32.3477 103.033 32.3477H95.8234C94.3689 32.3477 93.2305 33.5496 93.2305 34.9412V46.3909C93.2305 47.8458 94.3689 48.9845 95.8234 48.9845H103.033C104.361 48.9845 105.5 47.909 105.5 46.5172C105.5 45.1256 104.361 43.9869 103.033 43.9869Z" fill="#11A1AB"/>
<path d="M52.2481 34.8142C52.2481 33.3594 51.1098 32.2207 49.655 32.2207C48.2005 32.2207 47.0622 33.4225 47.0622 34.8142V41.393C47.0622 42.7847 45.9236 43.9232 44.5323 43.9232C43.1409 43.9232 42.0657 42.7847 42.0657 41.393V34.8142C42.0657 33.3594 40.9274 32.2207 39.4727 32.2207C38.0181 32.2207 36.8799 33.4225 36.8799 34.8142V41.393C36.8799 45.6944 40.3582 49.1105 44.5957 49.1105C48.8962 49.1105 52.3115 45.6313 52.3115 41.393V34.8142H52.2481Z" fill="#11A1AB"/>
<path d="M133.77 36.2689C133.264 37.4708 131.936 37.9769 130.482 37.4075C129.47 37.028 127.825 36.4587 127.446 37.028C127.003 37.787 128.9 38.2299 129.659 38.4829C130.355 38.736 132.126 39.3685 133.138 40.5072C134.15 41.709 134.909 43.7966 133.77 46.0739C132.568 48.4777 129.912 49.1103 127.446 48.9204C125.548 48.794 123.588 48.2246 122.449 47.2126C121.311 46.2638 121.437 44.7455 122.133 43.8597C122.829 43.0374 124.094 42.5947 125.485 43.3537C127.193 44.3025 128.584 44.4923 128.9 43.9862C129.153 43.4802 128.521 43.164 127.762 42.8477C127.256 42.6579 124.473 41.8989 123.208 40.3174C121.88 38.6095 121.627 36.3322 122.956 34.3078C124.284 32.2836 126.56 31.9041 128.458 31.9673C129.659 32.0306 131.114 32.2836 132.442 32.9795C133.77 33.7386 134.276 35.067 133.77 36.2689Z" fill="#11A1AB"/>
<path d="M76.028 34.8142C76.028 33.3594 74.8894 32.2207 73.4349 32.2207C71.9802 32.2207 70.8418 33.4225 70.8418 34.8142V46.2639C70.8418 47.7187 71.9802 48.8574 73.4349 48.8574C74.8894 48.8574 76.028 47.6553 76.028 46.2639V34.8142Z" fill="#11A1AB"/>
<path d="M161.723 43.607H157.296V34.8142C157.296 33.3594 156.158 32.2207 154.703 32.2207C153.249 32.2207 152.11 33.4225 152.11 34.8142V46.2639C152.11 47.7187 153.249 48.8574 154.703 48.8574H161.787C163.241 48.8574 164.38 47.7187 164.38 46.2639C164.38 44.8088 163.178 43.607 161.723 43.607Z" fill="#11A1AB"/>
<path d="M141.611 41.8987L142.939 38.1665L144.331 41.8987H141.611ZM139.208 34.8772C138.512 36.7116 135.034 45.6309 135.034 45.6309C134.528 46.8959 135.16 48.2875 136.425 48.7303C137.69 49.2364 139.082 48.6038 139.524 47.3388L139.967 46.1369H145.975L146.418 47.3388C146.924 48.6038 148.252 49.1732 149.517 48.7303C150.782 48.2243 151.351 46.8326 150.908 45.6309C150.908 45.6309 147.493 36.7116 146.734 34.8772C146.102 33.1691 144.71 32.0938 142.94 32.0938C141.169 32.0938 139.841 33.1691 139.208 34.8772Z" fill="#11A1AB"/>
<path d="M66.6042 32.2207C65.1497 32.2207 64.0114 33.4225 64.0114 34.8142V39.4954L58.3826 33.1063C57.8767 32.537 57.1809 32.2207 56.4221 32.2207C54.9674 32.2207 53.8291 33.4225 53.8291 34.8142V46.2639C53.8291 47.7187 54.9674 48.8574 56.4221 48.8574C57.8767 48.8574 59.015 47.6553 59.015 46.2639V41.5827L64.7703 48.0981C65.2131 48.6041 65.9088 48.8572 66.6043 48.8572C68.0591 48.8572 69.1974 47.6552 69.1974 46.2637V34.8141C69.2605 33.4225 68.059 32.2207 66.6042 32.2207Z" fill="#11A1AB"/>
<path d="M114.796 37.0916C115.429 37.0916 115.935 37.5978 115.935 38.2303C115.935 38.8628 115.429 39.3689 114.796 39.3689H111.95V37.0916H114.796ZM118.464 42.9114C119.856 41.836 120.741 40.1279 120.741 38.2303C120.741 34.9409 118.085 32.2207 114.733 32.2207H109.294C107.84 32.2207 106.701 33.4225 106.701 34.8142V46.2639C106.701 47.7187 107.84 48.8574 109.294 48.8574C110.749 48.8574 111.887 47.6553 111.887 46.2639V44.2395H112.773L116.061 48.035C117.01 49.1104 118.591 49.2368 119.666 48.2877C120.741 47.3392 120.868 45.7576 119.919 44.6823L118.464 42.9114Z" fill="#11A1AB"/>
<path d="M90.4478 32.4732C89.1197 31.9039 87.6019 32.5364 87.0326 33.8649L84.6294 39.6213L82.226 33.8649C81.6567 32.5364 80.1389 31.9039 78.8109 32.4732C77.4827 33.0426 76.8502 34.5608 77.4195 35.8891L82.226 47.3389C82.6687 48.351 83.6174 48.9201 84.6294 48.9201C85.6412 48.9201 86.5898 48.3508 87.0326 47.3389L91.8391 35.8891C92.4083 34.5608 91.776 33.0426 90.4478 32.4732Z" fill="#11A1AB"/>
<path d="M143.952 58.5995C144.458 56.7016 143.383 54.6777 141.422 54.1714C139.525 53.6652 137.501 54.7408 136.995 56.7016V56.765C134.781 64.7355 129.975 72.0101 122.765 77.2603C105.879 89.5325 82.2257 85.737 70.0196 68.8472C67.3634 65.1782 65.4028 61.1296 64.2644 56.9548C64.2644 56.8917 64.2012 56.765 64.2012 56.7016C63.6952 54.8039 61.6713 53.6652 59.7741 54.1714C57.8768 54.6777 56.7382 56.7016 57.2443 58.5995C58.6357 63.6602 60.9126 68.531 64.201 73.0223C78.8105 93.138 106.891 97.6293 127.002 83.017C135.604 76.7542 141.296 68.0881 143.952 58.5995Z" fill="#FEEF34"/>
<path d="M137.817 21.4043C137.817 21.4043 137.248 20.582 136.932 20.2025C122.386 0.0866055 94.2422 -4.40477 74.194 10.1445C69.8302 13.3075 66.162 17.166 63.3161 21.4043C62.1777 23.049 62.6837 25.263 64.3281 26.4017C65.9723 27.5402 68.186 27.0976 69.3244 25.4528C69.3877 25.3895 69.3877 25.3264 69.4509 25.263C71.8541 21.7838 74.8267 18.621 78.4316 16.0275C95.3177 3.75556 118.971 7.55089 131.177 24.4407C131.43 24.757 131.62 25.0732 131.873 25.4529C132.948 27.0976 135.225 27.5404 136.869 26.4018C138.513 25.263 138.956 23.049 137.817 21.4043Z" fill="#FEEF34"/>
</svg>
