<svg width="201" height="91" viewBox="0 0 201 91" fill="none" xmlns="http://www.w3.org/2000/svg">
<path d="M142.008 2.76163C141.366 2.24537 140.21 1.72912 138.455 1.25589C133.702 -0.0777622 102.534 1.72912 101.335 1.85818C100.179 1.94423 100.65 3.70809 100.65 3.70809C101.378 3.70809 102.192 3.70809 103.091 3.70809C111.825 3.75111 123.127 4.3534 127.152 5.68706C130.406 6.76258 130.063 7.49394 130.063 7.49394L123.299 38.1249C121.543 46.2989 112.51 66.2607 87.5495 67.2071C87.2069 66.0026 87.1213 64.1096 87.2069 61.9586C87.2926 58.3448 88.3201 51.7626 88.3201 51.7626C88.9195 47.9337 89.6473 44.363 90.1183 42.1259L94.4852 21.6909C90.418 13.3448 79.158 10.4194 73.9776 10.8926C73.5494 10.9356 73.2069 11.2798 73.0785 11.796L67.6412 38.254C66.3996 44.0618 64.3017 69.057 92.5586 69.057C117.99 69.057 131.262 48.536 134.002 38.211V38.254L142.779 4.61153C142.864 4.1383 142.822 3.40694 142.008 2.76163Z" fill="#ED1C24"/>
<path d="M68.2835 84.2857C68.2835 86.0065 66.9135 87.3832 65.201 87.3832C63.4884 87.3832 62.1184 86.0065 62.1184 84.2857V77.4453H58.9502V84.2857C58.9502 87.7704 61.7331 90.5667 65.201 90.5667C68.6689 90.5667 71.4517 87.7704 71.4517 84.2857V77.4453H68.2835V84.2857Z" fill="#ED1C24"/>
<path d="M80.3142 77.1016C76.8464 77.1016 74.0635 79.8979 74.0635 83.3826V90.223H77.2317V83.3826C77.2317 81.6618 78.6017 80.2851 80.3142 80.2851C82.0268 80.2851 83.3968 81.6618 83.3968 83.3826V90.223H86.565V83.3826C86.565 79.8979 83.7393 77.1016 80.3142 77.1016Z" fill="#ED1C24"/>
<path d="M92.6868 77.4883H89.5186V90.2225H92.6868V77.4883Z" fill="#ED1C24"/>
<path d="M125.354 72.3691L117.776 73.9609L117.348 75.5527H123.898L125.354 72.3691Z" fill="#ED1C24"/>
<path d="M130.705 80.6729C130.791 80.3288 131.133 80.1137 131.818 80.1137C133.103 80.1137 134.558 80.5009 135.671 81.4043L138.497 78.3928C137.17 77.1882 135.329 76.5859 132.675 76.5859C128.907 76.5859 126.467 78.5219 125.953 81.0601V81.1031C125.396 83.8995 127.922 84.7599 130.834 85.3622C132.246 85.6634 132.632 85.8355 132.546 86.2227V86.2657C132.46 86.6098 132.075 86.8249 131.262 86.8249C129.635 86.8249 128.051 86.3517 126.766 85.2762L124.84 87.0831L122.485 76.758H117.947L110.883 87.8575L113.152 76.715H107.286L104.418 81.4043L104.246 80.6299C103.476 76.8441 100.008 76.715 99.5369 76.715H97.5675L94.9131 90.1806H99.4085L100.779 83.5553L101.635 89.1481H104.118L107.243 83.5553L105.831 90.1806H109.47H110.454H114.35L115.421 88.4167H120.216L120.558 90.1806H125.525L125.311 89.2771C126.681 90.0085 128.393 90.3527 130.32 90.3527C134.002 90.3527 136.699 88.6318 137.256 85.8785V85.8355C137.812 83.1682 135.671 82.1787 132.289 81.5334C130.919 81.3183 130.62 81.1031 130.705 80.6729ZM117.219 85.2762L119.146 82.0496L119.745 85.2762H117.219Z" fill="black"/>
</svg>
