<svg width="201" height="91" viewBox="0 0 201 91" fill="none" xmlns="http://www.w3.org/2000/svg">
<path d="M139.408 43.4939C139.843 46.9201 138.387 53.8593 130.47 53.8593H72.6453C66.0393 53.8593 61.7005 48.5064 63.6055 42.1177C64.2678 40.1277 65.6067 38.4327 67.3893 37.3277C69.1719 36.2227 71.2855 35.7774 73.3624 36.0694H73.5145L73.3914 35.9752C67.4373 31.5929 69.7697 24.6972 72.5801 22.2127C74.2712 20.7585 76.4407 19.982 78.6704 20.0328C80.9001 20.0836 83.032 20.9582 84.655 22.4879L84.7781 22.6038L84.7129 22.4879C82.9745 18.1418 85.1693 11.8762 91.051 10.6521C93.1426 10.1494 95.3456 10.4231 97.2507 11.4223C99.1558 12.4215 100.633 14.0782 101.409 16.0847C102.293 13.535 104.306 11.3764 107.979 10.5869C113.144 9.46417 120.546 13.9986 117.924 22.4372L117.881 22.5821L117.982 22.4734C119.47 20.908 121.505 19.9771 123.663 19.8746C125.82 19.772 127.934 20.5057 129.564 21.9229C132.802 24.574 135.04 31.8609 129.564 35.8086L129.441 35.9028H129.593C134.555 35.1785 138.836 38.9161 139.437 43.5374" fill="white"/>
<path fill-rule="evenodd" clip-rule="evenodd" d="M98.5045 52.9544L76.6872 38.424C75.6715 37.6964 74.4988 37.2179 73.264 37.0271C72.0292 36.8362 70.7669 36.9385 69.5789 37.3256C68.3909 37.7126 67.3105 38.3737 66.4252 39.2553C65.5398 40.1369 64.8741 41.2144 64.482 42.4007C62.7653 48.1955 66.6115 52.9617 72.6454 52.9617H98.5045" fill="#FFB301"/>
<path fill-rule="evenodd" clip-rule="evenodd" d="M128.963 22.632C124.508 19.0682 118.822 20.8501 116.41 26.4058L106.189 50.4903L128.84 35.1921C133.845 31.7587 131.998 25.102 128.977 22.632" fill="#0670B0"/>
<path fill-rule="evenodd" clip-rule="evenodd" d="M116.889 22.6335C119.706 14.6657 112.912 10.4283 108.197 11.4568C103.481 12.4854 101.822 16.1216 101.822 19.6854H103.945C103.945 19.6854 105.256 19.6854 105.726 20.2359C105.726 20.2359 102.3 21.4745 102.438 23.5969C102.576 26.3421 103.054 27.4359 103.887 32.5136C105.053 39.757 106.357 47.6741 106.357 47.6741C107.038 46.2254 116.918 22.7059 116.918 22.6335" fill="#533A98"/>
<path fill-rule="evenodd" clip-rule="evenodd" d="M138.496 43.6308C137.815 38.3431 131.846 34.3664 126.015 38.2779C126.015 38.2779 104.285 52.9531 104.061 52.9531H130.47C137.54 52.9531 138.909 46.8541 138.496 43.6308Z" fill="#33A02C"/>
<path fill-rule="evenodd" clip-rule="evenodd" d="M100.836 20.2361C101.727 14.6079 96.7219 10.356 91.2314 11.544C85.9509 12.645 83.9879 18.3383 85.6105 22.2498L96.4757 47.9713L100.865 20.2578" fill="#CA0026"/>
<path fill-rule="evenodd" clip-rule="evenodd" d="M96.5855 50.6223L86.0245 26.0669C85.5437 24.869 84.7846 23.8028 83.8101 22.9562C82.8356 22.1097 81.6736 21.5073 80.4202 21.1987C79.1668 20.8902 77.858 20.8843 76.6018 21.1817C75.3457 21.479 74.1784 22.071 73.1964 22.9088C70.5887 25.2412 68.5316 31.6009 74.2901 35.5341L96.5855 50.6223Z" fill="#FF4D01"/>
<path d="M70.7181 59.3068H75.7885V81.5732H70.7181V59.3068ZM139.748 71.8814C143.16 73.2577 143.841 74.011 143.841 75.2859C143.841 76.5607 143.059 77.3503 141.161 77.3503C138.909 77.2342 136.733 76.4971 134.873 75.2207V80.3346C136.746 81.3718 138.854 81.9105 140.994 81.8992C146.267 81.8992 148.962 78.5599 148.962 75.0251C148.962 70.44 145.065 69.2955 141.653 67.6947C140.61 67.2022 139.43 66.6082 139.43 65.2682C139.43 64.2179 140.284 63.269 142.247 63.269C144.127 63.4188 145.934 64.0635 147.484 65.1378V60.1977C145.852 59.4051 144.062 58.9892 142.247 58.9808C137.104 58.9808 134.388 62.1245 134.388 65.3334C134.388 67.9845 135.895 70.3096 139.756 71.8525M63.2211 70.3458L50.125 58.4883V81.5732H55.036V69.8822L68.1322 82.3917V59.3068H63.2211V70.3458ZM42.6425 72.0843C42.6425 75.2569 41.3314 76.9881 38.3833 76.9881C35.4352 76.9881 34.1241 75.2569 34.1241 72.0843V59.3068H28.8799V72.5696C28.8799 78.7917 32.3857 81.8847 38.3761 81.8847C44.3664 81.8847 47.8722 78.7772 47.8722 72.5551V59.3068H42.6425V72.0843ZM100.257 81.5732H114.353V76.8142H105.327V72.2291H113.512V67.8106H105.327V64.044H114.353V59.2923H100.25L100.257 81.5732ZM88.03 71.4324L82.9596 59.314H77.4111L88.0227 82.3917L98.6634 59.3068H93.1004L88.03 71.4324ZM161.805 58.8287C168.519 58.8287 173.756 63.7398 173.756 70.4183C173.756 76.9374 168.686 82.044 161.805 82.044C154.923 82.044 149.853 76.9736 149.853 70.4183C149.853 63.7108 155.097 58.8287 161.805 58.8287ZM161.805 77.1619C165.571 77.1619 168.027 74.2138 168.027 70.4472C168.027 66.6806 165.535 63.7398 161.805 63.7398C158.074 63.7398 155.582 66.6806 155.582 70.4472C155.582 74.2138 158.045 77.1619 161.805 77.1619ZM121.785 81.5804H116.714V59.3068H124.414C128.666 59.3068 131.94 61.603 131.94 65.8259C131.94 68.9406 129.68 71.2947 126.703 72.2146L134.062 81.5442H128.188L121.777 73.1925L121.785 81.5804ZM121.785 69.1362H123.581C123.983 69.1665 124.387 69.1125 124.767 68.9778C125.147 68.8431 125.495 68.6305 125.788 68.3537C126.081 68.0769 126.313 67.742 126.469 67.3703C126.626 66.9986 126.703 66.5984 126.696 66.1953C126.696 64.5873 125.247 63.5732 123.581 63.5732H121.785V69.1362Z" fill="black"/>
</svg>
