<svg width="201" height="91" viewBox="0 0 201 91" fill="none" xmlns="http://www.w3.org/2000/svg">
<path fill-rule="evenodd" clip-rule="evenodd" d="M97.9844 57.2659H93.1423V38.9726H97.9844V57.2659ZM129.037 57.2659H124.195V38.9726H129.037V57.2659ZM156.103 57.2659H151.261V38.9726H156.103V57.2659ZM75.9712 57.2659H71.116V47.3326C71.116 42.6659 74.0896 38.5859 80.037 38.5859C85.5633 38.5859 88.7607 42.6926 88.7607 47.3326V57.2659H83.9054V47.1459C83.9054 44.8793 82.1554 43.1459 79.9186 43.1459C79.3952 43.1294 78.8739 43.2214 78.3869 43.4164C77.8999 43.6114 77.4573 43.9052 77.0864 44.2798C76.7155 44.6544 76.4241 45.1019 76.2301 45.5948C76.036 46.0876 75.9435 46.6155 75.9581 47.1459V57.2793L75.9712 57.2659ZM187.09 57.2659H182.248V47.3326C182.248 42.6659 185.221 38.5859 191.169 38.5859C196.695 38.5859 199.879 42.6926 199.879 47.3326V57.2659H195.05V47.1459C195.05 44.8793 193.287 43.1459 191.063 43.1459C190.539 43.1275 190.016 43.2182 189.528 43.4123C189.039 43.6065 188.595 43.9 188.223 44.2748C187.85 44.6496 187.558 45.0977 187.363 45.5915C187.168 46.0853 187.075 46.6143 187.09 47.1459V57.2793V57.2659ZM111.09 50.1459L116.037 38.9726H121.063L112.774 57.2659H109.419L101.142 38.9726H106.142L111.103 50.1459H111.09ZM135.274 51.6926C136.66 52.8684 138.414 53.5064 140.221 53.4926C141.524 53.4926 142.524 52.8526 142.524 51.9593C142.524 49.1993 133.787 50.1859 133.787 44.2926C133.787 40.7726 137.129 38.5859 140.708 38.5859C143.05 38.5859 145.616 39.4926 146.813 40.4393L144.55 43.9859C143.545 43.2209 142.333 42.7879 141.076 42.7459C139.748 42.7459 138.616 43.2793 138.616 44.2126C138.616 46.5993 147.366 45.6393 147.366 51.9993C147.366 55.5059 143.984 57.6526 140.182 57.6526C137.695 57.6526 135.05 56.7859 132.945 55.1993L135.274 51.6926ZM169.182 53.1193C172.011 53.1193 173.945 50.8926 173.945 48.1459C173.945 45.3859 172.011 43.1193 169.182 43.1193C166.366 43.1193 164.419 45.3859 164.419 48.1459C164.419 50.8926 166.366 53.1193 169.182 53.1193ZM169.182 38.5859C174.655 38.5859 178.774 42.8526 178.774 48.1459C178.778 49.4136 178.531 50.6691 178.047 51.8383C177.564 53.0075 176.854 54.0666 175.96 54.953C175.066 55.8393 174.005 56.5349 172.841 56.9986C171.677 57.4623 170.432 57.6847 169.182 57.6526C166.687 57.6526 164.294 56.6482 162.529 54.8604C160.765 53.0725 159.774 50.6477 159.774 48.1193C159.774 45.5909 160.765 43.166 162.529 41.3782C164.294 39.5903 166.687 38.5859 169.182 38.5859ZM62.3133 38.9726H67.1554V48.9059C67.1554 53.5726 64.1686 57.6526 58.2212 57.6526C57.0708 57.7029 55.9226 57.5117 54.8486 57.091C53.7745 56.6703 52.7979 56.0291 51.98 55.2078C51.1621 54.3865 50.5206 53.4028 50.0956 52.3183C49.6707 51.2338 49.4715 50.0721 49.5107 48.9059V38.9726H54.3396V49.1059C54.3396 49.6346 54.443 50.158 54.6438 50.646C54.8447 51.1339 55.139 51.5766 55.5097 51.9486C55.8805 52.3206 56.3203 52.6144 56.8038 52.813C57.2872 53.0117 57.8048 53.1112 58.3265 53.1059C60.4317 53.1059 62.3133 51.5993 62.3133 49.1059V38.9726Z" fill="#6D6D6D"/>
<path fill-rule="evenodd" clip-rule="evenodd" d="M16.6953 28.5996V50.7063C17.7743 50.7063 23.84 50.8663 28.9716 50.3996C30.2611 50.2663 31.5243 50.1063 32.7348 49.8929C35.6822 49.3196 38.169 48.4263 39.0374 47.6929V30.7996C36.7874 29.1063 27.3269 28.5996 16.6953 28.5996Z" fill="#00C56E"/>
<path fill-rule="evenodd" clip-rule="evenodd" d="M39.0374 47.9867V47.6934C38.169 48.4267 35.6822 49.32 32.7216 49.8934C31.5374 50.0934 30.2611 50.2667 28.9716 50.4C23.84 50.8667 17.7874 50.7067 16.6953 50.7067V51.0934L16.7216 53.5734L16.7479 54.28C16.7743 55.3467 16.8269 56.4134 16.8927 57.4534C17.0243 59.64 17.2743 61.6934 17.6427 63.4C18.0637 65.3067 18.6558 66.8 19.4848 67.5867L19.5243 67.6267L20.34 67.6534C26.6822 67.6534 32.2743 64.4534 35.6558 59.56C36.9462 57.5816 37.8692 55.3811 38.3795 53.0667C38.8137 51.4667 39.0374 49.76 39.0374 48V47.9867Z" fill="#1717EF"/>
<path fill-rule="evenodd" clip-rule="evenodd" d="M19.485 67.586C18.6561 66.7994 18.064 65.3194 17.6429 63.3994C17.2499 61.4384 16.9992 59.4508 16.8929 57.4527C16.7523 55.3313 16.6864 53.2055 16.6956 51.0794V50.706C11.7745 50.706 7.4982 50.3327 5.45873 49.9594C3.31399 49.5594 1.89294 48.7594 1.64294 48.3594C1.56835 52.3741 2.76245 56.3078 5.05084 59.586C6.6939 61.9606 8.85369 63.9207 11.3633 65.3147C13.873 66.7088 16.6653 67.4996 19.5245 67.626L19.485 67.586Z" fill="#FF161F"/>
<path fill-rule="evenodd" clip-rule="evenodd" d="M2.36626 29.9062C1.97153 29.9062 1.64258 30.2396 1.64258 30.6396V48.3596C1.89258 48.7596 3.31363 49.5596 5.45837 49.9596L6.62942 50.1329C8.90574 50.4396 12.5636 50.7063 16.6952 50.7063V37.0796C12.0373 30.9996 4.82679 29.9062 2.36626 29.9062Z" fill="#E621BB"/>
</svg>
