<svg width="201" height="91" viewBox="0 0 201 91" fill="none" xmlns="http://www.w3.org/2000/svg">
<path fill-rule="evenodd" clip-rule="evenodd" d="M74.2106 0.234375C49.324 0.234375 28.8799 20.3996 28.8799 45.2465C28.8799 70.0928 49.0552 90.2344 73.9419 90.2344C98.8301 90.2344 119.006 70.0928 119.006 45.2462C119.006 20.3993 99.0989 0.234375 74.2106 0.234375ZM163.001 5.98286L162.197 27.1031L147.735 11.5018L137.965 15.0859L159.254 38.2704C161.052 40.2773 163.147 41.3325 165.23 41.3325C165.948 41.3325 166.665 41.2074 167.368 40.9519C170.088 39.9632 171.693 37.284 171.769 33.6063L172.684 2.46336L163.001 5.98286" fill="#49CAC6"/>
<path fill-rule="evenodd" clip-rule="evenodd" d="M149.772 35.4863L149.245 35.8487C147.798 36.8429 146.086 37.9441 144.358 38.5721C142.084 39.3987 139.081 39.577 137.68 35.7356L134.271 26.3817L140.523 24.0846L137.331 15.3262L131.075 17.6145L127.885 8.86133L117.723 12.5546L120.914 21.3091L115.291 23.3527L118.487 32.1211L124.11 30.0772L127.543 39.495C129.051 43.6346 131.58 46.7051 134.855 48.3759C136.646 49.2897 138.588 49.7484 140.613 49.7484C142.31 49.7484 144.067 49.4259 145.844 48.7801C148.945 47.6533 150.613 46.7048 153.954 44.1682L154.349 43.8683L149.772 35.4863Z" fill="#49CAC6"/>
<path fill-rule="evenodd" clip-rule="evenodd" d="M105.212 52.232L92.8784 56.7152L95.9558 65.1588L85.9736 68.7873L71.4415 28.9161L93.7574 20.8054C102.404 17.6623 111.509 22.693 114.564 31.0741C117.619 39.4539 113.859 49.0895 105.212 52.232ZM97.391 30.7729L85.0566 35.2559L89.2449 46.7477L101.579 42.2644C104.63 41.1551 105.601 37.4956 104.583 34.7015C103.565 31.9085 100.442 29.6643 97.391 30.7729ZM64.7666 77.5735C53.895 81.5258 42.3325 75.0868 38.4909 64.5475L30.8545 43.5971L40.8357 39.969L48.4721 60.9197C50.3007 65.9356 55.7697 69.4836 61.1104 67.5425C66.4511 65.6017 68.3563 59.3731 66.5287 54.3566L58.8929 33.4055L68.8741 29.7781L76.5102 50.7291C80.3521 61.2678 75.6389 73.6219 64.7666 77.5735Z" fill="white"/>
</svg>
