<svg width="201" height="91" viewBox="0 0 201 91" fill="none" xmlns="http://www.w3.org/2000/svg">
<path d="M88.4179 51.5645C87.58 51.235 86.751 50.8739 85.9481 50.4782C84.4289 49.7192 82.9659 48.8224 81.6474 47.7389C79.2364 45.7386 77.4711 43.1176 76.4198 40.1699C75.3447 37.1539 74.9635 33.8672 75.1552 30.6734C75.3525 27.2589 76.2698 23.8945 77.9629 20.9124C79.2989 18.5736 81.0399 16.4909 83.1048 14.7614C79.3081 14.7614 65.0747 14.7675 65.0747 14.7675C65.0747 14.7675 65.0452 33.7839 65.0452 41.3601V47.0349C65.0452 48.7935 65.008 50.5588 64.7952 52.3047C64.409 55.4068 63.4061 59.0196 60.4778 60.6571C59.0615 61.4489 57.4096 61.6851 55.8054 61.6267C54.2013 61.5684 52.5677 61.1622 51.2741 60.1648C48.7109 58.1956 47.903 54.6578 47.618 51.6023C47.4513 49.9104 47.4513 48.2129 47.4513 46.5148V14.7675L28.8927 14.758C28.8927 14.758 28.9055 40.0643 28.8811 47.6406C28.8699 51.325 28.9227 55.0357 29.6901 58.654C30.3569 61.849 31.547 64.9673 33.3918 67.6694C35.1749 70.292 37.5669 72.4273 40.3218 73.982C43.2806 75.659 46.5961 76.6258 49.9522 77.1164C53.3233 77.6115 56.7906 77.6721 60.1839 77.3848C63.4277 77.1037 66.6577 76.448 69.6649 75.1983C72.5237 74.0076 75.123 72.2773 77.2216 69.9975C79.2181 67.8205 80.7261 65.2262 81.7279 62.4568C81.8079 62.2346 81.888 62.0023 81.9619 61.7784C84.1689 63.9532 86.5932 65.9724 89.3664 67.3849C92.0929 68.7829 95.2918 69.6124 98.3573 69.0713C99.8736 68.8029 101.328 68.155 102.443 67.0843C103.505 66.0628 104.215 64.7291 104.467 63.277C104.707 61.914 104.578 60.4699 103.972 59.2124C103.412 58.0578 102.487 57.121 101.427 56.4064C99.8998 55.3635 98.0878 54.7267 96.3292 54.1544C94.3716 53.5154 91.4395 52.658 90.7366 52.413C90.0248 52.1719 88.803 51.7212 88.4168 51.5645M143.051 61.5139C140.255 61.5139 137.602 60.3993 135.523 58.569C133.286 56.607 131.757 53.9338 130.931 51.0878C129.257 45.2891 130.618 38.468 134.996 34.1673C137.052 32.1497 139.752 30.889 142.647 30.804C145.541 30.7189 148.399 31.7919 150.604 33.6605C154.433 36.9127 156.184 42.2041 155.94 47.1299C155.692 52.0752 153.351 57.1204 149.039 59.7959C147.241 60.912 145.167 61.5067 143.051 61.5139ZM154.981 20.6079C151.04 16.8411 145.727 14.7908 140.312 14.5969C134.909 14.3969 129.447 15.986 125.032 19.1121C121.167 21.8503 118.169 25.6954 116.11 29.9305C113.576 27.6935 110.956 25.5281 107.791 24.249C104.851 23.0538 101.29 22.5032 98.295 23.8517C96.9404 24.4602 95.7735 25.4525 95.0262 26.7411C94.2705 28.053 93.9632 29.6177 94.1277 31.1235C94.2823 32.5627 94.9355 33.9025 95.9741 34.9107C97.0771 35.9848 98.4795 36.6888 99.8942 37.2639C101.518 37.9307 103.206 38.4024 104.881 38.9103C106.479 39.3981 108.069 39.8993 109.63 40.4922C112.649 41.6407 115.617 43.1437 117.961 45.4069C122.656 49.9632 124.171 56.8665 123.384 63.202C123.168 64.9903 122.736 66.7459 122.099 68.4306C121.944 68.8262 121.788 69.2207 121.613 69.6052C121.564 69.7075 121.492 69.9047 121.492 69.9047C121.492 69.9047 121.872 70.3215 122.04 70.4837C122.57 71.0127 123.129 71.5166 123.707 71.9978C125.853 73.7645 128.277 75.1635 130.88 76.1379C136.041 78.0749 141.863 78.3716 147.109 76.5825C150.05 75.5778 152.81 73.9187 154.982 71.6778V76.887H172.88V15.4315H154.981V20.6079Z" fill="#F83837"/>
</svg>
