<svg width="201" height="91" viewBox="0 0 201 91" fill="none" xmlns="http://www.w3.org/2000/svg">
<path d="M84.2559 50.3847C84.5278 49.5131 84.8077 48.6415 85.0795 47.77C87.7502 39.2301 90.4209 30.6982 93.0916 22.1584C95.0347 15.9294 96.9858 9.70837 98.9288 3.47938C99.1047 2.91965 99.4086 2.47187 99.8484 2.11204C100.752 1.3684 101.775 0.952604 102.967 0.9606C105.861 0.968596 108.748 0.992585 111.643 0.952604C113.258 0.928615 113.962 2.04008 113.506 3.47139C111.427 10.0602 109.372 16.657 107.309 23.2458C105.198 30.0026 103.079 36.7673 100.968 43.524C97.9453 53.1754 94.9308 62.8347 91.9002 72.486C91.7723 72.8858 91.5164 73.2377 91.3085 73.6055C91.2445 73.7174 91.1486 73.8134 91.0926 73.9333C90.7888 74.589 90.245 74.8929 89.5574 74.9008C85.9991 74.9168 82.4408 74.9168 78.8825 74.9008C78.1949 74.9008 77.7471 74.517 77.3313 73.9493C76.3957 72.6779 76.1318 71.1746 75.6841 69.7353C72.0698 58.2449 68.4875 46.7385 64.8893 35.24C62.3385 27.084 59.7957 18.9279 57.253 10.7639C56.4854 8.30905 55.7177 5.86223 54.9581 3.40742C54.8621 3.07958 54.7902 2.71975 54.8222 2.39191C54.9021 1.50434 55.5578 0.9606 56.5333 0.944608C57.4289 0.928615 58.3165 0.944608 59.212 0.944608C61.331 0.944608 63.45 0.952604 65.569 0.944608C66.6724 0.936612 67.632 1.31243 68.4795 1.98411C69.0073 2.39191 69.3511 2.91965 69.559 3.57534C73.0693 14.8339 76.5876 26.0924 80.1059 37.351C81.4253 41.581 82.7526 45.8109 84.072 50.0409C84.104 50.1528 84.144 50.2728 84.176 50.3847C84.2079 50.3847 84.2319 50.3847 84.2559 50.3847Z" fill="#E47622"/>
<path d="M114.073 52.1378C114.073 53.0254 114.025 53.8729 114.081 54.7205C114.225 56.7915 114.713 58.7746 115.745 60.5897C116.728 62.3249 118.071 63.6602 120.015 64.2999C121.414 64.7637 122.821 64.6757 124.229 64.3159C125.756 63.9241 127.187 63.2604 128.626 62.6447C128.69 62.6207 128.754 62.5967 128.81 62.5647C130.242 61.7891 131.777 61.6852 133.352 61.8371C135.191 62.021 136.862 62.6127 138.246 63.8681C139.717 65.2035 140.525 66.8427 140.373 68.8657C140.373 68.8657 140.357 71.0806 137.95 72.328C137.95 72.328 136.223 73.8793 134.488 74.7109C132.688 75.5745 130.601 76.1582 129.506 76.3741C125.724 77.1257 121.958 76.9338 118.215 76.0702C114.993 75.3266 112.01 74.0552 109.388 72.0162C105.653 69.1136 103.335 65.3074 102.215 60.7416C101.535 57.975 101.408 55.1603 101.631 52.3297C101.855 49.4431 102.623 46.6764 103.375 43.9018C103.95 41.7668 104.542 39.6398 105.414 37.6008C106.869 34.1705 108.812 31.084 111.619 28.5972C114.241 26.2703 117.28 24.775 120.742 24.1993C121.99 23.9914 123.261 23.8315 124.516 23.8635C130.314 24.0154 135.623 25.6386 140.133 29.4048C143.715 32.3953 145.818 36.2495 146.61 40.8393C146.986 42.9902 147.025 45.1572 146.826 47.3321C146.562 50.1228 145.938 52.8494 145.034 55.5042C144.851 56.0559 144.675 56.6236 144.451 57.1594C143.747 58.8625 142.14 59.6621 140.197 59.1664C134.719 57.7591 129.266 56.2398 123.805 54.7605C120.71 53.9209 117.616 53.0813 114.513 52.2497C114.377 52.2018 114.241 52.1698 114.073 52.1378ZM117.104 42.0787C122.901 43.6459 128.594 45.1812 134.32 46.7324C134.328 46.5805 134.344 46.4845 134.336 46.3966C134.272 45.6529 134.232 44.9093 134.12 44.1736C133.84 42.2945 133.248 40.5274 132.169 38.9442C131.009 37.249 129.482 36.0656 127.419 35.7217C125.556 35.4179 123.829 35.8816 122.213 36.8172C120.494 37.8167 119.119 39.2 117.968 40.8073C117.672 41.1991 117.416 41.6149 117.104 42.0787Z" fill="#E47622"/>
<path d="M143.955 85.1755H142.411C142.411 85.1755 142.388 85.1675 142.38 85.1435C142.228 84.2799 141.588 84.128 140.964 84.112C140.676 84.104 140.364 84.12 140.061 84.2799C139.837 84.3999 139.669 84.5518 139.661 84.8237C139.653 85.1195 139.813 85.3194 140.053 85.4154C140.42 85.5673 140.804 85.6792 141.18 85.7992C141.7 85.9591 142.236 86.079 142.739 86.279C143.795 86.6948 144.259 87.4624 144.211 88.6298C144.171 89.5814 143.531 90.405 142.555 90.7088C141.628 90.9967 140.692 91.0047 139.765 90.7488C137.982 90.277 137.846 88.206 137.846 88.206L139.349 88.0941C139.349 88.0941 139.445 88.326 139.485 88.4539C139.837 89.5254 141.348 89.9572 142.22 89.2295C142.795 88.7498 142.707 88.0221 142.004 87.7502C141.532 87.5743 141.028 87.4864 140.548 87.3264C140.085 87.1745 139.605 87.0306 139.173 86.7987C138.397 86.3669 138.022 85.6632 138.11 84.7677C138.19 83.9601 138.621 83.3684 139.373 83.0565C140.468 82.6087 141.588 82.6167 142.675 83.0805C144.091 83.8321 143.955 85.1755 143.955 85.1755Z" fill="#3D7FCD"/>
<path d="M114.048 82.9121C114.608 82.9121 115.104 82.9121 115.664 82.9121C115.664 83.072 115.664 83.208 115.664 83.3519C115.664 84.6473 115.656 85.9346 115.664 87.23C115.664 87.6138 115.696 88.0056 115.728 88.3895C115.768 88.8372 116.008 89.1731 116.407 89.357C116.927 89.5969 117.471 89.6049 117.999 89.381C118.59 89.1331 118.67 88.5974 118.678 88.0456C118.686 86.5024 118.686 84.9511 118.686 83.4079C118.686 83.2559 118.686 83.096 118.686 82.9201C119.238 82.9201 119.742 82.9201 120.293 82.9201C120.301 83.056 120.317 83.2 120.317 83.3359C120.309 84.8951 120.309 86.4544 120.301 88.0136C120.301 88.2375 120.277 88.4694 120.253 88.6933C120.102 89.8527 119.51 90.5484 118.382 90.8043C117.583 90.9882 116.767 90.9802 115.968 90.7803C114.864 90.5004 114.216 89.7248 114.12 88.5974C114.08 88.0936 114.056 87.5898 114.048 87.0781C114.04 85.8547 114.048 84.6233 114.048 83.3999C114.048 83.2479 114.048 83.104 114.048 82.9121Z" fill="#3D7FCD"/>
<path d="M68.1035 82.9285C68.1755 82.9125 68.2235 82.8965 68.2794 82.8965C69.5028 82.9045 70.7262 82.9045 71.9497 82.9285C73.277 82.9525 74.2286 83.984 74.1166 85.4872C74.0127 86.9185 73.1891 87.6942 71.7418 87.7741C71.0781 87.8061 70.4144 87.7821 69.7107 87.7821C69.7107 88.8056 69.7107 89.7572 69.7107 90.7407C69.159 90.7407 68.6473 90.7407 68.1035 90.7407C68.1035 88.142 68.1035 85.5512 68.1035 82.9285ZM69.7267 86.4628C69.7267 86.4628 70.9901 86.4947 71.5978 86.4148C72.1496 86.3428 72.4934 85.8071 72.4614 85.2873C72.4294 84.7356 72.0376 84.2878 71.4619 84.2478C71.0141 84.2158 69.7267 84.2239 69.7267 84.2239V86.4628Z" fill="#3D7FCD"/>
<path d="M91.2695 90.7412C91.2695 88.1344 91.2695 85.5677 91.2695 82.9609C91.7973 82.9609 92.309 82.9609 92.8688 82.9609C92.8688 85.0959 92.8688 87.2229 92.8688 89.4058C94.1961 89.4058 95.4835 89.4058 96.7949 89.4058C96.7949 89.8776 96.7949 90.3014 96.7949 90.7412C94.9557 90.7412 93.1326 90.7412 91.2695 90.7412Z" fill="#3D7FCD"/>
</svg>
