<svg width="201" height="91" viewBox="0 0 201 91" fill="none" xmlns="http://www.w3.org/2000/svg">
<path fill-rule="evenodd" clip-rule="evenodd" d="M123.678 35.2168C124.875 36.5855 127.496 36.5228 129.056 37.5231C126.951 38.0638 124.302 38.0615 122.395 38.8017C122.844 37.628 123.248 36.4065 123.678 35.2168Z" fill="black"/>
<path fill-rule="evenodd" clip-rule="evenodd" d="M108.821 39.9551C108.191 42.8283 106.872 46.1144 106.132 49.3081C110.203 49.3662 114.497 48.537 118.679 48.2815C119.249 47.5241 119.523 46.4794 119.832 45.4642C120.672 46.6516 121.263 48.8746 120.473 50.5855C114.117 50.4977 109.547 55.7023 103.312 55.708C100.52 55.708 98.1459 54.1043 99.4679 50.9699C101.336 46.5455 105.969 43.4567 108.821 39.9562" fill="black"/>
<path fill-rule="evenodd" clip-rule="evenodd" d="M172.857 30.6065C173.013 31.2247 172.324 31.8178 171.964 32.2718C168.95 36.0598 165.608 40.5389 161.585 43.4133C161.875 44.9211 161.721 46.9195 161.197 48.0225C162.25 49.3672 163.364 50.6458 164.015 52.3796C163.161 56.9226 161.172 60.4494 157.999 62.7534C154.897 65.0004 150.708 65.8855 145.956 66.9794C136.769 69.0975 121.65 71.1859 114.834 65.6973C107.453 70.0316 92.537 70.6019 85.6341 65.4407C80.7294 71.6513 61.3676 71.1072 64.2477 58.7829C60.6582 61.4999 55.3509 65.2479 50.2855 67.3637C44.4125 69.8138 33.2904 69.5389 34.4025 61.2159C34.536 60.2247 34.9546 59.6646 35.4291 58.7829C33.7124 55.7831 32.6266 53.7038 31.5875 51.0964C30.5917 48.5973 29.0781 45.7538 28.8968 42.2612C28.5261 34.8347 34.3135 30.1263 40.0417 27.917C42.9673 26.7855 45.3432 25.1533 48.2392 24.3309C52.5667 23.0979 56.2782 25.4783 56.5657 29.4545C61.598 27.9603 67.7254 26.3121 74.3694 27.2759C79.6607 23.1629 89.9957 25.7042 96.7835 27.6592C98.3188 28.1017 100.386 29.2458 101.522 29.1967C102.485 29.1579 104.225 27.8508 105.234 27.4037C109.999 25.2913 116.227 23.0431 123.038 24.2031C124.327 24.421 125.507 25.1031 126.878 25.2297C127.811 25.3129 128.95 25.021 129.958 24.9742C145.872 24.1974 159.122 28.469 172.862 30.6088M128.294 30.0955C126.669 30.2928 125.514 32.0699 124.452 32.6573C124.529 32.6493 124.602 32.6368 124.577 32.5284C124.773 31.6536 125.147 30.9578 125.219 29.9689C116.695 26.9668 108.401 31.3559 102.293 34.7059C97.4097 37.384 93.0537 40.5309 89.9969 43.671C91.0919 41.7717 92.2894 39.9334 93.5841 38.1642C94.9095 36.3768 96.3877 34.7617 97.5545 33.1706C95.0019 32.5022 92.4423 31.7962 89.868 31.2475C86.2078 30.4696 81.1172 29.1785 78.0855 30.8643C77.2084 31.3502 76.4887 32.5501 75.6526 32.6573C74.9591 32.7474 73.8162 32.241 72.9619 32.1452C69.8321 31.803 66.9532 32.0882 64.1256 32.6573C61.4737 33.1854 55.8733 34.1276 55.1559 36.6278C54.6996 38.2246 55.7205 39.7838 55.5414 41.3693C55.3657 42.9285 53.8681 44.9907 53.1073 46.2351C52.1766 47.7601 51.2299 49.1106 49.649 49.82C48.6898 45.0489 49.7334 40.8092 50.5467 36.7578C51.0485 34.2644 52.0591 31.7118 51.1877 29.2001C48.7468 28.858 46.6891 30.797 44.271 31.7608C39.728 33.5789 34.6683 35.2351 34.025 40.4705C33.6634 43.419 34.7709 45.2941 35.5625 47.3871C37.1239 51.5749 39.2334 55.5372 41.8358 59.1708C41.1583 60.4163 39.5615 60.7402 39.3995 62.4979C40.1227 63.5245 41.6283 63.6556 43.1156 63.6522C47.4134 63.6419 50.9368 61.485 54.1282 59.6806C61.079 55.7717 65.7487 49.7505 70.651 44.0543C71.5133 43.0528 72.2216 41.8461 73.3429 41.2381C74.4447 46.2967 72.3015 49.0011 70.7788 53.1472C70.1914 54.7441 68.339 59.7422 69.2424 62.1101C70.2313 64.7152 78.6615 64.8282 80.8971 63.1366C82.024 62.2858 82.4723 60.3615 83.0768 59.1662C83.8479 57.6275 84.5163 56.2987 85.1299 54.9391C85.163 60.5497 89.3308 62.1979 93.8373 63.3921C103.418 65.9243 113.074 61.4006 118.299 58.2708C117.645 62.4272 119.26 62.8447 122.527 63.5176C130.968 65.2605 139.479 63.2484 146.349 61.5934C152.646 60.0764 157.711 59.0054 158.644 52.756C157.636 51.8834 155.116 51.9918 153.398 52.245C148.32 52.9875 143.4 55.5527 136.62 55.0623C135.384 54.9722 132.712 54.5399 132.514 53.7825C132.216 52.6009 134.339 51.7728 136.105 51.4774C141.187 50.6162 148.537 51.4853 152.623 49.9375C154.59 49.1961 156.957 47.0564 156.72 44.6907C156.565 43.0939 154.477 42.2533 152.5 42.1312C146.896 41.781 142.89 45.0523 137.008 43.9242C137.743 42.9935 137.875 41.464 138.799 40.7214C143.1 40.6313 147.279 41.4868 151.346 41.2347C157.005 40.88 160.197 38.4972 162.874 35.3423C163.16 35.0001 163.877 34.6374 163.641 34.0626C153.81 32.5672 140.411 28.6059 128.292 30.091" fill="black"/>
</svg>
