<svg width="201" height="91" viewBox="0 0 201 91" fill="none" xmlns="http://www.w3.org/2000/svg">
<path d="M36.5514 29.2656C36.5514 29.7803 36.5514 30.2583 36.5514 30.8098C36.1837 30.8098 35.8161 30.8098 35.4484 30.8098C35.0807 30.8098 34.7499 30.8466 34.3822 30.9201C33.9042 31.0304 33.6836 31.3613 33.7572 31.876C33.7939 32.0598 33.8675 32.2804 33.941 32.4643C35.7425 37.1335 37.5441 41.8028 39.3456 46.5088C39.3824 46.6191 39.4559 46.7294 39.5294 46.8765C39.9706 45.7367 40.375 44.6705 40.7795 43.6043C41.9192 40.6263 43.0589 37.6482 44.1987 34.707C44.309 34.4129 44.3458 34.1187 44.1987 33.8246C44.0149 33.3834 43.831 32.9422 43.684 32.4643C43.206 31.251 42.6913 30.8833 41.3677 30.8466C40.853 30.8466 40.3015 30.8466 39.7868 30.8466C39.7868 30.2951 39.7868 29.8171 39.7868 29.3024C44.1619 29.3024 48.5003 29.3024 52.8754 29.3024C52.8754 29.8171 52.8754 30.2951 52.8754 30.8466C52.6916 30.8466 52.5078 30.8466 52.2872 30.8466C51.6622 30.8833 51.0371 30.8466 50.4121 30.9569C49.5665 31.0672 49.2724 31.6186 49.5665 32.4275C51.368 37.1703 53.1696 41.8763 54.9711 46.5824C55.0079 46.6559 55.0446 46.6927 55.0814 46.8397C55.1549 46.6927 55.2285 46.5824 55.2652 46.4721C56.7726 42.3543 58.28 38.1997 59.7874 34.082C59.9345 33.6408 60.008 33.1628 60.008 32.7216C59.9713 31.6186 59.0889 30.9569 58.0227 30.8833C57.6918 30.8466 57.3609 30.8833 57.03 30.8833C57.03 30.3686 57.03 29.8539 57.03 29.3024C57.1771 29.3024 57.2873 29.2656 57.4344 29.2656C64.9347 29.2656 72.4717 29.2656 79.9719 29.2656C82.5455 29.2656 85.0824 29.7436 87.3619 30.9569C91.3326 33.0893 93.465 36.435 93.7224 40.9572C93.8327 43.0896 93.5385 45.1853 92.6194 47.1339C91.4429 49.6339 89.531 51.3252 87.0677 52.5017C84.8985 53.5679 82.5823 54.0458 80.1557 54.0458C75.1188 54.0091 70.1186 54.0458 65.0817 54.0458C64.8979 54.0458 64.7508 54.0458 64.5302 54.0458C64.5302 53.5311 64.5302 53.0164 64.5302 52.4649C64.6773 52.4649 64.7876 52.4281 64.9347 52.4281C65.6332 52.4281 66.3318 52.4281 66.9935 52.4281C68.023 52.4281 68.5745 51.8767 68.5745 50.8472C68.5745 44.6705 68.5745 38.4939 68.5745 32.3172C68.5745 31.4716 68.2436 31.0672 67.398 30.9201C66.4053 30.7363 65.4494 30.8098 64.4935 31.1039C63.4273 31.4348 62.8022 32.2069 62.4346 33.2363C61.2948 36.3247 60.1551 39.413 59.0153 42.5013C57.5815 46.325 56.1844 50.1854 54.7505 54.0091C54.677 54.1561 54.6402 54.3032 54.5667 54.4503C53.7946 54.4503 53.0225 54.4503 52.2137 54.4503C50.0077 48.7516 47.8017 42.9793 45.5958 37.2438C45.559 37.2438 45.5223 37.2438 45.5223 37.2438C43.3163 42.9793 41.1104 48.7148 38.9044 54.4503C38.0956 54.4503 37.3602 54.4503 36.5514 54.4503C36.4411 54.1561 36.3308 53.8988 36.2205 53.6046C33.463 46.4721 30.7056 39.3762 27.9482 32.2437C27.507 31.1039 27.1025 30.8098 25.8525 30.8098C25.6319 30.8098 25.4113 30.8098 25.154 30.8098C25.154 30.6627 25.1172 30.5157 25.1172 30.4054C25.1172 30.0377 25.1172 29.6333 25.1172 29.2656C29.0144 29.2656 32.7645 29.2656 36.5514 29.2656ZM74.7144 41.5822C74.7144 44.6338 74.7144 47.7221 74.7144 50.7737C74.7144 50.9575 74.7144 51.1413 74.7512 51.3252C74.8982 52.0237 75.2659 52.3914 75.9277 52.3914C77.3248 52.3914 78.6851 52.4649 80.0454 52.2811C82.0676 52.0237 83.7956 51.1046 85.0824 49.5236C86.1118 48.2736 86.4795 46.7662 86.6633 45.1853C86.8839 43.2734 86.9207 41.3616 86.7368 39.413C86.5898 37.8321 86.3324 36.2511 85.5971 34.7805C84.6044 32.7584 83.0602 31.4716 80.8175 31.0672C79.1998 30.773 77.5454 30.6995 75.8909 30.8833C74.935 30.9936 74.6409 31.3245 74.6409 32.2804C74.7144 35.4055 74.7144 38.4939 74.7144 41.5822Z" fill="#007ABF"/>
<path d="M174.46 25.0371C181.85 25.0371 189.093 25.0371 196.372 25.0371C197.475 26.3974 198.578 27.7946 199.755 29.2284C198.578 32.6844 197.402 36.1772 196.225 39.7067C193.836 39.7067 191.446 39.7067 189.056 39.7067C189.056 39.7435 189.056 39.7435 189.056 39.7802C189.461 39.9273 189.902 40.0744 190.306 40.2582C192.255 41.0303 193.946 42.2436 195.233 43.898C196.189 45.1481 197.181 46.3613 198.211 47.5746C200.858 50.7732 201.52 54.4131 200.27 58.3102C198.873 62.7589 195.821 65.7737 191.446 67.3914C187.916 68.715 184.313 68.5679 180.747 67.5385C178.394 66.8767 176.225 65.7737 174.166 64.4502C174.056 64.3766 173.982 64.3031 173.909 64.2296C172.806 62.8692 171.703 61.5089 170.6 60.1118C172.438 57.4646 174.276 54.8175 176.114 52.1336C176.813 52.5012 177.438 52.8321 178.137 53.163C179.644 53.8616 181.225 54.3395 182.953 54.266C184.203 54.2292 185.343 53.8616 186.262 52.9424C186.556 52.6115 186.813 52.2439 186.887 51.7292C183.688 51.3247 180.49 51.3615 177.291 51.3983C176.556 50.5159 175.857 49.5967 175.122 48.7143C174.791 48.3099 174.423 47.8687 174.092 47.4275C173.982 47.2805 173.909 47.0599 173.909 46.8761C173.982 44.5966 174.056 42.3171 174.129 40.0008C174.166 38.4934 174.203 36.986 174.276 35.4786C174.35 32.8682 174.46 30.2946 174.497 27.6843C174.497 26.8386 174.46 25.9563 174.46 25.0371ZM175.342 45.8098C176.409 45.8098 177.438 45.8098 178.468 45.8098C179.497 45.8466 180.526 45.8834 181.556 45.9201C182.916 45.9937 184.313 46.1407 185.637 46.5452C187.622 47.1334 188.578 48.3835 188.541 50.5159C188.541 51.6924 188.247 52.7954 187.475 53.6777C186.152 55.2587 184.35 55.7734 182.365 55.7366C180.894 55.6999 179.46 55.3322 178.137 54.744C177.622 54.5234 177.107 54.266 176.556 54.0454C175.232 55.9205 173.945 57.7955 172.622 59.7074C173.798 60.4427 175.012 61.0309 176.262 61.5089C179.607 62.7589 183.026 63.1266 186.519 62.2442C191.593 60.9574 195.564 56.3617 195.968 51.6924C196.152 49.707 195.858 47.832 194.902 46.104C193.725 43.8613 191.814 42.4274 189.497 41.545C187.622 40.8097 185.637 40.5891 183.652 40.5156C183.247 40.5156 182.879 40.5156 182.475 40.5156C182.549 38.3464 182.622 36.2875 182.659 34.1551C185.747 34.1551 188.799 34.1551 191.85 34.1551C192.696 31.6182 193.578 29.0814 194.424 26.5077C188.247 26.5077 182.107 26.5077 175.967 26.5077C175.747 32.905 175.526 39.3023 175.342 45.8098Z" fill="#007ABF"/>
<path d="M151.775 36.0301C152.805 32.3535 153.834 28.7137 154.9 25.0371C158.651 25.0371 162.401 25.0371 166.151 25.0371C167.107 26.2136 168.099 27.4269 169.092 28.6402C169.423 29.0446 169.57 29.449 169.57 29.9637C169.46 33.0153 169.386 36.0669 169.276 39.1185C169.202 41.6921 169.129 44.2657 169.055 46.8025C168.945 50.81 168.798 54.8543 168.688 58.8617C168.614 61.3618 168.541 63.8619 168.467 66.3988C168.467 66.9135 168.43 67.465 168.394 68.0165C164.717 68.0165 161.077 68.0165 157.364 68.0165C156.849 67.3547 156.261 66.6561 155.709 65.9576C155.268 65.4061 154.827 64.8178 154.349 64.2663C154.055 63.9354 153.981 63.6045 153.981 63.2001C154.055 61.5457 154.092 59.9279 154.165 58.2735C154.239 55.5896 154.312 52.9057 154.386 50.2218C154.496 46.8393 154.606 43.4568 154.68 40.0744C154.68 39.8905 154.606 39.6332 154.459 39.4861C153.614 38.3096 152.695 37.1699 151.775 36.0301ZM163.614 62.3545C163.982 50.3688 164.349 38.4199 164.717 26.5077C161.776 26.5077 158.908 26.5077 156.003 26.5077C155.231 29.1917 154.496 31.8388 153.761 34.5227C154.643 34.5227 155.526 34.5227 156.371 34.5227C156.077 43.8245 155.82 53.0895 155.526 62.3913C158.246 62.3545 160.893 62.3545 163.614 62.3545Z" fill="#007ABF"/>
<path d="M113.097 31.1397C113.686 30.4044 114.274 29.7058 114.825 28.9705C115.267 28.9705 115.745 28.9705 116.223 28.9705C116.296 31.8015 116.333 34.6325 116.406 37.5002C115.818 37.5002 115.267 37.5002 114.678 37.5002C114.642 37.3531 114.568 37.2061 114.495 37.059C113.796 35.2942 112.84 33.6398 111.333 32.3897C108.943 30.3676 106.185 29.7058 103.134 30.4779C102.068 30.7353 101.149 31.3235 100.45 32.1691C99.2 33.7133 99.4941 35.7354 101.112 36.8752C102.178 37.6105 103.391 37.9782 104.605 38.2355C106.627 38.6767 108.649 39.0444 110.671 39.4856C112.215 39.8165 113.723 40.3312 115.046 41.2503C117.289 42.7577 118.098 44.9269 117.84 47.5373C117.62 49.5594 116.59 51.1036 114.973 52.2801C113.134 53.6037 111.075 54.2655 108.833 54.486C106.443 54.7434 104.09 54.486 101.884 53.4934C100.928 53.0522 100.009 52.5007 99.0161 51.9492C98.3176 52.6845 97.5823 53.4934 96.847 54.3022C96.369 54.3022 95.9278 54.3022 95.4131 54.3022C95.4131 51.2506 95.4131 48.2358 95.4131 45.1475C95.9646 45.1475 96.5161 45.1475 97.0676 45.1475C97.2146 45.5519 97.3984 45.9931 97.5823 46.4343C98.3176 48.2358 99.347 49.8168 100.891 50.9933C102.803 52.4639 105.009 52.9786 107.399 52.9419C108.686 52.9419 109.936 52.7948 111.149 52.2433C112.252 51.7286 113.134 51.0301 113.612 49.8903C114.127 48.6035 113.98 46.7284 112.289 45.6255C111.333 45.0004 110.303 44.7431 109.2 44.4857C106.994 44.0078 104.788 43.5666 102.619 43.0519C101.296 42.7577 100.009 42.2798 98.8323 41.5812C96.369 40.0738 95.5969 38.0149 95.891 35.331C96.2219 32.353 98.0235 30.4044 100.744 29.4117C104.788 27.9411 108.722 28.3455 112.399 30.6617C112.62 30.8088 112.84 30.9559 113.097 31.1397Z" fill="#007ABF"/>
<path d="M144.165 45.3674C144.753 45.3674 145.304 45.3674 145.966 45.3674C145.782 46.1395 145.635 46.8748 145.378 47.5366C144.238 50.8456 141.885 52.978 138.613 53.9339C134.569 55.1104 130.635 54.6692 127.032 52.5C123.318 50.2941 121.26 46.9851 121.002 42.6468C120.782 38.9334 121.701 35.5509 124.348 32.8303C126.738 30.367 129.642 29.0066 133.061 28.6757C135.01 28.4919 136.959 28.6022 138.797 29.3375C139.753 29.7052 140.635 30.2567 141.554 30.7346C141.738 30.8449 141.922 30.9552 142.143 31.1023C142.584 30.2934 142.988 29.5213 143.429 28.7125C143.871 28.7125 144.349 28.7125 144.9 28.7125C145.047 31.9847 145.231 35.2936 145.378 38.6025C144.753 38.6025 144.201 38.6025 143.65 38.6025C143.429 37.7937 143.209 36.9848 142.951 36.2127C142.326 34.3744 141.334 32.7935 139.716 31.6538C136.297 29.1904 131.186 29.6684 129.017 34.595C128.392 36.0289 128.098 37.5731 127.988 39.1172C127.804 41.3967 127.877 43.6762 128.319 45.9189C128.576 47.2793 129.017 48.5661 129.789 49.7794C130.708 51.25 131.995 52.1691 133.686 52.5C135.672 52.9412 137.584 52.7942 139.459 51.9485C141.812 50.8823 143.246 49.044 143.944 46.6175C143.981 46.1763 144.054 45.8086 144.165 45.3674Z" fill="#007ABF"/>
<path d="M17.3581 48.5306C17.3581 47.8688 17.3581 47.0968 17.3949 46.3982C17.3949 46.2511 17.6155 46.0306 17.7625 45.957C17.9831 45.81 18.314 45.6997 18.5346 45.5526C18.5714 45.5158 18.5346 45.332 18.5714 45.332C18.6082 45.2952 18.8655 45.332 18.9023 45.332C18.9758 45.2952 18.9758 45.2952 19.0493 45.2217C19.1596 45.1482 19.0493 44.9276 19.1229 44.9276C19.4905 44.9276 19.5273 44.7437 19.6376 44.5599C19.895 44.1555 20.1156 43.7143 20.3729 43.1996C19.7111 43.126 19.0493 43.0893 18.4611 43.0157C18.4243 41.9128 19.3067 41.398 20.1523 41.251C20.7773 41.1775 21.5494 41.251 22.248 41.2142C21.2553 40.626 20.2259 40.2951 19.1229 40.2583C17.9831 40.2215 16.8802 40.5157 15.961 41.1775L15.7404 41.3245C15.7404 41.3245 15.8507 41.1775 16.0345 40.9936C16.1448 40.8833 16.2919 40.773 16.439 40.6995C16.8802 40.4054 17.3213 40.148 17.7258 39.8171C19.3067 38.4935 19.5641 36.7288 18.2037 35.1478C17.064 33.861 15.6301 33.0154 14.1227 32.2801C13.9021 32.1698 13.7183 32.0963 13.4977 31.986C13.4609 32.0227 13.4609 32.0595 13.4242 32.0595C13.5345 32.2066 13.6815 32.3536 13.7918 32.4639C14.6742 33.3463 15.5198 34.2287 16.0345 35.3684C16.1448 35.589 16.2551 35.8464 16.2919 36.1038C16.5125 37.0229 15.9242 37.8685 15.0786 38.3832C15.5566 37.0597 15.336 35.7729 14.0859 34.817C13.2403 34.1919 12.3212 33.7507 11.3285 33.3831C9.8211 32.8316 8.24017 32.4272 6.65923 32.1698C6.62247 32.1698 6.54894 32.1698 6.4754 32.2433C6.62247 32.3169 6.76953 32.4272 6.95336 32.5007C7.94604 33.0522 8.90195 33.6772 9.67404 34.5596C10.4094 35.3684 10.6667 36.3611 10.4094 37.4641C10.3358 37.795 10.1888 38.0891 10.0049 38.42C9.56374 37.317 8.90195 36.5817 7.90928 36.1038C6.95336 35.6258 5.96068 35.2581 4.82094 35.6258C5.33566 36.067 5.85039 36.4347 6.32834 36.8758C6.9166 37.4273 7.21072 38.0524 7.06366 38.898C6.99013 39.3392 7.17396 39.7803 7.39455 40.1848C7.46808 40.3318 7.54162 40.4421 7.65191 40.626C6.696 40.3318 5.77685 40.1848 4.968 40.9936C6.51217 40.8833 7.46808 41.7289 8.09311 43.0157C7.35779 43.0893 6.62247 43.1628 5.77685 43.2363C6.29158 43.8614 6.696 44.4129 7.17396 44.8908C7.28426 45.0011 7.35779 44.9276 7.46808 45.0011C7.61515 45.0746 7.76221 45.2952 7.90928 45.3688C7.98281 45.4055 8.27694 45.4055 8.35047 45.4423C8.424 45.4791 8.35047 45.6261 8.46076 45.6629C8.93872 45.9203 9.34315 46.0673 9.8211 46.3247C9.9314 46.3614 10.0785 46.5453 10.1152 46.6188C10.6667 47.538 11.1814 48.4939 11.7329 49.4498C8.5343 49.413 3.82826 46.7291 2.54145 41.6186C1.32818 36.1405 4.60034 30.4418 9.96817 28.8976C15.5566 27.3167 21.3288 30.405 23.0201 35.8832C24.7113 41.5083 21.4391 46.7659 17.3581 48.5306Z" fill="#007ABF"/>
<path d="M17.8734 59.854C17.8734 59.5599 17.8734 59.3393 17.8734 59.0819C19.2338 59.0819 20.5941 59.0819 21.9544 59.0819C21.9544 59.3025 21.9544 59.5599 21.9544 59.8172C21.8074 59.8172 21.6603 59.8172 21.5133 59.854C21.3662 59.854 21.2191 59.854 20.9618 59.8908C21.4765 60.6996 21.9544 61.4349 22.4324 62.1703C23.0207 61.3982 23.4986 60.4423 23.4986 59.9643C23.2413 59.9275 22.9471 59.854 22.6162 59.8172C22.6162 59.5966 22.6162 59.3761 22.6162 59.0819C25.8884 59.0819 29.1238 59.0819 32.4327 59.0819C32.5063 59.854 32.543 60.6261 32.6166 61.4349C32.6533 61.3614 32.6901 61.3246 32.7269 61.2879C33.2048 59.9643 34.6387 58.7878 36.7711 58.8981C37.5064 58.9349 38.205 59.1187 38.8668 59.5231C40.9624 60.8099 41.2198 63.7512 39.3447 65.3321C37.58 66.8395 34.6387 66.5822 33.2783 64.8174C32.8004 64.1924 32.5798 63.4938 32.543 62.7217C32.543 62.5012 32.543 62.2438 32.543 61.9864C32.3224 61.9864 32.1018 61.9497 31.8812 61.9497C31.8077 61.6923 31.7709 61.4349 31.6606 61.2143C31.5136 60.8835 31.4033 60.5526 31.1827 60.2952C30.9253 59.9275 30.5209 59.8172 30.0062 59.9275C30.0062 61.7291 30.0062 63.4938 30.0062 65.3321C30.4106 65.3321 30.7783 65.3321 31.1459 65.3321C31.1459 65.6263 31.1459 65.8468 31.1459 66.1042C29.7121 66.1042 28.2782 66.1042 26.8075 66.1042C26.8075 65.8836 26.8075 65.6263 26.8075 65.3321C27.1752 65.3321 27.5061 65.3321 27.8738 65.3321C28.0208 65.0012 28.0576 60.6629 27.9473 59.9275C27.5061 59.7437 27.1017 59.854 26.8075 60.2584C26.5502 60.6261 26.4031 61.0305 26.2561 61.4349C26.1825 61.582 26.1825 61.7291 26.109 61.9129C25.8516 61.9129 25.631 61.9129 25.3369 61.9129C25.3737 61.2143 25.4104 60.5526 25.4472 59.854C25.0428 59.854 24.7854 60.0746 24.6016 60.3687C24.1236 61.2143 23.6457 62.06 23.131 62.9423C23.0942 63.0159 23.0574 63.0894 23.0574 63.1997C23.0574 63.8983 23.0574 64.56 23.0574 65.3321C23.4986 65.3321 23.8663 65.3321 24.2707 65.3321C24.2707 65.6263 24.2707 65.8468 24.2707 66.1042C21.5133 66.1042 18.7558 66.1042 15.9616 66.1042C15.9616 65.8836 15.9616 65.663 15.9616 65.3689C16.2557 65.3321 16.5866 65.3321 16.991 65.2954C16.7705 64.8174 16.5866 64.413 16.4028 63.9718C15.5204 63.9718 14.6748 63.9718 13.7924 63.9718C13.6821 64.1924 13.5718 64.3762 13.4983 64.5968C13.3512 64.9645 13.4983 65.2218 13.9027 65.2954C14.0865 65.3321 14.3071 65.3321 14.5277 65.3321C14.5277 65.4424 14.5645 65.5527 14.5645 65.663C14.5645 65.7733 14.5645 65.8836 14.5645 66.0674C13.4983 66.0674 12.4321 66.0674 11.3291 66.0674C11.3291 65.8469 11.3291 65.6263 11.3291 65.4424C11.6232 65.2954 11.9541 65.2586 12.1747 65.038C12.3953 64.8542 12.5056 64.5233 12.6159 64.2659C13.388 62.6114 14.1601 60.957 14.9322 59.3025C15.0057 59.1555 15.0792 59.0084 15.1528 58.8613C15.4101 58.8613 15.6675 58.8613 15.9616 58.8613C15.9984 58.9716 16.0719 59.0819 16.1454 59.1922C17.0278 61.0673 17.9102 62.9423 18.7926 64.8542C18.9396 65.2218 19.1602 65.3689 19.5647 65.3321C20.0059 65.2954 20.4838 65.3321 20.9985 65.3321C20.925 64.413 21.2559 63.5306 20.5941 62.7217C20.1162 62.0967 19.7117 61.3982 19.3073 60.7364C18.9764 60.2584 18.6455 59.7069 17.8734 59.854ZM38.352 62.6482C38.2785 62.06 38.2785 61.582 38.205 61.1408C38.0579 60.2952 37.4697 59.7805 36.6976 59.7069C35.7784 59.6334 35.1534 60.0011 34.896 60.9202C34.5284 62.0232 34.5652 63.1629 34.8593 64.3027C35.0799 65.0748 35.7049 65.516 36.5137 65.516C37.2858 65.516 37.8741 65.0748 38.0947 64.3027C38.2417 63.7144 38.2785 63.1262 38.352 62.6482ZM14.1601 63.1629C14.7851 63.1629 15.3366 63.1629 15.9248 63.1629C15.6307 62.5379 15.3366 61.9129 15.0425 61.2511C14.7483 61.9129 14.4542 62.5012 14.1601 63.1629Z" fill="#007ABF"/>
<path d="M74.309 58.8984C74.5663 58.8984 74.8237 58.8984 75.1178 58.8984C75.5222 59.7808 75.9267 60.6264 76.3311 61.5088C76.8458 62.6118 77.3973 63.7515 77.8752 64.8545C78.0223 65.2222 78.2429 65.406 78.6841 65.3692C79.0885 65.3325 79.4929 65.3692 79.9709 65.3692C79.9709 63.5309 79.9709 61.7294 79.9709 59.9646C79.5297 59.8176 79.1253 59.9279 78.8312 60.3323C78.6106 60.6632 78.4635 61.1044 78.2797 61.4721C78.2061 61.6191 78.1694 61.8029 78.1326 61.9868C77.8752 61.9868 77.6179 61.9868 77.3605 61.9868C77.4341 61.0309 77.4708 60.0749 77.5444 59.0823C82.1401 59.0823 86.7358 59.0823 91.3683 59.0823C91.4419 59.9646 91.4786 60.847 91.5522 61.7662C91.2948 61.7662 91.0374 61.7662 90.7801 61.7662C90.7065 61.5456 90.6698 61.325 90.5962 61.0676C90.3756 60.2588 89.9712 59.9279 89.1624 59.8911C88.758 59.8543 88.3535 59.8911 87.9123 59.8911C87.8388 59.8911 87.7285 59.9279 87.6182 59.9279C87.6182 60.6632 87.6182 61.3985 87.6182 62.0971C88.3903 62.2441 88.6844 61.95 88.9418 60.8838C89.1624 60.8838 89.4197 60.8838 89.7139 60.8838C89.7139 61.472 89.7139 62.0235 89.7139 62.6118C89.7139 63.2 89.7139 63.7515 89.7139 64.3766C89.4565 64.3766 89.1991 64.3766 88.9418 64.3766C88.7947 63.9721 88.905 63.4574 88.4271 63.2C88.2065 63.053 87.9123 63.053 87.5814 62.9427C87.5814 63.7883 87.5814 64.5972 87.5814 65.406C88.28 65.4428 88.9418 65.5163 89.6036 65.3325C90.2654 65.1119 90.633 64.5972 90.8168 63.9354C90.8536 63.7515 90.8904 63.5677 90.9271 63.3471C91.1845 63.3471 91.4419 63.3471 91.736 63.3471C91.6992 64.303 91.6625 65.2589 91.6257 66.2148C89.1991 66.2148 86.8461 66.2148 84.4196 66.2148C84.4196 65.9575 84.4196 65.7369 84.4196 65.4428C84.7505 65.4428 85.1181 65.4428 85.4858 65.4428C85.4858 63.6045 85.4858 61.8029 85.4858 59.9646C85.1917 59.9646 84.8975 59.9279 84.5299 59.9279C84.5666 60.6632 84.6034 61.325 84.6402 62.0603C84.346 62.0603 84.1255 62.0603 83.8681 62.0603C83.721 61.6559 83.6475 61.2515 83.4637 60.8838C83.2431 60.3691 82.8754 60.0014 82.2872 59.9646C82.2136 59.9646 82.1033 60.0014 81.993 60.0014C81.993 61.8029 81.993 63.5677 81.993 65.406C82.3607 65.406 82.7651 65.406 83.1695 65.406C83.1695 65.7001 83.1695 65.9207 83.1695 66.2148C80.4489 66.2148 77.7282 66.2148 74.9707 66.2148C74.9707 65.9575 74.9707 65.7369 74.9707 65.4795C75.3016 65.4428 75.6325 65.4428 76.0002 65.406C75.7796 64.928 75.5958 64.5236 75.4119 64.0824C74.5296 64.0824 73.6839 64.0824 72.8016 64.0824C72.6913 64.303 72.581 64.4869 72.5074 64.7075C72.3604 65.0751 72.5074 65.3325 72.9119 65.406C73.0957 65.4428 73.3163 65.4428 73.5369 65.4428C73.5369 65.7001 73.5369 65.9207 73.5369 66.1781C72.4707 66.1781 71.4412 66.1781 70.375 66.1781C70.375 65.9207 70.375 65.7001 70.375 65.406C71.1103 65.5163 71.3677 65.0016 71.625 64.4869C72.3971 62.8324 73.1692 61.1779 73.9413 59.5235C74.1251 59.3029 74.1987 59.119 74.309 58.8984ZM75.081 63.1633C74.7869 62.5015 74.4928 61.9132 74.1987 61.2515C73.8678 61.95 73.6104 62.5383 73.3163 63.1633C73.9045 63.1633 74.456 63.1633 75.081 63.1633Z" fill="#007ABF"/>
<path d="M113.355 65.3693C113.943 65.3693 114.495 65.4061 115.046 65.3693C115.524 65.3326 115.855 65.0384 116.076 64.634C116.296 64.2296 116.48 63.7516 116.701 63.2737C116.885 63.2737 117.142 63.2737 117.436 63.2737C117.399 63.9722 117.362 64.634 117.326 65.3693C117.657 65.3693 117.987 65.3693 118.355 65.3693C118.355 63.5678 118.355 61.7663 118.355 59.928C118.024 59.8912 117.693 59.8912 117.326 59.8545C117.326 59.5971 117.326 59.3765 117.326 59.1191C118.723 59.1191 120.12 59.1191 121.554 59.1191C121.554 59.3765 121.554 59.5971 121.554 59.8545C121.186 59.8912 120.855 59.8912 120.451 59.928C120.451 61.7663 120.451 63.5678 120.451 65.3693C121.076 65.3693 121.664 65.4429 122.216 65.3326C122.804 65.2223 123.135 64.7443 123.392 64.2296C123.539 63.9355 123.613 63.6046 123.76 63.2737C124.017 63.2737 124.238 63.2737 124.532 63.2737C124.495 63.9722 124.458 64.634 124.422 65.3693C124.752 65.3693 125.047 65.3693 125.414 65.3693C125.414 63.5678 125.414 61.7663 125.414 59.928C125.047 59.8912 124.679 59.8912 124.311 59.8545C124.311 59.5971 124.311 59.3765 124.311 59.1191C126.627 59.1191 128.907 59.1191 131.26 59.1191C131.334 60.0015 131.37 60.8839 131.444 61.803C131.186 61.803 130.929 61.803 130.672 61.803C130.598 61.5089 130.525 61.2148 130.414 60.9207C130.231 60.2957 129.789 59.9648 129.164 59.928C128.613 59.8912 128.098 59.928 127.51 59.928C127.51 60.7001 127.51 61.3986 127.51 62.1339C128.319 62.2075 128.466 62.0604 128.87 60.8839C129.091 60.8839 129.311 60.8839 129.606 60.8839C129.606 62.0604 129.606 63.2002 129.606 64.3767C129.348 64.3767 129.128 64.3767 128.87 64.3767C128.723 63.9722 128.833 63.4207 128.319 63.1634C128.098 63.0531 127.841 63.0163 127.51 62.9428C127.51 63.7884 127.51 64.5605 127.51 65.4061C128.319 65.4061 129.164 65.5899 129.936 65.112C130.598 64.7076 130.745 64.0458 130.856 63.3105C131.113 63.3105 131.37 63.3105 131.664 63.3105C131.628 64.2664 131.591 65.2223 131.554 66.1782C124.495 66.1782 117.436 66.1782 110.377 66.1782C110.377 65.9208 110.377 65.7002 110.377 65.4061C110.708 65.4061 111.039 65.4061 111.406 65.4061C111.406 63.5678 111.406 61.7663 111.406 59.928C111.076 59.8912 110.745 59.8912 110.377 59.8545C110.377 59.5971 110.377 59.3765 110.377 59.1191C111.774 59.1191 113.171 59.1191 114.568 59.1191C114.568 59.3397 114.568 59.5603 114.568 59.8545C114.237 59.8912 113.87 59.8912 113.465 59.928C113.355 61.7295 113.355 63.4943 113.355 65.3693Z" fill="#007ABF"/>
<path d="M18.5717 44.1921C18.5349 44.3759 18.4982 44.523 18.4614 44.6701C18.2408 44.7436 17.9467 44.7436 17.6893 44.8171C17.6893 44.9274 17.6893 45.1113 17.6893 45.2216C17.5055 45.3686 17.3584 45.4422 17.1746 45.5525C16.9172 45.7363 16.8069 46.3245 16.7334 46.6187C16.7334 46.6922 16.6966 46.729 16.6966 46.729L16.329 55.7734C16.329 55.7734 12.395 48.8246 10.8876 46.2142C10.8141 46.1039 10.7406 45.9936 10.667 45.8833C10.52 45.773 10.3729 45.6995 10.2258 45.626C10.1523 45.5892 9.85819 45.4054 9.78466 45.3686C9.63759 45.2951 9.34347 45.2216 9.34347 45.148C9.3067 45.0745 9.34347 45.001 9.3067 44.9642C9.26993 44.7804 8.64491 44.8171 8.46109 44.7068C8.35079 44.6333 8.24049 44.4127 8.05666 44.3024C7.98313 44.2289 7.83606 44.3024 7.76253 44.2289C7.61547 44.0818 7.61547 43.9715 7.43164 43.8612C9.04934 43.4936 16.6599 43.4568 19.2335 43.8245C19.2335 43.8612 19.2335 44.1553 19.1967 44.2656C19.0129 44.1921 18.7188 44.1553 18.5717 44.1921Z" fill="#007ABF"/>
<path d="M12.4321 50.3319C12.5424 50.5525 12.6527 50.7363 12.7997 50.9937C7.90988 51.0672 1.9538 47.3907 0.997887 40.5522C0.0787391 33.8976 4.63771 28.0518 10.8879 26.9856C17.7264 25.8091 23.756 30.3313 24.9325 36.6182C26.2193 43.4199 21.7706 48.751 17.3587 50.2216C17.3587 50.001 17.3587 49.7437 17.3587 49.5231C20.3367 48.1995 22.4692 46.1038 23.6457 43.089C24.6384 40.5154 24.7119 37.905 23.8295 35.2947C22.0647 30.0371 16.8072 26.8385 11.4026 27.6106C5.81422 28.3827 1.58614 33.199 1.58614 38.9345C1.62291 44.67 6.03481 49.8907 12.4321 50.3319Z" fill="#007ABF"/>
<path d="M3.64453 66.1417C3.64453 65.8843 3.64453 65.6269 3.64453 65.3696C3.97542 65.3696 4.30632 65.3696 4.60044 65.3696C4.74751 65.0387 4.78427 60.6635 4.67398 59.8915C4.34308 59.8547 4.01219 59.8547 3.64453 59.8179C3.64453 59.5606 3.64453 59.34 3.64453 59.1194C3.6813 59.1194 3.71806 59.0826 3.79159 59.0826C5.37253 59.0826 6.95346 59.0091 8.49763 59.1194C10.9242 59.3032 12.3581 61.4356 11.6595 63.7519C11.2918 65.0387 10.0786 66.0681 8.60793 66.1049C6.95346 66.2152 5.33576 66.1417 3.64453 66.1417ZM6.76963 59.8179C6.76963 61.7665 6.76963 63.5313 6.76963 65.3696C7.21082 65.3696 7.57848 65.4063 7.94614 65.3696C8.79176 65.2593 9.41678 64.671 9.49031 63.8622C9.56384 63.0901 9.56384 62.318 9.49031 61.5459C9.41678 60.8474 9.08588 60.2223 8.35057 60.0385C7.87261 59.8915 7.32112 59.8915 6.76963 59.8179Z" fill="#007ABF"/>
<path d="M140.892 59.8912C140.524 59.8912 140.193 59.8545 139.826 59.8545C139.826 59.5971 139.826 59.3765 139.826 59.1191C142.142 59.1191 144.422 59.1191 146.738 59.1191C146.811 60.0015 146.848 60.8839 146.922 61.803C146.664 61.803 146.407 61.803 146.15 61.803C146.076 61.5457 146.002 61.2516 145.929 60.9942C145.745 60.3324 145.304 59.9648 144.605 59.928C144.091 59.8912 143.539 59.928 142.988 59.928C142.988 60.7001 142.988 61.3986 142.988 62.1339C143.76 62.2442 143.944 62.0972 144.311 60.8839C144.569 60.8839 144.789 60.8839 145.047 60.8839C145.047 62.0604 145.047 63.2002 145.047 64.3399C144.789 64.3399 144.532 64.3399 144.311 64.3399C143.907 63.0531 143.76 62.906 142.951 63.0163C142.951 63.7884 142.951 64.5605 142.951 65.3693C143.649 65.4061 144.348 65.5164 145.01 65.259C145.598 65.0385 145.966 64.5973 146.15 64.009C146.223 63.7884 146.26 63.531 146.333 63.2737C146.591 63.2737 146.811 63.2737 147.105 63.2737C147.069 64.2296 147.032 65.1855 146.995 66.1414C144.569 66.1414 142.179 66.1414 139.789 66.1414C139.789 65.9208 139.789 65.6635 139.789 65.4061C140.12 65.4061 140.488 65.4061 140.855 65.4061C140.892 63.531 140.892 61.7663 140.892 59.8912Z" fill="#007ABF"/>
<path d="M41.7344 60.0383C41.33 59.9648 40.9623 59.8912 40.5579 59.7809C40.5579 59.5971 40.5579 59.3398 40.5579 59.0456C40.9991 59.0456 41.4403 59.0824 41.8447 59.0456C42.8006 58.8986 43.4256 59.2662 44.0139 60.0015C44.786 61.031 45.7051 61.9501 46.5507 62.906C46.661 63.0163 46.7346 63.1266 46.8816 63.2737C46.9184 63.1266 46.9552 63.0531 46.9552 62.9428C46.9552 62.2443 46.9552 61.5457 46.9552 60.8839C46.9552 60.1854 46.7346 59.9648 46.0728 59.8545C45.9993 59.8545 45.9257 59.8177 45.8522 59.8177C45.8522 59.5604 45.8522 59.3398 45.8522 59.0824C46.8816 59.0824 47.9111 59.0824 48.9405 59.0824C48.9405 59.3398 48.9405 59.5236 48.9405 59.7809C48.867 59.8177 48.7567 59.8545 48.6464 59.8545C48.0214 59.9648 47.8743 60.1486 47.8743 60.8104C47.8743 62.4281 47.8743 64.009 47.8743 65.6267C47.8743 65.7738 47.8743 65.9576 47.8743 66.1414C47.5802 66.1414 47.2861 66.1414 46.9552 66.1414C45.5581 64.5605 44.1242 62.9061 42.6536 61.2148C42.6168 61.3619 42.6168 61.4722 42.6168 61.5457C42.6168 62.3913 42.6168 63.2369 42.6168 64.0458C42.6168 65.0752 42.8006 65.2958 43.8301 65.3694C43.8301 65.59 43.8301 65.8473 43.8301 66.1047C42.7271 66.1047 41.5874 66.1047 40.4844 66.1047C40.4844 65.8473 40.4844 65.6267 40.4844 65.3694C40.5947 65.3694 40.6682 65.3326 40.7417 65.3326C41.3668 65.2958 41.6976 65.0017 41.6976 64.3767C41.7344 63.0163 41.7344 61.5825 41.7344 60.0383Z" fill="#007ABF"/>
<path d="M106.295 66.3611C104.641 66.3243 103.354 65.8096 102.582 64.4493C101.405 62.4272 102.324 59.4124 105.413 58.9344C106.185 58.8241 106.957 58.8976 107.692 59.155C109.31 59.7432 110.229 61.1036 110.155 62.8316C110.082 64.339 108.979 65.6993 107.435 66.1405C106.994 66.2508 106.552 66.2876 106.295 66.3611ZM107.986 62.6845C107.949 62.1698 107.913 61.7654 107.876 61.3977C107.729 60.2947 107.067 59.7065 106.038 59.7432C105.266 59.78 104.677 60.258 104.457 61.1404C104.199 62.133 104.199 63.1257 104.457 64.0816C104.677 64.964 105.266 65.4787 106.111 65.4787C106.957 65.4787 107.582 65.0375 107.766 64.1552C107.876 63.6404 107.913 63.0889 107.986 62.6845Z" fill="#007ABF"/>
<path d="M138.871 61.9508C138.577 61.9508 138.356 61.9508 138.136 61.9508C137.952 61.5096 137.768 61.1052 137.547 60.7007C137.18 60.0757 136.628 59.7081 135.893 59.6713C135.084 59.6345 134.422 60.1493 134.165 61.0316C133.907 61.8773 133.944 62.7229 134.018 63.5685C134.055 63.8994 134.128 64.1935 134.238 64.5244C134.606 65.4803 135.819 65.8847 136.702 65.3332C137.033 65.1127 137.216 64.8185 137.216 64.4509C137.253 64.1935 137.216 63.8994 137.216 63.5685C136.812 63.5317 136.444 63.5317 136.077 63.495C136.077 63.2376 136.077 63.017 136.077 62.7596C137.4 62.7596 138.724 62.7596 140.047 62.7596C140.047 62.9802 140.047 63.2376 140.047 63.495C139.79 63.495 139.496 63.5317 139.165 63.5317C139.165 64.4509 139.165 65.37 139.165 66.2892C138.908 66.2892 138.687 66.2892 138.43 66.2892C138.283 65.995 138.099 65.7009 137.878 65.37C137.143 66.1789 136.187 66.3995 135.157 66.3259C134.202 66.2524 133.356 65.8847 132.694 65.223C131.518 64.0097 131.407 61.8405 132.474 60.4434C133.577 58.9727 135.893 58.3845 137.621 59.4875C137.731 59.3036 137.878 59.1198 137.988 58.936C138.172 58.936 138.393 58.936 138.613 58.936C138.65 59.083 138.65 59.1933 138.65 59.3036C138.761 60.1493 138.834 61.0316 138.871 61.9508Z" fill="#007ABF"/>
<path d="M62.9856 59.4861C63.1327 59.3023 63.243 59.1552 63.39 59.0082C63.5739 59.0082 63.7945 59.0082 64.0518 59.0082C64.0518 59.8905 64.0518 60.7729 64.0518 61.6553C63.8312 61.6553 63.6106 61.6553 63.3533 61.6553C63.243 61.4347 63.1327 61.2141 63.0224 60.9568C62.5077 60.0008 61.5885 59.5229 60.6326 59.7067C60.4488 59.7435 60.3017 59.817 60.1546 59.8905C59.8605 60.0376 59.6767 60.295 59.6767 60.6259C59.6767 60.9568 59.8973 61.1773 60.1914 61.2509C60.7797 61.4347 61.4047 61.545 62.0297 61.7288C62.5077 61.8759 63.0224 61.9494 63.4636 62.17C64.8607 62.8686 64.971 64.7436 63.6842 65.626C62.4709 66.4716 61.1841 66.5084 59.8605 65.9201C59.7502 65.8834 59.6767 65.8099 59.6032 65.7731C59.5296 65.7363 59.4561 65.6996 59.3458 65.6628C59.162 65.8466 59.0149 66.0304 58.8311 66.2143C58.6105 66.2143 58.4267 66.2143 58.2061 66.2143C58.2061 65.2584 58.2061 64.3392 58.2061 63.3833C58.4634 63.3833 58.684 63.3833 58.9414 63.3833C59.0517 63.6407 59.1252 63.898 59.2723 64.1554C59.8238 65.2584 61.1106 65.8099 62.2871 65.4054C62.4709 65.3319 62.6547 65.2216 62.8018 65.1113C63.243 64.7069 63.2062 64.0819 62.6547 63.8245C62.3606 63.6774 61.9929 63.6039 61.662 63.4936C61.0003 63.3098 60.3017 63.1627 59.6032 62.9789C58.8311 62.7215 58.3163 62.17 58.2428 61.3244C58.2061 60.4053 58.5737 59.6699 59.3826 59.2655C60.3752 58.7508 61.4047 58.7876 62.4341 59.2288C62.618 59.2655 62.765 59.3758 62.9856 59.4861Z" fill="#007ABF"/>
<path d="M69.1615 65.3687C69.5659 65.3687 69.8968 65.3687 70.3012 65.3687C70.3012 65.6628 70.3012 65.8834 70.3012 66.1407C68.8673 66.1407 67.4335 66.1407 65.9628 66.1407C65.9628 65.9201 65.9628 65.6628 65.9628 65.4054C66.3305 65.4054 66.6981 65.4054 67.1026 65.4054C67.1026 63.5671 67.1026 61.7656 67.1026 59.9273C66.6981 59.817 66.3305 59.8905 66.0731 60.1847C65.8158 60.5156 65.6319 60.92 65.4481 61.3244C65.3378 61.5082 65.301 61.7288 65.2643 61.9494C65.0437 61.9494 64.7863 61.9494 64.4922 61.9494C64.5657 60.9935 64.6025 60.0376 64.676 59.0449C66.9923 59.0449 69.3085 59.0449 71.6248 59.0449C71.6983 60.0008 71.7718 60.9567 71.8086 61.9127C71.5145 61.9127 71.2939 61.9127 70.9998 61.9127C70.7056 60.9935 70.5953 59.817 69.1615 59.817C69.1615 61.7288 69.1615 63.5304 69.1615 65.3687Z" fill="#007ABF"/>
<path d="M56.7355 65.3334C56.7355 65.554 56.7355 65.7011 56.7355 65.8481C56.7355 65.9216 56.7355 66.0319 56.7355 66.1422C56.0737 66.1422 55.4119 66.1422 54.7869 66.1422C54.1618 66.1422 53.5368 66.1422 52.875 66.1422C52.875 65.8849 52.875 65.6275 52.875 65.3702C53.2059 65.3334 53.5001 65.3334 53.9045 65.2966C53.6839 64.8187 53.5001 64.4142 53.3162 63.9731C52.4706 63.9731 51.625 63.9731 50.7058 63.9731C50.5955 64.1569 50.4853 64.3775 50.4117 64.5981C50.2647 64.9657 50.4117 65.2231 50.8161 65.2966C51 65.3334 51.2206 65.3334 51.4412 65.3334C51.4412 65.5908 51.4412 65.8114 51.4412 66.0687C50.3749 66.0687 49.3455 66.0687 48.2793 66.0687C48.2793 65.8481 48.2793 65.5908 48.2793 65.2966C49.0146 65.4069 49.272 64.8922 49.5293 64.3407C50.3382 62.576 51.1838 60.848 51.9926 59.0832C52.0294 58.9729 52.103 58.8994 52.1397 58.7891C52.3971 58.7891 52.6544 58.7891 52.9486 58.7891C53.3162 59.5979 53.7207 60.4068 54.0883 61.2524C54.603 62.3554 55.1178 63.4216 55.5957 64.5245C55.7795 65.1128 56.0001 65.554 56.7355 65.3334ZM51.9559 61.2524C51.625 61.9509 51.3676 62.5392 51.0735 63.1642C51.6985 63.1642 52.25 63.1642 52.8383 63.1642C52.5441 62.5392 52.2868 61.9142 51.9559 61.2524Z" fill="#007ABF"/>
<path d="M100.524 59.3389C100.634 59.1551 100.744 59.008 100.855 58.8242C101.075 58.8242 101.259 58.8242 101.516 58.8242C101.553 59.8169 101.627 60.8096 101.664 61.839C101.406 61.839 101.149 61.839 100.855 61.839C100.781 61.5817 100.708 61.3243 100.634 61.0669C100.413 60.4051 100.009 59.8904 99.3105 59.6698C98.5384 59.4125 97.7663 59.7434 97.3987 60.4419C97.2516 60.736 97.1413 61.1037 97.0678 61.4346C96.9207 62.317 96.9575 63.1994 97.2149 64.045C97.4354 64.8171 97.9134 65.295 98.759 65.3318C99.5679 65.3685 100.266 65.0744 100.671 64.3391C100.855 64.045 100.928 63.6773 101.075 63.3464C101.296 63.3464 101.553 63.3464 101.811 63.3464C101.7 64.8906 100.708 65.9568 99.1267 66.1774C97.2516 66.4348 95.4133 65.3685 94.9354 63.6405C94.5309 62.1699 94.8618 60.6625 96.0751 59.6331C97.2516 58.6772 99.0531 58.4198 100.34 59.2286C100.413 59.3022 100.487 59.3022 100.524 59.3389Z" fill="#007ABF"/>
</svg>
