<svg width="200" height="91" viewBox="0 0 200 91" fill="none" xmlns="http://www.w3.org/2000/svg">
<path d="M4.58789 38.682V38.7995L4.70538 38.7212V38.6429L4.66622 38.5646H4.58789V38.5254L4.62705 38.682H4.58789Z" fill="black"/>
<path d="M4.62687 38.6813L4.58789 38.5254V38.6813H4.62687Z" fill="black"/>
<path d="M31.8102 60.8187V60.5837V60.5054V60.4662V60.427V60.3095L31.7711 60.192L31.7319 60.0353L31.6927 59.8786L31.6536 59.722V59.6436L31.6144 59.5261V59.4478V59.4086V59.3303H31.5752V59.2911L31.536 59.1736L31.4577 58.9386V58.8211L31.301 58.5469V58.4685L31.2619 58.3902L31.2227 58.3119L31.1835 58.2727V58.2335V58.1944L31.1052 57.9985L31.0268 57.881H31.066L31.0268 57.7635V57.6852L30.9485 57.5676V57.5285L30.831 57.3326V57.2935V57.2151L30.6351 56.7843L30.596 56.6667L30.4785 56.3926L30.4001 56.1184L30.2826 55.7659L30.2043 55.57H30.1651L30.0868 55.4133L30.0084 55.1783V55.1L29.9693 54.9041H29.9301V54.865L29.8909 54.7866H29.8518V54.7474V54.7083V54.6691V54.6299V54.5908H29.8126V54.5516L29.7734 54.5124V54.4341V54.3949L29.7342 54.3166L29.6951 54.1991H29.6559L29.6167 54.0816V54.0032V53.9641L29.5776 53.8857L29.5384 53.8466L29.3817 53.494L29.225 53.1807L28.8333 52.4365V52.3973H28.7942V52.3581L28.4025 51.9272L28.3633 51.8097V51.7706L28.3241 51.6922V51.6531V51.6139V51.5747L28.1675 51.4964L28.1283 51.418V51.3789L28.0891 51.2614L28.05 51.0655V51.0263L28.0108 50.9872V50.948V50.9088V50.8305V50.7913V50.713L27.9716 50.6738V50.6347V50.5955V50.5563L27.8933 50.243V50.1255V50.0863L26.8749 49.1462L27.5016 49.107L27.8933 49.4987V49.4596V49.4204V49.3421V49.2637L27.9324 49.1854V49.1462V49.107L28.0108 48.9895L28.0891 48.9112L28.2458 48.8329H28.3241V48.7937L28.2458 48.6762L28.1675 48.5587L28.05 48.3237L28.0108 48.0886V48.0495L27.9716 47.8928L27.9324 47.8145H26.4832H26.4048H26.3265H25.4648H25.3864L26.6007 48.9895L26.5615 49.5771V49.6162V49.6946L25.5039 64.4615L25.3864 48.8329V48.7545V48.6762V47.8536L24.5247 48.7545L24.2113 49.0679L23.6238 49.0287H23.5846H23.5063L15.124 48.4412V48.4803V48.5195L15.0848 48.637L15.0456 48.6762V48.7154V48.7937V48.872H15.0848V48.9112V48.9504H15.0456V49.0679L14.9673 49.107L15.0065 49.2246L14.9673 49.3029L14.9281 49.3421L14.8498 49.4204V49.4987V49.5771V49.7729V49.8121L14.8106 49.8513V49.9296L14.7715 49.9688L14.6931 50.0863L14.654 50.243L14.6931 50.3213L14.654 50.3605L14.6148 50.478V50.5171H14.5756H14.5364V50.5563L14.4973 50.5955V50.7522L14.4581 50.8697L14.3798 50.948L14.3014 51.0263L14.2623 51.0655V51.1439L14.2231 51.2614H14.3014H14.3406V51.3397V51.4572V51.5747V51.6139V51.8097V51.9664V52.0056V52.1231V52.1623V52.2406V52.3189L14.3014 52.3973V52.4365L14.2623 52.6323V52.6715V52.7106L14.1839 52.8673V52.9065L14.1447 52.9457V53.024H14.1056H14.0664L14.1056 52.8673V52.8281L14.1447 52.6715L14.1056 52.6323L14.0664 52.8281V52.9065V53.024V53.1023V53.2198V53.2982V53.3765V53.4157V53.4549V53.494V53.5332V53.5724L14.1447 53.6899L14.2231 53.729L14.3014 53.8074L14.3798 53.8466L14.4189 53.8857V53.9249L14.4973 54.0424L14.5364 54.0816L14.5756 54.1991L14.6148 54.2774L14.654 54.3166L14.6931 54.3558L14.7323 54.3949V54.4733V54.5124V54.7083V54.9041V54.9825V55.1L14.7715 55.1391L14.9281 55.0608L14.9673 54.9433L14.889 54.9041H14.8498L14.8106 54.7866V54.7474L14.8498 54.5908V54.5516H14.9673H15.0848V54.4733H15.124L15.2023 54.5124H15.2415H15.2807L15.3198 54.4733L15.359 54.4341L15.3982 54.3558V54.3166V54.2774V54.1991V54.1207V54.0032V53.9641L15.4373 53.9249L15.4765 53.8857L15.5157 53.8074H15.5549L15.594 53.729L15.6724 53.6507L15.6332 53.5724V53.494L15.594 53.4157V53.2982H15.7899V53.2198V53.1023L15.5157 53.1807L15.359 53.1023V53.024V52.9848H15.0848L15.0065 52.9457L14.9673 52.9065V52.8673H14.889H14.8498L14.8106 52.8281V52.789L14.7715 52.7106L14.8106 52.6715H14.8498L15.2415 52.5931H15.3982L15.594 52.554L15.7899 52.5931H15.829V52.6323L15.9074 52.7106V52.7498L15.9465 52.8281V52.8673V52.9065V52.9457V52.9848V53.024V53.0632V53.1023H15.9074V53.1415L15.9857 53.1807V53.259L15.9465 53.2982H15.8682V53.4157L15.9857 53.494L16.1424 53.5724L16.2599 53.6115H16.3382L16.3774 53.4549L16.3382 53.4157L16.2991 53.3765L16.2599 53.2982V53.259V53.1807V53.1415V53.1023V52.9848V52.9457V52.9065L16.3382 52.8281L16.4166 52.9065V52.9457V52.9848L16.4558 53.024H16.4949L16.5733 53.0632H16.6124H16.7299L16.8083 53.2198L16.8474 53.4157V53.4549V53.494L16.8083 53.6507L16.7691 53.6899L16.7299 53.729V53.8074L16.6124 53.8857V53.9249H16.5733L16.4558 53.9641L16.3382 54.0032L16.2991 54.0424L16.3382 54.0816V54.2774L16.2991 54.3166H16.2599L16.1424 54.3949L15.9857 54.6299L15.8682 54.8258L15.829 54.865L15.7899 55.0216L15.7507 55.1L15.6724 55.1783L15.594 55.2175L15.4765 55.2958V55.3742L15.359 55.5308L15.3198 55.57L15.2807 55.6092V55.6483V55.7267H15.2023H15.124L15.0848 55.7659L15.0456 55.805V55.8442V55.8834H15.0065H14.9281V55.805V55.7267L14.889 55.6875H14.8106L14.7323 55.6483H14.6931L14.7323 55.6875L14.7715 55.7267L14.8106 55.7659L14.8498 55.805H14.889L14.9281 55.8834V55.9225V55.9617L14.9673 56.0009V56.04L15.0456 56.2359V56.2751L15.1632 56.3534L15.2807 56.4709L15.3982 56.5884L15.5157 56.7843L15.5549 56.8234L15.6332 57.0193L15.7115 57.0976L15.7899 57.2151L15.829 57.2543V57.3718V57.411H15.8682V57.4501L15.9074 57.4893L15.9465 57.5285L16.0249 57.5676L16.0641 57.646L16.1032 57.7243L16.2207 57.9593L16.2991 58.0768V58.116L16.4558 58.3902L16.4949 58.5861H16.5341V58.6252V58.7036V58.7427L16.5733 58.8211V58.8602L16.6124 58.9777L16.7691 59.2519L16.8866 59.487L17.0433 59.7611L17.0825 59.8003L17.2 60.0353L17.2783 60.1137V60.1528L17.5133 60.5054L17.5917 60.5837L17.67 60.7012L17.7092 60.8187V60.8579V61.0537V61.0929L17.7483 61.2887L17.7875 61.0537L17.8267 60.9362L17.905 60.8579L17.9834 60.9362H18.0225H18.0617H18.2576L18.2967 60.8971L18.4534 60.8579V60.8187L18.3751 60.3878L18.2576 60.0745V59.957L18.2967 59.9178L18.3359 59.8786H18.4926L18.5709 59.7611L18.6101 59.722L18.6492 59.6828H18.6884H18.8059H18.8451L18.9234 59.722V59.8003V59.8786H18.8451L18.8059 59.9178V60.0353V60.1137V60.1528L18.9626 60.192H19.0018H19.0409V60.2312V60.2703V60.3095V60.427V60.4662V60.5837V60.662V60.7404L19.0018 60.8187L19.0409 60.8971L19.0018 60.9362V61.0146L18.9626 61.1321L18.9234 61.2887V61.3279L18.8843 61.4454V61.5629L18.8451 61.6804H18.8059H18.7668L18.6884 61.5238V61.4846H18.6492V61.4454H18.6101L18.5317 61.4063L18.4926 61.4454H18.3751V61.4846V61.5629V61.6021L18.5317 61.7588H18.5709V61.7979L18.6101 61.8371L18.6492 61.8763L18.6884 61.9546V61.9938L18.7276 62.1113V62.1505L18.7668 62.1896V62.2288V62.268V62.3072V62.3463V62.3855L18.8451 62.503L18.8843 62.6597V62.6988V62.738V62.8164V62.8555H18.9234L19.0018 62.8164H19.0409L19.0801 62.7772L19.1193 62.6988L19.1585 62.6205H19.1976L19.3151 62.5813L19.4326 62.6205L19.511 62.6597H19.5502L19.511 62.738L19.5502 62.8164L19.6285 62.7772L19.7068 62.8164H19.7852V62.8947V62.9339V62.973H19.8635L19.981 63.0514L20.0594 63.1297L20.1377 63.1689V63.2081L20.1769 63.2472V63.2864L20.2552 63.3647L20.2944 63.4039L20.4119 63.5214V63.5606L20.4511 63.5997V63.6781L20.5294 63.8348L20.6077 64.0698V64.1481L20.6469 64.1873L20.6861 64.3831V64.4223V64.5006V64.5398L20.7252 64.6965V64.7357L20.7644 64.8923V64.9707V65.049L20.8036 65.1274V65.2449V65.284L20.8427 65.5582L20.8819 65.6366L21.1169 66.1066V66.1458L21.1561 66.1849H21.1169V66.2241V66.3808V66.4591L21.1561 66.4983V66.5375L21.1953 66.5766L21.2344 66.655L21.2736 66.8116L21.352 66.8508H21.3911L21.5086 67.1642H21.5478V67.2033H21.587L21.6261 67.125V67.0467V67.0075L21.6653 66.9291L21.7045 66.8508H21.7828H21.9003H21.9787H22.057H22.2529H22.292L22.527 66.7725H22.6054H22.6837V66.8116V66.89V66.9291L22.7229 66.89H22.8404H22.9187V66.9291L22.9971 67.0075L23.1146 67.0467L23.1929 67.0075H23.2321H23.2713L23.4279 67.125V67.2033H23.4671L23.6238 67.3208H23.663V67.36L23.7021 67.4384L23.7413 67.5167V67.5559V67.595L23.6238 67.6734V67.7125V67.7517L23.7021 67.7909L23.7413 67.8692V67.9084V68.0259L23.7805 68.0651L23.8196 68.0259L24.0938 68.2217L24.1722 68.3784L24.2505 68.4176L24.368 68.5351L24.4464 68.6918V68.8093L24.5247 68.8876V68.966L24.5639 69.0835L24.6814 69.1618L24.7205 69.201V69.2401L24.6814 69.3577V69.436L24.7989 69.5927L24.8772 69.6318L24.9556 69.7102L25.1122 70.1019V70.141V70.1802V70.2586L25.1514 70.2977H25.2297L25.2689 70.3761L25.3473 70.4936V70.5719L25.3081 70.6111L25.2297 70.5719L25.1906 70.6111L25.1514 70.6502V70.7286V70.7678V70.8853L25.1122 70.9244L25.0339 71.1203V71.2378V71.3553L24.9947 71.3945V71.4336V71.5903V71.6295H25.0339L25.1122 71.7078L25.1514 71.8253V71.8645L25.1906 71.982L25.2297 72.0212L25.3473 72.0603L25.3864 72.0995L25.5039 72.217L25.6214 72.2562L25.7781 72.1779H25.974L26.0523 72.217H26.0915L26.2873 72.1387H26.3657H26.4832L26.6398 72.0995H26.7574V72.0603V72.0212V71.9428L26.914 71.8253H26.9924H27.0707H27.1491L27.1882 71.8645V71.9037L27.2274 71.9428L27.2666 71.9037L27.3841 71.8253L27.6191 71.8645L27.6583 71.9037L27.6974 71.9428V71.982V72.0212L27.8149 71.982H27.8541L27.8933 72.0212H27.9716V71.982L28.0108 71.9037L28.05 71.8645H28.0891H28.1675L28.2066 71.8253H28.285V71.7862H28.3241H28.4025L28.4808 71.747L28.52 71.7078L28.5592 71.6687L28.6375 71.5903L28.5983 71.5511V71.4336L28.7158 71.3161H28.7942H28.9509L28.99 71.3945V71.4336V71.4728H29.0684H29.1075H29.1467L29.1859 71.5511L29.225 71.5903H29.2642L29.3034 71.5511L29.3426 71.4728L29.4209 71.3553L29.4601 71.3161L29.5776 71.2378L29.6167 71.1986L29.7342 71.1595L29.9301 70.9636L29.9693 70.8461L30.0476 70.7286L30.0868 70.6894L30.1259 70.6502H30.1651L30.2826 70.6111L30.3218 70.5719L30.4393 70.3761L30.4785 70.3369V70.2586V70.2194H30.4001L30.361 70.1802V69.9844L30.4001 69.906L30.361 69.8669V69.8277L30.3218 69.7493V69.7102V69.6318V69.5143H30.2826L30.3218 69.4752L30.361 69.2793V69.2401H30.4001L30.4785 69.201L30.5176 69.0443L30.5568 69.0051L30.5176 68.966V68.8485V68.7701L30.5568 68.6918V68.6526V68.5743L30.596 68.5351L30.6351 68.4959L30.7135 68.3784V68.3392L30.7918 68.1042V68.0651V67.9476L30.831 67.8692V67.83H30.8702V67.7909H30.9093H30.9485L31.0268 67.7517L31.1444 67.7125L31.2227 67.6734V67.7125L31.301 67.7517L31.3402 67.7909L31.3794 67.83L31.3402 67.9084V67.9476V68.0651V68.1042V68.1434L31.4577 68.2609V68.1826V68.1434V67.9867L31.4969 67.8692V67.7909V67.7517V67.7125L31.536 67.6734V67.6342V67.595L31.5752 67.5559V67.5167V67.4775V67.4384V67.3992V67.3208V67.2817V67.2033V67.0858V67.0467V67.0075V66.9683V66.9291V66.8116V66.7725V66.7333V66.6941V66.655V66.6158V66.5375V66.4983V66.4199V66.3808V66.2241V66.1066V66.0283V65.8716V65.7541V65.5582V65.519V65.3232L31.6144 65.284V65.2449V65.1665V64.9707V64.8923V64.814V64.7748V64.6573V64.6182V64.5398V64.5006V64.4223V64.344V64.3048L31.6536 64.1873V64.1481V64.1089L31.6927 63.8348V63.7956V63.6781V63.5606V63.4431V63.3647V63.1689V62.8947V62.8164V62.7772V62.6988V62.6597V62.5422L31.7319 62.3463L31.7711 62.1113L31.8102 61.9155V61.7979V61.7196V61.6021V61.3671L31.7711 61.1712L31.8102 61.0146V60.9362V60.8971V60.8187ZM19.7852 53.8857L24.0938 49.2246L24.133 49.8513L19.7852 53.8857Z" fill="#2B822D"/>
<path d="M24.486 47.8916H24.5643H25.3869H25.426L25.3869 47.8525L25.3477 47.8133L24.5251 46.9908L24.2118 46.6774L24.2509 46.0899V46.0115V45.9332L24.5251 42.0554L24.4076 41.7812V41.742L24.3685 41.6245L24.3293 41.507L24.2509 41.3895L24.1726 41.1545L24.0943 40.9587L24.0551 40.8803L23.9768 40.6845L23.9376 40.6061L23.8592 40.5278V40.4886H23.8201L23.7809 40.3319L23.7417 40.2928V40.2536V40.1753L23.6634 39.9794L23.5459 39.7836L23.5067 39.7052V39.6661L23.4676 39.431V39.196V39.1569V39.1177V38.961L23.4284 38.8435L23.3892 38.7652V38.726H23.35V38.6477V38.6085L23.2717 38.4518L23.2325 38.3343L23.0759 37.6684L22.8408 37.0417L22.7625 36.7283L22.6842 36.415L22.645 36.2583V36.2191L22.6058 36.18L22.5667 36.0625V36.0233V35.9841V35.945V35.9058V35.7883V35.6316V35.5141L22.5275 35.3966V35.3574L22.4883 35.2007V34.7699L22.3708 34.6524H22.2925L22.2141 34.6915L22.2533 34.6524L22.2925 34.574V34.4565L22.2533 34.2998V34.1823V33.9865V33.9473V33.7515V33.7123V33.6731L22.2925 33.5165V33.4773V33.3206H22.2533L22.175 33.2423H22.0966H22.0574H22.0183V33.2031L21.9399 33.1639V33.1248L21.9008 33.1639H21.8224H21.7833H21.7441H21.7049V33.2031L21.6658 33.2423H21.6266V33.2031H21.5874H21.5091H21.4699V33.1639H21.4307H21.3524H21.3132H21.2741V33.2031L21.2349 33.1639V33.1248H21.1174L21.039 33.1639V33.1248V33.0856V33.0464H20.9999H20.9607H20.9215V33.0856H20.8432V33.0464H20.804H20.7257H20.6865H20.6473H20.6082H20.569L20.4907 32.9681V32.9289H20.4515L20.4123 32.8897H20.3732V32.9289H20.334V32.8897V32.8506L20.2948 32.8114L19.9815 32.7331H19.9423H19.9031H19.864H19.7856H19.7464H19.7073L19.6681 32.6939L19.6289 32.7331L19.5898 32.6939L19.5506 32.6547H19.5114L19.4723 32.5764H19.4331V32.5372H19.3939V32.5764H19.3547H19.2764H19.1981V32.5372H19.1589V32.498H19.1197L19.0806 32.5764H19.0414V32.6156V32.6939L19.0022 32.8114V32.8506H18.963H18.9239L18.8847 32.8114L18.8455 32.7722H18.8064H18.728H18.6889V32.8114L18.728 32.8897L18.7672 32.9681V33.0072L18.728 33.0464H18.6497L18.6105 33.0856V33.1248V33.1639V33.2031V33.2423V33.2814L18.6497 33.3598L18.6105 33.4773L18.5714 33.5556V33.7123L18.6105 33.7515H18.6497V33.7906H18.6889L18.6497 33.8298L18.6889 33.869L18.728 33.9081V33.9865V34.0257H18.7672V34.104L18.8064 34.1432V34.1823V34.2215V34.2998L18.7672 34.4174V34.5349V34.6132V34.6524V34.6915V34.7307V34.7699V34.809V34.8874V34.9266H18.728V35.0832V35.1616L18.6889 35.2007L18.728 35.2399V35.2791L18.6889 35.3182V35.3574V35.3966V35.4358V35.5141V35.5533V35.5924V35.6316V35.6708L18.6497 35.7099L18.5714 35.7491H18.5322H18.4538H18.3755V35.7099H18.3363H18.258H18.2188H18.1797H18.0621L17.9838 35.7491H17.9446L17.8663 35.6708L17.8271 35.6316H17.788V35.5924L17.7488 35.5141L17.7096 35.4749L17.6705 35.3182V35.2399L17.7096 35.2007V35.1616V35.0832L17.6705 35.0441L17.7096 34.9657V34.9266V34.8482L17.6705 34.809L17.5921 34.8482V34.809H17.5529L17.5138 34.7699V34.7307V34.6915V34.6524V34.6132L17.4746 34.574V34.5349L17.5138 34.4565L17.5529 34.4174H17.5921H17.6313L17.6705 34.3782H17.4746H17.3963L17.1221 34.2998H16.5737L16.2995 34.2607H16.0645L15.6728 34.2215H15.6336H15.5553H15.5161H15.4378H15.3986H15.2811L14.6544 34.1823H14.5761L13.4793 34.104H13.0876L12.5001 34.0648H12.1084H12.0692H12.03L11.9125 34.0257H11.8342H11.795H11.7558H11.6775H11.2858H11.2075L10.9724 33.9865H10.9333H10.7374H10.6591H10.5024L10.4632 33.9473H10.2282H10.1499H10.1107H9.79736L9.56234 33.9081H9.40566H9.13148H8.9748H8.77895L8.38725 33.869H7.99556H7.95639L7.91722 33.8298H7.72137H7.56469L6.7813 33.7906H6.70296H6.54628H6.50711H6.42877L6.31127 33.7515H6.2721H6.11542H6.07625H6.03708H5.84123L5.09701 34.2998L4.74448 34.809L4.39195 35.4749L2.35513 39.2744L2.12012 39.9011H2.15929L2.31597 39.7836L2.51181 39.6269H2.59015H2.66849H2.70766H2.74683V39.5877V39.5486H2.786L2.98185 39.3919V39.3527L3.02102 39.3135L3.1777 39.2352L3.29521 39.1569L3.33438 39.1177L3.45188 39.0785L3.60856 39.0393H3.72607L3.88275 38.961L4.00026 38.9218L4.03943 39.0393L4.11777 39.0785L4.15694 39.1177H4.27445L4.35279 39.0393V39.0002H4.19611V38.8043L4.31362 38.6868H4.43112H4.54863V38.5301V38.3343V38.256V38.2168L4.5878 38.0209H4.66614L4.82282 37.9818V38.0209L4.90116 38.0601H4.94033H5.01867V37.9818V37.9426L4.9795 37.8643V37.8251V37.7859L5.05784 37.7468L5.09701 37.7859V37.8643L5.13618 37.9034H5.29286H5.33203L5.37119 37.9426L5.44953 38.0209H5.52787H5.84123L5.95874 37.9426L5.99791 37.9034L6.03708 37.8643L6.11542 37.9034L6.15459 37.8643V37.8251H6.19376H6.23293L6.2721 37.8643L6.31127 37.8251V37.7859H6.35043L6.3896 37.7468H6.46794H6.54628H6.62462L6.74213 37.7859L6.82047 37.8643L6.89881 37.9034L6.93798 37.9426H6.97715L7.01632 37.9818L7.09466 38.0209L7.173 38.0993H7.21217L7.173 38.1385H7.21217L7.25134 38.1776H7.32967L7.40801 38.2168L7.48635 38.256L7.56469 38.2951L7.76054 38.3735L7.79971 38.4126V38.4518H7.83888L7.95639 38.491H8.03473H8.0739H8.11307L8.19141 38.5693L8.30891 38.6085V38.6477L8.42642 38.726L8.54393 38.8043L8.70061 38.8827L8.73978 38.9218L8.81812 39.0002L8.85729 39.0393H8.89646L9.01397 39.1177L9.05314 39.2352H9.09231V39.3135L9.13148 39.3919L9.20982 39.431L9.24899 39.4702L9.28815 39.5877V39.7444V39.7836V39.8227V39.8619H9.32733L9.40566 39.9402L9.44483 40.0578L9.52317 40.1361V40.1753L9.56234 40.2144H9.67985L9.71902 40.2536L9.79736 40.2928H9.83653L9.8757 40.3319V40.4103L9.91487 40.4494L10.0324 40.5278H10.1499H10.1891H10.2282L10.3457 40.567V40.6845V40.7628L10.3849 40.802V40.9978L10.3457 41.1153V41.2328L10.3849 41.3112V41.3503V41.4287V41.507V41.5854L10.5024 41.6245L10.5416 41.6637L10.6199 41.7029H10.6983L10.7374 41.7812L10.8549 41.8987H10.9333H10.9724L11.0116 41.9379V41.9771L11.09 42.0946H11.1291L11.2466 42.1337H11.2858H11.4425H11.4817L11.5208 42.1729L11.5992 42.2512L11.6775 42.3688V42.4079V42.5254L11.7558 42.6038L11.8342 42.7213V42.7604V42.878V42.9563V43.0346L11.8733 43.1521L11.9125 43.1913H11.9517L11.9909 43.1521H12.03L12.1475 43.1913V43.2305L12.265 43.2697L12.3826 43.3088L12.4217 43.3872L12.4609 43.4263L12.3826 43.6222L12.4217 43.7789L12.5001 43.8572L12.5392 43.9355V43.9747L12.5001 44.053L12.5784 44.0922L12.6176 44.2097L12.7351 44.1705H12.7743L12.8134 44.1314V44.0922V44.053L12.9309 43.8964H12.9701H13.0093L13.0484 43.9355H13.0876H13.1659H13.2051H13.2835H13.3618H13.401L13.5576 43.9747H13.7535L13.9493 44.0139L14.106 44.0922L14.0668 44.2097L14.1452 44.3272V44.3664V44.4056H14.106L14.0277 44.4447L14.0668 44.6014H14.3019V44.6406V44.6798L14.4194 44.7189L14.4585 44.9148L14.4194 45.0714L14.3802 45.1106L14.4194 45.1498H14.5369L14.5761 45.3065L14.6152 45.3848V45.4631L14.7327 45.5807H14.7719L14.8111 45.6982L14.8502 45.7765L14.9286 45.8157H15.0461L15.1244 45.894L15.1636 45.9332V45.9723L15.1244 46.0899L15.1636 46.2074L15.1244 46.2465L15.0853 46.2857V46.4815V46.5207L15.1244 46.5599V46.6382L15.0853 46.7166V46.7949V46.8732L15.0069 46.9124L15.0461 46.9908V47.0691V47.1083V47.1474L15.1244 47.2258H15.0853L15.0461 47.4216V47.6175V47.6958L24.3293 47.6175H24.486V47.8916ZM23.4284 46.6382L19.3547 42.2512L24.0943 46.5991L23.4284 46.6382Z" fill="#2B822D"/>
<path d="M46.7342 48.5946C46.7342 48.5946 46.7342 48.4379 46.7342 48.1637C46.7342 48.0071 46.7342 47.8504 46.7342 47.6545C46.7342 47.4195 46.7342 47.2237 46.695 46.9887C46.6559 46.7536 46.6559 46.4794 46.6559 46.1661C46.6167 45.8527 46.5775 45.5394 46.5384 45.1477C46.46 44.7952 46.4209 44.4035 46.3425 43.9726C46.2642 43.5809 46.1858 43.1109 46.0292 42.68C45.5591 40.8782 44.7366 38.6847 43.3265 36.4521C41.9164 34.2194 39.8795 31.9476 37.216 30.1066C35.8842 29.1665 34.3566 28.3832 32.7115 27.7173C31.0664 27.0514 29.3037 26.6205 27.4236 26.3855C26.9536 26.3072 26.4835 26.3072 26.0135 26.2288C25.5435 26.2288 25.0343 26.1897 24.6034 26.1897C24.3292 26.1897 24.0942 26.1897 23.82 26.1897C23.585 26.1897 23.35 26.2288 23.1149 26.2288C22.6449 26.2288 22.1357 26.3072 21.6657 26.3855C20.6864 26.5422 19.7072 26.6989 18.728 26.9731C18.2187 27.0906 17.7487 27.2864 17.2787 27.4039C16.8086 27.5998 16.2994 27.7564 15.8294 27.9523C11.9516 29.5974 8.46552 32.4176 5.99783 36.0212C3.49098 39.6248 2.08087 44.0509 2.0417 48.5554C1.96336 53.0599 3.25596 57.5644 5.68447 61.2855C8.11299 65.0458 11.5991 67.9835 15.4769 69.7853C15.9469 70.0203 16.4561 70.2161 16.9653 70.412C17.4745 70.5687 17.9446 70.7645 18.4538 70.9212C19.4722 71.2345 20.4906 71.4304 21.509 71.6262C22.0182 71.7046 22.5274 71.7829 23.0366 71.8221C23.2716 71.8613 23.5458 71.8613 23.7808 71.9004C24.0158 71.9004 24.29 71.9004 24.5251 71.9396H24.8776H25.2693C25.5435 71.9396 25.7785 71.9396 26.0527 71.9396C26.5619 71.9004 27.0319 71.9004 27.5411 71.8221C29.4996 71.6262 31.3797 71.1954 33.1424 70.5687C34.905 69.942 36.511 69.1194 37.9602 68.1793C40.8588 66.2992 43.0914 63.9099 44.6582 61.5597C46.2642 59.2095 47.2043 56.8985 47.7526 54.94C48.3402 52.9816 48.536 51.3756 48.6144 50.2789C48.6927 49.7305 48.6535 49.2996 48.6927 49.0255C48.6927 48.7513 48.6927 48.7513 48.6927 48.7513L46.7342 48.5946ZM48.6927 48.7121C48.6927 48.7121 48.6927 49.5347 48.6927 49.848C48.6927 50.1222 48.7319 49.7305 48.6535 50.2789C48.6144 51.3756 48.4577 52.9816 47.9093 54.9792C47.4001 56.9769 46.4992 59.327 44.9324 61.7555C43.4048 64.184 41.1721 66.6517 38.2736 68.6885C36.8243 69.7069 35.1792 70.5687 33.3774 71.2737C31.5756 71.9788 29.6563 72.488 27.6195 72.723C27.1102 72.8013 26.601 72.8405 26.0527 72.8797C25.7785 72.8797 25.5435 72.9188 25.2693 72.9188H24.8776H24.4859C24.2117 72.9188 23.9767 72.9188 23.7025 72.9188C23.4283 72.9188 23.1541 72.8797 22.9191 72.8797C22.3707 72.8405 21.8615 72.8013 21.3131 72.723C20.2556 72.5663 19.1588 72.3705 18.1012 72.0571C17.5529 71.9396 17.0437 71.7438 16.4953 71.5871C15.9861 71.3912 15.4377 71.1954 14.9285 70.9604C10.7765 69.1977 7.01624 66.1817 4.31354 62.2256C1.61084 58.3086 0.083222 53.4908 0.00488281 48.5946C0.00488281 43.6984 1.41499 38.8022 4.07852 34.7286C6.70288 30.655 10.4632 27.4823 14.6935 25.5238C15.2027 25.2496 15.7511 25.0537 16.2994 24.8579C16.8478 24.6621 17.3962 24.4662 17.9446 24.3095C19.0413 23.957 20.1381 23.722 21.2348 23.5653C21.7832 23.487 22.3316 23.4086 22.9191 23.3695C23.1933 23.3303 23.5066 23.3303 23.7417 23.2911C24.0158 23.2911 24.2509 23.252 24.5251 23.252H24.7209H24.7992H24.9167H25.3084C25.5826 23.252 25.8568 23.252 26.131 23.252C26.6794 23.2911 27.2278 23.2911 27.737 23.3695C29.8521 23.6045 31.9281 24.0353 33.8082 24.7404C35.6884 25.4454 37.451 26.3072 39.0178 27.3256C42.1514 29.3624 44.5799 31.9476 46.2642 34.4936C47.9876 37.0396 49.0061 39.5465 49.6328 41.6616C49.7894 42.1708 49.907 42.7192 50.0245 43.1892C50.142 43.6592 50.2203 44.1293 50.2986 44.5601C50.377 44.991 50.4162 45.3827 50.4553 45.7352C50.4945 46.0878 50.5337 46.4403 50.5337 46.7536C50.5728 47.067 50.5728 47.3412 50.5728 47.537C50.5728 47.7329 50.5728 47.9287 50.612 48.0462C50.612 48.3204 50.612 48.7513 50.612 48.7513L48.6927 48.7121Z" fill="#0A3D5E"/>
<path d="M43.2481 47.771L41.9946 47.6927L27.2669 46.6351L31.0663 41.8564L31.8497 40.8772L30.9096 41.6997L26.601 45.695L25.3867 31.3198L25.2692 30.0664L25.1909 31.3198L24.1333 45.8909L19.3938 42.1698L18.4145 41.3864L19.2763 42.2873L23.3107 46.6351L8.77882 47.8493L7.52539 48.006L8.77882 48.0844L23.4283 49.1419L19.7463 53.8031L18.9629 54.7823L19.903 53.9206L24.2116 49.9253L25.4259 64.418L25.5434 65.6715L25.6217 64.418L26.6793 49.7295L31.3797 53.4897L32.3589 54.2731L31.4972 53.3722L27.5802 49.1028L42.0338 47.8885L43.2481 47.771ZM26.836 49.1419L27.4627 49.1028L31.458 53.4114L26.836 49.1419ZM26.4443 47.8885H26.366H26.2876H25.4259H25.3476L26.5618 49.0636V49.5728V49.612V49.6903L25.5042 64.4572L25.3867 48.8286V48.7502V48.6719V47.8493L24.525 48.7502L24.2116 49.0636L23.6241 49.0244H23.5849H23.5066L8.77882 48.006L24.4075 47.8885H24.4858H24.5642H25.3867H25.4259L25.3867 47.8493L25.3476 47.8102L24.525 46.9876L24.2116 46.6743L24.2508 46.0867V46.0084V45.9692L25.3084 31.3198L25.3867 46.8309V46.9093V46.9876V47.8493V47.9277L25.4259 47.8885L25.4651 47.8493L26.601 46.7134L27.1102 46.7526H27.1885H27.2669L42.073 47.8102L26.4443 47.8885ZM19.7855 53.8814L24.0941 49.2203L24.1333 49.847L19.7855 53.8814ZM24.055 46.5959L23.4283 46.6351L19.3154 42.2481L24.055 46.5959ZM30.988 41.7781L26.6793 46.4392L26.601 45.8125L30.988 41.7781Z" fill="#0A3D5E"/>
<path d="M107.996 31.2768C107.526 31.316 107.016 31.4335 106.546 31.5902C106.076 31.7469 105.567 31.9427 105.097 32.2169C104.392 32.6086 103.883 33.0786 103.57 33.5487C103.256 34.0187 102.982 34.6062 102.747 35.3113C101.885 37.7006 100.553 41.5001 98.7909 46.7488C96.9891 51.9975 95.1481 57.442 93.1896 63.0824H88.4501L79.6761 38.3665L71.7638 63.0824H67.0243C64.3999 55.4836 62.4023 49.6473 61.0314 45.5345C59.6213 41.4217 58.4853 37.9748 57.5061 35.1938C57.1927 34.3321 56.8794 33.7445 56.4877 33.3528C56.096 32.9611 55.626 32.5694 55.0384 32.1777C54.6076 31.9035 54.1767 31.7077 53.7066 31.551C53.2366 31.4335 52.6882 31.316 52.0615 31.2377V29.3967H69.8054V31.1593C68.7478 31.2768 67.9644 31.3943 67.4552 31.5119C66.946 31.6294 66.5543 31.7469 66.2409 31.8644C65.9667 31.9819 65.7709 32.1386 65.7317 32.2561C65.6534 32.4127 65.6534 32.5303 65.6534 32.6478C65.6534 32.8828 65.6925 33.0786 65.7317 33.2745C65.7709 33.4703 65.8492 33.7053 65.8884 33.9795C66.2801 35.1938 67.0243 37.5048 68.1602 40.9125C69.2962 44.3203 70.7063 48.5506 72.3905 53.5643L79.9895 29.3575H84.964L93.738 54.3476C95.0306 50.3132 96.0882 47.0621 96.8324 44.5161C97.6158 41.9701 98.2425 39.7766 98.7909 37.9748C99.1042 36.8781 99.3392 35.938 99.5351 35.1938C99.7309 34.4496 99.8093 33.7837 99.8093 33.2353C99.8093 32.922 99.6526 32.6086 99.3392 32.3736C99.0259 32.1386 98.6342 31.9427 98.125 31.7469C97.6941 31.5902 97.1066 31.5118 96.4407 31.3943C95.7356 31.316 95.1481 31.2377 94.6389 31.1985V29.3184H108.035V31.2768H107.996Z" fill="black"/>
<path d="M138.705 38.0174H136.942C136.472 36.7639 135.689 35.4713 134.592 34.1787C133.495 32.8862 132.398 32.1419 131.302 31.9069C130.831 31.7894 130.166 31.7502 129.343 31.7111C128.52 31.6719 127.815 31.6719 127.267 31.6719H122.449V44.4803H125.857C126.719 44.4803 127.502 44.3628 128.207 44.167C128.912 43.9711 129.539 43.5794 130.126 42.9919C130.479 42.6393 130.831 42.0126 131.223 41.1117C131.576 40.2108 131.811 39.4275 131.928 38.7616H133.691V52.6276H131.928C131.85 51.9617 131.615 51.1391 131.223 50.1599C130.831 49.1807 130.479 48.4756 130.126 48.1231C129.617 47.5747 128.991 47.183 128.285 46.948C127.58 46.7521 126.758 46.6346 125.857 46.6346H122.449V56.2312C122.449 57.2496 122.528 58.033 122.684 58.6205C122.841 59.208 123.115 59.6389 123.507 59.9523C123.898 60.2656 124.447 60.4615 125.113 60.5398C125.779 60.6181 126.719 60.6965 127.894 60.6965C128.442 60.6965 129.108 60.6965 129.852 60.6573C130.636 60.6573 131.302 60.579 131.85 60.5006C132.516 60.4223 133.103 60.3048 133.691 60.1481C134.278 59.9914 134.67 59.7564 134.983 59.4822C135.728 58.6988 136.589 57.5629 137.529 55.9961C138.47 54.4294 139.096 53.2543 139.37 52.4709H141.094L140.467 62.8508H109.249V61.0098C109.68 60.9707 110.267 60.9315 111.012 60.814C111.756 60.7356 112.304 60.6181 112.618 60.5006C113.205 60.2656 113.597 59.9523 113.832 59.5606C114.028 59.1689 114.145 58.6988 114.145 58.1113V34.5704C114.145 34.0221 114.067 33.552 113.871 33.1603C113.714 32.8078 113.283 32.4553 112.618 32.1811C112.226 31.9853 111.638 31.8286 110.894 31.6719C110.15 31.5152 109.602 31.3977 109.249 31.3585V29.5176H138.744V38.0174H138.705Z" fill="black"/>
<path d="M171.529 38.2899H169.688C169.218 36.9973 168.435 35.6264 167.299 34.1771C166.163 32.7278 165.066 31.9053 164.048 31.7878C163.578 31.7094 162.951 31.6703 162.168 31.6311C161.384 31.5919 160.679 31.5528 160.013 31.5528H154.843V44.5962H158.133C159.073 44.5962 159.896 44.4787 160.562 44.2828C161.267 44.087 161.854 43.6953 162.403 43.1469C162.794 42.7552 163.186 42.0893 163.538 41.1884C163.891 40.2875 164.126 39.5042 164.204 38.8383H165.967V52.8218H164.204C164.126 52.1167 163.891 51.255 163.46 50.2366C163.029 49.2182 162.677 48.5523 162.363 48.2389C161.893 47.7297 161.345 47.3772 160.64 47.1422C159.935 46.9072 159.073 46.7897 158.094 46.7897H154.804V57.7963C154.804 58.3447 154.921 58.8539 155.117 59.2456C155.313 59.6373 155.744 59.9506 156.331 60.2248C156.684 60.3815 157.154 60.499 157.741 60.6165C158.329 60.734 158.956 60.8123 159.543 60.8907V62.7317H141.604V60.8907C142.074 60.8515 142.661 60.7732 143.405 60.6948C144.15 60.6165 144.698 60.499 144.972 60.3815C145.52 60.1465 145.912 59.8723 146.147 59.4806C146.382 59.0889 146.461 58.5797 146.461 57.9921V34.4513C146.461 33.9029 146.382 33.4721 146.186 33.0412C145.991 32.6495 145.599 32.297 144.972 32.062C144.541 31.8661 143.954 31.7094 143.249 31.5528C142.544 31.3961 141.995 31.2786 141.604 31.2394V29.3984H171.529V38.2899Z" fill="black"/>
<path d="M186.178 63.5922C184.141 63.5922 182.261 63.3571 180.499 62.8479C178.736 62.3387 177.247 61.7512 176.033 61.0461L174.427 62.6913H172.43L172.116 50.6662H174.114C174.584 51.8021 175.132 53.0164 175.837 54.2698C176.542 55.5232 177.365 56.6592 178.266 57.6776C179.206 58.7351 180.303 59.5969 181.478 60.2236C182.653 60.8895 184.024 61.2028 185.63 61.2028C187.745 61.2028 189.39 60.6936 190.526 59.636C191.662 58.5785 192.21 57.2859 192.21 55.7191C192.21 54.4265 191.74 53.3298 190.761 52.4289C189.782 51.528 188.293 50.7837 186.296 50.1179C184.964 49.687 183.789 49.2953 182.692 48.9428C181.595 48.5902 180.538 48.1986 179.598 47.846C177.365 46.9451 175.72 45.6917 174.623 44.0074C173.526 42.3623 172.978 40.4822 172.978 38.4454C172.978 37.1528 173.252 35.8993 173.84 34.6851C174.388 33.4708 175.211 32.4133 176.307 31.4732C177.326 30.5723 178.658 29.8672 180.263 29.2797C181.869 28.7313 183.632 28.418 185.512 28.418C187.353 28.418 189.077 28.6922 190.683 29.2014C192.289 29.7106 193.542 30.2198 194.482 30.7681L195.931 29.358H197.968L198.164 40.7172H196.166C195.696 39.5029 195.148 38.2495 194.521 36.9569C193.895 35.6643 193.229 34.6067 192.524 33.7842C191.74 32.8833 190.878 32.1391 189.86 31.6299C188.842 31.0815 187.706 30.8073 186.335 30.8073C184.65 30.8073 183.28 31.2773 182.183 32.2566C181.086 33.2358 180.577 34.4109 180.577 35.821C180.577 37.1528 181.047 38.2495 181.987 39.0721C182.927 39.9338 184.376 40.678 186.335 41.3047C187.51 41.6964 188.685 42.0881 189.86 42.4798C191.074 42.8715 192.132 43.2632 193.072 43.6157C195.344 44.4775 197.067 45.6917 198.242 47.2585C199.417 48.7861 200.005 50.7054 200.005 53.0164C200.005 54.4657 199.652 55.8366 198.987 57.2075C198.321 58.5393 197.42 59.6752 196.284 60.5761C195.03 61.5553 193.581 62.3387 191.936 62.8479C190.291 63.318 188.372 63.5922 186.178 63.5922Z" fill="black"/>
</svg>
