<svg width="201" height="91" viewBox="0 0 201 91" fill="none" xmlns="http://www.w3.org/2000/svg">
<path d="M89.8574 45.5272C89.8574 70.3791 110.006 90.5273 134.858 90.5273C159.709 90.5273 179.858 70.3791 179.858 45.5272C179.858 20.6741 159.709 0.527344 134.858 0.527344C110.006 0.527344 89.8574 20.6741 89.8574 45.5272Z" fill="#FF0000"/>
<path d="M135.742 2.36916C132.637 2.36916 129.453 2.67135 126.629 3.33121C117.538 5.13193 108.123 11.5075 104.137 19.9151C103.151 22.0652 100.245 31.3165 106.028 35.4206C110.254 37.9083 116.537 36.4164 118.277 32.8725C120.515 28.2721 118.123 23.6499 115.815 20.6475C115.534 20.1175 115.534 19.4477 115.534 18.7813C115.465 15.3788 118.334 12.5724 121.409 11.3067C124.975 9.97343 130.985 10.1251 135.323 11.7742C138.382 12.937 140.989 15.5105 142.875 18.0454C143.785 19.4478 144.693 20.7808 145.113 22.315C147.28 29.2526 145.601 36.8589 142.035 42.7976C140.709 45.0672 139.029 47.2678 137.213 49.2679C135.183 51.6692 132.736 53.4733 130.429 55.6049C130.149 55.7397 129.938 56.0719 129.661 56.2696C127.003 58.6086 124.555 60.8093 121.826 63.1432C119.661 64.9422 117.423 66.9433 115.327 68.7443C114.627 69.4089 113.788 70.0115 113.16 70.6782C109.738 73.7647 106.443 76.9459 104.347 80.748C103.789 81.9511 103.114 83.0166 103.043 84.3499H160.681L164.794 65.398H158.956C158.956 65.398 157.978 68.3443 157.419 69.6082H124.136C125.744 68.2126 127.702 67.2084 129.452 66.0102C131.128 65.0771 139.87 60.3162 141.76 59.248C143.998 58.1292 147.729 55.7767 147.729 55.6436C150.091 54.0268 151.544 52.9386 153.363 51.6036C153.993 51.1377 154.86 50.1416 155.561 49.6741C160.036 45.337 162.774 40.845 164.266 34.3781C165.758 27.7863 163.894 19.0813 160.412 13.9848C154.734 5.94175 144.04 2.93144 138.691 2.46041C137.711 2.37409 136.726 2.36871 135.742 2.36916Z" fill="white"/>
<path d="M68.5831 19.5396C67.5024 16.8416 64.8699 13.9277 59.9398 14.328C53.6593 15.0108 51.702 21.0296 52.6512 24.6203C50.1498 22.9265 45.8964 22.1816 42.1838 25.3618C37.3904 30.1669 39.9542 36.6652 42.5895 38.2239C39.6853 37.955 35.0954 39.9174 34.08 45.0507C32.9998 51.4241 37.8585 55.1397 42.5895 55.1397H95.0516C100.522 55.1397 103.558 50.4069 103.217 45.9434C102.681 40.1181 97.3499 37.883 94.4422 38.3618C96.8716 37.0065 100.116 30.6395 95.1826 25.6342C91.2664 21.9091 86.2738 23.2644 84.5184 24.8892C85.4648 21.7774 83.9131 15.3449 77.5611 14.3274C77.122 14.2784 76.6993 14.252 76.2964 14.252C71.4476 14.2525 69.2674 17.797 68.5831 19.5396Z" fill="white"/>
<path d="M43.058 26.3752C40.2881 28.8825 39.28 34.5638 44.2731 37.885L64.1924 51.551L54.534 29.424C52.5103 24.2025 46.9737 23.0639 43.058 26.3752Z" fill="#F58423"/>
<path d="M60.9097 15.5801C60.6716 15.5803 60.4358 15.5933 60.2035 15.6189C56.9657 15.6848 52.1037 19.5406 54.2674 25.4284L64.2566 48.9869L67.7666 24.2078C68.5282 18.4356 64.4805 15.5768 60.9097 15.5801Z" fill="#D21F44"/>
<path d="M69.327 23.2613H71.2157C71.2157 23.2613 72.2245 23.2613 72.3617 23.737C71.6184 24.344 69.5953 24.42 69.8637 27.6625L73.0391 48.9819L82.9601 25.3615C84.9894 20.0876 80.7299 15.683 76.9514 15.5484C76.7751 15.5357 76.5979 15.5254 76.4147 15.5254C73.0232 15.5254 69.137 17.9901 69.327 23.2613Z" fill="#8178B8"/>
<path d="M82.5605 29.6256L73.1768 51.4872L93.0903 37.749C97.6806 34.4931 96.9403 29.2877 94.3708 26.7148C93.2935 25.5039 91.3157 24.5684 89.2204 24.5684C86.7452 24.5679 84.0962 25.8809 82.5605 29.6256Z" fill="#0F9CD8"/>
<path d="M90.8594 40.859L72.1582 53.9216H95.1847C99.9088 53.9216 102.945 49.0505 101.595 44.5807C100.691 41.7712 98.0169 39.5657 94.9129 39.5625C93.6065 39.563 92.2208 39.9566 90.8594 40.859Z" fill="#7BC143"/>
<path d="M42.5207 53.9227H65.2074L46.5016 40.8601C42.1802 38.0835 37.3209 39.7081 35.5667 44.3157C34.0798 49.5902 37.7924 53.9227 42.5207 53.9227Z" fill="#FCB716"/>
<path d="M21.9023 58.3301L27.9474 73.0595H30.4381L34.7989 62.6487L39.094 73.06H41.5661L47.5405 58.3306H44.2614L40.4319 68.605L36.2776 58.3301H33.7883L29.5977 68.6045L25.6995 58.3301H21.9023Z" fill="black"/>
<path d="M48.3379 58.3303V73.0596H64.4848V70.3024H51.9984V66.6806H59.1671V64.1391H51.9984V60.9311H64.2874V58.3301L48.3379 58.3303Z" fill="black"/>
<path d="M70.5116 58.3301C68.9877 58.3301 67.9546 58.5782 67.4165 59.0711C66.8765 59.5654 66.6097 60.4734 66.6097 61.7981V63.4504C66.6097 64.7869 66.8765 65.7017 67.4165 66.1978C67.9548 66.6889 68.9877 66.9353 70.5116 66.9353H80.1358V70.3021H69.2105V68.5705L65.9785 69.1645V69.573C65.9785 70.923 66.2503 71.8394 66.7936 72.3272C67.3387 72.8165 68.3786 73.0596 69.9125 73.0596H79.5468C81.0524 73.0596 82.075 72.8165 82.615 72.3272C83.155 71.8394 83.4251 70.923 83.4251 69.573V67.5479C83.4251 66.1996 83.1601 65.2865 82.6318 64.8055C82.1036 64.3213 81.076 64.0796 79.5468 64.0796H69.8789V60.9712H80.0969V62.5424L83.2462 61.8843V61.5299C83.2462 60.34 82.9694 59.5081 82.4123 59.0356C81.8572 58.5632 80.8278 58.3301 79.3258 58.3301H70.5116Z" fill="black"/>
<path d="M100.609 58.3301V63.9229H89.307V58.3301H85.6465V73.0593H89.307V66.8559H100.609V73.0596H104.234V58.3303L100.609 58.3301Z" fill="black"/>
</svg>
