<svg width="201" height="91" viewBox="0 0 201 91" fill="none" xmlns="http://www.w3.org/2000/svg">
<path d="M29.4618 57.5208H16.3186V36.7156H29.4618C35.3232 36.7156 41.3321 39.6631 41.3321 47.1183C41.3321 54.5724 35.3232 57.5208 29.4618 57.5208ZM27.9703 25.9469C16.3401 25.9469 6.91211 35.375 6.91211 47.0063C6.91211 58.6365 16.3401 68.0645 27.9703 68.0645C39.6005 68.0645 49.0285 58.6365 49.0285 47.0063C49.0285 35.375 39.6005 25.9469 27.9703 25.9469Z" fill="white"/>
<path d="M28.6629 42.7714H22.8672V51.4629H28.6629C32.8735 51.4629 34.3617 49.7151 34.3617 47.1177C34.3617 44.5192 32.8627 42.7714 28.6629 42.7714Z" fill="white"/>
<path d="M74.4618 47.7024L70.9803 38.1958H66.2475L62.7659 47.7024L59.9758 38.1958H53.7568L59.6118 56.5273H64.8841L68.5821 47.6529L72.3447 56.5273H77.6171L83.4709 38.1958H77.2531L74.4618 47.7024Z" fill="white"/>
<path d="M77.6177 56.5267H72.3453L68.5827 47.6533L64.8848 56.5267H59.6113L53.7575 38.1962H59.9753L62.7666 47.7017L66.2481 38.1962H70.9799L74.4625 47.7017L77.2526 38.1962H83.4715L77.6177 56.5267ZM27.9707 68.0642C16.3405 68.0642 6.91251 58.6352 6.91251 47.005C6.91251 35.3748 16.3405 25.9468 27.9707 25.9468C39.6009 25.9468 49.0289 35.3748 49.0289 47.005C49.0289 58.6352 39.6009 68.0642 27.9707 68.0642ZM67.8214 20.0444C59.8558 20.0444 52.7011 23.5109 47.7819 29.017C42.8628 23.5109 35.707 20.0444 27.7424 20.0444C12.9064 20.0444 0.879883 32.0709 0.879883 46.907C0.879883 61.743 12.9064 73.7695 27.7424 73.7695C35.707 73.7695 42.8628 70.3031 47.7819 64.796C52.7011 70.3031 59.8558 73.7695 67.8214 73.7695C82.6564 73.7695 94.6829 61.743 94.6829 46.907C94.6829 32.0709 82.6564 20.0444 67.8214 20.0444Z" fill="#0C2950"/>
<path d="M28.6625 51.4632H22.8668V42.7718H28.6625C32.8623 42.7718 34.3613 44.5196 34.3613 47.118C34.3613 49.7155 32.8731 51.4632 28.6625 51.4632ZM29.4616 36.7144H16.3184V57.5195H29.4616C35.323 57.5195 41.3319 54.5721 41.3319 47.1169C41.3319 39.6618 35.323 36.7144 29.4616 36.7144Z" fill="#0C2950"/>
<path fill-rule="evenodd" clip-rule="evenodd" d="M141.329 33.4813H144.425V44.8703H141.858L141.635 44.0174C140.672 44.5741 139.576 45.0469 138.548 45.0469C135.723 45.0469 134.324 43.6588 134.324 40.2656V33.4813H137.357V39.7777C137.357 41.6946 138.067 42.219 139.548 42.219C140.016 42.219 140.741 41.9692 141.329 41.631V33.4813ZM116.708 37.2234C116.708 39.9091 115.301 41.6752 112.216 41.6752H109.977V32.7706H112.32C115.427 32.7706 116.708 34.2222 116.708 37.2234ZM120.157 37.2234C120.157 31.6301 117.005 29.5766 112.635 29.5766H106.554V44.8703H112.416C116.606 44.8703 120.157 42.5981 120.157 37.2234ZM175.168 36.5924C174.422 36.0582 173.679 35.788 172.819 35.788C171.235 35.788 170.355 37.3473 170.308 38.9356C170.257 40.5833 171.103 42.2621 172.986 42.2621C173.773 42.2621 174.433 42.1103 175.325 41.4372L176.909 43.3368C175.745 44.3932 174.426 45.0307 172.896 45.0307C169.032 45.0307 167.198 41.939 167.257 38.899C167.314 35.9549 169.145 33.0602 172.636 33.0602C174.225 33.0602 175.622 33.5793 176.59 34.5172L175.168 36.5924ZM181.658 44.7884H178.602V29.078H181.658V33.7409C182.421 33.4092 183.579 33.0602 184.436 33.0602C187.261 33.0602 188.826 34.4483 188.826 37.8416V44.7884H185.753V38.3294C185.753 36.4126 185.001 35.8881 183.519 35.8881C183.051 35.8881 182.245 36.1379 181.658 36.4771V44.7884ZM127.275 33.0645C124.301 33.0645 122.223 35.5381 122.258 39.0616C122.295 42.695 124.205 45.0372 127.738 45.0372C129.303 45.0372 130.946 44.3577 131.873 43.1764L130.321 41.644C130.321 41.644 129.321 42.3892 127.971 42.443C126.339 42.5087 125.348 41.5492 125.221 39.9727H131.96C132.675 35.3034 130.533 33.0645 127.275 33.0645ZM129.379 37.8986H125.193C125.27 36.643 126.046 35.5403 127.245 35.5403C129.348 35.5403 129.373 37.3236 129.379 37.8986ZM153.736 41.8109C153.736 41.8109 153.141 42.0919 152.595 42.0919C151.875 42.0919 151.481 41.8885 151.481 40.7965V35.7804H154.233V33.4275H151.481V30.6825H149.018L148.588 33.4275H146.544V35.7804H148.506L148.467 41.5234C148.467 43.5339 149.382 44.9747 151.666 44.9747C152.852 44.9747 153.672 44.5063 154.59 43.8516L153.736 41.8109ZM196.056 33.0645C193.081 33.0645 191.003 35.5381 191.04 39.0616C191.076 42.695 192.985 45.0372 196.519 45.0372C198.084 45.0372 199.727 44.3577 200.653 43.1764L199.101 41.644C199.101 41.644 198.102 42.3892 196.751 42.443C195.12 42.5087 194.13 41.5492 194.002 39.9727H200.741C201.457 35.3034 199.313 33.0645 196.056 33.0645ZM198.16 37.8986H193.973C194.049 36.643 194.826 35.5403 196.026 35.5403C198.128 35.5403 198.153 37.3236 198.16 37.8986ZM164.396 36.5084L165.312 34.192C165.312 34.192 163.279 33.0452 161.06 33.0796C158.27 33.1216 156.553 34.233 156.508 36.3296C156.48 37.6208 157.096 38.7278 158.59 39.5139C159.707 40.1019 160.747 40.4454 161.772 40.8298C162.296 41.0269 162.659 41.3209 162.551 41.813C162.463 42.2244 162.01 42.3892 161.673 42.4376C160.298 42.6336 158.638 42.1081 157.212 41.5008L156.276 43.6965C156.276 43.6965 158.32 45.0286 160.95 45.0286C163.015 45.0286 165.531 44.4126 165.718 41.8464C165.838 40.2257 165.13 39.1801 163.426 38.4758C162.728 38.1861 160.465 37.3365 160.465 37.3365C159.776 37.0856 159.541 36.7022 159.625 36.2897C159.76 35.6242 160.762 35.6426 161.542 35.704C163.117 35.8278 164.396 36.5084 164.396 36.5084Z" fill="#0C2950"/>
<path fill-rule="evenodd" clip-rule="evenodd" d="M146.479 49.236H143.423V64.9475H146.479V49.236ZM123.985 50.665H120.684L119.283 57.2877C119.143 58.0092 118.897 60.0499 118.827 60.6831C118.711 60.0499 118.32 58.0308 118.134 57.2877L116.3 50.665H113.223L111.413 57.2877C111.226 58.0308 110.837 60.0499 110.719 60.6831C110.65 60.0499 110.364 58.0308 110.224 57.2877L108.862 50.665H105.514L108.858 65.0283H112.06L114.124 57.4213C114.358 56.5253 114.622 55.0651 114.692 54.4965C114.784 55.0651 115.047 56.5049 115.281 57.4213L117.3 65.0283H120.642L123.985 50.665ZM140.383 49.236H137.328V64.9475H140.383V49.236ZM130.06 53.214C127.084 53.214 125.008 55.6864 125.044 59.211C125.08 62.8444 126.991 65.1855 130.523 65.1855C132.088 65.1855 133.731 64.5071 134.658 63.3247L133.106 61.7934C133.106 61.7934 132.107 62.5386 130.756 62.5924C129.124 62.657 128.133 61.6975 128.007 60.1221H134.745C135.461 55.4528 133.318 53.214 130.06 53.214ZM132.164 58.048H127.978C128.055 56.7924 128.831 55.6886 130.03 55.6886C132.133 55.6886 132.158 57.4729 132.164 58.048ZM153.903 53.214C150.929 53.214 148.85 55.6864 148.887 59.211C148.923 62.8444 150.834 65.1855 154.365 65.1855C155.931 65.1855 157.574 64.5071 158.5 63.3247L156.948 61.7934C156.948 61.7934 155.949 62.5386 154.598 62.5924C152.967 62.657 151.976 61.6975 151.848 60.1221H158.588C159.304 55.4528 157.16 53.214 153.903 53.214ZM156.007 58.048H151.82C151.897 56.7924 152.673 55.6886 153.873 55.6886C155.975 55.6886 156.001 57.4729 156.007 58.048Z" fill="#0C2950"/>
</svg>
