<svg width="201" height="91" viewBox="0 0 201 91" fill="none" xmlns="http://www.w3.org/2000/svg">
<path d="M48.8539 17.0539L61.8067 33.2873C61.8208 33.3014 61.8397 33.3108 61.8585 33.3014L81.8619 27.1215C81.9043 27.1074 81.9372 27.1544 81.9137 27.1921L70.2882 44.588C70.2788 44.6021 70.2788 44.6257 70.2882 44.6398L82.3091 61.6827C82.3326 61.7204 82.2996 61.7674 82.2573 61.7533L62.1644 56.1241C62.1456 56.1194 62.1268 56.1241 62.1126 56.143L49.6023 72.8423C49.574 72.8799 49.5175 72.8611 49.5175 72.814L48.6703 51.9822C48.6703 51.9634 48.6562 51.9446 48.6374 51.9399L28.9117 45.1811C28.8693 45.1669 28.8693 45.1058 28.9117 45.0916L48.4444 37.8528C48.4632 37.848 48.4727 37.8292 48.4774 37.8104L48.7739 17.0821C48.7739 17.0398 48.8257 17.0209 48.8539 17.0539Z" fill="url(#paint0_linear_2048_37899)"/>
<path d="M103.075 60.7377C103.009 60.7518 102.934 60.7565 102.868 60.7894C101.108 61.6602 99.2251 62.0179 97.2812 62.1167C95.5115 62.2062 93.7653 62.0555 92.0851 61.4672C88.122 60.0834 85.185 57.5136 83.2977 53.7624C82.3234 51.8232 81.848 49.7664 81.8574 47.5919C81.8715 43.9065 81.8904 40.2212 81.8527 36.5312C81.8339 34.5496 83.4012 32.6199 85.5616 32.441C86.6206 32.3516 87.5431 32.6858 88.3527 33.3447C89.3928 34.1872 89.8964 35.2933 89.8964 36.6347C89.8964 40.1788 89.9106 43.723 89.8964 47.2718C89.8917 48.9098 90.4283 50.3453 91.4449 51.6114C93.2758 53.8941 96.6976 55.0096 99.8652 53.4094C101.875 52.388 103.108 50.7877 103.456 48.5426C103.518 48.1567 103.508 47.7613 103.508 47.3707C103.513 43.8077 103.527 40.2494 103.503 36.6865C103.494 34.9874 104.28 33.7542 105.669 32.9211C106.996 32.121 108.389 32.2575 109.679 33.0764C110.545 33.6318 111.185 34.4084 111.458 35.4251C111.557 35.7828 111.599 36.1687 111.599 36.5359C111.571 42.4004 111.533 48.2696 111.495 54.1342C111.481 56.5958 111.453 59.0574 111.444 61.5237C111.434 63.9806 110.921 66.3245 109.773 68.5037C107.565 72.6974 104.078 75.2202 99.4887 76.2415C97.9872 76.5757 96.4482 76.6745 94.9044 76.6463C94.5419 76.6416 94.1842 76.651 93.8218 76.6463C91.8074 76.6227 90.2212 75.3378 89.6705 73.6199C89.0351 71.6431 89.9011 69.6333 91.7273 68.8802C92.3722 68.612 93.0546 68.5272 93.7512 68.499C94.9891 68.4472 96.2269 68.4049 97.4601 68.3013C99.2675 68.1554 100.632 67.2 101.701 65.7927C102.807 64.3289 103.245 62.6627 103.127 60.8365C103.132 60.813 103.103 60.7894 103.075 60.7377Z" fill="#3188C3"/>
<path d="M123.102 39.9474C123.083 40.0886 123.064 40.1639 123.064 40.2392C123.064 42.4984 123.055 44.7576 123.078 47.0168C123.102 49.4737 124.184 51.3893 126.175 52.7872C127.14 53.465 128.246 53.8368 129.437 53.8697C130.016 53.8886 130.6 53.8744 131.174 53.818C132.247 53.7191 133.188 53.2626 134.054 52.6413C134.548 52.2836 135.071 51.9588 135.584 51.6247C136.869 50.7869 138.215 50.7163 139.552 51.4411C140.902 52.1659 141.712 53.3002 141.754 54.8723C141.797 56.4867 141.237 57.8139 139.787 58.68C138.926 59.193 138.102 59.7719 137.231 60.2708C135.217 61.4287 133.038 61.9935 130.717 62.0311C127.771 62.0829 124.989 61.471 122.396 60.0402C119.261 58.3129 117.068 55.7618 115.755 52.4436C115.223 51.0928 114.917 49.6996 114.907 48.2264C114.889 44.3528 114.809 40.4792 114.771 36.6056C114.738 33.3909 114.771 30.1763 114.71 26.9616C114.649 23.681 118.4 22.0102 120.875 23.4316C121.967 24.0576 122.636 25.0224 122.918 26.2415C123.008 26.6368 123.055 27.0463 123.064 27.4511C123.083 28.7078 123.074 29.9598 123.078 31.2164C123.078 31.3671 123.078 31.5224 123.078 31.7342C123.295 31.7342 123.459 31.7342 123.629 31.7342C127.347 31.7342 131.065 31.7342 134.784 31.7342C135.885 31.7342 136.859 32.0684 137.617 32.892C138.695 34.0687 139.104 35.4525 138.606 36.9821C138.111 38.4977 137.052 39.4955 135.471 39.8815C135.203 39.9474 134.911 39.9474 134.628 39.9474C130.971 39.9521 127.319 39.9521 123.662 39.9521C123.478 39.9474 123.295 39.9474 123.102 39.9474Z" fill="#3188C3"/>
<path d="M172.824 37.5336C172.824 36.8888 172.838 36.244 172.805 35.6039C172.725 34.1448 172.01 33.034 170.805 32.2715C169.294 31.3161 167.204 31.542 165.858 32.7422C165.74 32.8458 165.627 32.9493 165.5 33.0623C165.227 32.8928 164.978 32.7328 164.724 32.5775C161.09 30.4124 157.212 29.8288 153.131 30.9113C149.206 31.9468 146.203 34.2907 144.08 37.7313C142.136 40.8848 141.416 44.3254 141.812 48.006C142.103 50.6982 143.021 53.1551 144.56 55.372C145.939 57.3629 147.667 59.0008 149.818 60.121C154.797 62.7238 159.749 62.6062 164.634 59.8292C164.757 59.7586 164.874 59.6927 165.03 59.608C165.11 59.7445 165.18 59.8622 165.251 59.9751C165.75 60.78 166.39 61.4295 167.298 61.7731C169.011 62.4179 171.045 61.8578 172.189 60.427C172.57 59.9516 172.829 59.4244 172.852 58.7984C172.866 58.389 172.88 57.9842 172.88 57.5747C172.857 50.9006 172.838 44.2171 172.824 37.5336ZM157.546 54.746C152.886 54.7319 149.116 50.8583 149.173 46.2457C149.229 41.6473 152.962 37.9102 157.574 37.9243C162.154 37.8631 166.009 41.6567 165.999 46.3163C165.985 51.0042 162.206 54.7601 157.546 54.746Z" fill="#3188C3"/>
<defs>
<linearGradient id="paint0_linear_2048_37899" x1="28.8817" y1="44.9481" x2="82.3204" y2="44.9481" gradientUnits="userSpaceOnUse">
<stop stop-color="#8D293A"/>
<stop offset="0.508" stop-color="#CC2124"/>
<stop offset="1" stop-color="#FB2817"/>
</linearGradient>
</defs>
</svg>
