<svg width="201" height="91" viewBox="0 0 201 91" fill="none" xmlns="http://www.w3.org/2000/svg">
<path d="M190.789 47.705C188.898 47.7954 186.469 47.4569 184.716 48.2868C184.085 48.5856 183.586 49.0831 183.237 49.6794C182.647 50.7105 182.452 51.7922 182.452 51.7922H177.133C177.294 48.3952 179.139 44.9621 182.41 43.6334C184.43 42.8131 186.728 42.7637 188.878 42.7384L196.137 42.7444C196.301 46.2462 196.439 49.9492 195.314 53.3173C194.293 56.3757 192.279 59.1186 189.637 60.9882C184.439 64.667 176.976 64.9031 171.557 61.5905C165.977 58.179 162.896 51.9524 163.233 45.4801C163.543 39.4992 167.255 33.5316 172.739 30.9297C175.817 29.4697 179.441 28.9469 182.801 29.536C186.564 30.1961 189.344 32.3078 192.171 34.7158L188.144 38.2609C186.236 36.772 184.528 35.4084 182.085 34.9362C180.098 34.5519 178.018 34.6375 176.113 35.347C172.33 36.7564 169.511 40.3196 168.844 44.2526C168.137 48.4157 169.406 52.7378 172.521 55.653C175.337 58.2899 179.574 59.1355 183.278 58.1284C185.456 57.537 187.433 56.1806 188.764 54.3629C190.222 52.3704 190.58 50.0913 190.791 47.7026L190.789 47.705Z" fill="#F1674F"/>
<path d="M134.14 28.6133L155.589 51.5128V30.1239H160.755V64.4876L139.266 41.7121V63.1529H134.14V28.6133Z" fill="#F1674F"/>
<path d="M116.963 30.1238H122.597L108.246 64.5743L93.9494 30.1238H99.5784L108.248 51.0201L116.963 30.1238Z" fill="#F1674F"/>
<path d="M83.1673 58.261V63.1529H61.1201V30.1238H66.467V58.261H83.1673Z" fill="#F1674F"/>
<path d="M91.1549 30.1238H85.8045V63.1541H91.1549V30.1238Z" fill="#F1674F"/>
<path d="M130.622 30.1238H125.283V63.1541H130.622V30.1238Z" fill="#F1674F"/>
<path d="M26.8279 36.6901H42.5427L23.7295 63.4166H48.6318C48.7201 63.3227 48.8061 63.2263 48.8933 63.1311C48.9248 63.0962 48.9575 63.06 48.9889 63.0251C49.0713 62.9336 49.1524 62.8408 49.2335 62.7481C49.2662 62.7107 49.2989 62.6722 49.3316 62.6336C49.4139 62.5385 49.4951 62.4421 49.5762 62.3445C49.5968 62.3204 49.6161 62.2963 49.6355 62.2722C49.9091 61.941 50.1743 61.6025 50.4298 61.2568C50.4528 61.2266 50.4758 61.1953 50.4976 61.1652C50.5739 61.0616 50.6489 60.9568 50.7228 60.852C50.7482 60.8159 50.7749 60.7797 50.8003 60.7424C50.8754 60.6352 50.9492 60.528 51.0231 60.4208C51.04 60.3955 51.057 60.3702 51.0739 60.3449C51.3221 59.9763 51.5607 59.6004 51.7883 59.2186C51.7992 59.2005 51.8089 59.1836 51.8198 59.1668C51.89 59.0499 51.9578 58.9319 52.0256 58.8126C52.0438 58.7801 52.0631 58.7476 52.0813 58.715C52.1479 58.597 52.2145 58.4789 52.2787 58.3597C52.292 58.3344 52.3053 58.3091 52.3198 58.2838C52.5402 57.8742 52.7496 57.4586 52.947 57.037H35.5964L51.4335 33.7412C50.6622 32.527 49.7869 31.3838 48.8194 30.3237H26.8255V36.6937L26.8279 36.6901Z" fill="white"/>
<path d="M55.2271 46.7655C55.2271 50.4311 54.4099 53.9088 52.9472 57.036H35.5979L51.435 33.7401C53.8359 37.519 55.2247 41.982 55.2247 46.7655H55.2271ZM42.5429 36.6902H26.8281V30.3202H48.8221C44.2247 25.2838 37.5472 22.1133 30.1154 22.1133C16.247 22.1133 5.00488 33.1511 5.00488 46.7655C5.00488 60.3799 16.247 71.4177 30.1154 71.4177C37.4443 71.4177 44.037 68.3327 48.6271 63.4167H23.7285L42.5417 36.6902H42.5429Z" fill="url(#paint0_linear_2048_37982)"/>
<defs>
<linearGradient id="paint0_linear_2048_37982" x1="11.594" y1="30.6901" x2="49.2708" y2="63.7295" gradientUnits="userSpaceOnUse">
<stop stop-color="#FABC35"/>
<stop offset="1" stop-color="#ED4A30"/>
</linearGradient>
</defs>
</svg>
